<?xml version="1.0" standalone="no"?>
<!DOCTYPE svg PUBLIC "-//W3C//DTD SVG 1.1//EN" "http://www.w3.org/Graphics/SVG/1.1/DTD/svg11.dtd" >
<svg>
<metadata>
Created by FontForge 20090914 at Wed Feb 12 22:01:35 2020
 By www-data
Copyright (c) 2018 ParaType Inc., ParaType Ltd. All rights reserved.
</metadata>
<defs>
<font id="SBSansInterface-Light" horiz-adv-x="450" >
  <font-face 
    font-family="SB Sans Interface Light"
    font-weight="300"
    font-stretch="expanded"
    units-per-em="1000"
    panose-1="2 11 3 3 4 5 4 2 2 4"
    ascent="815"
    descent="-185"
    x-height="520"
    cap-height="700"
    bbox="-309 -210.002 1235 932.001"
    underline-thickness="50"
    underline-position="-63"
    unicode-range="U+000D-U+FEFF"
  />
<missing-glyph horiz-adv-x="500" 
d="M442 8v496h-384v-496h384zM50 512h400v-512h-400v512z" />
    <glyph glyph-name="f_f" unicode="ff" horiz-adv-x="730" 
d="M470 464h-269.998v-464h-60v464h-100v56h100v85c0 52 11.667 90 35 114s60 36 110 36c16 0 30.5 -1 43.5 -3s23.5 -4.66699 31.5 -8v-68c-9.33301 6 -20.833 11 -34.5 15s-28.834 6 -45.501 6c-15.333 0 -28 -1.5 -38 -4.5s-18.167 -8.33301 -24.5 -16
s-10.833 -18 -13.5 -31s-4 -29.833 -4 -50.5v-75h270v85c0 52 11.667 90 35 114s60 36 110 36c16 0 30.5 -1 43.5 -3s23.5 -4.66699 31.5 -8v-68c-9.33301 6 -20.833 11 -34.5 15s-28.834 6 -45.501 6c-15.333 0 -28 -1.5 -38 -4.5s-18.167 -8.33301 -24.5 -16
s-10.833 -18 -13.5 -31s-4 -29.833 -4 -50.5v-75h160v-56h-160v-464h-60v464z" />
    <glyph glyph-name="fi" unicode="fi" horiz-adv-x="635" 
d="M485 464h-284.999v-464h-60v464h-100v56h100v85c0 52 11.667 90 35 114s60 36 110 36c16 0 30.5 -1 43.5 -3s23.5 -4.66699 31.5 -8v-68c-9.33301 6 -20.833 11 -34.5 15s-28.834 6 -45.501 6c-15.333 0 -28 -1.5 -38 -4.5s-18.167 -8.33301 -24.5 -16
s-10.833 -18 -13.5 -31s-4 -29.833 -4 -50.5v-75h345v-520h-60v464zM515.001 638c-28 0 -42 14 -42 42s14 42 42 42s42 -14 42 -42s-14 -42 -42 -42z" />
    <glyph glyph-name="fl" unicode="fl" horiz-adv-x="685" 
d="M575 -5c-41.333 0 -71.6641 10.0029 -90.9971 30.0029s-29 50 -29 90v578c-32.667 0 -61.334 0.666992 -86.001 2s-51 2 -79 2c-32.667 0 -55.834 -7.33301 -69.501 -22s-20.5 -41.334 -20.5 -80.001v-75h127v-56h-127v-464h-60v464h-100v56h100v85
c0 100 51.667 150 155 150c15.333 0 29.666 -0.166992 42.999 -0.5s27.666 -0.833008 42.999 -1.5s32.333 -1.33398 51 -2.00098s40.667 -1 66 -1h17v-625c0 -28.667 5 -47.834 15 -57.501s26.667 -14.5 50 -14.5c12.667 0 24.834 1.66699 36.501 5
s21.167 6.66602 28.5 9.99902v-58c-7.33301 -3.33301 -17 -6.66602 -29 -9.99902s-25.667 -5 -41 -5z" />
    <glyph glyph-name="f_f_i" unicode="ffi" horiz-adv-x="955" 
d="M470 464h-269.998v-464h-60v464h-100v56h100v85c0 52 11.667 90 35 114s60 36 110 36c16 0 30.5 -1 43.5 -3s23.5 -4.66699 31.5 -8v-68c-9.33301 6 -20.833 11 -34.5 15s-28.834 6 -45.501 6c-15.333 0 -28 -1.5 -38 -4.5s-18.167 -8.33301 -24.5 -16
s-10.833 -18 -13.5 -31s-4 -29.833 -4 -50.5v-75h270v85c0 52 11.667 90 35 114s60 36 110 36c16 0 30.5 -1 43.5 -3s23.5 -4.66699 31.5 -8v-68c-9.33301 6 -20.833 11 -34.5 15s-28.834 6 -45.501 6c-15.333 0 -28 -1.5 -38 -4.5s-18.167 -8.33301 -24.5 -16
s-10.833 -18 -13.5 -31s-4 -29.833 -4 -50.5v-75h335v-520h-60v464h-275v-464h-60v464zM835.002 638c-28 0 -42 14 -42 42s14 42 42 42s42 -14 42 -42s-14 -42 -42 -42z" />
    <glyph glyph-name="f_f_l" unicode="ffl" horiz-adv-x="1015" 
d="M465 464l-265 0.00292969v-464h-60v464h-100v56h100v85c0 52 11.667 90 35 114s60 36 110 36c16 0 30.5 -1 43.5 -3s23.5 -4.66699 31.5 -8v-68c-9.33301 6 -20.833 11 -34.5 15s-28.834 6 -45.501 6c-15.333 0 -28 -1.5 -38 -4.5s-18.167 -8.33301 -24.5 -16
s-10.833 -18 -13.5 -31s-4 -29.833 -4 -50.5v-75h265v85c0 100 51.667 150 155 150c16 0 31.333 -0.166992 46 -0.5s30.5 -0.833008 47.5 -1.5s36 -1.33398 57 -2.00098s45.833 -1 74.5 -1v-625c0 -28.667 5 -47.834 15 -57.501s26.667 -14.5 50 -14.5
c12.667 0 24.834 1.66699 36.501 5s21.167 6.66602 28.5 9.99902v-58c-7.33301 -3.33301 -17 -6.66602 -29 -9.99902s-25.667 -5 -41 -5c-41.333 0 -71.666 10 -90.999 30s-29 50 -29 90v578c-33.333 0 -63 0.666992 -89 2s-53 2 -81 2
c-32.667 0 -55.834 -7.33301 -69.501 -22s-20.5 -41.334 -20.5 -80.001v-75h132v-56h-132v-464h-60v464z" />
    <glyph glyph-name=".notdef" horiz-adv-x="500" 
d="M442 8v496h-384v-496h384zM50 512h400v-512h-400v512z" />
    <glyph glyph-name=".null" horiz-adv-x="0" 
 />
    <glyph glyph-name=".null" horiz-adv-x="0" 
 />
    <glyph glyph-name="uni000D" unicode="&#xd;" horiz-adv-x="250" 
 />
    <glyph glyph-name="space" unicode=" " horiz-adv-x="250" 
 />
    <glyph glyph-name="exclam" unicode="!" horiz-adv-x="330" 
d="M165 -5c-33.333 0 -50 16.667 -50 50s16.667 50 50 50s50 -16.667 50 -50s-16.667 -50 -50 -50zM133 700h64v-480h-64v480z" />
    <glyph glyph-name="quotedbl" unicode="&#x22;" horiz-adv-x="470" 
d="M103 700h60v-280h-60v280zM307 700h60v-280h-60v280z" />
    <glyph glyph-name="numbersign" unicode="#" horiz-adv-x="600" 
d="M348 201h-149l-35 -201h-64l35 201h-105l11 58h104l32 182h-104l10 58h104l36 201h64l-36 -201h149l36 201h64l-36 -201h106l-10 -58h-106l-32 -182h106l-11 -58h-105l-35 -201h-64zM209 259h149l32 182h-149z" />
    <glyph glyph-name="dollar" unicode="$" horiz-adv-x="600" 
d="M278 -10c-38.667 1.33301 -74.165 7.33105 -106.498 17.998s-57.833 23 -76.5 37v80c22 -19.333 49.667 -36.666 83 -51.999s70.666 -23 111.999 -23c56.667 0 97.334 11.167 122.001 33.5s37 54.5 37 96.5c0 24.667 -5 45.334 -15 62.001s-23.167 30.667 -39.5 42
s-35 21 -56 29l-64 23.5c-21.667 7.66699 -43 16.167 -64 25.5s-39.667 21.333 -56 36s-29.5 32.5 -39.5 53.5s-15 47.167 -15 78.5c0 52 14 93.333 42 124s73.333 48.667 136 54v92h54v-90c32 -1.33301 61.167 -5.16602 87.5 -11.499s48.166 -14.166 65.499 -23.499v-80
c-18 16 -42 29.167 -72 39.5s-61 15.5 -93 15.5c-58 0 -98.167 -9.83301 -120.5 -29.5s-33.5 -49.834 -33.5 -90.501c0 -32.667 8.66699 -57.834 26 -75.501s38.833 -32 64.5 -43s53.667 -21 84 -30s58.333 -21 84 -36s47.167 -35.333 64.5 -61s26 -60.5 26 -104.5
c0 -54.667 -14.833 -98.167 -44.5 -130.5s-75.834 -51.5 -138.501 -57.5v-112h-54v110z" />
    <glyph glyph-name="percent" unicode="%" horiz-adv-x="860" 
d="M636 700h64l-476 -700h-64zM235 375c-50 0 -89.167 14.5 -117.5 43.5s-42.5 69.5 -42.5 121.5s14.167 92.5 42.5 121.5s67.5 43.5 117.5 43.5s89.167 -14.5 117.5 -43.5s42.5 -69.5 42.5 -121.5s-14.167 -92.5 -42.5 -121.5s-67.5 -43.5 -117.5 -43.5zM235 427
c34 0 59.833 9.33301 77.5 28s26.5 47 26.5 85s-8.83301 66.333 -26.5 85s-43.5 28 -77.5 28s-59.833 -9.33301 -77.5 -28s-26.5 -47 -26.5 -85s8.83301 -66.333 26.5 -85s43.5 -28 77.5 -28zM625 -5c-50 0 -89.167 14.5 -117.5 43.5s-42.5 69.5 -42.5 121.5
s14.167 92.5 42.5 121.5s67.5 43.5 117.5 43.5s89.167 -14.5 117.5 -43.5s42.5 -69.5 42.5 -121.5s-14.167 -92.5 -42.5 -121.5s-67.5 -43.5 -117.5 -43.5zM625 47c34 0 59.833 9.33301 77.5 28s26.5 47 26.5 85s-8.83301 66.333 -26.5 85s-43.5 28 -77.5 28
s-59.833 -9.33301 -77.5 -28s-26.5 -47 -26.5 -85s8.83301 -66.333 26.5 -85s43.5 -28 77.5 -28z" />
    <glyph glyph-name="ampersand" unicode="&#x26;" horiz-adv-x="800" 
d="M301 -10c-73.333 0 -129.335 16.8291 -168.002 50.4961s-58 84.834 -58 153.501c0 50 13.333 92.167 40 126.5s66.667 63.5 120 87.5c-16.667 30 -29.5 58.5 -38.5 85.5s-13.5 51.5 -13.5 73.5c0 44 12.667 78.833 38 104.5s66.333 38.5 123 38.5
c42.667 0 78 -11 106 -33s42 -55.333 42 -100c0 -25.333 -4.16699 -47.333 -12.5 -66s-20.333 -35.5 -36 -50.5s-34.5 -28.333 -56.5 -40s-46.333 -22.5 -73 -32.5c27.333 -41.333 59.5 -81.666 96.5 -120.999s76.5 -75.333 118.5 -108c34 40.667 60.5 89.334 79.5 146.001
s30.167 115 33.5 175h62c-4 -64 -16.667 -127.167 -38 -189.5s-51 -117.166 -89 -164.499c24.667 -16.667 48.167 -30.5 70.5 -41.5s44.833 -19.167 67.5 -24.5v-70c-30 8 -59.667 19.667 -89 35s-59.666 34 -90.999 56c-32 -29.333 -67.667 -51.833 -107 -67.5
s-81.666 -23.5 -126.999 -23.5zM307.998 50.9961c32 0 63.1699 5.33008 93.5029 15.9971s58.833 27.334 85.5 50.001c-44.667 36 -86.334 75.167 -125.001 117.5s-72.334 85.833 -101.001 130.5c-38.667 -17.333 -68.834 -38.666 -90.501 -63.999
s-32.5 -58.666 -32.5 -99.999c0 -46 13 -82.5 39 -109.5s69.667 -40.5 131 -40.5zM337.001 653.993c-28 0 -50.666 -7.00293 -67.999 -21.0029s-26 -37 -26 -69c0 -19.333 4.16699 -40.333 12.5 -63s19.5 -46.667 33.5 -72c22 8.66699 41.667 17.334 59 26.001
s32.166 18.334 44.499 29.001s21.833 22.834 28.5 36.501s10 29.5 10 47.5c0 27.333 -7.16699 48.5 -21.5 63.5s-38.5 22.5 -72.5 22.5z" />
    <glyph glyph-name="quotesingle" unicode="'" horiz-adv-x="270" 
d="M103 700h64v-280h-64v280z" />
    <glyph glyph-name="parenleft" unicode="(" horiz-adv-x="380" 
d="M100 285c0 56 5.50098 107.335 16.501 154.002s25.333 89.5 43 128.5s38 74.333 61 106s46.5 60.5 70.5 86.5l39 -30l-56 -78c-19.333 -28 -37 -59.833 -53 -95.5s-29.167 -75.834 -39.5 -120.501s-15.5 -95.334 -15.5 -152.001c0 -56 5.16699 -106.167 15.5 -150.5
s23.5 -84.333 39.5 -120s33.667 -67.5 53 -95.5l56 -78l-40 -30c-24 26 -47.333 54.833 -70 86.5s-42.834 67 -60.501 106s-32 81.833 -43 128.5s-16.5 98 -16.5 154z" />
    <glyph glyph-name="parenright" unicode=")" horiz-adv-x="380" 
d="M280 285c0 -56 -5.50098 -107.335 -16.501 -154.002s-25.333 -89.5 -43 -128.5s-38 -74.333 -61 -106s-46.5 -60.5 -70.5 -86.5l-39 30l56 78c19.333 28 37 59.833 53 95.5s29.167 75.834 39.5 120.501s15.5 95.334 15.5 152.001c0 56 -5.16699 106.167 -15.5 150.5
s-23.5 84.333 -39.5 120s-33.667 67.5 -53 95.5l-56 78l40 30c24 -26 47.333 -54.833 70 -86.5s42.834 -67 60.501 -106s32 -81.833 43 -128.5s16.5 -98 16.5 -154z" />
    <glyph glyph-name="asterisk" unicode="*" horiz-adv-x="500" 
d="M118 391l97 117l-143 41l19 60l138 -61l-11 152h63l-10 -152l137 61l20 -60l-144 -42l98 -116l-52 -36l-81 127l-80 -127z" />
    <glyph glyph-name="plus" unicode="+" horiz-adv-x="600" 
d="M271 331h-171v58h171v171h58v-171h171v-58h-171v-171h-58v171z" />
    <glyph glyph-name="comma" unicode="," horiz-adv-x="320" 
d="M75 -110c28 11.333 49.5 26.833 64.5 46.5s23.167 39.167 24.5 58.5c-36 0 -54 16.667 -54 50s16.667 50 50 50c36.667 0 55 -23.333 55 -70c0 -39.333 -10.333 -74.833 -31 -106.5s-47.667 -54.5 -81 -68.5z" />
    <glyph glyph-name="hyphen" unicode="-" horiz-adv-x="400" 
d="M50 299h300v-58h-300v58z" />
    <glyph glyph-name="period" unicode="." horiz-adv-x="320" 
d="M160 -5c-33.333 0 -50 16.667 -50 50s16.667 50 50 50s50 -16.667 50 -50s-16.667 -50 -50 -50z" />
    <glyph glyph-name="slash" unicode="/" horiz-adv-x="400" 
d="M325 750h60l-310 -930h-60z" />
    <glyph glyph-name="zero" unicode="0" horiz-adv-x="600" 
d="M300 -10c-36.667 0 -69.1689 5.83105 -97.502 17.498s-52.333 31.334 -72 59.001s-34.667 64.5 -45 110.5s-15.5 103.667 -15.5 173c0 68.667 5.16699 126 15.5 172s25.333 83 45 111s43.834 47.833 72.501 59.5s61 17.5 97 17.5c38.667 0 72.334 -5.5 101.001 -16.5
s52.5 -30 71.5 -57s33.333 -63.833 43 -110.5s14.5 -105.334 14.5 -176.001c0 -70 -5 -128.167 -15 -174.5s-24.667 -83.166 -44 -110.499s-43.333 -46.666 -72 -57.999s-61.667 -17 -99 -17zM299.998 49.998c27.333 0 51.3301 4.16699 71.9971 12.5
s37.834 23.5 51.501 45.5s23.834 52.5 30.501 91.5s10 89.167 10 150.5c0 62 -3.33301 112.5 -10 151.5s-16.667 69.5 -30 91.5s-30.333 37 -51 45s-45 12 -73 12c-27.333 0 -51.166 -4.16699 -71.499 -12.5s-37.333 -23.5 -51 -45.5s-24 -52.5 -31 -91.5
s-10.5 -89.167 -10.5 -150.5c0 -60 3.66699 -109.333 11 -148s18 -69.167 32 -91.5s31.167 -38 51.5 -47s43.5 -13.5 69.5 -13.5z" />
    <glyph glyph-name="one" unicode="1" horiz-adv-x="600" 
d="M125 58h199v566l-199 -125v64l218 137h45v-642h137v-58h-400v58z" />
    <glyph glyph-name="two" unicode="2" horiz-adv-x="600" 
d="M70 47l129 119.004l98 90.5c28 26.333 51.5 49.666 70.5 69.999s34.333 39.666 46 57.999s20 36.666 25 54.999s7.5 38.833 7.5 61.5c0 52 -13.833 89.833 -41.5 113.5s-70.5 35.5 -128.5 35.5c-36 0 -69.833 -6.5 -101.5 -19.5s-59.834 -28.167 -84.501 -45.5v79
c28 14.667 59 26 93 34s68.667 12 104 12c148.667 0 223 -67.333 223 -202c0 -38 -6.16699 -72.167 -18.5 -102.5s-32.166 -61.833 -59.499 -94.5s-63 -68.834 -107 -108.501l-162 -144.5h357v-58h-450v47z" />
    <glyph glyph-name="three" unicode="3" horiz-adv-x="600" 
d="M288 -10c-44 0 -85.167 4.16797 -123.5 12.501s-68.166 18.833 -89.499 31.5v82c20.667 -15.333 48.334 -29.833 83.001 -43.5s76 -20.5 124 -20.5c36.667 0 66.667 3.5 90 10.5s41.666 17 54.999 30s22.666 28.667 27.999 47s8 38.5 8 60.5c0 42.667 -15.667 75 -47 97
s-82 33 -152 33h-78v58h76c58.667 0 102.667 12.167 132 36.5s44 57.833 44 100.5c0 44.667 -12 76.834 -36 96.501s-65 29.5 -123 29.5c-23.333 0 -44.833 -1.83301 -64.5 -5.5s-37.667 -8.33398 -54 -14.001s-31 -11.834 -44 -18.501s-24.167 -13 -33.5 -19v73
c22 11.333 51.5 21.333 88.5 30s76.833 13 119.5 13c75.333 0 129 -14.5 161 -43.5s48 -72.167 48 -129.5c0 -50 -12.167 -88.333 -36.5 -115s-59.166 -45 -104.499 -55c54.667 -4.66699 96 -21.167 124 -49.5s42 -69.833 42 -124.5c0 -68.667 -20.333 -119.667 -61 -153
s-99.334 -50 -176.001 -50z" />
    <glyph glyph-name="four" unicode="4" horiz-adv-x="600" 
d="M381 192h-341v45l331 463h74v-450h100v-58h-100v-192h-64v192zM381 250v373l-263 -373h263z" />
    <glyph glyph-name="five" unicode="5" horiz-adv-x="600" 
d="M90 97c24 -17.333 51.665 -29.5 82.998 -36.5s61.666 -10.5 90.999 -10.5c68.667 0 118.167 13.667 148.5 41s45.5 69.666 45.5 126.999c0 27.333 -3.33301 50.5 -10 69.5s-17.667 34.5 -33 46.5s-35.166 20.667 -59.499 26s-54.166 8 -89.499 8
c-33.333 0 -64.666 -1.16699 -93.999 -3.5s-53.666 -5.16602 -72.999 -8.49902l26 344h373v-58h-322l-18 -219c12 1.33301 29.667 2.5 53 3.5s49.666 1.5 78.999 1.5c81.333 0 140 -16.833 176 -50.5s54 -84.5 54 -152.5c0 -36 -4.33301 -68.5 -13 -97.5
s-23 -53.667 -43 -74s-46 -36 -78 -47s-71 -16.5 -117 -16.5c-34 0 -67 3 -99 9s-58.667 14 -80 24v74z" />
    <glyph glyph-name="six" unicode="6" horiz-adv-x="600" 
d="M315 -10c-86 0 -148.337 27.1689 -187.004 81.502s-58 136.833 -58 247.5c0 70 6.66699 129.667 20 179s32.5 89.833 57.5 121.5s55.5 54.667 91.5 69s76.667 21.5 122 21.5c50.667 0 92.667 -7.33301 126 -22v-73c-15.333 9.33301 -33.166 17.333 -53.499 24
s-47.166 10 -80.499 10s-63.833 -5.33301 -91.5 -16s-51.5 -28 -71.5 -52s-35.5 -55.167 -46.5 -93.5s-16.5 -84.833 -16.5 -139.5c0 -2.66699 0.166992 -7 0.5 -13s0.5 -12.667 0.5 -20c17.333 42.667 43 75.5 77 98.5s78 34.5 132 34.5c67.333 0 118 -19 152 -57
s51 -90.667 51 -158c0 -42.667 -6.16699 -79.334 -18.5 -110.001s-28.666 -55.834 -48.999 -75.501s-44.166 -34.167 -71.499 -43.5s-56 -14 -86 -14zM140.996 265.002c0.666992 -69.333 15.668 -122.331 45.001 -158.998s73.666 -55 132.999 -55
c22.667 0 43.834 3.5 63.501 10.5s36.5 17.5 50.5 31.5s25 31.833 33 53.5s12 47.167 12 76.5c0 60 -13.333 102.833 -40 128.5s-66 38.5 -118 38.5c-28.667 0 -53.334 -4 -74.001 -12s-38 -18.333 -52 -31s-25.333 -26.334 -34 -41.001s-15 -28.334 -19 -41.001z" />
    <glyph glyph-name="seven" unicode="7" horiz-adv-x="600" 
d="M452 642h-387v58h460v-46l-289 -654h-68z" />
    <glyph glyph-name="eight" unicode="8" horiz-adv-x="600" 
d="M303 -10c-79.333 0 -138 17.667 -176 53s-57 84.666 -57 147.999c0 20.667 1.83301 40.667 5.5 60s10.834 36.833 21.501 52.5s25.167 29.334 43.5 41.001s42.166 20.5 71.499 26.5c-48 8.66699 -80.833 26.667 -98.5 54s-26.5 63.333 -26.5 108
c0 54.667 17.333 97.834 52 129.501s89 47.5 163 47.5s126.833 -14.333 158.5 -43s47.5 -68.334 47.5 -119.001c0 -22 -1.66699 -42.5 -5 -61.5s-9.5 -36 -18.5 -51s-21.333 -27.667 -37 -38s-36.167 -18.5 -61.5 -24.5c28 -4.66699 51.167 -12 69.5 -22s33 -22.667 44 -38
s18.833 -33 23.5 -53s7 -42 7 -66c0 -30 -4.33301 -57.5 -13 -82.5s-22.167 -46.5 -40.5 -64.5s-41.833 -32 -70.5 -42s-63 -15 -103 -15zM304 50c56.667 0 97.499 12.668 122.499 38.001s37.5 61.666 37.5 108.999c0 99.333 -53.667 148 -161 146
c-32.667 -0.666992 -59.667 -4.66699 -81 -12s-38.333 -17.166 -51 -29.499s-21.667 -27.333 -27 -45s-8 -36.834 -8 -57.501c0 -48.667 13.833 -85.667 41.5 -111s69.834 -38 126.501 -38zM299.999 650.001c-27.333 0 -50.3311 -3.00098 -68.998 -9.00098
s-33.834 -14.5 -45.501 -25.5s-20 -24.5 -25 -40.5s-7.5 -33.667 -7.5 -53c0 -20 2.66699 -38.167 8 -54.5s14 -30.166 26 -41.499s27.667 -20 47 -26s42.666 -8.66699 69.999 -8c28 0.666992 51 4.5 69 11.5s32.167 16.5 42.5 28.5s17.333 26 21 42s5.5 33.333 5.5 52
c0 43.333 -10.667 74.833 -32 94.5s-58 29.5 -110 29.5z" />
    <glyph glyph-name="nine" unicode="9" horiz-adv-x="600" 
d="M244 -10c-26 0 -49.665 1.99805 -70.998 5.99805s-40 9.66699 -56 17v74c15.333 -10 33.333 -18.5 54 -25.5s47.667 -10.5 81 -10.5c32.667 0 62.834 5.33301 90.501 16s51.5 28 71.5 52s35.667 55.167 47 93.5s17 85.166 17 140.499c0 4.66699 -0.166992 10 -0.5 16
s-0.833008 11.667 -1.5 17c-15.333 -42 -40 -74.667 -74 -98s-78 -35 -132 -35c-67.333 0 -118.333 19 -153 57s-52 90.333 -52 157c0 42.667 6.16699 79.334 18.5 110.001s28.666 55.834 48.999 75.501s44.166 34.167 71.499 43.5s56 14 86 14
c44 0 81.667 -6.83301 113 -20.5s56.666 -34.167 75.999 -61.5s33.5 -62.166 42.5 -104.499s13.5 -91.833 13.5 -148.5c0 -68 -6.66699 -126.333 -20 -175s-32.5 -88.5 -57.5 -119.5s-55.5 -53.833 -91.5 -68.5s-76.667 -22 -122 -22zM286.002 310.998
c30 0 55.5 4.16699 76.5 12.5s38.667 19 53 32s25.333 27.5 33 43.5s13.167 31.667 16.5 47c-1.33301 62 -16 111.333 -44 148s-73 55 -135 55c-46.667 0 -85 -14 -115 -42s-45 -71.333 -45 -130c0 -59.333 13.667 -101.833 41 -127.5s67 -38.5 119 -38.5z" />
    <glyph glyph-name="colon" unicode=":" horiz-adv-x="330" 
d="M165 -5c-33.333 0 -50 16.667 -50 50s16.667 50 50 50s50 -16.667 50 -50s-16.667 -50 -50 -50zM165 405c-33.333 0 -50 16.667 -50 50s16.667 50 50 50s50 -16.667 50 -50s-16.667 -50 -50 -50z" />
    <glyph glyph-name="semicolon" unicode=";" horiz-adv-x="330" 
d="M80 -110c28 11.333 49.5 26.833 64.5 46.5s23.167 39.167 24.5 58.5c-36 0 -54 16.667 -54 50s16.667 50 50 50c36.667 0 55 -23.333 55 -70c0 -39.333 -10.333 -74.833 -31 -106.5s-47.667 -54.5 -81 -68.5zM165 405c-33.333 0 -50 16.667 -50 50s16.667 50 50 50
s50 -16.667 50 -50s-16.667 -50 -50 -50z" />
    <glyph glyph-name="less" unicode="&#x3c;" horiz-adv-x="600" 
d="M100 337v46l400 197v-66l-320 -153l320 -153v-68z" />
    <glyph glyph-name="equal" unicode="=" horiz-adv-x="600" 
d="M100 289h400v-58h-400v58zM100 489h400v-58h-400v58z" />
    <glyph glyph-name="greater" unicode="&#x3e;" horiz-adv-x="600" 
d="M500 383v-46l-400 -197v66l320 153l-320 153v68z" />
    <glyph glyph-name="question" unicode="?" horiz-adv-x="480" 
d="M195 -5c-33.333 0 -50 16.667 -50 50s16.667 50 50 50s50 -16.667 50 -50s-16.667 -50 -50 -50zM165 210c0 31.333 4.83203 57.1689 14.499 77.502s21.834 37.833 36.501 52.5s30.667 27.667 48 39s33.333 23.666 48 36.999s26.834 28.833 36.501 46.5
s14.5 40.167 14.5 67.5c0 38 -11.667 67.5 -35 88.5s-62 31.5 -116 31.5c-34 0 -63.333 -4 -88 -12s-47.667 -18 -69 -30v70c25.333 11.333 52 19.5 80 24.5s53.667 7.5 77 7.5c75.333 0 129.666 -15.333 162.999 -46s50 -75.334 50 -134.001c0 -32.667 -5 -59.667 -15 -81
s-22.333 -39.666 -37 -54.999s-30.667 -28.833 -48 -40.5s-33.333 -24 -48 -37s-27 -27.833 -37 -44.5s-15 -37.334 -15 -62.001h-60z" />
    <glyph glyph-name="at" unicode="@" horiz-adv-x="900" 
d="M466 -130c-66 0 -124 9.66797 -174 29.001s-91.833 46.833 -125.5 82.5s-59 79 -76 130s-25.5 108.5 -25.5 172.5c0 62 8.5 118.5 25.5 169.5s42.167 94.833 75.5 131.5s74.666 65.167 123.999 85.5s106 30.5 170 30.5c58.667 0 111.334 -8.5 158.001 -25.5
s86 -41.333 118 -73s56.5 -70.167 73.5 -115.5s25.5 -96.333 25.5 -153c0 -48.667 -4.5 -90.167 -13.5 -124.5s-21.167 -62.333 -36.5 -84s-33.166 -37.5 -53.499 -47.5s-41.5 -15 -63.5 -15c-33.333 0 -57.833 7.5 -73.5 22.5s-25.167 42.167 -28.5 81.5
c-8 -33.333 -23.5 -59 -46.5 -77s-55.833 -27 -98.5 -27c-30.667 0 -56.5 4.83301 -77.5 14.5s-38 23.834 -51 42.501s-22.333 42 -28 70s-8.5 60.667 -8.5 98c0 39.333 4.5 73.166 13.5 101.499s21.333 51.666 37 69.999s34.334 31.833 56.001 40.5s45.167 13 70.5 13
c22 0 40.5 -2.16699 55.5 -6.5s27.5 -10.5 37.5 -18.5s18 -17.5 24 -28.5s10.667 -23.167 14 -36.5l8 81h45v-316c0 -25.333 3.66699 -44 11 -56s21.666 -18 42.999 -18c14 0 28 3.66699 42 11s26.5 19.5 37.5 36.5s19.833 39.333 26.5 67s10 62.167 10 103.5
c0 101.333 -27.833 180.333 -83.5 237s-137.834 85 -246.501 85c-111.333 0 -196.333 -31.833 -255 -95.5s-88 -155.5 -88 -275.5c0 -116.667 29.833 -206.834 89.5 -270.501s146.834 -95.5 261.501 -95.5c34 0 66.333 3.83301 97 11.5s55.667 17.834 75 30.501v-54
c-18.667 -9.33301 -43.334 -17.5 -74.001 -24.5s-63 -10.5 -97 -10.5zM434 114.001c43.333 0 75 13.001 95 39.001s30 65 30 117v51c0 49.333 -10.167 85 -30.5 107s-49.166 33 -86.499 33c-20.667 0 -38.834 -2.83301 -54.501 -8.5s-29 -15.167 -40 -28.5
s-19.333 -31 -25 -53s-8.5 -49.333 -8.5 -82c0 -29.333 1.83301 -54.833 5.5 -76.5s10 -39.834 19 -54.501s21.333 -25.667 37 -33s35.167 -11 58.5 -11z" />
    <glyph glyph-name="A" unicode="A" horiz-adv-x="640" 
d="M288 700h64l263 -700h-70l-73 201h-308l-73 -201h-66zM185 259h266l-133 366z" />
    <glyph glyph-name="B" unicode="B" horiz-adv-x="625" 
d="M310 -5c-22.667 0 -45.834 0.499023 -69.501 1.49902s-45.167 2.16699 -64.5 3.5c-22.667 1.33301 -44.667 3 -66 5v690c22 1.33301 44 3 66 5c19.333 1.33301 40.333 2.5 63 3.5s44.667 1.5 66 1.5c44 0 80.833 -3.5 110.5 -10.5s53.334 -17.833 71.001 -32.5
s30.167 -33.5 37.5 -56.5s11 -50.833 11 -83.5c0 -42 -9.33301 -76 -28 -102s-48.667 -44.667 -90 -56c49.333 -7.33301 85.5 -24.666 108.5 -51.999s34.5 -65.333 34.5 -114c0 -66 -19.333 -116.333 -58 -151s-102.667 -52 -192 -52zM494 197.999
c0 44 -12.832 77.167 -38.499 99.5s-70.834 33.5 -135.501 33.5h-146v-271c11.333 -1.33301 24 -2.33301 38 -3c12 -0.666992 26.333 -1.16699 43 -1.5s35 -0.5 55 -0.5c35.333 0 64.833 2.66699 88.5 8s42.5 13.833 56.5 25.5s24 26.5 30 44.5s9 39.667 9 65z
M469.001 521.999c0 22.667 -2.33496 41.832 -7.00195 57.499s-13.167 28.334 -25.5 38.001s-29.166 16.667 -50.499 21s-48.333 6.5 -81 6.5c-19.333 0 -37 -0.166992 -53 -0.5s-29.667 -0.833008 -41 -1.5c-13.333 -0.666992 -25.666 -1 -36.999 -1v-253h136
c58 0 99 11 123 33s36 55.333 36 100z" />
    <glyph glyph-name="C" unicode="C" horiz-adv-x="575" 
d="M355 -10c-48.667 0 -91.6719 6.83301 -129.005 20.5s-68.666 35.167 -93.999 64.5s-44.5 67 -57.5 113s-19.5 101.667 -19.5 167c0 62 6.66699 115.333 20 160s32.5 81.5 57.5 110.5s55.833 50.333 92.5 64s78.334 20.5 125.001 20.5c25.333 0 47.833 -1.33301 67.5 -4
s36.834 -5.66699 51.501 -9c16.667 -3.33301 31.667 -7.33301 45 -12v-70c-19.333 11.333 -42.666 20 -69.999 26s-58.666 9 -93.999 9c-37.333 0 -70.166 -5.33301 -98.499 -16s-52.166 -27.834 -71.499 -51.501s-34 -54.167 -44 -91.5s-15 -82.666 -15 -135.999
c0 -55.333 5.16699 -102.166 15.5 -140.499s25.5 -69.833 45.5 -94.5s44.5 -42.5 73.5 -53.5s62.167 -16.5 99.5 -16.5s70.666 5.16699 99.999 15.5s52.666 20.166 69.999 29.499v-70c-14.667 -6.66699 -31 -12.667 -49 -18c-15.333 -4.66699 -33.5 -8.66699 -54.5 -12
s-43.167 -5 -66.5 -5z" />
    <glyph glyph-name="D" unicode="D" horiz-adv-x="680" 
d="M290 -5c-22.667 0 -44.6689 0.500977 -66.002 1.50098s-40.666 2.16699 -57.999 3.5c-20 1.33301 -38.667 3 -56 5v690c17.333 1.33301 36 3 56 5c17.333 1.33301 36.666 2.5 57.999 3.5s43.333 1.5 66 1.5c60.667 0 112.334 -6 155.001 -18s77.334 -31.667 104.001 -59
s46 -63 58 -107s18 -97.667 18 -161c0 -64.667 -6.66699 -120 -20 -166s-33.833 -83.833 -61.5 -113.5s-62.5 -51.334 -104.5 -65.001s-91.667 -20.5 -149 -20.5zM558.998 360.001c0 54.667 -4.49902 100.334 -13.499 137.001s-23.833 66 -44.5 88
s-48.334 37.5 -83.001 46.5s-77.334 13.5 -128.001 13.5c-17.333 0 -33.166 -0.333008 -47.499 -1s-26.5 -1.33398 -36.5 -2.00098c-12 -1.33301 -22.667 -2.33301 -32 -3v-578c9.33301 -1.33301 20 -2.33301 32 -3c20 -2 48 -3 84 -3c47.333 0 88 5.33301 122 16
s61.833 28 83.5 52s37.667 55.5 48 94.5s15.5 86.5 15.5 142.5z" />
    <glyph glyph-name="E" unicode="E" horiz-adv-x="575" 
d="M110 700h405v-58h-341v-253h301v-58h-301v-273h341v-58h-405v700z" />
    <glyph glyph-name="F" unicode="F" horiz-adv-x="545" 
d="M110 701h385v-58h-321v-274h291v-58h-291v-311h-64v701z" />
    <glyph glyph-name="G" unicode="G" horiz-adv-x="650" 
d="M380 -10c-54 0 -101.328 7.00098 -141.995 21.001s-74.5 35.667 -101.5 65s-47.333 67.166 -61 113.499s-20.5 101.5 -20.5 165.5c0 120.667 27.833 210 83.5 268s136.167 87 241.5 87c23.333 0 44.666 -1.33301 63.999 -4s35.666 -5.66699 48.999 -9
c16 -3.33301 30 -7.33301 42 -12v-70c-17.333 9.33301 -39.333 17.5 -66 24.5s-56.334 10.5 -89.001 10.5c-86 0 -150.667 -23.167 -194 -69.5s-65 -121.5 -65 -225.5c0 -55.333 5.16699 -102.333 15.5 -141s26.333 -70.167 48 -94.5s48.667 -42 81 -53
s70.5 -16.5 114.5 -16.5c23.333 0 46.666 1.66699 69.999 5s43.666 8.33301 60.999 15v216h-151v58h215v-314c-17.333 -8.66699 -43.333 -17.5 -78 -26.5s-73.667 -13.5 -117 -13.5z" />
    <glyph glyph-name="H" unicode="H" horiz-adv-x="720" 
d="M110 700h64v-311h372v311h64v-700h-64v331h-372v-331h-64v700z" />
    <glyph glyph-name="I" unicode="I" horiz-adv-x="330" 
d="M133 700h64v-700h-64v700z" />
    <glyph glyph-name="J" unicode="J" horiz-adv-x="420" 
d="M140 -10c-15.333 0 -29.167 1 -41.5 3s-22.833 4.33301 -31.5 7c-10.667 2.66699 -19.667 6 -27 10v70c7.33301 -6 16 -11 26 -15c8.66699 -4 19 -7.5 31 -10.5s26.333 -4.5 43 -4.5c32 0 56 8.66699 72 26s24 45.333 24 84v540h64v-540
c0 -58.667 -13.167 -101.667 -39.5 -129s-66.5 -41 -120.5 -41z" />
    <glyph glyph-name="K" unicode="K" horiz-adv-x="655" 
d="M254 331h-80v-331h-64v700h64v-311h80l269 311h82l-295 -339l315 -361h-84z" />
    <glyph glyph-name="L" unicode="L" horiz-adv-x="530" 
d="M110 700h64v-642h321v-58h-385v700z" />
    <glyph glyph-name="M" unicode="M" horiz-adv-x="850" 
d="M110 700h77.998l239 -450l239 450h74v-700h-64v490v33c0 9.33301 0.166992 18.333 0.5 27l1 27c0.333008 9.33301 1.16602 20.333 2.49902 33h-2c-4.66699 -12.667 -9 -23.5 -13 -32.5s-8.16699 -17.833 -12.5 -26.5s-9.16602 -17.834 -14.499 -27.501l-18 -33.5
l-168 -315h-54l-168 315c-7.33301 12.667 -13.333 23.834 -18 33.501l-13 27.5l-12.5 26.5c-4.33301 9 -9.16602 19.833 -14.499 32.5h-2c0.666992 -12.667 1.33398 -23.667 2.00098 -33s1.16699 -18.333 1.5 -27s0.5 -17.667 0.5 -27v-33v-490h-64v700z" />
    <glyph glyph-name="N" unicode="N" horiz-adv-x="740" 
d="M110 700l66.001 0.000976562l331 -500l23 -37l19 -32l18 -31h2c-0.666992 9.33301 -1.33398 19.666 -2.00098 30.999c-0.666992 9.33301 -1 20 -1 32v37v500h64v-700h-66l-331 500c-20 30 -35 54 -45 72c-6 10 -11 19.333 -15 28h-2c0 -8.66699 0.333008 -18 1 -28
c0.666992 -9.33301 1.16699 -19.833 1.5 -31.5s0.5 -25.167 0.5 -40.5v-500h-64v700z" />
    <glyph glyph-name="O" unicode="O" horiz-adv-x="710" 
d="M355 -10c-47.333 0 -89.665 7.00098 -126.998 21.001s-68.833 35.667 -94.5 65s-45.167 66.666 -58.5 111.999s-20 99.333 -20 162c0 126 26 217.5 78 274.5s126 85.5 222 85.5c49.333 0 92.666 -6.66699 129.999 -20s68.666 -34.5 93.999 -63.5s44.333 -66.333 57 -112
s19 -100.5 19 -164.5c0 -126 -26 -217.5 -78 -274.5s-126 -85.5 -222 -85.5zM355.001 50.001c38 0 71.5 5.5 100.5 16.5s53.333 28.5 73 52.5s34.667 55 45 93s15.5 84 15.5 138c0 54.667 -5 101 -15 139s-25 69 -45 93s-44.5 41.333 -73.5 52s-62.5 16 -100.5 16
c-37.333 0 -70.5 -5.5 -99.5 -16.5s-53.5 -28.5 -73.5 -52.5s-35.167 -55 -45.5 -93s-15.5 -84 -15.5 -138c0 -53.333 5.33301 -99 16 -137s26 -69 46 -93s44.5 -41.667 73.5 -53s61.833 -17 98.5 -17z" />
    <glyph glyph-name="P" unicode="P" horiz-adv-x="620" 
d="M110 695c18 1.33301 37.0029 3.00098 57.0029 5.00098c17.333 1.33301 37 2.5 59 3.5s45 1.5 69 1.5c49.333 0 91.166 -4.66699 125.499 -14s62.166 -23.5 83.499 -42.5s36.833 -42.833 46.5 -71.5s14.5 -62.667 14.5 -102c0 -78.667 -21.5 -138.334 -64.5 -179.001
s-111.5 -61 -205.5 -61c-38.667 0 -68.334 1 -89.001 3c-12 0.666992 -22.667 1.66699 -32 3v-241h-64v695zM499.003 475.001c0 30.667 -3.33203 56.6689 -9.99902 78.002s-17.834 38.833 -33.501 52.5s-36.667 23.667 -63 30s-58.833 9.5 -97.5 9.5
c-19.333 0 -36.333 -0.333008 -51 -1s-27.334 -1.33398 -38.001 -2.00098c-12 -0.666992 -22.667 -1.33398 -32 -2.00098v-339c9.33301 -1.33301 20 -2.33301 32 -3c20.667 -2 50.334 -3 89.001 -3c74 0 126.5 14.5 157.5 43.5s46.5 74.5 46.5 136.5z" />
    <glyph glyph-name="Q" unicode="Q" horiz-adv-x="710" 
d="M355 -10c-47.333 0 -89.665 7.00098 -126.998 21.001s-68.833 35.667 -94.5 65s-45.167 66.666 -58.5 111.999s-20 99.333 -20 162c0 126 26 217.5 78 274.5s126 85.5 222 85.5c49.333 0 92.666 -6.66699 129.999 -20s68.666 -34.5 93.999 -63.5s44.333 -66.333 57 -112
s19 -100.5 19 -164.5c0 -108 -19 -190.5 -57 -247.5s-92.667 -92.167 -164 -105.5l139 -157h-80l-131 150h-7zM355.001 50.001c38 0 71.5 5.5 100.5 16.5s53.333 28.5 73 52.5s34.667 55 45 93s15.5 84 15.5 138c0 54.667 -5 101 -15 139s-25 69 -45 93
s-44.5 41.333 -73.5 52s-62.5 16 -100.5 16c-37.333 0 -70.5 -5.5 -99.5 -16.5s-53.5 -28.5 -73.5 -52.5s-35.167 -55 -45.5 -93s-15.5 -84 -15.5 -138c0 -53.333 5.33301 -99 16 -137s26 -69 46 -93s44.5 -41.667 73.5 -53s61.833 -17 98.5 -17z" />
    <glyph glyph-name="R" unicode="R" horiz-adv-x="640" 
d="M340 289c-17.333 -2 -35.667 -3.00195 -55 -3.00195h-111v-286h-64v695c16 1.33301 33.333 3 52 5c16 1.33301 34.5 2.5 55.5 3.5s43.5 1.5 67.5 1.5c45.333 0 83.833 -4.33301 115.5 -13s57.5 -21.667 77.5 -39s34.5 -39.166 43.5 -65.499s13.5 -57.166 13.5 -92.499
c0 -48 -10.5 -88.333 -31.5 -121s-53.833 -56.667 -98.5 -72l175 -302h-74zM468.999 494.998c0 26.667 -3 49.5 -9 68.5s-16 34.5 -30 46.5s-32.833 20.833 -56.5 26.5s-53.167 8.5 -88.5 8.5c-14 0 -27.5 -0.166992 -40.5 -0.5s-24.833 -0.833008 -35.5 -1.5
c-12 -0.666992 -23.667 -1 -35 -1v-298h111c66 0 113.167 12.833 141.5 38.5s42.5 63.167 42.5 112.5z" />
    <glyph glyph-name="S" unicode="S" horiz-adv-x="580" 
d="M280 -10c-40.667 0 -78.5 5.50098 -113.5 16.501s-62.167 23.833 -81.5 38.5v80c22 -19.333 49.667 -36.666 83 -51.999s70.666 -23 111.999 -23c56.667 0 97.334 11.167 122.001 33.5s37 54.5 37 96.5c0 24.667 -5 45.334 -15 62.001s-23.167 30.667 -39.5 42
s-35 21 -56 29l-64 23.5c-21.667 7.66699 -43 16.167 -64 25.5s-39.667 21.333 -56 36s-29.5 32.5 -39.5 53.5s-15 47.167 -15 78.5c0 57.333 17.333 101.666 52 132.999s90.667 47 168 47c34.667 0 66.167 -3.5 94.5 -10.5s51.833 -15.167 70.5 -24.5v-80
c-18 16 -42 29.167 -72 39.5s-61 15.5 -93 15.5c-58 0 -98.167 -9.83301 -120.5 -29.5s-33.5 -49.834 -33.5 -90.501c0 -32.667 8.66699 -57.834 26 -75.501s38.833 -32 64.5 -43s53.667 -21 84 -30s58.333 -21 84 -36s47.167 -35.333 64.5 -61s26 -60.5 26 -104.5
c0 -60.667 -18 -107.5 -54 -140.5s-93 -49.5 -171 -49.5z" />
    <glyph glyph-name="T" unicode="T" horiz-adv-x="580" 
d="M258 642h-218v58h500v-58h-218v-642h-64v642z" />
    <glyph glyph-name="U" unicode="U" horiz-adv-x="670" 
d="M335 -10c-85.333 0 -148.332 21.334 -188.999 64.001s-61 113 -61 211v435h64v-435c0 -40.667 3.5 -74.667 10.5 -102s18 -49.333 33 -66s34.167 -28.667 57.5 -36s51.666 -11 84.999 -11c34 0 62.667 3.5 86 10.5s42.5 18.833 57.5 35.5s25.833 38.667 32.5 66
s10 61.666 10 102.999v435h64v-435c0 -98 -20.333 -168.333 -61 -211s-103.667 -64 -189 -64z" />
    <glyph glyph-name="V" unicode="V" horiz-adv-x="620" 
d="M25 700h70l222 -620l212 620h66l-245 -700h-70z" />
    <glyph glyph-name="W" unicode="W" horiz-adv-x="900" 
d="M35 700l66.0029 -0.000976562l119 -490c2.66699 -12.667 5.16699 -23.667 7.5 -33s4.33301 -18.333 6 -27l5 -27c1.66699 -9.33301 3.83398 -20.333 6.50098 -33h2l7 33l6 27c2 8.66699 4.33301 17.667 7 27l9 33l139 490h70l142 -490c4 -12.667 7.16699 -23.667 9.5 -33
l6.5 -27l6 -27l7 -33h2c2 12.667 3.83301 23.667 5.5 33l5 27c1.66699 8.66699 3.5 17.667 5.5 27s4.66699 20.333 8 33l119 490h64l-170 -700h-70l-145 500c-4.66699 15.333 -8.83398 30 -12.501 44s-6.83398 26.667 -9.50098 38
c-3.33301 12.667 -6.33301 25.334 -9 38.001h-2l-8 -38c-2.66699 -11.333 -5.83398 -24 -9.50098 -38s-7.83398 -28.667 -12.501 -44l-142 -500h-70z" />
    <glyph glyph-name="X" unicode="X" horiz-adv-x="630" 
d="M30 0l248 360l-233 340h74l197 -287l197 287h72l-233 -338l248 -362h-74l-212 308l-212 -308h-72z" />
    <glyph glyph-name="Y" unicode="Y" horiz-adv-x="610" 
d="M278 280l-253 420h72l214 -360l206 360h68l-243 -420v-280h-64v280z" />
    <glyph glyph-name="Z" unicode="Z" horiz-adv-x="590" 
d="M55 48l390 594h-380v58h460v-48l-390 -594h400v-58h-480v48z" />
    <glyph glyph-name="bracketleft" unicode="[" horiz-adv-x="380" 
d="M120 750h210v-56h-150v-818h150v-56h-210v930z" />
    <glyph glyph-name="backslash" unicode="\" horiz-adv-x="400" 
d="M15 750h64l306 -930h-64z" />
    <glyph glyph-name="bracketright" unicode="]" horiz-adv-x="380" 
d="M50 -124h150v818h-150v56h210v-930h-210v56z" />
    <glyph glyph-name="asciicircum" unicode="^" horiz-adv-x="600" 
d="M268 700h64l188 -340h-66l-155 285l-155 -285h-64z" />
    <glyph glyph-name="underscore" unicode="_" horiz-adv-x="420" 
d="M0 -122h420v-58h-420v58z" />
    <glyph glyph-name="grave" unicode="`" horiz-adv-x="300" 
d="M70 745h84l76 -130h-54z" />
    <glyph glyph-name="a" unicode="a" horiz-adv-x="535" 
d="M230 -10c-56.667 0 -99.1699 13.6689 -127.503 41.002s-42.5 65.333 -42.5 114c0 25.333 3.5 47.666 10.5 66.999s18.833 35.5 35.5 48.5s38.334 22.833 65.001 29.5s59.667 10 99 10h120v55c0 21.333 -2.16699 39.333 -6.5 54s-11.833 26.667 -22.5 36
s-24.5 16.166 -41.5 20.499s-38.5 6.5 -64.5 6.5c-31.333 0 -60.166 -4.5 -86.499 -13.5s-49.166 -20.167 -68.499 -33.5v68c17.333 10 40.833 18.667 70.5 26s59.5 11 89.5 11c68 0 116.667 -14.333 146 -43s44 -74.334 44 -137.001v-350h-54l-6 95
c-13.333 -29.333 -33 -54.166 -59 -74.499s-59.667 -30.5 -101 -30.5zM234.997 48.002c48 0 85.833 14 113.5 42s41.5 68 41.5 120v40h-120c-28.667 0 -52.5 -2.16699 -71.5 -6.5s-34.167 -10.833 -45.5 -19.5s-19.333 -19.5 -24 -32.5s-7 -28.5 -7 -46.5
c0 -32 8.83301 -56.167 26.5 -72.5s46.5 -24.5 86.5 -24.5z" />
    <glyph glyph-name="b" unicode="b" horiz-adv-x="590" 
d="M320 -10c-24 0 -45.333 2.83496 -64 8.50195s-34.667 13.167 -48 22.5s-24.833 20.5 -34.5 33.5s-17.5 26.5 -23.5 40.5l-6 -95h-54v750h60v-320c8 13.333 17.167 26.166 27.5 38.499s22.5 23 36.5 32s30.5 16.167 49.5 21.5s41.167 8 66.5 8
c32 0 60.5 -4.66699 85.5 -14s46 -24.5 63 -45.5s29.833 -48.333 38.5 -82s13 -74.834 13 -123.501c0 -50 -4.5 -92.5 -13.5 -127.5s-22.5 -63.5 -40.5 -85.5s-40 -37.833 -66 -47.5s-56 -14.5 -90 -14.5zM310 48.002c26.667 0 49.832 3.5 69.499 10.5s36 19 49 36
s22.833 39.333 29.5 67s10 62.167 10 103.5c0 38.667 -3.16699 71.167 -9.5 97.5s-16 47.666 -29 63.999s-29 28 -48 35s-41.167 10.5 -66.5 10.5c-53.333 0 -94.166 -14.5 -122.499 -43.5s-42.5 -72.5 -42.5 -130.5v-76c0 -55.333 14.667 -98.166 44 -128.499
s68 -45.5 116 -45.5z" />
    <glyph glyph-name="c" unicode="c" horiz-adv-x="475" 
d="M305 -10c-81.333 0 -142.498 21.833 -183.498 65.5s-61.5 113.5 -61.5 209.5c0 90.667 20.333 157.5 61 200.5s98.667 64.5 174 64.5c30 0 55.833 -2.5 77.5 -7.5s39.167 -10.5 52.5 -16.5v-68c-14.667 9.33301 -33.334 17.333 -56.001 24s-47.334 10 -74.001 10
c-55.333 0 -98 -16.5 -128 -49.5s-45 -85.5 -45 -157.5c0 -76.667 15.5 -132 46.5 -166s76.5 -51 136.5 -51c24 0 48 3.83301 72 11.5s43.333 17.167 58 28.5v-68c-13.333 -8 -30.5 -15 -51.5 -21s-47.167 -9 -78.5 -9z" />
    <glyph glyph-name="d" unicode="d" horiz-adv-x="590" 
d="M440 95c-6 -14 -13.833 -27.499 -23.5 -40.499s-21.167 -24.167 -34.5 -33.5s-29.333 -16.833 -48 -22.5s-40 -8.5 -64 -8.5c-34 0 -64 4.83301 -90 14.5s-48 25.5 -66 47.5s-31.5 50.5 -40.5 85.5s-13.5 77.5 -13.5 127.5c0 90.667 18 157.5 54 200.5
s84.667 64.5 146 64.5c46.667 0 85.5 -9.33301 116.5 -28s52.167 -44.334 63.5 -77.001v325h60v-750h-54zM122 265.001c0 -40.667 3.33398 -74.835 10.001 -102.502s16.667 -50 30 -67s30 -29.167 50 -36.5s43 -11 69 -11c48 0 86.5 15.333 115.5 46s43.5 74.667 43.5 132
v75c0 24.667 -3.16699 47.334 -9.5 68.001s-16.333 38.667 -30 54s-30.834 27.333 -51.501 36s-45.334 13 -74.001 13c-51.333 0 -89.666 -15.667 -114.999 -47s-38 -84.666 -38 -159.999z" />
    <glyph glyph-name="e" unicode="e" horiz-adv-x="550" 
d="M300 -10c-79.333 0 -139.167 21.3301 -179.5 63.9971s-60.5 111.334 -60.5 206.001c0 92.667 19.667 160.834 59 204.501s93 65.5 161 65.5c34.667 0 65.167 -4.5 91.5 -13.5s48.333 -23.667 66 -44s30.834 -47 39.501 -80s13 -73.167 13 -120.5v-27h-370
c0.666992 -67.333 15.5 -117 44.5 -149s74.167 -48 135.5 -48c32.667 0 62.167 5.33301 88.5 16s48.5 23.667 66.5 39v-68c-13.333 -9.33301 -33.333 -19.166 -60 -29.499s-58.334 -15.5 -95.001 -15.5zM279.999 471.997c-50.667 0 -89.667 -13.834 -117 -41.501
s-41.666 -72.167 -42.999 -133.5h310c0 26.667 -2.33301 50.834 -7 72.501s-12.834 40.167 -24.501 55.5s-27.167 27 -46.5 35s-43.333 12 -72 12z" />
    <glyph glyph-name="f" unicode="f" horiz-adv-x="400" 
d="M140 464h-99.999v56h100v85c0 52 11.667 90 35 114s60 36 110 36c16 0 30.5 -1 43.5 -3s23.5 -4.66699 31.5 -8v-68c-9.33301 6 -20.833 11 -34.5 15s-28.834 6 -45.501 6c-15.333 0 -28 -1.5 -38 -4.5s-18.167 -8.33301 -24.5 -16s-10.833 -18 -13.5 -31
s-4 -29.833 -4 -50.5v-75h160v-56h-160v-464h-60v464z" />
    <glyph glyph-name="g" unicode="g" horiz-adv-x="590" 
d="M280 -190c-42 0 -78.002 4.00195 -108.002 12.002s-54 17 -72 27v78c6.66699 -6.66699 15.834 -13.5 27.501 -20.5s25.167 -13.333 40.5 -19s32 -10.334 50 -14.001s37 -5.5 57 -5.5c58.667 0 100.834 12 126.501 36s38.5 61 38.5 111v90
c-6 -14 -13.833 -27.5 -23.5 -40.5s-21.167 -24.167 -34.5 -33.5s-29.333 -16.833 -48 -22.5s-40 -8.5 -64 -8.5c-34 0 -64 4.83301 -90 14.5s-48 25.334 -66 47.001s-31.5 49.5 -40.5 83.5s-13.5 75.667 -13.5 125c0 88.667 18 154.167 54 196.5s84.667 63.5 146 63.5
c46.667 0 85.5 -9.33301 116.5 -28s52.167 -44.334 63.5 -77.001l6 95h54v-500c0 -70.667 -17.833 -123.334 -53.5 -158.001s-91.167 -52 -166.5 -52zM280.998 58.002c24 0 45.668 4.16699 65.001 12.5s36 20.166 50 35.499s24.833 34 32.5 56s11.5 46.667 11.5 74v71
c0 22.667 -3.16699 44.167 -9.5 64.5s-16.333 37.833 -30 52.5s-30.834 26.334 -51.501 35.001s-45.334 13 -74.001 13c-51.333 0 -89.666 -15.5 -114.999 -46.5s-38 -82.833 -38 -155.5c0 -39.333 3.33301 -72.5 10 -99.5s16.667 -48.833 30 -65.5s30 -28.667 50 -36
s43 -11 69 -11z" />
    <glyph glyph-name="h" unicode="h" horiz-adv-x="585" 
d="M90 750l60 -0.00195312v-325c15.333 32 35.833 57.5 61.5 76.5s61.834 28.5 108.501 28.5c61.333 0 106.666 -15.5 135.999 -46.5s44 -82.167 44 -153.5v-330h-60v310c0 30.667 -2.5 56.334 -7.5 77.001s-13 37.334 -24 50.001s-25 21.667 -42 27s-37.5 8 -61.5 8
c-48 0 -85.833 -14 -113.5 -42s-41.5 -68 -41.5 -120v-310h-60v750z" />
    <glyph glyph-name="i" unicode="i" horiz-adv-x="290" 
d="M115 520h60v-520h-60v520zM145 638c-28 0 -42 14 -42 42s14 42 42 42s42 -14 42 -42s-14 -42 -42 -42z" />
    <glyph glyph-name="j" unicode="j" horiz-adv-x="290" 
d="M46 -185c-32 0 -55.333 3.33203 -70 9.99902v68c8.66699 -5.33301 18.834 -10 30.501 -14s24.834 -6 39.501 -6c23.333 0 40.666 6.5 51.999 19.5s17 37.167 17 72.5v555h60v-555c0 -53.333 -10.833 -91.666 -32.5 -114.999s-53.834 -35 -96.501 -35zM145 637.999
c-28 0 -42 14 -42 42s14 42 42 42s42 -14 42 -42s-14 -42 -42 -42z" />
    <glyph glyph-name="k" unicode="k" horiz-adv-x="555" 
d="M90 750h60v-452h70l192 222h76l-217 -249l239 -271h-78l-212 242h-70v-242h-60v750z" />
    <glyph glyph-name="l" unicode="l" horiz-adv-x="315" 
d="M205 -5c-41.333 0 -71.668 10.001 -91.001 30.001s-29 50 -29 90v635h60v-625c0 -28.667 5 -47.834 15 -57.501s26.667 -14.5 50 -14.5c12.667 0 24.834 1.66699 36.501 5s21.167 6.66602 28.5 9.99902v-58c-7.33301 -3.33301 -17 -6.66602 -29 -9.99902
s-25.667 -5 -41 -5z" />
    <glyph glyph-name="m" unicode="m" horiz-adv-x="835" 
d="M90 520h54l6 -90c13.333 32.667 32 57.5 56 74.5s55.333 25.5 94 25.5c42 0 74.333 -9.83301 97 -29.5s36.667 -46.5 42 -80.5c15.333 42 36 70.833 62 86.5s58.333 23.5 97 23.5c46 0 82.833 -15.5 110.5 -46.5s41.5 -78.833 41.5 -143.5v-340h-60v320
c0 55.333 -10 94.5 -30 117.5s-48 34.5 -84 34.5c-38 0 -68.5 -12.667 -91.5 -38s-34.5 -63.333 -34.5 -114v-320h-60v320c0 55.333 -9.83301 94.5 -29.5 117.5s-46.5 34.5 -80.5 34.5c-40 0 -71.667 -12.667 -95 -38s-35 -63.333 -35 -114v-320h-60v520z" />
    <glyph glyph-name="n" unicode="n" horiz-adv-x="585" 
d="M90 520l54 -0.000976562l6 -95c15.333 31.333 35.833 56.666 61.5 75.999s61.834 29 108.501 29c61.333 0 106.666 -15.5 135.999 -46.5s44 -82.167 44 -153.5v-330h-60v310c0 30.667 -2.5 56.334 -7.5 77.001s-13 37.334 -24 50.001s-25 21.667 -42 27s-37.5 8 -61.5 8
c-48 0 -85.833 -14 -113.5 -42s-41.5 -68 -41.5 -120v-310h-60v520z" />
    <glyph glyph-name="o" unicode="o" horiz-adv-x="570" 
d="M285 -10c-72.667 0 -128.336 21.334 -167.003 64.001s-58 111.334 -58 206.001c0 91.333 20.333 159.166 61 203.499s95.334 66.5 164.001 66.5c36.667 0 69.167 -5 97.5 -15s51.833 -25.833 70.5 -47.5s32.834 -49.667 42.501 -84s14.5 -75.5 14.5 -123.5
c0 -94.667 -19.667 -163.334 -59 -206.001s-94.666 -64 -165.999 -64zM284.998 472.001c-52 0 -92.167 -16.167 -120.5 -48.5s-42.5 -86.833 -42.5 -163.5c0 -39.333 3.33301 -72.5 10 -99.5s16.834 -48.833 30.501 -65.5s30.667 -28.667 51 -36s44.166 -11 71.499 -11
s51.166 3.66699 71.499 11s37.333 19.333 51 36s23.834 38.5 30.501 65.5s10 60.167 10 99.5s-3.33301 72.5 -10 99.5s-16.834 48.833 -30.501 65.5s-30.667 28.667 -51 36s-44.166 11 -71.499 11z" />
    <glyph glyph-name="p" unicode="p" horiz-adv-x="590" 
d="M90 520l54 0.00195312l6 -90c8 13.333 17.167 26.166 27.5 38.499s22.5 23 36.5 32s30.5 16.167 49.5 21.5s41.167 8 66.5 8c32 0 60.5 -4.66699 85.5 -14s46 -24.5 63 -45.5s29.833 -48.333 38.5 -82s13 -74.834 13 -123.501c0 -50 -4.5 -92.5 -13.5 -127.5
s-22.5 -63.5 -40.5 -85.5s-40 -37.833 -66 -47.5s-56 -14.5 -90 -14.5c-24 0 -45.333 2.83301 -64 8.5s-34.667 13.167 -48 22.5s-24.833 20.5 -34.5 33.5s-17.5 26.5 -23.5 40.5v-275h-60v700zM468 265.002c0 38.667 -3.16895 71.167 -9.50195 97.5s-16 47.666 -29 63.999
s-29 28 -48 35s-41.167 10.5 -66.5 10.5c-53.333 0 -94.166 -14.5 -122.499 -43.5s-42.5 -72.5 -42.5 -130.5v-76c0 -55.333 14.667 -98.166 44 -128.499s68 -45.5 116 -45.5c26.667 0 49.834 3.5 69.501 10.5s36 19 49 36s22.833 39.333 29.5 67s10 62.167 10 103.5z" />
    <glyph glyph-name="q" unicode="q" horiz-adv-x="590" 
d="M440 95c-6 -14 -13.833 -27.499 -23.5 -40.499s-21.167 -24.167 -34.5 -33.5s-29.333 -16.833 -48 -22.5s-40 -8.5 -64 -8.5c-34 0 -64 4.83301 -90 14.5s-48 25.5 -66 47.5s-31.5 50.5 -40.5 85.5s-13.5 77.5 -13.5 127.5c0 90.667 18 157.5 54 200.5
s84.667 64.5 146 64.5c46.667 0 85.5 -9.33301 116.5 -28s52.167 -44.334 63.5 -77.001l6 95h54v-700h-60v275zM122 265.001c0 -40.667 3.33398 -74.835 10.001 -102.502s16.667 -50 30 -67s30 -29.167 50 -36.5s43 -11 69 -11c48 0 86.5 15.333 115.5 46
s43.5 74.667 43.5 132v75c0 24.667 -3.16699 47.334 -9.5 68.001s-16.333 38.667 -30 54s-30.834 27.333 -51.501 36s-45.334 13 -74.001 13c-51.333 0 -89.666 -15.667 -114.999 -47s-38 -84.666 -38 -159.999z" />
    <glyph glyph-name="r" unicode="r" horiz-adv-x="410" 
d="M90 520l48.999 0.00195312l6 -95c13.333 38 32.833 65 58.5 81s56.5 24 92.5 24c10 0 20 -0.666992 30 -2s18 -3.33301 24 -6v-68c-9.33301 5.33301 -19.666 9.66602 -30.999 12.999s-25.333 5 -42 5c-39.333 0 -70.333 -12.833 -93 -38.5s-34 -66.834 -34 -123.501v-310
h-60v520z" />
    <glyph glyph-name="s" unicode="s" horiz-adv-x="475" 
d="M230 -10c-32.667 0 -60.833 2.66797 -84.5 8.00098s-45.5 12.666 -65.5 21.999v78c40.667 -33.333 90.667 -50 150 -50c40 0 68.833 7.83301 86.5 23.5s26.5 38.5 26.5 68.5c0 24 -6.66699 42.333 -20 55s-29.833 22.667 -49.5 30s-41.167 13.666 -64.5 18.999
s-44.833 13 -64.5 23s-36.167 24 -49.5 42s-20 43.333 -20 76c0 46 13.833 81.667 41.5 107s72.167 38 133.5 38c28 0 53.667 -2.66699 77 -8s41 -10.666 53 -15.999v-73c-17.333 12 -37 21.5 -59 28.5s-45.667 10.5 -71 10.5c-42 0 -71.333 -7.16699 -88 -21.5
s-25 -34.5 -25 -60.5c0 -23.333 6.66699 -40.833 20 -52.5s29.833 -20.834 49.5 -27.501s41.167 -12.667 64.5 -18s44.833 -13.166 64.5 -23.499s36.167 -25 49.5 -44s20 -45.5 20 -79.5c0 -52 -13.833 -90.833 -41.5 -116.5s-72.167 -38.5 -133.5 -38.5z" />
    <glyph glyph-name="t" unicode="t" horiz-adv-x="435" 
d="M280 -5c-48 0 -83.333 11.833 -106 35.5s-34 61.834 -34 114.501v319h-100v56h100v110l60 20v-130h180v-56h-180v-319c0 -34.667 6.16699 -58.667 18.5 -72s32.833 -20 61.5 -20c23.333 0 42.833 3.16699 58.5 9.5s29.5 14.166 41.5 23.499v-68
c-9.33301 -6.66699 -23 -12.167 -41 -16.5s-37.667 -6.5 -59 -6.5z" />
    <glyph glyph-name="u" unicode="u" horiz-adv-x="580" 
d="M490 0l-53.999 0.00390625l-6 95c-7.33301 -14.667 -16 -28.334 -26 -41.001s-21.833 -23.834 -35.5 -33.501s-29.334 -17.167 -47.001 -22.5s-38.167 -8 -61.5 -8c-58.667 0 -102.5 15.5 -131.5 46.5s-43.5 82.167 -43.5 153.5v330h60v-310
c0 -30.667 2.5 -56.334 7.5 -77.001s12.833 -37.334 23.5 -50.001s24.167 -21.667 40.5 -27s35.833 -8 58.5 -8c48 0 85.833 14 113.5 42s41.5 68 41.5 120v310h60v-520z" />
    <glyph glyph-name="v" unicode="v" horiz-adv-x="520" 
d="M25 520h66l170 -445l170 445h64l-205 -520h-60z" />
    <glyph glyph-name="w" unicode="w" horiz-adv-x="760" 
d="M45 520h62l90 -360c2.66699 -10 5.16699 -19.833 7.5 -29.5s4.16602 -18.167 5.49902 -25.5l5 -25h2c1.33301 8 3.33301 16.333 6 25c2 7.33301 4.16699 15.833 6.5 25.5s5.16602 19.5 8.49902 29.5l110 360h70l110 -360c3.33301 -10 6 -19.833 8 -29.5
s4 -18.167 6 -25.5l6 -25h2c0.666992 8 2 16.333 4 25c2 16 5.66699 34.333 11 55l90 360h60l-130 -520h-70l-113 370c-3.33301 10 -6.16602 19.833 -8.49902 29.5s-4.5 18.167 -6.5 25.5c-2.66699 8.66699 -4.66699 17 -6 25h-2c-1.33301 -8 -3.33301 -16.333 -6 -25
c-2 -7.33301 -4.16699 -15.833 -6.5 -25.5s-5.16602 -19.5 -8.49902 -29.5l-113 -370h-70z" />
    <glyph glyph-name="x" unicode="x" horiz-adv-x="540" 
d="M236 270l-176 250h70l141 -201l141 201h68l-176 -249l191 -271h-70l-156 223l-156 -223h-68z" />
    <glyph glyph-name="y" unicode="y" horiz-adv-x="520" 
d="M150 -190c-21.333 0 -38.001 3.33594 -50.001 10.0029v64c6 -4.66699 13 -8.5 21 -11.5s17.667 -4.5 29 -4.5c8.66699 0 16.5 1.33301 23.5 4s14.167 8.66699 21.5 18s14.833 22.666 22.5 39.999s16.5 40.666 26.5 69.999l-219 520h66l183 -445l157 445h64l-194 -530
c-14.667 -39.333 -28 -70.833 -40 -94.5s-23.667 -41.834 -35 -54.501s-23.166 -21 -35.499 -25s-25.833 -6 -40.5 -6z" />
    <glyph glyph-name="z" unicode="z" horiz-adv-x="490" 
d="M50 40l302 424h-292v56h370v-40l-302 -424h312v-56h-390v40z" />
    <glyph glyph-name="braceleft" unicode="{" horiz-adv-x="380" 
d="M125 145c0 72.667 -26.667 110.338 -80 113.005v54c28 1.33301 48.333 12.166 61 32.499s19 47.5 19 81.5v175c0 19.333 2 38 6 56s11.167 33.833 21.5 47.5s24.5 24.667 42.5 33s41 12.5 69 12.5h61v-56h-57c-17.333 0 -31.333 -2.5 -42 -7.5s-19 -12 -25 -21
s-10.167 -19.333 -12.5 -31s-3.5 -24.5 -3.5 -38.5v-172c0 -17.333 -0.833008 -33.333 -2.5 -48s-5.33398 -27.834 -11.001 -39.501s-13.834 -21.834 -24.501 -30.501s-24.667 -15.667 -42 -21c17.333 -4 31.333 -10.5 42 -19.5s18.834 -19.833 24.501 -32.5
s9.33398 -26.834 11.001 -42.501s2.5 -31.834 2.5 -48.501v-168c0 -14 1.16699 -26.833 3.5 -38.5s6.5 -22 12.5 -31s14.333 -16 25 -21s24.667 -7.5 42 -7.5h57v-56h-61c-28 0 -51 4.16699 -69 12.5s-32.167 19.333 -42.5 33s-17.5 29.5 -21.5 47.5s-6 36.667 -6 56v176z
" />
    <glyph glyph-name="bar" unicode="|" horiz-adv-x="300" 
d="M120 750h60v-930h-60v930z" />
    <glyph glyph-name="braceright" unicode="}" horiz-adv-x="380" 
d="M255 425c0 -72.667 26.667 -110.335 80 -113.002v-54c-28 -1.33301 -48.333 -12.166 -61 -32.499s-19 -47.5 -19 -81.5v-175c0 -19.333 -2 -38 -6 -56s-11.167 -33.833 -21.5 -47.5s-24.5 -24.667 -42.5 -33s-41 -12.5 -69 -12.5h-61v56h57c16.667 0 30.5 2.5 41.5 7.5
s19.5 12 25.5 21s10.167 19.333 12.5 31s3.5 24.5 3.5 38.5v172c0 17.333 0.833008 33.333 2.5 48s5.33398 27.834 11.001 39.501s13.834 21.834 24.501 30.501s24.667 15.667 42 21c-17.333 4 -31.333 10.5 -42 19.5s-18.834 19.833 -24.501 32.5
s-9.33398 26.667 -11.001 42s-2.5 31.666 -2.5 48.999v168c0 14 -1.16699 26.833 -3.5 38.5s-6.5 22 -12.5 31s-14.5 16 -25.5 21s-24.833 7.5 -41.5 7.5h-57v56h61c28 0 51 -4.16699 69 -12.5s32.167 -19.333 42.5 -33s17.5 -29.5 21.5 -47.5s6 -36.667 6 -56v-176z" />
    <glyph glyph-name="asciitilde" unicode="~" horiz-adv-x="600" 
d="M100 384c12.667 14 26.834 25.333 42.501 34s34.834 13 57.501 13c21.333 0 40.666 -4.16699 57.999 -12.5s33.833 -17.5 49.5 -27.5s31 -19.167 46 -27.5s30.5 -12.5 46.5 -12.5c22.667 0 41.834 6.16699 57.501 18.5s29.834 25.166 42.501 38.499v-72
c-12.667 -14 -26.834 -25.333 -42.501 -34s-34.834 -13 -57.501 -13c-21.333 0 -40.666 4.16699 -57.999 12.5s-33.833 17.5 -49.5 27.5s-31 19.167 -46 27.5s-30.5 12.5 -46.5 12.5c-22.667 0 -41.834 -6.16699 -57.501 -18.5s-29.834 -25.166 -42.501 -38.499v72z" />
    <glyph glyph-name="uni00A0" unicode="&#xa0;" horiz-adv-x="250" 
 />
    <glyph glyph-name="exclamdown" unicode="&#xa1;" horiz-adv-x="330" 
d="M165 525c33.333 0 50 -16.667 50 -50s-16.667 -50 -50 -50s-50 16.667 -50 50s16.667 50 50 50zM197 -180h-64v480h64v-480z" />
    <glyph glyph-name="cent" unicode="&#xa2;" horiz-adv-x="600" 
d="M315 -6c-66.667 9.33301 -115.828 35.668 -147.495 79.001s-47.5 107.333 -47.5 192c0 80.667 16.333 142.334 49 185.001s81.334 68.334 146.001 77.001v93h60v-90c18 -0.666992 33.667 -2 47 -4s25.166 -4.33301 35.499 -7s19.333 -5.66699 27 -9l20.5 -9v-68
c-14.667 9.33301 -32.5 18.166 -53.5 26.499s-49.833 12.5 -86.5 12.5c-60.667 0 -106.334 -16.333 -137.001 -49s-46 -85.334 -46 -158.001c0 -76.667 16 -132 48 -166s80.333 -51 145 -51c34 0 62.167 4.66699 84.5 14s40.833 19.666 55.5 30.999v-68
c-6.66699 -4 -13.834 -8 -21.501 -12s-16.834 -7.83301 -27.501 -11.5s-23.334 -6.5 -38.001 -8.5s-32.334 -3 -53.001 -3v-110h-60v114z" />
    <glyph glyph-name="sterling" unicode="&#xa3;" horiz-adv-x="600" 
d="M45 58l119.998 0.000976562v275h-120v54h120v90c0 20 2.16699 43.333 6.5 70s14 52.167 29 76.5s37 44.833 66 61.5s68.167 25 117.5 25c34 0 62.833 -3.33301 86.5 -10s41.834 -12.334 54.501 -17.001v-63c-17.333 7.33301 -36.833 14.5 -58.5 21.5
s-49.834 10.5 -84.501 10.5c-28 0 -51.667 -4.5 -71 -13.5s-35.166 -21.5 -47.499 -37.5s-21.166 -34.667 -26.499 -56s-8 -44.333 -8 -69v-89h191v-54h-191v-275h296v-58h-480v58z" />
    <glyph glyph-name="currency" unicode="&#xa4;" horiz-adv-x="600" 
d="M421 192c-17.333 -13.333 -36.166 -23.666 -56.499 -30.999s-42.166 -11 -65.499 -11s-45.166 3.66699 -65.499 11s-39.166 17.666 -56.499 30.999l-66 -66l-36 36l66 66c-13.333 17.333 -23.666 36.166 -30.999 56.499s-11 42.166 -11 65.499s3.66699 45.166 11 65.499
s17.666 39.166 30.999 56.499l-66 66l37 37l66 -66c16.667 12.667 35.167 22.667 55.5 30s42.166 11 65.499 11s45.166 -3.66699 65.499 -11s39.166 -17.666 56.499 -30.999l68 68l36 -36l-68 -68c13.333 -17.333 23.666 -36.166 30.999 -56.499s11 -42.166 11 -65.499
s-3.66699 -45.166 -11 -65.499s-17.333 -38.833 -30 -55.5l67 -67l-37 -37zM299 206c20 0 38.667 3.83301 56 11.5s32.5 18 45.5 31s23.333 28.167 31 45.5s11.5 36 11.5 56s-3.83301 38.667 -11.5 56s-18 32.5 -31 45.5s-28.167 23.333 -45.5 31s-36 11.5 -56 11.5
s-38.667 -3.83301 -56 -11.5s-32.5 -18 -45.5 -31s-23.333 -28.167 -31 -45.5s-11.5 -36 -11.5 -56s3.83301 -38.667 11.5 -56s18 -32.5 31 -45.5s28.167 -23.333 45.5 -31s36 -11.5 56 -11.5z" />
    <glyph glyph-name="yen" unicode="&#xa5;" horiz-adv-x="600" 
d="M95 326h146l-216 374h72l209 -368l201 368h68l-208 -374h148v-54h-178v-74h178v-54h-178v-144h-64v144h-178v54h178v74h-178v54z" />
    <glyph glyph-name="brokenbar" unicode="&#xa6;" horiz-adv-x="300" 
d="M120 210h60v-390h-60v390zM120 750h60v-390h-60v390z" />
    <glyph glyph-name="section" unicode="&#xa7;" horiz-adv-x="530" 
d="M243 -110c-24.667 0 -51.3379 2.5 -80.0049 7.5s-53 12.167 -73 21.5v66c24.667 -13.333 49.334 -22.833 74.001 -28.5s49.667 -8.5 75 -8.5c26 0 47.333 1.83301 64 5.5s30 9 40 16s16.833 15.167 20.5 24.5s5.5 20 5.5 32c0 22.667 -11.833 42.834 -35.5 60.501
s-54.5 35.167 -92.5 52.5c-27.333 12.667 -51.666 24.5 -72.999 35.5s-39.166 22.833 -53.499 35.5s-25.333 27 -33 43s-11.5 35 -11.5 57c0 28 9 53.833 27 77.5s42.333 46.167 73 67.5c-23.333 14 -41.666 30 -54.999 48s-20 39.333 -20 64s4.66699 46 14 64
s22.5 32.833 39.5 44.5s37.167 20.334 60.5 26.001s49.333 8.5 78 8.5c30.667 0 58 -2.66699 82 -8s42.667 -10.666 56 -15.999v-66c-24 11.333 -47.167 19.5 -69.5 24.5s-46.5 7.5 -72.5 7.5c-39.333 0 -69.5 -6.16699 -90.5 -18.5s-31.5 -32.5 -31.5 -60.5
c0 -10.667 2 -20.334 6 -29.001s10.333 -17 19 -25s20.167 -16.333 34.5 -25s31.5 -18 51.5 -28c17.333 -8.66699 37 -17.834 59 -27.501s42.5 -21 61.5 -34s35 -28.5 48 -46.5s19.5 -39.333 19.5 -64c0 -25.333 -8.5 -51 -25.5 -77s-40.167 -50.667 -69.5 -74
c22 -15.333 39.167 -31.833 51.5 -49.5s18.5 -38.5 18.5 -62.5c0 -27.333 -5 -50 -15 -68s-23.667 -32.333 -41 -43s-37.666 -18.334 -60.999 -23.001s-48.333 -7 -75 -7zM320.996 168l26 24.499c8.66699 8.33301 16.5 17.333 23.5 27s12.667 19.834 17 30.501
s6.5 22 6.5 34c0 22.667 -7.16699 42.167 -21.5 58.5s-37.5 32.166 -69.5 47.499c-3.33301 1.33301 -8.83301 3.83301 -16.5 7.5l-24.5 11.5l-25.5 12c-8.33301 4 -14.833 7.33301 -19.5 10c-24 -16 -43.5 -32.833 -58.5 -50.5s-22.5 -37.167 -22.5 -58.5
c0 -12 1.33301 -22.833 4 -32.5s7.5 -18.667 14.5 -27s16.5 -16.5 28.5 -24.5s27 -16.667 45 -26c3.33301 -2 9.33301 -5 18 -9l28 -12.5c10 -4.33301 19.333 -8.66602 28 -12.999z" />
    <glyph glyph-name="dieresis" unicode="&#xa8;" horiz-adv-x="410" 
d="M117 638c-28 0 -42 14 -42 42s14 42 42 42s42 -14 42 -42s-14 -42 -42 -42zM293 638c-28 0 -42 14 -42 42s14 42 42 42s42 -14 42 -42s-14 -42 -42 -42z" />
    <glyph glyph-name="copyright" unicode="&#xa9;" horiz-adv-x="830" 
d="M428 150c-65.333 0 -113.001 17.833 -143.001 53.5s-45 84.5 -45 146.5c0 67.333 16.167 117.5 48.5 150.5s78.833 49.5 139.5 49.5c32.667 0 60 -3.66699 82 -11v-44c-12 4.66699 -24.833 7.66699 -38.5 9s-26.5 2 -38.5 2c-92.667 0 -139 -52 -139 -156
c0 -56 12.167 -96 36.5 -120s58.5 -36 102.5 -36c12 0 24.667 1 38 3s26.333 5.66699 39 11v-45c-11.333 -4 -23.666 -7.16699 -36.999 -9.5s-28.333 -3.5 -45 -3.5zM414.999 -10c-50.667 0 -98 9.16699 -142 27.5s-82.167 43.666 -114.5 75.999s-57.666 70.5 -75.999 114.5
s-27.5 91.333 -27.5 142s9.16699 98 27.5 142s43.666 82.167 75.999 114.5s70.5 57.666 114.5 75.999s91.333 27.5 142 27.5s98 -9.16699 142 -27.5s82.167 -43.666 114.5 -75.999s57.666 -70.5 75.999 -114.5s27.5 -91.333 27.5 -142s-9.16699 -98 -27.5 -142
s-43.666 -82.167 -75.999 -114.5s-70.5 -57.666 -114.5 -75.999s-91.333 -27.5 -142 -27.5zM414.999 42c43.333 0 83.666 7.83301 120.999 23.5s69.666 37.334 96.999 65.001s48.833 60.167 64.5 97.5s23.5 78 23.5 122s-7.83301 84.667 -23.5 122
s-37.167 69.833 -64.5 97.5s-59.666 49.334 -96.999 65.001s-77.666 23.5 -120.999 23.5s-83.666 -7.83301 -120.999 -23.5s-69.666 -37.334 -96.999 -65.001s-48.833 -60.167 -64.5 -97.5s-23.5 -78 -23.5 -122s7.83301 -84.667 23.5 -122s37.167 -69.833 64.5 -97.5
s59.666 -49.334 96.999 -65.001s77.666 -23.5 120.999 -23.5z" />
    <glyph glyph-name="ordfeminine" unicode="&#xaa;" horiz-adv-x="370" 
d="M157 375c-74.667 0 -112 32.3311 -112 96.998c0 32 10.5 57 31.5 75s55.5 27 103.5 27h81v17c0 22.667 -6.16699 39.334 -18.5 50.001s-34.833 16 -67.5 16c-16 0 -33.167 -2.5 -51.5 -7.5s-34.5 -11.167 -48.5 -18.5v55c14 5.33301 30 9.83301 48 13.5
s37.667 5.5 59 5.5c50 0 84.667 -10.167 104 -30.5s29 -51.166 29 -92.499v-202h-46l-8 55c-8.66699 -14 -21 -27.5 -37 -40.5s-38.333 -19.5 -67 -19.5zM171 422.998c28 0 49.999 8.33301 65.999 25s24 36 24 58v24h-73c-33.333 0 -56.166 -4.33301 -68.499 -13
s-18.5 -22.667 -18.5 -42c0 -34.667 23.333 -52 70 -52z" />
    <glyph glyph-name="guillemotleft" unicode="&#xab;" horiz-adv-x="550" 
d="M196 475h64l-135 -204l135 -206h-66l-134 204zM406 475h64l-135 -204l135 -206h-66l-134 204z" />
    <glyph glyph-name="logicalnot" unicode="&#xac;" horiz-adv-x="600" 
d="M442 331h-342v58h400v-189h-58v131z" />
    <glyph glyph-name="uni00AD" unicode="&#xad;" horiz-adv-x="400" 
d="M50 299h300v-58h-300v58z" />
    <glyph glyph-name="registered" unicode="&#xae;" horiz-adv-x="600" 
d="M50 515c0 36.667 6 70.167 18 100.5s29 56.166 51 77.499s48.333 37.833 79 49.5s64.667 17.5 102 17.5s71.333 -5.83301 102 -17.5s57 -28.167 79 -49.5s39 -47.166 51 -77.499s18 -63.833 18 -100.5c0 -37.333 -6 -71 -18 -101s-29 -55.667 -51 -77
s-48.333 -37.833 -79 -49.5s-64.667 -17.5 -102 -17.5s-71.333 5.83301 -102 17.5s-57 28.167 -79 49.5s-39 47 -51 77s-18 63.667 -18 101zM90 516c0 -31.333 5.16699 -59.833 15.5 -85.5s24.833 -47.667 43.5 -66s40.834 -32.5 66.501 -42.5s53.834 -15 84.501 -15
s58.834 5 84.501 15s47.834 24.167 66.501 42.5s33.167 40.333 43.5 66s15.5 54.167 15.5 85.5s-5.16699 59.833 -15.5 85.5s-24.833 47.5 -43.5 65.5s-40.834 32 -66.501 42s-53.834 15 -84.501 15s-58.834 -5 -84.501 -15s-47.834 -24 -66.501 -42
s-33.167 -39.833 -43.5 -65.5s-15.5 -54.167 -15.5 -85.5zM205 658l102.999 -0.00195312c8.66699 0 18.334 -0.666992 29.001 -2s20.5 -4.66602 29.5 -9.99902s16.667 -13.5 23 -24.5s9.5 -26.167 9.5 -45.5c0 -20.667 -5 -37.667 -15 -51s-21.667 -21.666 -35 -24.999
l70 -113h-51l-64 106h-54v-106h-45v271zM303.999 530.998c12.667 0 24.167 3 34.5 9s15.5 18 15.5 36c0 18.667 -5 30.5 -15 35.5s-21.667 7.5 -35 7.5h-54v-88h54z" />
    <glyph glyph-name="macron" unicode="&#xaf;" horiz-adv-x="320" 
d="M40 695h240v-50h-240v50z" />
    <glyph glyph-name="degree" unicode="&#xb0;" horiz-adv-x="400" 
d="M201 390c-22 0 -42.833 4.16699 -62.5 12.5s-36.834 19.833 -51.501 34.5s-26.167 31.667 -34.5 51s-12.5 40 -12.5 62s4.16699 42.667 12.5 62s19.833 36.333 34.5 51s31.834 26.167 51.501 34.5s40.5 12.5 62.5 12.5s42.5 -4.16699 61.5 -12.5
s35.833 -19.833 50.5 -34.5s26.167 -31.667 34.5 -51s12.5 -40 12.5 -62s-4.16699 -42.667 -12.5 -62s-19.833 -36.333 -34.5 -51s-31.5 -26.167 -50.5 -34.5s-39.5 -12.5 -61.5 -12.5zM201 450c28 0 51.667 9.66699 71 29s29 43 29 71s-9.66699 51.667 -29 71
s-43 29 -71 29s-51.667 -9.66699 -71 -29s-29 -43 -29 -71s9.66699 -51.667 29 -71s43 -29 71 -29z" />
    <glyph glyph-name="plusminus" unicode="&#xb1;" horiz-adv-x="600" 
d="M271 406h-171v58h171v171h58v-171h171v-58h-171v-171h-58v171zM100 143h400v-58h-400v58z" />
    <glyph glyph-name="twosuperior" unicode="&#xb2;" 
d="M60 434l118.002 85l59.5 45c17 13.333 31.167 26.333 42.5 39s19.833 25 25.5 37s8.5 24.667 8.5 38c0 28 -9.66699 47.833 -29 59.5s-44.666 17.5 -75.999 17.5c-24 0 -47.333 -2.33301 -70 -7s-42.334 -11.334 -59.001 -20.001v53
c21.333 8.66699 43.166 14.834 65.499 18.501s45.833 5.5 70.5 5.5c22.667 0 43.667 -2.16699 63 -6.5s36.166 -11 50.499 -20s25.5 -21 33.5 -36s12 -32.833 12 -53.5c0 -36 -13.333 -69.333 -40 -100s-67.667 -64.667 -123 -102l-80 -55v-1h248v-51h-320v54z" />
    <glyph glyph-name="threesuperior" unicode="&#xb3;" 
d="M129 619l72.998 -0.00195312c72.667 0 109 22.667 109 68c0 25.333 -9.33301 43 -28 53s-46.667 15 -84 15c-23.333 0 -47 -1.66699 -71 -5s-44.333 -8.66602 -61 -15.999v51c19.333 8 42.666 13.333 69.999 16s53.666 4 78.999 4c50.667 0 88.834 -9.33301 114.501 -28
s38.5 -44.667 38.5 -78c0 -29.333 -9.5 -51.166 -28.5 -65.499s-44.5 -25.166 -76.5 -32.499v-2c22.667 -3.33301 41.334 -8.16602 56.001 -14.499s26.5 -14 35.5 -23s15.333 -18.833 19 -29.5s5.5 -21.334 5.5 -32.001c0 -23.333 -5.16699 -43 -15.5 -59
s-24 -28.833 -41 -38.5s-36.167 -16.667 -57.5 -21s-42.666 -6.5 -63.999 -6.5c-23.333 0 -47.5 1.16699 -72.5 3.5s-48.167 7.83301 -69.5 16.5v52c18 -8.66699 38.833 -14.5 62.5 -17.5s48.167 -4.5 73.5 -4.5c45.333 0 77.333 7.16699 96 21.5s28 32.166 28 53.499
c0 28 -9.66699 47.667 -29 59s-47.666 17 -84.999 17h-77v43z" />
    <glyph glyph-name="acute" unicode="&#xb4;" horiz-adv-x="300" 
d="M148 745h82l-108 -130h-52z" />
    <glyph glyph-name="mu" unicode="&#xb5;" horiz-adv-x="585" 
d="M90 520l60 0.00390625v-310c0 -30.667 2.5 -56.334 7.5 -77.001s12.833 -37.334 23.5 -50.001s24.167 -21.667 40.5 -27s35.833 -8 58.5 -8c48 0 85.833 14 113.5 42s41.5 68 41.5 120v310h60v-520h-54l-6 95c-7.33301 -14.667 -16 -28.334 -26 -41.001
s-21.833 -23.834 -35.5 -33.501s-29.334 -17.167 -47.001 -22.5s-38.167 -8 -61.5 -8c-51.333 0 -89.666 13 -114.999 39v-209h-60v700z" />
    <glyph glyph-name="mu" unicode="&#x3bc;" horiz-adv-x="585" 
d="M90 520l60 0.00390625v-310c0 -30.667 2.5 -56.334 7.5 -77.001s12.833 -37.334 23.5 -50.001s24.167 -21.667 40.5 -27s35.833 -8 58.5 -8c48 0 85.833 14 113.5 42s41.5 68 41.5 120v310h60v-520h-54l-6 95c-7.33301 -14.667 -16 -28.334 -26 -41.001
s-21.833 -23.834 -35.5 -33.501s-29.334 -17.167 -47.001 -22.5s-38.167 -8 -61.5 -8c-51.333 0 -89.666 13 -114.999 39v-209h-60v700z" />
    <glyph glyph-name="paragraph" unicode="&#xb6;" horiz-adv-x="570" 
d="M223 384c-27.333 0 -51.334 4 -72.001 12s-37.667 19 -51 33s-23.333 30.333 -30 49s-10 39 -10 61c0 34 6.33301 61.5 19 82.5s28.334 37.333 47.001 49s39 19.5 61 23.5s42 6 60 6h213v-880h-60v824h-117v-824h-60v564z" />
    <glyph glyph-name="periodcentered" unicode="&#xb7;" horiz-adv-x="320" 
d="M160 305c-33.333 0 -50 16.667 -50 50s16.667 50 50 50s50 -16.667 50 -50s-16.667 -50 -50 -50z" />
    <glyph glyph-name="cedilla" unicode="&#xb8;" horiz-adv-x="250" 
d="M110 -210c-15.333 0 -28.499 1.5 -39.499 4.5s-21.167 6.5 -30.5 10.5l6 42c10 -4.66699 19.333 -8 28 -10s19 -3 31 -3c17.333 0 30.166 3.83301 38.499 11.5s12.5 18.167 12.5 31.5s-4.5 23.833 -13.5 31.5s-23.167 11.5 -42.5 11.5c-5.33301 0 -11 -0.166992 -17 -0.5
s-10.667 -0.833008 -14 -1.5l18 92h40l-12 -55c32.667 0 56.667 -7 72 -21s23 -33 23 -57c0 -26 -8.5 -47 -25.5 -63s-41.833 -24 -74.5 -24z" />
    <glyph glyph-name="onesuperior" unicode="&#xb9;" 
d="M230 734l-126 -66l-24 45l164 87h46v-420h-60v354z" />
    <glyph glyph-name="ordmasculine" unicode="&#xba;" horiz-adv-x="370" 
d="M185 375c-54.667 0 -93.334 14.5 -116.001 43.5s-34 69.5 -34 121.5s11.333 92.5 34 121.5s61.334 43.5 116.001 43.5s93.334 -14.5 116.001 -43.5s34 -69.5 34 -121.5s-11.333 -92.5 -34 -121.5s-61.334 -43.5 -116.001 -43.5zM185 423
c31.333 0 54.833 8.83301 70.5 26.5s23.5 47.834 23.5 90.501s-7.83301 72.834 -23.5 90.501s-39.167 26.5 -70.5 26.5s-54.833 -8.83301 -70.5 -26.5s-23.5 -47.834 -23.5 -90.501s7.83301 -72.834 23.5 -90.501s39.167 -26.5 70.5 -26.5z" />
    <glyph glyph-name="guillemotright" unicode="&#xbb;" horiz-adv-x="550" 
d="M215 269l-135 206h66l134 -204l-136 -206h-64zM425 269l-135 206h66l134 -204l-136 -206h-64z" />
    <glyph glyph-name="onequarter" unicode="&#xbc;" horiz-adv-x="950" 
d="M676 700h64l-476 -700h-64zM212 635l-126 -66l-24 45l164 87h46v-420h-60v354zM496 146l259 274h71v-271h55v-49h-55v-100h-55v100h-275v46zM771 365h-1l-205 -216h206v216z" />
    <glyph glyph-name="onehalf" unicode="&#xbd;" horiz-adv-x="950" 
d="M646 700h64l-476 -700h-64zM208 635l-126 -66l-24 45l164 87h46v-420h-60v354zM561 54l118.002 85l59.5 45c17 13.333 31.167 26.333 42.5 39s19.833 25 25.5 37s8.5 24.667 8.5 38c0 28 -9.66699 47.833 -29 59.5s-44.666 17.5 -75.999 17.5
c-24 0 -47.333 -2.33301 -70 -7s-42.334 -11.334 -59.001 -20.001v53c21.333 8.66699 43.166 14.834 65.499 18.501s45.833 5.5 70.5 5.5c22.667 0 43.667 -2.16699 63 -6.5s36.166 -11 50.499 -20s25.5 -21 33.5 -36s12 -32.833 12 -53.5c0 -36 -13.333 -69.333 -40 -100
s-67.667 -64.667 -123 -102l-80 -55v-1h248v-51h-320v54z" />
    <glyph glyph-name="threequarters" unicode="&#xbe;" horiz-adv-x="950" 
d="M706 700h64l-476 -700h-64zM502 146l259 274h71v-271h55v-49h-55v-100h-55v100h-275v46zM777 365h-1l-205 -216h206v216zM129 520l72.998 -0.00195312c72.667 0 109 22.667 109 68c0 25.333 -9.33301 43 -28 53s-46.667 15 -84 15c-23.333 0 -47 -1.66699 -71 -5
s-44.333 -8.66602 -61 -15.999v51c19.333 8 42.666 13.333 69.999 16s53.666 4 78.999 4c50.667 0 88.834 -9.33301 114.501 -28s38.5 -44.667 38.5 -78c0 -29.333 -9.5 -51.166 -28.5 -65.499s-44.5 -25.166 -76.5 -32.499v-2
c22.667 -3.33301 41.334 -8.16602 56.001 -14.499s26.5 -14 35.5 -23s15.333 -18.833 19 -29.5s5.5 -21.334 5.5 -32.001c0 -23.333 -5.16699 -43 -15.5 -59s-24 -28.833 -41 -38.5s-36.167 -16.667 -57.5 -21s-42.666 -6.5 -63.999 -6.5c-23.333 0 -47.5 1.16699 -72.5 3.5
s-48.167 7.83301 -69.5 16.5v52c18 -8.66699 38.833 -14.5 62.5 -17.5s48.167 -4.5 73.5 -4.5c45.333 0 77.333 7.16699 96 21.5s28 32.166 28 53.499c0 28 -9.66699 47.667 -29 59s-47.666 17 -84.999 17h-77v43z" />
    <glyph glyph-name="questiondown" unicode="&#xbf;" horiz-adv-x="480" 
d="M285 525c33.333 0 50 -16.667 50 -50s-16.667 -50 -50 -50s-50 16.667 -50 50s16.667 50 50 50zM315 310c0 -31.333 -4.83203 -57.166 -14.499 -77.499s-21.834 -37.833 -36.501 -52.5s-30.667 -27.667 -48 -39s-33.333 -23.666 -48 -36.999
s-26.834 -28.833 -36.501 -46.5s-14.5 -40.167 -14.5 -67.5c0 -38 11.667 -67.5 35 -88.5s62 -31.5 116 -31.5c34 0 63.333 4 88 12s47.667 18 69 30v-70c-25.333 -11.333 -52 -19.5 -80 -24.5s-53.667 -7.5 -77 -7.5c-75.333 0 -129.666 15.167 -162.999 45.5
s-50 75.166 -50 134.499c0 32 5 58.833 15 80.5s22.333 40.167 37 55.5s30.667 28.833 48 40.5s33.333 24 48 37s27 27.667 37 44s15 37.166 15 62.499h60z" />
    <glyph glyph-name="Agrave" unicode="&#xc0;" horiz-adv-x="640" 
d="M288 700h64l263 -700h-70l-73 201h-308l-73 -201h-66zM185 259h266l-133 366zM175 905h86l84 -130h-56z" />
    <glyph glyph-name="Aacute" unicode="&#xc1;" horiz-adv-x="640" 
d="M288 700h64l263 -700h-70l-73 201h-308l-73 -201h-66zM185 259h266l-133 366zM374 905h84l-116 -130h-54z" />
    <glyph glyph-name="Acircumflex" unicode="&#xc2;" horiz-adv-x="640" 
d="M288 700h64l263 -700h-70l-73 201h-308l-73 -201h-66zM185 259h266l-133 366zM283 905h74l113 -130h-58l-93 88l-93 -88h-56z" />
    <glyph glyph-name="Atilde" unicode="&#xc3;" horiz-adv-x="640" 
d="M288 700h64l263 -700h-70l-73 201h-308l-73 -201h-66zM185 259h266l-133 366zM175 796c2.66699 24.667 11.502 44.167 26.502 58.5s33.167 21.5 54.5 21.5c12 0 23.333 -1.66699 34 -5s22.667 -8 36 -14c12 -5.33301 22.667 -10.333 32 -15s18.333 -7 27 -7
s16.667 2.5 24 7.5s12.666 15.5 15.999 31.5l40 -11c-3.33301 -26 -12.833 -45.667 -28.5 -59s-32.5 -20 -50.5 -20c-10 0 -19.667 0.833008 -29 2.5s-23.666 7.16699 -42.999 16.5c-11.333 5.33301 -21.333 10.333 -30 15s-17.334 7 -26.001 7s-16.834 -2.33301 -24.501 -7
s-13.5 -15.667 -17.5 -33z" />
    <glyph glyph-name="Adieresis" unicode="&#xc4;" horiz-adv-x="640" 
d="M288 700h64l263 -700h-70l-73 201h-308l-73 -201h-66zM185 259h266l-133 366zM224 796c-29.333 0 -44 14.667 -44 44s14.667 44 44 44s44 -14.667 44 -44s-14.667 -44 -44 -44zM416 796c-29.333 0 -44 14.667 -44 44s14.667 44 44 44s44 -14.667 44 -44
s-14.667 -44 -44 -44z" />
    <glyph glyph-name="Aring" unicode="&#xc5;" horiz-adv-x="640" 
d="M288 700h64l263 -700h-70l-73 201h-308l-73 -201h-66zM185 259h266l-133 366zM228 840c0 26.667 8.66699 48.667 26 66s39.333 26 66 26s48.667 -8.66699 66 -26s26 -39.333 26 -66s-8.66699 -48.667 -26 -66s-39.333 -26 -66 -26s-48.667 8.66699 -66 26
s-26 39.333 -26 66zM268 840c0 -16 4.66699 -28.667 14 -38s22 -14 38 -14s28.667 4.66699 38 14s14 22 14 38s-4.66699 28.667 -14 38s-22 14 -38 14s-28.667 -4.66699 -38 -14s-14 -22 -14 -38z" />
    <glyph glyph-name="AE" unicode="&#xc6;" horiz-adv-x="935" 
d="M470 200h-260l-116 -200h-69l409 700h441v-58h-341v-253h301v-58h-301v-273h341v-58h-405v200zM470 258v387l-226 -387h226z" />
    <glyph glyph-name="Ccedilla" unicode="&#xc7;" horiz-adv-x="575" 
d="M335 -210c-15.333 0 -29.5068 1.5 -42.5068 4.5s-23.833 6.5 -32.5 10.5l6 44c19.333 -8.66699 40.666 -13 63.999 -13c19.333 0 33.166 3.5 41.499 10.5s12.5 17.167 12.5 30.5s-4.33301 23.5 -13 30.5s-24 10.5 -46 10.5c-7.33301 0 -13.666 -0.166992 -18.999 -0.5
s-9.66602 -0.833008 -12.999 -1.5l14 77c-41.333 4 -77.666 14 -108.999 30s-57.5 38.667 -78.5 68s-37 65.833 -48 109.5s-16.5 95.167 -16.5 154.5c0 62 6.66699 115.333 20 160s32.5 81.5 57.5 110.5s55.833 50.333 92.5 64s78.334 20.5 125.001 20.5
c25.333 0 47.833 -1.33301 67.5 -4s36.834 -5.66699 51.501 -9c16.667 -3.33301 31.667 -7.33301 45 -12v-70c-19.333 11.333 -42.666 20 -69.999 26s-58.666 9 -93.999 9c-37.333 0 -70.166 -5.33301 -98.499 -16s-52.166 -27.834 -71.499 -51.501s-34 -54.167 -44 -91.5
s-15 -82.666 -15 -135.999c0 -55.333 5.16699 -102.166 15.5 -140.499s25.5 -69.833 45.5 -94.5s44.5 -42.5 73.5 -53.5s62.167 -16.5 99.5 -16.5s70.666 5.16699 99.999 15.5s52.666 20.166 69.999 29.499v-70c-14.667 -6.66699 -31 -12.667 -49 -18
c-15.333 -4.66699 -33.5 -8.66699 -54.5 -12s-43.167 -5 -66.5 -5h-7l-7 -35c34.667 0 59.834 -7 75.501 -21s23.5 -33 23.5 -57c0 -26 -8.66699 -47 -26 -63s-43.666 -24 -78.999 -24z" />
    <glyph glyph-name="Egrave" unicode="&#xc8;" horiz-adv-x="575" 
d="M110 700h405v-58h-341v-253h301v-58h-301v-273h341v-58h-405v700zM175 905h86l84 -130h-56z" />
    <glyph glyph-name="Eacute" unicode="&#xc9;" horiz-adv-x="575" 
d="M110 700h405v-58h-341v-253h301v-58h-301v-273h341v-58h-405v700zM366 905h84l-116 -130h-54z" />
    <glyph glyph-name="Ecircumflex" unicode="&#xca;" horiz-adv-x="575" 
d="M110 700h405v-58h-341v-253h301v-58h-301v-273h341v-58h-405v700zM275 905h74l113 -130h-58l-93 88l-93 -88h-56z" />
    <glyph glyph-name="Edieresis" unicode="&#xcb;" horiz-adv-x="575" 
d="M110 700h405v-58h-341v-253h301v-58h-301v-273h341v-58h-405v700zM216 796c-29.333 0 -44 14.667 -44 44s14.667 44 44 44s44 -14.667 44 -44s-14.667 -44 -44 -44zM408 796c-29.333 0 -44 14.667 -44 44s14.667 44 44 44s44 -14.667 44 -44s-14.667 -44 -44 -44z" />
    <glyph glyph-name="Igrave" unicode="&#xcc;" horiz-adv-x="330" 
d="M133 700h64v-700h-64v700zM24 905h86l84 -130h-56z" />
    <glyph glyph-name="Iacute" unicode="&#xcd;" horiz-adv-x="330" 
d="M133 700h64v-700h-64v700zM224 905h84l-116 -130h-54z" />
    <glyph glyph-name="Icircumflex" unicode="&#xce;" horiz-adv-x="330" 
d="M133 700h64v-700h-64v700zM129 905h74l113 -130h-58l-93 88l-93 -88h-56z" />
    <glyph glyph-name="Idieresis" unicode="&#xcf;" horiz-adv-x="330" 
d="M133 700h64v-700h-64v700zM70 796c-29.333 0 -44 14.667 -44 44s14.667 44 44 44s44 -14.667 44 -44s-14.667 -44 -44 -44zM262 796c-29.333 0 -44 14.667 -44 44s14.667 44 44 44s44 -14.667 44 -44s-14.667 -44 -44 -44z" />
    <glyph glyph-name="Eth" unicode="&#xd0;" horiz-adv-x="690" 
d="M20 382l99.998 0.000976562v313c17.333 1.33301 36 3 56 5c17.333 1.33301 36.666 2.5 57.999 3.5s43.333 1.5 66 1.5c60.667 0 112.334 -6 155.001 -18s77.334 -31.667 104.001 -59s46 -63 58 -107s18 -97.667 18 -161c0 -64.667 -6.66699 -120 -20 -166
s-33.833 -83.833 -61.5 -113.5s-62.5 -51.334 -104.5 -65.001s-91.667 -20.5 -149 -20.5c-22.667 0 -44.667 0.5 -66 1.5s-40.666 2.16699 -57.999 3.5c-20 1.33301 -38.667 3 -56 5v323h-100v54zM568.998 360.001c0 54.667 -4.49902 100.334 -13.499 137.001
s-23.833 66 -44.5 88s-48.334 37.5 -83.001 46.5s-77.334 13.5 -128.001 13.5c-17.333 0 -33.166 -0.333008 -47.499 -1s-26.5 -1.33398 -36.5 -2.00098c-12 -1.33301 -22.667 -2.33301 -32 -3v-257h186v-54h-186v-267c9.33301 -1.33301 20 -2.33301 32 -3
c20 -2 48 -3 84 -3c47.333 0 88 5.33301 122 16s61.833 28 83.5 52s37.667 55.5 48 94.5s15.5 86.5 15.5 142.5z" />
    <glyph glyph-name="Ntilde" unicode="&#xd1;" horiz-adv-x="740" 
d="M110 700l66.001 0.000976562l331 -500l23 -37l19 -32l18 -31h2c-0.666992 9.33301 -1.33398 19.666 -2.00098 30.999c-0.666992 9.33301 -1 20 -1 32v37v500h64v-700h-66l-331 500c-20 30 -35 54 -45 72c-6 10 -11 19.333 -15 28h-2c0 -8.66699 0.333008 -18 1 -28
c0.666992 -9.33301 1.16699 -19.833 1.5 -31.5s0.5 -25.167 0.5 -40.5v-500h-64v700zM225.001 796.001c2.66699 24.667 11.502 44.167 26.502 58.5s33.167 21.5 54.5 21.5c12 0 23.333 -1.66699 34 -5s22.667 -8 36 -14c12 -5.33301 22.667 -10.333 32 -15s18.333 -7 27 -7
s16.667 2.5 24 7.5s12.666 15.5 15.999 31.5l40 -11c-3.33301 -26 -12.833 -45.667 -28.5 -59s-32.5 -20 -50.5 -20c-10 0 -19.667 0.833008 -29 2.5s-23.666 7.16699 -42.999 16.5c-11.333 5.33301 -21.333 10.333 -30 15s-17.334 7 -26.001 7s-16.834 -2.33301 -24.501 -7
s-13.5 -15.667 -17.5 -33z" />
    <glyph glyph-name="Ograve" unicode="&#xd2;" horiz-adv-x="710" 
d="M355 -10c-47.333 0 -89.665 7.00098 -126.998 21.001s-68.833 35.667 -94.5 65s-45.167 66.666 -58.5 111.999s-20 99.333 -20 162c0 126 26 217.5 78 274.5s126 85.5 222 85.5c49.333 0 92.666 -6.66699 129.999 -20s68.666 -34.5 93.999 -63.5s44.333 -66.333 57 -112
s19 -100.5 19 -164.5c0 -126 -26 -217.5 -78 -274.5s-126 -85.5 -222 -85.5zM355.001 50.001c38 0 71.5 5.5 100.5 16.5s53.333 28.5 73 52.5s34.667 55 45 93s15.5 84 15.5 138c0 54.667 -5 101 -15 139s-25 69 -45 93s-44.5 41.333 -73.5 52s-62.5 16 -100.5 16
c-37.333 0 -70.5 -5.5 -99.5 -16.5s-53.5 -28.5 -73.5 -52.5s-35.167 -55 -45.5 -93s-15.5 -84 -15.5 -138c0 -53.333 5.33301 -99 16 -137s26 -69 46 -93s44.5 -41.667 73.5 -53s61.833 -17 98.5 -17zM218.001 905.001h86l84 -130h-56z" />
    <glyph glyph-name="Oacute" unicode="&#xd3;" horiz-adv-x="710" 
d="M355 -10c-47.333 0 -89.665 7.00098 -126.998 21.001s-68.833 35.667 -94.5 65s-45.167 66.666 -58.5 111.999s-20 99.333 -20 162c0 126 26 217.5 78 274.5s126 85.5 222 85.5c49.333 0 92.666 -6.66699 129.999 -20s68.666 -34.5 93.999 -63.5s44.333 -66.333 57 -112
s19 -100.5 19 -164.5c0 -126 -26 -217.5 -78 -274.5s-126 -85.5 -222 -85.5zM355.001 50.001c38 0 71.5 5.5 100.5 16.5s53.333 28.5 73 52.5s34.667 55 45 93s15.5 84 15.5 138c0 54.667 -5 101 -15 139s-25 69 -45 93s-44.5 41.333 -73.5 52s-62.5 16 -100.5 16
c-37.333 0 -70.5 -5.5 -99.5 -16.5s-53.5 -28.5 -73.5 -52.5s-35.167 -55 -45.5 -93s-15.5 -84 -15.5 -138c0 -53.333 5.33301 -99 16 -137s26 -69 46 -93s44.5 -41.667 73.5 -53s61.833 -17 98.5 -17zM409.001 905.001h84l-116 -130h-54z" />
    <glyph glyph-name="Ocircumflex" unicode="&#xd4;" horiz-adv-x="710" 
d="M355 -10c-47.333 0 -89.665 7.00098 -126.998 21.001s-68.833 35.667 -94.5 65s-45.167 66.666 -58.5 111.999s-20 99.333 -20 162c0 126 26 217.5 78 274.5s126 85.5 222 85.5c49.333 0 92.666 -6.66699 129.999 -20s68.666 -34.5 93.999 -63.5s44.333 -66.333 57 -112
s19 -100.5 19 -164.5c0 -126 -26 -217.5 -78 -274.5s-126 -85.5 -222 -85.5zM355.001 50.001c38 0 71.5 5.5 100.5 16.5s53.333 28.5 73 52.5s34.667 55 45 93s15.5 84 15.5 138c0 54.667 -5 101 -15 139s-25 69 -45 93s-44.5 41.333 -73.5 52s-62.5 16 -100.5 16
c-37.333 0 -70.5 -5.5 -99.5 -16.5s-53.5 -28.5 -73.5 -52.5s-35.167 -55 -45.5 -93s-15.5 -84 -15.5 -138c0 -53.333 5.33301 -99 16 -137s26 -69 46 -93s44.5 -41.667 73.5 -53s61.833 -17 98.5 -17zM318.001 905.001h74l113 -130h-58l-93 88l-93 -88h-56z" />
    <glyph glyph-name="Otilde" unicode="&#xd5;" horiz-adv-x="710" 
d="M355 -10c-47.333 0 -89.665 7.00098 -126.998 21.001s-68.833 35.667 -94.5 65s-45.167 66.666 -58.5 111.999s-20 99.333 -20 162c0 126 26 217.5 78 274.5s126 85.5 222 85.5c49.333 0 92.666 -6.66699 129.999 -20s68.666 -34.5 93.999 -63.5s44.333 -66.333 57 -112
s19 -100.5 19 -164.5c0 -126 -26 -217.5 -78 -274.5s-126 -85.5 -222 -85.5zM355.001 50.001c38 0 71.5 5.5 100.5 16.5s53.333 28.5 73 52.5s34.667 55 45 93s15.5 84 15.5 138c0 54.667 -5 101 -15 139s-25 69 -45 93s-44.5 41.333 -73.5 52s-62.5 16 -100.5 16
c-37.333 0 -70.5 -5.5 -99.5 -16.5s-53.5 -28.5 -73.5 -52.5s-35.167 -55 -45.5 -93s-15.5 -84 -15.5 -138c0 -53.333 5.33301 -99 16 -137s26 -69 46 -93s44.5 -41.667 73.5 -53s61.833 -17 98.5 -17zM210.001 796.001c2.66699 24.667 11.502 44.167 26.502 58.5
s33.167 21.5 54.5 21.5c12 0 23.333 -1.66699 34 -5s22.667 -8 36 -14c12 -5.33301 22.667 -10.333 32 -15s18.333 -7 27 -7s16.667 2.5 24 7.5s12.666 15.5 15.999 31.5l40 -11c-3.33301 -26 -12.833 -45.667 -28.5 -59s-32.5 -20 -50.5 -20
c-10 0 -19.667 0.833008 -29 2.5s-23.666 7.16699 -42.999 16.5c-11.333 5.33301 -21.333 10.333 -30 15s-17.334 7 -26.001 7s-16.834 -2.33301 -24.501 -7s-13.5 -15.667 -17.5 -33z" />
    <glyph glyph-name="Odieresis" unicode="&#xd6;" horiz-adv-x="710" 
d="M355 -10c-47.333 0 -89.665 7.00098 -126.998 21.001s-68.833 35.667 -94.5 65s-45.167 66.666 -58.5 111.999s-20 99.333 -20 162c0 126 26 217.5 78 274.5s126 85.5 222 85.5c49.333 0 92.666 -6.66699 129.999 -20s68.666 -34.5 93.999 -63.5s44.333 -66.333 57 -112
s19 -100.5 19 -164.5c0 -126 -26 -217.5 -78 -274.5s-126 -85.5 -222 -85.5zM355.001 50.001c38 0 71.5 5.5 100.5 16.5s53.333 28.5 73 52.5s34.667 55 45 93s15.5 84 15.5 138c0 54.667 -5 101 -15 139s-25 69 -45 93s-44.5 41.333 -73.5 52s-62.5 16 -100.5 16
c-37.333 0 -70.5 -5.5 -99.5 -16.5s-53.5 -28.5 -73.5 -52.5s-35.167 -55 -45.5 -93s-15.5 -84 -15.5 -138c0 -53.333 5.33301 -99 16 -137s26 -69 46 -93s44.5 -41.667 73.5 -53s61.833 -17 98.5 -17zM259.001 796.001c-29.333 0 -44 14.667 -44 44s14.667 44 44 44
s44 -14.667 44 -44s-14.667 -44 -44 -44zM451.001 796.001c-29.333 0 -44 14.667 -44 44s14.667 44 44 44s44 -14.667 44 -44s-14.667 -44 -44 -44z" />
    <glyph glyph-name="multiply" unicode="&#xd7;" horiz-adv-x="600" 
d="M125 225l135 135l-135 135l40 40l135 -135l135 135l40 -40l-135 -135l135 -135l-40 -40l-135 135l-135 -135z" />
    <glyph glyph-name="Oslash" unicode="&#xd8;" horiz-adv-x="710" 
d="M355 -10c-79.333 0 -143.334 19.333 -192.001 58l-58 -78l-40 30l62 84c-23.333 30 -41.166 66.667 -53.499 110s-18.5 95.333 -18.5 156c0 126 26 217.5 78 274.5s126 85.5 222 85.5c81.333 0 146 -18.667 194 -56l56 76l40 -30l-60 -81
c23.333 -29.333 40.833 -66 52.5 -110s17.5 -97 17.5 -159c0 -126 -26 -217.5 -78 -274.5s-126 -85.5 -222 -85.5zM354.999 50c38 0 71.5 5.5 100.5 16.5s53.333 28.5 73 52.5s34.667 55 45 93s15.5 84 15.5 138c0 48 -3.83301 89.333 -11.5 124s-19.167 64 -34.5 88
l-342 -462c38 -33.333 89.333 -50 154 -50zM120.999 350c0 -91.333 15.667 -161.333 47 -210l342 461c-19.333 17.333 -42 29.833 -68 37.5s-55 11.5 -87 11.5c-37.333 0 -70.5 -5.5 -99.5 -16.5s-53.5 -28.5 -73.5 -52.5s-35.167 -55 -45.5 -93s-15.5 -84 -15.5 -138z" />
    <glyph glyph-name="Ugrave" unicode="&#xd9;" horiz-adv-x="670" 
d="M335 -10c-85.333 0 -148.332 21.334 -188.999 64.001s-61 113 -61 211v435h64v-435c0 -40.667 3.5 -74.667 10.5 -102s18 -49.333 33 -66s34.167 -28.667 57.5 -36s51.666 -11 84.999 -11c34 0 62.667 3.5 86 10.5s42.5 18.833 57.5 35.5s25.833 38.667 32.5 66
s10 61.666 10 102.999v435h64v-435c0 -98 -20.333 -168.333 -61 -211s-103.667 -64 -189 -64zM198.001 905.001h86l84 -130h-56z" />
    <glyph glyph-name="Uacute" unicode="&#xda;" horiz-adv-x="670" 
d="M335 -10c-85.333 0 -148.332 21.334 -188.999 64.001s-61 113 -61 211v435h64v-435c0 -40.667 3.5 -74.667 10.5 -102s18 -49.333 33 -66s34.167 -28.667 57.5 -36s51.666 -11 84.999 -11c34 0 62.667 3.5 86 10.5s42.5 18.833 57.5 35.5s25.833 38.667 32.5 66
s10 61.666 10 102.999v435h64v-435c0 -98 -20.333 -168.333 -61 -211s-103.667 -64 -189 -64zM389.001 905.001h84l-116 -130h-54z" />
    <glyph glyph-name="Ucircumflex" unicode="&#xdb;" horiz-adv-x="670" 
d="M335 -10c-85.333 0 -148.332 21.334 -188.999 64.001s-61 113 -61 211v435h64v-435c0 -40.667 3.5 -74.667 10.5 -102s18 -49.333 33 -66s34.167 -28.667 57.5 -36s51.666 -11 84.999 -11c34 0 62.667 3.5 86 10.5s42.5 18.833 57.5 35.5s25.833 38.667 32.5 66
s10 61.666 10 102.999v435h64v-435c0 -98 -20.333 -168.333 -61 -211s-103.667 -64 -189 -64zM298.001 905.001h74l113 -130h-58l-93 88l-93 -88h-56z" />
    <glyph glyph-name="Udieresis" unicode="&#xdc;" horiz-adv-x="670" 
d="M335 -10c-85.333 0 -148.332 21.334 -188.999 64.001s-61 113 -61 211v435h64v-435c0 -40.667 3.5 -74.667 10.5 -102s18 -49.333 33 -66s34.167 -28.667 57.5 -36s51.666 -11 84.999 -11c34 0 62.667 3.5 86 10.5s42.5 18.833 57.5 35.5s25.833 38.667 32.5 66
s10 61.666 10 102.999v435h64v-435c0 -98 -20.333 -168.333 -61 -211s-103.667 -64 -189 -64zM239.001 796.001c-29.333 0 -44 14.667 -44 44s14.667 44 44 44s44 -14.667 44 -44s-14.667 -44 -44 -44zM431.001 796.001c-29.333 0 -44 14.667 -44 44s14.667 44 44 44
s44 -14.667 44 -44s-14.667 -44 -44 -44z" />
    <glyph glyph-name="Yacute" unicode="&#xdd;" horiz-adv-x="610" 
d="M278 280l-253 420h72l214 -360l206 360h68l-243 -420v-280h-64v280zM359 905h84l-116 -130h-54z" />
    <glyph glyph-name="Thorn" unicode="&#xde;" horiz-adv-x="620" 
d="M110 700l64.0029 0.000976562v-114c17.333 1.33301 36.333 2.33301 57 3s42 1 64 1c49.333 0 91.166 -4.66699 125.499 -14s62.166 -23.5 83.499 -42.5s36.833 -42.833 46.5 -71.5s14.5 -62.667 14.5 -102c0 -78.667 -21.5 -138.334 -64.5 -179.001
s-111.5 -61 -205.5 -61c-38.667 0 -68.334 1 -89.001 3c-12 0.666992 -22.667 1.66699 -32 3v-126h-64v700zM499.003 360.001c0 30.667 -3.33203 56.6689 -9.99902 78.002s-17.834 38.833 -33.501 52.5s-36.667 23.667 -63 30s-58.833 9.5 -97.5 9.5
c-19.333 0 -36.333 -0.333008 -51 -1s-27.334 -1.33398 -38.001 -2.00098c-12 -0.666992 -22.667 -1.33398 -32 -2.00098v-339c9.33301 -1.33301 20 -2.33301 32 -3c20.667 -2 50.334 -3 89.001 -3c74 0 126.5 14.5 157.5 43.5s46.5 74.5 46.5 136.5z" />
    <glyph glyph-name="germandbls" unicode="&#xdf;" horiz-adv-x="615" 
d="M90 520c0 78 18.498 137.502 55.498 178.502s91.833 61.5 164.5 61.5c68 0 119.167 -16.5 153.5 -49.5s51.5 -79.5 51.5 -139.5c0 -40 -8.66699 -74 -26 -102s-43.666 -48.667 -78.999 -62v-3c25.333 -2.66699 46.833 -9.33398 64.5 -20.001s32.167 -24.167 43.5 -40.5
s19.5 -35.5 24.5 -57.5s7.5 -46 7.5 -72c0 -77.333 -17.833 -134 -53.5 -170s-91.167 -54 -166.5 -54c-22.667 0 -42.5 1.5 -59.5 4.5s-30.833 6.16699 -41.5 9.5v56c10.667 -3.33301 24 -6.5 40 -9.5s36.333 -4.5 61 -4.5c54 0 93.833 13.167 119.5 39.5
s38.5 69.166 38.5 128.499c0 54 -12.333 93.833 -37 119.5s-61.667 38.5 -111 38.5h-75v56h65c36.667 0 66.334 12.167 89.001 36.5s34 59.833 34 106.5c0 42 -12.167 74.667 -36.5 98s-59.833 35 -106.5 35c-55.333 0 -95.833 -15 -121.5 -45s-38.5 -76.333 -38.5 -139
v-520h-60v520z" />
    <glyph glyph-name="agrave" unicode="&#xe0;" horiz-adv-x="535" 
d="M230 -10c-56.667 0 -99.1699 13.6689 -127.503 41.002s-42.5 65.333 -42.5 114c0 25.333 3.5 47.666 10.5 66.999s18.833 35.5 35.5 48.5s38.334 22.833 65.001 29.5s59.667 10 99 10h120v55c0 21.333 -2.16699 39.333 -6.5 54s-11.833 26.667 -22.5 36
s-24.5 16.166 -41.5 20.499s-38.5 6.5 -64.5 6.5c-31.333 0 -60.166 -4.5 -86.499 -13.5s-49.166 -20.167 -68.499 -33.5v68c17.333 10 40.833 18.667 70.5 26s59.5 11 89.5 11c68 0 116.667 -14.333 146 -43s44 -74.334 44 -137.001v-350h-54l-6 95
c-13.333 -29.333 -33 -54.166 -59 -74.499s-59.667 -30.5 -101 -30.5zM234.997 48.002c48 0 85.833 14 113.5 42s41.5 68 41.5 120v40h-120c-28.667 0 -52.5 -2.16699 -71.5 -6.5s-34.167 -10.833 -45.5 -19.5s-19.333 -19.5 -24 -32.5s-7 -28.5 -7 -46.5
c0 -32 8.83301 -56.167 26.5 -72.5s46.5 -24.5 86.5 -24.5zM146.997 745.002h84l76 -130h-54z" />
    <glyph glyph-name="aacute" unicode="&#xe1;" horiz-adv-x="535" 
d="M230 -10c-56.667 0 -99.1699 13.6689 -127.503 41.002s-42.5 65.333 -42.5 114c0 25.333 3.5 47.666 10.5 66.999s18.833 35.5 35.5 48.5s38.334 22.833 65.001 29.5s59.667 10 99 10h120v55c0 21.333 -2.16699 39.333 -6.5 54s-11.833 26.667 -22.5 36
s-24.5 16.166 -41.5 20.499s-38.5 6.5 -64.5 6.5c-31.333 0 -60.166 -4.5 -86.499 -13.5s-49.166 -20.167 -68.499 -33.5v68c17.333 10 40.833 18.667 70.5 26s59.5 11 89.5 11c68 0 116.667 -14.333 146 -43s44 -74.334 44 -137.001v-350h-54l-6 95
c-13.333 -29.333 -33 -54.166 -59 -74.499s-59.667 -30.5 -101 -30.5zM234.997 48.002c48 0 85.833 14 113.5 42s41.5 68 41.5 120v40h-120c-28.667 0 -52.5 -2.16699 -71.5 -6.5s-34.167 -10.833 -45.5 -19.5s-19.333 -19.5 -24 -32.5s-7 -28.5 -7 -46.5
c0 -32 8.83301 -56.167 26.5 -72.5s46.5 -24.5 86.5 -24.5zM321.997 745.002h82l-108 -130h-52z" />
    <glyph glyph-name="acircumflex" unicode="&#xe2;" horiz-adv-x="535" 
d="M230 -10c-56.667 0 -99.1699 13.6689 -127.503 41.002s-42.5 65.333 -42.5 114c0 25.333 3.5 47.666 10.5 66.999s18.833 35.5 35.5 48.5s38.334 22.833 65.001 29.5s59.667 10 99 10h120v55c0 21.333 -2.16699 39.333 -6.5 54s-11.833 26.667 -22.5 36
s-24.5 16.166 -41.5 20.499s-38.5 6.5 -64.5 6.5c-31.333 0 -60.166 -4.5 -86.499 -13.5s-49.166 -20.167 -68.499 -33.5v68c17.333 10 40.833 18.667 70.5 26s59.5 11 89.5 11c68 0 116.667 -14.333 146 -43s44 -74.334 44 -137.001v-350h-54l-6 95
c-13.333 -29.333 -33 -54.166 -59 -74.499s-59.667 -30.5 -101 -30.5zM234.997 48.002c48 0 85.833 14 113.5 42s41.5 68 41.5 120v40h-120c-28.667 0 -52.5 -2.16699 -71.5 -6.5s-34.167 -10.833 -45.5 -19.5s-19.333 -19.5 -24 -32.5s-7 -28.5 -7 -46.5
c0 -32 8.83301 -56.167 26.5 -72.5s46.5 -24.5 86.5 -24.5zM239.997 745.002h70l110 -130h-56l-89 90l-91 -90h-54z" />
    <glyph glyph-name="atilde" unicode="&#xe3;" horiz-adv-x="535" 
d="M230 -10c-56.667 0 -99.1699 13.6689 -127.503 41.002s-42.5 65.333 -42.5 114c0 25.333 3.5 47.666 10.5 66.999s18.833 35.5 35.5 48.5s38.334 22.833 65.001 29.5s59.667 10 99 10h120v55c0 21.333 -2.16699 39.333 -6.5 54s-11.833 26.667 -22.5 36
s-24.5 16.166 -41.5 20.499s-38.5 6.5 -64.5 6.5c-31.333 0 -60.166 -4.5 -86.499 -13.5s-49.166 -20.167 -68.499 -33.5v68c17.333 10 40.833 18.667 70.5 26s59.5 11 89.5 11c68 0 116.667 -14.333 146 -43s44 -74.334 44 -137.001v-350h-54l-6 95
c-13.333 -29.333 -33 -54.166 -59 -74.499s-59.667 -30.5 -101 -30.5zM234.997 48.002c48 0 85.833 14 113.5 42s41.5 68 41.5 120v40h-120c-28.667 0 -52.5 -2.16699 -71.5 -6.5s-34.167 -10.833 -45.5 -19.5s-19.333 -19.5 -24 -32.5s-7 -28.5 -7 -46.5
c0 -32 8.83301 -56.167 26.5 -72.5s46.5 -24.5 86.5 -24.5zM126.997 636.002c2.66699 24.667 10.6641 44.167 23.9971 58.5s30.666 21.5 51.999 21.5c12 0 23.333 -1.66699 34 -5s22.667 -8 36 -14c12 -5.33301 22.5 -10.333 31.5 -15s18.167 -7 27.5 -7
c8.66699 0 15.834 2.5 21.501 7.5s10.167 15.5 13.5 31.5l40 -11c-3.33301 -26 -12 -45.667 -26 -59s-30 -20 -48 -20c-10 0 -19.667 0.833008 -29 2.5s-23.666 7.16699 -42.999 16.5c-11.333 5.33301 -21.166 10.333 -29.499 15s-17.166 7 -26.499 7
c-8.66699 0 -16 -2.33301 -22 -7s-11 -15.667 -15 -33z" />
    <glyph glyph-name="adieresis" unicode="&#xe4;" horiz-adv-x="535" 
d="M230 -10c-56.667 0 -99.1699 13.6689 -127.503 41.002s-42.5 65.333 -42.5 114c0 25.333 3.5 47.666 10.5 66.999s18.833 35.5 35.5 48.5s38.334 22.833 65.001 29.5s59.667 10 99 10h120v55c0 21.333 -2.16699 39.333 -6.5 54s-11.833 26.667 -22.5 36
s-24.5 16.166 -41.5 20.499s-38.5 6.5 -64.5 6.5c-31.333 0 -60.166 -4.5 -86.499 -13.5s-49.166 -20.167 -68.499 -33.5v68c17.333 10 40.833 18.667 70.5 26s59.5 11 89.5 11c68 0 116.667 -14.333 146 -43s44 -74.334 44 -137.001v-350h-54l-6 95
c-13.333 -29.333 -33 -54.166 -59 -74.499s-59.667 -30.5 -101 -30.5zM234.997 48.002c48 0 85.833 14 113.5 42s41.5 68 41.5 120v40h-120c-28.667 0 -52.5 -2.16699 -71.5 -6.5s-34.167 -10.833 -45.5 -19.5s-19.333 -19.5 -24 -32.5s-7 -28.5 -7 -46.5
c0 -32 8.83301 -56.167 26.5 -72.5s46.5 -24.5 86.5 -24.5zM186.997 638.002c-28 0 -42 14 -42 42s14 42 42 42s42 -14 42 -42s-14 -42 -42 -42zM362.997 638.002c-28 0 -42 14 -42 42s14 42 42 42s42 -14 42 -42s-14 -42 -42 -42z" />
    <glyph glyph-name="aring" unicode="&#xe5;" horiz-adv-x="535" 
d="M230 -10c-56.667 0 -99.1699 13.6689 -127.503 41.002s-42.5 65.333 -42.5 114c0 25.333 3.5 47.666 10.5 66.999s18.833 35.5 35.5 48.5s38.334 22.833 65.001 29.5s59.667 10 99 10h120v55c0 21.333 -2.16699 39.333 -6.5 54s-11.833 26.667 -22.5 36
s-24.5 16.166 -41.5 20.499s-38.5 6.5 -64.5 6.5c-31.333 0 -60.166 -4.5 -86.499 -13.5s-49.166 -20.167 -68.499 -33.5v68c17.333 10 40.833 18.667 70.5 26s59.5 11 89.5 11c68 0 116.667 -14.333 146 -43s44 -74.334 44 -137.001v-350h-54l-6 95
c-13.333 -29.333 -33 -54.166 -59 -74.499s-59.667 -30.5 -101 -30.5zM234.997 48.002c48 0 85.833 14 113.5 42s41.5 68 41.5 120v40h-120c-28.667 0 -52.5 -2.16699 -71.5 -6.5s-34.167 -10.833 -45.5 -19.5s-19.333 -19.5 -24 -32.5s-7 -28.5 -7 -46.5
c0 -32 8.83301 -56.167 26.5 -72.5s46.5 -24.5 86.5 -24.5zM184.997 680.002c0 26.667 8.33301 48.334 25 65.001s38.334 25 65.001 25s48.334 -8.33301 65.001 -25s25 -38.334 25 -65.001s-8.33301 -48.334 -25 -65.001s-38.334 -25 -65.001 -25
s-48.334 8.33301 -65.001 25s-25 38.334 -25 65.001zM224.997 680.002c0 -15.333 4.5 -27.5 13.5 -36.5s21.167 -13.5 36.5 -13.5s27.5 4.5 36.5 13.5s13.5 21.167 13.5 36.5s-4.5 27.5 -13.5 36.5s-21.167 13.5 -36.5 13.5s-27.5 -4.5 -36.5 -13.5
s-13.5 -21.167 -13.5 -36.5z" />
    <glyph glyph-name="ae" unicode="&#xe6;" horiz-adv-x="860" 
d="M620 -10c-49.333 0 -90.8359 9.66895 -124.503 29.002s-59.167 50 -76.5 92c-17.333 -41.333 -42.333 -71.833 -75 -91.5s-70.667 -29.5 -114 -29.5c-56.667 0 -99.167 13.667 -127.5 41s-42.5 65.333 -42.5 114c0 25.333 3.5 47.666 10.5 66.999s18.833 35.5 35.5 48.5
s38.334 22.833 65.001 29.5s59.667 10 99 10h120v55c0 21.333 -2.16699 39.333 -6.5 54s-11.833 26.667 -22.5 36s-24.5 16.166 -41.5 20.499s-38.5 6.5 -64.5 6.5c-31.333 0 -60.166 -4.5 -86.499 -13.5s-49.166 -20.167 -68.499 -33.5v68c17.333 10 40.833 18.667 70.5 26
s59.5 11 89.5 11c48 0 86 -7.5 114 -22.5s47.667 -38.833 59 -71.5c18 32 41.333 55.667 70 71s61 23 97 23c32.667 0 61.334 -4.5 86.001 -13.5s45.5 -23.667 62.5 -44s29.833 -47 38.5 -80s13 -73.167 13 -120.5v-27h-350c0.666992 -67.333 15 -117 43 -149
s70.333 -48 127 -48c59.333 0 107.666 15 144.999 45v-68c-13.333 -9.33301 -32.333 -17.5 -57 -24.5s-54 -10.5 -88 -10.5zM234.997 48.002c48 0 85.833 14 113.5 42s41.5 68 41.5 120v40h-120c-28.667 0 -52.5 -2.16699 -71.5 -6.5s-34.167 -10.833 -45.5 -19.5
s-19.333 -19.5 -24 -32.5s-7 -28.5 -7 -46.5c0 -32 8.83301 -56.167 26.5 -72.5s46.5 -24.5 86.5 -24.5zM599.997 472.002c-46 0 -82.167 -13.834 -108.5 -41.501s-40.166 -72.167 -41.499 -133.5h290c0 26.667 -2.33301 50.834 -7 72.501s-12.5 40.167 -23.5 55.5
s-25.333 27 -43 35s-39.834 12 -66.501 12z" />
    <glyph glyph-name="ccedilla" unicode="&#xe7;" horiz-adv-x="475" 
d="M280 -210c-15.333 0 -28.4971 1.5 -39.4971 4.5s-21.167 6.5 -30.5 10.5l6 42c10 -4.66699 19.333 -8 28 -10s19 -3 31 -3c17.333 0 30.166 3.83301 38.499 11.5s12.5 18.167 12.5 31.5s-4.5 23.833 -13.5 31.5s-23.167 11.5 -42.5 11.5
c-5.33301 0 -11 -0.166992 -17 -0.5s-10.667 -0.833008 -14 -1.5l14 75c-64.667 8.66699 -113 34.667 -145 78s-48 108 -48 194c0 90.667 20.333 157.5 61 200.5s98.667 64.5 174 64.5c30 0 55.833 -2.5 77.5 -7.5s39.167 -10.5 52.5 -16.5v-68
c-14.667 9.33301 -33.334 17.333 -56.001 24s-47.334 10 -74.001 10c-55.333 0 -98 -16.5 -128 -49.5s-45 -85.5 -45 -157.5c0 -76.667 15.5 -132 46.5 -166s76.5 -51 136.5 -51c24 0 48 3.83301 72 11.5s43.333 17.167 58 28.5v-68c-13.333 -8 -30.5 -15 -51.5 -21
s-47.167 -9 -78.5 -9h-13l-7 -35c32.667 0 56.667 -7 72 -21s23 -33 23 -57c0 -26 -8.5 -47 -25.5 -63s-41.833 -24 -74.5 -24z" />
    <glyph glyph-name="egrave" unicode="&#xe8;" horiz-adv-x="550" 
d="M300 -10c-79.333 0 -139.167 21.3301 -179.5 63.9971s-60.5 111.334 -60.5 206.001c0 92.667 19.667 160.834 59 204.501s93 65.5 161 65.5c34.667 0 65.167 -4.5 91.5 -13.5s48.333 -23.667 66 -44s30.834 -47 39.501 -80s13 -73.167 13 -120.5v-27h-370
c0.666992 -67.333 15.5 -117 44.5 -149s74.167 -48 135.5 -48c32.667 0 62.167 5.33301 88.5 16s48.5 23.667 66.5 39v-68c-13.333 -9.33301 -33.333 -19.166 -60 -29.499s-58.334 -15.5 -95.001 -15.5zM279.999 471.997c-50.667 0 -89.667 -13.834 -117 -41.501
s-41.666 -72.167 -42.999 -133.5h310c0 26.667 -2.33301 50.834 -7 72.501s-12.834 40.167 -24.501 55.5s-27.167 27 -46.5 35s-43.333 12 -72 12zM151.999 744.996h84l76 -130h-54z" />
    <glyph glyph-name="eacute" unicode="&#xe9;" horiz-adv-x="550" 
d="M300 -10c-79.333 0 -139.167 21.3301 -179.5 63.9971s-60.5 111.334 -60.5 206.001c0 92.667 19.667 160.834 59 204.501s93 65.5 161 65.5c34.667 0 65.167 -4.5 91.5 -13.5s48.333 -23.667 66 -44s30.834 -47 39.501 -80s13 -73.167 13 -120.5v-27h-370
c0.666992 -67.333 15.5 -117 44.5 -149s74.167 -48 135.5 -48c32.667 0 62.167 5.33301 88.5 16s48.5 23.667 66.5 39v-68c-13.333 -9.33301 -33.333 -19.166 -60 -29.499s-58.334 -15.5 -95.001 -15.5zM279.999 471.997c-50.667 0 -89.667 -13.834 -117 -41.501
s-41.666 -72.167 -42.999 -133.5h310c0 26.667 -2.33301 50.834 -7 72.501s-12.834 40.167 -24.501 55.5s-27.167 27 -46.5 35s-43.333 12 -72 12zM326.999 744.996h82l-108 -130h-52z" />
    <glyph glyph-name="ecircumflex" unicode="&#xea;" horiz-adv-x="550" 
d="M300 -10c-79.333 0 -139.167 21.3301 -179.5 63.9971s-60.5 111.334 -60.5 206.001c0 92.667 19.667 160.834 59 204.501s93 65.5 161 65.5c34.667 0 65.167 -4.5 91.5 -13.5s48.333 -23.667 66 -44s30.834 -47 39.501 -80s13 -73.167 13 -120.5v-27h-370
c0.666992 -67.333 15.5 -117 44.5 -149s74.167 -48 135.5 -48c32.667 0 62.167 5.33301 88.5 16s48.5 23.667 66.5 39v-68c-13.333 -9.33301 -33.333 -19.166 -60 -29.499s-58.334 -15.5 -95.001 -15.5zM279.999 471.997c-50.667 0 -89.667 -13.834 -117 -41.501
s-41.666 -72.167 -42.999 -133.5h310c0 26.667 -2.33301 50.834 -7 72.501s-12.834 40.167 -24.501 55.5s-27.167 27 -46.5 35s-43.333 12 -72 12zM244.999 744.996h70l110 -130h-56l-89 90l-91 -90h-54z" />
    <glyph glyph-name="edieresis" unicode="&#xeb;" horiz-adv-x="550" 
d="M300 -10c-79.333 0 -139.167 21.3301 -179.5 63.9971s-60.5 111.334 -60.5 206.001c0 92.667 19.667 160.834 59 204.501s93 65.5 161 65.5c34.667 0 65.167 -4.5 91.5 -13.5s48.333 -23.667 66 -44s30.834 -47 39.501 -80s13 -73.167 13 -120.5v-27h-370
c0.666992 -67.333 15.5 -117 44.5 -149s74.167 -48 135.5 -48c32.667 0 62.167 5.33301 88.5 16s48.5 23.667 66.5 39v-68c-13.333 -9.33301 -33.333 -19.166 -60 -29.499s-58.334 -15.5 -95.001 -15.5zM279.999 471.997c-50.667 0 -89.667 -13.834 -117 -41.501
s-41.666 -72.167 -42.999 -133.5h310c0 26.667 -2.33301 50.834 -7 72.501s-12.834 40.167 -24.501 55.5s-27.167 27 -46.5 35s-43.333 12 -72 12zM191.999 637.996c-28 0 -42 14 -42 42s14 42 42 42s42 -14 42 -42s-14 -42 -42 -42zM367.999 637.996c-28 0 -42 14 -42 42
s14 42 42 42s42 -14 42 -42s-14 -42 -42 -42z" />
    <glyph glyph-name="igrave" unicode="&#xec;" horiz-adv-x="290" 
d="M115 520h60v-520h-60v520zM13 745h84l76 -130h-54z" />
    <glyph glyph-name="iacute" unicode="&#xed;" horiz-adv-x="290" 
d="M115 520h60v-520h-60v520zM197 745h82l-108 -130h-52z" />
    <glyph glyph-name="icircumflex" unicode="&#xee;" horiz-adv-x="290" 
d="M115 520h60v-520h-60v520zM111 745h70l110 -130h-56l-89 90l-91 -90h-54z" />
    <glyph glyph-name="idieresis" unicode="&#xef;" horiz-adv-x="290" 
d="M115 520h60v-520h-60v520zM58 638c-28 0 -42 14 -42 42s14 42 42 42s42 -14 42 -42s-14 -42 -42 -42zM234 638c-28 0 -42 14 -42 42s14 42 42 42s42 -14 42 -42s-14 -42 -42 -42z" />
    <glyph glyph-name="eth" unicode="&#xf0;" horiz-adv-x="585" 
d="M174 614l88.999 47.999c-38 23.333 -80.667 40 -128 50l24 46c30.667 -8 59 -17.667 85 -29s50 -24 72 -38l130 70l19 -37l-111 -60c30 -24 55.5 -51 76.5 -81s38.167 -62 51.5 -96s23 -69.833 29 -107.5s9 -76.5 9 -116.5c0 -86 -20.167 -153 -60.5 -201
s-96.833 -72 -169.5 -72c-74 0 -130.833 22.5 -170.5 67.5s-59.5 110.167 -59.5 195.5c0 84.667 19.833 148.667 59.5 192s92.834 65 159.501 65c12 0 24.667 -0.833008 38 -2.5s26.833 -5.16699 40.5 -10.5s27 -13 40 -23s24.5 -23.333 34.5 -40l3 2
c-11.333 41.333 -28.333 78.833 -51 112.5s-50 62.834 -82 87.501l-109 -59zM289.999 45.999c24.667 0 47.1689 3.83105 67.502 11.498s38 19.667 53 36s26.667 37.5 35 63.5s12.5 57.667 12.5 95c0 72 -13.833 123.667 -41.5 155s-69.834 47 -126.501 47
c-25.333 0 -48.333 -3.66699 -69 -11s-38.334 -19 -53.001 -35s-26 -36.833 -34 -62.5s-12 -56.834 -12 -93.501c0 -37.333 4.16699 -69.166 12.5 -95.499s20 -47.666 35 -63.999s32.833 -28.166 53.5 -35.499s43 -11 67 -11z" />
    <glyph glyph-name="ntilde" unicode="&#xf1;" horiz-adv-x="585" 
d="M90 520l54 -0.000976562l6 -95c15.333 31.333 35.833 56.666 61.5 75.999s61.834 29 108.501 29c61.333 0 106.666 -15.5 135.999 -46.5s44 -82.167 44 -153.5v-330h-60v310c0 30.667 -2.5 56.334 -7.5 77.001s-13 37.334 -24 50.001s-25 21.667 -42 27s-37.5 8 -61.5 8
c-48 0 -85.833 -14 -113.5 -42s-41.5 -68 -41.5 -120v-310h-60v520zM152 635.999c2.66699 24.667 10.6641 44.167 23.9971 58.5s30.666 21.5 51.999 21.5c12 0 23.333 -1.66699 34 -5s22.667 -8 36 -14c12 -5.33301 22.5 -10.333 31.5 -15s18.167 -7 27.5 -7
c8.66699 0 15.834 2.5 21.501 7.5s10.167 15.5 13.5 31.5l40 -11c-3.33301 -26 -12 -45.667 -26 -59s-30 -20 -48 -20c-10 0 -19.667 0.833008 -29 2.5s-23.666 7.16699 -42.999 16.5c-11.333 5.33301 -21.166 10.333 -29.499 15s-17.166 7 -26.499 7
c-8.66699 0 -16 -2.33301 -22 -7s-11 -15.667 -15 -33z" />
    <glyph glyph-name="ograve" unicode="&#xf2;" horiz-adv-x="570" 
d="M285 -10c-72.667 0 -128.336 21.334 -167.003 64.001s-58 111.334 -58 206.001c0 91.333 20.333 159.166 61 203.499s95.334 66.5 164.001 66.5c36.667 0 69.167 -5 97.5 -15s51.833 -25.833 70.5 -47.5s32.834 -49.667 42.501 -84s14.5 -75.5 14.5 -123.5
c0 -94.667 -19.667 -163.334 -59 -206.001s-94.666 -64 -165.999 -64zM284.998 472.001c-52 0 -92.167 -16.167 -120.5 -48.5s-42.5 -86.833 -42.5 -163.5c0 -39.333 3.33301 -72.5 10 -99.5s16.834 -48.833 30.501 -65.5s30.667 -28.667 51 -36s44.166 -11 71.499 -11
s51.166 3.66699 71.499 11s37.333 19.333 51 36s23.834 38.5 30.501 65.5s10 60.167 10 99.5s-3.33301 72.5 -10 99.5s-16.834 48.833 -30.501 65.5s-30.667 28.667 -51 36s-44.166 11 -71.499 11zM156.998 745.001h84l76 -130h-54z" />
    <glyph glyph-name="oacute" unicode="&#xf3;" horiz-adv-x="570" 
d="M285 -10c-72.667 0 -128.336 21.334 -167.003 64.001s-58 111.334 -58 206.001c0 91.333 20.333 159.166 61 203.499s95.334 66.5 164.001 66.5c36.667 0 69.167 -5 97.5 -15s51.833 -25.833 70.5 -47.5s32.834 -49.667 42.501 -84s14.5 -75.5 14.5 -123.5
c0 -94.667 -19.667 -163.334 -59 -206.001s-94.666 -64 -165.999 -64zM284.998 472.001c-52 0 -92.167 -16.167 -120.5 -48.5s-42.5 -86.833 -42.5 -163.5c0 -39.333 3.33301 -72.5 10 -99.5s16.834 -48.833 30.501 -65.5s30.667 -28.667 51 -36s44.166 -11 71.499 -11
s51.166 3.66699 71.499 11s37.333 19.333 51 36s23.834 38.5 30.501 65.5s10 60.167 10 99.5s-3.33301 72.5 -10 99.5s-16.834 48.833 -30.501 65.5s-30.667 28.667 -51 36s-44.166 11 -71.499 11zM331.998 745.001h82l-108 -130h-52z" />
    <glyph glyph-name="ocircumflex" unicode="&#xf4;" horiz-adv-x="570" 
d="M285 -10c-72.667 0 -128.336 21.334 -167.003 64.001s-58 111.334 -58 206.001c0 91.333 20.333 159.166 61 203.499s95.334 66.5 164.001 66.5c36.667 0 69.167 -5 97.5 -15s51.833 -25.833 70.5 -47.5s32.834 -49.667 42.501 -84s14.5 -75.5 14.5 -123.5
c0 -94.667 -19.667 -163.334 -59 -206.001s-94.666 -64 -165.999 -64zM284.998 472.001c-52 0 -92.167 -16.167 -120.5 -48.5s-42.5 -86.833 -42.5 -163.5c0 -39.333 3.33301 -72.5 10 -99.5s16.834 -48.833 30.501 -65.5s30.667 -28.667 51 -36s44.166 -11 71.499 -11
s51.166 3.66699 71.499 11s37.333 19.333 51 36s23.834 38.5 30.501 65.5s10 60.167 10 99.5s-3.33301 72.5 -10 99.5s-16.834 48.833 -30.501 65.5s-30.667 28.667 -51 36s-44.166 11 -71.499 11zM249.998 745.001h70l110 -130h-56l-89 90l-91 -90h-54z" />
    <glyph glyph-name="otilde" unicode="&#xf5;" horiz-adv-x="570" 
d="M285 -10c-72.667 0 -128.336 21.334 -167.003 64.001s-58 111.334 -58 206.001c0 91.333 20.333 159.166 61 203.499s95.334 66.5 164.001 66.5c36.667 0 69.167 -5 97.5 -15s51.833 -25.833 70.5 -47.5s32.834 -49.667 42.501 -84s14.5 -75.5 14.5 -123.5
c0 -94.667 -19.667 -163.334 -59 -206.001s-94.666 -64 -165.999 -64zM284.998 472.001c-52 0 -92.167 -16.167 -120.5 -48.5s-42.5 -86.833 -42.5 -163.5c0 -39.333 3.33301 -72.5 10 -99.5s16.834 -48.833 30.501 -65.5s30.667 -28.667 51 -36s44.166 -11 71.499 -11
s51.166 3.66699 71.499 11s37.333 19.333 51 36s23.834 38.5 30.501 65.5s10 60.167 10 99.5s-3.33301 72.5 -10 99.5s-16.834 48.833 -30.501 65.5s-30.667 28.667 -51 36s-44.166 11 -71.499 11zM144.998 636.001c2.66699 24.667 10.6641 44.167 23.9971 58.5
s30.666 21.5 51.999 21.5c12 0 23.333 -1.66699 34 -5s22.667 -8 36 -14c12 -5.33301 22.5 -10.333 31.5 -15s18.167 -7 27.5 -7c8.66699 0 15.834 2.5 21.501 7.5s10.167 15.5 13.5 31.5l40 -11c-3.33301 -26 -12 -45.667 -26 -59s-30 -20 -48 -20
c-10 0 -19.667 0.833008 -29 2.5s-23.666 7.16699 -42.999 16.5c-11.333 5.33301 -21.166 10.333 -29.499 15s-17.166 7 -26.499 7c-8.66699 0 -16 -2.33301 -22 -7s-11 -15.667 -15 -33z" />
    <glyph glyph-name="odieresis" unicode="&#xf6;" horiz-adv-x="570" 
d="M285 -10c-72.667 0 -128.336 21.334 -167.003 64.001s-58 111.334 -58 206.001c0 91.333 20.333 159.166 61 203.499s95.334 66.5 164.001 66.5c36.667 0 69.167 -5 97.5 -15s51.833 -25.833 70.5 -47.5s32.834 -49.667 42.501 -84s14.5 -75.5 14.5 -123.5
c0 -94.667 -19.667 -163.334 -59 -206.001s-94.666 -64 -165.999 -64zM284.998 472.001c-52 0 -92.167 -16.167 -120.5 -48.5s-42.5 -86.833 -42.5 -163.5c0 -39.333 3.33301 -72.5 10 -99.5s16.834 -48.833 30.501 -65.5s30.667 -28.667 51 -36s44.166 -11 71.499 -11
s51.166 3.66699 71.499 11s37.333 19.333 51 36s23.834 38.5 30.501 65.5s10 60.167 10 99.5s-3.33301 72.5 -10 99.5s-16.834 48.833 -30.501 65.5s-30.667 28.667 -51 36s-44.166 11 -71.499 11zM196.998 638.001c-28 0 -42 14 -42 42s14 42 42 42s42 -14 42 -42
s-14 -42 -42 -42zM372.998 638.001c-28 0 -42 14 -42 42s14 42 42 42s42 -14 42 -42s-14 -42 -42 -42z" />
    <glyph glyph-name="divide" unicode="&#xf7;" horiz-adv-x="600" 
d="M100 389h400v-58h-400v58zM300 140c-33.333 0 -50 16.667 -50 50s16.667 50 50 50s50 -16.667 50 -50s-16.667 -50 -50 -50zM300 480c-33.333 0 -50 16.667 -50 50s16.667 50 50 50s50 -16.667 50 -50s-16.667 -50 -50 -50z" />
    <glyph glyph-name="oslash" unicode="&#xf8;" horiz-adv-x="570" 
d="M285 -10c-28.667 0 -54.835 3.16992 -78.502 9.50293s-44.5 16.166 -62.5 29.499l-39 -54l-35 25l43 60c-17.333 22 -30.5 49.333 -39.5 82s-13.5 72 -13.5 118c0 91.333 20.333 159.166 61 203.499s95.334 66.5 164.001 66.5c59.333 0 106.333 -13 141 -39l39 54l35 -25
l-43 -59c35.333 -43.333 53 -110.333 53 -201c0 -94.667 -19.667 -163.334 -59 -206.001s-94.666 -64 -165.999 -64zM447.999 260.003c0 33.333 -2.5 62.001 -7.5 86.001s-12.167 44.667 -21.5 62l-240 -330c13.333 -10.667 28.833 -18.334 46.5 -23.001s37.5 -7 59.5 -7
c27.333 0 51.166 3.66699 71.499 11s37.333 19.333 51 36s23.834 38.5 30.501 65.5s10 60.167 10 99.5zM284.999 472.004c-52 0 -92.167 -16.168 -120.5 -48.501s-42.5 -86.833 -42.5 -163.5c0 -65.333 9.66699 -114.666 29 -147.999l239 330c-24.667 20 -59.667 30 -105 30
z" />
    <glyph glyph-name="ugrave" unicode="&#xf9;" horiz-adv-x="580" 
d="M490 0l-53.999 0.00390625l-6 95c-7.33301 -14.667 -16 -28.334 -26 -41.001s-21.833 -23.834 -35.5 -33.501s-29.334 -17.167 -47.001 -22.5s-38.167 -8 -61.5 -8c-58.667 0 -102.5 15.5 -131.5 46.5s-43.5 82.167 -43.5 153.5v330h60v-310
c0 -30.667 2.5 -56.334 7.5 -77.001s12.833 -37.334 23.5 -50.001s24.167 -21.667 40.5 -27s35.833 -8 58.5 -8c48 0 85.833 14 113.5 42s41.5 68 41.5 120v310h60v-520zM159.001 745.004h84l76 -130h-54z" />
    <glyph glyph-name="uacute" unicode="&#xfa;" horiz-adv-x="580" 
d="M490 0l-53.999 0.00390625l-6 95c-7.33301 -14.667 -16 -28.334 -26 -41.001s-21.833 -23.834 -35.5 -33.501s-29.334 -17.167 -47.001 -22.5s-38.167 -8 -61.5 -8c-58.667 0 -102.5 15.5 -131.5 46.5s-43.5 82.167 -43.5 153.5v330h60v-310
c0 -30.667 2.5 -56.334 7.5 -77.001s12.833 -37.334 23.5 -50.001s24.167 -21.667 40.5 -27s35.833 -8 58.5 -8c48 0 85.833 14 113.5 42s41.5 68 41.5 120v310h60v-520zM334.001 745.004h82l-108 -130h-52z" />
    <glyph glyph-name="ucircumflex" unicode="&#xfb;" horiz-adv-x="580" 
d="M490 0l-53.999 0.00390625l-6 95c-7.33301 -14.667 -16 -28.334 -26 -41.001s-21.833 -23.834 -35.5 -33.501s-29.334 -17.167 -47.001 -22.5s-38.167 -8 -61.5 -8c-58.667 0 -102.5 15.5 -131.5 46.5s-43.5 82.167 -43.5 153.5v330h60v-310
c0 -30.667 2.5 -56.334 7.5 -77.001s12.833 -37.334 23.5 -50.001s24.167 -21.667 40.5 -27s35.833 -8 58.5 -8c48 0 85.833 14 113.5 42s41.5 68 41.5 120v310h60v-520zM252.001 745.004h70l110 -130h-56l-89 90l-91 -90h-54z" />
    <glyph glyph-name="udieresis" unicode="&#xfc;" horiz-adv-x="580" 
d="M490 0l-53.999 0.00390625l-6 95c-7.33301 -14.667 -16 -28.334 -26 -41.001s-21.833 -23.834 -35.5 -33.501s-29.334 -17.167 -47.001 -22.5s-38.167 -8 -61.5 -8c-58.667 0 -102.5 15.5 -131.5 46.5s-43.5 82.167 -43.5 153.5v330h60v-310
c0 -30.667 2.5 -56.334 7.5 -77.001s12.833 -37.334 23.5 -50.001s24.167 -21.667 40.5 -27s35.833 -8 58.5 -8c48 0 85.833 14 113.5 42s41.5 68 41.5 120v310h60v-520zM199.001 638.004c-28 0 -42 14 -42 42s14 42 42 42s42 -14 42 -42s-14 -42 -42 -42zM375.001 638.004
c-28 0 -42 14 -42 42s14 42 42 42s42 -14 42 -42s-14 -42 -42 -42z" />
    <glyph glyph-name="yacute" unicode="&#xfd;" horiz-adv-x="520" 
d="M150 -190c-21.333 0 -38.001 3.33594 -50.001 10.0029v64c6 -4.66699 13 -8.5 21 -11.5s17.667 -4.5 29 -4.5c8.66699 0 16.5 1.33301 23.5 4s14.167 8.66699 21.5 18s14.833 22.666 22.5 39.999s16.5 40.666 26.5 69.999l-219 520h66l183 -445l157 445h64l-194 -530
c-14.667 -39.333 -28 -70.833 -40 -94.5s-23.667 -41.834 -35 -54.501s-23.166 -21 -35.499 -25s-25.833 -6 -40.5 -6zM306.999 745.003h82l-108 -130h-52z" />
    <glyph glyph-name="thorn" unicode="&#xfe;" horiz-adv-x="590" 
d="M90 750l60 0.00195312v-320c8 13.333 17.167 26.166 27.5 38.499s22.5 23 36.5 32s30.5 16.167 49.5 21.5s41.167 8 66.5 8c32 0 60.5 -4.66699 85.5 -14s46 -24.5 63 -45.5s29.833 -48.333 38.5 -82s13 -74.834 13 -123.501c0 -50 -4.5 -92.5 -13.5 -127.5
s-22.5 -63.5 -40.5 -85.5s-40 -37.833 -66 -47.5s-56 -14.5 -90 -14.5c-24 0 -45.333 2.83301 -64 8.5s-34.667 13.167 -48 22.5s-24.833 20.5 -34.5 33.5s-17.5 26.5 -23.5 40.5v-275h-60v930zM468 265.002c0 38.667 -3.16895 71.167 -9.50195 97.5s-16 47.666 -29 63.999
s-29 28 -48 35s-41.167 10.5 -66.5 10.5c-53.333 0 -94.166 -14.5 -122.499 -43.5s-42.5 -72.5 -42.5 -130.5v-76c0 -55.333 14.667 -98.166 44 -128.499s68 -45.5 116 -45.5c26.667 0 49.834 3.5 69.501 10.5s36 19 49 36s22.833 39.333 29.5 67s10 62.167 10 103.5z" />
    <glyph glyph-name="ydieresis" unicode="&#xff;" horiz-adv-x="520" 
d="M150 -190c-21.333 0 -38.001 3.33594 -50.001 10.0029v64c6 -4.66699 13 -8.5 21 -11.5s17.667 -4.5 29 -4.5c8.66699 0 16.5 1.33301 23.5 4s14.167 8.66699 21.5 18s14.833 22.666 22.5 39.999s16.5 40.666 26.5 69.999l-219 520h66l183 -445l157 445h64l-194 -530
c-14.667 -39.333 -28 -70.833 -40 -94.5s-23.667 -41.834 -35 -54.501s-23.166 -21 -35.499 -25s-25.833 -6 -40.5 -6zM171.999 638.003c-28 0 -42 14 -42 42s14 42 42 42s42 -14 42 -42s-14 -42 -42 -42zM347.999 638.003c-28 0 -42 14 -42 42s14 42 42 42s42 -14 42 -42
s-14 -42 -42 -42z" />
    <glyph glyph-name="Amacron" unicode="&#x100;" horiz-adv-x="640" 
d="M288 700h64l263 -700h-70l-73 201h-308l-73 -201h-66zM185 259h266l-133 366zM190 857h260v-54h-260v54z" />
    <glyph glyph-name="amacron" unicode="&#x101;" horiz-adv-x="535" 
d="M230 -10c-56.667 0 -99.1699 13.6689 -127.503 41.002s-42.5 65.333 -42.5 114c0 25.333 3.5 47.666 10.5 66.999s18.833 35.5 35.5 48.5s38.334 22.833 65.001 29.5s59.667 10 99 10h120v55c0 21.333 -2.16699 39.333 -6.5 54s-11.833 26.667 -22.5 36
s-24.5 16.166 -41.5 20.499s-38.5 6.5 -64.5 6.5c-31.333 0 -60.166 -4.5 -86.499 -13.5s-49.166 -20.167 -68.499 -33.5v68c17.333 10 40.833 18.667 70.5 26s59.5 11 89.5 11c68 0 116.667 -14.333 146 -43s44 -74.334 44 -137.001v-350h-54l-6 95
c-13.333 -29.333 -33 -54.166 -59 -74.499s-59.667 -30.5 -101 -30.5zM234.997 48.002c48 0 85.833 14 113.5 42s41.5 68 41.5 120v40h-120c-28.667 0 -52.5 -2.16699 -71.5 -6.5s-34.167 -10.833 -45.5 -19.5s-19.333 -19.5 -24 -32.5s-7 -28.5 -7 -46.5
c0 -32 8.83301 -56.167 26.5 -72.5s46.5 -24.5 86.5 -24.5zM154.997 695.002h240v-50h-240v50z" />
    <glyph glyph-name="Abreve" unicode="&#x102;" horiz-adv-x="640" 
d="M288 700h64l263 -700h-70l-73 201h-308l-73 -201h-66zM185 259h266l-133 366zM218 905c6.66699 -25.333 17.665 -44.666 32.998 -57.999s38.333 -20 69 -20s54 6.66699 70 20s27.333 32.666 34 57.999l46 -13c-7.33301 -38 -24.166 -67 -50.499 -87s-59.5 -30 -99.5 -30
s-73.167 10 -99.5 30s-43.166 49 -50.499 87z" />
    <glyph glyph-name="abreve" unicode="&#x103;" horiz-adv-x="535" 
d="M230 -10c-56.667 0 -99.1699 13.6689 -127.503 41.002s-42.5 65.333 -42.5 114c0 25.333 3.5 47.666 10.5 66.999s18.833 35.5 35.5 48.5s38.334 22.833 65.001 29.5s59.667 10 99 10h120v55c0 21.333 -2.16699 39.333 -6.5 54s-11.833 26.667 -22.5 36
s-24.5 16.166 -41.5 20.499s-38.5 6.5 -64.5 6.5c-31.333 0 -60.166 -4.5 -86.499 -13.5s-49.166 -20.167 -68.499 -33.5v68c17.333 10 40.833 18.667 70.5 26s59.5 11 89.5 11c68 0 116.667 -14.333 146 -43s44 -74.334 44 -137.001v-350h-54l-6 95
c-13.333 -29.333 -33 -54.166 -59 -74.499s-59.667 -30.5 -101 -30.5zM234.997 48.002c48 0 85.833 14 113.5 42s41.5 68 41.5 120v40h-120c-28.667 0 -52.5 -2.16699 -71.5 -6.5s-34.167 -10.833 -45.5 -19.5s-19.333 -19.5 -24 -32.5s-7 -28.5 -7 -46.5
c0 -32 8.83301 -56.167 26.5 -72.5s46.5 -24.5 86.5 -24.5zM175.997 745.002c6.66699 -25.333 17.833 -45 33.5 -59s37.5 -21 65.5 -21s50.167 7 66.5 21s27.833 33.667 34.5 59l44 -13c-7.33301 -38 -23.833 -67 -49.5 -87s-57.5 -30 -95.5 -30
c-37.333 0 -69 10.167 -95 30.5s-42.667 49.5 -50 87.5z" />
    <glyph glyph-name="Aogonek" unicode="&#x104;" horiz-adv-x="640" 
d="M545 -190c-53.333 0 -80.001 23.332 -80.001 69.999c0 20 7 40.167 21 60.5s36 40.166 66 59.499h-7l-73 201h-308l-73 -201h-66l263 700h64l263 -700c-32.667 -19.333 -56.167 -38.666 -70.5 -57.999s-21.5 -36.666 -21.5 -51.999c0 -22.667 12.333 -34 37 -34
c18 0 36.333 5.33301 55 16v-46c-9.33301 -5.33301 -19.666 -9.33301 -30.999 -12s-24.333 -4 -39 -4zM184.999 258.999h266l-133 366z" />
    <glyph glyph-name="aogonek" unicode="&#x105;" horiz-adv-x="535" 
d="M380 -190c-53.333 0 -80.0049 23.332 -80.0049 69.999c0 21.333 7.5 42.5 22.5 63.5s39.167 42.167 72.5 63.5l-5 88c-13.333 -29.333 -33 -54.166 -59 -74.499s-59.667 -30.5 -101 -30.5c-56.667 0 -99.167 13.667 -127.5 41s-42.5 65.333 -42.5 114
c0 25.333 3.5 47.666 10.5 66.999s18.833 35.5 35.5 48.5s38.334 22.833 65.001 29.5s59.667 10 99 10h120v55c0 21.333 -2.16699 39.333 -6.5 54s-11.833 26.667 -22.5 36s-24.5 16.166 -41.5 20.499s-38.5 6.5 -64.5 6.5c-31.333 0 -60.166 -4.5 -86.499 -13.5
s-49.166 -20.167 -68.499 -33.5v68c17.333 10 40.833 18.667 70.5 26s59.5 11 89.5 11c68 0 116.667 -14.333 146 -43s44 -74.334 44 -137.001v-350c-33.333 -19.333 -57.333 -38.666 -72 -57.999s-22 -36.666 -22 -51.999c0 -11.333 3.33301 -20.166 10 -26.499
s16.334 -9.5 29.001 -9.5c18 0 36.333 5.33301 55 16v-44c-9.33301 -5.33301 -19.666 -9.33301 -30.999 -12s-24.333 -4 -39 -4zM234.995 47.999c48 0 85.833 14 113.5 42s41.5 68 41.5 120v40h-120c-28.667 0 -52.5 -2.16699 -71.5 -6.5s-34.167 -10.833 -45.5 -19.5
s-19.333 -19.5 -24 -32.5s-7 -28.5 -7 -46.5c0 -32 8.83301 -56.167 26.5 -72.5s46.5 -24.5 86.5 -24.5z" />
    <glyph glyph-name="Cacute" unicode="&#x106;" horiz-adv-x="575" 
d="M355 -10c-48.667 0 -91.6719 6.83301 -129.005 20.5s-68.666 35.167 -93.999 64.5s-44.5 67 -57.5 113s-19.5 101.667 -19.5 167c0 62 6.66699 115.333 20 160s32.5 81.5 57.5 110.5s55.833 50.333 92.5 64s78.334 20.5 125.001 20.5c25.333 0 47.833 -1.33301 67.5 -4
s36.834 -5.66699 51.501 -9c16.667 -3.33301 31.667 -7.33301 45 -12v-70c-19.333 11.333 -42.666 20 -69.999 26s-58.666 9 -93.999 9c-37.333 0 -70.166 -5.33301 -98.499 -16s-52.166 -27.834 -71.499 -51.501s-34 -54.167 -44 -91.5s-15 -82.666 -15 -135.999
c0 -55.333 5.16699 -102.166 15.5 -140.499s25.5 -69.833 45.5 -94.5s44.5 -42.5 73.5 -53.5s62.167 -16.5 99.5 -16.5s70.666 5.16699 99.999 15.5s52.666 20.166 69.999 29.499v-70c-14.667 -6.66699 -31 -12.667 -49 -18c-15.333 -4.66699 -33.5 -8.66699 -54.5 -12
s-43.167 -5 -66.5 -5zM383.995 905h84l-116 -130h-54z" />
    <glyph glyph-name="cacute" unicode="&#x107;" horiz-adv-x="475" 
d="M305 -10c-81.333 0 -142.498 21.833 -183.498 65.5s-61.5 113.5 -61.5 209.5c0 90.667 20.333 157.5 61 200.5s98.667 64.5 174 64.5c30 0 55.833 -2.5 77.5 -7.5s39.167 -10.5 52.5 -16.5v-68c-14.667 9.33301 -33.334 17.333 -56.001 24s-47.334 10 -74.001 10
c-55.333 0 -98 -16.5 -128 -49.5s-45 -85.5 -45 -157.5c0 -76.667 15.5 -132 46.5 -166s76.5 -51 136.5 -51c24 0 48 3.83301 72 11.5s43.333 17.167 58 28.5v-68c-13.333 -8 -30.5 -15 -51.5 -21s-47.167 -9 -78.5 -9zM322.002 745h82l-108 -130h-52z" />
    <glyph glyph-name="Ccircumflex" unicode="&#x108;" horiz-adv-x="575" 
d="M355 -10c-48.667 0 -91.6719 6.83301 -129.005 20.5s-68.666 35.167 -93.999 64.5s-44.5 67 -57.5 113s-19.5 101.667 -19.5 167c0 62 6.66699 115.333 20 160s32.5 81.5 57.5 110.5s55.833 50.333 92.5 64s78.334 20.5 125.001 20.5c25.333 0 47.833 -1.33301 67.5 -4
s36.834 -5.66699 51.501 -9c16.667 -3.33301 31.667 -7.33301 45 -12v-70c-19.333 11.333 -42.666 20 -69.999 26s-58.666 9 -93.999 9c-37.333 0 -70.166 -5.33301 -98.499 -16s-52.166 -27.834 -71.499 -51.501s-34 -54.167 -44 -91.5s-15 -82.666 -15 -135.999
c0 -55.333 5.16699 -102.166 15.5 -140.499s25.5 -69.833 45.5 -94.5s44.5 -42.5 73.5 -53.5s62.167 -16.5 99.5 -16.5s70.666 5.16699 99.999 15.5s52.666 20.166 69.999 29.499v-70c-14.667 -6.66699 -31 -12.667 -49 -18c-15.333 -4.66699 -33.5 -8.66699 -54.5 -12
s-43.167 -5 -66.5 -5zM292.995 905h74l113 -130h-58l-93 88l-93 -88h-56z" />
    <glyph glyph-name="ccircumflex" unicode="&#x109;" horiz-adv-x="475" 
d="M305 -10c-81.333 0 -142.498 21.833 -183.498 65.5s-61.5 113.5 -61.5 209.5c0 90.667 20.333 157.5 61 200.5s98.667 64.5 174 64.5c30 0 55.833 -2.5 77.5 -7.5s39.167 -10.5 52.5 -16.5v-68c-14.667 9.33301 -33.334 17.333 -56.001 24s-47.334 10 -74.001 10
c-55.333 0 -98 -16.5 -128 -49.5s-45 -85.5 -45 -157.5c0 -76.667 15.5 -132 46.5 -166s76.5 -51 136.5 -51c24 0 48 3.83301 72 11.5s43.333 17.167 58 28.5v-68c-13.333 -8 -30.5 -15 -51.5 -21s-47.167 -9 -78.5 -9zM240.002 745h70l110 -130h-56l-89 90l-91 -90h-54z
" />
    <glyph glyph-name="Cdotaccent" unicode="&#x10a;" horiz-adv-x="575" 
d="M355 -10c-48.667 0 -91.6719 6.83301 -129.005 20.5s-68.666 35.167 -93.999 64.5s-44.5 67 -57.5 113s-19.5 101.667 -19.5 167c0 62 6.66699 115.333 20 160s32.5 81.5 57.5 110.5s55.833 50.333 92.5 64s78.334 20.5 125.001 20.5c25.333 0 47.833 -1.33301 67.5 -4
s36.834 -5.66699 51.501 -9c16.667 -3.33301 31.667 -7.33301 45 -12v-70c-19.333 11.333 -42.666 20 -69.999 26s-58.666 9 -93.999 9c-37.333 0 -70.166 -5.33301 -98.499 -16s-52.166 -27.834 -71.499 -51.501s-34 -54.167 -44 -91.5s-15 -82.666 -15 -135.999
c0 -55.333 5.16699 -102.166 15.5 -140.499s25.5 -69.833 45.5 -94.5s44.5 -42.5 73.5 -53.5s62.167 -16.5 99.5 -16.5s70.666 5.16699 99.999 15.5s52.666 20.166 69.999 29.499v-70c-14.667 -6.66699 -31 -12.667 -49 -18c-15.333 -4.66699 -33.5 -8.66699 -54.5 -12
s-43.167 -5 -66.5 -5zM329.995 796c-29.333 0 -44 14.667 -44 44s14.667 44 44 44s44 -14.667 44 -44s-14.667 -44 -44 -44z" />
    <glyph glyph-name="cdotaccent" unicode="&#x10b;" horiz-adv-x="475" 
d="M305 -10c-81.333 0 -142.498 21.833 -183.498 65.5s-61.5 113.5 -61.5 209.5c0 90.667 20.333 157.5 61 200.5s98.667 64.5 174 64.5c30 0 55.833 -2.5 77.5 -7.5s39.167 -10.5 52.5 -16.5v-68c-14.667 9.33301 -33.334 17.333 -56.001 24s-47.334 10 -74.001 10
c-55.333 0 -98 -16.5 -128 -49.5s-45 -85.5 -45 -157.5c0 -76.667 15.5 -132 46.5 -166s76.5 -51 136.5 -51c24 0 48 3.83301 72 11.5s43.333 17.167 58 28.5v-68c-13.333 -8 -30.5 -15 -51.5 -21s-47.167 -9 -78.5 -9zM275.002 638c-28 0 -42 14 -42 42s14 42 42 42
s42 -14 42 -42s-14 -42 -42 -42z" />
    <glyph glyph-name="Ccaron" unicode="&#x10c;" horiz-adv-x="575" 
d="M355 -10c-48.667 0 -91.6719 6.83301 -129.005 20.5s-68.666 35.167 -93.999 64.5s-44.5 67 -57.5 113s-19.5 101.667 -19.5 167c0 62 6.66699 115.333 20 160s32.5 81.5 57.5 110.5s55.833 50.333 92.5 64s78.334 20.5 125.001 20.5c25.333 0 47.833 -1.33301 67.5 -4
s36.834 -5.66699 51.501 -9c16.667 -3.33301 31.667 -7.33301 45 -12v-70c-19.333 11.333 -42.666 20 -69.999 26s-58.666 9 -93.999 9c-37.333 0 -70.166 -5.33301 -98.499 -16s-52.166 -27.834 -71.499 -51.501s-34 -54.167 -44 -91.5s-15 -82.666 -15 -135.999
c0 -55.333 5.16699 -102.166 15.5 -140.499s25.5 -69.833 45.5 -94.5s44.5 -42.5 73.5 -53.5s62.167 -16.5 99.5 -16.5s70.666 5.16699 99.999 15.5s52.666 20.166 69.999 29.499v-70c-14.667 -6.66699 -31 -12.667 -49 -18c-15.333 -4.66699 -33.5 -8.66699 -54.5 -12
s-43.167 -5 -66.5 -5zM179.995 905h58l93 -88l93 88h56l-113 -130h-74z" />
    <glyph glyph-name="ccaron" unicode="&#x10d;" horiz-adv-x="475" 
d="M305 -10c-81.333 0 -142.498 21.833 -183.498 65.5s-61.5 113.5 -61.5 209.5c0 90.667 20.333 157.5 61 200.5s98.667 64.5 174 64.5c30 0 55.833 -2.5 77.5 -7.5s39.167 -10.5 52.5 -16.5v-68c-14.667 9.33301 -33.334 17.333 -56.001 24s-47.334 10 -74.001 10
c-55.333 0 -98 -16.5 -128 -49.5s-45 -85.5 -45 -157.5c0 -76.667 15.5 -132 46.5 -166s76.5 -51 136.5 -51c24 0 48 3.83301 72 11.5s43.333 17.167 58 28.5v-68c-13.333 -8 -30.5 -15 -51.5 -21s-47.167 -9 -78.5 -9zM130.002 745h56l89 -90l91 90h54l-110 -130h-70z" />
    <glyph glyph-name="Dcaron" unicode="&#x10e;" horiz-adv-x="680" 
d="M290 -5c-22.667 0 -44.6689 0.500977 -66.002 1.50098s-40.666 2.16699 -57.999 3.5c-20 1.33301 -38.667 3 -56 5v690c17.333 1.33301 36 3 56 5c17.333 1.33301 36.666 2.5 57.999 3.5s43.333 1.5 66 1.5c60.667 0 112.334 -6 155.001 -18s77.334 -31.667 104.001 -59
s46 -63 58 -107s18 -97.667 18 -161c0 -64.667 -6.66699 -120 -20 -166s-33.833 -83.833 -61.5 -113.5s-62.5 -51.334 -104.5 -65.001s-91.667 -20.5 -149 -20.5zM558.998 360.001c0 54.667 -4.49902 100.334 -13.499 137.001s-23.833 66 -44.5 88
s-48.334 37.5 -83.001 46.5s-77.334 13.5 -128.001 13.5c-17.333 0 -33.166 -0.333008 -47.499 -1s-26.5 -1.33398 -36.5 -2.00098c-12 -1.33301 -22.667 -2.33301 -32 -3v-578c9.33301 -1.33301 20 -2.33301 32 -3c20 -2 48 -3 84 -3c47.333 0 88 5.33301 122 16
s61.833 28 83.5 52s37.667 55.5 48 94.5s15.5 86.5 15.5 142.5zM179.999 905.001h58l93 -88l93 88h56l-113 -130h-74z" />
    <glyph glyph-name="dcaron" unicode="&#x10f;" horiz-adv-x="660" 
d="M640 750h60l-50 -170h-40zM440 95c-6 -14 -13.833 -27.499 -23.5 -40.499s-21.167 -24.167 -34.5 -33.5s-29.333 -16.833 -48 -22.5s-40 -8.5 -64 -8.5c-34 0 -64 4.83301 -90 14.5s-48 25.5 -66 47.5s-31.5 50.5 -40.5 85.5s-13.5 77.5 -13.5 127.5
c0 90.667 18 157.5 54 200.5s84.667 64.5 146 64.5c46.667 0 85.5 -9.33301 116.5 -28s52.167 -44.334 63.5 -77.001v325h60v-750h-54zM122 265.001c0 -40.667 3.33398 -74.835 10.001 -102.502s16.667 -50 30 -67s30 -29.167 50 -36.5s43 -11 69 -11
c48 0 86.5 15.333 115.5 46s43.5 74.667 43.5 132v75c0 24.667 -3.16699 47.334 -9.5 68.001s-16.333 38.667 -30 54s-30.834 27.333 -51.501 36s-45.334 13 -74.001 13c-51.333 0 -89.666 -15.667 -114.999 -47s-38 -84.666 -38 -159.999z" />
    <glyph glyph-name="Dcroat" unicode="&#x110;" horiz-adv-x="690" 
d="M20 382l99.998 0.000976562v313c17.333 1.33301 36 3 56 5c17.333 1.33301 36.666 2.5 57.999 3.5s43.333 1.5 66 1.5c60.667 0 112.334 -6 155.001 -18s77.334 -31.667 104.001 -59s46 -63 58 -107s18 -97.667 18 -161c0 -64.667 -6.66699 -120 -20 -166
s-33.833 -83.833 -61.5 -113.5s-62.5 -51.334 -104.5 -65.001s-91.667 -20.5 -149 -20.5c-22.667 0 -44.667 0.5 -66 1.5s-40.666 2.16699 -57.999 3.5c-20 1.33301 -38.667 3 -56 5v323h-100v54zM568.998 360.001c0 54.667 -4.49902 100.334 -13.499 137.001
s-23.833 66 -44.5 88s-48.334 37.5 -83.001 46.5s-77.334 13.5 -128.001 13.5c-17.333 0 -33.166 -0.333008 -47.499 -1s-26.5 -1.33398 -36.5 -2.00098c-12 -1.33301 -22.667 -2.33301 -32 -3v-257h186v-54h-186v-267c9.33301 -1.33301 20 -2.33301 32 -3
c20 -2 48 -3 84 -3c47.333 0 88 5.33301 122 16s61.833 28 83.5 52s37.667 55.5 48 94.5s15.5 86.5 15.5 142.5z" />
    <glyph glyph-name="dcroat" unicode="&#x111;" horiz-adv-x="590" 
d="M240 653l200 0.000976562v97h60v-97h100v-46h-100v-607h-54l-6 95c-6 -14 -13.833 -27.5 -23.5 -40.5s-21.167 -24.167 -34.5 -33.5s-29.333 -16.833 -48 -22.5s-40 -8.5 -64 -8.5c-34 0 -64 4.83301 -90 14.5s-48 25.5 -66 47.5s-31.5 50.5 -40.5 85.5
s-13.5 77.5 -13.5 127.5c0 90.667 18 157.5 54 200.5s84.667 64.5 146 64.5c46.667 0 85.5 -9.33301 116.5 -28s52.167 -44.334 63.5 -77.001v182h-200v46zM122 265.001c0 -40.667 3.33398 -74.835 10.001 -102.502s16.667 -50 30 -67s30 -29.167 50 -36.5s43 -11 69 -11
c48 0 86.5 15.333 115.5 46s43.5 74.667 43.5 132v75c0 24.667 -3.16699 47.334 -9.5 68.001s-16.333 38.667 -30 54s-30.834 27.333 -51.501 36s-45.334 13 -74.001 13c-51.333 0 -89.666 -15.667 -114.999 -47s-38 -84.666 -38 -159.999z" />
    <glyph glyph-name="Emacron" unicode="&#x112;" horiz-adv-x="575" 
d="M110 700h405v-58h-341v-253h301v-58h-301v-273h341v-58h-405v700zM182 857h260v-54h-260v54z" />
    <glyph glyph-name="emacron" unicode="&#x113;" horiz-adv-x="550" 
d="M300 -10c-79.333 0 -139.167 21.3301 -179.5 63.9971s-60.5 111.334 -60.5 206.001c0 92.667 19.667 160.834 59 204.501s93 65.5 161 65.5c34.667 0 65.167 -4.5 91.5 -13.5s48.333 -23.667 66 -44s30.834 -47 39.501 -80s13 -73.167 13 -120.5v-27h-370
c0.666992 -67.333 15.5 -117 44.5 -149s74.167 -48 135.5 -48c32.667 0 62.167 5.33301 88.5 16s48.5 23.667 66.5 39v-68c-13.333 -9.33301 -33.333 -19.166 -60 -29.499s-58.334 -15.5 -95.001 -15.5zM279.999 471.997c-50.667 0 -89.667 -13.834 -117 -41.501
s-41.666 -72.167 -42.999 -133.5h310c0 26.667 -2.33301 50.834 -7 72.501s-12.834 40.167 -24.501 55.5s-27.167 27 -46.5 35s-43.333 12 -72 12zM159.999 694.996h240v-50h-240v50z" />
    <glyph glyph-name="Edotaccent" unicode="&#x116;" horiz-adv-x="575" 
d="M110 700h405v-58h-341v-253h301v-58h-301v-273h341v-58h-405v700zM312 796c-29.333 0 -44 14.667 -44 44s14.667 44 44 44s44 -14.667 44 -44s-14.667 -44 -44 -44z" />
    <glyph glyph-name="edotaccent" unicode="&#x117;" horiz-adv-x="550" 
d="M300 -10c-79.333 0 -139.167 21.3301 -179.5 63.9971s-60.5 111.334 -60.5 206.001c0 92.667 19.667 160.834 59 204.501s93 65.5 161 65.5c34.667 0 65.167 -4.5 91.5 -13.5s48.333 -23.667 66 -44s30.834 -47 39.501 -80s13 -73.167 13 -120.5v-27h-370
c0.666992 -67.333 15.5 -117 44.5 -149s74.167 -48 135.5 -48c32.667 0 62.167 5.33301 88.5 16s48.5 23.667 66.5 39v-68c-13.333 -9.33301 -33.333 -19.166 -60 -29.499s-58.334 -15.5 -95.001 -15.5zM279.999 471.997c-50.667 0 -89.667 -13.834 -117 -41.501
s-41.666 -72.167 -42.999 -133.5h310c0 26.667 -2.33301 50.834 -7 72.501s-12.834 40.167 -24.501 55.5s-27.167 27 -46.5 35s-43.333 12 -72 12zM279.999 637.996c-28 0 -42 14 -42 42s14 42 42 42s42 -14 42 -42s-14 -42 -42 -42z" />
    <glyph glyph-name="Eogonek" unicode="&#x118;" horiz-adv-x="575" 
d="M110 700l404.999 -0.000976562v-58h-341v-253h301v-58h-301v-273h341v-58c-32.667 -19.333 -56.167 -38.666 -70.5 -57.999s-21.5 -36.666 -21.5 -51.999c0 -22.667 12.333 -34 37 -34c18 0 36.333 5.33301 55 16v-46c-9.33301 -5.33301 -19.666 -9.33301 -30.999 -12
s-24.333 -4 -39 -4c-53.333 0 -80 23.333 -80 70c0 20 7 40.167 21 60.5s36 40.166 66 59.499h-342v700z" />
    <glyph glyph-name="eogonek" unicode="&#x119;" horiz-adv-x="550" 
d="M300 -10c-79.333 0 -139.169 21.3301 -179.502 63.9971s-60.5 111.334 -60.5 206.001c0 92.667 19.667 160.834 59 204.501s93 65.5 161 65.5c34.667 0 65.167 -4.5 91.5 -13.5s48.333 -23.667 66 -44s30.834 -47 39.501 -80s13 -73.167 13 -120.5v-27h-370
c0.666992 -67.333 15.5 -117 44.5 -149s74.167 -48 135.5 -48c32.667 0 62.167 5.33301 88.5 16s48.5 23.667 66.5 39v-68l-7 -5c-40 -30 -68.667 -55.5 -86 -76.5s-26 -42.167 -26 -63.5c0 -11.333 3.33301 -20.166 10 -26.499s16.334 -9.5 29.001 -9.5
c18 0 36.333 5.33301 55 16v-44c-9.33301 -5.33301 -19.666 -9.33301 -30.999 -12s-24.333 -4 -39 -4c-53.333 0 -80 23.333 -80 70c0 21.333 6.16699 41.5 18.5 60.5s28.166 36.833 47.499 53.5c-7.33301 -1.33301 -14.833 -2.33301 -22.5 -3s-15.5 -1 -23.5 -1z
M279.997 471.997c-50.667 0 -89.667 -13.834 -117 -41.501s-41.666 -72.167 -42.999 -133.5h310c0 26.667 -2.33301 50.834 -7 72.501s-12.834 40.167 -24.501 55.5s-27.167 27 -46.5 35s-43.333 12 -72 12z" />
    <glyph glyph-name="Ecaron" unicode="&#x11a;" horiz-adv-x="575" 
d="M110 700h405v-58h-341v-253h301v-58h-301v-273h341v-58h-405v700zM162 905h58l93 -88l93 88h56l-113 -130h-74z" />
    <glyph glyph-name="ecaron" unicode="&#x11b;" horiz-adv-x="550" 
d="M300 -10c-79.333 0 -139.167 21.3301 -179.5 63.9971s-60.5 111.334 -60.5 206.001c0 92.667 19.667 160.834 59 204.501s93 65.5 161 65.5c34.667 0 65.167 -4.5 91.5 -13.5s48.333 -23.667 66 -44s30.834 -47 39.501 -80s13 -73.167 13 -120.5v-27h-370
c0.666992 -67.333 15.5 -117 44.5 -149s74.167 -48 135.5 -48c32.667 0 62.167 5.33301 88.5 16s48.5 23.667 66.5 39v-68c-13.333 -9.33301 -33.333 -19.166 -60 -29.499s-58.334 -15.5 -95.001 -15.5zM279.999 471.997c-50.667 0 -89.667 -13.834 -117 -41.501
s-41.666 -72.167 -42.999 -133.5h310c0 26.667 -2.33301 50.834 -7 72.501s-12.834 40.167 -24.501 55.5s-27.167 27 -46.5 35s-43.333 12 -72 12zM134.999 744.996h56l89 -90l91 90h54l-110 -130h-70z" />
    <glyph glyph-name="Gcircumflex" unicode="&#x11c;" horiz-adv-x="650" 
d="M380 -10c-54 0 -101.328 7.00098 -141.995 21.001s-74.5 35.667 -101.5 65s-47.333 67.166 -61 113.499s-20.5 101.5 -20.5 165.5c0 120.667 27.833 210 83.5 268s136.167 87 241.5 87c23.333 0 44.666 -1.33301 63.999 -4s35.666 -5.66699 48.999 -9
c16 -3.33301 30 -7.33301 42 -12v-70c-17.333 9.33301 -39.333 17.5 -66 24.5s-56.334 10.5 -89.001 10.5c-86 0 -150.667 -23.167 -194 -69.5s-65 -121.5 -65 -225.5c0 -55.333 5.16699 -102.333 15.5 -141s26.333 -70.167 48 -94.5s48.667 -42 81 -53
s70.5 -16.5 114.5 -16.5c23.333 0 46.666 1.66699 69.999 5s43.666 8.33301 60.999 15v216h-151v58h215v-314c-17.333 -8.66699 -43.333 -17.5 -78 -26.5s-73.667 -13.5 -117 -13.5zM323.005 905.001h74l113 -130h-58l-93 88l-93 -88h-56z" />
    <glyph glyph-name="gcircumflex" unicode="&#x11d;" horiz-adv-x="590" 
d="M280 -190c-42 0 -78.002 4.00195 -108.002 12.002s-54 17 -72 27v78c6.66699 -6.66699 15.834 -13.5 27.501 -20.5s25.167 -13.333 40.5 -19s32 -10.334 50 -14.001s37 -5.5 57 -5.5c58.667 0 100.834 12 126.501 36s38.5 61 38.5 111v90
c-6 -14 -13.833 -27.5 -23.5 -40.5s-21.167 -24.167 -34.5 -33.5s-29.333 -16.833 -48 -22.5s-40 -8.5 -64 -8.5c-34 0 -64 4.83301 -90 14.5s-48 25.334 -66 47.001s-31.5 49.5 -40.5 83.5s-13.5 75.667 -13.5 125c0 88.667 18 154.167 54 196.5s84.667 63.5 146 63.5
c46.667 0 85.5 -9.33301 116.5 -28s52.167 -44.334 63.5 -77.001l6 95h54v-500c0 -70.667 -17.833 -123.334 -53.5 -158.001s-91.167 -52 -166.5 -52zM280.998 58.002c24 0 45.668 4.16699 65.001 12.5s36 20.166 50 35.499s24.833 34 32.5 56s11.5 46.667 11.5 74v71
c0 22.667 -3.16699 44.167 -9.5 64.5s-16.333 37.833 -30 52.5s-30.834 26.334 -51.501 35.001s-45.334 13 -74.001 13c-51.333 0 -89.666 -15.5 -114.999 -46.5s-38 -82.833 -38 -155.5c0 -39.333 3.33301 -72.5 10 -99.5s16.667 -48.833 30 -65.5s30 -28.667 50 -36
s43 -11 69 -11zM244.999 745.002h70l110 -130h-56l-89 90l-91 -90h-54z" />
    <glyph glyph-name="Gbreve" unicode="&#x11e;" horiz-adv-x="650" 
d="M380 -10c-54 0 -101.328 7.00098 -141.995 21.001s-74.5 35.667 -101.5 65s-47.333 67.166 -61 113.499s-20.5 101.5 -20.5 165.5c0 120.667 27.833 210 83.5 268s136.167 87 241.5 87c23.333 0 44.666 -1.33301 63.999 -4s35.666 -5.66699 48.999 -9
c16 -3.33301 30 -7.33301 42 -12v-70c-17.333 9.33301 -39.333 17.5 -66 24.5s-56.334 10.5 -89.001 10.5c-86 0 -150.667 -23.167 -194 -69.5s-65 -121.5 -65 -225.5c0 -55.333 5.16699 -102.333 15.5 -141s26.333 -70.167 48 -94.5s48.667 -42 81 -53
s70.5 -16.5 114.5 -16.5c23.333 0 46.666 1.66699 69.999 5s43.666 8.33301 60.999 15v216h-151v58h215v-314c-17.333 -8.66699 -43.333 -17.5 -78 -26.5s-73.667 -13.5 -117 -13.5zM258.005 905.001c6.66699 -25.333 17.665 -44.666 32.998 -57.999s38.333 -20 69 -20
s54 6.66699 70 20s27.333 32.666 34 57.999l46 -13c-7.33301 -38 -24.166 -67 -50.499 -87s-59.5 -30 -99.5 -30s-73.167 10 -99.5 30s-43.166 49 -50.499 87z" />
    <glyph glyph-name="gbreve" unicode="&#x11f;" horiz-adv-x="590" 
d="M280 -190c-42 0 -78.002 4.00195 -108.002 12.002s-54 17 -72 27v78c6.66699 -6.66699 15.834 -13.5 27.501 -20.5s25.167 -13.333 40.5 -19s32 -10.334 50 -14.001s37 -5.5 57 -5.5c58.667 0 100.834 12 126.501 36s38.5 61 38.5 111v90
c-6 -14 -13.833 -27.5 -23.5 -40.5s-21.167 -24.167 -34.5 -33.5s-29.333 -16.833 -48 -22.5s-40 -8.5 -64 -8.5c-34 0 -64 4.83301 -90 14.5s-48 25.334 -66 47.001s-31.5 49.5 -40.5 83.5s-13.5 75.667 -13.5 125c0 88.667 18 154.167 54 196.5s84.667 63.5 146 63.5
c46.667 0 85.5 -9.33301 116.5 -28s52.167 -44.334 63.5 -77.001l6 95h54v-500c0 -70.667 -17.833 -123.334 -53.5 -158.001s-91.167 -52 -166.5 -52zM280.998 58.002c24 0 45.668 4.16699 65.001 12.5s36 20.166 50 35.499s24.833 34 32.5 56s11.5 46.667 11.5 74v71
c0 22.667 -3.16699 44.167 -9.5 64.5s-16.333 37.833 -30 52.5s-30.834 26.334 -51.501 35.001s-45.334 13 -74.001 13c-51.333 0 -89.666 -15.5 -114.999 -46.5s-38 -82.833 -38 -155.5c0 -39.333 3.33301 -72.5 10 -99.5s16.667 -48.833 30 -65.5s30 -28.667 50 -36
s43 -11 69 -11zM180.999 745.002c6.66699 -25.333 17.833 -45 33.5 -59s37.5 -21 65.5 -21s50.167 7 66.5 21s27.833 33.667 34.5 59l44 -13c-7.33301 -38 -23.833 -67 -49.5 -87s-57.5 -30 -95.5 -30c-37.333 0 -69 10.167 -95 30.5s-42.667 49.5 -50 87.5z" />
    <glyph glyph-name="Gdotaccent" unicode="&#x120;" horiz-adv-x="650" 
d="M380 -10c-54 0 -101.328 7.00098 -141.995 21.001s-74.5 35.667 -101.5 65s-47.333 67.166 -61 113.499s-20.5 101.5 -20.5 165.5c0 120.667 27.833 210 83.5 268s136.167 87 241.5 87c23.333 0 44.666 -1.33301 63.999 -4s35.666 -5.66699 48.999 -9
c16 -3.33301 30 -7.33301 42 -12v-70c-17.333 9.33301 -39.333 17.5 -66 24.5s-56.334 10.5 -89.001 10.5c-86 0 -150.667 -23.167 -194 -69.5s-65 -121.5 -65 -225.5c0 -55.333 5.16699 -102.333 15.5 -141s26.333 -70.167 48 -94.5s48.667 -42 81 -53
s70.5 -16.5 114.5 -16.5c23.333 0 46.666 1.66699 69.999 5s43.666 8.33301 60.999 15v216h-151v58h215v-314c-17.333 -8.66699 -43.333 -17.5 -78 -26.5s-73.667 -13.5 -117 -13.5zM360.005 796.001c-29.333 0 -44 14.667 -44 44s14.667 44 44 44s44 -14.667 44 -44
s-14.667 -44 -44 -44z" />
    <glyph glyph-name="gdotaccent" unicode="&#x121;" horiz-adv-x="590" 
d="M280 -190c-42 0 -78.002 4.00195 -108.002 12.002s-54 17 -72 27v78c6.66699 -6.66699 15.834 -13.5 27.501 -20.5s25.167 -13.333 40.5 -19s32 -10.334 50 -14.001s37 -5.5 57 -5.5c58.667 0 100.834 12 126.501 36s38.5 61 38.5 111v90
c-6 -14 -13.833 -27.5 -23.5 -40.5s-21.167 -24.167 -34.5 -33.5s-29.333 -16.833 -48 -22.5s-40 -8.5 -64 -8.5c-34 0 -64 4.83301 -90 14.5s-48 25.334 -66 47.001s-31.5 49.5 -40.5 83.5s-13.5 75.667 -13.5 125c0 88.667 18 154.167 54 196.5s84.667 63.5 146 63.5
c46.667 0 85.5 -9.33301 116.5 -28s52.167 -44.334 63.5 -77.001l6 95h54v-500c0 -70.667 -17.833 -123.334 -53.5 -158.001s-91.167 -52 -166.5 -52zM280.998 58.002c24 0 45.668 4.16699 65.001 12.5s36 20.166 50 35.499s24.833 34 32.5 56s11.5 46.667 11.5 74v71
c0 22.667 -3.16699 44.167 -9.5 64.5s-16.333 37.833 -30 52.5s-30.834 26.334 -51.501 35.001s-45.334 13 -74.001 13c-51.333 0 -89.666 -15.5 -114.999 -46.5s-38 -82.833 -38 -155.5c0 -39.333 3.33301 -72.5 10 -99.5s16.667 -48.833 30 -65.5s30 -28.667 50 -36
s43 -11 69 -11zM279.999 638.002c-28 0 -42 14 -42 42s14 42 42 42s42 -14 42 -42s-14 -42 -42 -42z" />
    <glyph glyph-name="Gcommaaccent" unicode="&#x122;" horiz-adv-x="650" 
d="M380 -10c-54 0 -101.328 7.00098 -141.995 21.001s-74.5 35.667 -101.5 65s-47.333 67.166 -61 113.499s-20.5 101.5 -20.5 165.5c0 120.667 27.833 210 83.5 268s136.167 87 241.5 87c23.333 0 44.666 -1.33301 63.999 -4s35.666 -5.66699 48.999 -9
c16 -3.33301 30 -7.33301 42 -12v-70c-17.333 9.33301 -39.333 17.5 -66 24.5s-56.334 10.5 -89.001 10.5c-86 0 -150.667 -23.167 -194 -69.5s-65 -121.5 -65 -225.5c0 -55.333 5.16699 -102.333 15.5 -141s26.333 -70.167 48 -94.5s48.667 -42 81 -53
s70.5 -16.5 114.5 -16.5c23.333 0 46.666 1.66699 69.999 5s43.666 8.33301 60.999 15v216h-151v58h215v-314c-17.333 -8.66699 -43.333 -17.5 -78 -26.5s-73.667 -13.5 -117 -13.5zM303.005 -167.999c13.333 2 26.166 5.66504 38.499 10.998s19.5 13.666 21.5 24.999
c-23.333 0 -39.166 3.83301 -47.499 11.5s-12.5 17.834 -12.5 30.501c0 12 4.33301 21.667 13 29s23.334 11 44.001 11c19.333 0 33.666 -4.5 42.999 -13.5s14 -21.167 14 -36.5c0 -27.333 -8.5 -51.166 -25.5 -71.499s-43.167 -33.166 -78.5 -38.499z" />
    <glyph glyph-name="gcommaaccent" unicode="&#x123;" horiz-adv-x="590" 
d="M280 -190c-42 0 -78.002 4.00195 -108.002 12.002s-54 17 -72 27v78c6.66699 -6.66699 15.834 -13.5 27.501 -20.5s25.167 -13.333 40.5 -19s32 -10.334 50 -14.001s37 -5.5 57 -5.5c58.667 0 100.834 12 126.501 36s38.5 61 38.5 111v90
c-6 -14 -13.833 -27.5 -23.5 -40.5s-21.167 -24.167 -34.5 -33.5s-29.333 -16.833 -48 -22.5s-40 -8.5 -64 -8.5c-34 0 -64 4.83301 -90 14.5s-48 25.334 -66 47.001s-31.5 49.5 -40.5 83.5s-13.5 75.667 -13.5 125c0 88.667 18 154.167 54 196.5s84.667 63.5 146 63.5
c46.667 0 85.5 -9.33301 116.5 -28s52.167 -44.334 63.5 -77.001l6 95h54v-500c0 -70.667 -17.833 -123.334 -53.5 -158.001s-91.167 -52 -166.5 -52zM280.998 58.002c24 0 45.668 4.16699 65.001 12.5s36 20.166 50 35.499s24.833 34 32.5 56s11.5 46.667 11.5 74v71
c0 22.667 -3.16699 44.167 -9.5 64.5s-16.333 37.833 -30 52.5s-30.834 26.334 -51.501 35.001s-45.334 13 -74.001 13c-51.333 0 -89.666 -15.5 -114.999 -46.5s-38 -82.833 -38 -155.5c0 -39.333 3.33301 -72.5 10 -99.5s16.667 -48.833 30 -65.5s30 -28.667 50 -36
s43 -11 69 -11zM335.005 738.981c-16.665 -2.66699 -30.4961 -7 -41.4951 -12.999s-17.498 -14.6641 -19.498 -25.9961c22.6641 0 38.4951 -3.5 47.4941 -10.499s13.499 -16.8311 13.499 -29.4961c0 -11.999 -4.33301 -21.665 -12.999 -28.998
c-8.66504 -7.33203 -22.6631 -10.998 -41.9941 -10.998c-36.6621 0 -54.9932 18.3311 -54.9932 54.9932c0 10.665 1.83301 21.6641 5.5 32.9961c3.66602 11.332 9.49805 21.9971 17.4971 31.9961s18.3311 18.498 30.9961 25.4971s27.9961 11.832 45.9941 14.499z" />
    <glyph glyph-name="Hcircumflex" unicode="&#x124;" horiz-adv-x="720" 
d="M110 700h64v-311h372v311h64v-700h-64v331h-372v-331h-64v700zM323 905h74l113 -130h-58l-93 88l-93 -88h-56z" />
    <glyph glyph-name="hcircumflex" unicode="&#x125;" horiz-adv-x="585" 
d="M90 750l60 -0.00195312v-325c15.333 32 35.833 57.5 61.5 76.5s61.834 28.5 108.501 28.5c61.333 0 106.666 -15.5 135.999 -46.5s44 -82.167 44 -153.5v-330h-60v310c0 30.667 -2.5 56.334 -7.5 77.001s-13 37.334 -24 50.001s-25 21.667 -42 27s-37.5 8 -61.5 8
c-48 0 -85.833 -14 -113.5 -42s-41.5 -68 -41.5 -120v-310h-60v750zM86 904.998h70l110 -130h-56l-89 90l-91 -90h-54z" />
    <glyph glyph-name="Hbar" unicode="&#x126;" horiz-adv-x="740" 
d="M20 577h100v123h64v-123h372v123h64v-123h100v-54h-100v-523h-64v331h-372v-331h-64v523h-100v54zM556 389v134h-372v-134h372z" />
    <glyph glyph-name="hbar" unicode="&#x127;" horiz-adv-x="605" 
d="M10 656l100 -0.00195312v94h60v-94h200v-52h-200v-179c15.333 32 35.833 57.5 61.5 76.5s61.834 28.5 108.501 28.5c61.333 0 106.666 -15.5 135.999 -46.5s44 -82.167 44 -153.5v-330h-60v310c0 30.667 -2.5 56.334 -7.5 77.001s-13 37.334 -24 50.001
s-25 21.667 -42 27s-37.5 8 -61.5 8c-48 0 -85.833 -14 -113.5 -42s-41.5 -68 -41.5 -120v-310h-60v604h-100v52z" />
    <glyph glyph-name="Imacron" unicode="&#x12a;" horiz-adv-x="330" 
d="M133 700h64v-700h-64v700zM36 857h260v-54h-260v54z" />
    <glyph glyph-name="imacron" unicode="&#x12b;" horiz-adv-x="290" 
d="M115 520h60v-520h-60v520zM26 695h240v-50h-240v50z" />
    <glyph glyph-name="Iogonek" unicode="&#x12e;" horiz-adv-x="330" 
d="M127 -190c-53.333 0 -80.002 23.3301 -80.002 69.9971c0 20 6.83301 40 20.5 60s35.5 40.333 65.5 61v699h64v-700c-33.333 -19.333 -57.333 -38.666 -72 -57.999s-22 -36.666 -22 -51.999c0 -11.333 3.33301 -20.166 10 -26.499s16.334 -9.5 29.001 -9.5
c18 0 36.333 5.33301 55 16v-44c-9.33301 -5.33301 -19.666 -9.33301 -30.999 -12s-24.333 -4 -39 -4z" />
    <glyph glyph-name="iogonek" unicode="&#x12f;" horiz-adv-x="290" 
d="M105 -190c-53.333 0 -80.002 23.3311 -80.002 69.998c0 20 7 40.167 21 60.5s37 41.166 69 62.499v517h60v-520c-33.333 -19.333 -57.333 -38.666 -72 -57.999s-22 -36.666 -22 -51.999c0 -11.333 3.33301 -20.166 10 -26.499s16.334 -9.5 29.001 -9.5
c18 0 36.333 5.33301 55 16v-44c-9.33301 -5.33301 -19.666 -9.33301 -30.999 -12s-24.333 -4 -39 -4zM144.998 637.998c-28 0 -42 14 -42 42s14 42 42 42s42 -14 42 -42s-14 -42 -42 -42z" />
    <glyph glyph-name="Idotaccent" unicode="&#x130;" horiz-adv-x="330" 
d="M133 700h64v-700h-64v700zM165 796c-29.333 0 -44 14.667 -44 44s14.667 44 44 44s44 -14.667 44 -44s-14.667 -44 -44 -44z" />
    <glyph glyph-name="dotlessi" unicode="&#x131;" horiz-adv-x="290" 
d="M115 520h60v-520h-60v520z" />
    <glyph glyph-name="Jcircumflex" unicode="&#x134;" horiz-adv-x="420" 
d="M140 -10c-15.333 0 -29.167 1 -41.5 3s-22.833 4.33301 -31.5 7c-10.667 2.66699 -19.667 6 -27 10v70c7.33301 -6 16 -11 26 -15c8.66699 -4 19 -7.5 31 -10.5s26.333 -4.5 43 -4.5c32 0 56 8.66699 72 26s24 45.333 24 84v540h64v-540
c0 -58.667 -13.167 -101.667 -39.5 -129s-66.5 -41 -120.5 -41zM232.999 905h70l110 -130h-56l-89 90l-91 -90h-54z" />
    <glyph glyph-name="jcircumflex" unicode="&#x135;" horiz-adv-x="290" 
d="M46 -185c-32 0 -55.333 3.33203 -70 9.99902v68c8.66699 -5.33301 18.834 -10 30.501 -14s24.834 -6 39.501 -6c23.333 0 40.666 6.5 51.999 19.5s17 37.167 17 72.5v555h60v-555c0 -53.333 -10.833 -91.666 -32.5 -114.999s-53.834 -35 -96.501 -35zM111 744.999h70
l110 -130h-56l-89 90l-91 -90h-54z" />
    <glyph glyph-name="Kcommaaccent" unicode="&#x136;" horiz-adv-x="655" 
d="M254 331h-80v-331h-64v700h64v-311h80l269 311h82l-295 -339l315 -361h-84zM310 -168c13.333 2 26.166 5.66504 38.499 10.998s19.5 13.666 21.5 24.999c-23.333 0 -39.166 3.83301 -47.499 11.5s-12.5 17.834 -12.5 30.501c0 12 4.33301 21.667 13 29
s23.334 11 44.001 11c19.333 0 33.666 -4.5 42.999 -13.5s14 -21.167 14 -36.5c0 -27.333 -8.5 -51.166 -25.5 -71.499s-43.167 -33.166 -78.5 -38.499z" />
    <glyph glyph-name="kcommaaccent" unicode="&#x137;" horiz-adv-x="555" 
d="M90 750h60v-452h70l192 222h76l-217 -249l239 -271h-78l-212 242h-70v-242h-60v750zM245 -169c16.667 2.66699 30.5 7 41.5 13s17.5 14.667 19.5 26c-22.667 0 -38.5 3.5 -47.5 10.5s-13.5 16.833 -13.5 29.5c0 12 4.33301 21.667 13 29s22.667 11 42 11
c36.667 0 55 -18.333 55 -55c0 -10.667 -1.83301 -21.667 -5.5 -33s-9.5 -22 -17.5 -32s-18.333 -18.5 -31 -25.5s-28 -11.833 -46 -14.5z" />
    <glyph glyph-name="Lacute" unicode="&#x139;" horiz-adv-x="530" 
d="M110 700h64v-642h321v-58h-385v700zM196 905h84l-116 -130h-54z" />
    <glyph glyph-name="lacute" unicode="&#x13a;" horiz-adv-x="315" 
d="M205 -5c-41.333 0 -71.668 10.001 -91.001 30.001s-29 50 -29 90v635h60v-625c0 -28.667 5 -47.834 15 -57.501s26.667 -14.5 50 -14.5c12.667 0 24.834 1.66699 36.501 5s21.167 6.66602 28.5 9.99902v-58c-7.33301 -3.33301 -17 -6.66602 -29 -9.99902
s-25.667 -5 -41 -5zM166.998 905.001h82l-108 -130h-52z" />
    <glyph glyph-name="Lcommaaccent" unicode="&#x13b;" horiz-adv-x="530" 
d="M110 700h64v-642h321v-58h-385v700zM245 -168c13.333 2 26.166 5.66504 38.499 10.998s19.5 13.666 21.5 24.999c-23.333 0 -39.166 3.83301 -47.499 11.5s-12.5 17.834 -12.5 30.501c0 12 4.33301 21.667 13 29s23.334 11 44.001 11c19.333 0 33.666 -4.5 42.999 -13.5
s14 -21.167 14 -36.5c0 -27.333 -8.5 -51.166 -25.5 -71.499s-43.167 -33.166 -78.5 -38.499z" />
    <glyph glyph-name="lcommaaccent" unicode="&#x13c;" horiz-adv-x="315" 
d="M205 -5c-41.333 0 -71.668 10.001 -91.001 30.001s-29 50 -29 90v635h60v-625c0 -28.667 5 -47.834 15 -57.501s26.667 -14.5 50 -14.5c12.667 0 24.834 1.66699 36.501 5s21.167 6.66602 28.5 9.99902v-58c-7.33301 -3.33301 -17 -6.66602 -29 -9.99902
s-25.667 -5 -41 -5zM129.998 -168.999c16.667 2.66699 30.5 7 41.5 13s17.5 14.667 19.5 26c-22.667 0 -38.5 3.5 -47.5 10.5s-13.5 16.833 -13.5 29.5c0 12 4.33301 21.667 13 29s22.667 11 42 11c36.667 0 55 -18.333 55 -55c0 -10.667 -1.83301 -21.667 -5.5 -33
s-9.5 -22 -17.5 -32s-18.333 -18.5 -31 -25.5s-28 -11.833 -46 -14.5z" />
    <glyph glyph-name="Lcaron" unicode="&#x13d;" horiz-adv-x="530" 
d="M371 700h64l-56 -180h-44zM110 700h64v-642h321v-58h-385v700z" />
    <glyph glyph-name="lcaron" unicode="&#x13e;" horiz-adv-x="375" 
d="M295 750h60l-60 -170h-40zM205 -5c-41.333 0 -71.668 10.001 -91.001 30.001s-29 50 -29 90v635h60v-625c0 -28.667 5 -47.834 15 -57.501s26.667 -14.5 50 -14.5c12.667 0 24.834 1.66699 36.501 5s21.167 6.66602 28.5 9.99902v-58
c-7.33301 -3.33301 -17 -6.66602 -29 -9.99902s-25.667 -5 -41 -5z" />
    <glyph glyph-name="Ldot" unicode="&#x13f;" horiz-adv-x="530" 
d="M110 700h64v-642h321v-58h-385v700zM407 330c-33.333 0 -50 16.667 -50 50s16.667 50 50 50s50 -16.667 50 -50s-16.667 -50 -50 -50z" />
    <glyph glyph-name="ldot" unicode="&#x140;" horiz-adv-x="415" 
d="M205 -5c-41.333 0 -71.668 10.001 -91.001 30.001s-29 50 -29 90v635h60v-625c0 -28.667 5 -47.834 15 -57.501s26.667 -14.5 50 -14.5c12.667 0 24.834 1.66699 36.501 5s21.167 6.66602 28.5 9.99902v-58c-7.33301 -3.33301 -17 -6.66602 -29 -9.99902
s-25.667 -5 -41 -5zM316.998 330.001c-33.333 0 -50 16.667 -50 50s16.667 50 50 50s50 -16.667 50 -50s-16.667 -50 -50 -50z" />
    <glyph glyph-name="Lslash" unicode="&#x141;" horiz-adv-x="540" 
d="M20 342l100 58v300h64v-263l160 93v-64l-160 -93v-315h321v-58h-385v336l-100 -58v64z" />
    <glyph glyph-name="lslash" unicode="&#x142;" horiz-adv-x="370" 
d="M20 374l99.998 58.001v318h60v-284l110 64v-62l-110 -64v-279c0 -28.667 5 -47.834 15 -57.501s26.667 -14.5 50 -14.5c12.667 0 24.834 1.66699 36.501 5s21.167 6.66602 28.5 9.99902v-58c-7.33301 -3.33301 -17 -6.66602 -29 -9.99902s-25.667 -5 -41 -5
c-41.333 0 -71.666 10 -90.999 30s-29 50 -29 90v255l-100 -58v62z" />
    <glyph glyph-name="Nacute" unicode="&#x143;" horiz-adv-x="740" 
d="M110 700l66.001 0.000976562l331 -500l23 -37l19 -32l18 -31h2c-0.666992 9.33301 -1.33398 19.666 -2.00098 30.999c-0.666992 9.33301 -1 20 -1 32v37v500h64v-700h-66l-331 500c-20 30 -35 54 -45 72c-6 10 -11 19.333 -15 28h-2c0 -8.66699 0.333008 -18 1 -28
c0.666992 -9.33301 1.16699 -19.833 1.5 -31.5s0.5 -25.167 0.5 -40.5v-500h-64v700zM424.001 905.001h84l-116 -130h-54z" />
    <glyph glyph-name="nacute" unicode="&#x144;" horiz-adv-x="585" 
d="M90 520l54 -0.000976562l6 -95c15.333 31.333 35.833 56.666 61.5 75.999s61.834 29 108.501 29c61.333 0 106.666 -15.5 135.999 -46.5s44 -82.167 44 -153.5v-330h-60v310c0 30.667 -2.5 56.334 -7.5 77.001s-13 37.334 -24 50.001s-25 21.667 -42 27s-37.5 8 -61.5 8
c-48 0 -85.833 -14 -113.5 -42s-41.5 -68 -41.5 -120v-310h-60v520zM342 744.999h82l-108 -130h-52z" />
    <glyph glyph-name="Ncommaaccent" unicode="&#x145;" horiz-adv-x="740" 
d="M110 700l66.001 0.000976562l331 -500l23 -37l19 -32l18 -31h2c-0.666992 9.33301 -1.33398 19.666 -2.00098 30.999c-0.666992 9.33301 -1 20 -1 32v37v500h64v-700h-66l-331 500c-20 30 -35 54 -45 72c-6 10 -11 19.333 -15 28h-2c0 -8.66699 0.333008 -18 1 -28
c0.666992 -9.33301 1.16699 -19.833 1.5 -31.5s0.5 -25.167 0.5 -40.5v-500h-64v700zM313.001 -167.999c13.333 2 26.166 5.66504 38.499 10.998s19.5 13.666 21.5 24.999c-23.333 0 -39.166 3.83301 -47.499 11.5s-12.5 17.834 -12.5 30.501c0 12 4.33301 21.667 13 29
s23.334 11 44.001 11c19.333 0 33.666 -4.5 42.999 -13.5s14 -21.167 14 -36.5c0 -27.333 -8.5 -51.166 -25.5 -71.499s-43.167 -33.166 -78.5 -38.499z" />
    <glyph glyph-name="ncommaaccent" unicode="&#x146;" horiz-adv-x="585" 
d="M90 520l54 -0.000976562l6 -95c15.333 31.333 35.833 56.666 61.5 75.999s61.834 29 108.501 29c61.333 0 106.666 -15.5 135.999 -46.5s44 -82.167 44 -153.5v-330h-60v310c0 30.667 -2.5 56.334 -7.5 77.001s-13 37.334 -24 50.001s-25 21.667 -42 27s-37.5 8 -61.5 8
c-48 0 -85.833 -14 -113.5 -42s-41.5 -68 -41.5 -120v-310h-60v520zM240 -169.001c16.667 2.66699 30.5 7 41.5 13s17.5 14.667 19.5 26c-22.667 0 -38.5 3.5 -47.5 10.5s-13.5 16.833 -13.5 29.5c0 12 4.33301 21.667 13 29s22.667 11 42 11c36.667 0 55 -18.333 55 -55
c0 -10.667 -1.83301 -21.667 -5.5 -33s-9.5 -22 -17.5 -32s-18.333 -18.5 -31 -25.5s-28 -11.833 -46 -14.5z" />
    <glyph glyph-name="Ncaron" unicode="&#x147;" horiz-adv-x="740" 
d="M110 700l66.001 0.000976562l331 -500l23 -37l19 -32l18 -31h2c-0.666992 9.33301 -1.33398 19.666 -2.00098 30.999c-0.666992 9.33301 -1 20 -1 32v37v500h64v-700h-66l-331 500c-20 30 -35 54 -45 72c-6 10 -11 19.333 -15 28h-2c0 -8.66699 0.333008 -18 1 -28
c0.666992 -9.33301 1.16699 -19.833 1.5 -31.5s0.5 -25.167 0.5 -40.5v-500h-64v700zM220.001 905.001h58l93 -88l93 88h56l-113 -130h-74z" />
    <glyph glyph-name="ncaron" unicode="&#x148;" horiz-adv-x="585" 
d="M90 520l54 -0.000976562l6 -95c15.333 31.333 35.833 56.666 61.5 75.999s61.834 29 108.501 29c61.333 0 106.666 -15.5 135.999 -46.5s44 -82.167 44 -153.5v-330h-60v310c0 30.667 -2.5 56.334 -7.5 77.001s-13 37.334 -24 50.001s-25 21.667 -42 27s-37.5 8 -61.5 8
c-48 0 -85.833 -14 -113.5 -42s-41.5 -68 -41.5 -120v-310h-60v520zM150 744.999h56l89 -90l91 90h54l-110 -130h-70z" />
    <glyph glyph-name="Omacron" unicode="&#x14c;" horiz-adv-x="710" 
d="M355 -10c-47.333 0 -89.665 7.00098 -126.998 21.001s-68.833 35.667 -94.5 65s-45.167 66.666 -58.5 111.999s-20 99.333 -20 162c0 126 26 217.5 78 274.5s126 85.5 222 85.5c49.333 0 92.666 -6.66699 129.999 -20s68.666 -34.5 93.999 -63.5s44.333 -66.333 57 -112
s19 -100.5 19 -164.5c0 -126 -26 -217.5 -78 -274.5s-126 -85.5 -222 -85.5zM355.001 50.001c38 0 71.5 5.5 100.5 16.5s53.333 28.5 73 52.5s34.667 55 45 93s15.5 84 15.5 138c0 54.667 -5 101 -15 139s-25 69 -45 93s-44.5 41.333 -73.5 52s-62.5 16 -100.5 16
c-37.333 0 -70.5 -5.5 -99.5 -16.5s-53.5 -28.5 -73.5 -52.5s-35.167 -55 -45.5 -93s-15.5 -84 -15.5 -138c0 -53.333 5.33301 -99 16 -137s26 -69 46 -93s44.5 -41.667 73.5 -53s61.833 -17 98.5 -17zM225.001 857.001h260v-54h-260v54z" />
    <glyph glyph-name="omacron" unicode="&#x14d;" horiz-adv-x="570" 
d="M285 -10c-72.667 0 -128.336 21.334 -167.003 64.001s-58 111.334 -58 206.001c0 91.333 20.333 159.166 61 203.499s95.334 66.5 164.001 66.5c36.667 0 69.167 -5 97.5 -15s51.833 -25.833 70.5 -47.5s32.834 -49.667 42.501 -84s14.5 -75.5 14.5 -123.5
c0 -94.667 -19.667 -163.334 -59 -206.001s-94.666 -64 -165.999 -64zM284.998 472.001c-52 0 -92.167 -16.167 -120.5 -48.5s-42.5 -86.833 -42.5 -163.5c0 -39.333 3.33301 -72.5 10 -99.5s16.834 -48.833 30.501 -65.5s30.667 -28.667 51 -36s44.166 -11 71.499 -11
s51.166 3.66699 71.499 11s37.333 19.333 51 36s23.834 38.5 30.501 65.5s10 60.167 10 99.5s-3.33301 72.5 -10 99.5s-16.834 48.833 -30.501 65.5s-30.667 28.667 -51 36s-44.166 11 -71.499 11zM164.998 695.001h240v-50h-240v50z" />
    <glyph glyph-name="Ohungarumlaut" unicode="&#x150;" horiz-adv-x="710" 
d="M355 -10c-47.333 0 -89.665 7.00098 -126.998 21.001s-68.833 35.667 -94.5 65s-45.167 66.666 -58.5 111.999s-20 99.333 -20 162c0 126 26 217.5 78 274.5s126 85.5 222 85.5c49.333 0 92.666 -6.66699 129.999 -20s68.666 -34.5 93.999 -63.5s44.333 -66.333 57 -112
s19 -100.5 19 -164.5c0 -126 -26 -217.5 -78 -274.5s-126 -85.5 -222 -85.5zM355.001 50.001c38 0 71.5 5.5 100.5 16.5s53.333 28.5 73 52.5s34.667 55 45 93s15.5 84 15.5 138c0 54.667 -5 101 -15 139s-25 69 -45 93s-44.5 41.333 -73.5 52s-62.5 16 -100.5 16
c-37.333 0 -70.5 -5.5 -99.5 -16.5s-53.5 -28.5 -73.5 -52.5s-35.167 -55 -45.5 -93s-15.5 -84 -15.5 -138c0 -53.333 5.33301 -99 16 -137s26 -69 46 -93s44.5 -41.667 73.5 -53s61.833 -17 98.5 -17zM318.001 905.001h76l-90 -130h-46zM490.001 905.001h88l-136 -130h-52z
" />
    <glyph glyph-name="ohungarumlaut" unicode="&#x151;" horiz-adv-x="570" 
d="M285 -10c-72.667 0 -128.336 21.334 -167.003 64.001s-58 111.334 -58 206.001c0 91.333 20.333 159.166 61 203.499s95.334 66.5 164.001 66.5c36.667 0 69.167 -5 97.5 -15s51.833 -25.833 70.5 -47.5s32.834 -49.667 42.501 -84s14.5 -75.5 14.5 -123.5
c0 -94.667 -19.667 -163.334 -59 -206.001s-94.666 -64 -165.999 -64zM284.998 472.001c-52 0 -92.167 -16.167 -120.5 -48.5s-42.5 -86.833 -42.5 -163.5c0 -39.333 3.33301 -72.5 10 -99.5s16.834 -48.833 30.501 -65.5s30.667 -28.667 51 -36s44.166 -11 71.499 -11
s51.166 3.66699 71.499 11s37.333 19.333 51 36s23.834 38.5 30.501 65.5s10 60.167 10 99.5s-3.33301 72.5 -10 99.5s-16.834 48.833 -30.501 65.5s-30.667 28.667 -51 36s-44.166 11 -71.499 11zM242.998 745.001h76l-80 -130h-46zM404.998 745.001h88l-126 -130h-52z" />
    <glyph glyph-name="OE" unicode="&#x152;" horiz-adv-x="935" 
d="M355 -10c-48.667 0 -91.666 6.83301 -128.999 20.5s-68.666 35.167 -93.999 64.5s-44.5 67 -57.5 113s-19.5 101.667 -19.5 167c0 123.333 26 213.333 78 270s126 85 222 85c26.667 0 50.667 -1.16699 72 -3.5s38.666 -4.5 51.999 -6.5h396v-58h-341v-253h301v-58h-301
v-273h341v-58h-389c-14.667 -2 -33.334 -4.16699 -56.001 -6.5s-47.667 -3.5 -75 -3.5zM355.001 50c22 0 42.833 0.832031 62.5 2.49902s37.167 3.5 52.5 5.5v583c-13.333 2 -29.833 4 -49.5 6s-41.5 3 -65.5 3c-38 0 -71.667 -5.33301 -101 -16
s-53.833 -27.834 -73.5 -51.501s-34.5 -54.167 -44.5 -91.5s-15 -82.666 -15 -135.999c0 -55.333 5.16699 -102.166 15.5 -140.499s25.5 -69.833 45.5 -94.5s44.5 -42.5 73.5 -53.5s62.167 -16.5 99.5 -16.5z" />
    <glyph glyph-name="oe" unicode="&#x153;" horiz-adv-x="920" 
d="M675 -10c-50.667 0 -93.1699 9.49805 -127.503 28.498s-60.166 49.167 -77.499 90.5c-17.333 -41.333 -42 -71.5 -74 -90.5s-70.667 -28.5 -116 -28.5c-70 0 -124.167 21.333 -162.5 64s-57.5 111.334 -57.5 206.001c0 90.667 20.167 158.334 60.5 203.001
s93.5 67 159.5 67c46.667 0 86.167 -9.16699 118.5 -27.5s56.5 -48.5 72.5 -90.5c17.333 40 41.833 69.667 73.5 89s68.5 29 110.5 29c34 0 63.667 -4.5 89 -13.5s46.666 -23.667 63.999 -44s30.333 -47 39 -80s13 -73.167 13 -120.5v-27h-360
c0.666992 -67.333 15.334 -117 44.001 -149s72.334 -48 131.001 -48c30 0 58 5.33301 84 16s48 23.667 66 39v-68c-13.333 -10 -33.166 -20 -59.499 -30s-56.5 -15 -90.5 -15zM279.997 471.998c-49.333 0 -88 -16.167 -116 -48.5s-42 -86.833 -42 -163.5
c0 -39.333 3.33301 -72.5 10 -99.5s16.667 -48.833 30 -65.5s29.833 -28.667 49.5 -36s42.5 -11 68.5 -11s48.833 3.66699 68.5 11s36.167 19.333 49.5 36s23.333 38.5 30 65.5s10 60.167 10 99.5s-3.33301 72.5 -10 99.5s-16.667 48.833 -30 65.5s-29.833 28.667 -49.5 36
s-42.5 11 -68.5 11zM654.997 471.998c-48 0 -85.501 -13.834 -112.501 -41.501s-41.167 -72.167 -42.5 -133.5h300c0 26.667 -2.33301 50.834 -7 72.501s-12.667 40.167 -24 55.5s-26.166 27 -44.499 35s-41.5 12 -69.5 12z" />
    <glyph glyph-name="Racute" unicode="&#x154;" horiz-adv-x="640" 
d="M340 289c-17.333 -2 -35.667 -3.00195 -55 -3.00195h-111v-286h-64v695c16 1.33301 33.333 3 52 5c16 1.33301 34.5 2.5 55.5 3.5s43.5 1.5 67.5 1.5c45.333 0 83.833 -4.33301 115.5 -13s57.5 -21.667 77.5 -39s34.5 -39.166 43.5 -65.499s13.5 -57.166 13.5 -92.499
c0 -48 -10.5 -88.333 -31.5 -121s-53.833 -56.667 -98.5 -72l175 -302h-74zM468.999 494.998c0 26.667 -3 49.5 -9 68.5s-16 34.5 -30 46.5s-32.833 20.833 -56.5 26.5s-53.167 8.5 -88.5 8.5c-14 0 -27.5 -0.166992 -40.5 -0.5s-24.833 -0.833008 -35.5 -1.5
c-12 -0.666992 -23.667 -1 -35 -1v-298h111c66 0 113.167 12.833 141.5 38.5s42.5 63.167 42.5 112.5zM353.999 904.998h84l-116 -130h-54z" />
    <glyph glyph-name="racute" unicode="&#x155;" horiz-adv-x="410" 
d="M90 520l48.999 0.00195312l6 -95c13.333 38 32.833 65 58.5 81s56.5 24 92.5 24c10 0 20 -0.666992 30 -2s18 -3.33301 24 -6v-68c-9.33301 5.33301 -19.666 9.66602 -30.999 12.999s-25.333 5 -42 5c-39.333 0 -70.333 -12.833 -93 -38.5s-34 -66.834 -34 -123.501v-310
h-60v520zM266.999 745.002h82l-108 -130h-52z" />
    <glyph glyph-name="Rcommaaccent" unicode="&#x156;" horiz-adv-x="640" 
d="M340 289c-17.333 -2 -35.667 -3.00195 -55 -3.00195h-111v-286h-64v695c16 1.33301 33.333 3 52 5c16 1.33301 34.5 2.5 55.5 3.5s43.5 1.5 67.5 1.5c45.333 0 83.833 -4.33301 115.5 -13s57.5 -21.667 77.5 -39s34.5 -39.166 43.5 -65.499s13.5 -57.166 13.5 -92.499
c0 -48 -10.5 -88.333 -31.5 -121s-53.833 -56.667 -98.5 -72l175 -302h-74zM468.999 494.998c0 26.667 -3 49.5 -9 68.5s-16 34.5 -30 46.5s-32.833 20.833 -56.5 26.5s-53.167 8.5 -88.5 8.5c-14 0 -27.5 -0.166992 -40.5 -0.5s-24.833 -0.833008 -35.5 -1.5
c-12 -0.666992 -23.667 -1 -35 -1v-298h111c66 0 113.167 12.833 141.5 38.5s42.5 63.167 42.5 112.5zM287.999 -168.002c13.333 2 26.166 5.66504 38.499 10.998s19.5 13.666 21.5 24.999c-23.333 0 -39.166 3.83301 -47.499 11.5s-12.5 17.834 -12.5 30.501
c0 12 4.33301 21.667 13 29s23.334 11 44.001 11c19.333 0 33.666 -4.5 42.999 -13.5s14 -21.167 14 -36.5c0 -27.333 -8.5 -51.166 -25.5 -71.499s-43.167 -33.166 -78.5 -38.499z" />
    <glyph glyph-name="rcommaaccent" unicode="&#x157;" horiz-adv-x="410" 
d="M90 520l48.999 0.00195312l6 -95c13.333 38 32.833 65 58.5 81s56.5 24 92.5 24c10 0 20 -0.666992 30 -2s18 -3.33301 24 -6v-68c-9.33301 5.33301 -19.666 9.66602 -30.999 12.999s-25.333 5 -42 5c-39.333 0 -70.333 -12.833 -93 -38.5s-34 -66.834 -34 -123.501v-310
h-60v520zM64.999 -168.998c16.667 2.66699 30.5 7 41.5 13s17.5 14.667 19.5 26c-22.667 0 -38.5 3.5 -47.5 10.5s-13.5 16.833 -13.5 29.5c0 12 4.33301 21.667 13 29s22.667 11 42 11c36.667 0 55 -18.333 55 -55c0 -10.667 -1.83301 -21.667 -5.5 -33s-9.5 -22 -17.5 -32
s-18.333 -18.5 -31 -25.5s-28 -11.833 -46 -14.5z" />
    <glyph glyph-name="Rcaron" unicode="&#x158;" horiz-adv-x="640" 
d="M340 289c-17.333 -2 -35.667 -3.00195 -55 -3.00195h-111v-286h-64v695c16 1.33301 33.333 3 52 5c16 1.33301 34.5 2.5 55.5 3.5s43.5 1.5 67.5 1.5c45.333 0 83.833 -4.33301 115.5 -13s57.5 -21.667 77.5 -39s34.5 -39.166 43.5 -65.499s13.5 -57.166 13.5 -92.499
c0 -48 -10.5 -88.333 -31.5 -121s-53.833 -56.667 -98.5 -72l175 -302h-74zM468.999 494.998c0 26.667 -3 49.5 -9 68.5s-16 34.5 -30 46.5s-32.833 20.833 -56.5 26.5s-53.167 8.5 -88.5 8.5c-14 0 -27.5 -0.166992 -40.5 -0.5s-24.833 -0.833008 -35.5 -1.5
c-12 -0.666992 -23.667 -1 -35 -1v-298h111c66 0 113.167 12.833 141.5 38.5s42.5 63.167 42.5 112.5zM149.999 904.998h58l93 -88l93 88h56l-113 -130h-74z" />
    <glyph glyph-name="rcaron" unicode="&#x159;" horiz-adv-x="410" 
d="M90 520l48.999 0.00195312l6 -95c13.333 38 32.833 65 58.5 81s56.5 24 92.5 24c10 0 20 -0.666992 30 -2s18 -3.33301 24 -6v-68c-9.33301 5.33301 -19.666 9.66602 -30.999 12.999s-25.333 5 -42 5c-39.333 0 -70.333 -12.833 -93 -38.5s-34 -66.834 -34 -123.501v-310
h-60v520zM74.999 745.002h56l89 -90l91 90h54l-110 -130h-70z" />
    <glyph glyph-name="Sacute" unicode="&#x15a;" horiz-adv-x="580" 
d="M280 -10c-40.667 0 -78.5 5.50098 -113.5 16.501s-62.167 23.833 -81.5 38.5v80c22 -19.333 49.667 -36.666 83 -51.999s70.666 -23 111.999 -23c56.667 0 97.334 11.167 122.001 33.5s37 54.5 37 96.5c0 24.667 -5 45.334 -15 62.001s-23.167 30.667 -39.5 42
s-35 21 -56 29l-64 23.5c-21.667 7.66699 -43 16.167 -64 25.5s-39.667 21.333 -56 36s-29.5 32.5 -39.5 53.5s-15 47.167 -15 78.5c0 57.333 17.333 101.666 52 132.999s90.667 47 168 47c34.667 0 66.167 -3.5 94.5 -10.5s51.833 -15.167 70.5 -24.5v-80
c-18 16 -42 29.167 -72 39.5s-61 15.5 -93 15.5c-58 0 -98.167 -9.83301 -120.5 -29.5s-33.5 -49.834 -33.5 -90.501c0 -32.667 8.66699 -57.834 26 -75.501s38.833 -32 64.5 -43s53.667 -21 84 -30s58.333 -21 84 -36s47.167 -35.333 64.5 -61s26 -60.5 26 -104.5
c0 -60.667 -18 -107.5 -54 -140.5s-93 -49.5 -171 -49.5zM349 905.001h84l-116 -130h-54z" />
    <glyph glyph-name="sacute" unicode="&#x15b;" horiz-adv-x="475" 
d="M230 -10c-32.667 0 -60.833 2.66797 -84.5 8.00098s-45.5 12.666 -65.5 21.999v78c40.667 -33.333 90.667 -50 150 -50c40 0 68.833 7.83301 86.5 23.5s26.5 38.5 26.5 68.5c0 24 -6.66699 42.333 -20 55s-29.833 22.667 -49.5 30s-41.167 13.666 -64.5 18.999
s-44.833 13 -64.5 23s-36.167 24 -49.5 42s-20 43.333 -20 76c0 46 13.833 81.667 41.5 107s72.167 38 133.5 38c28 0 53.667 -2.66699 77 -8s41 -10.666 53 -15.999v-73c-17.333 12 -37 21.5 -59 28.5s-45.667 10.5 -71 10.5c-42 0 -71.333 -7.16699 -88 -21.5
s-25 -34.5 -25 -60.5c0 -23.333 6.66699 -40.833 20 -52.5s29.833 -20.834 49.5 -27.501s41.167 -12.667 64.5 -18s44.833 -13.166 64.5 -23.499s36.167 -25 49.5 -44s20 -45.5 20 -79.5c0 -52 -13.833 -90.833 -41.5 -116.5s-72.167 -38.5 -133.5 -38.5zM287.001 745.001
h82l-108 -130h-52z" />
    <glyph glyph-name="Scircumflex" unicode="&#x15c;" horiz-adv-x="580" 
d="M280 -10c-40.667 0 -78.5 5.50098 -113.5 16.501s-62.167 23.833 -81.5 38.5v80c22 -19.333 49.667 -36.666 83 -51.999s70.666 -23 111.999 -23c56.667 0 97.334 11.167 122.001 33.5s37 54.5 37 96.5c0 24.667 -5 45.334 -15 62.001s-23.167 30.667 -39.5 42
s-35 21 -56 29l-64 23.5c-21.667 7.66699 -43 16.167 -64 25.5s-39.667 21.333 -56 36s-29.5 32.5 -39.5 53.5s-15 47.167 -15 78.5c0 57.333 17.333 101.666 52 132.999s90.667 47 168 47c34.667 0 66.167 -3.5 94.5 -10.5s51.833 -15.167 70.5 -24.5v-80
c-18 16 -42 29.167 -72 39.5s-61 15.5 -93 15.5c-58 0 -98.167 -9.83301 -120.5 -29.5s-33.5 -49.834 -33.5 -90.501c0 -32.667 8.66699 -57.834 26 -75.501s38.833 -32 64.5 -43s53.667 -21 84 -30s58.333 -21 84 -36s47.167 -35.333 64.5 -61s26 -60.5 26 -104.5
c0 -60.667 -18 -107.5 -54 -140.5s-93 -49.5 -171 -49.5zM258 905.001h74l113 -130h-58l-93 88l-93 -88h-56z" />
    <glyph glyph-name="scircumflex" unicode="&#x15d;" horiz-adv-x="475" 
d="M230 -10c-32.667 0 -60.833 2.66797 -84.5 8.00098s-45.5 12.666 -65.5 21.999v78c40.667 -33.333 90.667 -50 150 -50c40 0 68.833 7.83301 86.5 23.5s26.5 38.5 26.5 68.5c0 24 -6.66699 42.333 -20 55s-29.833 22.667 -49.5 30s-41.167 13.666 -64.5 18.999
s-44.833 13 -64.5 23s-36.167 24 -49.5 42s-20 43.333 -20 76c0 46 13.833 81.667 41.5 107s72.167 38 133.5 38c28 0 53.667 -2.66699 77 -8s41 -10.666 53 -15.999v-73c-17.333 12 -37 21.5 -59 28.5s-45.667 10.5 -71 10.5c-42 0 -71.333 -7.16699 -88 -21.5
s-25 -34.5 -25 -60.5c0 -23.333 6.66699 -40.833 20 -52.5s29.833 -20.834 49.5 -27.501s41.167 -12.667 64.5 -18s44.833 -13.166 64.5 -23.499s36.167 -25 49.5 -44s20 -45.5 20 -79.5c0 -52 -13.833 -90.833 -41.5 -116.5s-72.167 -38.5 -133.5 -38.5zM205.001 745.001
h70l110 -130h-56l-89 90l-91 -90h-54z" />
    <glyph glyph-name="Scedilla" unicode="&#x15e;" horiz-adv-x="580" 
d="M300 -210c-15.333 0 -28.498 1.50195 -39.498 4.50195s-21.167 6.5 -30.5 10.5l6 42c10 -4.66699 19.333 -8 28 -10s19 -3 31 -3c17.333 0 30.166 3.83301 38.499 11.5s12.5 18.167 12.5 31.5s-4.5 23.833 -13.5 31.5s-23.167 11.5 -42.5 11.5
c-5.33301 0 -11 -0.166992 -17 -0.5s-10.667 -0.833008 -14 -1.5l14 72c-40 1.33301 -76.5 7.33301 -109.5 18s-59.167 23 -78.5 37v80c22 -19.333 49.667 -36.666 83 -51.999s70.666 -23 111.999 -23c56.667 0 97.334 11.167 122.001 33.5s37 54.5 37 96.5
c0 24.667 -5 45.334 -15 62.001s-23.167 30.667 -39.5 42s-35 21 -56 29l-64 23.5c-21.667 7.66699 -43 16.167 -64 25.5s-39.667 21.333 -56 36s-29.5 32.5 -39.5 53.5s-15 47.167 -15 78.5c0 57.333 17.333 101.666 52 132.999s90.667 47 168 47
c34.667 0 66.167 -3.5 94.5 -10.5s51.833 -15.167 70.5 -24.5v-80c-18 16 -42 29.167 -72 39.5s-61 15.5 -93 15.5c-58 0 -98.167 -9.83301 -120.5 -29.5s-33.5 -49.834 -33.5 -90.501c0 -32.667 8.66699 -57.834 26 -75.501s38.833 -32 64.5 -43s53.667 -21 84 -30
s58.333 -21 84 -36s47.167 -35.333 64.5 -61s26 -60.5 26 -104.5c0 -56 -15.333 -100.333 -46 -133s-79.334 -51.334 -146.001 -56.001l-8 -36c32.667 0 56.667 -7 72 -21s23 -33 23 -57c0 -26 -8.5 -47 -25.5 -63s-41.833 -24 -74.5 -24z" />
    <glyph glyph-name="scedilla" unicode="&#x15f;" horiz-adv-x="475" 
d="M245 -210c-15.333 0 -28.499 1.5 -39.499 4.5s-21.167 6.5 -30.5 10.5l6 42c10 -4.66699 19.333 -8 28 -10s19 -3 31 -3c17.333 0 30.166 3.83301 38.499 11.5s12.5 18.167 12.5 31.5s-4.5 23.833 -13.5 31.5s-23.167 11.5 -42.5 11.5c-5.33301 0 -11 -0.166992 -17 -0.5
s-10.667 -0.833008 -14 -1.5l14 72c-30 1.33301 -55.833 4.5 -77.5 9.5s-41.834 11.833 -60.501 20.5v78c40.667 -33.333 90.667 -50 150 -50c40 0 68.833 7.83301 86.5 23.5s26.5 38.5 26.5 68.5c0 24 -6.66699 42.333 -20 55s-29.833 22.667 -49.5 30
s-41.167 13.666 -64.5 18.999s-44.833 13 -64.5 23s-36.167 24 -49.5 42s-20 43.333 -20 76c0 46 13.833 81.667 41.5 107s72.167 38 133.5 38c28 0 53.667 -2.66699 77 -8s41 -10.666 53 -15.999v-73c-17.333 12 -37 21.5 -59 28.5s-45.667 10.5 -71 10.5
c-42 0 -71.333 -7.16699 -88 -21.5s-25 -34.5 -25 -60.5c0 -23.333 6.66699 -40.833 20 -52.5s29.833 -20.834 49.5 -27.501s41.167 -12.667 64.5 -18s44.833 -13.166 64.5 -23.499s36.167 -25 49.5 -44s20 -45.5 20 -79.5c0 -48 -11.667 -84.667 -35 -110
s-60.666 -40 -111.999 -44l-8 -36c32.667 0 56.667 -7 72 -21s23 -33 23 -57c0 -26 -8.5 -47 -25.5 -63s-41.833 -24 -74.5 -24z" />
    <glyph glyph-name="Scaron" unicode="&#x160;" horiz-adv-x="580" 
d="M280 -10c-40.667 0 -78.5 5.50098 -113.5 16.501s-62.167 23.833 -81.5 38.5v80c22 -19.333 49.667 -36.666 83 -51.999s70.666 -23 111.999 -23c56.667 0 97.334 11.167 122.001 33.5s37 54.5 37 96.5c0 24.667 -5 45.334 -15 62.001s-23.167 30.667 -39.5 42
s-35 21 -56 29l-64 23.5c-21.667 7.66699 -43 16.167 -64 25.5s-39.667 21.333 -56 36s-29.5 32.5 -39.5 53.5s-15 47.167 -15 78.5c0 57.333 17.333 101.666 52 132.999s90.667 47 168 47c34.667 0 66.167 -3.5 94.5 -10.5s51.833 -15.167 70.5 -24.5v-80
c-18 16 -42 29.167 -72 39.5s-61 15.5 -93 15.5c-58 0 -98.167 -9.83301 -120.5 -29.5s-33.5 -49.834 -33.5 -90.501c0 -32.667 8.66699 -57.834 26 -75.501s38.833 -32 64.5 -43s53.667 -21 84 -30s58.333 -21 84 -36s47.167 -35.333 64.5 -61s26 -60.5 26 -104.5
c0 -60.667 -18 -107.5 -54 -140.5s-93 -49.5 -171 -49.5zM145 905.001h58l93 -88l93 88h56l-113 -130h-74z" />
    <glyph glyph-name="scaron" unicode="&#x161;" horiz-adv-x="475" 
d="M230 -10c-32.667 0 -60.833 2.66797 -84.5 8.00098s-45.5 12.666 -65.5 21.999v78c40.667 -33.333 90.667 -50 150 -50c40 0 68.833 7.83301 86.5 23.5s26.5 38.5 26.5 68.5c0 24 -6.66699 42.333 -20 55s-29.833 22.667 -49.5 30s-41.167 13.666 -64.5 18.999
s-44.833 13 -64.5 23s-36.167 24 -49.5 42s-20 43.333 -20 76c0 46 13.833 81.667 41.5 107s72.167 38 133.5 38c28 0 53.667 -2.66699 77 -8s41 -10.666 53 -15.999v-73c-17.333 12 -37 21.5 -59 28.5s-45.667 10.5 -71 10.5c-42 0 -71.333 -7.16699 -88 -21.5
s-25 -34.5 -25 -60.5c0 -23.333 6.66699 -40.833 20 -52.5s29.833 -20.834 49.5 -27.501s41.167 -12.667 64.5 -18s44.833 -13.166 64.5 -23.499s36.167 -25 49.5 -44s20 -45.5 20 -79.5c0 -52 -13.833 -90.833 -41.5 -116.5s-72.167 -38.5 -133.5 -38.5zM95.001 745.001h56
l89 -90l91 90h54l-110 -130h-70z" />
    <glyph glyph-name="Tcedilla" unicode="&#x162;" horiz-adv-x="580" 
d="M258 642h-218.002v58h500v-58h-218v-642h-11l-10 -45c34.667 0 59.834 -7 75.501 -21s23.5 -33 23.5 -57c0 -26 -8.66699 -47 -26 -63s-43.666 -24 -78.999 -24c-15.333 0 -29.5 1.5 -42.5 4.5s-23.833 6.5 -32.5 10.5l6 44c19.333 -8.66699 40.666 -13 63.999 -13
c19.333 0 33.166 3.5 41.499 10.5s12.5 17.167 12.5 30.5s-4.33301 23.5 -13 30.5s-24 10.5 -46 10.5c-7.33301 0 -13.666 -0.166992 -18.999 -0.5s-9.66602 -0.833008 -12.999 -1.5l16 84h-11v642z" />
    <glyph glyph-name="tcedilla" unicode="&#x163;" horiz-adv-x="435" 
d="M260 -210c-15.333 0 -28.499 1.50098 -39.499 4.50098s-21.167 6.5 -30.5 10.5l6 42c10 -4.66699 19.333 -8 28 -10s19 -3 31 -3c17.333 0 30.166 3.83301 38.499 11.5s12.5 18.167 12.5 31.5s-4.5 23.833 -13.5 31.5s-23.167 11.5 -42.5 11.5
c-5.33301 0 -11 -0.166992 -17 -0.5s-10.667 -0.833008 -14 -1.5l16 81c-32.667 6.66699 -56.667 21.667 -72 45s-23 57 -23 101v319h-100v56h100v110l60 20v-130h180v-56h-180v-319c0 -34.667 6.16699 -58.667 18.5 -72s32.833 -20 61.5 -20
c23.333 0 42.833 3.16699 58.5 9.5s29.5 14.166 41.5 23.499v-68c-9.33301 -6.66699 -23 -12.167 -41 -16.5s-37.667 -6.5 -59 -6.5h-7l-8 -40c32.667 0 56.667 -7 72 -21s23 -33 23 -57c0 -26 -8.5 -47 -25.5 -63s-41.833 -24 -74.5 -24z" />
    <glyph glyph-name="Tcaron" unicode="&#x164;" horiz-adv-x="580" 
d="M258 642h-218v58h500v-58h-218v-642h-64v642zM140 905h58l93 -88l93 88h56l-113 -130h-74z" />
    <glyph glyph-name="tcaron" unicode="&#x165;" horiz-adv-x="435" 
d="M330 780h60l-60 -170h-40zM280 -5c-48 0 -83.333 11.833 -106 35.5s-34 61.834 -34 114.501v319h-100v56h100v110l60 20v-130h180v-56h-180v-319c0 -34.667 6.16699 -58.667 18.5 -72s32.833 -20 61.5 -20c23.333 0 42.833 3.16699 58.5 9.5s29.5 14.166 41.5 23.499v-68
c-9.33301 -6.66699 -23 -12.167 -41 -16.5s-37.667 -6.5 -59 -6.5z" />
    <glyph glyph-name="Umacron" unicode="&#x16a;" horiz-adv-x="670" 
d="M335 -10c-85.333 0 -148.332 21.334 -188.999 64.001s-61 113 -61 211v435h64v-435c0 -40.667 3.5 -74.667 10.5 -102s18 -49.333 33 -66s34.167 -28.667 57.5 -36s51.666 -11 84.999 -11c34 0 62.667 3.5 86 10.5s42.5 18.833 57.5 35.5s25.833 38.667 32.5 66
s10 61.666 10 102.999v435h64v-435c0 -98 -20.333 -168.333 -61 -211s-103.667 -64 -189 -64zM205.001 857.001h260v-54h-260v54z" />
    <glyph glyph-name="umacron" unicode="&#x16b;" horiz-adv-x="580" 
d="M490 0l-53.999 0.00390625l-6 95c-7.33301 -14.667 -16 -28.334 -26 -41.001s-21.833 -23.834 -35.5 -33.501s-29.334 -17.167 -47.001 -22.5s-38.167 -8 -61.5 -8c-58.667 0 -102.5 15.5 -131.5 46.5s-43.5 82.167 -43.5 153.5v330h60v-310
c0 -30.667 2.5 -56.334 7.5 -77.001s12.833 -37.334 23.5 -50.001s24.167 -21.667 40.5 -27s35.833 -8 58.5 -8c48 0 85.833 14 113.5 42s41.5 68 41.5 120v310h60v-520zM167.001 695.004h240v-50h-240v50z" />
    <glyph glyph-name="Ubreve" unicode="&#x16c;" horiz-adv-x="670" 
d="M335 -10c-85.333 0 -148.332 21.334 -188.999 64.001s-61 113 -61 211v435h64v-435c0 -40.667 3.5 -74.667 10.5 -102s18 -49.333 33 -66s34.167 -28.667 57.5 -36s51.666 -11 84.999 -11c34 0 62.667 3.5 86 10.5s42.5 18.833 57.5 35.5s25.833 38.667 32.5 66
s10 61.666 10 102.999v435h64v-435c0 -98 -20.333 -168.333 -61 -211s-103.667 -64 -189 -64zM233.001 905.001c6.66699 -25.333 17.665 -44.666 32.998 -57.999s38.333 -20 69 -20s54 6.66699 70 20s27.333 32.666 34 57.999l46 -13c-7.33301 -38 -24.166 -67 -50.499 -87
s-59.5 -30 -99.5 -30s-73.167 10 -99.5 30s-43.166 49 -50.499 87z" />
    <glyph glyph-name="ubreve" unicode="&#x16d;" horiz-adv-x="580" 
d="M490 0l-53.999 0.00390625l-6 95c-7.33301 -14.667 -16 -28.334 -26 -41.001s-21.833 -23.834 -35.5 -33.501s-29.334 -17.167 -47.001 -22.5s-38.167 -8 -61.5 -8c-58.667 0 -102.5 15.5 -131.5 46.5s-43.5 82.167 -43.5 153.5v330h60v-310
c0 -30.667 2.5 -56.334 7.5 -77.001s12.833 -37.334 23.5 -50.001s24.167 -21.667 40.5 -27s35.833 -8 58.5 -8c48 0 85.833 14 113.5 42s41.5 68 41.5 120v310h60v-520zM188.001 745.004c6.66699 -25.333 17.833 -45 33.5 -59s37.5 -21 65.5 -21s50.167 7 66.5 21
s27.833 33.667 34.5 59l44 -13c-7.33301 -38 -23.833 -67 -49.5 -87s-57.5 -30 -95.5 -30c-37.333 0 -69 10.167 -95 30.5s-42.667 49.5 -50 87.5z" />
    <glyph glyph-name="Uring" unicode="&#x16e;" horiz-adv-x="670" 
d="M335 -10c-85.333 0 -148.332 21.334 -188.999 64.001s-61 113 -61 211v435h64v-435c0 -40.667 3.5 -74.667 10.5 -102s18 -49.333 33 -66s34.167 -28.667 57.5 -36s51.666 -11 84.999 -11c34 0 62.667 3.5 86 10.5s42.5 18.833 57.5 35.5s25.833 38.667 32.5 66
s10 61.666 10 102.999v435h64v-435c0 -98 -20.333 -168.333 -61 -211s-103.667 -64 -189 -64zM243.001 840.001c0 26.667 8.66699 48.667 26 66s39.333 26 66 26s48.667 -8.66699 66 -26s26 -39.333 26 -66s-8.66699 -48.667 -26 -66s-39.333 -26 -66 -26
s-48.667 8.66699 -66 26s-26 39.333 -26 66zM283.001 840.001c0 -16 4.66699 -28.667 14 -38s22 -14 38 -14s28.667 4.66699 38 14s14 22 14 38s-4.66699 28.667 -14 38s-22 14 -38 14s-28.667 -4.66699 -38 -14s-14 -22 -14 -38z" />
    <glyph glyph-name="uring" unicode="&#x16f;" horiz-adv-x="580" 
d="M490 0l-53.999 0.00390625l-6 95c-7.33301 -14.667 -16 -28.334 -26 -41.001s-21.833 -23.834 -35.5 -33.501s-29.334 -17.167 -47.001 -22.5s-38.167 -8 -61.5 -8c-58.667 0 -102.5 15.5 -131.5 46.5s-43.5 82.167 -43.5 153.5v330h60v-310
c0 -30.667 2.5 -56.334 7.5 -77.001s12.833 -37.334 23.5 -50.001s24.167 -21.667 40.5 -27s35.833 -8 58.5 -8c48 0 85.833 14 113.5 42s41.5 68 41.5 120v310h60v-520zM197.001 680.004c0 26.667 8.33301 48.334 25 65.001s38.334 25 65.001 25
s48.334 -8.33301 65.001 -25s25 -38.334 25 -65.001s-8.33301 -48.334 -25 -65.001s-38.334 -25 -65.001 -25s-48.334 8.33301 -65.001 25s-25 38.334 -25 65.001zM237.001 680.004c0 -15.333 4.5 -27.5 13.5 -36.5s21.167 -13.5 36.5 -13.5s27.5 4.5 36.5 13.5
s13.5 21.167 13.5 36.5s-4.5 27.5 -13.5 36.5s-21.167 13.5 -36.5 13.5s-27.5 -4.5 -36.5 -13.5s-13.5 -21.167 -13.5 -36.5z" />
    <glyph glyph-name="Uhungarumlaut" unicode="&#x170;" horiz-adv-x="670" 
d="M335 -10c-85.333 0 -148.332 21.334 -188.999 64.001s-61 113 -61 211v435h64v-435c0 -40.667 3.5 -74.667 10.5 -102s18 -49.333 33 -66s34.167 -28.667 57.5 -36s51.666 -11 84.999 -11c34 0 62.667 3.5 86 10.5s42.5 18.833 57.5 35.5s25.833 38.667 32.5 66
s10 61.666 10 102.999v435h64v-435c0 -98 -20.333 -168.333 -61 -211s-103.667 -64 -189 -64zM298.001 905.001h76l-90 -130h-46zM470.001 905.001h88l-136 -130h-52z" />
    <glyph glyph-name="uhungarumlaut" unicode="&#x171;" horiz-adv-x="580" 
d="M490 0l-53.999 0.00390625l-6 95c-7.33301 -14.667 -16 -28.334 -26 -41.001s-21.833 -23.834 -35.5 -33.501s-29.334 -17.167 -47.001 -22.5s-38.167 -8 -61.5 -8c-58.667 0 -102.5 15.5 -131.5 46.5s-43.5 82.167 -43.5 153.5v330h60v-310
c0 -30.667 2.5 -56.334 7.5 -77.001s12.833 -37.334 23.5 -50.001s24.167 -21.667 40.5 -27s35.833 -8 58.5 -8c48 0 85.833 14 113.5 42s41.5 68 41.5 120v310h60v-520zM245.001 745.004h76l-80 -130h-46zM407.001 745.004h88l-126 -130h-52z" />
    <glyph glyph-name="Uogonek" unicode="&#x172;" horiz-adv-x="670" 
d="M335 -10c-85.333 0 -148.333 21.335 -189 64.002s-61 113 -61 211v435h64v-435c0 -40.667 3.5 -74.667 10.5 -102s18 -49.333 33 -66s34.167 -28.667 57.5 -36s51.666 -11 84.999 -11c34 0 62.667 3.5 86 10.5s42.5 18.833 57.5 35.5s25.833 38.667 32.5 66
s10 61.666 10 102.999v435h64v-435c0 -64.667 -8.5 -116.834 -25.5 -156.501s-43.5 -69.167 -79.5 -88.5c-16 -9.33301 -31 -19 -45 -29s-26.333 -20.167 -37 -30.5s-19.167 -21.333 -25.5 -33s-9.5 -24.167 -9.5 -37.5c0 -22.667 12.333 -34 37 -34
c18 0 36.333 5.33301 55 16v-46c-9.33301 -5.33301 -19.666 -9.33301 -30.999 -12s-24.333 -4 -39 -4c-53.333 0 -80 23.333 -80 70c0 41.333 25.333 79 76 113c-14 -2 -29.333 -3 -46 -3z" />
    <glyph glyph-name="uogonek" unicode="&#x173;" horiz-adv-x="580" 
d="M420 -190c-53.333 0 -80.001 23.334 -80.001 70.001c0 21.333 7.5 42.5 22.5 63.5s39.167 42.167 72.5 63.5l-5 88c-7.33301 -14.667 -16 -28.334 -26 -41.001s-21.833 -23.834 -35.5 -33.501s-29.334 -17.167 -47.001 -22.5s-38.167 -8 -61.5 -8
c-58.667 0 -102.5 15.5 -131.5 46.5s-43.5 82.167 -43.5 153.5v330h60v-310c0 -30.667 2.5 -56.334 7.5 -77.001s12.833 -37.334 23.5 -50.001s24.167 -21.667 40.5 -27s35.833 -8 58.5 -8c48 0 85.833 14 113.5 42s41.5 68 41.5 120v310h60v-520
c-33.333 -19.333 -57.333 -38.666 -72 -57.999s-22 -36.666 -22 -51.999c0 -11.333 3.33301 -20.166 10 -26.499s16.334 -9.5 29.001 -9.5c18 0 36.333 5.33301 55 16v-44c-9.33301 -5.33301 -19.666 -9.33301 -30.999 -12s-24.333 -4 -39 -4z" />
    <glyph glyph-name="Ydieresis" unicode="&#x178;" horiz-adv-x="610" 
d="M278 280l-253 420h72l214 -360l206 360h68l-243 -420v-280h-64v280zM209 796c-29.333 0 -44 14.667 -44 44s14.667 44 44 44s44 -14.667 44 -44s-14.667 -44 -44 -44zM401 796c-29.333 0 -44 14.667 -44 44s14.667 44 44 44s44 -14.667 44 -44s-14.667 -44 -44 -44z" />
    <glyph glyph-name="Zacute" unicode="&#x179;" horiz-adv-x="590" 
d="M55 48l390 594h-380v58h460v-48l-390 -594h400v-58h-480v48zM349 905h84l-116 -130h-54z" />
    <glyph glyph-name="zacute" unicode="&#x17a;" horiz-adv-x="490" 
d="M50 40l302 424h-292v56h370v-40l-302 -424h312v-56h-390v40zM292 745h82l-108 -130h-52z" />
    <glyph glyph-name="Zdotaccent" unicode="&#x17b;" horiz-adv-x="590" 
d="M55 48l390 594h-380v58h460v-48l-390 -594h400v-58h-480v48zM295 796c-29.333 0 -44 14.667 -44 44s14.667 44 44 44s44 -14.667 44 -44s-14.667 -44 -44 -44z" />
    <glyph glyph-name="zdotaccent" unicode="&#x17c;" horiz-adv-x="490" 
d="M50 40l302 424h-292v56h370v-40l-302 -424h312v-56h-390v40zM245 638c-28 0 -42 14 -42 42s14 42 42 42s42 -14 42 -42s-14 -42 -42 -42z" />
    <glyph glyph-name="Zcaron" unicode="&#x17d;" horiz-adv-x="590" 
d="M55 48l390 594h-380v58h460v-48l-390 -594h400v-58h-480v48zM145 905h58l93 -88l93 88h56l-113 -130h-74z" />
    <glyph glyph-name="zcaron" unicode="&#x17e;" horiz-adv-x="490" 
d="M50 40l302 424h-292v56h370v-40l-302 -424h312v-56h-390v40zM100 745h56l89 -90l91 90h54l-110 -130h-70z" />
    <glyph glyph-name="uni018F" unicode="&#x18f;" horiz-adv-x="690" 
d="M340 -10c-44.667 0 -84.667 6.66699 -120 20s-65.166 33.833 -89.499 61.5s-43 62.667 -56 105s-19.5 92.833 -19.5 151.5v44h512c0 34 -3.16699 67.667 -9.5 101s-19 63.333 -38 90s-45.5 48.167 -79.5 64.5s-78.667 24.5 -134 24.5c-34 0 -66.333 -2.5 -97 -7.5
s-58.667 -12.167 -84 -21.5v60c26 8 54.167 14.5 84.5 19.5s64.5 7.5 102.5 7.5c112.667 0 194.667 -30 246 -90s77 -149.333 77 -268c0 -46 -5 -90.667 -15 -134s-26.667 -82 -50 -116s-53.833 -61.167 -91.5 -81.5s-83.834 -30.5 -138.501 -30.5zM340 48
c30.667 0 59.501 5 86.501 15s50.667 25.833 71 47.5s36.666 49.167 48.999 82.5s19.166 73.333 20.499 120h-446c0 -91.333 17.833 -158.333 53.5 -201s90.834 -64 165.501 -64z" />
    <glyph glyph-name="florin" unicode="&#x192;" horiz-adv-x="600" 
d="M175 520l111.996 0.000976562l11 55c12.667 64.667 33.5 110.834 62.5 138.501s68.167 41.5 117.5 41.5c9.33301 0 18.333 -0.5 27 -1.5s18.667 -2.5 30 -4.5l-12 -57c-5.33301 1.33301 -11.666 2.83301 -18.999 4.5s-16.666 2.5 -27.999 2.5
c-17.333 0 -32.166 -2 -44.499 -6s-23 -10.833 -32 -20.5s-16.667 -22.334 -23 -38.001s-11.833 -35.5 -16.5 -59.5l-11 -55h140l-11 -54h-140l-93 -466c-5.33301 -28 -12 -53.5 -20 -76.5s-18.5 -42.5 -31.5 -58.5s-29.5 -28.333 -49.5 -37s-44.333 -13 -73 -13
c-13.333 0 -25.333 1.33301 -36 4l11 56c8.66699 -2.66699 18.334 -4 29.001 -4c26.667 0 49 9.66699 67 29s31.667 52.666 41 99.999l93 466h-112z" />
    <glyph glyph-name="uni01DD" unicode="&#x1dd;" horiz-adv-x="550" 
d="M270 -10c-35.333 0 -65.999 4.5 -91.999 13.5s-47.833 23.667 -65.5 44s-30.834 47 -39.501 80s-13 73.167 -13 120.5v27h370c-0.666992 67.333 -15.5 117 -44.5 149s-74.167 48 -135.5 48c-32.667 0 -62.167 -5.33301 -88.5 -16s-48.5 -23.667 -66.5 -39v68
c13.333 10 33.333 20 60 30s58.334 15 95.001 15c79.333 0 139.166 -21.333 179.499 -64s60.5 -111.334 60.5 -206.001c0 -93.333 -19.667 -161.666 -59 -204.999s-93 -65 -161 -65zM270.001 48c50.667 0 89.667 13.8311 117 41.498s41.666 72.167 42.999 133.5h-310
c0 -27.333 2.33301 -51.666 7 -72.999s12.834 -39.666 24.501 -54.999s27 -27 46 -35s43.167 -12 72.5 -12z" />
    <glyph glyph-name="Gcaron" unicode="&#x1e6;" horiz-adv-x="650" 
d="M380 -10c-54 0 -101.328 7.00098 -141.995 21.001s-74.5 35.667 -101.5 65s-47.333 67.166 -61 113.499s-20.5 101.5 -20.5 165.5c0 120.667 27.833 210 83.5 268s136.167 87 241.5 87c23.333 0 44.666 -1.33301 63.999 -4s35.666 -5.66699 48.999 -9
c16 -3.33301 30 -7.33301 42 -12v-70c-17.333 9.33301 -39.333 17.5 -66 24.5s-56.334 10.5 -89.001 10.5c-86 0 -150.667 -23.167 -194 -69.5s-65 -121.5 -65 -225.5c0 -55.333 5.16699 -102.333 15.5 -141s26.333 -70.167 48 -94.5s48.667 -42 81 -53
s70.5 -16.5 114.5 -16.5c23.333 0 46.666 1.66699 69.999 5s43.666 8.33301 60.999 15v216h-151v58h215v-314c-17.333 -8.66699 -43.333 -17.5 -78 -26.5s-73.667 -13.5 -117 -13.5zM210.005 905.001h58l93 -88l93 88h56l-113 -130h-74z" />
    <glyph glyph-name="gcaron" unicode="&#x1e7;" horiz-adv-x="590" 
d="M280 -190c-42 0 -78.002 4.00195 -108.002 12.002s-54 17 -72 27v78c6.66699 -6.66699 15.834 -13.5 27.501 -20.5s25.167 -13.333 40.5 -19s32 -10.334 50 -14.001s37 -5.5 57 -5.5c58.667 0 100.834 12 126.501 36s38.5 61 38.5 111v90
c-6 -14 -13.833 -27.5 -23.5 -40.5s-21.167 -24.167 -34.5 -33.5s-29.333 -16.833 -48 -22.5s-40 -8.5 -64 -8.5c-34 0 -64 4.83301 -90 14.5s-48 25.334 -66 47.001s-31.5 49.5 -40.5 83.5s-13.5 75.667 -13.5 125c0 88.667 18 154.167 54 196.5s84.667 63.5 146 63.5
c46.667 0 85.5 -9.33301 116.5 -28s52.167 -44.334 63.5 -77.001l6 95h54v-500c0 -70.667 -17.833 -123.334 -53.5 -158.001s-91.167 -52 -166.5 -52zM280.998 58.002c24 0 45.668 4.16699 65.001 12.5s36 20.166 50 35.499s24.833 34 32.5 56s11.5 46.667 11.5 74v71
c0 22.667 -3.16699 44.167 -9.5 64.5s-16.333 37.833 -30 52.5s-30.834 26.334 -51.501 35.001s-45.334 13 -74.001 13c-51.333 0 -89.666 -15.5 -114.999 -46.5s-38 -82.833 -38 -155.5c0 -39.333 3.33301 -72.5 10 -99.5s16.667 -48.833 30 -65.5s30 -28.667 50 -36
s43 -11 69 -11zM124.999 745.002h56l89 -90l91 90h54l-110 -130h-70z" />
    <glyph glyph-name="Scommaaccent" unicode="&#x218;" horiz-adv-x="580" 
d="M280 -10c-40.667 0 -78.5 5.50098 -113.5 16.501s-62.167 23.833 -81.5 38.5v80c22 -19.333 49.667 -36.666 83 -51.999s70.666 -23 111.999 -23c56.667 0 97.334 11.167 122.001 33.5s37 54.5 37 96.5c0 24.667 -5 45.334 -15 62.001s-23.167 30.667 -39.5 42
s-35 21 -56 29l-64 23.5c-21.667 7.66699 -43 16.167 -64 25.5s-39.667 21.333 -56 36s-29.5 32.5 -39.5 53.5s-15 47.167 -15 78.5c0 57.333 17.333 101.666 52 132.999s90.667 47 168 47c34.667 0 66.167 -3.5 94.5 -10.5s51.833 -15.167 70.5 -24.5v-80
c-18 16 -42 29.167 -72 39.5s-61 15.5 -93 15.5c-58 0 -98.167 -9.83301 -120.5 -29.5s-33.5 -49.834 -33.5 -90.501c0 -32.667 8.66699 -57.834 26 -75.501s38.833 -32 64.5 -43s53.667 -21 84 -30s58.333 -21 84 -36s47.167 -35.333 64.5 -61s26 -60.5 26 -104.5
c0 -60.667 -18 -107.5 -54 -140.5s-93 -49.5 -171 -49.5zM238 -167.999c13.333 2 26.166 5.66504 38.499 10.998s19.5 13.666 21.5 24.999c-23.333 0 -39.166 3.83301 -47.499 11.5s-12.5 17.834 -12.5 30.501c0 12 4.33301 21.667 13 29s23.334 11 44.001 11
c19.333 0 33.666 -4.5 42.999 -13.5s14 -21.167 14 -36.5c0 -27.333 -8.5 -51.166 -25.5 -71.499s-43.167 -33.166 -78.5 -38.499z" />
    <glyph glyph-name="scommaaccent" unicode="&#x219;" horiz-adv-x="475" 
d="M230 -10c-32.667 0 -60.833 2.66797 -84.5 8.00098s-45.5 12.666 -65.5 21.999v78c40.667 -33.333 90.667 -50 150 -50c40 0 68.833 7.83301 86.5 23.5s26.5 38.5 26.5 68.5c0 24 -6.66699 42.333 -20 55s-29.833 22.667 -49.5 30s-41.167 13.666 -64.5 18.999
s-44.833 13 -64.5 23s-36.167 24 -49.5 42s-20 43.333 -20 76c0 46 13.833 81.667 41.5 107s72.167 38 133.5 38c28 0 53.667 -2.66699 77 -8s41 -10.666 53 -15.999v-73c-17.333 12 -37 21.5 -59 28.5s-45.667 10.5 -71 10.5c-42 0 -71.333 -7.16699 -88 -21.5
s-25 -34.5 -25 -60.5c0 -23.333 6.66699 -40.833 20 -52.5s29.833 -20.834 49.5 -27.501s41.167 -12.667 64.5 -18s44.833 -13.166 64.5 -23.499s36.167 -25 49.5 -44s20 -45.5 20 -79.5c0 -52 -13.833 -90.833 -41.5 -116.5s-72.167 -38.5 -133.5 -38.5zM185.001 -168.999
c16.667 2.66699 30.5 7 41.5 13s17.5 14.667 19.5 26c-22.667 0 -38.5 3.5 -47.5 10.5s-13.5 16.833 -13.5 29.5c0 12 4.33301 21.667 13 29s22.667 11 42 11c36.667 0 55 -18.333 55 -55c0 -10.667 -1.83301 -21.667 -5.5 -33s-9.5 -22 -17.5 -32s-18.333 -18.5 -31 -25.5
s-28 -11.833 -46 -14.5z" />
    <glyph glyph-name="Tcommaaccent" unicode="&#x21a;" horiz-adv-x="580" 
d="M258 642h-218v58h500v-58h-218v-642h-64v642zM233 -168c13.333 2 26.166 5.66504 38.499 10.998s19.5 13.666 21.5 24.999c-23.333 0 -39.166 3.83301 -47.499 11.5s-12.5 17.834 -12.5 30.501c0 12 4.33301 21.667 13 29s23.334 11 44.001 11
c19.333 0 33.666 -4.5 42.999 -13.5s14 -21.167 14 -36.5c0 -27.333 -8.5 -51.166 -25.5 -71.499s-43.167 -33.166 -78.5 -38.499z" />
    <glyph glyph-name="tcommaaccent" unicode="&#x21b;" horiz-adv-x="435" 
d="M280 -5c-48 0 -83.333 11.833 -106 35.5s-34 61.834 -34 114.501v319h-100v56h100v110l60 20v-130h180v-56h-180v-319c0 -34.667 6.16699 -58.667 18.5 -72s32.833 -20 61.5 -20c23.333 0 42.833 3.16699 58.5 9.5s29.5 14.166 41.5 23.499v-68
c-9.33301 -6.66699 -23 -12.167 -41 -16.5s-37.667 -6.5 -59 -6.5zM200 -169c16.667 2.66699 30.5 7 41.5 13s17.5 14.667 19.5 26c-22.667 0 -38.5 3.5 -47.5 10.5s-13.5 16.833 -13.5 29.5c0 12 4.33301 21.667 13 29s22.667 11 42 11c36.667 0 55 -18.333 55 -55
c0 -10.667 -1.83301 -21.667 -5.5 -33s-9.5 -22 -17.5 -32s-18.333 -18.5 -31 -25.5s-28 -11.833 -46 -14.5z" />
    <glyph glyph-name="uni0237" unicode="&#x237;" horiz-adv-x="290" 
d="M46 -185c-32 0 -55.333 3.33203 -70 9.99902v68c8.66699 -5.33301 18.834 -10 30.501 -14s24.834 -6 39.501 -6c23.333 0 40.666 6.5 51.999 19.5s17 37.167 17 72.5v555h60v-555c0 -53.333 -10.833 -91.666 -32.5 -114.999s-53.834 -35 -96.501 -35z" />
    <glyph glyph-name="uni0259" unicode="&#x259;" horiz-adv-x="550" 
d="M270 -10c-35.333 0 -65.999 4.5 -91.999 13.5s-47.833 23.667 -65.5 44s-30.834 47 -39.501 80s-13 73.167 -13 120.5v27h370c-0.666992 67.333 -15.5 117 -44.5 149s-74.167 48 -135.5 48c-32.667 0 -62.167 -5.33301 -88.5 -16s-48.5 -23.667 -66.5 -39v68
c13.333 10 33.333 20 60 30s58.334 15 95.001 15c79.333 0 139.166 -21.333 179.499 -64s60.5 -111.334 60.5 -206.001c0 -93.333 -19.667 -161.666 -59 -204.999s-93 -65 -161 -65zM270.001 48c50.667 0 89.667 13.8311 117 41.498s41.666 72.167 42.999 133.5h-310
c0 -27.333 2.33301 -51.666 7 -72.999s12.834 -39.666 24.501 -54.999s27 -27 46 -35s43.167 -12 72.5 -12z" />
    <glyph glyph-name="afii57929" unicode="&#x2bc;" horiz-adv-x="240" 
d="M120 700h70l-70 -200h-50z" />
    <glyph glyph-name="circumflex" unicode="&#x2c6;" horiz-adv-x="400" 
d="M165 745h70l110 -130h-56l-89 90l-91 -90h-54z" />
    <glyph glyph-name="caron" unicode="&#x2c7;" horiz-adv-x="400" 
d="M55 745h56l89 -90l91 90h54l-110 -130h-70z" />
    <glyph glyph-name="breve" unicode="&#x2d8;" horiz-adv-x="370" 
d="M86 745c6.66699 -25.333 17.833 -45 33.5 -59s37.5 -21 65.5 -21s50.167 7 66.5 21s27.833 33.667 34.5 59l44 -13c-7.33301 -38 -23.833 -67 -49.5 -87s-57.5 -30 -95.5 -30c-37.333 0 -69 10.167 -95 30.5s-42.667 49.5 -50 87.5z" />
    <glyph glyph-name="dotaccent" unicode="&#x2d9;" horiz-adv-x="210" 
d="M105 638c-28 0 -42 14 -42 42s14 42 42 42s42 -14 42 -42s-14 -42 -42 -42z" />
    <glyph glyph-name="ring" unicode="&#x2da;" horiz-adv-x="260" 
d="M40 680c0 26.667 8.33301 48.334 25 65.001s38.334 25 65.001 25s48.334 -8.33301 65.001 -25s25 -38.334 25 -65.001s-8.33301 -48.334 -25 -65.001s-38.334 -25 -65.001 -25s-48.334 8.33301 -65.001 25s-25 38.334 -25 65.001zM80 680c0 -15.333 4.5 -27.5 13.5 -36.5
s21.167 -13.5 36.5 -13.5s27.5 4.5 36.5 13.5s13.5 21.167 13.5 36.5s-4.5 27.5 -13.5 36.5s-21.167 13.5 -36.5 13.5s-27.5 -4.5 -36.5 -13.5s-13.5 -21.167 -13.5 -36.5z" />
    <glyph glyph-name="ogonek" unicode="&#x2db;" horiz-adv-x="240" 
d="M125 -190c-53.333 0 -80.002 23.3301 -80.002 69.9971c0 22 8.66699 44.333 26 67s45 45.667 83 69l41 -16c-33.333 -19.333 -57.333 -38.666 -72 -57.999s-22 -36.666 -22 -51.999c0 -11.333 3.33301 -20.166 10 -26.499s16.334 -9.5 29.001 -9.5
c18 0 36.333 5.33301 55 16v-44c-9.33301 -5.33301 -19.666 -9.33301 -30.999 -12s-24.333 -4 -39 -4z" />
    <glyph glyph-name="tilde" unicode="&#x2dc;" horiz-adv-x="400" 
d="M60 636c2.66699 24.667 10.6641 44.167 23.9971 58.5s30.666 21.5 51.999 21.5c12 0 23.333 -1.66699 34 -5s22.667 -8 36 -14c12 -5.33301 22.5 -10.333 31.5 -15s18.167 -7 27.5 -7c8.66699 0 15.834 2.5 21.501 7.5s10.167 15.5 13.5 31.5l40 -11
c-3.33301 -26 -12 -45.667 -26 -59s-30 -20 -48 -20c-10 0 -19.667 0.833008 -29 2.5s-23.666 7.16699 -42.999 16.5c-11.333 5.33301 -21.166 10.333 -29.499 15s-17.166 7 -26.499 7c-8.66699 0 -16 -2.33301 -22 -7s-11 -15.667 -15 -33z" />
    <glyph glyph-name="hungarumlaut" unicode="&#x2dd;" horiz-adv-x="460" 
d="M130 745h76l-80 -130h-46zM292 745h88l-126 -130h-52z" />
    <glyph glyph-name="acutecomb" unicode="&#x301;" horiz-adv-x="0" 
d="M-231 745h82l-108 -130h-52z" />
    <glyph glyph-name="uni0394" unicode="&#x394;" horiz-adv-x="640" 
d="M288 700h64l263 -700h-590zM523 60l-204 562h-2l-204 -562h410z" />
    <glyph glyph-name="uni0394" unicode="&#x2206;" horiz-adv-x="640" 
d="M288 700h64l263 -700h-590zM523 60l-204 562h-2l-204 -562h410z" />
    <glyph glyph-name="uni03A9" unicode="&#x3a9;" horiz-adv-x="740" 
d="M65 58l189.004 0.00390625v69c-28 8 -54.167 19.5 -78.5 34.5s-45.333 33.667 -63 56s-31.667 49 -42 80s-15.5 66.833 -15.5 107.5c0 46.667 7.16699 88.834 21.5 126.501s35 69.667 62 96s60 46.666 99 60.999s83.167 21.5 132.5 21.5s93.5 -7.16699 132.5 -21.5
s72 -34.666 99 -60.999s47.667 -58.333 62 -96s21.5 -79.834 21.5 -126.501c0 -40.667 -5.33301 -76.334 -16 -107.001s-25 -57.334 -43 -80.001s-39 -41.334 -63 -56.001s-49.333 -26.334 -76 -35.001v-69h188v-58h-252v171c32.667 5.33301 61.334 15.5 86.001 30.5
s45.167 33.167 61.5 54.5s28.5 44.833 36.5 70.5s12 51.834 12 78.501c0 37.333 -5.83301 71.166 -17.5 101.499s-28.334 56.333 -50.001 78s-47.834 38.334 -78.501 50.001s-65 17.5 -103 17.5s-72.333 -5.83301 -103 -17.5s-56.834 -28.334 -78.501 -50.001
s-38.334 -47.667 -50.001 -78s-17.5 -64.166 -17.5 -101.499c0 -26.667 4 -52.834 12 -78.501s20.333 -49.167 37 -70.5s37.167 -39.5 61.5 -54.5s53.166 -25.167 86.499 -30.5v-171h-253v58z" />
    <glyph glyph-name="uni03A9" unicode="&#x2126;" horiz-adv-x="740" 
d="M65 58l189.004 0.00390625v69c-28 8 -54.167 19.5 -78.5 34.5s-45.333 33.667 -63 56s-31.667 49 -42 80s-15.5 66.833 -15.5 107.5c0 46.667 7.16699 88.834 21.5 126.501s35 69.667 62 96s60 46.666 99 60.999s83.167 21.5 132.5 21.5s93.5 -7.16699 132.5 -21.5
s72 -34.666 99 -60.999s47.667 -58.333 62 -96s21.5 -79.834 21.5 -126.501c0 -40.667 -5.33301 -76.334 -16 -107.001s-25 -57.334 -43 -80.001s-39 -41.334 -63 -56.001s-49.333 -26.334 -76 -35.001v-69h188v-58h-252v171c32.667 5.33301 61.334 15.5 86.001 30.5
s45.167 33.167 61.5 54.5s28.5 44.833 36.5 70.5s12 51.834 12 78.501c0 37.333 -5.83301 71.166 -17.5 101.499s-28.334 56.333 -50.001 78s-47.834 38.334 -78.501 50.001s-65 17.5 -103 17.5s-72.333 -5.83301 -103 -17.5s-56.834 -28.334 -78.501 -50.001
s-38.334 -47.667 -50.001 -78s-17.5 -64.166 -17.5 -101.499c0 -26.667 4 -52.834 12 -78.501s20.333 -49.167 37 -70.5s37.167 -39.5 61.5 -54.5s53.166 -25.167 86.499 -30.5v-171h-253v58z" />
    <glyph glyph-name="pi" unicode="&#x3c0;" horiz-adv-x="710" 
d="M582 -5c-30 0 -52.8311 9.00293 -68.498 27.0029s-23.5 44 -23.5 78v364h-270v-464h-60v462c-17.333 0 -35 -3 -53 -9s-32.667 -13.667 -44 -23l-23 54c17.333 11.333 37 20.166 59 26.499s52.333 9.5 91 9.5h450v-56h-90v-348c0 -24.667 3.66699 -41.334 11 -50.001
s19 -13 35 -13c11.333 0 20.666 0.666992 27.999 2s12.666 2.66602 15.999 3.99902v-58c-14 -4 -33.333 -6 -58 -6z" />
    <glyph glyph-name="afii10023" unicode="&#x401;" horiz-adv-x="575" 
d="M110 700h405v-58h-341v-253h301v-58h-301v-273h341v-58h-405v700zM216 796c-29.333 0 -44 14.667 -44 44s14.667 44 44 44s44 -14.667 44 -44s-14.667 -44 -44 -44zM408 796c-29.333 0 -44 14.667 -44 44s14.667 44 44 44s44 -14.667 44 -44s-14.667 -44 -44 -44z" />
    <glyph glyph-name="afii10051" unicode="&#x402;" horiz-adv-x="770" 
d="M258 642h-218.001v58h500v-58h-218v-246c19.333 11.333 43.666 21.5 72.999 30.5s62.333 13.5 99 13.5c76 0 131.833 -17.167 167.5 -51.5s53.5 -85.166 53.5 -152.499v-41c0 -68 -16.5 -119.167 -49.5 -153.5s-79.833 -51.5 -140.5 -51.5
c-14 0 -27.667 0.833008 -41 2.5s-24.666 4.16699 -33.999 7.5v64c18.667 -9.33301 42 -14 70 -14c40.667 0 72.5 12.167 95.5 36.5s34.5 60.5 34.5 108.5v40c0 48 -13.167 84.167 -39.5 108.5s-69.5 36.5 -129.5 36.5c-30 0 -58.667 -4.33301 -86 -13
s-51.666 -19.334 -72.999 -32.001v-335h-64v642z" />
    <glyph glyph-name="afii10052" unicode="&#x403;" horiz-adv-x="535" 
d="M110 700h385v-58h-321v-642h-64v700zM356 905h84l-116 -130h-54z" />
    <glyph glyph-name="afii10053" unicode="&#x404;" horiz-adv-x="590" 
d="M365 -10c-98.667 0 -175 29.3311 -229 87.998s-81 151 -81 277c0 62.667 6.5 116.334 19.5 161.001s32.667 81.334 59 110.001s59.166 49.834 98.499 63.501s85.333 20.5 138 20.5c25.333 0 47.5 -1.33301 66.5 -4s35.167 -5.66699 48.5 -9
c15.333 -3.33301 28.666 -7.33301 39.999 -12v-70c-18.667 11.333 -41.667 20 -69 26s-56 9 -86 9c-40 0 -75.167 -4.66699 -105.5 -14s-55.833 -24.333 -76.5 -45s-36.5 -47.667 -47.5 -81s-17.5 -73.666 -19.5 -120.999h319v-58h-319
c2 -49.333 8.83301 -91.833 20.5 -127.5s27.834 -64.834 48.501 -87.501s45.667 -39.334 75 -50.001s62.666 -16 99.999 -16s70.333 4.83301 99 14.5s52.334 20.167 71.001 31.5v-76c-13.333 -6 -28.666 -11 -45.999 -15c-14.667 -4 -32.5 -7.5 -53.5 -10.5
s-44.5 -4.5 -70.5 -4.5z" />
    <glyph glyph-name="afii10054" unicode="&#x405;" horiz-adv-x="580" 
d="M280 -10c-40.667 0 -78.5 5.50098 -113.5 16.501s-62.167 23.833 -81.5 38.5v80c22 -19.333 49.667 -36.666 83 -51.999s70.666 -23 111.999 -23c56.667 0 97.334 11.167 122.001 33.5s37 54.5 37 96.5c0 24.667 -5 45.334 -15 62.001s-23.167 30.667 -39.5 42
s-35 21 -56 29l-64 23.5c-21.667 7.66699 -43 16.167 -64 25.5s-39.667 21.333 -56 36s-29.5 32.5 -39.5 53.5s-15 47.167 -15 78.5c0 57.333 17.333 101.666 52 132.999s90.667 47 168 47c34.667 0 66.167 -3.5 94.5 -10.5s51.833 -15.167 70.5 -24.5v-80
c-18 16 -42 29.167 -72 39.5s-61 15.5 -93 15.5c-58 0 -98.167 -9.83301 -120.5 -29.5s-33.5 -49.834 -33.5 -90.501c0 -32.667 8.66699 -57.834 26 -75.501s38.833 -32 64.5 -43s53.667 -21 84 -30s58.333 -21 84 -36s47.167 -35.333 64.5 -61s26 -60.5 26 -104.5
c0 -60.667 -18 -107.5 -54 -140.5s-93 -49.5 -171 -49.5z" />
    <glyph glyph-name="afii10055" unicode="&#x406;" horiz-adv-x="330" 
d="M133 700h64v-700h-64v700z" />
    <glyph glyph-name="afii10056" unicode="&#x407;" horiz-adv-x="330" 
d="M133 700h64v-700h-64v700zM70 796c-29.333 0 -44 14.667 -44 44s14.667 44 44 44s44 -14.667 44 -44s-14.667 -44 -44 -44zM262 796c-29.333 0 -44 14.667 -44 44s14.667 44 44 44s44 -14.667 44 -44s-14.667 -44 -44 -44z" />
    <glyph glyph-name="afii10057" unicode="&#x408;" horiz-adv-x="420" 
d="M140 -10c-15.333 0 -29.167 1 -41.5 3s-22.833 4.33301 -31.5 7c-10.667 2.66699 -19.667 6 -27 10v70c7.33301 -6 16 -11 26 -15c8.66699 -4 19 -7.5 31 -10.5s26.333 -4.5 43 -4.5c32 0 56 8.66699 72 26s24 45.333 24 84v540h64v-540
c0 -58.667 -13.167 -101.667 -39.5 -129s-66.5 -41 -120.5 -41z" />
    <glyph glyph-name="afii10058" unicode="&#x409;" horiz-adv-x="985" 
d="M670 -5c-17.333 0 -35.8311 0.667969 -55.498 2.00098s-38.167 2.66602 -55.5 3.99902l-59 6v635h-248l-3 -61c-4 -87.333 -8.83301 -162.5 -14.5 -225.5s-12.334 -116.5 -20.001 -160.5s-16.167 -79.333 -25.5 -106s-19.833 -47.334 -31.5 -62.001
s-24.334 -24.5 -38.001 -29.5s-28.5 -7.5 -44.5 -7.5c-11.333 0 -23 1.66699 -35 5v60c4.66699 -1.33301 9.16699 -2.5 13.5 -3.5s9.83301 -1.5 16.5 -1.5c15.333 0 29.166 6.66699 41.499 20s23.333 38.666 33 75.999s17.834 89.666 24.501 156.999s12 155 16 263l5 134
h374v-270c12.667 0.666992 26 1.33398 40 2.00098c12 0.666992 25.5 1.33398 40.5 2.00098s30.167 1 45.5 1c43.333 0 80.333 -4.16699 111 -12.5s55.5 -21.333 74.5 -39s32.833 -40 41.5 -67s13 -59.167 13 -96.5c0 -38.667 -4.66699 -72.167 -14 -100.5
s-24.333 -51.666 -45 -69.999s-47.5 -32 -80.5 -41s-73.167 -13.5 -120.5 -13.5zM864.002 220.001c0 28.667 -2.83301 53.0029 -8.5 73.0029s-15.5 36 -29.5 48s-32.833 20.667 -56.5 26s-53.5 8 -89.5 8c-15.333 0 -30 -0.333008 -44 -1s-26.333 -1.33398 -37 -2.00098
c-12.667 -0.666992 -24.334 -1.33398 -35.001 -2.00098v-306c10.667 -2 22.334 -3.66699 35.001 -5c10.667 -1.33301 23 -2.33301 37 -3s28.667 -1 44 -1c66.667 0 114 13.167 142 39.5s42 68.166 42 125.499z" />
    <glyph glyph-name="afii10059" unicode="&#x40a;" horiz-adv-x="1010" 
d="M695 -5c-17.333 0 -35.833 0.665039 -55.5 1.99805s-38.167 2.66602 -55.5 3.99902l-59 6v324h-351v-331h-64v700h64v-311h351v311h64v-270c12.667 0.666992 26 1.33398 40 2.00098c12 0.666992 25.5 1.33398 40.5 2.00098s30.167 1 45.5 1
c43.333 0 80.333 -4.16699 111 -12.5s55.5 -21.333 74.5 -39s32.833 -40 41.5 -67s13 -59.167 13 -96.5c0 -38.667 -4.66699 -72.167 -14 -100.5s-24.333 -51.666 -45 -69.999s-47.5 -32 -80.5 -41s-73.167 -13.5 -120.5 -13.5zM889 219.998
c0 28.667 -2.83301 53.0029 -8.5 73.0029s-15.5 36 -29.5 48s-32.833 20.667 -56.5 26s-53.5 8 -89.5 8c-15.333 0 -30 -0.333008 -44 -1s-26.333 -1.33398 -37 -2.00098c-12.667 -0.666992 -24.334 -1.33398 -35.001 -2.00098v-306c10.667 -2 22.334 -3.66699 35.001 -5
c10.667 -1.33301 23 -2.33301 37 -3s28.667 -1 44 -1c66.667 0 114 13.167 142 39.5s42 68.166 42 125.499z" />
    <glyph glyph-name="afii10060" unicode="&#x40b;" horiz-adv-x="795" 
d="M258 642h-218.001v58h500v-58h-218v-246c16.667 9.33301 38.834 19 66.501 29s61.5 15 101.5 15c82 0 140.833 -16.833 176.5 -50.5s53.5 -85.167 53.5 -154.5v-235h-64v235c0 48.667 -12.833 85 -38.5 109s-68.167 36 -127.5 36c-40 0 -74 -5 -102 -15s-50 -20 -66 -30
v-335h-64v642z" />
    <glyph glyph-name="afii10061" unicode="&#x40c;" horiz-adv-x="655" 
d="M254 331h-80v-331h-64v700h64v-311h80l269 311h82l-295 -339l315 -361h-84zM411 905h84l-116 -130h-54z" />
    <glyph glyph-name="afii10062" unicode="&#x40e;" horiz-adv-x="630" 
d="M210 -10c-12 0 -23.501 0.831055 -34.501 2.49805s-21.167 4.83398 -30.5 9.50098v70c7.33301 -5.33301 16.5 -10.333 27.5 -15s23.5 -7 37.5 -7c21.333 0 38.333 7.5 51 22.5s26.334 39.5 41.001 73.5l-277 554h74l236 -480l200 480h70l-244 -572
c-22 -51.333 -44.833 -87.166 -68.5 -107.499s-51.167 -30.5 -82.5 -30.5zM314.999 774.998c-45.333 0 -80.834 10 -106.501 30s-40.167 53.333 -43.5 100h59c2.66699 -30 11 -51.167 25 -63.5s36 -18.5 66 -18.5s52.333 6.16699 67 18.5s23.667 33.5 27 63.5h56
c-4 -46.667 -18.667 -80 -44 -100s-60.666 -30 -105.999 -30z" />
    <glyph glyph-name="afii10145" unicode="&#x40f;" horiz-adv-x="690" 
d="M110 700h64v-642h342v642h64v-700h-205v-130h-60v130h-205v700z" />
    <glyph glyph-name="afii10017" unicode="&#x410;" horiz-adv-x="640" 
d="M288 700h64l263 -700h-70l-73 201h-308l-73 -201h-66zM185 259h266l-133 366z" />
    <glyph glyph-name="afii10018" unicode="&#x411;" horiz-adv-x="630" 
d="M300 -5c-24 0 -47.3301 0.668945 -69.9971 2.00195s-43 2.66602 -61 3.99902c-21.333 2 -41 4 -59 6v693h410v-58h-346v-230c11.333 0.666992 23.666 1.33398 36.999 2.00098c11.333 0.666992 24.666 1.33398 39.999 2.00098s31.666 1 48.999 1
c51.333 0 94 -3.83301 128 -11.5s61.167 -19.834 81.5 -36.501s34.666 -37.834 42.999 -63.501s12.5 -56.834 12.5 -93.501c0 -36 -4.83301 -67.5 -14.5 -94.5s-25.167 -49.5 -46.5 -67.5s-48.666 -31.667 -81.999 -41s-74 -14 -122 -14zM499.003 212.002
c0 26 -3 48.333 -9 67s-16.667 33.834 -32 45.501s-35.833 20.334 -61.5 26.001s-57.834 8.5 -96.501 8.5c-17.333 0 -33.666 -0.333008 -48.999 -1s-28.666 -1.33398 -39.999 -2.00098c-13.333 -0.666992 -25.666 -1.33398 -36.999 -2.00098v-290l10 -1.5
c6.66699 -1 15.667 -2 27 -3s24.666 -2 39.999 -3s31.666 -1.5 48.999 -1.5c72.667 0 124 13.167 154 39.5s45 65.5 45 117.5z" />
    <glyph glyph-name="afii10019" unicode="&#x412;" horiz-adv-x="625" 
d="M310 -5c-22.667 0 -45.834 0.499023 -69.501 1.49902s-45.167 2.16699 -64.5 3.5c-22.667 1.33301 -44.667 3 -66 5v690c22 1.33301 44 3 66 5c19.333 1.33301 40.333 2.5 63 3.5s44.667 1.5 66 1.5c44 0 80.833 -3.5 110.5 -10.5s53.334 -17.833 71.001 -32.5
s30.167 -33.5 37.5 -56.5s11 -50.833 11 -83.5c0 -42 -9.33301 -76 -28 -102s-48.667 -44.667 -90 -56c49.333 -7.33301 85.5 -24.666 108.5 -51.999s34.5 -65.333 34.5 -114c0 -66 -19.333 -116.333 -58 -151s-102.667 -52 -192 -52zM494 197.999
c0 44 -12.832 77.167 -38.499 99.5s-70.834 33.5 -135.501 33.5h-146v-271c11.333 -1.33301 24 -2.33301 38 -3c12 -0.666992 26.333 -1.16699 43 -1.5s35 -0.5 55 -0.5c35.333 0 64.833 2.66699 88.5 8s42.5 13.833 56.5 25.5s24 26.5 30 44.5s9 39.667 9 65z
M469.001 521.999c0 22.667 -2.33496 41.832 -7.00195 57.499s-13.167 28.334 -25.5 38.001s-29.166 16.667 -50.499 21s-48.333 6.5 -81 6.5c-19.333 0 -37 -0.166992 -53 -0.5s-29.667 -0.833008 -41 -1.5c-13.333 -0.666992 -25.666 -1 -36.999 -1v-253h136
c58 0 99 11 123 33s36 55.333 36 100z" />
    <glyph glyph-name="afii10020" unicode="&#x413;" horiz-adv-x="535" 
d="M110 700h385v-58h-321v-642h-64v700z" />
    <glyph glyph-name="afii10021" unicode="&#x414;" horiz-adv-x="695" 
d="M30 58h67c14.667 30 27.5 64.833 38.5 104.5s20 82.667 27 129s12.333 95.333 16 147s6.16699 104.5 7.5 158.5l2 104h377v-643h85v-188h-60v130h-500v-130h-60v188zM502 58v584.999h-252c0 -51.333 -1.66699 -104.166 -5 -158.499s-8.5 -107.5 -15.5 -159.5
s-16 -101 -27 -147s-24.167 -86 -39.5 -120h339z" />
    <glyph glyph-name="afii10022" unicode="&#x415;" horiz-adv-x="575" 
d="M110 700h405v-58h-341v-253h301v-58h-301v-273h341v-58h-405v700z" />
    <glyph glyph-name="afii10024" unicode="&#x416;" horiz-adv-x="900" 
d="M284 360l-219 340h76l197 -311h80v311h64v-311h80l199 311h74l-219 -337l239 -363h-78l-215 331h-80v-331h-64v331h-80l-217 -331h-76z" />
    <glyph glyph-name="afii10025" unicode="&#x417;" horiz-adv-x="545" 
d="M240 -10c-43.333 0 -80.1689 4.00293 -110.502 12.0029s-55.166 17.333 -74.499 28v80c19.333 -18.667 44.833 -33.334 76.5 -44.001s67.834 -16 108.501 -16c62 0 106.5 12.333 133.5 37s40.5 61 40.5 109c0 44 -13.167 77.5 -39.5 100.5s-71.166 34.5 -134.499 34.5
h-90v58h90c96.667 0 145 45.333 145 136c0 42 -11.167 73.333 -33.5 94s-59.5 31 -111.5 31c-30.667 0 -60.334 -4.83301 -89.001 -14.5s-55.667 -23.167 -81 -40.5v80c22.667 10 47.834 18.333 75.501 25s59.167 10 94.5 10c74 0 127.667 -15.333 161 -46
s50 -75.334 50 -134.001c0 -42.667 -10.167 -78.334 -30.5 -107.001s-50.5 -48.334 -90.5 -59.001c50 -4.66699 87.5 -22.167 112.5 -52.5s37.5 -70.5 37.5 -120.5c0 -63.333 -19.333 -112.666 -58 -147.999s-99.334 -53 -182.001 -53z" />
    <glyph glyph-name="afii10026" unicode="&#x418;" horiz-adv-x="740" 
d="M110 700h64.001v-500c0 -12.667 -0.166992 -25 -0.5 -37s-0.833008 -22.667 -1.5 -32c-0.666992 -11.333 -1 -21.666 -1 -30.999h2c5.33301 9.33301 11.666 19.666 18.999 30.999l20 32c7.33301 12 15.333 24.333 24 37l330 500h64v-700h-64v500v40.5
c0 11.667 0.333008 22.167 1 31.5c0.666992 10 1.33398 19.333 2.00098 28h-2c-4.66699 -8.66699 -10.334 -18 -17.001 -28c-5.33301 -9.33301 -12 -19.833 -20 -31.5s-16.667 -25.167 -26 -40.5l-330 -500h-64v700z" />
    <glyph glyph-name="afii10027" unicode="&#x419;" horiz-adv-x="740" 
d="M110 700h64.001v-500c0 -12.667 -0.166992 -25 -0.5 -37s-0.833008 -22.667 -1.5 -32c-0.666992 -11.333 -1 -21.666 -1 -30.999h2c5.33301 9.33301 11.666 19.666 18.999 30.999l20 32c7.33301 12 15.333 24.333 24 37l330 500h64v-700h-64v500v40.5
c0 11.667 0.333008 22.167 1 31.5c0.666992 10 1.33398 19.333 2.00098 28h-2c-4.66699 -8.66699 -10.334 -18 -17.001 -28c-5.33301 -9.33301 -12 -19.833 -20 -31.5s-16.667 -25.167 -26 -40.5l-330 -500h-64v700zM370.001 775c-45.333 0 -80.834 10 -106.501 30
s-40.167 53.333 -43.5 100h59c2.66699 -30 11 -51.167 25 -63.5s36 -18.5 66 -18.5s52.333 6.16699 67 18.5s23.667 33.5 27 63.5h56c-4 -46.667 -18.667 -80 -44 -100s-60.666 -30 -105.999 -30z" />
    <glyph glyph-name="afii10028" unicode="&#x41a;" horiz-adv-x="655" 
d="M254 331h-80v-331h-64v700h64v-311h80l269 311h82l-295 -339l315 -361h-84z" />
    <glyph glyph-name="afii10029" unicode="&#x41b;" horiz-adv-x="695" 
d="M75 -10c-11.333 0 -22.998 1.66992 -34.998 5.00293v60c4.66699 -1.33301 9.16699 -2.5 13.5 -3.5s9.83301 -1.5 16.5 -1.5c15.333 0 29.166 6.66699 41.499 20s23.333 38.666 33 75.999s17.834 89.666 24.501 156.999s12 155 16 263l5 134h395v-700h-64v642h-269l-3 -61
c-4 -87.333 -8.83301 -162.5 -14.5 -225.5s-12.334 -116.5 -20.001 -160.5s-16.167 -79.333 -25.5 -106s-19.833 -47.334 -31.5 -62.001s-24.334 -24.5 -38.001 -29.5s-28.5 -7.5 -44.5 -7.5z" />
    <glyph glyph-name="afii10030" unicode="&#x41c;" horiz-adv-x="850" 
d="M110 700h77.998l239 -450l239 450h74v-700h-64v490v33c0 9.33301 0.166992 18.333 0.5 27l1 27c0.333008 9.33301 1.16602 20.333 2.49902 33h-2c-4.66699 -12.667 -9 -23.5 -13 -32.5s-8.16699 -17.833 -12.5 -26.5s-9.16602 -17.834 -14.499 -27.501l-18 -33.5
l-168 -315h-54l-168 315c-7.33301 12.667 -13.333 23.834 -18 33.501l-13 27.5l-12.5 26.5c-4.33301 9 -9.16602 19.833 -14.499 32.5h-2c0.666992 -12.667 1.33398 -23.667 2.00098 -33s1.16699 -18.333 1.5 -27s0.5 -17.667 0.5 -27v-33v-490h-64v700z" />
    <glyph glyph-name="afii10031" unicode="&#x41d;" horiz-adv-x="720" 
d="M110 700h64v-311h372v311h64v-700h-64v331h-372v-331h-64v700z" />
    <glyph glyph-name="afii10032" unicode="&#x41e;" horiz-adv-x="710" 
d="M355 -10c-47.333 0 -89.665 7.00098 -126.998 21.001s-68.833 35.667 -94.5 65s-45.167 66.666 -58.5 111.999s-20 99.333 -20 162c0 126 26 217.5 78 274.5s126 85.5 222 85.5c49.333 0 92.666 -6.66699 129.999 -20s68.666 -34.5 93.999 -63.5s44.333 -66.333 57 -112
s19 -100.5 19 -164.5c0 -126 -26 -217.5 -78 -274.5s-126 -85.5 -222 -85.5zM355.001 50.001c38 0 71.5 5.5 100.5 16.5s53.333 28.5 73 52.5s34.667 55 45 93s15.5 84 15.5 138c0 54.667 -5 101 -15 139s-25 69 -45 93s-44.5 41.333 -73.5 52s-62.5 16 -100.5 16
c-37.333 0 -70.5 -5.5 -99.5 -16.5s-53.5 -28.5 -73.5 -52.5s-35.167 -55 -45.5 -93s-15.5 -84 -15.5 -138c0 -53.333 5.33301 -99 16 -137s26 -69 46 -93s44.5 -41.667 73.5 -53s61.833 -17 98.5 -17z" />
    <glyph glyph-name="afii10033" unicode="&#x41f;" horiz-adv-x="700" 
d="M110 700h480v-700h-64v642h-352v-642h-64v700z" />
    <glyph glyph-name="afii10034" unicode="&#x420;" horiz-adv-x="620" 
d="M110 695c18 1.33301 37.0029 3.00098 57.0029 5.00098c17.333 1.33301 37 2.5 59 3.5s45 1.5 69 1.5c49.333 0 91.166 -4.66699 125.499 -14s62.166 -23.5 83.499 -42.5s36.833 -42.833 46.5 -71.5s14.5 -62.667 14.5 -102c0 -78.667 -21.5 -138.334 -64.5 -179.001
s-111.5 -61 -205.5 -61c-38.667 0 -68.334 1 -89.001 3c-12 0.666992 -22.667 1.66699 -32 3v-241h-64v695zM499.003 475.001c0 30.667 -3.33203 56.6689 -9.99902 78.002s-17.834 38.833 -33.501 52.5s-36.667 23.667 -63 30s-58.833 9.5 -97.5 9.5
c-19.333 0 -36.333 -0.333008 -51 -1s-27.334 -1.33398 -38.001 -2.00098c-12 -0.666992 -22.667 -1.33398 -32 -2.00098v-339c9.33301 -1.33301 20 -2.33301 32 -3c20.667 -2 50.334 -3 89.001 -3c74 0 126.5 14.5 157.5 43.5s46.5 74.5 46.5 136.5z" />
    <glyph glyph-name="afii10035" unicode="&#x421;" horiz-adv-x="575" 
d="M355 -10c-48.667 0 -91.6719 6.83301 -129.005 20.5s-68.666 35.167 -93.999 64.5s-44.5 67 -57.5 113s-19.5 101.667 -19.5 167c0 62 6.66699 115.333 20 160s32.5 81.5 57.5 110.5s55.833 50.333 92.5 64s78.334 20.5 125.001 20.5c25.333 0 47.833 -1.33301 67.5 -4
s36.834 -5.66699 51.501 -9c16.667 -3.33301 31.667 -7.33301 45 -12v-70c-19.333 11.333 -42.666 20 -69.999 26s-58.666 9 -93.999 9c-37.333 0 -70.166 -5.33301 -98.499 -16s-52.166 -27.834 -71.499 -51.501s-34 -54.167 -44 -91.5s-15 -82.666 -15 -135.999
c0 -55.333 5.16699 -102.166 15.5 -140.499s25.5 -69.833 45.5 -94.5s44.5 -42.5 73.5 -53.5s62.167 -16.5 99.5 -16.5s70.666 5.16699 99.999 15.5s52.666 20.166 69.999 29.499v-70c-14.667 -6.66699 -31 -12.667 -49 -18c-15.333 -4.66699 -33.5 -8.66699 -54.5 -12
s-43.167 -5 -66.5 -5z" />
    <glyph glyph-name="afii10036" unicode="&#x422;" horiz-adv-x="580" 
d="M258 642h-218v58h500v-58h-218v-642h-64v642z" />
    <glyph glyph-name="afii10037" unicode="&#x423;" horiz-adv-x="630" 
d="M210 -10c-12 0 -23.501 0.831055 -34.501 2.49805s-21.167 4.83398 -30.5 9.50098v70c7.33301 -5.33301 16.5 -10.333 27.5 -15s23.5 -7 37.5 -7c21.333 0 38.333 7.5 51 22.5s26.334 39.5 41.001 73.5l-277 554h74l236 -480l200 480h70l-244 -572
c-22 -51.333 -44.833 -87.166 -68.5 -107.499s-51.167 -30.5 -82.5 -30.5z" />
    <glyph glyph-name="afii10038" unicode="&#x424;" horiz-adv-x="830" 
d="M383 60h-25c-105.333 0 -183 24.5 -233 73.5s-75 122.833 -75 221.5c0 100 24.667 174.167 74 222.5s127.333 72.5 234 72.5h25v70h64v-70h25c106.667 0 184.667 -24.167 234 -72.5s74 -122.5 74 -222.5c0 -98.667 -25 -172.5 -75 -221.5s-127.667 -73.5 -233 -73.5h-25
v-80h-64v80zM116 355c0 -83.333 18.833 -143.667 56.5 -181s99.5 -56 185.5 -56h25v474h-25c-44 0 -81.333 -4.33301 -112 -13s-55.667 -22.5 -75 -41.5s-33.333 -43.5 -42 -73.5s-13 -66.333 -13 -109zM714 354.999c0 42.667 -4.33301 79.001 -13 109.001
s-22.667 54.5 -42 73.5s-44.333 32.833 -75 41.5s-68 13 -112 13h-25v-474h25c86 0 147.833 18.667 185.5 56s56.5 97.666 56.5 180.999z" />
    <glyph glyph-name="afii10039" unicode="&#x425;" horiz-adv-x="630" 
d="M30 0l248 360l-233 340h74l197 -287l197 287h72l-233 -338l248 -362h-74l-212 308l-212 -308h-72z" />
    <glyph glyph-name="afii10040" unicode="&#x426;" horiz-adv-x="730" 
d="M625 0h-515v700h64v-642h367v642h64v-642h80v-188h-60v130z" />
    <glyph glyph-name="afii10041" unicode="&#x427;" horiz-adv-x="650" 
d="M476 305c-12.667 -8.66699 -27.665 -16.332 -44.998 -22.999c-15.333 -5.33301 -33.833 -10.333 -55.5 -15s-46.834 -7 -75.501 -7c-80 0 -137.5 16.667 -172.5 50s-52.5 85 -52.5 155v235h64v-235c0 -48.667 12.667 -85 38 -109s66.333 -36 123 -36
c30 0 56 2.16699 78 6.5s40.333 9.16602 55 14.499c17.333 6.66699 31.666 14 42.999 22v337h64v-700h-64v305z" />
    <glyph glyph-name="afii10042" unicode="&#x428;" horiz-adv-x="930" 
d="M110 700h64v-642h259v642h64v-642h259v642h64v-700h-710v700z" />
    <glyph glyph-name="afii10043" unicode="&#x429;" horiz-adv-x="950" 
d="M845 0h-735v700h64v-642h259v642h64v-642h259v642h64v-642h85v-188h-60v130z" />
    <glyph glyph-name="afii10044" unicode="&#x42a;" horiz-adv-x="690" 
d="M360 -5c-17.333 0 -35.833 0.665039 -55.5 1.99805s-38.167 2.66602 -55.5 3.99902l-59 6v635h-150v58h212v-270c12.667 0.666992 26.334 1.33398 41.001 2.00098c12 0.666992 25.667 1.33398 41 2.00098s30.666 1 45.999 1c47.333 0 87.166 -4.16699 119.499 -12.5
s58.5 -21.333 78.5 -39s34.5 -40 43.5 -67s13.5 -59.167 13.5 -96.5c0 -38.667 -4.83301 -72.167 -14.5 -100.5s-25.167 -51.666 -46.5 -69.999s-49.666 -32 -84.999 -41s-78.333 -13.5 -129 -13.5zM569 219.998c0 28.667 -2.83301 53 -8.5 73s-16 36 -31 48
s-35.333 20.667 -61 26s-58.5 8 -98.5 8c-15.333 0 -30 -0.333008 -44 -1s-26.667 -1.33398 -38 -2.00098c-12.667 -0.666992 -24.667 -1.33398 -36 -2.00098v-306c11.333 -2 23.333 -3.66699 36 -5c11.333 -1.33301 24 -2.33301 38 -3s28.667 -1 44 -1
c37.333 0 68.666 3.16699 93.999 9.5s45.833 16.333 61.5 30s26.834 30.834 33.501 51.501s10 45.334 10 74.001z" />
    <glyph glyph-name="afii10045" unicode="&#x42b;" horiz-adv-x="850" 
d="M280 -5c-17.333 0 -35.833 0.665039 -55.5 1.99805s-38.167 2.66602 -55.5 3.99902l-59 6v693h62v-270c12.667 0.666992 26.334 1.33398 41.001 2.00098c12 0.666992 25.667 1.33398 41 2.00098s30.666 1 45.999 1c47.333 0 87.166 -4.16699 119.499 -12.5
s58.5 -21.333 78.5 -39s34.5 -40 43.5 -67s13.5 -59.167 13.5 -96.5c0 -38.667 -4.83301 -72.167 -14.5 -100.5s-25.167 -51.666 -46.5 -69.999s-49.666 -32 -84.999 -41s-78.333 -13.5 -129 -13.5zM489 219.998c0 28.667 -2.83301 53 -8.5 73s-16 36 -31 48
s-35.333 20.667 -61 26s-58.5 8 -98.5 8c-15.333 0 -30 -0.333008 -44 -1s-26.667 -1.33398 -38 -2.00098c-12.667 -0.666992 -24.667 -1.33398 -36 -2.00098v-306c11.333 -2 23.333 -3.66699 36 -5c11.333 -1.33301 24 -2.33301 38 -3s28.667 -1 44 -1
c37.333 0 68.666 3.16699 93.999 9.5s45.833 16.333 61.5 30s26.834 30.834 33.501 51.501s10 45.334 10 74.001zM676 699.998h64v-700h-64v700z" />
    <glyph glyph-name="afii10046" unicode="&#x42c;" horiz-adv-x="610" 
d="M280 -5c-17.333 0 -35.833 0.665039 -55.5 1.99805s-38.167 2.66602 -55.5 3.99902l-59 6v693h64v-270c12.667 0.666992 26 1.33398 40 2.00098c12 0.666992 25.5 1.33398 40.5 2.00098s30.167 1 45.5 1c47.333 0 87.166 -4.16699 119.499 -12.5s58.5 -21.333 78.5 -39
s34.5 -40 43.5 -67s13.5 -59.167 13.5 -96.5c0 -38.667 -4.83301 -72.167 -14.5 -100.5s-25.167 -51.666 -46.5 -69.999s-49.666 -32 -84.999 -41s-78.333 -13.5 -129 -13.5zM489 219.998c0 28.667 -2.83301 53 -8.5 73s-16 36 -31 48s-35.333 20.667 -61 26
s-58.5 8 -98.5 8c-15.333 0 -30 -0.333008 -44 -1s-26.333 -1.33398 -37 -2.00098c-12.667 -0.666992 -24.334 -1.33398 -35.001 -2.00098v-306c10.667 -2 22.334 -3.66699 35.001 -5c10.667 -1.33301 23 -2.33301 37 -3s28.667 -1 44 -1
c37.333 0 68.666 3.16699 93.999 9.5s45.833 16.333 61.5 30s26.834 30.834 33.501 51.501s10 45.334 10 74.001z" />
    </font>
</defs>
</svg>
