<?xml version="1.0" standalone="no"?>
<!DOCTYPE svg PUBLIC "-//W3C//DTD SVG 1.1//EN" "http://www.w3.org/Graphics/SVG/1.1/DTD/svg11.dtd" >
<svg>
<metadata>
Created by FontForge 20090914 at Wed Feb 12 22:01:45 2020
 By www-data
Copyright (c) 2018 ParaType Inc., ParaType Ltd. All rights reserved.
</metadata>
<defs>
<font id="SBSansInterface-Semibold" horiz-adv-x="450" >
  <font-face 
    font-family="SB Sans Interface Semibold"
    font-weight="600"
    font-stretch="normal"
    units-per-em="1000"
    panose-1="2 11 6 3 4 5 4 2 2 4"
    ascent="815"
    descent="-185"
    x-height="534"
    cap-height="700"
    bbox="-336 -233.001 1256 969.998"
    underline-thickness="50"
    underline-position="-63"
    unicode-range="U+000D-U+FEFF"
  />
<missing-glyph horiz-adv-x="500" 
d="M442 8v496h-384v-496h384zM50 512h400v-512h-400v512z" />
    <glyph glyph-name="f_f" unicode="ff" horiz-adv-x="730" 
d="M446 427l-207.998 -0.000976562v-427h-122v427h-86v107h86v59c0 60 12.5 103.333 37.5 130s67.5 40 127.5 40c15.333 0 29.333 -0.666992 42 -2s24 -3 34 -5v-112c-7.33301 2.66699 -15.333 4.83398 -24 6.50098s-18.667 2.5 -30 2.5c-22.667 0 -39.167 -6 -49.5 -18
s-15.5 -31.667 -15.5 -59v-42h208v59c0 60 12.5 103.333 37.5 130s67.5 40 127.5 40c19.333 0 36.166 -1 50.499 -3s27.166 -4.33301 38.499 -7v-113c-6 3.33301 -14.667 6.33301 -26 9s-25 4 -41 4c-22.667 0 -39.167 -6 -49.5 -18s-15.5 -31.667 -15.5 -59v-42h132v-107
h-132v-427h-122v427z" />
    <glyph glyph-name="fi" unicode="fi" horiz-adv-x="635" 
d="M444 427l-206 -0.000976562v-427h-122v427h-86v107h86v59c0 60 12.5 103.333 37.5 130s67.5 40 127.5 40c15.333 0 29.333 -0.666992 42 -2s24 -3 34 -5v-112c-7.33301 2.66699 -15.333 4.83398 -24 6.50098s-18.667 2.5 -30 2.5c-22.667 0 -39.167 -6 -49.5 -18
s-15.5 -31.667 -15.5 -59v-42h328v-534h-122v427zM505 625.999c-49.333 0 -74 22.667 -74 68s24.667 68 74 68c48.667 0 73 -22.667 73 -68s-24.333 -68 -73 -68z" />
    <glyph glyph-name="fl" unicode="fl" horiz-adv-x="685" 
d="M575 -6c-49.333 0 -85.1631 11.332 -107.496 33.999s-33.5 60 -33.5 112v507c-20.667 1.33301 -40.334 2.66602 -59.001 3.99902s-37 2 -55 2c-30.667 0 -52 -5.66699 -64 -17s-18 -30.333 -18 -57v-45h98v-107h-98v-427h-122v427h-86v107h86v59
c0 30 3.16699 55.667 9.5 77s16.5 38.833 30.5 52.5s32.667 23.834 56 30.501s52 10 86 10c24 0 50.167 -0.5 78.5 -1.5s56.166 -2.5 83.499 -4.5h96v-593c0 -22.667 3.66699 -38 11 -46s19.666 -12 36.999 -12c11.333 0 22.166 1.83301 32.499 5.5s16.5 6.16699 18.5 7.5
v-110c-2 -1.33301 -10.333 -4.16602 -25 -8.49902s-33 -6.5 -55 -6.5z" />
    <glyph glyph-name="f_f_i" unicode="ffi" horiz-adv-x="955" 
d="M439 427l-201 -0.00195312v-427h-122v427h-86v107h86v59c0 60 12.5 103.333 37.5 130s67.5 40 127.5 40c15.333 0 29.333 -0.666992 42 -2s24 -3 34 -5v-112c-7.33301 2.66699 -15.333 4.83398 -24 6.50098s-18.667 2.5 -30 2.5c-22.667 0 -39.167 -6 -49.5 -18
s-15.5 -31.667 -15.5 -59v-42h201v59c0 60 12.5 103.333 37.5 130s67.5 40 127.5 40c15.333 0 29.333 -0.666992 42 -2s24 -3 34 -5v-112c-6.66699 2.66699 -14.5 4.83398 -23.5 6.50098s-19.167 2.5 -30.5 2.5c-22.667 0 -39.167 -6 -49.5 -18s-15.5 -31.667 -15.5 -59v-42
h325v-534h-122v427h-203v-427h-122v427zM825 625.998c-49.333 0 -74 22.667 -74 68s24.667 68 74 68c48.667 0 73 -22.667 73 -68s-24.333 -68 -73 -68z" />
    <glyph glyph-name="f_f_l" unicode="ffl" horiz-adv-x="1015" 
d="M444 427l-206 -0.00195312v-427h-122v427h-86v107h86v59c0 60 12.5 103.333 37.5 130s67.5 40 127.5 40c15.333 0 29.333 -0.666992 42 -2s24 -3 34 -5v-112c-7.33301 2.66699 -15.333 4.83398 -24 6.50098s-18.667 2.5 -30 2.5c-22.667 0 -39.167 -6 -49.5 -18
s-15.5 -31.667 -15.5 -59v-42h206v59c0 59.333 13.5 102.5 40.5 129.5s74.167 40.5 141.5 40.5c24.667 0 51.334 -0.5 80.001 -1.5s56.667 -2.5 84 -4.5h96v-593c0 -22.667 3.66699 -38 11 -46s19.666 -12 36.999 -12c11.333 0 22.166 1.83301 32.499 5.5
s16.5 6.16699 18.5 7.5v-110c-2 -1.33301 -10.333 -4.16602 -25 -8.49902s-33 -6.5 -55 -6.5c-49.333 0 -85.166 11.333 -107.499 34s-33.5 60 -33.5 112v507l-59.5 4c-19 1.33301 -37.5 2 -55.5 2c-30.667 0 -52.167 -5.66699 -64.5 -17s-18.5 -30.333 -18.5 -57v-45h100
v-107h-100v-427h-122v427z" />
    <glyph glyph-name=".notdef" horiz-adv-x="500" 
d="M442 8v496h-384v-496h384zM50 512h400v-512h-400v512z" />
    <glyph glyph-name=".null" horiz-adv-x="0" 
 />
    <glyph glyph-name=".null" horiz-adv-x="0" 
 />
    <glyph glyph-name="uni000D" unicode="&#xd;" horiz-adv-x="250" 
 />
    <glyph glyph-name="space" unicode=" " horiz-adv-x="250" 
 />
    <glyph glyph-name="exclam" unicode="!" horiz-adv-x="330" 
d="M165 -7c-26.667 0 -46.832 7 -60.499 21s-20.5 34 -20.5 60c0 54 27 81 81 81s81 -27 81 -81c0 -26 -6.83301 -46 -20.5 -60s-33.834 -21 -60.501 -21zM100.002 700h130l-10 -459h-110z" />
    <glyph glyph-name="quotedbl" unicode="&#x22;" horiz-adv-x="470" 
d="M80 700h102v-280h-102v280zM288 700h102v-280h-102v280z" />
    <glyph glyph-name="numbersign" unicode="#" horiz-adv-x="600" 
d="M327 187h-111l-33 -187h-100l33 187h-96l16 93h96l25 140h-96l16 93h96l33 187h100l-33 -187h111l33 187h100l-33 -187h96l-16 -93h-96l-25 -140h97l-17 -93h-96l-33 -187h-100zM232 280h111l25 140h-111z" />
    <glyph glyph-name="dollar" unicode="$" horiz-adv-x="600" 
d="M255 -11c-36.667 2.66699 -69.9971 8.50391 -99.9971 17.5039s-54.667 19.5 -74 31.5v139c8.66699 -8 19.834 -16.167 33.501 -24.5s29.167 -16 46.5 -23s36.666 -12.667 57.999 -17s44 -6.5 68 -6.5c42.667 0 72.834 7.5 90.501 22.5s26.5 35.5 26.5 61.5
c0 25.333 -8.16699 45.166 -24.5 59.499s-36.5 26.666 -60.5 36.999s-50.333 20.166 -79 29.499s-55 21.666 -79 36.999s-44.167 35.5 -60.5 60.5s-24.5 58.167 -24.5 99.5c0 56 14.167 100.5 42.5 133.5s73.833 53.833 136.5 62.5v91h100v-88
c30.667 -2 59.167 -6.16699 85.5 -12.5s48.166 -13.5 65.499 -21.5v-139c-22 17.333 -49.5 30.833 -82.5 40.5s-66.5 14.5 -100.5 14.5c-22.667 0 -41.334 -1.66699 -56.001 -5s-26.334 -8 -35.001 -14s-14.834 -13.667 -18.501 -23s-5.5 -20 -5.5 -32
c0 -24 8.16699 -42.667 24.5 -56s36.5 -24.833 60.5 -34.5s50.333 -19.167 79 -28.5s55 -21.833 79 -37.5s44.167 -36.667 60.5 -63s24.5 -60.833 24.5 -103.5c0 -58.667 -14.5 -105.5 -43.5 -140.5s-74.833 -56.833 -137.5 -65.5v-111h-100v109z" />
    <glyph glyph-name="percent" unicode="%" horiz-adv-x="860" 
d="M611 700h89l-451 -700h-89zM232 374c-54.667 0 -96.167 14.167 -124.5 42.5s-42.5 69.5 -42.5 123.5c0 53.333 14.333 94.333 43 123s70 43 124 43s95.167 -14.167 123.5 -42.5s42.5 -69.5 42.5 -123.5c0 -53.333 -14.333 -94.333 -43 -123s-69.667 -43 -123 -43z
M232 452c26.667 0 46.667 6.83301 60 20.5s20 36.167 20 67.5s-6.66699 53.833 -20 67.5s-33.333 20.5 -60 20.5c-27.333 0 -47.666 -6.83301 -60.999 -20.5s-20 -36.167 -20 -67.5s6.66699 -53.833 20 -67.5s33.666 -20.5 60.999 -20.5zM628 -6
c-54 0 -95.167 14.167 -123.5 42.5s-42.5 69.5 -42.5 123.5c0 53.333 14.333 94.333 43 123s69.667 43 123 43c54.667 0 96.167 -14.167 124.5 -42.5s42.5 -69.5 42.5 -123.5c0 -53.333 -14.333 -94.333 -43 -123s-70 -43 -124 -43zM628 72
c27.333 0 47.666 6.83301 60.999 20.5s20 36.167 20 67.5s-6.66699 53.833 -20 67.5s-33.666 20.5 -60.999 20.5s-47.5 -6.83301 -60.5 -20.5s-19.5 -36.167 -19.5 -67.5s6.5 -53.833 19.5 -67.5s33.167 -20.5 60.5 -20.5z" />
    <glyph glyph-name="ampersand" unicode="&#x26;" horiz-adv-x="800" 
d="M307 -13c-78 0 -137.334 18.668 -178.001 56.001s-61 88.666 -61 153.999c0 48.667 12.333 90.834 37 126.501s60.334 65.5 107.001 89.5c-13.333 24.667 -23.833 49.5 -31.5 74.5s-11.5 48.833 -11.5 71.5c0 50 14.667 88.167 44 114.5s71.333 39.5 126 39.5
c30.667 0 56.834 -3.66699 78.501 -11s39.167 -17.333 52.5 -30s23 -27.834 29 -45.501s9 -36.834 9 -57.501c0 -24.667 -4.33301 -46.5 -13 -65.5s-20.667 -36 -36 -51s-33.5 -28.5 -54.5 -40.5s-43.5 -23 -67.5 -33c22.667 -36 48 -69.667 76 -101s60 -60.333 96 -87
c26.667 36 47.5 79.667 62.5 131s23.167 106.333 24.5 165h107c-1.33301 -60.667 -11.5 -121 -30.5 -181s-45.5 -114 -79.5 -162c21.333 -11.333 42.833 -20.666 64.5 -27.999s43.167 -12 64.5 -14v-115c-34.667 2.66699 -69.834 11 -105.501 25s-69.167 32.333 -100.5 55
c-30 -26 -62.833 -45.833 -98.5 -59.5s-72.5 -20.5 -110.5 -20.5zM316.999 89.001c22 0 42.666 3.50098 61.999 10.501s37.333 16.833 54 29.5c-36.667 30.667 -69.667 63.5 -99 98.5s-54.666 71.5 -75.999 109.5c-51.333 -26.667 -77 -67.334 -77 -122.001
c0 -40 11 -71 33 -93s56.333 -33 103 -33zM336.998 621.002c-22 0 -39.168 -5.83301 -51.501 -17.5s-18.5 -30.167 -18.5 -55.5c0 -13.333 2.5 -28.166 7.5 -44.499s12.5 -33.166 22.5 -50.499c34 15.333 60.667 30.666 80 45.999s29 35.666 29 60.999
c0 19.333 -5.16699 34.333 -15.5 45s-28.166 16 -53.499 16z" />
    <glyph glyph-name="quotesingle" unicode="'" horiz-adv-x="270" 
d="M80 700h110v-280h-110v280z" />
    <glyph glyph-name="parenleft" unicode="(" horiz-adv-x="380" 
d="M73 288c0 52.667 5.16699 101.834 15.5 147.501s24.833 88.167 43.5 127.5s40.667 76 66 110s53 66.333 83 97l70 -61c-24 -30 -45.667 -60.5 -65 -91.5s-36 -63.5 -50 -97.5s-24.833 -70.167 -32.5 -108.5s-11.5 -79.5 -11.5 -123.5s3.83301 -85.167 11.5 -123.5
s18.5 -74.5 32.5 -108.5s30.667 -66.5 50 -97.5s41 -61.5 65 -91.5l-71 -60c-30 30.667 -57.5 63 -82.5 97s-46.833 70.667 -65.5 110s-33.167 81.666 -43.5 126.999s-15.5 94.333 -15.5 147z" />
    <glyph glyph-name="parenright" unicode=")" horiz-adv-x="380" 
d="M307 288c0 -52.667 -5.16699 -101.667 -15.5 -147s-24.833 -87.666 -43.5 -126.999s-40.667 -76 -66 -110s-53 -66.333 -83 -97l-70 60c24 30 45.667 60.5 65 91.5s36 63.5 50 97.5s24.833 70.167 32.5 108.5s11.5 79.833 11.5 124.5c0 44 -3.83301 85 -11.5 123
s-18.5 74 -32.5 108s-30.667 66.5 -50 97.5s-41 61.5 -65 91.5l71 61c30 -30.667 57.5 -63 82.5 -97s46.833 -70.667 65.5 -110s33.167 -81.833 43.5 -127.5s15.5 -94.834 15.5 -147.501z" />
    <glyph glyph-name="asterisk" unicode="*" horiz-adv-x="500" 
d="M100 367l96 114l-136 32l28 98l130 -62l-16 151h96l-15 -151l129 62l28 -98l-137 -33l97 -113l-78 -57l-72 130l-72 -130z" />
    <glyph glyph-name="plus" unicode="+" horiz-adv-x="600" 
d="M90 410h156v157h108v-157h156v-107h-156v-157h-108v157h-156v107z" />
    <glyph glyph-name="comma" unicode="," horiz-adv-x="320" 
d="M54 -110c30.667 8.66699 55.168 23 73.501 43s29.166 40.333 32.499 61c-54 0 -81 26.667 -81 80c0 54 27 81 81 81c32 0 54.833 -9.5 68.5 -28.5s20.5 -46.5 20.5 -82.5c0 -28 -4.16699 -54 -12.5 -78s-19.333 -45.667 -33 -65s-29.667 -35.833 -48 -49.5
s-37.5 -24.167 -57.5 -31.5z" />
    <glyph glyph-name="hyphen" unicode="-" horiz-adv-x="400" 
d="M40 334h320v-107h-320v107z" />
    <glyph glyph-name="period" unicode="." horiz-adv-x="320" 
d="M160 -6c-54 0 -81 26.667 -81 80c0 54 27 81 81 81s81 -27 81 -81c0 -53.333 -27 -80 -81 -80z" />
    <glyph glyph-name="slash" unicode="/" horiz-adv-x="400" 
d="M283 757h112l-278 -937h-112z" />
    <glyph glyph-name="zero" unicode="0" horiz-adv-x="600" 
d="M300 -13c-37.333 0 -70.833 6.16895 -100.5 18.502s-54.834 32.666 -75.501 60.999s-36.5 65.666 -47.5 111.999s-16.5 103.5 -16.5 171.5c0 68.667 5.33301 126.334 16 173.001s26.167 84 46.5 112s45.5 48 75.5 60s64 18 102 18c40 0 75 -5.66699 105 -17
s55 -30.833 75 -58.5s35 -64.834 45 -111.501s15 -105.334 15 -176.001c0 -69.333 -5.16699 -127.166 -15.5 -173.499s-25.666 -83.5 -45.999 -111.5s-45.5 -48 -75.5 -60s-64.333 -18 -103 -18zM300 106.002c18 0 33.667 2.99902 47 8.99902s24.5 17.667 33.5 35
s15.833 42 20.5 74s7 74 7 126s-2.33301 93.833 -7 125.5s-11.5 56.334 -20.5 74.001s-20.167 29.5 -33.5 35.5s-29 9 -47 9s-33.667 -3 -47 -9s-24.5 -17.833 -33.5 -35.5s-15.833 -42.5 -20.5 -74.5s-7 -73.667 -7 -125c0 -50 2.5 -90.833 7.5 -122.5
s12.333 -56.5 22 -74.5s21.167 -30.333 34.5 -37s28 -10 44 -10z" />
    <glyph glyph-name="one" unicode="1" horiz-adv-x="600" 
d="M104 107h182v450l-182 -119v119l220 143h89v-593h133v-107h-442v107z" />
    <glyph glyph-name="two" unicode="2" horiz-adv-x="600" 
d="M67 85c45.333 43.333 87.4971 81.832 126.497 115.499s73 65.167 102 94.5s51.667 58 68 86s24.5 58.333 24.5 91c0 42 -10.167 72.833 -30.5 92.5s-52.166 29.5 -95.499 29.5c-35.333 0 -68.666 -6.5 -99.999 -19.5s-58.666 -29.833 -81.999 -50.5v143
c26 13.333 56.667 24.333 92 33s73 13 113 13c44 0 80.833 -5 110.5 -15s53.834 -24.167 72.501 -42.5s32 -40.333 40 -66s12 -54.167 12 -85.5c0 -39.333 -6.16699 -74.666 -18.5 -105.999s-30.333 -62 -54 -92s-52.334 -60.333 -86.001 -91l-113.5 -101h275v-114h-456v85z
" />
    <glyph glyph-name="three" unicode="3" horiz-adv-x="600" 
d="M187 408l68.0059 -0.00195312c46 0 78.5 8.33301 97.5 25s28.5 42 28.5 76c0 28.667 -8.5 50.167 -25.5 64.5s-48.833 21.5 -95.5 21.5c-37.333 0 -72 -5.66699 -104 -17s-59.333 -24.666 -82 -39.999v130c28 12 61.667 22.167 101 30.5s78 12.5 116 12.5
c43.333 0 79.333 -4 108 -12s51.5 -19.667 68.5 -35s29 -34 36 -56s10.5 -47 10.5 -75c0 -88.667 -43.333 -145 -130 -169c52.667 -6.66699 91 -24 115 -52s36 -66 36 -114c0 -33.333 -4.66699 -62.833 -14 -88.5s-24.333 -47.5 -45 -65.5s-47.334 -31.667 -80.001 -41
s-72 -14 -118 -14c-40 0 -79 4 -117 12s-70 18.667 -96 32v138c23.333 -17.333 52.166 -32.5 86.499 -45.5s71.166 -19.5 110.499 -19.5c28.667 0 52.167 2.33301 70.5 7s32.666 11.5 42.999 20.5s17.333 20 21 33s5.5 27.5 5.5 43.5c0 14.667 -2.16699 27.834 -6.5 39.501
s-11.833 21.5 -22.5 29.5s-24.834 14 -42.501 18s-39.834 6 -66.501 6h-77v105z" />
    <glyph glyph-name="four" unicode="4" horiz-adv-x="600" 
d="M342 167h-309v75l278 458h158v-419h83v-114h-83v-167h-127v167zM341 281l1 285l-168 -285h167z" />
    <glyph glyph-name="five" unicode="5" horiz-adv-x="600" 
d="M111 700h392.001v-114h-296l-11 -149c12 2 28 3.5 48 4.5s40.333 1.5 61 1.5c40.667 0 75.334 -4.66699 104.001 -14s52 -23.166 70 -41.499s31 -40.666 39 -66.999s12 -56.5 12 -90.5c0 -37.333 -4.33301 -71 -13 -101s-23.334 -55.5 -44.001 -76.5
s-48 -37.167 -82 -48.5s-76.333 -17 -127 -17c-30 0 -61.5 3 -94.5 9s-62.833 14.667 -89.5 26v131c19.333 -14 45.333 -26 78 -36s66 -15 100 -15c52 0 88.667 10.5 110 31.5s32 52.5 32 94.5c0 20 -2.33301 37.167 -7 51.5s-12.667 26.166 -24 35.499
s-26.5 16.166 -45.5 20.499s-42.833 6.5 -71.5 6.5c-30 0 -60.333 -1.5 -91 -4.5s-55.334 -6.16699 -74.001 -9.5z" />
    <glyph glyph-name="six" unicode="6" horiz-adv-x="600" 
d="M312 -13c-48 0 -88.334 7.16895 -121.001 21.502s-59.334 35.833 -80.001 64.5s-35.5 64 -44.5 106s-13.5 90.667 -13.5 146c0 130.667 25 228 75 292s126.667 96 230 96c28.667 0 55.667 -2.33301 81 -7s48 -11 68 -19v-130c-15.333 10.667 -35.166 20.167 -59.499 28.5
s-55.5 12.5 -93.5 12.5c-26.667 0 -51.5 -4.33301 -74.5 -13s-43 -22.334 -60 -41.001s-30.333 -42.167 -40 -70.5s-14.5 -62.5 -14.5 -102.5v-26c18 36 41.833 63.167 71.5 81.5s66.834 27.5 111.501 27.5c68.667 0 119.5 -19.167 152.5 -57.5s49.5 -91.833 49.5 -160.5
c0 -43.333 -5.5 -80.5 -16.5 -111.5s-26.833 -56.833 -47.5 -77.5s-45.667 -35.834 -75 -45.501s-62.333 -14.5 -99 -14.5zM307.999 95.002c34 0 61.5 10.5 82.5 31.5s31.5 54.5 31.5 100.5c0 46.667 -9.16699 80 -27.5 100s-46.5 30 -84.5 30c-40 0 -70.167 -11 -90.5 -33
s-32.166 -50 -35.499 -84c0.666992 -42 11.167 -76.667 31.5 -104s51.166 -41 92.499 -41z" />
    <glyph glyph-name="seven" unicode="7" horiz-adv-x="600" 
d="M393 586h-338v114h480v-76l-255 -624h-136z" />
    <glyph glyph-name="eight" unicode="8" horiz-adv-x="600" 
d="M301 -13c-89.333 0 -153.668 18 -193.001 54s-59 86.667 -59 152c0 21.333 2 41.333 6 60s11 35.667 21 51s23.333 28.666 40 39.999s37.667 20.666 63 27.999c-42 11.333 -71.5 29.5 -88.5 54.5s-25.5 59.5 -25.5 103.5c0 56.667 18.5 101.334 55.5 134.001
s97.167 49 180.5 49c81.333 0 140.333 -14.833 177 -44.5s55 -72.5 55 -128.5c0 -20.667 -1.66699 -39.667 -5 -57s-9.16602 -33 -17.499 -47s-19.833 -26.5 -34.5 -37.5s-33 -19.833 -55 -26.5c25.333 -5.33301 46.333 -13 63 -23s30 -22.333 40 -37s17 -31.667 21 -51
s6 -41 6 -65c0 -31.333 -4.83301 -59.666 -14.5 -84.999s-24.5 -47.333 -44.5 -66s-45.833 -33 -77.5 -43s-69.5 -15 -113.5 -15zM300.998 95c78.667 0 118 38.667 118 116c0 75.333 -39.333 113 -118 113c-42.667 -0.666992 -73.334 -11.167 -92.001 -31.5
s-28 -47.5 -28 -81.5c0 -40.667 10.333 -70.167 31 -88.5s50.334 -27.5 89.001 -27.5zM300.998 408c40 0.666992 67.834 9.99902 83.501 27.999s23.5 42.667 23.5 74c0 34 -8.33301 58.333 -25 73s-44.334 22 -83.001 22c-39.333 0 -67.5 -8.33301 -84.5 -25
s-25.5 -41 -25.5 -73s9 -56.667 27 -74s46 -25.666 84 -24.999z" />
    <glyph glyph-name="nine" unicode="9" horiz-adv-x="600" 
d="M243 -13c-28.667 0 -55.5039 2.66406 -80.5039 7.99707s-47.5 11.666 -67.5 18.999v131c16 -11.333 35.833 -21.333 59.5 -30s54.5 -13 92.5 -13c26 0 50.667 4.33301 74 13s43.5 22.334 60.5 41.001s30.5 42.334 40.5 71.001s15 63 15 103v14
c0 4 -0.333008 7.66699 -1 11c-17.333 -36 -40.833 -63.167 -70.5 -81.5s-66.5 -27.5 -110.5 -27.5c-69.333 0 -120.666 19.333 -153.999 58s-50 92 -50 160c0 42.667 5.5 79.667 16.5 111s26.833 57.333 47.5 78s45.834 35.834 75.501 45.501s62.834 14.5 99.501 14.5
c48 0 88.333 -7.33301 121 -22s59.334 -36.167 80.001 -64.5s35.5 -63.666 44.5 -105.999s13.5 -91.5 13.5 -147.5c0 -130.667 -25 -227.667 -75 -291s-127 -95 -231 -95zM290.996 342.997c41.333 0 72.333 10.667 93 32s32 50.333 34 87
c-0.666992 46 -11.167 81.333 -31.5 106s-51.5 37 -93.5 37c-34 0 -61.333 -10.5 -82 -31.5s-31 -54.5 -31 -100.5c0 -45.333 9 -78.333 27 -99s46 -31 84 -31z" />
    <glyph glyph-name="colon" unicode=":" horiz-adv-x="330" 
d="M165 -6c-54 0 -81 26.667 -81 80c0 54 27 81 81 81s81 -27 81 -81c0 -53.333 -27 -80 -81 -80zM165 359c-54 0 -81 26.667 -81 80c0 54 27 81 81 81s81 -27 81 -81c0 -53.333 -27 -80 -81 -80z" />
    <glyph glyph-name="semicolon" unicode=";" horiz-adv-x="330" 
d="M59 -110c30.667 8.66699 55.168 23 73.501 43s29.166 40.333 32.499 61c-54 0 -81 26.667 -81 80c0 54 27 81 81 81c32 0 54.833 -9.5 68.5 -28.5s20.5 -46.5 20.5 -82.5c0 -28 -4.16699 -54 -12.5 -78s-19.333 -45.667 -33 -65s-29.667 -35.833 -48 -49.5
s-37.5 -24.167 -57.5 -31.5zM165.001 359c-54 0 -81 26.667 -81 80c0 54 27 81 81 81s81 -27 81 -81c0 -53.333 -27 -80 -81 -80z" />
    <glyph glyph-name="less" unicode="&#x3c;" horiz-adv-x="600" 
d="M90 294v118l420 202v-122l-296 -135l296 -135v-130z" />
    <glyph glyph-name="equal" unicode="=" horiz-adv-x="600" 
d="M90 300h420v-107h-420v107zM90 514h420v-108h-420v108z" />
    <glyph glyph-name="greater" unicode="&#x3e;" horiz-adv-x="600" 
d="M510 412v-118l-420 -202v122l296 135l-296 136v129z" />
    <glyph glyph-name="question" unicode="?" horiz-adv-x="480" 
d="M195 -6c-54 0 -81 26.667 -81 80c0 54 27 81 81 81s81 -27 81 -81c0 -53.333 -27 -80 -81 -80zM136 231c0 29.333 4.16797 53.833 12.501 73.5s18.833 36.5 31.5 50.5s26.167 26.333 40.5 37s27.833 21.5 40.5 32.5s23.167 23.5 31.5 37.5s12.5 31.333 12.5 52
c0 26.667 -8.33301 47.5 -25 62.5s-43.334 22.5 -80.001 22.5c-32.667 0 -61.667 -5.33301 -87 -16s-48 -23 -68 -37v133c21.333 9.33301 46.333 17.333 75 24s61 10 97 10c76.667 0 132.167 -15.667 166.5 -47s51.5 -76.333 51.5 -135
c0 -32.667 -4.5 -59.834 -13.5 -81.501s-20.333 -40.167 -34 -55.5s-28.5 -28.666 -44.5 -39.999s-30.833 -22.666 -44.5 -33.999s-25 -23.833 -34 -37.5s-13.5 -30.834 -13.5 -51.501h-115z" />
    <glyph glyph-name="at" unicode="@" horiz-adv-x="900" 
d="M466 -133c-66 0 -123.665 10.3281 -172.998 30.9951s-90.333 49.5 -123 86.5s-57.167 81 -73.5 132s-24.5 106.833 -24.5 167.5c0 60 8.16699 116 24.5 168s40.833 97 73.5 135s73.5 68 122.5 90s105.833 33 170.5 33c56 0 106.667 -8.66699 152 -26
s83.666 -42.5 114.999 -75.5s55.5 -73 72.5 -120s25.5 -100.5 25.5 -160.5c0 -87.333 -16.5 -153.166 -49.5 -197.499s-77.167 -66.5 -132.5 -66.5c-35.333 0 -61.333 7.33301 -78 22s-28 38 -34 70c-15.333 -61.333 -56.333 -92 -123 -92c-52 0 -90.333 17.833 -115 53.5
s-37 92.834 -37 171.501c0 78 14.167 135.167 42.5 171.5s67.833 54.5 118.5 54.5c33.333 0 57.666 -7.16699 72.999 -21.5s26.333 -30.833 33 -49.5l8 61h84v-299c0 -23.333 3.33301 -40.166 10 -50.499s17.667 -15.5 33 -15.5c12 0 23.5 3.16699 34.5 9.5
s20.667 16.833 29 31.5s15.166 33.5 20.499 56.5s8 51.5 8 85.5c0 98 -24.333 174.667 -73 230s-121.667 83 -219 83c-53.333 0 -99.5 -8.5 -138.5 -25.5s-71.333 -41 -97 -72s-44.667 -68.167 -57 -111.5s-18.5 -91.333 -18.5 -144c0 -47.333 5.66699 -91.666 17 -132.999
s29.5 -77.5 54.5 -108.5s57.667 -55.5 98 -73.5s89.166 -27 146.499 -27c30 0 60.833 3.83301 92.5 11.5s57.834 18.834 78.501 33.501v-84c-25.333 -10 -52.166 -18.333 -80.499 -25s-58.5 -10 -90.5 -10zM439.002 143.995c28 0 48 10.499 60 31.499s18 51.5 18 91.5v53
c0 42 -6.16699 71.5 -18.5 88.5s-31.166 25.5 -56.499 25.5c-28 0 -48.5 -10.667 -61.5 -32s-19.5 -58.333 -19.5 -111c0 -51.333 5.16699 -88.666 15.5 -111.999s31.166 -35 62.499 -35z" />
    <glyph glyph-name="A" unicode="A" horiz-adv-x="640" 
d="M249 700h143l233 -700h-133l-52 166h-246l-52 -166h-127zM227 273h180l-89 287z" />
    <glyph glyph-name="B" unicode="B" horiz-adv-x="625" 
d="M307 -6c-25.333 0 -50.834 0.501953 -76.501 1.50195s-49.167 2.16699 -70.5 3.5l-71 6v690c22.667 1.33301 46.334 3 71.001 5c21.333 1.33301 44.666 2.66602 69.999 3.99902s50.333 2 75 2c48.667 0 89.334 -3.66699 122.001 -11s58.834 -18.5 78.501 -33.5
s33.5 -34.167 41.5 -57.5s12 -51 12 -83c0 -83.333 -37.667 -135.333 -113 -156c43.333 -6 76.666 -22.667 99.999 -50s35 -66 35 -116c0 -34.667 -4.5 -64.834 -13.5 -90.501s-24.167 -47 -45.5 -64s-49.5 -29.667 -84.5 -38s-78.5 -12.5 -130.5 -12.5zM448.999 208.002
c0 34 -9 58.834 -27 74.501s-51 23.5 -99 23.5h-106v-197c10 -0.666992 20.667 -1.33398 32 -2.00098c9.33301 -0.666992 20.166 -1 32.499 -1h38.5c24.667 0 45.334 1.83301 62.001 5.5s30 9.66699 40 18s17 19 21 32s6 28.5 6 46.5zM426.999 502.003
c0 33.333 -8.00195 57 -24.002 71s-46.333 21 -91 21c-13.333 0 -25.666 -0.166992 -36.999 -0.5s-21.333 -0.833008 -30 -1.5c-10 -0.666992 -19.333 -1 -28 -1v-184h96c42.667 0 72.334 7.5 89.001 22.5s25 39.167 25 72.5z" />
    <glyph glyph-name="C" unicode="C" horiz-adv-x="575" 
d="M362 -13c-54 0 -100.835 6.66797 -140.502 20.001s-72.667 34.666 -99 63.999s-45.833 67.333 -58.5 114s-19 103.334 -19 170.001c0 126 26.333 217.167 79 273.5s131.334 84.5 236.001 84.5c24 0 46.5 -1.66699 67.5 -5s39.167 -7 54.5 -11
c18 -4.66699 34.667 -10 50 -16v-129c-19.333 11.333 -42.5 21.166 -69.5 29.499s-59.833 12.5 -98.5 12.5c-31.333 0 -58.666 -4.16699 -81.999 -12.5s-42.833 -22 -58.5 -41s-27.334 -43.667 -35.001 -74s-11.5 -67.5 -11.5 -111.5c0 -46 4 -85 12 -117
s19.833 -57.667 35.5 -77s35.167 -33.333 58.5 -42s50.666 -13 81.999 -13c39.333 0 73.5 5.33301 102.5 16s51.5 21.667 67.5 33v-129c-14.667 -7.33301 -30.667 -14 -48 -20c-15.333 -5.33301 -33.666 -9.83301 -54.999 -13.5s-44.666 -5.5 -69.999 -5.5z" />
    <glyph glyph-name="D" unicode="D" horiz-adv-x="680" 
d="M290 -6c-22.667 0 -45.833 0.501953 -69.5 1.50195s-45.167 2.16699 -64.5 3.5l-67 6v690c22 1.33301 44.667 3 68 5c20 1.33301 42.167 2.66602 66.5 3.99902s48.833 2 73.5 2c59.333 0 110.333 -6.5 153 -19.5s77.667 -33.5 105 -61.5s47.5 -64.167 60.5 -108.5
s19.5 -97.5 19.5 -159.5c0 -124.667 -28.5 -216.334 -85.5 -275.001s-143.5 -88 -259.5 -88zM503.001 357.002c0 42.667 -3.83105 78.667 -11.498 108s-19.667 53 -36 71s-37.333 31 -63 39s-56.5 12 -92.5 12c-10.667 0 -21 -0.166992 -31 -0.5s-18.667 -0.833008 -26 -1.5
c-9.33301 -0.666992 -18 -1.33398 -26 -2.00098v-466l23 -2c7.33301 -0.666992 15.5 -1.16699 24.5 -1.5s18.5 -0.5 28.5 -0.5c36 0 67.167 4.33301 93.5 13s48.166 22.834 65.499 42.501s30.166 45 38.499 76s12.5 68.5 12.5 112.5z" />
    <glyph glyph-name="E" unicode="E" horiz-adv-x="575" 
d="M89 700h436v-114h-308v-176h268v-107h-268v-189h308v-114h-436v700z" />
    <glyph glyph-name="F" unicode="F" horiz-adv-x="545" 
d="M89 700h416v-114h-288v-196h258v-114h-258v-276h-128v700z" />
    <glyph glyph-name="G" unicode="G" horiz-adv-x="650" 
d="M373 -13c-56.667 0 -105.503 6.66699 -146.503 20s-75 34.833 -102 64.5s-47 67.667 -60 114s-19.5 102.5 -19.5 168.5c0 125.333 27.167 216.5 81.5 273.5s136.5 85.5 246.5 85.5c26 0 49.5 -1.66699 70.5 -5s39.167 -7 54.5 -11c17.333 -4.66699 33 -10 47 -16v-129
c-19.333 10.667 -43.833 20.334 -73.5 29.001s-62.5 13 -98.5 13c-33.333 0 -62.166 -4.33301 -86.499 -13s-44.666 -22.5 -60.999 -41.5s-28.5 -43.667 -36.5 -74s-12 -67.166 -12 -110.499c0 -46.667 4 -85.834 12 -117.501s20 -57.334 36 -77.001s36.333 -33.667 61 -42
s53.667 -12.5 87 -12.5c19.333 0 36.333 1.33301 51 4s28.334 5.66699 41.001 9v153h-112v107h232v-342c-19.333 -10.667 -47 -21.667 -83 -33s-79 -17 -129 -17z" />
    <glyph glyph-name="H" unicode="H" horiz-adv-x="720" 
d="M89 700h128v-285h286v285h128v-700h-128v301h-286v-301h-128v700z" />
    <glyph glyph-name="I" unicode="I" horiz-adv-x="330" 
d="M101 700h128v-700h-128v700z" />
    <glyph glyph-name="J" unicode="J" horiz-adv-x="420" 
d="M140 -13c-17.333 0 -32.666 0.833984 -45.999 2.50098s-24.666 3.5 -33.999 5.5c-11.333 2.66699 -21.333 5.66699 -30 9v129c6.66699 -5.33301 14.667 -10 24 -14c7.33301 -3.33301 16.666 -6.33301 27.999 -9s23.666 -4 36.999 -4c30 0 51.667 7.5 65 22.5
s20 42.5 20 82.5v489h127v-489c0 -42 -3.5 -77.333 -10.5 -106s-18.333 -51.834 -34 -69.501s-35.5 -30.167 -59.5 -37.5s-53 -11 -87 -11z" />
    <glyph glyph-name="K" unicode="K" horiz-adv-x="655" 
d="M279 299h-62v-299h-128v700h128v-286h62l187 286h149l-230 -341l250 -359h-154z" />
    <glyph glyph-name="L" unicode="L" horiz-adv-x="530" 
d="M89 700h128v-586h288v-114h-416v700z" />
    <glyph glyph-name="M" unicode="M" horiz-adv-x="850" 
d="M89 700h162l177 -405l176 405h157v-700h-123v421v29c0 8.66699 0.166992 17 0.5 25l1 24.5c0.333008 8.33301 1.16602 17.833 2.49902 28.5h-3l-10.5 -28.5l-9 -24.5c-3 -8 -6.33301 -16.167 -10 -24.5l-12.5 -29.5l-119 -270h-106l-119 270l-12.5 29.5
c-3.66699 8.33301 -7 16.5 -10 24.5l-9 24.5l-10.5 28.5h-3c0.666992 -10.667 1.33398 -20.167 2.00098 -28.5s1.16699 -16.5 1.5 -24.5s0.5 -16.333 0.5 -25v-29v-421h-123v700z" />
    <glyph glyph-name="N" unicode="N" horiz-adv-x="740" 
d="M89 700h150.001l230 -397l22 -42l18 -36c6 -12 11.333 -24 16 -36h2l-2 36c-0.666992 10.667 -1.16699 22.667 -1.5 36s-0.5 27.333 -0.5 42v397h128v-700h-150l-230 397c-8.66699 15.333 -16.334 29.666 -23.001 42.999l-18 36c-6 12 -11 23.667 -15 35h-2l2 -35
c0.666992 -10.667 1.16699 -22.667 1.5 -36s0.5 -27.666 0.5 -42.999v-397h-128v700z" />
    <glyph glyph-name="O" unicode="O" horiz-adv-x="710" 
d="M355 -13c-102 0 -179.168 28.5 -231.501 85.5s-78.5 149.5 -78.5 277.5c0 126.667 26.5 218.834 79.5 276.501s129.833 86.5 230.5 86.5c52 0 97.5 -6.66699 136.5 -20s71.333 -34.5 97 -63.5s44.834 -66.5 57.501 -112.5s19 -101.667 19 -167
c0 -126.667 -26.5 -218.834 -79.5 -276.501s-129.833 -86.5 -230.5 -86.5zM354.999 102c29.333 0 55 4.16797 77 12.501s40.5 22.166 55.5 41.499s26.333 44.833 34 76.5s11.5 70.834 11.5 117.501s-3.83301 85.834 -11.5 117.501s-19 57.167 -34 76.5
s-33.5 33.166 -55.5 41.499s-47.667 12.5 -77 12.5s-55 -4.16699 -77 -12.5s-40.5 -22.166 -55.5 -41.499s-26.333 -44.833 -34 -76.5s-11.5 -70.834 -11.5 -117.501c0 -46 3.83301 -84.833 11.5 -116.5s19 -57.334 34 -77.001s33.667 -33.667 56 -42
s47.833 -12.5 76.5 -12.5z" />
    <glyph glyph-name="P" unicode="P" horiz-adv-x="620" 
d="M89 695c22 1.33301 44.666 3 67.999 5c20 1.33301 42.333 2.66602 67 3.99902s49.334 2 74.001 2c50.667 0 93.667 -4.66699 129 -14s64 -24 86 -44s37.833 -45.333 47.5 -76s14.5 -67 14.5 -109c0 -85.333 -22 -149 -66 -191s-114.333 -63 -211 -63h-31.5
c-9.66699 0 -18.167 0.333008 -25.5 1c-8.66699 0.666992 -16.667 1.33398 -24 2.00098v-212h-128v695zM442.999 463c0 22 -2.33398 40.835 -7.00098 56.502s-12.667 28.5 -24 38.5s-26.333 17.333 -45 22s-41.667 7 -69 7c-11.333 0 -21.833 -0.166992 -31.5 -0.5
s-18.167 -0.833008 -25.5 -1.5c-8.66699 -0.666992 -16.667 -1.33398 -24 -2.00098v-252c7.33301 -0.666992 15.333 -1.33398 24 -2.00098c7.33301 -0.666992 15.833 -1 25.5 -1h31.5c26.667 0 49.334 2.5 68.001 7.5s33.667 12.833 45 23.5s19.5 24.5 24.5 41.5
s7.5 37.833 7.5 62.5z" />
    <glyph glyph-name="Q" unicode="Q" horiz-adv-x="710" 
d="M342 -13c-48.667 1.33301 -91.501 9.16797 -128.501 23.501s-68 36.166 -93 65.499s-43.833 66.666 -56.5 111.999s-19 99.333 -19 162c0 126.667 26.5 218.834 79.5 276.501s129.833 86.5 230.5 86.5c52 0 97.5 -6.66699 136.5 -20s71.333 -34.5 97 -63.5
s44.834 -66.5 57.501 -112.5s19 -101.667 19 -167c0 -97.333 -15.667 -174 -47 -230s-77.333 -94.333 -138 -115l128 -165h-153zM354.999 102.002c29.333 0 55 4.16797 77 12.501s40.5 22.166 55.5 41.499s26.333 44.833 34 76.5s11.5 70.834 11.5 117.501
s-3.83301 85.834 -11.5 117.501s-19 57.167 -34 76.5s-33.5 33.166 -55.5 41.499s-47.667 12.5 -77 12.5s-55 -4.16699 -77 -12.5s-40.5 -22.166 -55.5 -41.499s-26.333 -44.833 -34 -76.5s-11.5 -70.834 -11.5 -117.501c0 -46 3.83301 -84.833 11.5 -116.5
s19 -57.334 34 -77.001s33.667 -33.667 56 -42s47.833 -12.5 76.5 -12.5z" />
    <glyph glyph-name="R" unicode="R" horiz-adv-x="640" 
d="M323 247l-21.0029 0.00195312h-85v-247h-128v695c21.333 1.33301 43.333 3 66 5c19.333 1.33301 41.333 2.66602 66 3.99902s49.334 2 74.001 2c48.667 0 89.834 -4.33301 123.501 -13s60.834 -22.334 81.501 -41.001s35.667 -42.167 45 -70.5s14 -61.833 14 -100.5
c0 -55.333 -8.83301 -100.333 -26.5 -135s-46.5 -60 -86.5 -76l155 -270h-142zM426.997 474.002c0 40.667 -9.33301 69.667 -28 87s-51 26 -97 26c-11.333 0 -22.333 -0.166992 -33 -0.5s-20 -0.833008 -28 -1.5c-9.33301 -0.666992 -18.333 -1 -27 -1v-223h88
c44.667 0 76.667 9.16699 96 27.5s29 46.833 29 85.5z" />
    <glyph glyph-name="S" unicode="S" horiz-adv-x="580" 
d="M283 -13c-44.667 0 -85.498 5.00293 -122.498 15.0029s-66.833 22 -89.5 36v139c8.66699 -8 19.834 -16.167 33.501 -24.5s29.167 -16 46.5 -23s36.666 -12.667 57.999 -17s44 -6.5 68 -6.5c42.667 0 72.834 7.5 90.501 22.5s26.5 35.5 26.5 61.5
c0 25.333 -8.16699 45.166 -24.5 59.499s-36.5 26.666 -60.5 36.999s-50.333 20.166 -79 29.499s-55 21.666 -79 36.999s-44.167 35.5 -60.5 60.5s-24.5 58.167 -24.5 99.5c0 64 19 113.333 57 148s99.333 52 184 52c38.667 0 74.5 -3.33301 107.5 -10s60.167 -15 81.5 -25
v-139c-22 17.333 -49.5 30.833 -82.5 40.5s-66.5 14.5 -100.5 14.5c-22.667 0 -41.334 -1.66699 -56.001 -5s-26.334 -8 -35.001 -14s-14.834 -13.667 -18.501 -23s-5.5 -20 -5.5 -32c0 -24 8.16699 -42.667 24.5 -56s36.5 -24.833 60.5 -34.5s50.333 -19.167 79 -28.5
s55 -21.833 79 -37.5s44.167 -36.667 60.5 -63s24.5 -60.833 24.5 -103.5c0 -67.333 -19.5 -119.166 -58.5 -155.499s-100.5 -54.5 -184.5 -54.5z" />
    <glyph glyph-name="T" unicode="T" horiz-adv-x="580" 
d="M226 586h-196v114h520v-114h-196v-586h-128v586z" />
    <glyph glyph-name="U" unicode="U" horiz-adv-x="670" 
d="M335 -13c-45.333 0 -84.335 5.33398 -117.002 16.001s-59.5 27.5 -80.5 50.5s-36.667 52.667 -47 89s-15.5 80.5 -15.5 132.5v425h127v-414c0 -35.333 2.5 -64.666 7.5 -87.999s12.833 -41.833 23.5 -55.5s24.334 -23.167 41.001 -28.5s37 -8 61 -8s44.5 2.66699 61.5 8
s30.833 14.666 41.5 27.999s18.334 31.666 23.001 54.999s7 53 7 89v414h127v-425c0 -51.333 -5.16699 -95.333 -15.5 -132s-26.166 -66.5 -47.499 -89.5s-48.333 -39.833 -81 -50.5s-71.334 -16 -116.001 -16z" />
    <glyph glyph-name="V" unicode="V" horiz-adv-x="620" 
d="M15 700h137l166 -551l155 551h132l-210 -700h-160z" />
    <glyph glyph-name="W" unicode="W" horiz-adv-x="900" 
d="M25 700h136.001l81 -415l5.5 -28.5c1.66699 -8.33301 3 -16.5 4 -24.5s2.16699 -16.167 3.5 -24.5s2.66602 -17.833 3.99902 -28.5h4l8.5 53c2.33301 14 6.16602 31.667 11.499 53l95 415h145l97 -415c2.66699 -10.667 4.83398 -20.167 6.50098 -28.5l5 -24.5l5 -24.5
l5.5 -28.5h3c2.66699 21.333 5.16699 39 7.5 53s5.5 31.667 9.5 53l82 415h131l-142 -700h-159l-101 431c-3.33301 13.333 -6.33301 26.5 -9 39.5l-7 34.5c-2.66699 12 -5 23 -7 33h-3c-1.33301 -10 -3.33301 -21 -6 -33l-7 -34.5c-2.66699 -13 -5.66699 -26.167 -9 -39.5
l-99 -431h-159z" />
    <glyph glyph-name="X" unicode="X" horiz-adv-x="630" 
d="M231 358l-200 342h148l138 -240l137 240h145l-200 -339l211 -361h-151l-146 258l-147 -258h-146z" />
    <glyph glyph-name="Y" unicode="Y" horiz-adv-x="610" 
d="M246 259l-231 441h146l150 -298l144 298h140l-221 -441v-259h-128v259z" />
    <glyph glyph-name="Z" unicode="Z" horiz-adv-x="590" 
d="M45 77l325 509h-315v114h480v-77l-325 -509h335v-114h-500v77z" />
    <glyph glyph-name="bracketleft" unicode="[" horiz-adv-x="380" 
d="M93 757h258v-103h-144v-731h144v-103h-258v937z" />
    <glyph glyph-name="backslash" unicode="\" horiz-adv-x="400" 
d="M5 757h116l274 -937h-116z" />
    <glyph glyph-name="bracketright" unicode="]" horiz-adv-x="380" 
d="M29 -77h144v731h-144v103h258v-937h-258v103z" />
    <glyph glyph-name="asciicircum" unicode="^" horiz-adv-x="600" 
d="M249 700h102l179 -347h-101l-131 261l-130 -261h-98z" />
    <glyph glyph-name="underscore" unicode="_" horiz-adv-x="420" 
d="M0 -100h420v-80h-420v80z" />
    <glyph glyph-name="grave" unicode="`" horiz-adv-x="300" 
d="M29 769h158l84 -151h-100z" />
    <glyph glyph-name="a" unicode="a" horiz-adv-x="535" 
d="M198 -13c-52 0 -91.5039 13.666 -118.504 40.999s-40.5 67.333 -40.5 120c0 28 3.66699 52.333 11 73s19.333 37.834 36 51.501s38.334 24 65.001 31s59.334 10.5 98.001 10.5h100v36c0 31.333 -7.66699 53.5 -23 66.5s-43.666 19.5 -84.999 19.5
c-31.333 0 -61.166 -4 -89.499 -12s-51.166 -17.667 -68.499 -29v120c20 8.66699 45.667 16 77 22s65 9 101 9c38.667 0 71.5 -3.33301 98.5 -10s48.667 -17.667 65 -33s28.166 -35.333 35.499 -60s11 -55 11 -91v-352h-110l-5 85c-10 -26.667 -28 -49.667 -54 -69
s-60.667 -29 -104 -29zM241.996 90.999c33.333 0 59.5 9.83301 78.5 29.5s28.5 48.5 28.5 86.5v29h-86c-37.333 0 -63 -6.16699 -77 -18.5s-21 -31.833 -21 -58.5c0 -22.667 6 -39.667 18 -51s31.667 -17 59 -17z" />
    <glyph glyph-name="b" unicode="b" horiz-adv-x="590" 
d="M344 -13c-22 0 -41.3379 2.66992 -58.0049 8.00293s-31.167 12.166 -43.5 20.499s-22.666 18 -30.999 29s-15.166 22.167 -20.499 33.5l-5 -78h-117v757h122v-303c6.66699 12.667 14.834 24.667 24.501 36s21.167 21.166 34.5 29.499s28.833 14.833 46.5 19.5
s37.834 7 60.501 7c32.667 0 61.167 -5 85.5 -15s44.5 -25.833 60.5 -47.5s28 -49.834 36 -84.501s12 -77 12 -127c0 -102 -17.167 -175 -51.5 -219s-86.166 -66 -155.499 -66zM308.995 97.0029c19.333 0 36.333 2.66602 51 7.99902s26.834 14.833 36.501 28.5
s16.834 31.667 21.501 54s7 50.5 7 84.5c0 31.333 -2.33301 57.5 -7 78.5s-11.834 37.833 -21.501 50.5s-21.667 21.667 -36 27s-30.833 8 -49.5 8c-38.667 0 -68.334 -11.167 -89.001 -33.5s-31 -58.166 -31 -107.499v-56c0 -48.667 10.5 -84.5 31.5 -107.5
s49.833 -34.5 86.5 -34.5z" />
    <glyph glyph-name="c" unicode="c" horiz-adv-x="475" 
d="M295 -13c-44 0 -82.166 5.16504 -114.499 15.498s-59 27 -80 50s-36.5 52.5 -46.5 88.5s-15 79.667 -15 131c0 94.667 21.333 164 64 208s105.667 66 189 66c20.667 0 39.667 -1.16699 57 -3.5s32.333 -5.16602 45 -8.49902s22.834 -6.5 30.501 -9.5
s12.5 -4.83301 14.5 -5.5v-127c-16 12 -34.833 22.333 -56.5 31s-47.5 13 -77.5 13c-48 0 -83.333 -12.5 -106 -37.5s-34 -67.167 -34 -126.5c0 -63.333 12.167 -108.333 36.5 -135s62.166 -40 113.499 -40c25.333 0 50 4.33301 74 13s42.667 19.334 56 32.001v-121
c-2 -1.33301 -7 -3.83301 -15 -7.5s-18.5 -7.5 -31.5 -11.5s-28.333 -7.5 -46 -10.5s-36.834 -4.5 -57.501 -4.5z" />
    <glyph glyph-name="d" unicode="d" horiz-adv-x="590" 
d="M399 81c-5.33301 -11.333 -12.501 -22.5 -21.501 -33.5s-20 -21 -33 -30s-28.333 -16.333 -46 -22s-37.5 -8.5 -59.5 -8.5c-34 0 -63.5 5.16699 -88.5 15.5s-45.833 26.833 -62.5 49.5s-29 52 -37 88s-12 80 -12 132c0 96 16.833 165.667 50.5 209s84.834 65 153.501 65
c39.333 0 72 -8 98 -24s45.333 -38 58 -66v301h122v-757h-117zM164.999 272c0 -34 2.50098 -62.168 7.50098 -84.501s12.333 -40.166 22 -53.499s21.667 -22.833 36 -28.5s31.166 -8.5 50.499 -8.5c36.667 0 65.5 11.5 86.5 34.5s31.5 59.167 31.5 108.5v56
c0 93.333 -39.667 140 -119 140c-38.667 0 -67.5 -11.833 -86.5 -35.5s-28.5 -66.5 -28.5 -128.5z" />
    <glyph glyph-name="e" unicode="e" horiz-adv-x="550" 
d="M293 -13c-90.667 0 -155.669 23.335 -195.002 70.002s-59 119 -59 217c0 92 21.167 160.333 63.5 205s101.5 67 177.5 67c82.667 0 141.834 -21.5 177.501 -64.5s53.5 -105.833 53.5 -188.5v-58h-350c2 -50.667 14.5 -87.334 37.5 -110.001s59.167 -34 108.5 -34
c34 0 66.833 5.5 98.5 16.5s56.167 24.5 73.5 40.5v-113c-19.333 -12.667 -43.666 -23.834 -72.999 -33.501s-67 -14.5 -113 -14.5zM279.998 450.002c-38 0 -66.667 -10.833 -86 -32.5s-30.333 -56.5 -33 -104.5h228c0 44.667 -7.66699 78.667 -23 102s-44 35 -86 35z" />
    <glyph glyph-name="f" unicode="f" horiz-adv-x="400" 
d="M116 427h-85.998v107h86v59c0 60 12.5 103.333 37.5 130s67.5 40 127.5 40c19.333 0 36.166 -1 50.499 -3s27.166 -4.33301 38.499 -7v-113c-6 3.33301 -14.667 6.33301 -26 9s-25 4 -41 4c-22.667 0 -39.167 -6 -49.5 -18s-15.5 -31.667 -15.5 -59v-42h132v-107h-132
v-427h-122v427z" />
    <glyph glyph-name="g" unicode="g" horiz-adv-x="590" 
d="M263 -193c-39.333 0 -74.833 3.49609 -106.5 10.4961s-56.167 14.833 -73.5 23.5v130c6.66699 -6 15.667 -12.167 27 -18.5s24.666 -12.166 39.999 -17.499s32.666 -9.66602 51.999 -12.999s40.333 -5 63 -5c47.333 0 81.5 10.333 102.5 31s31.5 53.334 31.5 98.001v59
c-5.33301 -11.333 -12.5 -22.5 -21.5 -33.5s-20 -21 -33 -30s-28.333 -16.333 -46 -22s-37.5 -8.5 -59.5 -8.5c-67.333 0 -117.5 20.833 -150.5 62.5s-49.5 108.834 -49.5 201.501c0 95.333 16.833 164.333 50.5 207s84.834 64 153.501 64c39.333 0 72 -8 98 -24
s45.333 -38 58 -66l5 78h117v-480c0 -88 -21.167 -151.167 -63.5 -189.5s-107.166 -57.5 -194.499 -57.5zM280 120.996c37.333 0 66.5 11.5 87.5 34.5s31.5 58.167 31.5 105.5v40c0 44 -10 77.5 -30 100.5s-49.667 34.5 -89 34.5c-38.667 0 -67.5 -11.333 -86.5 -34
s-28.5 -62 -28.5 -118c0 -61.333 9.66699 -103.833 29 -127.5s48 -35.5 86 -35.5z" />
    <glyph glyph-name="h" unicode="h" horiz-adv-x="585" 
d="M69 757l121.999 -0.00195312v-305c28.667 62.667 80.667 94 156 94c56.667 0 99.834 -15.167 129.501 -45.5s44.5 -80.166 44.5 -149.499v-351h-122v307c0 50 -8 84 -24 102s-41.667 27 -77 27c-34 0 -60.333 -10.167 -79 -30.5s-28 -53.166 -28 -98.499v-307h-122v757z
" />
    <glyph glyph-name="i" unicode="i" horiz-adv-x="290" 
d="M84 534h122v-534h-122v534zM145 626c-49.333 0 -74 22.667 -74 68s24.667 68 74 68s74 -22.667 74 -68s-24.667 -68 -74 -68z" />
    <glyph glyph-name="j" unicode="j" horiz-adv-x="290" 
d="M62 -186c-20 0 -37.833 1.66895 -53.5 5.00195s-24.5 5.66602 -26.5 6.99902v114c7.33301 -4.66699 15.333 -8.5 24 -11.5s18 -4.5 28 -4.5c17.333 0 30 4.66699 38 14s12 26.666 12 51.999v544h122v-550c0 -61.333 -12 -105 -36 -131s-60 -39 -108 -39zM145 626.002
c-49.333 0 -74 22.667 -74 68s24.667 68 74 68s74 -22.667 74 -68s-24.667 -68 -74 -68z" />
    <glyph glyph-name="k" unicode="k" horiz-adv-x="555" 
d="M69 757h122v-427h49l136 204h137l-177 -254l195 -280h-142l-148 223h-50v-223h-122v757z" />
    <glyph glyph-name="l" unicode="l" horiz-adv-x="315" 
d="M205 -6c-49.333 0 -85.165 11.332 -107.498 33.999s-33.5 60 -33.5 112v617h122v-593c0 -22.667 3.66699 -38 11 -46s19.666 -12 36.999 -12c11.333 0 22.166 1.83301 32.499 5.5s16.5 6.16699 18.5 7.5v-110c-2 -1.33301 -10.333 -4.16602 -25 -8.49902
s-33 -6.5 -55 -6.5z" />
    <glyph glyph-name="m" unicode="m" horiz-adv-x="835" 
d="M69 534h116.999l5 -83c26.667 63.333 74.334 95 143.001 95c37.333 0 67.333 -9.33301 90 -28s37.667 -45 45 -79c14 39.333 33.667 67 59 83s57 24 95 24c46 0 82.167 -14.5 108.5 -43.5s39.5 -76.167 39.5 -141.5v-361h-122v327c0 41.333 -6.83301 69.833 -20.5 85.5
s-34.167 23.5 -61.5 23.5c-26.667 0 -47.667 -8.66699 -63 -26s-23 -45 -23 -83v-327h-122v327c0 41.333 -6.66699 69.833 -20 85.5s-33.333 23.5 -60 23.5c-28 0 -49.667 -8.66699 -65 -26s-23 -45 -23 -83v-327h-122v534z" />
    <glyph glyph-name="n" unicode="n" horiz-adv-x="585" 
d="M69 534l116.999 -0.000976562l5 -82c28.667 62.667 80.667 94 156 94c56.667 0 99.834 -15.167 129.501 -45.5s44.5 -80.166 44.5 -149.499v-351h-122v310c0 24 -2 44.167 -6 60.5s-10 29.333 -18 39s-18.333 16.5 -31 20.5s-28 6 -46 6c-34 0 -60.333 -10 -79 -30
s-28 -52 -28 -96v-310h-122v534z" />
    <glyph glyph-name="o" unicode="o" horiz-adv-x="570" 
d="M285 -13c-81.333 0 -142.666 22.168 -183.999 66.501s-62 115.5 -62 213.5c0 95.333 21.333 165.666 64 210.999s103.334 68 182.001 68c83.333 0 145.166 -21.5 185.499 -64.5s60.5 -114.5 60.5 -214.5c0 -98 -20.833 -169.167 -62.5 -213.5
s-102.834 -66.5 -183.501 -66.5zM285 97.001c20 0 37.499 2.83301 52.499 8.5s27.5 15 37.5 28s17.5 30.5 22.5 52.5s7.5 49 7.5 81s-2.5 58.833 -7.5 80.5s-12.5 39 -22.5 52s-22.5 22.333 -37.5 28s-32.5 8.5 -52.5 8.5c-39.333 0 -69.166 -12.5 -89.499 -37.5
s-30.5 -68.833 -30.5 -131.5c0 -32 2.5 -59 7.5 -81s12.5 -39.5 22.5 -52.5s22.5 -22.333 37.5 -28s32.5 -8.5 52.5 -8.5z" />
    <glyph glyph-name="p" unicode="p" horiz-adv-x="590" 
d="M69 534l116.995 0.00292969l5 -80c6.66699 12.667 14.834 24.667 24.501 36s21.167 21.166 34.5 29.499s28.833 14.833 46.5 19.5s37.834 7 60.501 7c32.667 0 61.167 -5 85.5 -15s44.5 -25.833 60.5 -47.5s28 -49.834 36 -84.501s12 -77 12 -127
c0 -102 -17.167 -175 -51.5 -219s-86.166 -66 -155.499 -66c-22 0 -41.333 2.66699 -58 8s-31.167 12.166 -43.5 20.499s-22.666 18 -30.999 29s-15.166 22.167 -20.499 33.5v-258h-122v714zM424.995 272.003c0 31.333 -2.33496 57.499 -7.00195 78.499
s-11.834 37.833 -21.501 50.5s-21.667 21.667 -36 27s-31.166 8 -50.499 8c-38 0 -67.333 -11.167 -88 -33.5s-31 -58.166 -31 -107.499v-56c0 -48.667 10.5 -84.5 31.5 -107.5s49.833 -34.5 86.5 -34.5c19.333 0 36.333 2.66699 51 8s26.834 14.833 36.501 28.5
s16.834 31.667 21.501 54s7 50.5 7 84.5z" />
    <glyph glyph-name="q" unicode="q" horiz-adv-x="590" 
d="M399 81c-5.33301 -11.333 -12.501 -22.5 -21.501 -33.5s-20 -21 -33 -30s-28.333 -16.333 -46 -22s-37.5 -8.5 -59.5 -8.5c-34 0 -63.5 5.16699 -88.5 15.5s-45.833 26.833 -62.5 49.5s-29 52 -37 88s-12 80 -12 132c0 96 16.833 165.667 50.5 209s84.834 65 153.501 65
c39.333 0 72 -8 98 -24s45.333 -38 58 -66l5 78h117v-714h-122v261zM164.999 272c0 -34 2.50098 -62.168 7.50098 -84.501s12.333 -40.166 22 -53.499s21.667 -22.833 36 -28.5s31.166 -8.5 50.499 -8.5c36.667 0 65.5 11.5 86.5 34.5s31.5 59.167 31.5 108.5v56
c0 93.333 -39.667 140 -119 140c-38.667 0 -67.5 -11.833 -86.5 -35.5s-28.5 -66.5 -28.5 -128.5z" />
    <glyph glyph-name="r" unicode="r" horiz-adv-x="410" 
d="M69 534l112 0.000976562l5 -85c12.667 34 30.5 58.667 53.5 74s49.5 23 79.5 23c13.333 0 24.833 -0.833008 34.5 -2.5s15.5 -2.83398 17.5 -3.50098v-127c-8 6 -18.667 11.333 -32 16s-28.666 7 -45.999 7c-32.667 0 -57.834 -10.5 -75.501 -31.5
s-26.5 -57.167 -26.5 -108.5v-296h-122v534z" />
    <glyph glyph-name="s" unicode="s" horiz-adv-x="475" 
d="M223 -13c-25.333 0 -52.332 2.66895 -80.999 8.00195s-56.334 13.666 -83.001 24.999v123c19.333 -16.667 43 -29.5 71 -38.5s58 -13.5 90 -13.5c30 0 50.833 5 62.5 15s17.5 24.667 17.5 44c0 18 -6 31.667 -18 41s-27.167 17.166 -45.5 23.499
s-38.166 12.5 -59.499 18.5s-41.166 14.667 -59.499 26s-33.5 26.5 -45.5 45.5s-18 44.833 -18 77.5c0 54.667 15.167 95.667 45.5 123s81.5 41 153.5 41c26 0 52.333 -2.33301 79 -7s49.667 -10.667 69 -18v-122c-21.333 15.333 -43.5 26.5 -66.5 33.5
s-48.833 10.5 -77.5 10.5c-29.333 0 -49.5 -4.5 -60.5 -13.5s-16.5 -22.167 -16.5 -39.5c0 -16.667 6 -29.167 18 -37.5s27.167 -15.5 45.5 -21.5s38.166 -12 59.499 -18s41.166 -14.833 59.499 -26.5s33.5 -27.5 45.5 -47.5s18 -46.667 18 -80
c0 -57.333 -15.667 -100.333 -47 -129s-83.333 -43 -156 -43z" />
    <glyph glyph-name="t" unicode="t" horiz-adv-x="435" 
d="M273 -6c-56.667 0 -96.999 13.5 -120.999 40.5s-36 72.167 -36 135.5v257h-86v107h86v98l122 42v-140h152v-107h-152v-243c0 -28.667 4.66699 -49.167 14 -61.5s25.666 -18.5 48.999 -18.5c18 0 34.5 2.66699 49.5 8s28.167 12.333 39.5 21v-114
c-9.33301 -6 -24.333 -11.667 -45 -17s-44.667 -8 -72 -8z" />
    <glyph glyph-name="u" unicode="u" horiz-adv-x="580" 
d="M237 -13c-55.333 0 -98 15.333 -128 46s-45 80.667 -45 150v351h122v-310c0 -48.667 7.66699 -82 23 -100s40 -27 74 -27s60.167 10.167 78.5 30.5s27.5 52.5 27.5 96.5v310h122v-534h-117l-5 81c-29.333 -62.667 -80 -94 -152 -94z" />
    <glyph glyph-name="v" unicode="v" horiz-adv-x="520" 
d="M15 534h132l116 -394l117 394h125l-174 -534h-142z" />
    <glyph glyph-name="w" unicode="w" horiz-adv-x="760" 
d="M24 534h127l66 -305c2 -10 3.83301 -19.833 5.5 -29.5l4.5 -25.5l4 -25h2c0.666992 8 2 16.333 4 25c2 16 5.66699 34.333 11 55l74 305h118l76 -305c2.66699 -10 5 -19.833 7 -29.5s3.66699 -18.167 5 -25.5c2 -8.66699 3.33301 -17 4 -25h2l4 25
c1.33301 7.33301 2.66602 15.833 3.99902 25.5s3.33301 19.5 6 29.5l66 305h122l-117 -534h-145l-77 301c-2.66699 10 -5 19.833 -7 29.5s-3.66699 18.167 -5 25.5l-5 25h-2l-5 -25c-1.33301 -7.33301 -3.16602 -15.833 -5.49902 -25.5s-4.5 -19.5 -6.5 -29.5l-75 -301h-145
z" />
    <glyph glyph-name="x" unicode="x" horiz-adv-x="540" 
d="M187 274l-151 260h136l100 -173l100 173h132l-151 -257l163 -277h-138l-110 194l-110 -194h-134z" />
    <glyph glyph-name="y" unicode="y" horiz-adv-x="520" 
d="M174 -193c-17.333 0 -33 1.83398 -47 5.50098s-22 6.16699 -24 7.5v112c7.33301 -4.66699 14.833 -8.33398 22.5 -11.001s16.834 -4 27.501 -4c6.66699 0 13.167 1 19.5 3s12.166 6 17.499 12s10.5 14.5 15.5 25.5s9.83301 25.167 14.5 42.5l-205 534h132l129 -366
l104 366h125l-162 -528c-13.333 -42.667 -26 -77 -38 -103s-24.5 -46.167 -37.5 -60.5s-27.167 -23.833 -42.5 -28.5s-32.333 -7 -51 -7z" />
    <glyph glyph-name="z" unicode="z" horiz-adv-x="490" 
d="M40 74l249 353h-239v107h397v-75l-249 -352h252v-107h-410v74z" />
    <glyph glyph-name="braceleft" unicode="{" horiz-adv-x="380" 
d="M289 -180c-31.333 0 -58.001 4.16797 -80.001 12.501s-40 20 -54 35s-24.167 32.833 -30.5 53.5s-9.5 43.667 -9.5 69v165c0 28.667 -6.66699 50.834 -20 66.501s-31 23.834 -53 24.501v85c22 0.666992 39.667 9 53 25s20 38 20 66v171c0 50 13.333 89.833 40 119.5
s71.334 44.5 134.001 44.5h67v-103h-45c-30.667 0 -51.834 -7.16699 -63.501 -21.5s-17.5 -35.5 -17.5 -63.5v-148c0 -36.667 -5.83301 -65.834 -17.5 -87.501s-34.834 -36.834 -69.501 -45.501c34.667 -7.33301 57.834 -22.333 69.501 -45s17.5 -52.334 17.5 -89.001v-139
c0 -28 5.83301 -50.333 17.5 -67s32.834 -25 63.501 -25h45v-103h-67z" />
    <glyph glyph-name="bar" unicode="|" horiz-adv-x="300" 
d="M93 757h114v-937h-114v937z" />
    <glyph glyph-name="braceright" unicode="}" horiz-adv-x="380" 
d="M24 -77l45 0.00195312c30.667 0 51.834 7.16699 63.501 21.5s17.5 35.5 17.5 63.5v148c0 18 1.16699 34.333 3.5 49s6.83301 27.5 13.5 38.5s15.667 20.167 27 27.5s25.666 13 42.999 17c-17.333 4 -31.666 9.83301 -42.999 17.5s-20.333 17.167 -27 28.5
s-11.167 24.5 -13.5 39.5s-3.5 31.5 -3.5 49.5v146c0 28 -5.83301 49.167 -17.5 63.5s-32.834 21.5 -63.501 21.5h-45v103h67c62.667 0 107.334 -14.833 134.001 -44.5s40 -69.5 40 -119.5v-171c0 -28.667 6.66699 -50.834 20 -66.501s31 -23.834 53 -24.501v-85
c-22 -0.666992 -39.667 -9 -53 -25s-20 -38 -20 -66v-172c0 -49.333 -13.333 -88.833 -40 -118.5s-71.334 -44.5 -134.001 -44.5h-67v103z" />
    <glyph glyph-name="asciitilde" unicode="~" horiz-adv-x="600" 
d="M90 395c12.667 14.667 27.5 27 44.5 37s37.833 15 62.5 15c22.667 0 43 -3.83301 61 -11.5s34.833 -16 50.5 -25s31 -17.333 46 -25s31.167 -11.5 48.5 -11.5c22.667 0 43.5 6 62.5 18s33.833 24.667 44.5 38v-105c-12.667 -14.667 -27.5 -27 -44.5 -37
s-37.833 -15 -62.5 -15c-22.667 0 -43 3.83301 -61 11.5s-34.833 16 -50.5 25s-31.167 17.333 -46.5 25s-31.333 11.5 -48 11.5c-22.667 0 -43.5 -6 -62.5 -18s-33.833 -24.667 -44.5 -38v105z" />
    <glyph glyph-name="uni00A0" unicode="&#xa0;" horiz-adv-x="250" 
 />
    <glyph glyph-name="exclamdown" unicode="&#xa1;" horiz-adv-x="330" 
d="M165 540c54 0 81.002 -27 81.002 -81c0 -26 -6.83301 -46 -20.5 -60s-33.834 -21 -60.501 -21s-46.834 7 -60.501 21s-20.5 34 -20.5 60c0 54 27 81 81 81zM230.002 -180h-130l10 472h110z" />
    <glyph glyph-name="cent" unicode="&#xa2;" horiz-adv-x="600" 
d="M291 -8c-67.333 10 -116.168 37.165 -146.501 81.498s-45.5 110.5 -45.5 198.5c0 80.667 15.833 142.834 47.5 186.501s79.834 70.834 144.501 81.501v94h101v-89c38.667 -2 68.667 -6.83301 90 -14.5s33.666 -12.167 36.999 -13.5v-127c-16 12 -35.667 22.667 -59 32
s-51.666 14 -84.999 14c-52.667 0 -90.834 -12.5 -114.501 -37.5s-35.5 -67.167 -35.5 -126.5c0 -63.333 12.667 -108.333 38 -135s66 -40 122 -40c28.667 0 55.834 4.66699 81.501 14s45.167 20 58.5 32v-120c-3.33301 -2.66699 -16.333 -8.5 -39 -17.5
s-54 -14.833 -94 -17.5v-108h-101v112z" />
    <glyph glyph-name="sterling" unicode="&#xa3;" horiz-adv-x="600" 
d="M48 110l99.999 -0.000976562v200h-100v93h100v75c0 28 3.83301 55.833 11.5 83.5s20.667 52.834 39 75.501s43 41 74 55s69.833 21 116.5 21c29.333 0 56.833 -2.5 82.5 -7.5s49.167 -10.5 70.5 -16.5v-111c-22.667 7.33301 -44.167 13.333 -64.5 18s-43.166 7 -68.499 7
c-46 0 -79.833 -12.5 -101.5 -37.5s-32.5 -57.5 -32.5 -97.5v-65h174v-93h-174v-200h267v-110h-494v110z" />
    <glyph glyph-name="currency" unicode="&#xa4;" horiz-adv-x="600" 
d="M425 168c-37.333 -26 -79.332 -39.0029 -125.999 -39.0029c-47.333 0 -89.666 13 -126.999 39l-63 -63l-55 54l64 64c-26.667 36.667 -40 79 -40 127c0 46.667 13 88.667 39 126l-63 64l56 56l64 -64c17.333 12 36.666 21.5 57.999 28.5s43.666 10.5 66.999 10.5
s45.833 -3.5 67.5 -10.5s41.5 -16.833 59.5 -29.5l65 65l55 -55l-66 -65c12.667 -18 22.5 -37.667 29.5 -59s10.5 -43.666 10.5 -66.999s-3.5 -45.666 -10.5 -66.999s-16.5 -40.666 -28.5 -57.999l65 -65l-56 -56zM300.001 224.997c17.333 0 33.5 3.33301 48.5 10
s28.167 15.667 39.5 27s20.333 24.5 27 39.5s10 31.167 10 48.5s-3.33301 33.5 -10 48.5s-15.667 28.167 -27 39.5s-24.5 20.333 -39.5 27s-31.167 10 -48.5 10s-33.666 -3.33301 -48.999 -10s-28.666 -15.667 -39.999 -27s-20.333 -24.5 -27 -39.5s-10 -31.167 -10 -48.5
s3.33301 -33.5 10 -48.5s15.667 -28.167 27 -39.5s24.666 -20.333 39.999 -27s31.666 -10 48.999 -10z" />
    <glyph glyph-name="yen" unicode="&#xa5;" horiz-adv-x="600" 
d="M74 349h120l-179 351h146l145 -301l139 301h140l-171 -351h122v-92h-167v-58h167v-92h-167v-107h-128v107h-167v92h167v58h-167v92z" />
    <glyph glyph-name="brokenbar" unicode="&#xa6;" horiz-adv-x="300" 
d="M93 213h114v-393h-114v393zM93 757h114v-394h-114v394z" />
    <glyph glyph-name="section" unicode="&#xa7;" horiz-adv-x="530" 
d="M236 -113c-28 0 -55.834 2.33105 -83.501 6.99805s-55.5 12 -83.5 22v103c31.333 -13.333 58.333 -22.5 81 -27.5s46.667 -7.5 72 -7.5c39.333 0 66.5 5 81.5 15s22.5 24.333 22.5 43c0 20.667 -9 37.334 -27 50.001s-45 27 -81 43
c-21.333 8.66699 -42.166 18 -62.499 28s-38.333 21.833 -54 35.5s-28.334 29.5 -38.001 47.5s-14.5 39 -14.5 63c0 28 7.66699 53.167 23 75.5s36.333 42.166 63 59.499c-21.333 14.667 -36.833 30.834 -46.5 48.501s-14.5 38.834 -14.5 63.501
c0 22.667 4.33301 43.5 13 62.5s21.834 35.5 39.501 49.5s39.834 25 66.501 33s58 12 94 12c34 0 64 -3 90 -9s47.667 -11.667 65 -17v-101c-32.667 11.333 -59.834 19.166 -81.501 23.499s-42.167 6.5 -61.5 6.5c-12 0 -23.667 -0.833008 -35 -2.5
s-21.333 -4.83398 -30 -9.50098s-15.667 -10.667 -21 -18s-8 -17 -8 -29c0 -9.33301 1.33301 -17.333 4 -24s7.5 -13.167 14.5 -19.5s16.5 -12.666 28.5 -18.999s27 -13.833 45 -22.5l67.5 -31.5c22.333 -10.333 42 -22 59 -35s30.833 -28.167 41.5 -45.5s16 -38.333 16 -63
c0 -28 -8 -53.833 -24 -77.5s-36 -44.167 -60 -61.5c18.667 -13.333 33.167 -28.666 43.5 -45.999s15.5 -39 15.5 -65c0 -50 -18.5 -89.167 -55.5 -117.5s-91.833 -42.5 -164.5 -42.5zM320.999 196.998c11.333 10.667 21.334 22.832 30.001 36.499s13 28.834 13 45.501
c0 21.333 -7.33301 39.333 -22 54s-36.667 29 -66 43c-2 0.666992 -5.83301 2.33398 -11.5 5.00098l-18.5 8.5c-6.66699 3 -13 6 -19 9l-13 6.5c-32 -23.333 -48 -49.333 -48 -78c0 -23.333 7.66699 -42.333 23 -57s39.666 -29.667 72.999 -45
c3.33301 -1.33301 8 -3.33301 14 -6s12 -5.5 18 -8.5l16.5 -8.5c5 -2.66699 8.5 -4.33398 10.5 -5.00098z" />
    <glyph glyph-name="dieresis" unicode="&#xa8;" horiz-adv-x="410" 
d="M101 628c-47.333 0 -71 22 -71 66c0 43.333 23.667 65 71 65s71 -21.667 71 -65c0 -44 -23.667 -66 -71 -66zM309 628c-47.333 0 -71 22 -71 66c0 43.333 23.667 65 71 65s71 -21.667 71 -65c0 -44 -23.667 -66 -71 -66z" />
    <glyph glyph-name="copyright" unicode="&#xa9;" horiz-adv-x="830" 
d="M431 158c-67.333 0 -116.167 17.5 -146.5 52.5s-45.5 82.167 -45.5 141.5c0 64.667 16.167 113.667 48.5 147s80.833 50 145.5 50c19.333 0 36.666 -1.33301 51.999 -4s27.666 -5.66699 36.999 -9v-73c-11.333 4.66699 -24.166 8 -38.499 10s-27.166 3 -38.499 3
c-40 0 -70 -9.66699 -90 -29s-30 -50.333 -30 -93c0 -44.667 10.5 -76.167 31.5 -94.5s50.5 -27.5 88.5 -27.5c12.667 0 25.667 1.16699 39 3.5s26.333 6.5 39 12.5v-75c-11.333 -4 -24.5 -7.5 -39.5 -10.5s-32.5 -4.5 -52.5 -4.5zM414.999 -13
c-51.333 0 -99 9.33203 -143 27.999s-82.333 44.334 -115 77.001s-58.334 71 -77.001 115s-28 91.667 -28 143c0 50.667 9.33301 98.167 28 142.5s44.334 82.833 77.001 115.5s71 58.334 115 77.001s91.667 28 143 28c50.667 0 98.167 -9.33301 142.5 -28
s82.833 -44.334 115.5 -77.001s58.334 -71.167 77.001 -115.5s28 -91.833 28 -142.5s-9.33301 -98 -28 -142s-44.334 -82.333 -77.001 -115s-71.167 -58.5 -115.5 -77.5s-91.833 -28.5 -142.5 -28.5zM414.999 56.999c41.333 0 79.666 7.50098 114.999 22.501
s66 35.833 92 62.5s46.5 57.667 61.5 93s22.5 73.666 22.5 114.999c0 42 -7.5 80.833 -22.5 116.5s-35.5 66.5 -61.5 92.5s-56.667 46.5 -92 61.5s-73.666 22.5 -114.999 22.5s-79.666 -7.5 -114.999 -22.5s-66 -35.5 -92 -61.5s-46.5 -56.833 -61.5 -92.5
s-22.5 -74.5 -22.5 -116.5s7.5 -80.833 22.5 -116.5s35.5 -66.5 61.5 -92.5s56.667 -46.5 92 -61.5s73.666 -22.5 114.999 -22.5z" />
    <glyph glyph-name="ordfeminine" unicode="&#xaa;" horiz-adv-x="370" 
d="M141 374c-38 0 -65.167 8.00195 -81.5 24.002s-24.5 40 -24.5 72c0 16.667 2.33301 31.5 7 44.5s12.5 23.667 23.5 32s25.333 14.666 43 18.999s39.834 6.5 66.501 6.5h65v15c0 17.333 -4.66699 29.833 -14 37.5s-27.333 11.5 -54 11.5c-20 0 -40 -2.33301 -60 -7
s-35.667 -10.334 -47 -17.001v77c13.333 4.66699 30.666 8.66699 51.999 12s44 5 68 5c50.667 0 86.667 -9 108 -27s32 -48.667 32 -92v-207h-77l-6 50c-6.66699 -14 -18 -26.833 -34 -38.5s-38.333 -17.5 -67 -17.5zM174 439.002c19.333 0 35.167 5.83301 47.5 17.5
s18.5 27.167 18.5 46.5v18h-54c-24 0 -40.333 -3.5 -49 -10.5s-13 -18.167 -13 -33.5c0 -13.333 3.66699 -23 11 -29s20.333 -9 39 -9z" />
    <glyph glyph-name="guillemotleft" unicode="&#xab;" horiz-adv-x="550" 
d="M167 496h114l-127 -211l127 -213h-117l-125 210zM377 496h114l-127 -211l127 -213h-117l-125 210z" />
    <glyph glyph-name="logicalnot" unicode="&#xac;" horiz-adv-x="600" 
d="M90 410h420v-237h-107v130h-313v107z" />
    <glyph glyph-name="uni00AD" unicode="&#xad;" horiz-adv-x="400" 
d="M40 334h320v-107h-320v107z" />
    <glyph glyph-name="registered" unicode="&#xae;" horiz-adv-x="600" 
d="M50 520c0 36 6 69.333 18 100s29 57.167 51 79.5s48.333 39.666 79 51.999s64.667 18.5 102 18.5s71.333 -6.16699 102 -18.5s57 -29.666 79 -51.999s39 -48.833 51 -79.5s18 -64 18 -100s-6 -69 -18 -99s-29 -56 -51 -78s-48.333 -39.167 -79 -51.5
s-64.667 -18.5 -102 -18.5s-71.333 6.16699 -102 18.5s-57 29.5 -79 51.5s-39 48 -51 78s-18 63 -18 99zM104 521c0 -28.667 4.66699 -55 14 -79s22.666 -44.667 39.999 -62s38 -30.833 62 -40.5s50.667 -14.5 80 -14.5s56.166 4.83301 80.499 14.5s45 23.167 62 40.5
s30.167 38 39.5 62s14 50.333 14 79s-4.66699 55 -14 79s-22.5 44.667 -39.5 62s-37.667 30.833 -62 40.5s-51.166 14.5 -80.499 14.5s-56 -4.83301 -80 -14.5s-44.667 -23.167 -62 -40.5s-30.666 -38 -39.999 -62s-14 -50.333 -14 -79zM200 659h109.002
c11.333 0 22.666 -1.16699 33.999 -3.5s21.666 -6.5 30.999 -12.5s16.833 -14.667 22.5 -26s8.5 -26 8.5 -44c0 -19.333 -4.5 -35.5 -13.5 -48.5s-20.167 -22.167 -33.5 -27.5l64 -104h-68l-55 94h-36v-94h-63v266zM301.002 537c10.667 0 20 2.5 28 7.5s12 14.167 12 27.5
c0 14.667 -3.83301 24 -11.5 28s-17.167 6 -28.5 6h-39v-69h39z" />
    <glyph glyph-name="macron" unicode="&#xaf;" horiz-adv-x="320" 
d="M19 726h282v-84h-282v84z" />
    <glyph glyph-name="degree" unicode="&#xb0;" horiz-adv-x="400" 
d="M200 387c-22.667 0 -43.834 4.33301 -63.501 13s-36.834 20.334 -51.501 35.001s-26.334 31.834 -35.001 51.501s-13 40.834 -13 63.501s4.33301 43.834 13 63.501s20.334 36.834 35.001 51.501s31.834 26.334 51.501 35.001s40.834 13 63.501 13
s43.834 -4.33301 63.501 -13s36.834 -20.334 51.501 -35.001s26.334 -31.834 35.001 -51.501s13 -40.834 13 -63.501s-4.33301 -43.834 -13 -63.501s-20.334 -36.834 -35.001 -51.501s-31.834 -26.334 -51.501 -35.001s-40.834 -13 -63.501 -13zM200 471
c22 0 40.833 7.66699 56.5 23s23.5 34 23.5 56s-7.83301 40.667 -23.5 56s-34.5 23 -56.5 23s-40.667 -7.66699 -56 -23s-23 -34 -23 -56s7.66699 -40.667 23 -56s34 -23 56 -23z" />
    <glyph glyph-name="plusminus" unicode="&#xb1;" horiz-adv-x="600" 
d="M90 489h156v156h108v-156h156v-108h-156v-120h-108v120h-156v108zM90 182h420v-107h-420v107z" />
    <glyph glyph-name="twosuperior" unicode="&#xb2;" 
d="M50 466l129.001 81.999c38.667 25.333 66 46.5 82 63.5s24 35.167 24 54.5c0 17.333 -6.66699 31.5 -20 42.5s-36 16.5 -68 16.5c-22.667 0 -45.5 -2.16699 -68.5 -6.5s-43.833 -11.166 -62.5 -20.499v84c24.667 8.66699 48.5 14.834 71.5 18.501s47.5 5.5 73.5 5.5
c60 0 104 -11 132 -33s42 -52 42 -90c0 -16.667 -2.83301 -32.334 -8.5 -47.001s-14.834 -29.167 -27.501 -43.5s-29.167 -29 -49.5 -44s-44.833 -31.5 -73.5 -49.5l-59 -36v-1h223v-82h-340v86z" />
    <glyph glyph-name="threesuperior" unicode="&#xb3;" 
d="M118 629h73.999c28.667 0 50.334 3.66699 65.001 11s22 19.666 22 36.999s-7 29.833 -21 37.5s-37.667 11.5 -71 11.5c-24 0 -47.667 -1.5 -71 -4.5s-43.666 -7.83301 -60.999 -14.5v79c23.333 8 49.333 13.333 78 16s55.667 4 81 4c30.667 0 56.667 -3 78 -9
s38.5 -14 51.5 -24s22.333 -21.5 28 -34.5s8.5 -26.5 8.5 -40.5c0 -28 -8.83301 -49.167 -26.5 -63.5s-42.834 -26.166 -75.501 -35.499v-1c44 -7.33301 73.667 -20 89 -38s23 -38.333 23 -61c0 -39.333 -16.833 -70 -50.5 -92s-81.167 -33 -142.5 -33
c-20.667 0 -44 1.16699 -70 3.5s-51.667 7.5 -77 15.5v82c22.667 -8 45.5 -13.5 68.5 -16.5s45.167 -4.5 66.5 -4.5c39.333 0 66.5 4.83301 81.5 14.5s22.5 22.5 22.5 38.5c0 20 -7 34 -21 42s-36.333 12 -67 12h-83v68z" />
    <glyph glyph-name="acute" unicode="&#xb4;" horiz-adv-x="300" 
d="M115 769h156l-144 -151h-98z" />
    <glyph glyph-name="mu" unicode="&#xb5;" horiz-adv-x="585" 
d="M69 534h122v-310c0 -48.667 7.66699 -82 23 -100s40 -27 74 -27s60.167 10.167 78.5 30.5s27.5 52.5 27.5 96.5v310h122v-534h-117l-5 81c-29.333 -62.667 -80 -94 -152 -94c-19.333 0 -36.333 2 -51 6v-173h-122v714z" />
    <glyph glyph-name="mu" unicode="&#x3bc;" horiz-adv-x="585" 
d="M69 534h122v-310c0 -48.667 7.66699 -82 23 -100s40 -27 74 -27s60.167 10.167 78.5 30.5s27.5 52.5 27.5 96.5v310h122v-534h-117l-5 81c-29.333 -62.667 -80 -94 -152 -94c-19.333 0 -36.333 2 -51 6v-173h-122v714z" />
    <glyph glyph-name="paragraph" unicode="&#xb6;" horiz-adv-x="570" 
d="M214 346c-28 0 -52.833 4.33398 -74.5 13.001s-40 20.667 -55 36s-26.333 33.666 -34 54.999s-11.5 44.666 -11.5 69.999c0 39.333 7.5 70.833 22.5 94.5s33.5 41.834 55.5 54.501s45 21 69 25s45 6 63 6h245v-880h-94v798h-92v-798h-94v526z" />
    <glyph glyph-name="periodcentered" unicode="&#xb7;" horiz-adv-x="320" 
d="M160 271c-54 0 -81 26.667 -81 80c0 54 27 81 81 81s81 -27 81 -81c0 -53.333 -27 -80 -81 -80z" />
    <glyph glyph-name="cedilla" unicode="&#xb8;" horiz-adv-x="250" 
d="M103 -226c-18 0 -33.5 1.16797 -46.5 3.50098s-25.5 6.16602 -37.5 11.499l10 58c18.667 -8 38.667 -12 60 -12c18 0 30.667 3.33301 38 10s11 16 11 28c0 12.667 -3.83301 22.167 -11.5 28.5s-21.167 9.5 -40.5 9.5c-5.33301 0 -11 -0.166992 -17 -0.5
s-11 -0.833008 -15 -1.5l17 94h69l-9 -46c30 -0.666992 54.167 -7.5 72.5 -20.5s27.5 -34.5 27.5 -64.5s-10.833 -53.833 -32.5 -71.5s-53.5 -26.5 -95.5 -26.5z" />
    <glyph glyph-name="onesuperior" unicode="&#xb9;" 
d="M219 697l-115 -62l-38 73l172 92h79v-420h-98v317z" />
    <glyph glyph-name="ordmasculine" unicode="&#xba;" horiz-adv-x="370" 
d="M185 374c-54 0 -94.167 14.167 -120.5 42.5s-39.5 69.5 -39.5 123.5c0 53.333 13.333 94.333 40 123s66.667 43 120 43c54 0 94.167 -14.167 120.5 -42.5s39.5 -69.5 39.5 -123.5c0 -53.333 -13.333 -94.333 -40 -123s-66.667 -43 -120 -43zM185 444
c24 0 42.833 7 56.5 21s20.5 39 20.5 75s-6.83301 61 -20.5 75s-32.5 21 -56.5 21s-42.833 -7 -56.5 -21s-20.5 -39 -20.5 -75s6.83301 -61 20.5 -75s32.5 -21 56.5 -21z" />
    <glyph glyph-name="guillemotright" unicode="&#xbb;" horiz-adv-x="550" 
d="M186 282l-127 214h117l125 -211l-128 -213h-114zM396 282l-127 214h117l125 -211l-128 -213h-114z" />
    <glyph glyph-name="onequarter" unicode="&#xbc;" horiz-adv-x="950" 
d="M651 700h89l-451 -700h-89zM195 598l-115 -62l-38 73l172 92h79v-420h-98v317zM487 163l235 258h113v-255h57v-77h-57v-88h-95v88h-253v74zM741 340h-1l-160 -174h161v174z" />
    <glyph glyph-name="onehalf" unicode="&#xbd;" horiz-adv-x="950" 
d="M628 700h89l-451 -700h-89zM187 598l-115 -62l-38 73l172 92h79v-420h-98v317zM560 87l129.001 81.999c38.667 25.333 66 46.5 82 63.5s24 35.167 24 54.5c0 17.333 -6.66699 31.5 -20 42.5s-36 16.5 -68 16.5c-22.667 0 -45.5 -2.16699 -68.5 -6.5
s-43.833 -11.166 -62.5 -20.499v84c24.667 8.66699 48.5 14.834 71.5 18.501s47.5 5.5 73.5 5.5c60 0 104 -11 132 -33s42 -52 42 -90c0 -16.667 -2.83301 -32.334 -8.5 -47.001s-14.834 -29.167 -27.501 -43.5s-29.167 -29 -49.5 -44s-44.833 -31.5 -73.5 -49.5l-59 -36v-1
h223v-82h-340v86z" />
    <glyph glyph-name="threequarters" unicode="&#xbe;" horiz-adv-x="950" 
d="M674 700h89l-451 -700h-89zM502 163l235 258h113v-255h57v-77h-57v-88h-95v88h-253v74zM756 340h-1l-160 -174h161v174zM107 530h73.999c28.667 0 50.334 3.66699 65.001 11s22 19.666 22 36.999s-7 29.833 -21 37.5s-37.667 11.5 -71 11.5c-24 0 -47.667 -1.5 -71 -4.5
s-43.666 -7.83301 -60.999 -14.5v79c23.333 8 49.333 13.333 78 16s55.667 4 81 4c30.667 0 56.667 -3 78 -9s38.5 -14 51.5 -24s22.333 -21.5 28 -34.5s8.5 -26.5 8.5 -40.5c0 -28 -8.83301 -49.167 -26.5 -63.5s-42.834 -26.166 -75.501 -35.499v-1
c44 -7.33301 73.667 -20 89 -38s23 -38.333 23 -61c0 -39.333 -16.833 -70 -50.5 -92s-81.167 -33 -142.5 -33c-20.667 0 -44 1.16699 -70 3.5s-51.667 7.5 -77 15.5v82c22.667 -8 45.5 -13.5 68.5 -16.5s45.167 -4.5 66.5 -4.5c39.333 0 66.5 4.83301 81.5 14.5
s22.5 22.5 22.5 38.5c0 20 -7 34 -21 42s-36.333 12 -67 12h-83v68z" />
    <glyph glyph-name="questiondown" unicode="&#xbf;" horiz-adv-x="480" 
d="M285 540c54 0 81.002 -27 81.002 -81c0 -26 -6.83301 -46 -20.5 -60s-33.834 -21 -60.501 -21s-46.834 7 -60.501 21s-20.5 34 -20.5 60c0 54 27 81 81 81zM344.002 303c0 -29.333 -4.16797 -54.001 -12.501 -74.001s-18.833 -37 -31.5 -51s-26.167 -26.5 -40.5 -37.5
s-27.833 -22.333 -40.5 -34s-23.167 -24.834 -31.5 -39.501s-12.5 -32.667 -12.5 -54c0 -30 8.33301 -52.833 25 -68.5s43.334 -23.5 80.001 -23.5c32.667 0 61.667 5.33301 87 16s48 23 68 37v-133c-21.333 -9.33301 -46.333 -17.333 -75 -24s-61 -10 -97 -10
c-76.667 0 -132.167 16 -166.5 48s-51.5 78.667 -51.5 140c0 34 4.5 62.333 13.5 85s20.333 41.834 34 57.501s28.5 29.334 44.5 41.001s30.833 23.167 44.5 34.5s25 24 34 38s13.5 31.333 13.5 52h115z" />
    <glyph glyph-name="Agrave" unicode="&#xc0;" horiz-adv-x="640" 
d="M249 700h143l233 -700h-133l-52 166h-246l-52 -166h-127zM227 273h180l-89 287zM125 915h160l92 -150h-102z" />
    <glyph glyph-name="Aacute" unicode="&#xc1;" horiz-adv-x="640" 
d="M249 700h143l233 -700h-133l-52 166h-246l-52 -166h-127zM227 273h180l-89 287zM355 915h158l-152 -150h-100z" />
    <glyph glyph-name="Acircumflex" unicode="&#xc2;" horiz-adv-x="640" 
d="M249 700h143l233 -700h-133l-52 166h-246l-52 -166h-127zM227 273h180l-89 287zM255 915h130l119 -150h-103l-81 85l-83 -85h-101z" />
    <glyph glyph-name="Atilde" unicode="&#xc3;" horiz-adv-x="640" 
d="M249 700h143l233 -700h-133l-52 166h-246l-52 -166h-127zM227 273h180l-89 287zM137 778c2 38 13 66.833 33 86.5s44 29.5 72 29.5c14 0 27.833 -2 41.5 -6s28.167 -9.66699 43.5 -17c16 -7.33301 28.5 -12.666 37.5 -15.999s18.167 -5 27.5 -5c10 0 19 3.33301 27 10
s13.333 17.667 16 33l68 -12c-2.66699 -36 -13.834 -64.167 -33.501 -84.5s-43.5 -30.5 -71.5 -30.5c-14.667 0 -27.834 1.16699 -39.501 3.5s-26.834 8.16602 -45.501 17.499l-35 17c-9.33301 4.66699 -18.666 7 -27.999 7s-18.166 -3.5 -26.499 -10.5
s-14.166 -18.5 -17.499 -34.5z" />
    <glyph glyph-name="Adieresis" unicode="&#xc4;" horiz-adv-x="640" 
d="M249 700h143l233 -700h-133l-52 166h-246l-52 -166h-127zM227 273h180l-89 287zM212 773c-48.667 0 -73 22.333 -73 67s24.333 67 73 67s73 -22.333 73 -67s-24.333 -67 -73 -67zM429 773c-48.667 0 -73 22.333 -73 67s24.333 67 73 67s73 -22.333 73 -67
s-24.333 -67 -73 -67z" />
    <glyph glyph-name="Aring" unicode="&#xc5;" horiz-adv-x="640" 
d="M249 700h143l233 -700h-133l-52 166h-246l-52 -166h-127zM227 273h180l-89 287zM210 840c0 31.333 10.167 57 30.5 77s46.833 30 79.5 30s59.167 -10 79.5 -30s30.5 -45.667 30.5 -77s-10.167 -57 -30.5 -77s-46.833 -30 -79.5 -30s-59.167 10 -79.5 30
s-30.5 45.667 -30.5 77zM273 840c0 -14.667 4.16699 -26.167 12.5 -34.5s19.833 -12.5 34.5 -12.5s26.167 4.16699 34.5 12.5s12.5 19.833 12.5 34.5s-4.16699 26.167 -12.5 34.5s-19.833 12.5 -34.5 12.5s-26.167 -4.16699 -34.5 -12.5s-12.5 -19.833 -12.5 -34.5z" />
    <glyph glyph-name="AE" unicode="&#xc6;" horiz-adv-x="935" 
d="M449 166h-218l-85 -166h-131l368 700h502v-114h-308v-176h268v-107h-268v-189h308v-114h-436v166zM449 273v316l-163 -316h163z" />
    <glyph glyph-name="Ccedilla" unicode="&#xc7;" horiz-adv-x="575" 
d="M335 -226c-18 0 -33.8301 1.16797 -47.4971 3.50098s-26.167 6.16602 -37.5 11.499l9 59c18.667 -8 39 -12 61 -12c19.333 0 32.666 3.16699 39.999 9.5s11 15.5 11 27.5c0 12.667 -3.83301 22 -11.5 28s-21.834 9 -42.501 9c-5.33301 0 -10.833 -0.166992 -16.5 -0.5
s-10.834 -0.833008 -15.501 -1.5l15 82c-43.333 4.66699 -81 15 -113 31s-58.5 38.833 -79.5 68.5s-36.667 66.334 -47 110.001s-15.5 95.5 -15.5 155.5c0 126 26.333 217.167 79 273.5s131.334 84.5 236.001 84.5c24 0 46.5 -1.66699 67.5 -5s39.167 -7 54.5 -11
c18 -4.66699 34.667 -10 50 -16v-129c-19.333 11.333 -42.5 21.166 -69.5 29.499s-59.833 12.5 -98.5 12.5c-31.333 0 -58.666 -4.16699 -81.999 -12.5s-42.833 -22 -58.5 -41s-27.334 -43.667 -35.001 -74s-11.5 -67.5 -11.5 -111.5c0 -46 4 -85 12 -117
s19.833 -57.667 35.5 -77s35.167 -33.333 58.5 -42s50.666 -13 81.999 -13c39.333 0 73.5 5.33301 102.5 16s51.5 21.667 67.5 33v-129c-13.333 -7.33301 -28.666 -13.666 -45.999 -18.999c-14.667 -5.33301 -32.167 -9.83301 -52.5 -13.5s-42.833 -5.83398 -67.5 -6.50098
l-5 -30c30 -0.666992 54.167 -7.5 72.5 -20.5s27.5 -34.5 27.5 -64.5s-10.833 -53.833 -32.5 -71.5s-53.834 -26.5 -96.501 -26.5z" />
    <glyph glyph-name="Egrave" unicode="&#xc8;" horiz-adv-x="575" 
d="M89 700h436v-114h-308v-176h268v-107h-268v-189h308v-114h-436v700zM115 915h160l92 -150h-102z" />
    <glyph glyph-name="Eacute" unicode="&#xc9;" horiz-adv-x="575" 
d="M89 700h436v-114h-308v-176h268v-107h-268v-189h308v-114h-436v700zM343 915h158l-152 -150h-100z" />
    <glyph glyph-name="Ecircumflex" unicode="&#xca;" horiz-adv-x="575" 
d="M89 700h436v-114h-308v-176h268v-107h-268v-189h308v-114h-436v700zM242 915h130l119 -150h-103l-81 85l-83 -85h-101z" />
    <glyph glyph-name="Edieresis" unicode="&#xcb;" horiz-adv-x="575" 
d="M89 700h436v-114h-308v-176h268v-107h-268v-189h308v-114h-436v700zM199 773c-48.667 0 -73 22.333 -73 67s24.333 67 73 67s73 -22.333 73 -67s-24.333 -67 -73 -67zM416 773c-48.667 0 -73 22.333 -73 67s24.333 67 73 67s73 -22.333 73 -67s-24.333 -67 -73 -67z" />
    <glyph glyph-name="Igrave" unicode="&#xcc;" horiz-adv-x="330" 
d="M101 700h128v-700h-128v700zM-35 915h160l92 -150h-102z" />
    <glyph glyph-name="Iacute" unicode="&#xcd;" horiz-adv-x="330" 
d="M101 700h128v-700h-128v700zM209 915h158l-152 -150h-100z" />
    <glyph glyph-name="Icircumflex" unicode="&#xce;" horiz-adv-x="330" 
d="M101 700h128v-700h-128v700zM101 915h130l119 -150h-103l-81 85l-83 -85h-101z" />
    <glyph glyph-name="Idieresis" unicode="&#xcf;" horiz-adv-x="330" 
d="M101 700h128v-700h-128v700zM58 773c-48.667 0 -73 22.333 -73 67s24.333 67 73 67s73 -22.333 73 -67s-24.333 -67 -73 -67zM275 773c-48.667 0 -73 22.333 -73 67s24.333 67 73 67s73 -22.333 73 -67s-24.333 -67 -73 -67z" />
    <glyph glyph-name="Eth" unicode="&#xd0;" horiz-adv-x="690" 
d="M13 401l86.001 0.00195312v294c22 1.33301 44.667 3 68 5c20 1.33301 42.167 2.66602 66.5 3.99902s48.833 2 73.5 2c59.333 0 110.333 -6.5 153 -19.5s77.667 -33.5 105 -61.5s47.5 -64.167 60.5 -108.5s19.5 -97.5 19.5 -159.5
c0 -124.667 -28.5 -216.334 -85.5 -275.001s-143.5 -88 -259.5 -88c-22.667 0 -45.834 0.5 -69.501 1.5s-45.167 2.16699 -64.5 3.5l-67 6v304h-86v92zM513.001 357.002c0 42.667 -3.83105 78.667 -11.498 108s-19.667 53 -36 71s-37.333 31 -63 39s-56.5 12 -92.5 12
c-10.667 0 -21 -0.166992 -31 -0.5s-18.667 -0.833008 -26 -1.5c-9.33301 -0.666992 -18 -1.33398 -26 -2.00098v-182h141v-92h-141v-192l23 -2c7.33301 -0.666992 15.5 -1.16699 24.5 -1.5s18.5 -0.5 28.5 -0.5c36 0 67.167 4.33301 93.5 13s48.166 22.834 65.499 42.501
s30.166 45 38.499 76s12.5 68.5 12.5 112.5z" />
    <glyph glyph-name="Ntilde" unicode="&#xd1;" horiz-adv-x="740" 
d="M89 700h150.001l230 -397l22 -42l18 -36c6 -12 11.333 -24 16 -36h2l-2 36c-0.666992 10.667 -1.16699 22.667 -1.5 36s-0.5 27.333 -0.5 42v397h128v-700h-150l-230 397c-8.66699 15.333 -16.334 29.666 -23.001 42.999l-18 36c-6 12 -11 23.667 -15 35h-2l2 -35
c0.666992 -10.667 1.16699 -22.667 1.5 -36s0.5 -27.666 0.5 -42.999v-397h-128v700zM187.001 778c2 38 13 66.833 33 86.5s44 29.5 72 29.5c14 0 27.833 -2 41.5 -6s28.167 -9.66699 43.5 -17c16 -7.33301 28.5 -12.666 37.5 -15.999s18.167 -5 27.5 -5
c10 0 19 3.33301 27 10s13.333 17.667 16 33l68 -12c-2.66699 -36 -13.834 -64.167 -33.501 -84.5s-43.5 -30.5 -71.5 -30.5c-14.667 0 -27.834 1.16699 -39.501 3.5s-26.834 8.16602 -45.501 17.499l-35 17c-9.33301 4.66699 -18.666 7 -27.999 7
s-18.166 -3.5 -26.499 -10.5s-14.166 -18.5 -17.499 -34.5z" />
    <glyph glyph-name="Ograve" unicode="&#xd2;" horiz-adv-x="710" 
d="M355 -13c-102 0 -179.168 28.5 -231.501 85.5s-78.5 149.5 -78.5 277.5c0 126.667 26.5 218.834 79.5 276.501s129.833 86.5 230.5 86.5c52 0 97.5 -6.66699 136.5 -20s71.333 -34.5 97 -63.5s44.834 -66.5 57.501 -112.5s19 -101.667 19 -167
c0 -126.667 -26.5 -218.834 -79.5 -276.501s-129.833 -86.5 -230.5 -86.5zM354.999 102c29.333 0 55 4.16797 77 12.501s40.5 22.166 55.5 41.499s26.333 44.833 34 76.5s11.5 70.834 11.5 117.501s-3.83301 85.834 -11.5 117.501s-19 57.167 -34 76.5
s-33.5 33.166 -55.5 41.499s-47.667 12.5 -77 12.5s-55 -4.16699 -77 -12.5s-40.5 -22.166 -55.5 -41.499s-26.333 -44.833 -34 -76.5s-11.5 -70.834 -11.5 -117.501c0 -46 3.83301 -84.833 11.5 -116.5s19 -57.334 34 -77.001s33.667 -33.667 56 -42
s47.833 -12.5 76.5 -12.5zM162.999 915.001h160l92 -150h-102z" />
    <glyph glyph-name="Oacute" unicode="&#xd3;" horiz-adv-x="710" 
d="M355 -13c-102 0 -179.168 28.5 -231.501 85.5s-78.5 149.5 -78.5 277.5c0 126.667 26.5 218.834 79.5 276.501s129.833 86.5 230.5 86.5c52 0 97.5 -6.66699 136.5 -20s71.333 -34.5 97 -63.5s44.834 -66.5 57.501 -112.5s19 -101.667 19 -167
c0 -126.667 -26.5 -218.834 -79.5 -276.501s-129.833 -86.5 -230.5 -86.5zM354.999 102c29.333 0 55 4.16797 77 12.501s40.5 22.166 55.5 41.499s26.333 44.833 34 76.5s11.5 70.834 11.5 117.501s-3.83301 85.834 -11.5 117.501s-19 57.167 -34 76.5
s-33.5 33.166 -55.5 41.499s-47.667 12.5 -77 12.5s-55 -4.16699 -77 -12.5s-40.5 -22.166 -55.5 -41.499s-26.333 -44.833 -34 -76.5s-11.5 -70.834 -11.5 -117.501c0 -46 3.83301 -84.833 11.5 -116.5s19 -57.334 34 -77.001s33.667 -33.667 56 -42
s47.833 -12.5 76.5 -12.5zM389.999 915.001h158l-152 -150h-100z" />
    <glyph glyph-name="Ocircumflex" unicode="&#xd4;" horiz-adv-x="710" 
d="M355 -13c-102 0 -179.168 28.5 -231.501 85.5s-78.5 149.5 -78.5 277.5c0 126.667 26.5 218.834 79.5 276.501s129.833 86.5 230.5 86.5c52 0 97.5 -6.66699 136.5 -20s71.333 -34.5 97 -63.5s44.834 -66.5 57.501 -112.5s19 -101.667 19 -167
c0 -126.667 -26.5 -218.834 -79.5 -276.501s-129.833 -86.5 -230.5 -86.5zM354.999 102c29.333 0 55 4.16797 77 12.501s40.5 22.166 55.5 41.499s26.333 44.833 34 76.5s11.5 70.834 11.5 117.501s-3.83301 85.834 -11.5 117.501s-19 57.167 -34 76.5
s-33.5 33.166 -55.5 41.499s-47.667 12.5 -77 12.5s-55 -4.16699 -77 -12.5s-40.5 -22.166 -55.5 -41.499s-26.333 -44.833 -34 -76.5s-11.5 -70.834 -11.5 -117.501c0 -46 3.83301 -84.833 11.5 -116.5s19 -57.334 34 -77.001s33.667 -33.667 56 -42
s47.833 -12.5 76.5 -12.5zM289.999 915.001h130l119 -150h-103l-81 85l-83 -85h-101z" />
    <glyph glyph-name="Otilde" unicode="&#xd5;" horiz-adv-x="710" 
d="M355 -13c-102 0 -179.168 28.5 -231.501 85.5s-78.5 149.5 -78.5 277.5c0 126.667 26.5 218.834 79.5 276.501s129.833 86.5 230.5 86.5c52 0 97.5 -6.66699 136.5 -20s71.333 -34.5 97 -63.5s44.834 -66.5 57.501 -112.5s19 -101.667 19 -167
c0 -126.667 -26.5 -218.834 -79.5 -276.501s-129.833 -86.5 -230.5 -86.5zM354.999 102c29.333 0 55 4.16797 77 12.501s40.5 22.166 55.5 41.499s26.333 44.833 34 76.5s11.5 70.834 11.5 117.501s-3.83301 85.834 -11.5 117.501s-19 57.167 -34 76.5
s-33.5 33.166 -55.5 41.499s-47.667 12.5 -77 12.5s-55 -4.16699 -77 -12.5s-40.5 -22.166 -55.5 -41.499s-26.333 -44.833 -34 -76.5s-11.5 -70.834 -11.5 -117.501c0 -46 3.83301 -84.833 11.5 -116.5s19 -57.334 34 -77.001s33.667 -33.667 56 -42
s47.833 -12.5 76.5 -12.5zM171.999 778.001c2 38 13 66.833 33 86.5s44 29.5 72 29.5c14 0 27.833 -2 41.5 -6s28.167 -9.66699 43.5 -17c16 -7.33301 28.5 -12.666 37.5 -15.999s18.167 -5 27.5 -5c10 0 19 3.33301 27 10s13.333 17.667 16 33l68 -12
c-2.66699 -36 -13.834 -64.167 -33.501 -84.5s-43.5 -30.5 -71.5 -30.5c-14.667 0 -27.834 1.16699 -39.501 3.5s-26.834 8.16602 -45.501 17.499l-35 17c-9.33301 4.66699 -18.666 7 -27.999 7s-18.166 -3.5 -26.499 -10.5s-14.166 -18.5 -17.499 -34.5z" />
    <glyph glyph-name="Odieresis" unicode="&#xd6;" horiz-adv-x="710" 
d="M355 -13c-102 0 -179.168 28.5 -231.501 85.5s-78.5 149.5 -78.5 277.5c0 126.667 26.5 218.834 79.5 276.501s129.833 86.5 230.5 86.5c52 0 97.5 -6.66699 136.5 -20s71.333 -34.5 97 -63.5s44.834 -66.5 57.501 -112.5s19 -101.667 19 -167
c0 -126.667 -26.5 -218.834 -79.5 -276.501s-129.833 -86.5 -230.5 -86.5zM354.999 102c29.333 0 55 4.16797 77 12.501s40.5 22.166 55.5 41.499s26.333 44.833 34 76.5s11.5 70.834 11.5 117.501s-3.83301 85.834 -11.5 117.501s-19 57.167 -34 76.5
s-33.5 33.166 -55.5 41.499s-47.667 12.5 -77 12.5s-55 -4.16699 -77 -12.5s-40.5 -22.166 -55.5 -41.499s-26.333 -44.833 -34 -76.5s-11.5 -70.834 -11.5 -117.501c0 -46 3.83301 -84.833 11.5 -116.5s19 -57.334 34 -77.001s33.667 -33.667 56 -42
s47.833 -12.5 76.5 -12.5zM246.999 773.001c-48.667 0 -73 22.333 -73 67s24.333 67 73 67s73 -22.333 73 -67s-24.333 -67 -73 -67zM463.999 773.001c-48.667 0 -73 22.333 -73 67s24.333 67 73 67s73 -22.333 73 -67s-24.333 -67 -73 -67z" />
    <glyph glyph-name="multiply" unicode="&#xd7;" horiz-adv-x="600" 
d="M101 233l127 127l-127 127l72 72l127 -127l127 127l72 -72l-127 -127l127 -127l-72 -72l-127 127l-127 -127z" />
    <glyph glyph-name="Oslash" unicode="&#xd8;" horiz-adv-x="710" 
d="M355 -13c-68 0 -125.334 12.666 -172.001 37.999l-46 -69l-62 44l48 72c-52 58.667 -78 151.334 -78 278.001s26.5 218.834 79.5 276.501s129.833 86.5 230.5 86.5c34.667 0 66.334 -2.83301 95.001 -8.5s54.667 -14.834 78 -27.501l45 67l62 -44l-47 -70
c51.333 -57.333 77 -150.666 77 -279.999c0 -126.667 -26.5 -218.834 -79.5 -276.501s-129.833 -86.5 -230.5 -86.5zM354.999 101.999c29.333 0 55 4.16699 77 12.5s40.5 22.166 55.5 41.499s26.333 44.833 34 76.5s11.5 70.834 11.5 117.501
c0 67.333 -8.66699 120.333 -26 159l-255 -381c26.667 -17.333 61 -26 103 -26zM176.999 349.999c0 -68.667 8.33301 -121.667 25 -159l255 381c-26 17.333 -60 26 -102 26c-29.333 0 -55 -4.16699 -77 -12.5s-40.5 -22.166 -55.5 -41.499s-26.333 -44.833 -34 -76.5
s-11.5 -70.834 -11.5 -117.501z" />
    <glyph glyph-name="Ugrave" unicode="&#xd9;" horiz-adv-x="670" 
d="M335 -13c-45.333 0 -84.335 5.33398 -117.002 16.001s-59.5 27.5 -80.5 50.5s-36.667 52.667 -47 89s-15.5 80.5 -15.5 132.5v425h127v-414c0 -35.333 2.5 -64.666 7.5 -87.999s12.833 -41.833 23.5 -55.5s24.334 -23.167 41.001 -28.5s37 -8 61 -8s44.5 2.66699 61.5 8
s30.833 14.666 41.5 27.999s18.334 31.666 23.001 54.999s7 53 7 89v414h127v-425c0 -51.333 -5.16699 -95.333 -15.5 -132s-26.166 -66.5 -47.499 -89.5s-48.333 -39.833 -81 -50.5s-71.334 -16 -116.001 -16zM142.998 915.001h160l92 -150h-102z" />
    <glyph glyph-name="Uacute" unicode="&#xda;" horiz-adv-x="670" 
d="M335 -13c-45.333 0 -84.335 5.33398 -117.002 16.001s-59.5 27.5 -80.5 50.5s-36.667 52.667 -47 89s-15.5 80.5 -15.5 132.5v425h127v-414c0 -35.333 2.5 -64.666 7.5 -87.999s12.833 -41.833 23.5 -55.5s24.334 -23.167 41.001 -28.5s37 -8 61 -8s44.5 2.66699 61.5 8
s30.833 14.666 41.5 27.999s18.334 31.666 23.001 54.999s7 53 7 89v414h127v-425c0 -51.333 -5.16699 -95.333 -15.5 -132s-26.166 -66.5 -47.499 -89.5s-48.333 -39.833 -81 -50.5s-71.334 -16 -116.001 -16zM369.998 915.001h158l-152 -150h-100z" />
    <glyph glyph-name="Ucircumflex" unicode="&#xdb;" horiz-adv-x="670" 
d="M335 -13c-45.333 0 -84.335 5.33398 -117.002 16.001s-59.5 27.5 -80.5 50.5s-36.667 52.667 -47 89s-15.5 80.5 -15.5 132.5v425h127v-414c0 -35.333 2.5 -64.666 7.5 -87.999s12.833 -41.833 23.5 -55.5s24.334 -23.167 41.001 -28.5s37 -8 61 -8s44.5 2.66699 61.5 8
s30.833 14.666 41.5 27.999s18.334 31.666 23.001 54.999s7 53 7 89v414h127v-425c0 -51.333 -5.16699 -95.333 -15.5 -132s-26.166 -66.5 -47.499 -89.5s-48.333 -39.833 -81 -50.5s-71.334 -16 -116.001 -16zM269.998 915.001h130l119 -150h-103l-81 85l-83 -85h-101z" />
    <glyph glyph-name="Udieresis" unicode="&#xdc;" horiz-adv-x="670" 
d="M335 -13c-45.333 0 -84.335 5.33398 -117.002 16.001s-59.5 27.5 -80.5 50.5s-36.667 52.667 -47 89s-15.5 80.5 -15.5 132.5v425h127v-414c0 -35.333 2.5 -64.666 7.5 -87.999s12.833 -41.833 23.5 -55.5s24.334 -23.167 41.001 -28.5s37 -8 61 -8s44.5 2.66699 61.5 8
s30.833 14.666 41.5 27.999s18.334 31.666 23.001 54.999s7 53 7 89v414h127v-425c0 -51.333 -5.16699 -95.333 -15.5 -132s-26.166 -66.5 -47.499 -89.5s-48.333 -39.833 -81 -50.5s-71.334 -16 -116.001 -16zM226.998 773.001c-48.667 0 -73 22.333 -73 67
s24.333 67 73 67s73 -22.333 73 -67s-24.333 -67 -73 -67zM443.998 773.001c-48.667 0 -73 22.333 -73 67s24.333 67 73 67s73 -22.333 73 -67s-24.333 -67 -73 -67z" />
    <glyph glyph-name="Yacute" unicode="&#xdd;" horiz-adv-x="610" 
d="M246 259l-231 441h146l150 -298l144 298h140l-221 -441v-259h-128v259zM340 915h158l-152 -150h-100z" />
    <glyph glyph-name="Thorn" unicode="&#xde;" horiz-adv-x="620" 
d="M89 700h128.001v-95c13.333 1.33301 26.666 2.33301 39.999 3s27 1 41 1c50.667 0 93.667 -4.83301 129 -14.5s64 -24.5 86 -44.5s37.833 -45.333 47.5 -76s14.5 -67 14.5 -109c0 -85.333 -22 -149 -66 -191s-114.333 -63 -211 -63c-19.333 0 -35.833 0.5 -49.5 1.5
s-24.167 1.5 -31.5 1.5v-114h-128v700zM443.001 365c0 44.667 -10.5 76.666 -31.5 95.999s-58.833 29 -113.5 29c-19.333 0 -35.833 -0.5 -49.5 -1.5s-24.167 -1.83301 -31.5 -2.5v-253c7.33301 0 17.833 -0.5 31.5 -1.5s30.167 -1.5 49.5 -1.5c54 0 91.667 10.333 113 31
s32 55.334 32 104.001z" />
    <glyph glyph-name="germandbls" unicode="&#xdf;" horiz-adv-x="615" 
d="M69 510c0 86 20.833 150.834 62.5 194.501s102.167 65.5 181.5 65.5c73.333 0 128.833 -17.667 166.5 -53s56.5 -83 56.5 -143c0 -42 -9 -77.333 -27 -106s-43 -49.334 -75 -62.001v-2c44 -6.66699 77.833 -26 101.5 -58s35.5 -76.333 35.5 -133
c0 -78.667 -17.833 -136 -53.5 -172s-91.167 -54 -166.5 -54c-20.667 0 -38.667 1 -54 3s-29.666 5 -42.999 9v113c9.33301 -3.33301 20.666 -6 33.999 -8s28.333 -3 45 -3c36 0 62.833 9.5 80.5 28.5s26.5 49.833 26.5 92.5c0 44 -9.16699 75.833 -27.5 95.5
s-46.833 29.5 -85.5 29.5h-52v100h41c28 0 49.833 8.33301 65.5 25s23.5 43.667 23.5 81c0 68.667 -32.667 103 -98 103c-37.333 0 -65.333 -11 -84 -33s-28 -59.667 -28 -113v-510h-126v510z" />
    <glyph glyph-name="agrave" unicode="&#xe0;" horiz-adv-x="535" 
d="M198 -13c-52 0 -91.5039 13.666 -118.504 40.999s-40.5 67.333 -40.5 120c0 28 3.66699 52.333 11 73s19.333 37.834 36 51.501s38.334 24 65.001 31s59.334 10.5 98.001 10.5h100v36c0 31.333 -7.66699 53.5 -23 66.5s-43.666 19.5 -84.999 19.5
c-31.333 0 -61.166 -4 -89.499 -12s-51.166 -17.667 -68.499 -29v120c20 8.66699 45.667 16 77 22s65 9 101 9c38.667 0 71.5 -3.33301 98.5 -10s48.667 -17.667 65 -33s28.166 -35.333 35.499 -60s11 -55 11 -91v-352h-110l-5 85c-10 -26.667 -28 -49.667 -54 -69
s-60.667 -29 -104 -29zM241.996 90.999c33.333 0 59.5 9.83301 78.5 29.5s28.5 48.5 28.5 86.5v29h-86c-37.333 0 -63 -6.16699 -77 -18.5s-21 -31.833 -21 -58.5c0 -22.667 6 -39.667 18 -51s31.667 -17 59 -17zM87.9961 768.999h158l84 -151h-100z" />
    <glyph glyph-name="aacute" unicode="&#xe1;" horiz-adv-x="535" 
d="M198 -13c-52 0 -91.5039 13.666 -118.504 40.999s-40.5 67.333 -40.5 120c0 28 3.66699 52.333 11 73s19.333 37.834 36 51.501s38.334 24 65.001 31s59.334 10.5 98.001 10.5h100v36c0 31.333 -7.66699 53.5 -23 66.5s-43.666 19.5 -84.999 19.5
c-31.333 0 -61.166 -4 -89.499 -12s-51.166 -17.667 -68.499 -29v120c20 8.66699 45.667 16 77 22s65 9 101 9c38.667 0 71.5 -3.33301 98.5 -10s48.667 -17.667 65 -33s28.166 -35.333 35.499 -60s11 -55 11 -91v-352h-110l-5 85c-10 -26.667 -28 -49.667 -54 -69
s-60.667 -29 -104 -29zM241.996 90.999c33.333 0 59.5 9.83301 78.5 29.5s28.5 48.5 28.5 86.5v29h-86c-37.333 0 -63 -6.16699 -77 -18.5s-21 -31.833 -21 -58.5c0 -22.667 6 -39.667 18 -51s31.667 -17 59 -17zM299.996 768.999h156l-144 -151h-98z" />
    <glyph glyph-name="acircumflex" unicode="&#xe2;" horiz-adv-x="535" 
d="M198 -13c-52 0 -91.5039 13.666 -118.504 40.999s-40.5 67.333 -40.5 120c0 28 3.66699 52.333 11 73s19.333 37.834 36 51.501s38.334 24 65.001 31s59.334 10.5 98.001 10.5h100v36c0 31.333 -7.66699 53.5 -23 66.5s-43.666 19.5 -84.999 19.5
c-31.333 0 -61.166 -4 -89.499 -12s-51.166 -17.667 -68.499 -29v120c20 8.66699 45.667 16 77 22s65 9 101 9c38.667 0 71.5 -3.33301 98.5 -10s48.667 -17.667 65 -33s28.166 -35.333 35.499 -60s11 -55 11 -91v-352h-110l-5 85c-10 -26.667 -28 -49.667 -54 -69
s-60.667 -29 -104 -29zM241.996 90.999c33.333 0 59.5 9.83301 78.5 29.5s28.5 48.5 28.5 86.5v29h-86c-37.333 0 -63 -6.16699 -77 -18.5s-21 -31.833 -21 -58.5c0 -22.667 6 -39.667 18 -51s31.667 -17 59 -17zM207.996 768.999h128l112 -151h-101l-74 88l-78 -88h-99z
" />
    <glyph glyph-name="atilde" unicode="&#xe3;" horiz-adv-x="535" 
d="M198 -13c-52 0 -91.5039 13.666 -118.504 40.999s-40.5 67.333 -40.5 120c0 28 3.66699 52.333 11 73s19.333 37.834 36 51.501s38.334 24 65.001 31s59.334 10.5 98.001 10.5h100v36c0 31.333 -7.66699 53.5 -23 66.5s-43.666 19.5 -84.999 19.5
c-31.333 0 -61.166 -4 -89.499 -12s-51.166 -17.667 -68.499 -29v120c20 8.66699 45.667 16 77 22s65 9 101 9c38.667 0 71.5 -3.33301 98.5 -10s48.667 -17.667 65 -33s28.166 -35.333 35.499 -60s11 -55 11 -91v-352h-110l-5 85c-10 -26.667 -28 -49.667 -54 -69
s-60.667 -29 -104 -29zM241.996 90.999c33.333 0 59.5 9.83301 78.5 29.5s28.5 48.5 28.5 86.5v29h-86c-37.333 0 -63 -6.16699 -77 -18.5s-21 -31.833 -21 -58.5c0 -22.667 6 -39.667 18 -51s31.667 -17 59 -17zM94.9961 631.999
c1.33301 37.333 11.3311 65.9951 29.998 85.9951s42 30 70 30c13.333 0 26.333 -2.16699 39 -6.5s26.667 -10.166 42 -17.499l35.5 -16.5c7.66699 -3.66699 16.167 -5.5 25.5 -5.5c20.667 0 33.334 15 38.001 45l68 -12c-2.66699 -36 -13 -64.167 -31 -84.5
s-40.667 -30.5 -68 -30.5c-7.33301 0 -14 0.333008 -20 1s-12 1.83398 -18 3.50098s-12.5 3.83398 -19.5 6.50098s-15.167 6.33398 -24.5 11.001c-14 6.66699 -25.167 12.334 -33.5 17.001s-17.166 7 -26.499 7c-8.66699 0 -16.5 -3.66699 -23.5 -11s-12.167 -19 -15.5 -35z
" />
    <glyph glyph-name="adieresis" unicode="&#xe4;" horiz-adv-x="535" 
d="M198 -13c-52 0 -91.5039 13.666 -118.504 40.999s-40.5 67.333 -40.5 120c0 28 3.66699 52.333 11 73s19.333 37.834 36 51.501s38.334 24 65.001 31s59.334 10.5 98.001 10.5h100v36c0 31.333 -7.66699 53.5 -23 66.5s-43.666 19.5 -84.999 19.5
c-31.333 0 -61.166 -4 -89.499 -12s-51.166 -17.667 -68.499 -29v120c20 8.66699 45.667 16 77 22s65 9 101 9c38.667 0 71.5 -3.33301 98.5 -10s48.667 -17.667 65 -33s28.166 -35.333 35.499 -60s11 -55 11 -91v-352h-110l-5 85c-10 -26.667 -28 -49.667 -54 -69
s-60.667 -29 -104 -29zM241.996 90.999c33.333 0 59.5 9.83301 78.5 29.5s28.5 48.5 28.5 86.5v29h-86c-37.333 0 -63 -6.16699 -77 -18.5s-21 -31.833 -21 -58.5c0 -22.667 6 -39.667 18 -51s31.667 -17 59 -17zM167.996 627.999c-47.333 0 -71 22 -71 66
c0 43.333 23.667 65 71 65s71 -21.667 71 -65c0 -44 -23.667 -66 -71 -66zM375.996 627.999c-47.333 0 -71 22 -71 66c0 43.333 23.667 65 71 65s71 -21.667 71 -65c0 -44 -23.667 -66 -71 -66z" />
    <glyph glyph-name="aring" unicode="&#xe5;" horiz-adv-x="535" 
d="M198 -13c-52 0 -91.5039 13.666 -118.504 40.999s-40.5 67.333 -40.5 120c0 28 3.66699 52.333 11 73s19.333 37.834 36 51.501s38.334 24 65.001 31s59.334 10.5 98.001 10.5h100v36c0 31.333 -7.66699 53.5 -23 66.5s-43.666 19.5 -84.999 19.5
c-31.333 0 -61.166 -4 -89.499 -12s-51.166 -17.667 -68.499 -29v120c20 8.66699 45.667 16 77 22s65 9 101 9c38.667 0 71.5 -3.33301 98.5 -10s48.667 -17.667 65 -33s28.166 -35.333 35.499 -60s11 -55 11 -91v-352h-110l-5 85c-10 -26.667 -28 -49.667 -54 -69
s-60.667 -29 -104 -29zM241.996 90.999c33.333 0 59.5 9.83301 78.5 29.5s28.5 48.5 28.5 86.5v29h-86c-37.333 0 -63 -6.16699 -77 -18.5s-21 -31.833 -21 -58.5c0 -22.667 6 -39.667 18 -51s31.667 -17 59 -17zM165.996 693.999c0 31.333 9.83301 56.666 29.5 75.999
s45.834 29 78.501 29s58.834 -9.66699 78.501 -29s29.5 -44.666 29.5 -75.999c0 -32 -9.83301 -57.5 -29.5 -76.5s-45.834 -28.5 -78.501 -28.5s-58.834 9.5 -78.501 28.5s-29.5 44.5 -29.5 76.5zM227.996 693.999c0 -14.667 4.16699 -26 12.5 -34s19.5 -12 33.5 -12
s25.167 4.16699 33.5 12.5s12.5 19.5 12.5 33.5s-4.16699 25.167 -12.5 33.5s-19.5 12.5 -33.5 12.5s-25.167 -4.16699 -33.5 -12.5s-12.5 -19.5 -12.5 -33.5z" />
    <glyph glyph-name="ae" unicode="&#xe6;" horiz-adv-x="860" 
d="M606 -13c-92 0 -157.001 27.999 -195.001 83.999c-44 -56 -109.333 -84 -196 -84c-60.667 0 -105.167 13.667 -133.5 41s-42.5 67.333 -42.5 120c0 28 3.66699 52.333 11 73s19.5 37.834 36.5 51.501s39 24 66 31s60.5 10.5 100.5 10.5h103v36
c0 31.333 -7.83301 53.5 -23.5 66.5s-44.834 19.5 -87.501 19.5c-33.333 0 -64.333 -4 -93 -12s-51.667 -17.667 -69 -29v120c20 8.66699 45.833 16 77.5 22s66.5 9 104.5 9c43.333 0 78.833 -4.33301 106.5 -13s49.167 -23.334 64.5 -44.001c38.667 38 91 57 157 57
c81.333 0 139.666 -21.5 174.999 -64.5s53 -105.833 53 -188.5v-58h-344c2 -50.667 14.333 -87.334 37 -110.001s58 -34 106 -34c16.667 0 33.167 1.33301 49.5 4s31.833 6.33398 46.5 11.001s28.334 10.334 41.001 17.001s23.334 14 32.001 22v-113
c-18 -12 -41.667 -22.5 -71 -31.5s-66.666 -13.5 -111.999 -13.5zM592.999 449.999c-36.667 0 -64.5 -10.833 -83.5 -32.5s-29.833 -56.5 -32.5 -104.5h222c0 44.667 -7.5 78.667 -22.5 102s-42.833 35 -83.5 35zM244.999 90.999c35.333 0 62.666 9.83301 81.999 29.5
s29 48.5 29 86.5v29h-89c-39.333 0 -66.166 -6.16699 -80.499 -18.5s-21.5 -31.833 -21.5 -58.5c0 -22.667 6.16699 -39.667 18.5 -51s32.833 -17 61.5 -17z" />
    <glyph glyph-name="ccedilla" unicode="&#xe7;" horiz-adv-x="475" 
d="M270 -226c-18 0 -33.5 1.16504 -46.5 3.49805s-25.5 6.16602 -37.5 11.499l10 58c18.667 -8 38.667 -12 60 -12c18 0 30.667 3.33301 38 10s11 16 11 28c0 12.667 -3.83301 22.167 -11.5 28.5s-21.167 9.5 -40.5 9.5c-5.33301 0 -11 -0.166992 -17 -0.5
s-11 -0.833008 -15 -1.5l15 82c-67.333 8.66699 -117 35 -149 79s-48 111.333 -48 202c0 94.667 21.333 164 64 208s105.667 66 189 66c20.667 0 39.667 -1.16699 57 -3.5s32.333 -5.16602 45 -8.49902s22.834 -6.5 30.501 -9.5s12.5 -4.83301 14.5 -5.5v-127
c-16 12 -34.833 22.333 -56.5 31s-47.5 13 -77.5 13c-48 0 -83.333 -12.5 -106 -37.5s-34 -67.167 -34 -126.5c0 -63.333 12.167 -108.333 36.5 -135s62.166 -40 113.499 -40c25.333 0 50 4.33301 74 13s42.667 19.334 56 32.001v-121
c-2 -1.33301 -6.83301 -3.66602 -14.5 -6.99902s-17.5 -7 -29.5 -11s-26.167 -7.5 -42.5 -10.5s-34.5 -4.83301 -54.5 -5.5l-6 -30c30 -0.666992 54.167 -7.5 72.5 -20.5s27.5 -34.5 27.5 -64.5s-10.833 -53.833 -32.5 -71.5s-53.5 -26.5 -95.5 -26.5z" />
    <glyph glyph-name="egrave" unicode="&#xe8;" horiz-adv-x="550" 
d="M293 -13c-90.667 0 -155.669 23.335 -195.002 70.002s-59 119 -59 217c0 92 21.167 160.333 63.5 205s101.5 67 177.5 67c82.667 0 141.834 -21.5 177.501 -64.5s53.5 -105.833 53.5 -188.5v-58h-350c2 -50.667 14.5 -87.334 37.5 -110.001s59.167 -34 108.5 -34
c34 0 66.833 5.5 98.5 16.5s56.167 24.5 73.5 40.5v-113c-19.333 -12.667 -43.666 -23.834 -72.999 -33.501s-67 -14.5 -113 -14.5zM279.998 450.002c-38 0 -66.667 -10.833 -86 -32.5s-30.333 -56.5 -33 -104.5h228c0 44.667 -7.66699 78.667 -23 102s-44 35 -86 35z
M92.998 769.002h158l84 -151h-100z" />
    <glyph glyph-name="eacute" unicode="&#xe9;" horiz-adv-x="550" 
d="M293 -13c-90.667 0 -155.669 23.335 -195.002 70.002s-59 119 -59 217c0 92 21.167 160.333 63.5 205s101.5 67 177.5 67c82.667 0 141.834 -21.5 177.501 -64.5s53.5 -105.833 53.5 -188.5v-58h-350c2 -50.667 14.5 -87.334 37.5 -110.001s59.167 -34 108.5 -34
c34 0 66.833 5.5 98.5 16.5s56.167 24.5 73.5 40.5v-113c-19.333 -12.667 -43.666 -23.834 -72.999 -33.501s-67 -14.5 -113 -14.5zM279.998 450.002c-38 0 -66.667 -10.833 -86 -32.5s-30.333 -56.5 -33 -104.5h228c0 44.667 -7.66699 78.667 -23 102s-44 35 -86 35z
M304.998 769.002h156l-144 -151h-98z" />
    <glyph glyph-name="ecircumflex" unicode="&#xea;" horiz-adv-x="550" 
d="M293 -13c-90.667 0 -155.669 23.335 -195.002 70.002s-59 119 -59 217c0 92 21.167 160.333 63.5 205s101.5 67 177.5 67c82.667 0 141.834 -21.5 177.501 -64.5s53.5 -105.833 53.5 -188.5v-58h-350c2 -50.667 14.5 -87.334 37.5 -110.001s59.167 -34 108.5 -34
c34 0 66.833 5.5 98.5 16.5s56.167 24.5 73.5 40.5v-113c-19.333 -12.667 -43.666 -23.834 -72.999 -33.501s-67 -14.5 -113 -14.5zM279.998 450.002c-38 0 -66.667 -10.833 -86 -32.5s-30.333 -56.5 -33 -104.5h228c0 44.667 -7.66699 78.667 -23 102s-44 35 -86 35z
M212.998 769.002h128l112 -151h-101l-74 88l-78 -88h-99z" />
    <glyph glyph-name="edieresis" unicode="&#xeb;" horiz-adv-x="550" 
d="M293 -13c-90.667 0 -155.669 23.335 -195.002 70.002s-59 119 -59 217c0 92 21.167 160.333 63.5 205s101.5 67 177.5 67c82.667 0 141.834 -21.5 177.501 -64.5s53.5 -105.833 53.5 -188.5v-58h-350c2 -50.667 14.5 -87.334 37.5 -110.001s59.167 -34 108.5 -34
c34 0 66.833 5.5 98.5 16.5s56.167 24.5 73.5 40.5v-113c-19.333 -12.667 -43.666 -23.834 -72.999 -33.501s-67 -14.5 -113 -14.5zM279.998 450.002c-38 0 -66.667 -10.833 -86 -32.5s-30.333 -56.5 -33 -104.5h228c0 44.667 -7.66699 78.667 -23 102s-44 35 -86 35z
M172.998 628.002c-47.333 0 -71 22 -71 66c0 43.333 23.667 65 71 65s71 -21.667 71 -65c0 -44 -23.667 -66 -71 -66zM380.998 628.002c-47.333 0 -71 22 -71 66c0 43.333 23.667 65 71 65s71 -21.667 71 -65c0 -44 -23.667 -66 -71 -66z" />
    <glyph glyph-name="igrave" unicode="&#xec;" horiz-adv-x="290" 
d="M84 534h122v-534h-122v534zM-46 769h158l84 -151h-100z" />
    <glyph glyph-name="iacute" unicode="&#xed;" horiz-adv-x="290" 
d="M84 534h122v-534h-122v534zM182 769h156l-144 -151h-98z" />
    <glyph glyph-name="icircumflex" unicode="&#xee;" horiz-adv-x="290" 
d="M84 534h122v-534h-122v534zM82 769h128l112 -151h-101l-74 88l-78 -88h-99z" />
    <glyph glyph-name="idieresis" unicode="&#xef;" horiz-adv-x="290" 
d="M84 534h122v-534h-122v534zM42 628c-47.333 0 -71 22 -71 66c0 43.333 23.667 65 71 65s71 -21.667 71 -65c0 -44 -23.667 -66 -71 -66zM250 628c-47.333 0 -71 22 -71 66c0 43.333 23.667 65 71 65s71 -21.667 71 -65c0 -44 -23.667 -66 -71 -66z" />
    <glyph glyph-name="eth" unicode="&#xf0;" horiz-adv-x="585" 
d="M135 616l90.002 47.999c-40 21.333 -82.667 37 -128 47l40 72c69.333 -16.667 129.666 -39.667 180.999 -69l129 70l28 -55l-100 -53c57.333 -45.333 99.333 -100.666 126 -165.999s40 -141.333 40 -228c0 -55.333 -7 -101.833 -21 -139.5s-32.833 -68 -56.5 -91
s-51 -39.5 -82 -49.5s-63.833 -15 -98.5 -15c-42.667 0 -79.334 6.5 -110.001 19.5s-56 31.333 -76 55s-34.667 52.167 -44 85.5s-14 70.333 -14 111c0 84.667 18 149.5 54 194.5s92 67.5 168 67.5c22 0 45.833 -3.83301 71.5 -11.5s49.834 -24.167 72.501 -49.5l3 2
c-8.66699 33.333 -23.834 64 -45.501 92s-47.5 53 -77.5 75l-123 -66zM290.002 96.999c43.333 0 75 12.167 95 36.5s30 66.166 30 125.499c0 54.667 -9.16699 93.5 -27.5 116.5s-50.833 34.5 -97.5 34.5c-21.333 0 -39.833 -2.33301 -55.5 -7s-28.667 -12.834 -39 -24.501
s-18 -27.167 -23 -46.5s-7.5 -43.666 -7.5 -72.999c0 -59.333 10.667 -101.166 32 -125.499s52.333 -36.5 93 -36.5z" />
    <glyph glyph-name="ntilde" unicode="&#xf1;" horiz-adv-x="585" 
d="M69 534l116.999 -0.000976562l5 -82c28.667 62.667 80.667 94 156 94c56.667 0 99.834 -15.167 129.501 -45.5s44.5 -80.166 44.5 -149.499v-351h-122v310c0 24 -2 44.167 -6 60.5s-10 29.333 -18 39s-18.333 16.5 -31 20.5s-28 6 -46 6c-34 0 -60.333 -10 -79 -30
s-28 -52 -28 -96v-310h-122v534zM119.999 631.999c1.33301 37.333 11.3311 65.9951 29.998 85.9951s42 30 70 30c13.333 0 26.333 -2.16699 39 -6.5s26.667 -10.166 42 -17.499l35.5 -16.5c7.66699 -3.66699 16.167 -5.5 25.5 -5.5c20.667 0 33.334 15 38.001 45l68 -12
c-2.66699 -36 -13 -64.167 -31 -84.5s-40.667 -30.5 -68 -30.5c-7.33301 0 -14 0.333008 -20 1s-12 1.83398 -18 3.50098s-12.5 3.83398 -19.5 6.50098s-15.167 6.33398 -24.5 11.001c-14 6.66699 -25.167 12.334 -33.5 17.001s-17.166 7 -26.499 7
c-8.66699 0 -16.5 -3.66699 -23.5 -11s-12.167 -19 -15.5 -35z" />
    <glyph glyph-name="ograve" unicode="&#xf2;" horiz-adv-x="570" 
d="M285 -13c-81.333 0 -142.666 22.168 -183.999 66.501s-62 115.5 -62 213.5c0 95.333 21.333 165.666 64 210.999s103.334 68 182.001 68c83.333 0 145.166 -21.5 185.499 -64.5s60.5 -114.5 60.5 -214.5c0 -98 -20.833 -169.167 -62.5 -213.5
s-102.834 -66.5 -183.501 -66.5zM285 97.001c20 0 37.499 2.83301 52.499 8.5s27.5 15 37.5 28s17.5 30.5 22.5 52.5s7.5 49 7.5 81s-2.5 58.833 -7.5 80.5s-12.5 39 -22.5 52s-22.5 22.333 -37.5 28s-32.5 8.5 -52.5 8.5c-39.333 0 -69.166 -12.5 -89.499 -37.5
s-30.5 -68.833 -30.5 -131.5c0 -32 2.5 -59 7.5 -81s12.5 -39.5 22.5 -52.5s22.5 -22.333 37.5 -28s32.5 -8.5 52.5 -8.5zM101.999 769.001h158l84 -151h-100z" />
    <glyph glyph-name="oacute" unicode="&#xf3;" horiz-adv-x="570" 
d="M285 -13c-81.333 0 -142.666 22.168 -183.999 66.501s-62 115.5 -62 213.5c0 95.333 21.333 165.666 64 210.999s103.334 68 182.001 68c83.333 0 145.166 -21.5 185.499 -64.5s60.5 -114.5 60.5 -214.5c0 -98 -20.833 -169.167 -62.5 -213.5
s-102.834 -66.5 -183.501 -66.5zM285 97.001c20 0 37.499 2.83301 52.499 8.5s27.5 15 37.5 28s17.5 30.5 22.5 52.5s7.5 49 7.5 81s-2.5 58.833 -7.5 80.5s-12.5 39 -22.5 52s-22.5 22.333 -37.5 28s-32.5 8.5 -52.5 8.5c-39.333 0 -69.166 -12.5 -89.499 -37.5
s-30.5 -68.833 -30.5 -131.5c0 -32 2.5 -59 7.5 -81s12.5 -39.5 22.5 -52.5s22.5 -22.333 37.5 -28s32.5 -8.5 52.5 -8.5zM312.999 769.001h156l-144 -151h-98z" />
    <glyph glyph-name="ocircumflex" unicode="&#xf4;" horiz-adv-x="570" 
d="M285 -13c-81.333 0 -142.666 22.168 -183.999 66.501s-62 115.5 -62 213.5c0 95.333 21.333 165.666 64 210.999s103.334 68 182.001 68c83.333 0 145.166 -21.5 185.499 -64.5s60.5 -114.5 60.5 -214.5c0 -98 -20.833 -169.167 -62.5 -213.5
s-102.834 -66.5 -183.501 -66.5zM285 97.001c20 0 37.499 2.83301 52.499 8.5s27.5 15 37.5 28s17.5 30.5 22.5 52.5s7.5 49 7.5 81s-2.5 58.833 -7.5 80.5s-12.5 39 -22.5 52s-22.5 22.333 -37.5 28s-32.5 8.5 -52.5 8.5c-39.333 0 -69.166 -12.5 -89.499 -37.5
s-30.5 -68.833 -30.5 -131.5c0 -32 2.5 -59 7.5 -81s12.5 -39.5 22.5 -52.5s22.5 -22.333 37.5 -28s32.5 -8.5 52.5 -8.5zM220.999 769.001h128l112 -151h-101l-74 88l-78 -88h-99z" />
    <glyph glyph-name="otilde" unicode="&#xf5;" horiz-adv-x="570" 
d="M285 -13c-81.333 0 -142.666 22.168 -183.999 66.501s-62 115.5 -62 213.5c0 95.333 21.333 165.666 64 210.999s103.334 68 182.001 68c83.333 0 145.166 -21.5 185.499 -64.5s60.5 -114.5 60.5 -214.5c0 -98 -20.833 -169.167 -62.5 -213.5
s-102.834 -66.5 -183.501 -66.5zM285 97.001c20 0 37.499 2.83301 52.499 8.5s27.5 15 37.5 28s17.5 30.5 22.5 52.5s7.5 49 7.5 81s-2.5 58.833 -7.5 80.5s-12.5 39 -22.5 52s-22.5 22.333 -37.5 28s-32.5 8.5 -52.5 8.5c-39.333 0 -69.166 -12.5 -89.499 -37.5
s-30.5 -68.833 -30.5 -131.5c0 -32 2.5 -59 7.5 -81s12.5 -39.5 22.5 -52.5s22.5 -22.333 37.5 -28s32.5 -8.5 52.5 -8.5zM110.999 632.001c1.33301 37.333 11.3311 65.9951 29.998 85.9951s42 30 70 30c13.333 0 26.333 -2.16699 39 -6.5s26.667 -10.166 42 -17.499
l35.5 -16.5c7.66699 -3.66699 16.167 -5.5 25.5 -5.5c20.667 0 33.334 15 38.001 45l68 -12c-2.66699 -36 -13 -64.167 -31 -84.5s-40.667 -30.5 -68 -30.5c-7.33301 0 -14 0.333008 -20 1s-12 1.83398 -18 3.50098s-12.5 3.83398 -19.5 6.50098
s-15.167 6.33398 -24.5 11.001c-14 6.66699 -25.167 12.334 -33.5 17.001s-17.166 7 -26.499 7c-8.66699 0 -16.5 -3.66699 -23.5 -11s-12.167 -19 -15.5 -35z" />
    <glyph glyph-name="odieresis" unicode="&#xf6;" horiz-adv-x="570" 
d="M285 -13c-81.333 0 -142.666 22.168 -183.999 66.501s-62 115.5 -62 213.5c0 95.333 21.333 165.666 64 210.999s103.334 68 182.001 68c83.333 0 145.166 -21.5 185.499 -64.5s60.5 -114.5 60.5 -214.5c0 -98 -20.833 -169.167 -62.5 -213.5
s-102.834 -66.5 -183.501 -66.5zM285 97.001c20 0 37.499 2.83301 52.499 8.5s27.5 15 37.5 28s17.5 30.5 22.5 52.5s7.5 49 7.5 81s-2.5 58.833 -7.5 80.5s-12.5 39 -22.5 52s-22.5 22.333 -37.5 28s-32.5 8.5 -52.5 8.5c-39.333 0 -69.166 -12.5 -89.499 -37.5
s-30.5 -68.833 -30.5 -131.5c0 -32 2.5 -59 7.5 -81s12.5 -39.5 22.5 -52.5s22.5 -22.333 37.5 -28s32.5 -8.5 52.5 -8.5zM180.999 628.001c-47.333 0 -71 22 -71 66c0 43.333 23.667 65 71 65s71 -21.667 71 -65c0 -44 -23.667 -66 -71 -66zM388.999 628.001
c-47.333 0 -71 22 -71 66c0 43.333 23.667 65 71 65s71 -21.667 71 -65c0 -44 -23.667 -66 -71 -66z" />
    <glyph glyph-name="divide" unicode="&#xf7;" horiz-adv-x="600" 
d="M90 410h420v-107h-420v107zM300 85c-54 0 -81 27 -81 81s27 81 81 81s81 -27 81 -81s-27 -81 -81 -81zM300 466c-26.667 0 -46.832 7 -60.499 21s-20.5 34 -20.5 60c0 54 27 81 81 81s81 -27 81 -81c0 -26 -6.83301 -46 -20.5 -60s-33.834 -21 -60.501 -21z" />
    <glyph glyph-name="oslash" unicode="&#xf8;" horiz-adv-x="570" 
d="M285 -13c-51.333 0 -94 8.33398 -128 25.001l-35 -53l-59 41l37 55c-40.667 44.667 -61 115.334 -61 212.001c0 95.333 21.333 165.666 64 210.999s103.334 68 182.001 68c50 0 92.667 -8 128 -24l35 52l59 -40l-36 -54c20 -22.667 35 -51.334 45 -86.001s15 -77 15 -127
c0 -98 -20.833 -169.167 -62.5 -213.5s-102.834 -66.5 -183.501 -66.5zM285 97.001c20 0 37.499 2.83398 52.499 8.50098s27.5 15 37.5 28s17.5 30.5 22.5 52.5s7.5 49 7.5 81c0 39.333 -4 71.666 -12 96.999l-170 -254c16.667 -8.66699 37.334 -13 62.001 -13z
M164.999 267.002c0 -40.667 4 -73.333 12 -98l170 254c-16.667 8.66699 -37.334 13 -62.001 13c-39.333 0 -69.166 -12.5 -89.499 -37.5s-30.5 -68.833 -30.5 -131.5z" />
    <glyph glyph-name="ugrave" unicode="&#xf9;" horiz-adv-x="580" 
d="M237 -13c-55.333 0 -98 15.333 -128 46s-45 80.667 -45 150v351h122v-310c0 -48.667 7.66699 -82 23 -100s40 -27 74 -27s60.167 10.167 78.5 30.5s27.5 52.5 27.5 96.5v310h122v-534h-117l-5 81c-29.333 -62.667 -80 -94 -152 -94zM104 769h158l84 -151h-100z" />
    <glyph glyph-name="uacute" unicode="&#xfa;" horiz-adv-x="580" 
d="M237 -13c-55.333 0 -98 15.333 -128 46s-45 80.667 -45 150v351h122v-310c0 -48.667 7.66699 -82 23 -100s40 -27 74 -27s60.167 10.167 78.5 30.5s27.5 52.5 27.5 96.5v310h122v-534h-117l-5 81c-29.333 -62.667 -80 -94 -152 -94zM315 769h156l-144 -151h-98z" />
    <glyph glyph-name="ucircumflex" unicode="&#xfb;" horiz-adv-x="580" 
d="M237 -13c-55.333 0 -98 15.333 -128 46s-45 80.667 -45 150v351h122v-310c0 -48.667 7.66699 -82 23 -100s40 -27 74 -27s60.167 10.167 78.5 30.5s27.5 52.5 27.5 96.5v310h122v-534h-117l-5 81c-29.333 -62.667 -80 -94 -152 -94zM223 769h128l112 -151h-101l-74 88
l-78 -88h-99z" />
    <glyph glyph-name="udieresis" unicode="&#xfc;" horiz-adv-x="580" 
d="M237 -13c-55.333 0 -98 15.333 -128 46s-45 80.667 -45 150v351h122v-310c0 -48.667 7.66699 -82 23 -100s40 -27 74 -27s60.167 10.167 78.5 30.5s27.5 52.5 27.5 96.5v310h122v-534h-117l-5 81c-29.333 -62.667 -80 -94 -152 -94zM183 628c-47.333 0 -71 22 -71 66
c0 43.333 23.667 65 71 65s71 -21.667 71 -65c0 -44 -23.667 -66 -71 -66zM391 628c-47.333 0 -71 22 -71 66c0 43.333 23.667 65 71 65s71 -21.667 71 -65c0 -44 -23.667 -66 -71 -66z" />
    <glyph glyph-name="yacute" unicode="&#xfd;" horiz-adv-x="520" 
d="M174 -193c-17.333 0 -33 1.83398 -47 5.50098s-22 6.16699 -24 7.5v112c7.33301 -4.66699 14.833 -8.33398 22.5 -11.001s16.834 -4 27.501 -4c6.66699 0 13.167 1 19.5 3s12.166 6 17.499 12s10.5 14.5 15.5 25.5s9.83301 25.167 14.5 42.5l-205 534h132l129 -366
l104 366h125l-162 -528c-13.333 -42.667 -26 -77 -38 -103s-24.5 -46.167 -37.5 -60.5s-27.167 -23.833 -42.5 -28.5s-32.333 -7 -51 -7zM288 769.001h156l-144 -151h-98z" />
    <glyph glyph-name="thorn" unicode="&#xfe;" horiz-adv-x="590" 
d="M69 757l121.995 0.00292969v-303c6.66699 12.667 14.834 24.667 24.501 36s21.167 21.166 34.5 29.499s28.833 14.833 46.5 19.5s37.834 7 60.501 7c32.667 0 61.167 -5 85.5 -15s44.5 -25.833 60.5 -47.5s28 -49.834 36 -84.501s12 -77 12 -127
c0 -102 -17.167 -175 -51.5 -219s-86.166 -66 -155.499 -66c-22 0 -41.333 2.66699 -58 8s-31.167 12.166 -43.5 20.499s-22.666 18 -30.999 29s-15.166 22.167 -20.499 33.5v-258h-122v937zM424.995 272.003c0 31.333 -2.33496 57.499 -7.00195 78.499
s-11.834 37.833 -21.501 50.5s-21.667 21.667 -36 27s-31.166 8 -50.499 8c-38 0 -67.333 -11.167 -88 -33.5s-31 -58.166 -31 -107.499v-56c0 -48.667 10.5 -84.5 31.5 -107.5s49.833 -34.5 86.5 -34.5c19.333 0 36.333 2.66699 51 8s26.834 14.833 36.501 28.5
s16.834 31.667 21.501 54s7 50.5 7 84.5z" />
    <glyph glyph-name="ydieresis" unicode="&#xff;" horiz-adv-x="520" 
d="M174 -193c-17.333 0 -33 1.83398 -47 5.50098s-22 6.16699 -24 7.5v112c7.33301 -4.66699 14.833 -8.33398 22.5 -11.001s16.834 -4 27.501 -4c6.66699 0 13.167 1 19.5 3s12.166 6 17.499 12s10.5 14.5 15.5 25.5s9.83301 25.167 14.5 42.5l-205 534h132l129 -366
l104 366h125l-162 -528c-13.333 -42.667 -26 -77 -38 -103s-24.5 -46.167 -37.5 -60.5s-27.167 -23.833 -42.5 -28.5s-32.333 -7 -51 -7zM156 628.001c-47.333 0 -71 22 -71 66c0 43.333 23.667 65 71 65s71 -21.667 71 -65c0 -44 -23.667 -66 -71 -66zM364 628.001
c-47.333 0 -71 22 -71 66c0 43.333 23.667 65 71 65s71 -21.667 71 -65c0 -44 -23.667 -66 -71 -66z" />
    <glyph glyph-name="Amacron" unicode="&#x100;" horiz-adv-x="640" 
d="M249 700h143l233 -700h-133l-52 166h-246l-52 -166h-127zM227 273h180l-89 287zM163 874h314v-88h-314v88z" />
    <glyph glyph-name="amacron" unicode="&#x101;" horiz-adv-x="535" 
d="M198 -13c-52 0 -91.5039 13.666 -118.504 40.999s-40.5 67.333 -40.5 120c0 28 3.66699 52.333 11 73s19.333 37.834 36 51.501s38.334 24 65.001 31s59.334 10.5 98.001 10.5h100v36c0 31.333 -7.66699 53.5 -23 66.5s-43.666 19.5 -84.999 19.5
c-31.333 0 -61.166 -4 -89.499 -12s-51.166 -17.667 -68.499 -29v120c20 8.66699 45.667 16 77 22s65 9 101 9c38.667 0 71.5 -3.33301 98.5 -10s48.667 -17.667 65 -33s28.166 -35.333 35.499 -60s11 -55 11 -91v-352h-110l-5 85c-10 -26.667 -28 -49.667 -54 -69
s-60.667 -29 -104 -29zM241.996 90.999c33.333 0 59.5 9.83301 78.5 29.5s28.5 48.5 28.5 86.5v29h-86c-37.333 0 -63 -6.16699 -77 -18.5s-21 -31.833 -21 -58.5c0 -22.667 6 -39.667 18 -51s31.667 -17 59 -17zM133.996 725.999h282v-84h-282v84z" />
    <glyph glyph-name="Abreve" unicode="&#x102;" horiz-adv-x="640" 
d="M249 700h143l233 -700h-133l-52 166h-246l-52 -166h-127zM227 273h180l-89 287zM320 761c-45.333 0 -82.333 11.333 -111 34s-48.667 56.667 -60 102l80 22c13.333 -48.667 43.666 -73 90.999 -73c46.667 0 77.334 24.333 92.001 73l79 -22
c-11.333 -46 -31.333 -80.167 -60 -102.5s-65.667 -33.5 -111 -33.5z" />
    <glyph glyph-name="abreve" unicode="&#x103;" horiz-adv-x="535" 
d="M198 -13c-52 0 -91.5039 13.666 -118.504 40.999s-40.5 67.333 -40.5 120c0 28 3.66699 52.333 11 73s19.333 37.834 36 51.501s38.334 24 65.001 31s59.334 10.5 98.001 10.5h100v36c0 31.333 -7.66699 53.5 -23 66.5s-43.666 19.5 -84.999 19.5
c-31.333 0 -61.166 -4 -89.499 -12s-51.166 -17.667 -68.499 -29v120c20 8.66699 45.667 16 77 22s65 9 101 9c38.667 0 71.5 -3.33301 98.5 -10s48.667 -17.667 65 -33s28.166 -35.333 35.499 -60s11 -55 11 -91v-352h-110l-5 85c-10 -26.667 -28 -49.667 -54 -69
s-60.667 -29 -104 -29zM241.996 90.999c33.333 0 59.5 9.83301 78.5 29.5s28.5 48.5 28.5 86.5v29h-86c-37.333 0 -63 -6.16699 -77 -18.5s-21 -31.833 -21 -58.5c0 -22.667 6 -39.667 18 -51s31.667 -17 59 -17zM271.996 614.999c-44 0 -80.333 11.333 -109 34
s-47.667 57 -57 103l78 20c5.33301 -25.333 15.666 -44 30.999 -56s34.333 -18 57 -18s42 6 58 18s26.667 30.667 32 56l76 -21c-9.33301 -46 -28.166 -80.167 -56.499 -102.5s-64.833 -33.5 -109.5 -33.5z" />
    <glyph glyph-name="Aogonek" unicode="&#x104;" horiz-adv-x="640" 
d="M539 -203c-40 0 -68.665 7.50195 -85.998 22.502s-26 35.833 -26 62.5c0 23.333 7.16699 44.666 21.5 63.999s35.5 37.333 63.5 54h-20l-52 166h-246l-52 -166h-127l234 700h143l233 -700c-34 -15.333 -58.667 -31.833 -74 -49.5s-23 -33.834 -23 -48.501
c0 -22 13 -33 39 -33c19.333 0 38.666 5.33301 57.999 16v-69c-10.667 -5.33301 -22.834 -9.83301 -36.501 -13.5s-30.167 -5.5 -49.5 -5.5zM227.002 273.002h180l-89 287z" />
    <glyph glyph-name="aogonek" unicode="&#x105;" horiz-adv-x="535" 
d="M385 -203c-40 0 -68.6699 7.5 -86.0029 22.5s-26 35.833 -26 62.5c0 45.333 29.333 85.333 88 120l-5 83c-10 -26.667 -28 -49.667 -54 -69s-60.667 -29 -104 -29c-52 0 -91.5 13.667 -118.5 41s-40.5 67.333 -40.5 120c0 28 3.66699 52.333 11 73
s19.333 37.834 36 51.501s38.334 24 65.001 31s59.334 10.5 98.001 10.5h100v36c0 31.333 -7.66699 53.5 -23 66.5s-43.666 19.5 -84.999 19.5c-31.333 0 -61.166 -4 -89.499 -12s-51.166 -17.667 -68.499 -29v120c20 8.66699 45.667 16 77 22s65 9 101 9
c38.667 0 71.5 -3.33301 98.5 -10s48.667 -17.667 65 -33s28.166 -35.333 35.499 -60s11 -55 11 -91v-352c-34.667 -15.333 -59.667 -31.833 -75 -49.5s-23 -33.834 -23 -48.501c0 -22.667 13.333 -34 40 -34c19.333 0 38.666 5.33301 57.999 16v-68
c-10.667 -5.33301 -23 -9.83301 -37 -13.5s-30.333 -5.5 -49 -5.5zM241.997 91c33.333 0 59.5 9.83301 78.5 29.5s28.5 48.5 28.5 86.5v29h-86c-37.333 0 -63 -6.16699 -77 -18.5s-21 -31.833 -21 -58.5c0 -22.667 6 -39.667 18 -51s31.667 -17 59 -17z" />
    <glyph glyph-name="Cacute" unicode="&#x106;" horiz-adv-x="575" 
d="M362 -13c-54 0 -100.835 6.66797 -140.502 20.001s-72.667 34.666 -99 63.999s-45.833 67.333 -58.5 114s-19 103.334 -19 170.001c0 126 26.333 217.167 79 273.5s131.334 84.5 236.001 84.5c24 0 46.5 -1.66699 67.5 -5s39.167 -7 54.5 -11
c18 -4.66699 34.667 -10 50 -16v-129c-19.333 11.333 -42.5 21.166 -69.5 29.499s-59.833 12.5 -98.5 12.5c-31.333 0 -58.666 -4.16699 -81.999 -12.5s-42.833 -22 -58.5 -41s-27.334 -43.667 -35.001 -74s-11.5 -67.5 -11.5 -111.5c0 -46 4 -85 12 -117
s19.833 -57.667 35.5 -77s35.167 -33.333 58.5 -42s50.666 -13 81.999 -13c39.333 0 73.5 5.33301 102.5 16s51.5 21.667 67.5 33v-129c-14.667 -7.33301 -30.667 -14 -48 -20c-15.333 -5.33301 -33.666 -9.83301 -54.999 -13.5s-44.666 -5.5 -69.999 -5.5zM371.998 915.001
h158l-152 -150h-100z" />
    <glyph glyph-name="cacute" unicode="&#x107;" horiz-adv-x="475" 
d="M295 -13c-44 0 -82.166 5.16504 -114.499 15.498s-59 27 -80 50s-36.5 52.5 -46.5 88.5s-15 79.667 -15 131c0 94.667 21.333 164 64 208s105.667 66 189 66c20.667 0 39.667 -1.16699 57 -3.5s32.333 -5.16602 45 -8.49902s22.834 -6.5 30.501 -9.5
s12.5 -4.83301 14.5 -5.5v-127c-16 12 -34.833 22.333 -56.5 31s-47.5 13 -77.5 13c-48 0 -83.333 -12.5 -106 -37.5s-34 -67.167 -34 -126.5c0 -63.333 12.167 -108.333 36.5 -135s62.166 -40 113.499 -40c25.333 0 50 4.33301 74 13s42.667 19.334 56 32.001v-121
c-2 -1.33301 -7 -3.83301 -15 -7.5s-18.5 -7.5 -31.5 -11.5s-28.333 -7.5 -46 -10.5s-36.834 -4.5 -57.501 -4.5zM300.001 768.998h156l-144 -151h-98z" />
    <glyph glyph-name="Ccircumflex" unicode="&#x108;" horiz-adv-x="575" 
d="M362 -13c-54 0 -100.835 6.66797 -140.502 20.001s-72.667 34.666 -99 63.999s-45.833 67.333 -58.5 114s-19 103.334 -19 170.001c0 126 26.333 217.167 79 273.5s131.334 84.5 236.001 84.5c24 0 46.5 -1.66699 67.5 -5s39.167 -7 54.5 -11
c18 -4.66699 34.667 -10 50 -16v-129c-19.333 11.333 -42.5 21.166 -69.5 29.499s-59.833 12.5 -98.5 12.5c-31.333 0 -58.666 -4.16699 -81.999 -12.5s-42.833 -22 -58.5 -41s-27.334 -43.667 -35.001 -74s-11.5 -67.5 -11.5 -111.5c0 -46 4 -85 12 -117
s19.833 -57.667 35.5 -77s35.167 -33.333 58.5 -42s50.666 -13 81.999 -13c39.333 0 73.5 5.33301 102.5 16s51.5 21.667 67.5 33v-129c-14.667 -7.33301 -30.667 -14 -48 -20c-15.333 -5.33301 -33.666 -9.83301 -54.999 -13.5s-44.666 -5.5 -69.999 -5.5zM271.998 915.001
h130l119 -150h-103l-81 85l-83 -85h-101z" />
    <glyph glyph-name="ccircumflex" unicode="&#x109;" horiz-adv-x="475" 
d="M295 -13c-44 0 -82.166 5.16504 -114.499 15.498s-59 27 -80 50s-36.5 52.5 -46.5 88.5s-15 79.667 -15 131c0 94.667 21.333 164 64 208s105.667 66 189 66c20.667 0 39.667 -1.16699 57 -3.5s32.333 -5.16602 45 -8.49902s22.834 -6.5 30.501 -9.5
s12.5 -4.83301 14.5 -5.5v-127c-16 12 -34.833 22.333 -56.5 31s-47.5 13 -77.5 13c-48 0 -83.333 -12.5 -106 -37.5s-34 -67.167 -34 -126.5c0 -63.333 12.167 -108.333 36.5 -135s62.166 -40 113.499 -40c25.333 0 50 4.33301 74 13s42.667 19.334 56 32.001v-121
c-2 -1.33301 -7 -3.83301 -15 -7.5s-18.5 -7.5 -31.5 -11.5s-28.333 -7.5 -46 -10.5s-36.834 -4.5 -57.501 -4.5zM208.001 768.998h128l112 -151h-101l-74 88l-78 -88h-99z" />
    <glyph glyph-name="Cdotaccent" unicode="&#x10a;" horiz-adv-x="575" 
d="M362 -13c-54 0 -100.835 6.66797 -140.502 20.001s-72.667 34.666 -99 63.999s-45.833 67.333 -58.5 114s-19 103.334 -19 170.001c0 126 26.333 217.167 79 273.5s131.334 84.5 236.001 84.5c24 0 46.5 -1.66699 67.5 -5s39.167 -7 54.5 -11
c18 -4.66699 34.667 -10 50 -16v-129c-19.333 11.333 -42.5 21.166 -69.5 29.499s-59.833 12.5 -98.5 12.5c-31.333 0 -58.666 -4.16699 -81.999 -12.5s-42.833 -22 -58.5 -41s-27.334 -43.667 -35.001 -74s-11.5 -67.5 -11.5 -111.5c0 -46 4 -85 12 -117
s19.833 -57.667 35.5 -77s35.167 -33.333 58.5 -42s50.666 -13 81.999 -13c39.333 0 73.5 5.33301 102.5 16s51.5 21.667 67.5 33v-129c-14.667 -7.33301 -30.667 -14 -48 -20c-15.333 -5.33301 -33.666 -9.83301 -54.999 -13.5s-44.666 -5.5 -69.999 -5.5zM336.998 770.001
c-50.667 0 -76 23.333 -76 70s25.333 70 76 70s76 -23.333 76 -70s-25.333 -70 -76 -70z" />
    <glyph glyph-name="cdotaccent" unicode="&#x10b;" horiz-adv-x="475" 
d="M295 -13c-44 0 -82.166 5.16504 -114.499 15.498s-59 27 -80 50s-36.5 52.5 -46.5 88.5s-15 79.667 -15 131c0 94.667 21.333 164 64 208s105.667 66 189 66c20.667 0 39.667 -1.16699 57 -3.5s32.333 -5.16602 45 -8.49902s22.834 -6.5 30.501 -9.5
s12.5 -4.83301 14.5 -5.5v-127c-16 12 -34.833 22.333 -56.5 31s-47.5 13 -77.5 13c-48 0 -83.333 -12.5 -106 -37.5s-34 -67.167 -34 -126.5c0 -63.333 12.167 -108.333 36.5 -135s62.166 -40 113.499 -40c25.333 0 50 4.33301 74 13s42.667 19.334 56 32.001v-121
c-2 -1.33301 -7 -3.83301 -15 -7.5s-18.5 -7.5 -31.5 -11.5s-28.333 -7.5 -46 -10.5s-36.834 -4.5 -57.501 -4.5zM272.001 625.998c-49.333 0 -74 22.667 -74 68s24.667 68 74 68s74 -22.667 74 -68s-24.667 -68 -74 -68z" />
    <glyph glyph-name="Ccaron" unicode="&#x10c;" horiz-adv-x="575" 
d="M362 -13c-54 0 -100.835 6.66797 -140.502 20.001s-72.667 34.666 -99 63.999s-45.833 67.333 -58.5 114s-19 103.334 -19 170.001c0 126 26.333 217.167 79 273.5s131.334 84.5 236.001 84.5c24 0 46.5 -1.66699 67.5 -5s39.167 -7 54.5 -11
c18 -4.66699 34.667 -10 50 -16v-129c-19.333 11.333 -42.5 21.166 -69.5 29.499s-59.833 12.5 -98.5 12.5c-31.333 0 -58.666 -4.16699 -81.999 -12.5s-42.833 -22 -58.5 -41s-27.334 -43.667 -35.001 -74s-11.5 -67.5 -11.5 -111.5c0 -46 4 -85 12 -117
s19.833 -57.667 35.5 -77s35.167 -33.333 58.5 -42s50.666 -13 81.999 -13c39.333 0 73.5 5.33301 102.5 16s51.5 21.667 67.5 33v-129c-14.667 -7.33301 -30.667 -14 -48 -20c-15.333 -5.33301 -33.666 -9.83301 -54.999 -13.5s-44.666 -5.5 -69.999 -5.5zM152.998 915.001
h103l81 -85l83 85h101l-119 -150h-130z" />
    <glyph glyph-name="ccaron" unicode="&#x10d;" horiz-adv-x="475" 
d="M295 -13c-44 0 -82.166 5.16504 -114.499 15.498s-59 27 -80 50s-36.5 52.5 -46.5 88.5s-15 79.667 -15 131c0 94.667 21.333 164 64 208s105.667 66 189 66c20.667 0 39.667 -1.16699 57 -3.5s32.333 -5.16602 45 -8.49902s22.834 -6.5 30.501 -9.5
s12.5 -4.83301 14.5 -5.5v-127c-16 12 -34.833 22.333 -56.5 31s-47.5 13 -77.5 13c-48 0 -83.333 -12.5 -106 -37.5s-34 -67.167 -34 -126.5c0 -63.333 12.167 -108.333 36.5 -135s62.166 -40 113.499 -40c25.333 0 50 4.33301 74 13s42.667 19.334 56 32.001v-121
c-2 -1.33301 -7 -3.83301 -15 -7.5s-18.5 -7.5 -31.5 -11.5s-28.333 -7.5 -46 -10.5s-36.834 -4.5 -57.501 -4.5zM96.001 768.998h101l75 -87l77 87h99l-112 -151h-128z" />
    <glyph glyph-name="Dcaron" unicode="&#x10e;" horiz-adv-x="680" 
d="M290 -6c-22.667 0 -45.833 0.501953 -69.5 1.50195s-45.167 2.16699 -64.5 3.5l-67 6v690c22 1.33301 44.667 3 68 5c20 1.33301 42.167 2.66602 66.5 3.99902s48.833 2 73.5 2c59.333 0 110.333 -6.5 153 -19.5s77.667 -33.5 105 -61.5s47.5 -64.167 60.5 -108.5
s19.5 -97.5 19.5 -159.5c0 -124.667 -28.5 -216.334 -85.5 -275.001s-143.5 -88 -259.5 -88zM503.001 357.002c0 42.667 -3.83105 78.667 -11.498 108s-19.667 53 -36 71s-37.333 31 -63 39s-56.5 12 -92.5 12c-10.667 0 -21 -0.166992 -31 -0.5s-18.667 -0.833008 -26 -1.5
c-9.33301 -0.666992 -18 -1.33398 -26 -2.00098v-466l23 -2c7.33301 -0.666992 15.5 -1.16699 24.5 -1.5s18.5 -0.5 28.5 -0.5c36 0 67.167 4.33301 93.5 13s48.166 22.834 65.499 42.501s30.166 45 38.499 76s12.5 68.5 12.5 112.5zM132.003 915.002h103l81 -85l83 85h101
l-119 -150h-130z" />
    <glyph glyph-name="dcaron" unicode="&#x10f;" horiz-adv-x="660" 
d="M619 757h115l-63 -191h-82zM399 81c-5.33301 -11.333 -12.501 -22.5 -21.501 -33.5s-20 -21 -33 -30s-28.333 -16.333 -46 -22s-37.5 -8.5 -59.5 -8.5c-34 0 -63.5 5.16699 -88.5 15.5s-45.833 26.833 -62.5 49.5s-29 52 -37 88s-12 80 -12 132
c0 96 16.833 165.667 50.5 209s84.834 65 153.501 65c39.333 0 72 -8 98 -24s45.333 -38 58 -66v301h122v-757h-117zM164.999 272c0 -34 2.50098 -62.168 7.50098 -84.501s12.333 -40.166 22 -53.499s21.667 -22.833 36 -28.5s31.166 -8.5 50.499 -8.5
c36.667 0 65.5 11.5 86.5 34.5s31.5 59.167 31.5 108.5v56c0 93.333 -39.667 140 -119 140c-38.667 0 -67.5 -11.833 -86.5 -35.5s-28.5 -66.5 -28.5 -128.5z" />
    <glyph glyph-name="Dcroat" unicode="&#x110;" horiz-adv-x="690" 
d="M13 401l86.001 0.00195312v294c22 1.33301 44.667 3 68 5c20 1.33301 42.167 2.66602 66.5 3.99902s48.833 2 73.5 2c59.333 0 110.333 -6.5 153 -19.5s77.667 -33.5 105 -61.5s47.5 -64.167 60.5 -108.5s19.5 -97.5 19.5 -159.5
c0 -124.667 -28.5 -216.334 -85.5 -275.001s-143.5 -88 -259.5 -88c-22.667 0 -45.834 0.5 -69.501 1.5s-45.167 2.16699 -64.5 3.5l-67 6v304h-86v92zM513.001 357.002c0 42.667 -3.83105 78.667 -11.498 108s-19.667 53 -36 71s-37.333 31 -63 39s-56.5 12 -92.5 12
c-10.667 0 -21 -0.166992 -31 -0.5s-18.667 -0.833008 -26 -1.5c-9.33301 -0.666992 -18 -1.33398 -26 -2.00098v-182h141v-92h-141v-192l23 -2c7.33301 -0.666992 15.5 -1.16699 24.5 -1.5s18.5 -0.5 28.5 -0.5c36 0 67.167 4.33301 93.5 13s48.166 22.834 65.499 42.501
s30.166 45 38.499 76s12.5 68.5 12.5 112.5z" />
    <glyph glyph-name="dcroat" unicode="&#x111;" horiz-adv-x="590" 
d="M213 680h185.999v77h122v-77h86v-86h-86v-594h-117l-5 81c-5.33301 -11.333 -12.5 -22.5 -21.5 -33.5s-20 -21 -33 -30s-28.333 -16.333 -46 -22s-37.5 -8.5 -59.5 -8.5c-34 0 -63.5 5.16699 -88.5 15.5s-45.833 26.833 -62.5 49.5s-29 52 -37 88s-12 80 -12 132
c0 96 16.833 165.667 50.5 209s84.834 65 153.501 65c39.333 0 72 -8 98 -24s45.333 -38 58 -66v138h-186v86zM164.999 272c0 -34 2.50098 -62.168 7.50098 -84.501s12.333 -40.166 22 -53.499s21.667 -22.833 36 -28.5s31.166 -8.5 50.499 -8.5
c36.667 0 65.5 11.5 86.5 34.5s31.5 59.167 31.5 108.5v56c0 93.333 -39.667 140 -119 140c-38.667 0 -67.5 -11.833 -86.5 -35.5s-28.5 -66.5 -28.5 -128.5z" />
    <glyph glyph-name="Emacron" unicode="&#x112;" horiz-adv-x="575" 
d="M89 700h436v-114h-308v-176h268v-107h-268v-189h308v-114h-436v700zM150 874h314v-88h-314v88z" />
    <glyph glyph-name="emacron" unicode="&#x113;" horiz-adv-x="550" 
d="M293 -13c-90.667 0 -155.669 23.335 -195.002 70.002s-59 119 -59 217c0 92 21.167 160.333 63.5 205s101.5 67 177.5 67c82.667 0 141.834 -21.5 177.501 -64.5s53.5 -105.833 53.5 -188.5v-58h-350c2 -50.667 14.5 -87.334 37.5 -110.001s59.167 -34 108.5 -34
c34 0 66.833 5.5 98.5 16.5s56.167 24.5 73.5 40.5v-113c-19.333 -12.667 -43.666 -23.834 -72.999 -33.501s-67 -14.5 -113 -14.5zM279.998 450.002c-38 0 -66.667 -10.833 -86 -32.5s-30.333 -56.5 -33 -104.5h228c0 44.667 -7.66699 78.667 -23 102s-44 35 -86 35z
M138.998 726.002h282v-84h-282v84z" />
    <glyph glyph-name="Edotaccent" unicode="&#x116;" horiz-adv-x="575" 
d="M89 700h436v-114h-308v-176h268v-107h-268v-189h308v-114h-436v700zM307 770c-50.667 0 -76 23.333 -76 70s25.333 70 76 70s76 -23.333 76 -70s-25.333 -70 -76 -70z" />
    <glyph glyph-name="edotaccent" unicode="&#x117;" horiz-adv-x="550" 
d="M293 -13c-90.667 0 -155.669 23.335 -195.002 70.002s-59 119 -59 217c0 92 21.167 160.333 63.5 205s101.5 67 177.5 67c82.667 0 141.834 -21.5 177.501 -64.5s53.5 -105.833 53.5 -188.5v-58h-350c2 -50.667 14.5 -87.334 37.5 -110.001s59.167 -34 108.5 -34
c34 0 66.833 5.5 98.5 16.5s56.167 24.5 73.5 40.5v-113c-19.333 -12.667 -43.666 -23.834 -72.999 -33.501s-67 -14.5 -113 -14.5zM279.998 450.002c-38 0 -66.667 -10.833 -86 -32.5s-30.333 -56.5 -33 -104.5h228c0 44.667 -7.66699 78.667 -23 102s-44 35 -86 35z
M276.998 626.002c-49.333 0 -74 22.667 -74 68s24.667 68 74 68s74 -22.667 74 -68s-24.667 -68 -74 -68z" />
    <glyph glyph-name="Eogonek" unicode="&#x118;" horiz-adv-x="575" 
d="M89 700l436.002 0.00195312v-114h-308v-176h268v-107h-268v-189h308v-114c-34 -15.333 -58.667 -31.833 -74 -49.5s-23 -33.834 -23 -48.501c0 -22 13 -33 39 -33c19.333 0 38.666 5.33301 57.999 16v-69c-10.667 -5.33301 -22.834 -9.83301 -36.501 -13.5
s-30.167 -5.5 -49.5 -5.5c-40 0 -68.667 7.5 -86 22.5s-26 35.833 -26 62.5c0 23.333 7.16699 44.666 21.5 63.999s35.5 37.333 63.5 54h-323v700z" />
    <glyph glyph-name="eogonek" unicode="&#x119;" horiz-adv-x="550" 
d="M293 -13c-90.667 0 -155.667 23.334 -195 70.001s-59 119 -59 217c0 92 21.167 160.333 63.5 205s101.5 67 177.5 67c82.667 0 141.834 -21.5 177.501 -64.5s53.5 -105.833 53.5 -188.5v-58h-350c2 -50.667 14.5 -87.334 37.5 -110.001s59.167 -34 108.5 -34
c34 0 66.833 5.5 98.5 16.5s56.167 24.5 73.5 40.5v-113c-1.33301 -1.33301 -2.66602 -2.33301 -3.99902 -3l-4 -2c-24 -16 -43.833 -30.167 -59.5 -42.5s-27.834 -23.5 -36.501 -33.5s-14.667 -19.167 -18 -27.5s-5 -16.5 -5 -24.5c0 -22.667 13.333 -34 40 -34
c19.333 0 39 5.33301 59 16v-68c-10.667 -5.33301 -23 -9.83301 -37 -13.5s-30.667 -5.5 -50 -5.5c-40 0 -68.5 7.5 -85.5 22.5s-25.5 35.833 -25.5 62.5c0 21.333 5.66699 40.5 17 57.5s27.666 33.167 48.999 48.5c-4 -0.666992 -8.16699 -1 -12.5 -1h-13.5zM280 450.001
c-38 0 -66.667 -10.833 -86 -32.5s-30.333 -56.5 -33 -104.5h228c0 44.667 -7.66699 78.667 -23 102s-44 35 -86 35z" />
    <glyph glyph-name="Ecaron" unicode="&#x11a;" horiz-adv-x="575" 
d="M89 700h436v-114h-308v-176h268v-107h-268v-189h308v-114h-436v700zM123 915h103l81 -85l83 85h101l-119 -150h-130z" />
    <glyph glyph-name="ecaron" unicode="&#x11b;" horiz-adv-x="550" 
d="M293 -13c-90.667 0 -155.669 23.335 -195.002 70.002s-59 119 -59 217c0 92 21.167 160.333 63.5 205s101.5 67 177.5 67c82.667 0 141.834 -21.5 177.501 -64.5s53.5 -105.833 53.5 -188.5v-58h-350c2 -50.667 14.5 -87.334 37.5 -110.001s59.167 -34 108.5 -34
c34 0 66.833 5.5 98.5 16.5s56.167 24.5 73.5 40.5v-113c-19.333 -12.667 -43.666 -23.834 -72.999 -33.501s-67 -14.5 -113 -14.5zM279.998 450.002c-38 0 -66.667 -10.833 -86 -32.5s-30.333 -56.5 -33 -104.5h228c0 44.667 -7.66699 78.667 -23 102s-44 35 -86 35z
M100.998 769.002h101l75 -87l77 87h99l-112 -151h-128z" />
    <glyph glyph-name="Gcircumflex" unicode="&#x11c;" horiz-adv-x="650" 
d="M373 -13c-56.667 0 -105.503 6.66699 -146.503 20s-75 34.833 -102 64.5s-47 67.667 -60 114s-19.5 102.5 -19.5 168.5c0 125.333 27.167 216.5 81.5 273.5s136.5 85.5 246.5 85.5c26 0 49.5 -1.66699 70.5 -5s39.167 -7 54.5 -11c17.333 -4.66699 33 -10 47 -16v-129
c-19.333 10.667 -43.833 20.334 -73.5 29.001s-62.5 13 -98.5 13c-33.333 0 -62.166 -4.33301 -86.499 -13s-44.666 -22.5 -60.999 -41.5s-28.5 -43.667 -36.5 -74s-12 -67.166 -12 -110.499c0 -46.667 4 -85.834 12 -117.501s20 -57.334 36 -77.001s36.333 -33.667 61 -42
s53.667 -12.5 87 -12.5c19.333 0 36.333 1.33301 51 4s28.334 5.66699 41.001 9v153h-112v107h232v-342c-19.333 -10.667 -47 -21.667 -83 -33s-79 -17 -129 -17zM287.997 915h130l119 -150h-103l-81 85l-83 -85h-101z" />
    <glyph glyph-name="gcircumflex" unicode="&#x11d;" horiz-adv-x="590" 
d="M263 -193c-39.333 0 -74.833 3.49609 -106.5 10.4961s-56.167 14.833 -73.5 23.5v130c6.66699 -6 15.667 -12.167 27 -18.5s24.666 -12.166 39.999 -17.499s32.666 -9.66602 51.999 -12.999s40.333 -5 63 -5c47.333 0 81.5 10.333 102.5 31s31.5 53.334 31.5 98.001v59
c-5.33301 -11.333 -12.5 -22.5 -21.5 -33.5s-20 -21 -33 -30s-28.333 -16.333 -46 -22s-37.5 -8.5 -59.5 -8.5c-67.333 0 -117.5 20.833 -150.5 62.5s-49.5 108.834 -49.5 201.501c0 95.333 16.833 164.333 50.5 207s84.834 64 153.501 64c39.333 0 72 -8 98 -24
s45.333 -38 58 -66l5 78h117v-480c0 -88 -21.167 -151.167 -63.5 -189.5s-107.166 -57.5 -194.499 -57.5zM280 120.996c37.333 0 66.5 11.5 87.5 34.5s31.5 58.167 31.5 105.5v40c0 44 -10 77.5 -30 100.5s-49.667 34.5 -89 34.5c-38.667 0 -67.5 -11.333 -86.5 -34
s-28.5 -62 -28.5 -118c0 -61.333 9.66699 -103.833 29 -127.5s48 -35.5 86 -35.5zM216 768.996h128l112 -151h-101l-74 88l-78 -88h-99z" />
    <glyph glyph-name="Gbreve" unicode="&#x11e;" horiz-adv-x="650" 
d="M373 -13c-56.667 0 -105.503 6.66699 -146.503 20s-75 34.833 -102 64.5s-47 67.667 -60 114s-19.5 102.5 -19.5 168.5c0 125.333 27.167 216.5 81.5 273.5s136.5 85.5 246.5 85.5c26 0 49.5 -1.66699 70.5 -5s39.167 -7 54.5 -11c17.333 -4.66699 33 -10 47 -16v-129
c-19.333 10.667 -43.833 20.334 -73.5 29.001s-62.5 13 -98.5 13c-33.333 0 -62.166 -4.33301 -86.499 -13s-44.666 -22.5 -60.999 -41.5s-28.5 -43.667 -36.5 -74s-12 -67.166 -12 -110.499c0 -46.667 4 -85.834 12 -117.501s20 -57.334 36 -77.001s36.333 -33.667 61 -42
s53.667 -12.5 87 -12.5c19.333 0 36.333 1.33301 51 4s28.334 5.66699 41.001 9v153h-112v107h232v-342c-19.333 -10.667 -47 -21.667 -83 -33s-79 -17 -129 -17zM352.997 761c-45.333 0 -82.333 11.333 -111 34s-48.667 56.667 -60 102l80 22
c13.333 -48.667 43.666 -73 90.999 -73c46.667 0 77.334 24.333 92.001 73l79 -22c-11.333 -46 -31.333 -80.167 -60 -102.5s-65.667 -33.5 -111 -33.5z" />
    <glyph glyph-name="gbreve" unicode="&#x11f;" horiz-adv-x="590" 
d="M263 -193c-39.333 0 -74.833 3.49609 -106.5 10.4961s-56.167 14.833 -73.5 23.5v130c6.66699 -6 15.667 -12.167 27 -18.5s24.666 -12.166 39.999 -17.499s32.666 -9.66602 51.999 -12.999s40.333 -5 63 -5c47.333 0 81.5 10.333 102.5 31s31.5 53.334 31.5 98.001v59
c-5.33301 -11.333 -12.5 -22.5 -21.5 -33.5s-20 -21 -33 -30s-28.333 -16.333 -46 -22s-37.5 -8.5 -59.5 -8.5c-67.333 0 -117.5 20.833 -150.5 62.5s-49.5 108.834 -49.5 201.501c0 95.333 16.833 164.333 50.5 207s84.834 64 153.501 64c39.333 0 72 -8 98 -24
s45.333 -38 58 -66l5 78h117v-480c0 -88 -21.167 -151.167 -63.5 -189.5s-107.166 -57.5 -194.499 -57.5zM280 120.996c37.333 0 66.5 11.5 87.5 34.5s31.5 58.167 31.5 105.5v40c0 44 -10 77.5 -30 100.5s-49.667 34.5 -89 34.5c-38.667 0 -67.5 -11.333 -86.5 -34
s-28.5 -62 -28.5 -118c0 -61.333 9.66699 -103.833 29 -127.5s48 -35.5 86 -35.5zM280 614.996c-44 0 -80.333 11.333 -109 34s-47.667 57 -57 103l78 20c5.33301 -25.333 15.666 -44 30.999 -56s34.333 -18 57 -18s42 6 58 18s26.667 30.667 32 56l76 -21
c-9.33301 -46 -28.166 -80.167 -56.499 -102.5s-64.833 -33.5 -109.5 -33.5z" />
    <glyph glyph-name="Gdotaccent" unicode="&#x120;" horiz-adv-x="650" 
d="M373 -13c-56.667 0 -105.503 6.66699 -146.503 20s-75 34.833 -102 64.5s-47 67.667 -60 114s-19.5 102.5 -19.5 168.5c0 125.333 27.167 216.5 81.5 273.5s136.5 85.5 246.5 85.5c26 0 49.5 -1.66699 70.5 -5s39.167 -7 54.5 -11c17.333 -4.66699 33 -10 47 -16v-129
c-19.333 10.667 -43.833 20.334 -73.5 29.001s-62.5 13 -98.5 13c-33.333 0 -62.166 -4.33301 -86.499 -13s-44.666 -22.5 -60.999 -41.5s-28.5 -43.667 -36.5 -74s-12 -67.166 -12 -110.499c0 -46.667 4 -85.834 12 -117.501s20 -57.334 36 -77.001s36.333 -33.667 61 -42
s53.667 -12.5 87 -12.5c19.333 0 36.333 1.33301 51 4s28.334 5.66699 41.001 9v153h-112v107h232v-342c-19.333 -10.667 -47 -21.667 -83 -33s-79 -17 -129 -17zM352.997 770c-50.667 0 -76 23.333 -76 70s25.333 70 76 70s76 -23.333 76 -70s-25.333 -70 -76 -70z" />
    <glyph glyph-name="gdotaccent" unicode="&#x121;" horiz-adv-x="590" 
d="M263 -193c-39.333 0 -74.833 3.49609 -106.5 10.4961s-56.167 14.833 -73.5 23.5v130c6.66699 -6 15.667 -12.167 27 -18.5s24.666 -12.166 39.999 -17.499s32.666 -9.66602 51.999 -12.999s40.333 -5 63 -5c47.333 0 81.5 10.333 102.5 31s31.5 53.334 31.5 98.001v59
c-5.33301 -11.333 -12.5 -22.5 -21.5 -33.5s-20 -21 -33 -30s-28.333 -16.333 -46 -22s-37.5 -8.5 -59.5 -8.5c-67.333 0 -117.5 20.833 -150.5 62.5s-49.5 108.834 -49.5 201.501c0 95.333 16.833 164.333 50.5 207s84.834 64 153.501 64c39.333 0 72 -8 98 -24
s45.333 -38 58 -66l5 78h117v-480c0 -88 -21.167 -151.167 -63.5 -189.5s-107.166 -57.5 -194.499 -57.5zM280 120.996c37.333 0 66.5 11.5 87.5 34.5s31.5 58.167 31.5 105.5v40c0 44 -10 77.5 -30 100.5s-49.667 34.5 -89 34.5c-38.667 0 -67.5 -11.333 -86.5 -34
s-28.5 -62 -28.5 -118c0 -61.333 9.66699 -103.833 29 -127.5s48 -35.5 86 -35.5zM280 625.996c-49.333 0 -74 22.667 -74 68s24.667 68 74 68s74 -22.667 74 -68s-24.667 -68 -74 -68z" />
    <glyph glyph-name="Gcommaaccent" unicode="&#x122;" horiz-adv-x="650" 
d="M373 -13c-56.667 0 -105.503 6.66699 -146.503 20s-75 34.833 -102 64.5s-47 67.667 -60 114s-19.5 102.5 -19.5 168.5c0 125.333 27.167 216.5 81.5 273.5s136.5 85.5 246.5 85.5c26 0 49.5 -1.66699 70.5 -5s39.167 -7 54.5 -11c17.333 -4.66699 33 -10 47 -16v-129
c-19.333 10.667 -43.833 20.334 -73.5 29.001s-62.5 13 -98.5 13c-33.333 0 -62.166 -4.33301 -86.499 -13s-44.666 -22.5 -60.999 -41.5s-28.5 -43.667 -36.5 -74s-12 -67.166 -12 -110.499c0 -46.667 4 -85.834 12 -117.501s20 -57.334 36 -77.001s36.333 -33.667 61 -42
s53.667 -12.5 87 -12.5c19.333 0 36.333 1.33301 51 4s28.334 5.66699 41.001 9v153h-112v107h232v-342c-19.333 -10.667 -47 -21.667 -83 -33s-79 -17 -129 -17zM283.997 -178c19.333 0.666992 36.168 3.00098 50.501 7.00098s23.166 13.667 26.499 29
c-19.333 0 -35 1 -47 3s-21.167 5 -27.5 9s-10.666 8.83301 -12.999 14.5s-3.5 12.167 -3.5 19.5c0 13.333 6.16699 24.833 18.5 34.5s33.833 14.5 64.5 14.5c28.667 0 49.667 -6.16699 63 -18.5s20 -29.166 20 -50.499c0 -14.667 -3.16699 -28.834 -9.5 -42.501
s-15.833 -26 -28.5 -37s-28.334 -19.833 -47.001 -26.5s-40 -10.334 -64 -11.001z" />
    <glyph glyph-name="gcommaaccent" unicode="&#x123;" horiz-adv-x="590" 
d="M263 -193c-39.333 0 -74.833 3.49609 -106.5 10.4961s-56.167 14.833 -73.5 23.5v130c6.66699 -6 15.667 -12.167 27 -18.5s24.666 -12.166 39.999 -17.499s32.666 -9.66602 51.999 -12.999s40.333 -5 63 -5c47.333 0 81.5 10.333 102.5 31s31.5 53.334 31.5 98.001v59
c-5.33301 -11.333 -12.5 -22.5 -21.5 -33.5s-20 -21 -33 -30s-28.333 -16.333 -46 -22s-37.5 -8.5 -59.5 -8.5c-67.333 0 -117.5 20.833 -150.5 62.5s-49.5 108.834 -49.5 201.501c0 95.333 16.833 164.333 50.5 207s84.834 64 153.501 64c39.333 0 72 -8 98 -24
s45.333 -38 58 -66l5 78h117v-480c0 -88 -21.167 -151.167 -63.5 -189.5s-107.166 -57.5 -194.499 -57.5zM280 120.996c37.333 0 66.5 11.5 87.5 34.5s31.5 58.167 31.5 105.5v40c0 44 -10 77.5 -30 100.5s-49.667 34.5 -89 34.5c-38.667 0 -67.5 -11.333 -86.5 -34
s-28.5 -62 -28.5 -118c0 -61.333 9.66699 -103.833 29 -127.5s48 -35.5 86 -35.5zM345.004 748.975c-21.3311 -1.33301 -38.3271 -4.50098 -50.9922 -9.5s-20.3311 -14.498 -22.9971 -28.4971c35.3291 0 58.8262 -3.83301 70.4912 -11.498
c11.665 -7.66602 17.498 -18.8311 17.498 -33.4961c0 -13.332 -5.99902 -24.8311 -17.998 -34.4961s-32.3301 -14.498 -60.9932 -14.498c-26.6631 0 -46.4941 6.33301 -59.4932 18.998s-19.498 29.6631 -19.498 50.9941c0 13.999 2.83301 27.8311 8.49902 41.4961
s14.165 25.8301 25.4971 36.4951s25.8301 19.4971 43.4951 26.4961c17.6641 6.99902 38.8281 10.832 63.4922 11.499z" />
    <glyph glyph-name="Hcircumflex" unicode="&#x124;" horiz-adv-x="720" 
d="M89 700h128v-285h286v285h128v-700h-128v301h-286v-301h-128v700zM295 915h130l119 -150h-103l-81 85l-83 -85h-101z" />
    <glyph glyph-name="hcircumflex" unicode="&#x125;" horiz-adv-x="585" 
d="M69 757l121.999 -0.00195312v-305c28.667 62.667 80.667 94 156 94c56.667 0 99.834 -15.167 129.501 -45.5s44.5 -80.166 44.5 -149.499v-351h-122v307c0 50 -8 84 -24 102s-41.667 27 -77 27c-34 0 -60.333 -10.167 -79 -30.5s-28 -53.166 -28 -98.499v-307h-122v757z
M66.999 969.998h128l112 -151h-101l-74 88l-78 -88h-99z" />
    <glyph glyph-name="Hbar" unicode="&#x126;" horiz-adv-x="740" 
d="M13 596h86v104h128v-104h286v104h128v-104h86v-92h-86v-504h-128v301h-286v-301h-128v504h-86v92zM513 415v89h-286v-89h286z" />
    <glyph glyph-name="hbar" unicode="&#x127;" horiz-adv-x="605" 
d="M3 681l85.999 -0.00195312v76h122v-76h200v-88h-200v-141c28.667 62.667 80.667 94 156 94c56.667 0 99.834 -15.167 129.501 -45.5s44.5 -80.166 44.5 -149.499v-351h-122v307c0 50 -8 84 -24 102s-41.667 27 -77 27c-34 0 -60.333 -10.167 -79 -30.5
s-28 -53.166 -28 -98.499v-307h-122v593h-86v88z" />
    <glyph glyph-name="Imacron" unicode="&#x12a;" horiz-adv-x="330" 
d="M101 700h128v-700h-128v700zM9 874h314v-88h-314v88z" />
    <glyph glyph-name="imacron" unicode="&#x12b;" horiz-adv-x="290" 
d="M84 534h122v-534h-122v534zM8 726h282v-84h-282v84z" />
    <glyph glyph-name="Iogonek" unicode="&#x12e;" horiz-adv-x="330" 
d="M101 700l128.001 0.000976562v-696l6 -4c-34.667 -15.333 -59.667 -31.833 -75 -49.5s-23 -33.834 -23 -48.501c0 -22.667 13.333 -34 40 -34c19.333 0 38.666 5.33301 57.999 16v-68c-10.667 -5.33301 -23 -9.83301 -37 -13.5s-30.333 -5.5 -49 -5.5
c-40 0 -68.667 7.5 -86 22.5s-26 35.833 -26 62.5c0 23.333 7.16699 44.5 21.5 63.5s35.5 37.167 63.5 54.5h-21v700z" />
    <glyph glyph-name="iogonek" unicode="&#x12f;" horiz-adv-x="290" 
d="M84 534l122.001 0.000976562v-528l10 -6c-34.667 -15.333 -59.667 -31.833 -75 -49.5s-23 -33.834 -23 -48.501c0 -22.667 13.333 -34 40 -34c19.333 0 38.666 5.33301 57.999 16v-68c-10.667 -5.33301 -23 -9.83301 -37 -13.5s-30.333 -5.5 -49 -5.5
c-40 0 -68.667 7.5 -86 22.5s-26 35.833 -26 62.5c0 23.333 7.16699 44.5 21.5 63.5s35.5 37.167 63.5 54.5h-19v534zM145.001 626.001c-49.333 0 -74 22.667 -74 68s24.667 68 74 68s74 -22.667 74 -68s-24.667 -68 -74 -68z" />
    <glyph glyph-name="Idotaccent" unicode="&#x130;" horiz-adv-x="330" 
d="M101 700h128v-700h-128v700zM165 770c-50.667 0 -76 23.333 -76 70s25.333 70 76 70s76 -23.333 76 -70s-25.333 -70 -76 -70z" />
    <glyph glyph-name="dotlessi" unicode="&#x131;" horiz-adv-x="290" 
d="M84 534h122v-534h-122v534z" />
    <glyph glyph-name="Jcircumflex" unicode="&#x134;" horiz-adv-x="420" 
d="M140 -13c-17.333 0 -32.666 0.833984 -45.999 2.50098s-24.666 3.5 -33.999 5.5c-11.333 2.66699 -21.333 5.66699 -30 9v129c6.66699 -5.33301 14.667 -10 24 -14c7.33301 -3.33301 16.666 -6.33301 27.999 -9s23.666 -4 36.999 -4c30 0 51.667 7.5 65 22.5
s20 42.5 20 82.5v489h127v-489c0 -42 -3.5 -77.333 -10.5 -106s-18.333 -51.834 -34 -69.501s-35.5 -30.167 -59.5 -37.5s-53 -11 -87 -11zM202 915.001h130l119 -150h-103l-81 85l-83 -85h-101z" />
    <glyph glyph-name="jcircumflex" unicode="&#x135;" horiz-adv-x="290" 
d="M62 -186c-20 0 -37.833 1.66895 -53.5 5.00195s-24.5 5.66602 -26.5 6.99902v114c7.33301 -4.66699 15.333 -8.5 24 -11.5s18 -4.5 28 -4.5c17.333 0 30 4.66699 38 14s12 26.666 12 51.999v544h122v-550c0 -61.333 -12 -105 -36 -131s-60 -39 -108 -39zM82 769.002h128
l112 -151h-101l-74 88l-78 -88h-99z" />
    <glyph glyph-name="Kcommaaccent" unicode="&#x136;" horiz-adv-x="655" 
d="M279 299h-62v-299h-128v700h128v-286h62l187 286h149l-230 -341l250 -359h-154zM293 -178c19.333 0.666992 36.168 3.00098 50.501 7.00098s23.166 13.667 26.499 29c-19.333 0 -35 1 -47 3s-21.167 5 -27.5 9s-10.666 8.83301 -12.999 14.5s-3.5 12.167 -3.5 19.5
c0 13.333 6.16699 24.833 18.5 34.5s33.833 14.5 64.5 14.5c28.667 0 49.667 -6.16699 63 -18.5s20 -29.166 20 -50.499c0 -14.667 -3.16699 -28.834 -9.5 -42.501s-15.833 -26 -28.5 -37s-28.334 -19.833 -47.001 -26.5s-40 -10.334 -64 -11.001z" />
    <glyph glyph-name="kcommaaccent" unicode="&#x137;" horiz-adv-x="555" 
d="M69 757h122v-427h49l136 204h137l-177 -254l195 -280h-142l-148 223h-50v-223h-122v757zM235 -179c21.333 1.33301 38.333 4.5 51 9.5s20.334 14.5 23.001 28.5c-35.333 0 -58.833 3.83301 -70.5 11.5s-17.5 18.834 -17.5 33.501c0 13.333 6 24.833 18 34.5
s32.333 14.5 61 14.5c26.667 0 46.5 -6.33301 59.5 -19s19.5 -29.667 19.5 -51c0 -14 -2.83301 -27.833 -8.5 -41.5s-14.167 -25.834 -25.5 -36.501s-25.833 -19.5 -43.5 -26.5s-38.834 -10.833 -63.501 -11.5z" />
    <glyph glyph-name="Lacute" unicode="&#x139;" horiz-adv-x="530" 
d="M89 700h128v-586h288v-114h-416v700zM195 915h158l-152 -150h-100z" />
    <glyph glyph-name="lacute" unicode="&#x13a;" horiz-adv-x="315" 
d="M205 -6c-49.333 0 -85.165 11.332 -107.498 33.999s-33.5 60 -33.5 112v617h122v-593c0 -22.667 3.66699 -38 11 -46s19.666 -12 36.999 -12c11.333 0 22.166 1.83301 32.499 5.5s16.5 6.16699 18.5 7.5v-110c-2 -1.33301 -10.333 -4.16602 -25 -8.49902
s-33 -6.5 -55 -6.5zM157.001 895.999h136l-125 -109h-86z" />
    <glyph glyph-name="Lcommaaccent" unicode="&#x13b;" horiz-adv-x="530" 
d="M89 700h128v-586h288v-114h-416v700zM228 -178c19.333 0.666992 36.168 3.00098 50.501 7.00098s23.166 13.667 26.499 29c-19.333 0 -35 1 -47 3s-21.167 5 -27.5 9s-10.666 8.83301 -12.999 14.5s-3.5 12.167 -3.5 19.5c0 13.333 6.16699 24.833 18.5 34.5
s33.833 14.5 64.5 14.5c28.667 0 49.667 -6.16699 63 -18.5s20 -29.166 20 -50.499c0 -14.667 -3.16699 -28.834 -9.5 -42.501s-15.833 -26 -28.5 -37s-28.334 -19.833 -47.001 -26.5s-40 -10.334 -64 -11.001z" />
    <glyph glyph-name="lcommaaccent" unicode="&#x13c;" horiz-adv-x="315" 
d="M205 -6c-49.333 0 -85.165 11.332 -107.498 33.999s-33.5 60 -33.5 112v617h122v-593c0 -22.667 3.66699 -38 11 -46s19.666 -12 36.999 -12c11.333 0 22.166 1.83301 32.499 5.5s16.5 6.16699 18.5 7.5v-110c-2 -1.33301 -10.333 -4.16602 -25 -8.49902
s-33 -6.5 -55 -6.5zM117.001 -179.001c21.333 1.33301 38.333 4.5 51 9.5s20.334 14.5 23.001 28.5c-35.333 0 -58.833 3.83301 -70.5 11.5s-17.5 18.834 -17.5 33.501c0 13.333 6 24.833 18 34.5s32.333 14.5 61 14.5c26.667 0 46.5 -6.33301 59.5 -19
s19.5 -29.667 19.5 -51c0 -14 -2.83301 -27.833 -8.5 -41.5s-14.167 -25.834 -25.5 -36.501s-25.833 -19.5 -43.5 -26.5s-38.834 -10.833 -63.501 -11.5z" />
    <glyph glyph-name="Lcaron" unicode="&#x13d;" horiz-adv-x="530" 
d="M357 700h120l-69 -194h-86zM89 700h128v-586h288v-114h-416v700z" />
    <glyph glyph-name="lcaron" unicode="&#x13e;" horiz-adv-x="375" 
d="M288 757h115l-67 -191h-81zM205 -6c-49.333 0 -85.165 11.332 -107.498 33.999s-33.5 60 -33.5 112v617h122v-593c0 -22.667 3.66699 -38 11 -46s19.666 -12 36.999 -12c11.333 0 22.166 1.83301 32.499 5.5s16.5 6.16699 18.5 7.5v-110
c-2 -1.33301 -10.333 -4.16602 -25 -8.49902s-33 -6.5 -55 -6.5z" />
    <glyph glyph-name="Ldot" unicode="&#x13f;" horiz-adv-x="530" 
d="M89 700h128v-586h288v-114h-416v700zM417 300c-54 0 -81 26.667 -81 80c0 54 27 81 81 81s81 -27 81 -81c0 -53.333 -27 -80 -81 -80z" />
    <glyph glyph-name="ldot" unicode="&#x140;" horiz-adv-x="415" 
d="M205 -6c-49.333 0 -85.165 11.332 -107.498 33.999s-33.5 60 -33.5 112v617h122v-593c0 -22.667 3.66699 -38 11 -46s19.666 -12 36.999 -12c11.333 0 22.166 1.83301 32.499 5.5s16.5 6.16699 18.5 7.5v-110c-2 -1.33301 -10.333 -4.16602 -25 -8.49902
s-33 -6.5 -55 -6.5zM334.001 299.999c-54 0 -81 26.667 -81 80c0 54 27 81 81 81s81 -27 81 -81c0 -53.333 -27 -80 -81 -80z" />
    <glyph glyph-name="Lslash" unicode="&#x141;" horiz-adv-x="540" 
d="M13 340l86 49v311h128v-237l144 83v-102l-144 -83v-247h288v-114h-416v287l-86 -49v102z" />
    <glyph glyph-name="lslash" unicode="&#x142;" horiz-adv-x="370" 
d="M13 359l99.999 56.999v341h122v-271l103 60v-97l-103 -60v-225c0 -22.667 3.66699 -38 11 -46s19.666 -12 36.999 -12c10.667 0 21.334 1.83301 32.001 5.5s17 6.16699 19 7.5v-110c-2 -1.33301 -10.5 -4.16602 -25.5 -8.49902s-33.167 -6.5 -54.5 -6.5
c-49.333 0 -85.166 11.333 -107.499 34s-33.5 60 -33.5 112v179l-100 -58v98z" />
    <glyph glyph-name="Nacute" unicode="&#x143;" horiz-adv-x="740" 
d="M89 700h150.001l230 -397l22 -42l18 -36c6 -12 11.333 -24 16 -36h2l-2 36c-0.666992 10.667 -1.16699 22.667 -1.5 36s-0.5 27.333 -0.5 42v397h128v-700h-150l-230 397c-8.66699 15.333 -16.334 29.666 -23.001 42.999l-18 36c-6 12 -11 23.667 -15 35h-2l2 -35
c0.666992 -10.667 1.16699 -22.667 1.5 -36s0.5 -27.666 0.5 -42.999v-397h-128v700zM405.001 915h158l-152 -150h-100z" />
    <glyph glyph-name="nacute" unicode="&#x144;" horiz-adv-x="585" 
d="M69 534l116.999 -0.000976562l5 -82c28.667 62.667 80.667 94 156 94c56.667 0 99.834 -15.167 129.501 -45.5s44.5 -80.166 44.5 -149.499v-351h-122v310c0 24 -2 44.167 -6 60.5s-10 29.333 -18 39s-18.333 16.5 -31 20.5s-28 6 -46 6c-34 0 -60.333 -10 -79 -30
s-28 -52 -28 -96v-310h-122v534zM322.999 768.999h156l-144 -151h-98z" />
    <glyph glyph-name="Ncommaaccent" unicode="&#x145;" horiz-adv-x="740" 
d="M89 700h150.001l230 -397l22 -42l18 -36c6 -12 11.333 -24 16 -36h2l-2 36c-0.666992 10.667 -1.16699 22.667 -1.5 36s-0.5 27.333 -0.5 42v397h128v-700h-150l-230 397c-8.66699 15.333 -16.334 29.666 -23.001 42.999l-18 36c-6 12 -11 23.667 -15 35h-2l2 -35
c0.666992 -10.667 1.16699 -22.667 1.5 -36s0.5 -27.666 0.5 -42.999v-397h-128v700zM301.001 -178c19.333 0.666992 36.168 3.00098 50.501 7.00098s23.166 13.667 26.499 29c-19.333 0 -35 1 -47 3s-21.167 5 -27.5 9s-10.666 8.83301 -12.999 14.5s-3.5 12.167 -3.5 19.5
c0 13.333 6.16699 24.833 18.5 34.5s33.833 14.5 64.5 14.5c28.667 0 49.667 -6.16699 63 -18.5s20 -29.166 20 -50.499c0 -14.667 -3.16699 -28.834 -9.5 -42.501s-15.833 -26 -28.5 -37s-28.334 -19.833 -47.001 -26.5s-40 -10.334 -64 -11.001z" />
    <glyph glyph-name="ncommaaccent" unicode="&#x146;" horiz-adv-x="585" 
d="M69 534l116.999 -0.000976562l5 -82c28.667 62.667 80.667 94 156 94c56.667 0 99.834 -15.167 129.501 -45.5s44.5 -80.166 44.5 -149.499v-351h-122v310c0 24 -2 44.167 -6 60.5s-10 29.333 -18 39s-18.333 16.5 -31 20.5s-28 6 -46 6c-34 0 -60.333 -10 -79 -30
s-28 -52 -28 -96v-310h-122v534zM229.999 -179.001c21.333 1.33301 38.333 4.5 51 9.5s20.334 14.5 23.001 28.5c-35.333 0 -58.833 3.83301 -70.5 11.5s-17.5 18.834 -17.5 33.501c0 13.333 6 24.833 18 34.5s32.333 14.5 61 14.5c26.667 0 46.5 -6.33301 59.5 -19
s19.5 -29.667 19.5 -51c0 -14 -2.83301 -27.833 -8.5 -41.5s-14.167 -25.834 -25.5 -36.501s-25.833 -19.5 -43.5 -26.5s-38.834 -10.833 -63.501 -11.5z" />
    <glyph glyph-name="Ncaron" unicode="&#x147;" horiz-adv-x="740" 
d="M89 700h150.001l230 -397l22 -42l18 -36c6 -12 11.333 -24 16 -36h2l-2 36c-0.666992 10.667 -1.16699 22.667 -1.5 36s-0.5 27.333 -0.5 42v397h128v-700h-150l-230 397c-8.66699 15.333 -16.334 29.666 -23.001 42.999l-18 36c-6 12 -11 23.667 -15 35h-2l2 -35
c0.666992 -10.667 1.16699 -22.667 1.5 -36s0.5 -27.666 0.5 -42.999v-397h-128v700zM186.001 915h103l81 -85l83 85h101l-119 -150h-130z" />
    <glyph glyph-name="ncaron" unicode="&#x148;" horiz-adv-x="585" 
d="M69 534l116.999 -0.000976562l5 -82c28.667 62.667 80.667 94 156 94c56.667 0 99.834 -15.167 129.501 -45.5s44.5 -80.166 44.5 -149.499v-351h-122v310c0 24 -2 44.167 -6 60.5s-10 29.333 -18 39s-18.333 16.5 -31 20.5s-28 6 -46 6c-34 0 -60.333 -10 -79 -30
s-28 -52 -28 -96v-310h-122v534zM118.999 768.999h101l75 -87l77 87h99l-112 -151h-128z" />
    <glyph glyph-name="Omacron" unicode="&#x14c;" horiz-adv-x="710" 
d="M355 -13c-102 0 -179.168 28.5 -231.501 85.5s-78.5 149.5 -78.5 277.5c0 126.667 26.5 218.834 79.5 276.501s129.833 86.5 230.5 86.5c52 0 97.5 -6.66699 136.5 -20s71.333 -34.5 97 -63.5s44.834 -66.5 57.501 -112.5s19 -101.667 19 -167
c0 -126.667 -26.5 -218.834 -79.5 -276.501s-129.833 -86.5 -230.5 -86.5zM354.999 102c29.333 0 55 4.16797 77 12.501s40.5 22.166 55.5 41.499s26.333 44.833 34 76.5s11.5 70.834 11.5 117.501s-3.83301 85.834 -11.5 117.501s-19 57.167 -34 76.5
s-33.5 33.166 -55.5 41.499s-47.667 12.5 -77 12.5s-55 -4.16699 -77 -12.5s-40.5 -22.166 -55.5 -41.499s-26.333 -44.833 -34 -76.5s-11.5 -70.834 -11.5 -117.501c0 -46 3.83301 -84.833 11.5 -116.5s19 -57.334 34 -77.001s33.667 -33.667 56 -42
s47.833 -12.5 76.5 -12.5zM197.999 874.001h314v-88h-314v88z" />
    <glyph glyph-name="omacron" unicode="&#x14d;" horiz-adv-x="570" 
d="M285 -13c-81.333 0 -142.666 22.168 -183.999 66.501s-62 115.5 -62 213.5c0 95.333 21.333 165.666 64 210.999s103.334 68 182.001 68c83.333 0 145.166 -21.5 185.499 -64.5s60.5 -114.5 60.5 -214.5c0 -98 -20.833 -169.167 -62.5 -213.5
s-102.834 -66.5 -183.501 -66.5zM285 97.001c20 0 37.499 2.83301 52.499 8.5s27.5 15 37.5 28s17.5 30.5 22.5 52.5s7.5 49 7.5 81s-2.5 58.833 -7.5 80.5s-12.5 39 -22.5 52s-22.5 22.333 -37.5 28s-32.5 8.5 -52.5 8.5c-39.333 0 -69.166 -12.5 -89.499 -37.5
s-30.5 -68.833 -30.5 -131.5c0 -32 2.5 -59 7.5 -81s12.5 -39.5 22.5 -52.5s22.5 -22.333 37.5 -28s32.5 -8.5 52.5 -8.5zM146.999 726.001h282v-84h-282v84z" />
    <glyph glyph-name="Ohungarumlaut" unicode="&#x150;" horiz-adv-x="710" 
d="M355 -13c-102 0 -179.168 28.5 -231.501 85.5s-78.5 149.5 -78.5 277.5c0 126.667 26.5 218.834 79.5 276.501s129.833 86.5 230.5 86.5c52 0 97.5 -6.66699 136.5 -20s71.333 -34.5 97 -63.5s44.834 -66.5 57.501 -112.5s19 -101.667 19 -167
c0 -126.667 -26.5 -218.834 -79.5 -276.501s-129.833 -86.5 -230.5 -86.5zM354.999 102c29.333 0 55 4.16797 77 12.501s40.5 22.166 55.5 41.499s26.333 44.833 34 76.5s11.5 70.834 11.5 117.501s-3.83301 85.834 -11.5 117.501s-19 57.167 -34 76.5
s-33.5 33.166 -55.5 41.499s-47.667 12.5 -77 12.5s-55 -4.16699 -77 -12.5s-40.5 -22.166 -55.5 -41.499s-26.333 -44.833 -34 -76.5s-11.5 -70.834 -11.5 -117.501c0 -46 3.83301 -84.833 11.5 -116.5s19 -57.334 34 -77.001s33.667 -33.667 56 -42
s47.833 -12.5 76.5 -12.5zM271.999 915.001h130l-97 -150h-90zM483.999 915.001h147l-152 -150h-102z" />
    <glyph glyph-name="ohungarumlaut" unicode="&#x151;" horiz-adv-x="570" 
d="M285 -13c-81.333 0 -142.666 22.168 -183.999 66.501s-62 115.5 -62 213.5c0 95.333 21.333 165.666 64 210.999s103.334 68 182.001 68c83.333 0 145.166 -21.5 185.499 -64.5s60.5 -114.5 60.5 -214.5c0 -98 -20.833 -169.167 -62.5 -213.5
s-102.834 -66.5 -183.501 -66.5zM285 97.001c20 0 37.499 2.83301 52.499 8.5s27.5 15 37.5 28s17.5 30.5 22.5 52.5s7.5 49 7.5 81s-2.5 58.833 -7.5 80.5s-12.5 39 -22.5 52s-22.5 22.333 -37.5 28s-32.5 8.5 -52.5 8.5c-39.333 0 -69.166 -12.5 -89.499 -37.5
s-30.5 -68.833 -30.5 -131.5c0 -32 2.5 -59 7.5 -81s12.5 -39.5 22.5 -52.5s22.5 -22.333 37.5 -28s32.5 -8.5 52.5 -8.5zM196.999 769.001h128l-86 -151h-89zM399.999 769.001h146l-142 -151h-100z" />
    <glyph glyph-name="OE" unicode="&#x152;" horiz-adv-x="935" 
d="M355 -13c-52 0 -97.499 6.66699 -136.499 20s-71.333 34.666 -97 63.999s-44.834 67.333 -57.501 114s-19 103.334 -19 170.001c0 126 26.167 217.167 78.5 273.5s129.5 84.5 231.5 84.5c27.333 0 52.333 -1.33301 75 -4s41.667 -5.66699 57 -9h398v-114h-302v-176h262
v-107h-262v-189h302v-114h-394c-15.333 -3.33301 -34.333 -6.33301 -57 -9s-49 -4 -79 -4zM358.001 106c37.333 0 69.999 2 97.999 6v474c-14 2.66699 -29.333 4.66699 -46 6s-34 2 -52 2c-30 0 -56.167 -4.16699 -78.5 -12.5s-41.166 -22 -56.499 -41
s-26.833 -43.667 -34.5 -74s-11.5 -67.5 -11.5 -111.5c0 -46 3.83301 -85 11.5 -117s19.167 -57.667 34.5 -77s34.333 -33.333 57 -42s48.667 -13 78 -13z" />
    <glyph glyph-name="oe" unicode="&#x153;" horiz-adv-x="920" 
d="M663 -13c-90.667 0 -155.003 28.3359 -193.003 85.0029c-19.333 -29.333 -44.5 -50.833 -75.5 -64.5s-67.5 -20.5 -109.5 -20.5c-81.333 0 -142.666 22.167 -183.999 66.5s-62 115.5 -62 213.5c0 95.333 21.333 165.666 64 210.999s103.334 68 182.001 68
c43.333 0 80.5 -6.66699 111.5 -20s56.167 -35 75.5 -65c19.333 28.667 44.166 50 74.499 64s64.833 21 103.5 21c82.667 0 141.834 -21.5 177.501 -64.5s53.5 -105.833 53.5 -188.5v-58h-350c2 -50.667 14.5 -87.334 37.5 -110.001s59.167 -34 108.5 -34
c34 0 66.833 5.5 98.5 16.5s56.167 24.5 73.5 40.5v-113c-19.333 -12.667 -43.666 -23.834 -72.999 -33.501s-67 -14.5 -113 -14.5zM284.997 97.0029c20 0 37.499 2.83301 52.499 8.5s27.667 15 38 28s18 30.5 23 52.5s7.5 49 7.5 81s-2.5 58.833 -7.5 80.5
s-12.5 39 -22.5 52s-22.667 22.333 -38 28s-33 8.5 -53 8.5c-39.333 0 -69.166 -12.5 -89.499 -37.5s-30.5 -68.833 -30.5 -131.5c0 -32 2.5 -59 7.5 -81s12.5 -39.5 22.5 -52.5s22.5 -22.333 37.5 -28s32.5 -8.5 52.5 -8.5zM649.996 450.003
c-38.667 0 -67.667 -10.5 -87 -31.5s-30 -56.167 -32 -105.5h228c0 46 -7.66699 80.333 -23 103s-44 34 -86 34z" />
    <glyph glyph-name="Racute" unicode="&#x154;" horiz-adv-x="640" 
d="M323 247l-21.0029 0.00195312h-85v-247h-128v695c21.333 1.33301 43.333 3 66 5c19.333 1.33301 41.333 2.66602 66 3.99902s49.334 2 74.001 2c48.667 0 89.834 -4.33301 123.501 -13s60.834 -22.334 81.501 -41.001s35.667 -42.167 45 -70.5s14 -61.833 14 -100.5
c0 -55.333 -8.83301 -100.333 -26.5 -135s-46.5 -60 -86.5 -76l155 -270h-142zM426.997 474.002c0 40.667 -9.33301 69.667 -28 87s-51 26 -97 26c-11.333 0 -22.333 -0.166992 -33 -0.5s-20 -0.833008 -28 -1.5c-9.33301 -0.666992 -18.333 -1 -27 -1v-223h88
c44.667 0 76.667 9.16699 96 27.5s29 46.833 29 85.5zM341.997 915.002h158l-152 -150h-100z" />
    <glyph glyph-name="racute" unicode="&#x155;" horiz-adv-x="410" 
d="M69 534l112 0.000976562l5 -85c12.667 34 30.5 58.667 53.5 74s49.5 23 79.5 23c13.333 0 24.833 -0.833008 34.5 -2.5s15.5 -2.83398 17.5 -3.50098v-127c-8 6 -18.667 11.333 -32 16s-28.666 7 -45.999 7c-32.667 0 -57.834 -10.5 -75.501 -31.5
s-26.5 -57.167 -26.5 -108.5v-296h-122v534zM248 769.001h156l-144 -151h-98z" />
    <glyph glyph-name="Rcommaaccent" unicode="&#x156;" horiz-adv-x="640" 
d="M323 247l-21.0029 0.00195312h-85v-247h-128v695c21.333 1.33301 43.333 3 66 5c19.333 1.33301 41.333 2.66602 66 3.99902s49.334 2 74.001 2c48.667 0 89.834 -4.33301 123.501 -13s60.834 -22.334 81.501 -41.001s35.667 -42.167 45 -70.5s14 -61.833 14 -100.5
c0 -55.333 -8.83301 -100.333 -26.5 -135s-46.5 -60 -86.5 -76l155 -270h-142zM426.997 474.002c0 40.667 -9.33301 69.667 -28 87s-51 26 -97 26c-11.333 0 -22.333 -0.166992 -33 -0.5s-20 -0.833008 -28 -1.5c-9.33301 -0.666992 -18.333 -1 -27 -1v-223h88
c44.667 0 76.667 9.16699 96 27.5s29 46.833 29 85.5zM275.997 -177.998c19.333 0.666992 36.168 3.00098 50.501 7.00098s23.166 13.667 26.499 29c-19.333 0 -35 1 -47 3s-21.167 5 -27.5 9s-10.666 8.83301 -12.999 14.5s-3.5 12.167 -3.5 19.5
c0 13.333 6.16699 24.833 18.5 34.5s33.833 14.5 64.5 14.5c28.667 0 49.667 -6.16699 63 -18.5s20 -29.166 20 -50.499c0 -14.667 -3.16699 -28.834 -9.5 -42.501s-15.833 -26 -28.5 -37s-28.334 -19.833 -47.001 -26.5s-40 -10.334 -64 -11.001z" />
    <glyph glyph-name="rcommaaccent" unicode="&#x157;" horiz-adv-x="410" 
d="M69 534l112 0.000976562l5 -85c12.667 34 30.5 58.667 53.5 74s49.5 23 79.5 23c13.333 0 24.833 -0.833008 34.5 -2.5s15.5 -2.83398 17.5 -3.50098v-127c-8 6 -18.667 11.333 -32 16s-28.666 7 -45.999 7c-32.667 0 -57.834 -10.5 -75.501 -31.5
s-26.5 -57.167 -26.5 -108.5v-296h-122v534zM65 -178.999c21.333 1.33301 38.333 4.5 51 9.5s20.334 14.5 23.001 28.5c-35.333 0 -58.833 3.83301 -70.5 11.5s-17.5 18.834 -17.5 33.501c0 13.333 6 24.833 18 34.5s32.333 14.5 61 14.5c26.667 0 46.5 -6.33301 59.5 -19
s19.5 -29.667 19.5 -51c0 -14 -2.83301 -27.833 -8.5 -41.5s-14.167 -25.834 -25.5 -36.501s-25.833 -19.5 -43.5 -26.5s-38.834 -10.833 -63.501 -11.5z" />
    <glyph glyph-name="Rcaron" unicode="&#x158;" horiz-adv-x="640" 
d="M323 247l-21.0029 0.00195312h-85v-247h-128v695c21.333 1.33301 43.333 3 66 5c19.333 1.33301 41.333 2.66602 66 3.99902s49.334 2 74.001 2c48.667 0 89.834 -4.33301 123.501 -13s60.834 -22.334 81.501 -41.001s35.667 -42.167 45 -70.5s14 -61.833 14 -100.5
c0 -55.333 -8.83301 -100.333 -26.5 -135s-46.5 -60 -86.5 -76l155 -270h-142zM426.997 474.002c0 40.667 -9.33301 69.667 -28 87s-51 26 -97 26c-11.333 0 -22.333 -0.166992 -33 -0.5s-20 -0.833008 -28 -1.5c-9.33301 -0.666992 -18.333 -1 -27 -1v-223h88
c44.667 0 76.667 9.16699 96 27.5s29 46.833 29 85.5zM122.997 915.002h103l81 -85l83 85h101l-119 -150h-130z" />
    <glyph glyph-name="rcaron" unicode="&#x159;" horiz-adv-x="410" 
d="M69 534l112 0.000976562l5 -85c12.667 34 30.5 58.667 53.5 74s49.5 23 79.5 23c13.333 0 24.833 -0.833008 34.5 -2.5s15.5 -2.83398 17.5 -3.50098v-127c-8 6 -18.667 11.333 -32 16s-28.666 7 -45.999 7c-32.667 0 -57.834 -10.5 -75.501 -31.5
s-26.5 -57.167 -26.5 -108.5v-296h-122v534zM44 769.001h101l75 -87l77 87h99l-112 -151h-128z" />
    <glyph glyph-name="Sacute" unicode="&#x15a;" horiz-adv-x="580" 
d="M283 -13c-44.667 0 -85.498 5.00293 -122.498 15.0029s-66.833 22 -89.5 36v139c8.66699 -8 19.834 -16.167 33.501 -24.5s29.167 -16 46.5 -23s36.666 -12.667 57.999 -17s44 -6.5 68 -6.5c42.667 0 72.834 7.5 90.501 22.5s26.5 35.5 26.5 61.5
c0 25.333 -8.16699 45.166 -24.5 59.499s-36.5 26.666 -60.5 36.999s-50.333 20.166 -79 29.499s-55 21.666 -79 36.999s-44.167 35.5 -60.5 60.5s-24.5 58.167 -24.5 99.5c0 64 19 113.333 57 148s99.333 52 184 52c38.667 0 74.5 -3.33301 107.5 -10s60.167 -15 81.5 -25
v-139c-22 17.333 -49.5 30.833 -82.5 40.5s-66.5 14.5 -100.5 14.5c-22.667 0 -41.334 -1.66699 -56.001 -5s-26.334 -8 -35.001 -14s-14.834 -13.667 -18.501 -23s-5.5 -20 -5.5 -32c0 -24 8.16699 -42.667 24.5 -56s36.5 -24.833 60.5 -34.5s50.333 -19.167 79 -28.5
s55 -21.833 79 -37.5s44.167 -36.667 60.5 -63s24.5 -60.833 24.5 -103.5c0 -67.333 -19.5 -119.166 -58.5 -155.499s-100.5 -54.5 -184.5 -54.5zM330.002 915.003h158l-152 -150h-100z" />
    <glyph glyph-name="sacute" unicode="&#x15b;" horiz-adv-x="475" 
d="M223 -13c-25.333 0 -52.332 2.66895 -80.999 8.00195s-56.334 13.666 -83.001 24.999v123c19.333 -16.667 43 -29.5 71 -38.5s58 -13.5 90 -13.5c30 0 50.833 5 62.5 15s17.5 24.667 17.5 44c0 18 -6 31.667 -18 41s-27.167 17.166 -45.5 23.499
s-38.166 12.5 -59.499 18.5s-41.166 14.667 -59.499 26s-33.5 26.5 -45.5 45.5s-18 44.833 -18 77.5c0 54.667 15.167 95.667 45.5 123s81.5 41 153.5 41c26 0 52.333 -2.33301 79 -7s49.667 -10.667 69 -18v-122c-21.333 15.333 -43.5 26.5 -66.5 33.5
s-48.833 10.5 -77.5 10.5c-29.333 0 -49.5 -4.5 -60.5 -13.5s-16.5 -22.167 -16.5 -39.5c0 -16.667 6 -29.167 18 -37.5s27.167 -15.5 45.5 -21.5s38.166 -12 59.499 -18s41.166 -14.833 59.499 -26.5s33.5 -27.5 45.5 -47.5s18 -46.667 18 -80
c0 -57.333 -15.667 -100.333 -47 -129s-83.333 -43 -156 -43zM268.001 769.002h156l-144 -151h-98z" />
    <glyph glyph-name="Scircumflex" unicode="&#x15c;" horiz-adv-x="580" 
d="M283 -13c-44.667 0 -85.498 5.00293 -122.498 15.0029s-66.833 22 -89.5 36v139c8.66699 -8 19.834 -16.167 33.501 -24.5s29.167 -16 46.5 -23s36.666 -12.667 57.999 -17s44 -6.5 68 -6.5c42.667 0 72.834 7.5 90.501 22.5s26.5 35.5 26.5 61.5
c0 25.333 -8.16699 45.166 -24.5 59.499s-36.5 26.666 -60.5 36.999s-50.333 20.166 -79 29.499s-55 21.666 -79 36.999s-44.167 35.5 -60.5 60.5s-24.5 58.167 -24.5 99.5c0 64 19 113.333 57 148s99.333 52 184 52c38.667 0 74.5 -3.33301 107.5 -10s60.167 -15 81.5 -25
v-139c-22 17.333 -49.5 30.833 -82.5 40.5s-66.5 14.5 -100.5 14.5c-22.667 0 -41.334 -1.66699 -56.001 -5s-26.334 -8 -35.001 -14s-14.834 -13.667 -18.501 -23s-5.5 -20 -5.5 -32c0 -24 8.16699 -42.667 24.5 -56s36.5 -24.833 60.5 -34.5s50.333 -19.167 79 -28.5
s55 -21.833 79 -37.5s44.167 -36.667 60.5 -63s24.5 -60.833 24.5 -103.5c0 -67.333 -19.5 -119.166 -58.5 -155.499s-100.5 -54.5 -184.5 -54.5zM230.002 915.003h130l119 -150h-103l-81 85l-83 -85h-101z" />
    <glyph glyph-name="scircumflex" unicode="&#x15d;" horiz-adv-x="475" 
d="M223 -13c-25.333 0 -52.332 2.66895 -80.999 8.00195s-56.334 13.666 -83.001 24.999v123c19.333 -16.667 43 -29.5 71 -38.5s58 -13.5 90 -13.5c30 0 50.833 5 62.5 15s17.5 24.667 17.5 44c0 18 -6 31.667 -18 41s-27.167 17.166 -45.5 23.499
s-38.166 12.5 -59.499 18.5s-41.166 14.667 -59.499 26s-33.5 26.5 -45.5 45.5s-18 44.833 -18 77.5c0 54.667 15.167 95.667 45.5 123s81.5 41 153.5 41c26 0 52.333 -2.33301 79 -7s49.667 -10.667 69 -18v-122c-21.333 15.333 -43.5 26.5 -66.5 33.5
s-48.833 10.5 -77.5 10.5c-29.333 0 -49.5 -4.5 -60.5 -13.5s-16.5 -22.167 -16.5 -39.5c0 -16.667 6 -29.167 18 -37.5s27.167 -15.5 45.5 -21.5s38.166 -12 59.499 -18s41.166 -14.833 59.499 -26.5s33.5 -27.5 45.5 -47.5s18 -46.667 18 -80
c0 -57.333 -15.667 -100.333 -47 -129s-83.333 -43 -156 -43zM176.001 769.002h128l112 -151h-101l-74 88l-78 -88h-99z" />
    <glyph glyph-name="Scedilla" unicode="&#x15e;" horiz-adv-x="580" 
d="M279 -226c-18 0 -33.4971 1.17188 -46.4971 3.50488s-25.5 6.16602 -37.5 11.499l10 58c18.667 -8 38.667 -12 60 -12c18 0 30.667 3.33301 38 10s11 16 11 28c0 12.667 -3.83301 22.167 -11.5 28.5s-21.167 9.5 -40.5 9.5c-5.33301 0 -11 -0.166992 -17 -0.5
s-11 -0.833008 -15 -1.5l14 80c-36.667 2.66699 -69.834 8.5 -99.501 17.5s-54.167 19.5 -73.5 31.5v139c8.66699 -8 19.834 -16.167 33.501 -24.5s29.167 -16 46.5 -23s36.666 -12.667 57.999 -17s44 -6.5 68 -6.5c42.667 0 72.834 7.5 90.501 22.5s26.5 35.5 26.5 61.5
c0 25.333 -8.16699 45.166 -24.5 59.499s-36.5 26.666 -60.5 36.999s-50.333 20.166 -79 29.499s-55 21.666 -79 36.999s-44.167 35.5 -60.5 60.5s-24.5 58.167 -24.5 99.5c0 64 19 113.333 57 148s99.333 52 184 52c38.667 0 74.5 -3.33301 107.5 -10s60.167 -15 81.5 -25
v-139c-22 17.333 -49.5 30.833 -82.5 40.5s-66.5 14.5 -100.5 14.5c-22.667 0 -41.334 -1.66699 -56.001 -5s-26.334 -8 -35.001 -14s-14.834 -13.667 -18.501 -23s-5.5 -20 -5.5 -32c0 -24 8.16699 -42.667 24.5 -56s36.5 -24.833 60.5 -34.5s50.333 -19.167 79 -28.5
s55 -21.833 79 -37.5s44.167 -36.667 60.5 -63s24.5 -60.833 24.5 -103.5c0 -64 -17 -113.667 -51 -149s-88 -55.333 -162 -60l-6 -31c30 -0.666992 54.167 -7.5 72.5 -20.5s27.5 -34.5 27.5 -64.5s-10.833 -53.833 -32.5 -71.5s-53.5 -26.5 -95.5 -26.5z" />
    <glyph glyph-name="scedilla" unicode="&#x15f;" horiz-adv-x="475" 
d="M224 -226c-18 0 -33.501 1.16895 -46.501 3.50195s-25.5 6.16602 -37.5 11.499l10 58c18.667 -8 38.667 -12 60 -12c18 0 30.667 3.33301 38 10s11 16 11 28c0 12.667 -3.83301 22.167 -11.5 28.5s-21.167 9.5 -40.5 9.5c-5.33301 0 -11 -0.166992 -17 -0.5
s-11 -0.833008 -15 -1.5l14 80c-21.333 1.33301 -43.166 4.5 -65.499 9.5s-43.833 12.167 -64.5 21.5v123c19.333 -16.667 43 -29.5 71 -38.5s58 -13.5 90 -13.5c30 0 50.833 5 62.5 15s17.5 24.667 17.5 44c0 18 -6 31.667 -18 41s-27.167 17.166 -45.5 23.499
s-38.166 12.5 -59.499 18.5s-41.166 14.667 -59.499 26s-33.5 26.5 -45.5 45.5s-18 44.833 -18 77.5c0 54.667 15.167 95.667 45.5 123s81.5 41 153.5 41c26 0 52.333 -2.33301 79 -7s49.667 -10.667 69 -18v-122c-21.333 15.333 -43.5 26.5 -66.5 33.5
s-48.833 10.5 -77.5 10.5c-29.333 0 -49.5 -4.5 -60.5 -13.5s-16.5 -22.167 -16.5 -39.5c0 -16.667 6 -29.167 18 -37.5s27.167 -15.5 45.5 -21.5s38.166 -12 59.499 -18s41.166 -14.833 59.499 -26.5s33.5 -27.5 45.5 -47.5s18 -46.667 18 -80
c0 -52.667 -13 -93.167 -39 -121.5s-69 -44.833 -129 -49.5l-6 -31c30 -0.666992 54.167 -7.5 72.5 -20.5s27.5 -34.5 27.5 -64.5s-10.833 -53.833 -32.5 -71.5s-53.5 -26.5 -95.5 -26.5z" />
    <glyph glyph-name="Scaron" unicode="&#x160;" horiz-adv-x="580" 
d="M283 -13c-44.667 0 -85.498 5.00293 -122.498 15.0029s-66.833 22 -89.5 36v139c8.66699 -8 19.834 -16.167 33.501 -24.5s29.167 -16 46.5 -23s36.666 -12.667 57.999 -17s44 -6.5 68 -6.5c42.667 0 72.834 7.5 90.501 22.5s26.5 35.5 26.5 61.5
c0 25.333 -8.16699 45.166 -24.5 59.499s-36.5 26.666 -60.5 36.999s-50.333 20.166 -79 29.499s-55 21.666 -79 36.999s-44.167 35.5 -60.5 60.5s-24.5 58.167 -24.5 99.5c0 64 19 113.333 57 148s99.333 52 184 52c38.667 0 74.5 -3.33301 107.5 -10s60.167 -15 81.5 -25
v-139c-22 17.333 -49.5 30.833 -82.5 40.5s-66.5 14.5 -100.5 14.5c-22.667 0 -41.334 -1.66699 -56.001 -5s-26.334 -8 -35.001 -14s-14.834 -13.667 -18.501 -23s-5.5 -20 -5.5 -32c0 -24 8.16699 -42.667 24.5 -56s36.5 -24.833 60.5 -34.5s50.333 -19.167 79 -28.5
s55 -21.833 79 -37.5s44.167 -36.667 60.5 -63s24.5 -60.833 24.5 -103.5c0 -67.333 -19.5 -119.166 -58.5 -155.499s-100.5 -54.5 -184.5 -54.5zM111.002 915.003h103l81 -85l83 85h101l-119 -150h-130z" />
    <glyph glyph-name="scaron" unicode="&#x161;" horiz-adv-x="475" 
d="M223 -13c-25.333 0 -52.332 2.66895 -80.999 8.00195s-56.334 13.666 -83.001 24.999v123c19.333 -16.667 43 -29.5 71 -38.5s58 -13.5 90 -13.5c30 0 50.833 5 62.5 15s17.5 24.667 17.5 44c0 18 -6 31.667 -18 41s-27.167 17.166 -45.5 23.499
s-38.166 12.5 -59.499 18.5s-41.166 14.667 -59.499 26s-33.5 26.5 -45.5 45.5s-18 44.833 -18 77.5c0 54.667 15.167 95.667 45.5 123s81.5 41 153.5 41c26 0 52.333 -2.33301 79 -7s49.667 -10.667 69 -18v-122c-21.333 15.333 -43.5 26.5 -66.5 33.5
s-48.833 10.5 -77.5 10.5c-29.333 0 -49.5 -4.5 -60.5 -13.5s-16.5 -22.167 -16.5 -39.5c0 -16.667 6 -29.167 18 -37.5s27.167 -15.5 45.5 -21.5s38.166 -12 59.499 -18s41.166 -14.833 59.499 -26.5s33.5 -27.5 45.5 -47.5s18 -46.667 18 -80
c0 -57.333 -15.667 -100.333 -47 -129s-83.333 -43 -156 -43zM64.001 769.002h101l75 -87l77 87h99l-112 -151h-128z" />
    <glyph glyph-name="Tcedilla" unicode="&#x162;" horiz-adv-x="580" 
d="M226 586l-196.002 0.00195312v114h520v-114h-196v-586h-26l-8 -43c31.333 -0.666992 56.333 -7.5 75 -20.5s28 -34.5 28 -64.5s-11 -53.833 -33 -71.5s-55.667 -26.5 -101 -26.5c-34.667 0 -64 5 -88 15l11 60c20 -8 40.667 -12 62 -12
c20.667 0 34.834 3.16699 42.501 9.5s11.5 15.166 11.5 26.499s-3.83301 20.166 -11.5 26.499s-22.167 9.5 -43.5 9.5c-5.33301 0 -11.166 -0.166992 -17.499 -0.5s-11.833 -0.833008 -16.5 -1.5l17 93h-30v586z" />
    <glyph glyph-name="tcedilla" unicode="&#x163;" horiz-adv-x="435" 
d="M248 -226c-18 0 -33.5 1.16797 -46.5 3.50098s-25.5 6.16602 -37.5 11.499l10 58c18.667 -8 38.667 -12 60 -12c18 0 30.667 3.33301 38 10s11 16 11 28c0 12.667 -3.83301 22.167 -11.5 28.5s-21.167 9.5 -40.5 9.5c-5.33301 0 -11 -0.166992 -17 -0.5
s-11 -0.833008 -15 -1.5l16 91c-35.333 7.33301 -60.666 24.5 -75.999 51.5s-23 66.5 -23 118.5v257h-86v107h86v98l122 42v-140h152v-107h-152v-243c0 -28.667 4.66699 -49.167 14 -61.5s25.666 -18.5 48.999 -18.5c18 0 34.5 2.66699 49.5 8s28.167 12.333 39.5 21v-114
c-8.66699 -6 -22.5 -11.333 -41.5 -16s-40.833 -7.66699 -65.5 -9l-7 -37c30 -0.666992 54.167 -7.5 72.5 -20.5s27.5 -34.5 27.5 -64.5s-10.833 -53.833 -32.5 -71.5s-53.5 -26.5 -95.5 -26.5z" />
    <glyph glyph-name="Tcaron" unicode="&#x164;" horiz-adv-x="580" 
d="M226 586h-196v114h520v-114h-196v-586h-128v586zM106 915h103l81 -85l83 85h101l-119 -150h-130z" />
    <glyph glyph-name="tcaron" unicode="&#x165;" horiz-adv-x="435" 
d="M335 794h115l-66 -191h-82zM273 -6c-56.667 0 -96.999 13.5 -120.999 40.5s-36 72.167 -36 135.5v257h-86v107h86v98l122 42v-140h152v-107h-152v-243c0 -28.667 4.66699 -49.167 14 -61.5s25.666 -18.5 48.999 -18.5c18 0 34.5 2.66699 49.5 8s28.167 12.333 39.5 21
v-114c-9.33301 -6 -24.333 -11.667 -45 -17s-44.667 -8 -72 -8z" />
    <glyph glyph-name="Umacron" unicode="&#x16a;" horiz-adv-x="670" 
d="M335 -13c-45.333 0 -84.335 5.33398 -117.002 16.001s-59.5 27.5 -80.5 50.5s-36.667 52.667 -47 89s-15.5 80.5 -15.5 132.5v425h127v-414c0 -35.333 2.5 -64.666 7.5 -87.999s12.833 -41.833 23.5 -55.5s24.334 -23.167 41.001 -28.5s37 -8 61 -8s44.5 2.66699 61.5 8
s30.833 14.666 41.5 27.999s18.334 31.666 23.001 54.999s7 53 7 89v414h127v-425c0 -51.333 -5.16699 -95.333 -15.5 -132s-26.166 -66.5 -47.499 -89.5s-48.333 -39.833 -81 -50.5s-71.334 -16 -116.001 -16zM177.998 874.001h314v-88h-314v88z" />
    <glyph glyph-name="umacron" unicode="&#x16b;" horiz-adv-x="580" 
d="M237 -13c-55.333 0 -98 15.333 -128 46s-45 80.667 -45 150v351h122v-310c0 -48.667 7.66699 -82 23 -100s40 -27 74 -27s60.167 10.167 78.5 30.5s27.5 52.5 27.5 96.5v310h122v-534h-117l-5 81c-29.333 -62.667 -80 -94 -152 -94zM149 726h282v-84h-282v84z" />
    <glyph glyph-name="Ubreve" unicode="&#x16c;" horiz-adv-x="670" 
d="M335 -13c-45.333 0 -84.335 5.33398 -117.002 16.001s-59.5 27.5 -80.5 50.5s-36.667 52.667 -47 89s-15.5 80.5 -15.5 132.5v425h127v-414c0 -35.333 2.5 -64.666 7.5 -87.999s12.833 -41.833 23.5 -55.5s24.334 -23.167 41.001 -28.5s37 -8 61 -8s44.5 2.66699 61.5 8
s30.833 14.666 41.5 27.999s18.334 31.666 23.001 54.999s7 53 7 89v414h127v-425c0 -51.333 -5.16699 -95.333 -15.5 -132s-26.166 -66.5 -47.499 -89.5s-48.333 -39.833 -81 -50.5s-71.334 -16 -116.001 -16zM334.998 761.001c-45.333 0 -82.333 11.333 -111 34
s-48.667 56.667 -60 102l80 22c13.333 -48.667 43.666 -73 90.999 -73c46.667 0 77.334 24.333 92.001 73l79 -22c-11.333 -46 -31.333 -80.167 -60 -102.5s-65.667 -33.5 -111 -33.5z" />
    <glyph glyph-name="ubreve" unicode="&#x16d;" horiz-adv-x="580" 
d="M237 -13c-55.333 0 -98 15.333 -128 46s-45 80.667 -45 150v351h122v-310c0 -48.667 7.66699 -82 23 -100s40 -27 74 -27s60.167 10.167 78.5 30.5s27.5 52.5 27.5 96.5v310h122v-534h-117l-5 81c-29.333 -62.667 -80 -94 -152 -94zM287 615
c-44 0 -80.333 11.333 -109 34s-47.667 57 -57 103l78 20c5.33301 -25.333 15.666 -44 30.999 -56s34.333 -18 57 -18s42 6 58 18s26.667 30.667 32 56l76 -21c-9.33301 -46 -28.166 -80.167 -56.499 -102.5s-64.833 -33.5 -109.5 -33.5z" />
    <glyph glyph-name="Uring" unicode="&#x16e;" horiz-adv-x="670" 
d="M335 -13c-45.333 0 -84.335 5.33398 -117.002 16.001s-59.5 27.5 -80.5 50.5s-36.667 52.667 -47 89s-15.5 80.5 -15.5 132.5v425h127v-414c0 -35.333 2.5 -64.666 7.5 -87.999s12.833 -41.833 23.5 -55.5s24.334 -23.167 41.001 -28.5s37 -8 61 -8s44.5 2.66699 61.5 8
s30.833 14.666 41.5 27.999s18.334 31.666 23.001 54.999s7 53 7 89v414h127v-425c0 -51.333 -5.16699 -95.333 -15.5 -132s-26.166 -66.5 -47.499 -89.5s-48.333 -39.833 -81 -50.5s-71.334 -16 -116.001 -16zM224.998 840.001c0 31.333 10.167 57 30.5 77
s46.833 30 79.5 30s59.167 -10 79.5 -30s30.5 -45.667 30.5 -77s-10.167 -57 -30.5 -77s-46.833 -30 -79.5 -30s-59.167 10 -79.5 30s-30.5 45.667 -30.5 77zM287.998 840.001c0 -14.667 4.16699 -26.167 12.5 -34.5s19.833 -12.5 34.5 -12.5s26.167 4.16699 34.5 12.5
s12.5 19.833 12.5 34.5s-4.16699 26.167 -12.5 34.5s-19.833 12.5 -34.5 12.5s-26.167 -4.16699 -34.5 -12.5s-12.5 -19.833 -12.5 -34.5z" />
    <glyph glyph-name="uring" unicode="&#x16f;" horiz-adv-x="580" 
d="M237 -13c-55.333 0 -98 15.333 -128 46s-45 80.667 -45 150v351h122v-310c0 -48.667 7.66699 -82 23 -100s40 -27 74 -27s60.167 10.167 78.5 30.5s27.5 52.5 27.5 96.5v310h122v-534h-117l-5 81c-29.333 -62.667 -80 -94 -152 -94zM182 694
c0 31.333 9.83301 56.666 29.5 75.999s45.834 29 78.501 29s58.834 -9.66699 78.501 -29s29.5 -44.666 29.5 -75.999c0 -32 -9.83301 -57.5 -29.5 -76.5s-45.834 -28.5 -78.501 -28.5s-58.834 9.5 -78.501 28.5s-29.5 44.5 -29.5 76.5zM244 694
c0 -14.667 4.16699 -26 12.5 -34s19.5 -12 33.5 -12s25.167 4.16699 33.5 12.5s12.5 19.5 12.5 33.5s-4.16699 25.167 -12.5 33.5s-19.5 12.5 -33.5 12.5s-25.167 -4.16699 -33.5 -12.5s-12.5 -19.5 -12.5 -33.5z" />
    <glyph glyph-name="Uhungarumlaut" unicode="&#x170;" horiz-adv-x="670" 
d="M335 -13c-45.333 0 -84.335 5.33398 -117.002 16.001s-59.5 27.5 -80.5 50.5s-36.667 52.667 -47 89s-15.5 80.5 -15.5 132.5v425h127v-414c0 -35.333 2.5 -64.666 7.5 -87.999s12.833 -41.833 23.5 -55.5s24.334 -23.167 41.001 -28.5s37 -8 61 -8s44.5 2.66699 61.5 8
s30.833 14.666 41.5 27.999s18.334 31.666 23.001 54.999s7 53 7 89v414h127v-425c0 -51.333 -5.16699 -95.333 -15.5 -132s-26.166 -66.5 -47.499 -89.5s-48.333 -39.833 -81 -50.5s-71.334 -16 -116.001 -16zM251.998 915.001h130l-97 -150h-90zM463.998 915.001h147
l-152 -150h-102z" />
    <glyph glyph-name="uhungarumlaut" unicode="&#x171;" horiz-adv-x="580" 
d="M237 -13c-55.333 0 -98 15.333 -128 46s-45 80.667 -45 150v351h122v-310c0 -48.667 7.66699 -82 23 -100s40 -27 74 -27s60.167 10.167 78.5 30.5s27.5 52.5 27.5 96.5v310h122v-534h-117l-5 81c-29.333 -62.667 -80 -94 -152 -94zM199 769h128l-86 -151h-89zM402 769
h146l-142 -151h-100z" />
    <glyph glyph-name="Uogonek" unicode="&#x172;" horiz-adv-x="670" 
d="M335 -13c-45.333 0 -84.335 5.33398 -117.002 16.001s-59.5 27.5 -80.5 50.5s-36.667 52.667 -47 89s-15.5 80.5 -15.5 132.5v425h127v-414c0 -35.333 2.5 -64.666 7.5 -87.999s12.833 -41.833 23.5 -55.5s24.334 -23.167 41.001 -28.5s37 -8 61 -8s44.5 2.66699 61.5 8
s30.833 14.666 41.5 27.999s18.334 31.666 23.001 54.999s7 53 7 89v414h127v-425c0 -68 -8.83301 -122.833 -26.5 -164.5s-45.5 -72.5 -83.5 -92.5c-34 -22.667 -58.333 -43.167 -73 -61.5s-22 -36.5 -22 -54.5c0 -10 3 -17.833 9 -23.5s16.667 -8.5 32 -8.5
c21.333 0 42 5.33301 62 16v-70c-10.667 -5.33301 -23.5 -9.83301 -38.5 -13.5s-32.167 -5.5 -51.5 -5.5c-42 0 -71.667 7.5 -89 22.5s-26 35.833 -26 62.5c0 38.667 21.667 73.667 65 105h-18v0z" />
    <glyph glyph-name="uogonek" unicode="&#x173;" horiz-adv-x="580" 
d="M425 -203c-40 0 -68.666 7.50098 -85.999 22.501s-26 35.833 -26 62.5c0 23.333 7.16699 44.5 21.5 63.5s35.5 37.167 63.5 54.5h-4l-5 81c-29.333 -62.667 -80 -94 -152 -94c-55.333 0 -98 15.333 -128 46s-45 80.667 -45 150v351h122v-310
c0 -48.667 7.66699 -82 23 -100s40 -27 74 -27s60.167 10.167 78.5 30.5s27.5 52.5 27.5 96.5v310h122v-534c-34.667 -15.333 -59.667 -31.833 -75 -49.5s-23 -33.834 -23 -48.501c0 -22.667 13.333 -34 40 -34c19.333 0 38.666 5.33301 57.999 16v-68
c-10.667 -5.33301 -23 -9.83301 -37 -13.5s-30.333 -5.5 -49 -5.5z" />
    <glyph glyph-name="Ydieresis" unicode="&#x178;" horiz-adv-x="610" 
d="M246 259l-231 441h146l150 -298l144 298h140l-221 -441v-259h-128v259zM197 773c-48.667 0 -73 22.333 -73 67s24.333 67 73 67s73 -22.333 73 -67s-24.333 -67 -73 -67zM414 773c-48.667 0 -73 22.333 -73 67s24.333 67 73 67s73 -22.333 73 -67s-24.333 -67 -73 -67z
" />
    <glyph glyph-name="Zacute" unicode="&#x179;" horiz-adv-x="590" 
d="M45 77l325 509h-315v114h480v-77l-325 -509h335v-114h-500v77zM330 915h158l-152 -150h-100z" />
    <glyph glyph-name="zacute" unicode="&#x17a;" horiz-adv-x="490" 
d="M40 74l249 353h-239v107h397v-75l-249 -352h252v-107h-410v74zM277 769h156l-144 -151h-98z" />
    <glyph glyph-name="Zdotaccent" unicode="&#x17b;" horiz-adv-x="590" 
d="M45 77l325 509h-315v114h480v-77l-325 -509h335v-114h-500v77zM295 770c-50.667 0 -76 23.333 -76 70s25.333 70 76 70s76 -23.333 76 -70s-25.333 -70 -76 -70z" />
    <glyph glyph-name="zdotaccent" unicode="&#x17c;" horiz-adv-x="490" 
d="M40 74l249 353h-239v107h397v-75l-249 -352h252v-107h-410v74zM248 626c-49.333 0 -74 22.667 -74 68s24.667 68 74 68s74 -22.667 74 -68s-24.667 -68 -74 -68z" />
    <glyph glyph-name="Zcaron" unicode="&#x17d;" horiz-adv-x="590" 
d="M45 77l325 509h-315v114h480v-77l-325 -509h335v-114h-500v77zM111 915h103l81 -85l83 85h101l-119 -150h-130z" />
    <glyph glyph-name="zcaron" unicode="&#x17e;" horiz-adv-x="490" 
d="M40 74l249 353h-239v107h397v-75l-249 -352h252v-107h-410v74zM72 769h101l75 -87l77 87h99l-112 -151h-128z" />
    <glyph glyph-name="uni018F" unicode="&#x18f;" horiz-adv-x="690" 
d="M343 -13c-94 0 -167.169 28.502 -219.502 85.502s-78.5 146.833 -78.5 269.5v47h462c-1.33301 26 -4.66602 51.5 -9.99902 76.5s-15.333 47.333 -30 67s-35 35.5 -61 47.5s-60.333 18 -103 18c-35.333 0 -69.666 -2.83301 -102.999 -8.5s-63 -14.167 -89 -25.5v120
c33.333 9.33301 67.5 16.5 102.5 21.5s71.167 7.5 108.5 7.5c67.333 0 122 -9.83301 164 -29.5s74.833 -46 98.5 -79s39.667 -70.833 48 -113.5s12.5 -87.334 12.5 -134.001c0 -50 -5.16699 -97.333 -15.5 -142s-27.333 -83.834 -51 -117.501s-54.667 -60.5 -93 -80.5
s-85.833 -30 -142.5 -30zM342.998 102.002c22.667 0 43.666 3.33301 62.999 10s36.333 17.5 51 32.5s26.334 34.5 35.001 58.5s13.667 53.667 15 89h-330c0 -63.333 12.667 -110.833 38 -142.5s68 -47.5 128 -47.5z" />
    <glyph glyph-name="florin" unicode="&#x192;" horiz-adv-x="600" 
d="M146 534h109.002l9 46c12 58.667 35.667 103.834 71 135.501s83.333 47.5 144 47.5c15.333 0 29.166 -0.666992 41.499 -2s25.166 -3.33301 38.499 -6l-22 -108c-4 1.33301 -9.83301 2.83301 -17.5 4.5s-16.834 2.5 -27.501 2.5c-32 0 -55.333 -7.33301 -70 -22
s-25.667 -40 -33 -76l-5 -22h131l-22 -109h-130l-80 -400c-6.66699 -34 -15.334 -64.167 -26.001 -90.5s-24.5 -48.5 -41.5 -66.5s-37.5 -31.5 -61.5 -40.5s-52.667 -13.5 -86 -13.5c-12.667 0 -24.667 0.666992 -36 2s-20.666 2.66602 -27.999 3.99902l22 106
c10.667 -2 22.334 -3 35.001 -3c10.667 0 20.667 1.16699 30 3.5s17.833 7 25.5 14s14.667 17 21 30s11.5 30.167 15.5 51.5l80 403h-109z" />
    <glyph glyph-name="uni01DD" unicode="&#x1dd;" horiz-adv-x="550" 
d="M270 -13c-41.333 0 -76.668 5.5 -106.001 16.5s-53.333 27.167 -72 48.5s-32.167 47.833 -40.5 79.5s-12.5 68.167 -12.5 109.5v58h350c-2 50 -14.5 86.5 -37.5 109.5s-59.167 34.5 -108.5 34.5c-34 0 -66.833 -5.5 -98.5 -16.5s-56.167 -24.833 -73.5 -41.5v114
c12.667 10.667 35.334 21.167 68.001 31.5s72 15.5 118 15.5c90.667 0 155.667 -23.167 195 -69.5s59 -118.5 59 -216.5c0 -92 -21.167 -160.5 -63.5 -205.5s-101.5 -67.5 -177.5 -67.5zM269.998 84c38 0 66.667 10.333 86 31s30.333 56 33 106h-228
c0 -46.667 7.66699 -81.167 23 -103.5s44 -33.5 86 -33.5z" />
    <glyph glyph-name="Gcaron" unicode="&#x1e6;" horiz-adv-x="650" 
d="M373 -13c-56.667 0 -105.503 6.66699 -146.503 20s-75 34.833 -102 64.5s-47 67.667 -60 114s-19.5 102.5 -19.5 168.5c0 125.333 27.167 216.5 81.5 273.5s136.5 85.5 246.5 85.5c26 0 49.5 -1.66699 70.5 -5s39.167 -7 54.5 -11c17.333 -4.66699 33 -10 47 -16v-129
c-19.333 10.667 -43.833 20.334 -73.5 29.001s-62.5 13 -98.5 13c-33.333 0 -62.166 -4.33301 -86.499 -13s-44.666 -22.5 -60.999 -41.5s-28.5 -43.667 -36.5 -74s-12 -67.166 -12 -110.499c0 -46.667 4 -85.834 12 -117.501s20 -57.334 36 -77.001s36.333 -33.667 61 -42
s53.667 -12.5 87 -12.5c19.333 0 36.333 1.33301 51 4s28.334 5.66699 41.001 9v153h-112v107h232v-342c-19.333 -10.667 -47 -21.667 -83 -33s-79 -17 -129 -17zM168.997 915h103l81 -85l83 85h101l-119 -150h-130z" />
    <glyph glyph-name="gcaron" unicode="&#x1e7;" horiz-adv-x="590" 
d="M263 -193c-39.333 0 -74.833 3.49609 -106.5 10.4961s-56.167 14.833 -73.5 23.5v130c6.66699 -6 15.667 -12.167 27 -18.5s24.666 -12.166 39.999 -17.499s32.666 -9.66602 51.999 -12.999s40.333 -5 63 -5c47.333 0 81.5 10.333 102.5 31s31.5 53.334 31.5 98.001v59
c-5.33301 -11.333 -12.5 -22.5 -21.5 -33.5s-20 -21 -33 -30s-28.333 -16.333 -46 -22s-37.5 -8.5 -59.5 -8.5c-67.333 0 -117.5 20.833 -150.5 62.5s-49.5 108.834 -49.5 201.501c0 95.333 16.833 164.333 50.5 207s84.834 64 153.501 64c39.333 0 72 -8 98 -24
s45.333 -38 58 -66l5 78h117v-480c0 -88 -21.167 -151.167 -63.5 -189.5s-107.166 -57.5 -194.499 -57.5zM280 120.996c37.333 0 66.5 11.5 87.5 34.5s31.5 58.167 31.5 105.5v40c0 44 -10 77.5 -30 100.5s-49.667 34.5 -89 34.5c-38.667 0 -67.5 -11.333 -86.5 -34
s-28.5 -62 -28.5 -118c0 -61.333 9.66699 -103.833 29 -127.5s48 -35.5 86 -35.5zM84 768.996h101l75 -87l77 87h99l-112 -151h-128z" />
    <glyph glyph-name="Scommaaccent" unicode="&#x218;" horiz-adv-x="580" 
d="M283 -13c-44.667 0 -85.498 5.00293 -122.498 15.0029s-66.833 22 -89.5 36v139c8.66699 -8 19.834 -16.167 33.501 -24.5s29.167 -16 46.5 -23s36.666 -12.667 57.999 -17s44 -6.5 68 -6.5c42.667 0 72.834 7.5 90.501 22.5s26.5 35.5 26.5 61.5
c0 25.333 -8.16699 45.166 -24.5 59.499s-36.5 26.666 -60.5 36.999s-50.333 20.166 -79 29.499s-55 21.666 -79 36.999s-44.167 35.5 -60.5 60.5s-24.5 58.167 -24.5 99.5c0 64 19 113.333 57 148s99.333 52 184 52c38.667 0 74.5 -3.33301 107.5 -10s60.167 -15 81.5 -25
v-139c-22 17.333 -49.5 30.833 -82.5 40.5s-66.5 14.5 -100.5 14.5c-22.667 0 -41.334 -1.66699 -56.001 -5s-26.334 -8 -35.001 -14s-14.834 -13.667 -18.501 -23s-5.5 -20 -5.5 -32c0 -24 8.16699 -42.667 24.5 -56s36.5 -24.833 60.5 -34.5s50.333 -19.167 79 -28.5
s55 -21.833 79 -37.5s44.167 -36.667 60.5 -63s24.5 -60.833 24.5 -103.5c0 -67.333 -19.5 -119.166 -58.5 -155.499s-100.5 -54.5 -184.5 -54.5zM226.002 -177.997c19.333 0.666992 36.168 3.00098 50.501 7.00098s23.166 13.667 26.499 29c-19.333 0 -35 1 -47 3
s-21.167 5 -27.5 9s-10.666 8.83301 -12.999 14.5s-3.5 12.167 -3.5 19.5c0 13.333 6.16699 24.833 18.5 34.5s33.833 14.5 64.5 14.5c28.667 0 49.667 -6.16699 63 -18.5s20 -29.166 20 -50.499c0 -14.667 -3.16699 -28.834 -9.5 -42.501s-15.833 -26 -28.5 -37
s-28.334 -19.833 -47.001 -26.5s-40 -10.334 -64 -11.001z" />
    <glyph glyph-name="scommaaccent" unicode="&#x219;" horiz-adv-x="475" 
d="M223 -13c-25.333 0 -52.332 2.66895 -80.999 8.00195s-56.334 13.666 -83.001 24.999v123c19.333 -16.667 43 -29.5 71 -38.5s58 -13.5 90 -13.5c30 0 50.833 5 62.5 15s17.5 24.667 17.5 44c0 18 -6 31.667 -18 41s-27.167 17.166 -45.5 23.499
s-38.166 12.5 -59.499 18.5s-41.166 14.667 -59.499 26s-33.5 26.5 -45.5 45.5s-18 44.833 -18 77.5c0 54.667 15.167 95.667 45.5 123s81.5 41 153.5 41c26 0 52.333 -2.33301 79 -7s49.667 -10.667 69 -18v-122c-21.333 15.333 -43.5 26.5 -66.5 33.5
s-48.833 10.5 -77.5 10.5c-29.333 0 -49.5 -4.5 -60.5 -13.5s-16.5 -22.167 -16.5 -39.5c0 -16.667 6 -29.167 18 -37.5s27.167 -15.5 45.5 -21.5s38.166 -12 59.499 -18s41.166 -14.833 59.499 -26.5s33.5 -27.5 45.5 -47.5s18 -46.667 18 -80
c0 -57.333 -15.667 -100.333 -47 -129s-83.333 -43 -156 -43zM175.001 -178.998c21.333 1.33301 38.333 4.5 51 9.5s20.334 14.5 23.001 28.5c-35.333 0 -58.833 3.83301 -70.5 11.5s-17.5 18.834 -17.5 33.501c0 13.333 6 24.833 18 34.5s32.333 14.5 61 14.5
c26.667 0 46.5 -6.33301 59.5 -19s19.5 -29.667 19.5 -51c0 -14 -2.83301 -27.833 -8.5 -41.5s-14.167 -25.834 -25.5 -36.501s-25.833 -19.5 -43.5 -26.5s-38.834 -10.833 -63.501 -11.5z" />
    <glyph glyph-name="Tcommaaccent" unicode="&#x21a;" horiz-adv-x="580" 
d="M226 586h-196v114h520v-114h-196v-586h-128v586zM221 -178c19.333 0.666992 36.168 3.00098 50.501 7.00098s23.166 13.667 26.499 29c-19.333 0 -35 1 -47 3s-21.167 5 -27.5 9s-10.666 8.83301 -12.999 14.5s-3.5 12.167 -3.5 19.5c0 13.333 6.16699 24.833 18.5 34.5
s33.833 14.5 64.5 14.5c28.667 0 49.667 -6.16699 63 -18.5s20 -29.166 20 -50.499c0 -14.667 -3.16699 -28.834 -9.5 -42.501s-15.833 -26 -28.5 -37s-28.334 -19.833 -47.001 -26.5s-40 -10.334 -64 -11.001z" />
    <glyph glyph-name="tcommaaccent" unicode="&#x21b;" horiz-adv-x="435" 
d="M273 -6c-56.667 0 -96.999 13.5 -120.999 40.5s-36 72.167 -36 135.5v257h-86v107h86v98l122 42v-140h152v-107h-152v-243c0 -28.667 4.66699 -49.167 14 -61.5s25.666 -18.5 48.999 -18.5c18 0 34.5 2.66699 49.5 8s28.167 12.333 39.5 21v-114
c-9.33301 -6 -24.333 -11.667 -45 -17s-44.667 -8 -72 -8zM187.001 -179c21.333 1.33301 38.333 4.5 51 9.5s20.334 14.5 23.001 28.5c-35.333 0 -58.833 3.83301 -70.5 11.5s-17.5 18.834 -17.5 33.501c0 13.333 6 24.833 18 34.5s32.333 14.5 61 14.5
c26.667 0 46.5 -6.33301 59.5 -19s19.5 -29.667 19.5 -51c0 -14 -2.83301 -27.833 -8.5 -41.5s-14.167 -25.834 -25.5 -36.501s-25.833 -19.5 -43.5 -26.5s-38.834 -10.833 -63.501 -11.5z" />
    <glyph glyph-name="uni0237" unicode="&#x237;" horiz-adv-x="290" 
d="M62 -186c-20 0 -37.833 1.66895 -53.5 5.00195s-24.5 5.66602 -26.5 6.99902v114c7.33301 -4.66699 15.333 -8.5 24 -11.5s18 -4.5 28 -4.5c17.333 0 30 4.66699 38 14s12 26.666 12 51.999v544h122v-550c0 -61.333 -12 -105 -36 -131s-60 -39 -108 -39z" />
    <glyph glyph-name="uni0259" unicode="&#x259;" horiz-adv-x="550" 
d="M270 -13c-41.333 0 -76.668 5.5 -106.001 16.5s-53.333 27.167 -72 48.5s-32.167 47.833 -40.5 79.5s-12.5 68.167 -12.5 109.5v58h350c-2 50 -14.5 86.5 -37.5 109.5s-59.167 34.5 -108.5 34.5c-34 0 -66.833 -5.5 -98.5 -16.5s-56.167 -24.833 -73.5 -41.5v114
c12.667 10.667 35.334 21.167 68.001 31.5s72 15.5 118 15.5c90.667 0 155.667 -23.167 195 -69.5s59 -118.5 59 -216.5c0 -92 -21.167 -160.5 -63.5 -205.5s-101.5 -67.5 -177.5 -67.5zM269.998 84c38 0 66.667 10.333 86 31s30.333 56 33 106h-228
c0 -46.667 7.66699 -81.167 23 -103.5s44 -33.5 86 -33.5z" />
    <glyph glyph-name="afii57929" unicode="&#x2bc;" horiz-adv-x="240" 
d="M97 700h120l-87 -214h-87z" />
    <glyph glyph-name="circumflex" unicode="&#x2c6;" horiz-adv-x="400" 
d="M136 769h128l112 -151h-101l-74 88l-78 -88h-99z" />
    <glyph glyph-name="caron" unicode="&#x2c7;" horiz-adv-x="400" 
d="M24 769h101l75 -87l77 87h99l-112 -151h-128z" />
    <glyph glyph-name="breve" unicode="&#x2d8;" horiz-adv-x="370" 
d="M185 615c-44 0 -80.333 11.333 -109 34s-47.667 57 -57 103l78 20c5.33301 -25.333 15.666 -44 30.999 -56s34.333 -18 57 -18s42 6 58 18s26.667 30.667 32 56l76 -21c-9.33301 -46 -28.166 -80.167 -56.499 -102.5s-64.833 -33.5 -109.5 -33.5z" />
    <glyph glyph-name="dotaccent" unicode="&#x2d9;" horiz-adv-x="210" 
d="M105 626c-49.333 0 -74 22.667 -74 68s24.667 68 74 68s74 -22.667 74 -68s-24.667 -68 -74 -68z" />
    <glyph glyph-name="ring" unicode="&#x2da;" horiz-adv-x="260" 
d="M22 694c0 31.333 9.83301 56.666 29.5 75.999s45.834 29 78.501 29s58.834 -9.66699 78.501 -29s29.5 -44.666 29.5 -75.999c0 -32 -9.83301 -57.5 -29.5 -76.5s-45.834 -28.5 -78.501 -28.5s-58.834 9.5 -78.501 28.5s-29.5 44.5 -29.5 76.5zM84 694
c0 -14.667 4.16699 -26 12.5 -34s19.5 -12 33.5 -12s25.167 4.16699 33.5 12.5s12.5 19.5 12.5 33.5s-4.16699 25.167 -12.5 33.5s-19.5 12.5 -33.5 12.5s-25.167 -4.16699 -33.5 -12.5s-12.5 -19.5 -12.5 -33.5z" />
    <glyph glyph-name="ogonek" unicode="&#x2db;" horiz-adv-x="240" 
d="M133 -203c-40 0 -68.666 7.50098 -85.999 22.501s-26 35.833 -26 62.5c0 30.667 12.5 58 37.5 82s61.5 46.667 109.5 68l51 -32c-34.667 -15.333 -59.667 -31.833 -75 -49.5s-23 -33.834 -23 -48.501c0 -22.667 13.333 -34 40 -34c19.333 0 38.666 5.33301 57.999 16v-68
c-10.667 -5.33301 -23 -9.83301 -37 -13.5s-30.333 -5.5 -49 -5.5z" />
    <glyph glyph-name="tilde" unicode="&#x2dc;" horiz-adv-x="400" 
d="M26 632c1.33301 37.333 11.3311 65.9951 29.998 85.9951s42 30 70 30c13.333 0 26.333 -2.16699 39 -6.5s26.667 -10.166 42 -17.499l35.5 -16.5c7.66699 -3.66699 16.167 -5.5 25.5 -5.5c20.667 0 33.334 15 38.001 45l68 -12c-2.66699 -36 -13 -64.167 -31 -84.5
s-40.667 -30.5 -68 -30.5c-7.33301 0 -14 0.333008 -20 1s-12 1.83398 -18 3.50098s-12.5 3.83398 -19.5 6.50098s-15.167 6.33398 -24.5 11.001c-14 6.66699 -25.167 12.334 -33.5 17.001s-17.166 7 -26.499 7c-8.66699 0 -16.5 -3.66699 -23.5 -11s-12.167 -19 -15.5 -35z
" />
    <glyph glyph-name="hungarumlaut" unicode="&#x2dd;" horiz-adv-x="460" 
d="M79 769h128l-86 -151h-89zM282 769h146l-142 -151h-100z" />
    <glyph glyph-name="acutecomb" unicode="&#x301;" horiz-adv-x="0" 
d="M-250 769h156l-144 -151h-98z" />
    <glyph glyph-name="uni0394" unicode="&#x394;" horiz-adv-x="640" 
d="M249 700h143l233 -700h-610zM458 115l-139 441h-2l-140 -441h281z" />
    <glyph glyph-name="uni0394" unicode="&#x2206;" horiz-adv-x="640" 
d="M249 700h143l233 -700h-610zM458 115l-139 441h-2l-140 -441h281z" />
    <glyph glyph-name="uni03A9" unicode="&#x3a9;" horiz-adv-x="740" 
d="M57 110l160 -0.00195312v48c-22 8.66699 -43.333 20.334 -64 35.001s-39 32.5 -55 53.5s-28.833 45.333 -38.5 73s-14.5 59.5 -14.5 95.5c0 44 7.66699 84.333 23 121s37.333 68 66 94s62.834 46.333 102.501 61s84.167 22 133.5 22c48.667 0 93 -7.33301 133 -22
s74.333 -35 103 -61s50.667 -57.333 66 -94s23 -77 23 -121c0 -36 -5 -67.833 -15 -95.5s-23 -52 -39 -73s-34.167 -38.667 -54.5 -53s-40.833 -26.166 -61.5 -35.499v-48h158v-110h-270v225c26.667 4.66699 49.5 13 68.5 25s34.5 26.167 46.5 42.5s20.833 34 26.5 53
s8.5 37.833 8.5 56.5c0 28.667 -4.83301 55.167 -14.5 79.5s-23 45 -40 62s-37.333 30.333 -61 40s-49.5 14.5 -77.5 14.5s-53.833 -4.83301 -77.5 -14.5s-44 -23 -61 -40s-30.333 -37.667 -40 -62s-14.5 -50.833 -14.5 -79.5c0 -18.667 2.83301 -37.5 8.5 -56.5
s14.5 -36.667 26.5 -53s27.667 -30.5 47 -42.5s42.666 -20.333 69.999 -25v-225h-272v110z" />
    <glyph glyph-name="uni03A9" unicode="&#x2126;" horiz-adv-x="740" 
d="M57 110l160 -0.00195312v48c-22 8.66699 -43.333 20.334 -64 35.001s-39 32.5 -55 53.5s-28.833 45.333 -38.5 73s-14.5 59.5 -14.5 95.5c0 44 7.66699 84.333 23 121s37.333 68 66 94s62.834 46.333 102.501 61s84.167 22 133.5 22c48.667 0 93 -7.33301 133 -22
s74.333 -35 103 -61s50.667 -57.333 66 -94s23 -77 23 -121c0 -36 -5 -67.833 -15 -95.5s-23 -52 -39 -73s-34.167 -38.667 -54.5 -53s-40.833 -26.166 -61.5 -35.499v-48h158v-110h-270v225c26.667 4.66699 49.5 13 68.5 25s34.5 26.167 46.5 42.5s20.833 34 26.5 53
s8.5 37.833 8.5 56.5c0 28.667 -4.83301 55.167 -14.5 79.5s-23 45 -40 62s-37.333 30.333 -61 40s-49.5 14.5 -77.5 14.5s-53.833 -4.83301 -77.5 -14.5s-44 -23 -61 -40s-30.333 -37.667 -40 -62s-14.5 -50.833 -14.5 -79.5c0 -18.667 2.83301 -37.5 8.5 -56.5
s14.5 -36.667 26.5 -53s27.667 -30.5 47 -42.5s42.666 -20.333 69.999 -25v-225h-272v110z" />
    <glyph glyph-name="pi" unicode="&#x3c0;" horiz-adv-x="710" 
d="M584 -6c-46 0 -79.502 11.166 -100.502 33.499s-31.5 58.5 -31.5 108.5v288h-184v-424h-122v424c-15.333 0 -30.666 -3 -45.999 -9s-28.666 -13.667 -39.999 -23l-41 98c12 8 24.167 14.667 36.5 20s25.666 9.83301 39.999 13.5s30.333 6.33398 48 8.00098
s37.834 2.5 60.501 2.5h457v-110h-87v-263c0 -21.333 3.33301 -35.833 10 -43.5s17.334 -11.5 32.001 -11.5c10.667 0 20.5 1 29.5 3s14.167 3.33301 15.5 4v-111c-2.66699 -0.666992 -10.834 -2.16699 -24.501 -4.5s-31.167 -3.5 -52.5 -3.5z" />
    <glyph glyph-name="afii10023" unicode="&#x401;" horiz-adv-x="575" 
d="M89 700h436v-114h-308v-176h268v-107h-268v-189h308v-114h-436v700zM199 773c-48.667 0 -73 22.333 -73 67s24.333 67 73 67s73 -22.333 73 -67s-24.333 -67 -73 -67zM416 773c-48.667 0 -73 22.333 -73 67s24.333 67 73 67s73 -22.333 73 -67s-24.333 -67 -73 -67z" />
    <glyph glyph-name="afii10051" unicode="&#x402;" horiz-adv-x="770" 
d="M226 586l-195.999 0.000976562v114h520v-114h-196v-171c19.333 7.33301 41 13.666 65 18.999s50.667 8 80 8c78.667 0 136 -17.333 172 -52s54 -87.334 54 -158.001v-34c0 -140.667 -68.333 -211 -205 -211c-14 0 -28.833 1 -44.5 3s-28.834 4.33301 -39.501 7v117
c6.66699 -3.33301 15 -6.16602 25 -8.49902s21.333 -3.5 34 -3.5c32 0 56.5 8.5 73.5 25.5s25.5 40.5 25.5 70.5v34c0 30 -9.83301 53.333 -29.5 70s-52.5 25 -98.5 25c-21.333 0 -41.5 -2.16699 -60.5 -6.5s-36.167 -9.83301 -51.5 -16.5v-304h-128v586z" />
    <glyph glyph-name="afii10052" unicode="&#x403;" horiz-adv-x="535" 
d="M89 700h416v-114h-288v-586h-128v700zM333 915h158l-152 -150h-100z" />
    <glyph glyph-name="afii10053" unicode="&#x404;" horiz-adv-x="590" 
d="M365 -13c-54 0 -100.998 6.83398 -140.998 20.501s-73.333 35.167 -100 64.5s-46.5 67.333 -59.5 114s-19.5 103 -19.5 169c0 63.333 6.5 117.5 19.5 162.5s32.667 82 59 111s59.166 50.333 98.499 64s85.333 20.5 138 20.5c25.333 0 49.166 -1.83301 71.499 -5.5
s41.833 -7.83398 58.5 -12.501c19.333 -5.33301 36.666 -11.333 51.999 -18v-129c-20 13.333 -43.833 24.333 -71.5 33s-63.5 13 -107.5 13c-55.333 0 -98.333 -13.833 -129 -41.5s-49 -75.167 -55 -142.5h271v-108h-271c6 -71.333 24.833 -121.833 56.5 -151.5
s75.834 -44.5 132.501 -44.5c42.667 0 78 5.66699 106 17s51.667 23 71 35v-130c-15.333 -8 -32.333 -15 -51 -21c-16 -5.33301 -35 -10 -57 -14s-46 -6 -72 -6z" />
    <glyph glyph-name="afii10054" unicode="&#x405;" horiz-adv-x="580" 
d="M283 -13c-44.667 0 -85.498 5.00293 -122.498 15.0029s-66.833 22 -89.5 36v139c8.66699 -8 19.834 -16.167 33.501 -24.5s29.167 -16 46.5 -23s36.666 -12.667 57.999 -17s44 -6.5 68 -6.5c42.667 0 72.834 7.5 90.501 22.5s26.5 35.5 26.5 61.5
c0 25.333 -8.16699 45.166 -24.5 59.499s-36.5 26.666 -60.5 36.999s-50.333 20.166 -79 29.499s-55 21.666 -79 36.999s-44.167 35.5 -60.5 60.5s-24.5 58.167 -24.5 99.5c0 64 19 113.333 57 148s99.333 52 184 52c38.667 0 74.5 -3.33301 107.5 -10s60.167 -15 81.5 -25
v-139c-22 17.333 -49.5 30.833 -82.5 40.5s-66.5 14.5 -100.5 14.5c-22.667 0 -41.334 -1.66699 -56.001 -5s-26.334 -8 -35.001 -14s-14.834 -13.667 -18.501 -23s-5.5 -20 -5.5 -32c0 -24 8.16699 -42.667 24.5 -56s36.5 -24.833 60.5 -34.5s50.333 -19.167 79 -28.5
s55 -21.833 79 -37.5s44.167 -36.667 60.5 -63s24.5 -60.833 24.5 -103.5c0 -67.333 -19.5 -119.166 -58.5 -155.499s-100.5 -54.5 -184.5 -54.5z" />
    <glyph glyph-name="afii10055" unicode="&#x406;" horiz-adv-x="330" 
d="M101 700h128v-700h-128v700z" />
    <glyph glyph-name="afii10056" unicode="&#x407;" horiz-adv-x="330" 
d="M101 700h128v-700h-128v700zM58 773c-48.667 0 -73 22.333 -73 67s24.333 67 73 67s73 -22.333 73 -67s-24.333 -67 -73 -67zM275 773c-48.667 0 -73 22.333 -73 67s24.333 67 73 67s73 -22.333 73 -67s-24.333 -67 -73 -67z" />
    <glyph glyph-name="afii10057" unicode="&#x408;" horiz-adv-x="420" 
d="M140 -13c-17.333 0 -32.666 0.833984 -45.999 2.50098s-24.666 3.5 -33.999 5.5c-11.333 2.66699 -21.333 5.66699 -30 9v129c6.66699 -5.33301 14.667 -10 24 -14c7.33301 -3.33301 16.666 -6.33301 27.999 -9s23.666 -4 36.999 -4c30 0 51.667 7.5 65 22.5
s20 42.5 20 82.5v489h127v-489c0 -42 -3.5 -77.333 -10.5 -106s-18.333 -51.834 -34 -69.501s-35.5 -30.167 -59.5 -37.5s-53 -11 -87 -11z" />
    <glyph glyph-name="afii10058" unicode="&#x409;" horiz-adv-x="985" 
d="M663 -6c-20 0 -41.332 0.664062 -63.999 1.99707s-43.667 2.66602 -63 3.99902l-67 6v580h-195l-4 -67c-6 -113.333 -13.667 -204.833 -23 -274.5s-21.5 -123.5 -36.5 -161.5s-33.667 -63.5 -56 -76.5s-49.833 -19.5 -82.5 -19.5c-16 0 -30 2.33301 -42 7v121
c6.66699 -2 14.334 -3 23.001 -3c15.333 0 28.666 5.66699 39.999 17s20.833 32.833 28.5 64.5s14 76 19 133s9.16699 131.5 12.5 223.5l6 150h437v-230c9.33301 0.666992 19.666 1.33398 30.999 2.00098c9.33301 0.666992 19.833 1.33398 31.5 2.00098s23.167 1 34.5 1
c86.667 0 149.5 -19 188.5 -57s58.5 -96.333 58.5 -175c0 -44 -4.83301 -81.667 -14.5 -113s-25.5 -57.166 -47.5 -77.499s-50.667 -35.166 -86 -44.499s-78.333 -14 -129 -14zM808.001 235.997c0 22 -2.16406 40.6699 -6.49707 56.0029s-11.833 27.666 -22.5 36.999
s-24.834 16.166 -42.501 20.499s-39.834 6.5 -66.501 6.5c-10 0 -19.5 -0.166992 -28.5 -0.5s-16.833 -0.833008 -23.5 -1.5c-8 -0.666992 -15.333 -1.33398 -22 -2.00098v-234c6.66699 -1.33301 14 -2.33301 22 -3c6.66699 -0.666992 14.5 -1.16699 23.5 -1.5
s18.5 -0.5 28.5 -0.5c51.333 0 87.166 9.5 107.499 28.5s30.5 50.5 30.5 94.5z" />
    <glyph glyph-name="afii10059" unicode="&#x40a;" horiz-adv-x="1010" 
d="M688 -6c-20 0 -41.332 0.664062 -63.999 1.99707s-43.667 2.66602 -63 3.99902l-67 6v295h-277v-301h-128v700h128v-285h277v285h127v-230c9.33301 0.666992 19.666 1.33398 30.999 2.00098c9.33301 0.666992 19.833 1.33398 31.5 2.00098s23.167 1 34.5 1
c86.667 0 149.5 -19 188.5 -57s58.5 -96.333 58.5 -175c0 -44 -4.83301 -81.667 -14.5 -113s-25.5 -57.166 -47.5 -77.499s-50.667 -35.166 -86 -44.499s-78.333 -14 -129 -14zM833.001 235.997c0 22 -2.16406 40.6699 -6.49707 56.0029s-11.833 27.666 -22.5 36.999
s-24.834 16.166 -42.501 20.499s-39.834 6.5 -66.501 6.5c-10 0 -19.5 -0.166992 -28.5 -0.5s-16.833 -0.833008 -23.5 -1.5c-8 -0.666992 -15.333 -1.33398 -22 -2.00098v-234c6.66699 -1.33301 14 -2.33301 22 -3c6.66699 -0.666992 14.5 -1.16699 23.5 -1.5
s18.5 -0.5 28.5 -0.5c51.333 0 87.166 9.5 107.499 28.5s30.5 50.5 30.5 94.5z" />
    <glyph glyph-name="afii10060" unicode="&#x40b;" horiz-adv-x="795" 
d="M226 586h-195.999v114h520v-114h-196v-168c19.333 8 41.666 15.333 66.999 22s54 10 86 10c79.333 0 136.333 -17.333 171 -52s52 -91.667 52 -171v-227h-127v221c0 40 -9.5 69 -28.5 87s-50.5 27 -94.5 27c-24.667 0 -47.667 -2.83301 -69 -8.5
s-40.333 -12.167 -57 -19.5v-307h-128v586z" />
    <glyph glyph-name="afii10061" unicode="&#x40c;" horiz-adv-x="655" 
d="M279 299h-62v-299h-128v700h128v-286h62l187 286h149l-230 -341l250 -359h-154zM388 915h158l-152 -150h-100z" />
    <glyph glyph-name="afii10062" unicode="&#x40e;" horiz-adv-x="630" 
d="M223 -13c-14.667 0 -29 1.16895 -43 3.50195s-26.667 6.16602 -38 11.499v126c7.33301 -6.66699 15.5 -12 24.5 -16s20.167 -6 33.5 -6c15.333 0 28.5 5.16699 39.5 15.5s21.167 27.5 30.5 51.5l-255 527h146l174 -384l139 384h141l-215 -550
c-12 -30 -23.833 -55.5 -35.5 -76.5s-24.5 -37.833 -38.5 -50.5s-29.333 -21.834 -46 -27.501s-35.667 -8.5 -57 -8.5zM315 765.002c-25.333 0 -48.666 2.5 -69.999 7.5s-39.833 13.333 -55.5 25s-28.167 27.167 -37.5 46.5s-14 43 -14 71h98
c0.666992 -30 7.33398 -50.333 20.001 -61s32.334 -16 59.001 -16s46.667 5.33301 60 16s20.666 31 21.999 61h95c-0.666992 -28 -5.5 -51.667 -14.5 -71s-21.333 -34.833 -37 -46.5s-34.334 -20 -56.001 -25s-44.834 -7.5 -69.501 -7.5z" />
    <glyph glyph-name="afii10145" unicode="&#x40f;" horiz-adv-x="690" 
d="M89 700h128v-586h256v586h128v-700h-199v-130h-114v130h-199v700z" />
    <glyph glyph-name="afii10017" unicode="&#x410;" horiz-adv-x="640" 
d="M249 700h143l233 -700h-133l-52 166h-246l-52 -166h-127zM227 273h180l-89 287z" />
    <glyph glyph-name="afii10018" unicode="&#x411;" horiz-adv-x="630" 
d="M299 -6c-19.333 0 -41 0.666016 -65 1.99902s-46.667 2.66602 -68 3.99902l-77 6v694h445v-114h-317v-148c9.33301 0.666992 20 1.33398 32 2.00098c9.33301 0.666992 20.5 1.33398 33.5 2.00098s26.5 1 40.5 1c45.333 0 84 -4.5 116 -13.5s58 -22.667 78 -41
s34.667 -41.5 44 -69.5s14 -61 14 -99s-4.83301 -71.167 -14.5 -99.5s-25.5 -51.833 -47.5 -70.5s-50.5 -32.667 -85.5 -42s-77.833 -14 -128.5 -14zM443 223.999c0 19.333 -2.16797 35.834 -6.50098 49.501s-11.833 24.834 -22.5 33.501s-25 15 -43 19s-40.667 6 -68 6
c-12.667 0 -24.334 -0.333008 -35.001 -1s-19.667 -1.33398 -27 -2.00098c-8.66699 -0.666992 -16.667 -1.33398 -24 -2.00098v-209c7.33301 -1.33301 15.333 -2.33301 24 -3c7.33301 -0.666992 16.333 -1.16699 27 -1.5s22.334 -0.5 35.001 -0.5
c26.667 0 49 2.16699 67 6.5s32.333 11 43 20s18.334 20.5 23.001 34.5s7 30.667 7 50z" />
    <glyph glyph-name="afii10019" unicode="&#x412;" horiz-adv-x="625" 
d="M307 -6c-25.333 0 -50.834 0.501953 -76.501 1.50195s-49.167 2.16699 -70.5 3.5l-71 6v690c22.667 1.33301 46.334 3 71.001 5c21.333 1.33301 44.666 2.66602 69.999 3.99902s50.333 2 75 2c48.667 0 89.334 -3.66699 122.001 -11s58.834 -18.5 78.501 -33.5
s33.5 -34.167 41.5 -57.5s12 -51 12 -83c0 -83.333 -37.667 -135.333 -113 -156c43.333 -6 76.666 -22.667 99.999 -50s35 -66 35 -116c0 -34.667 -4.5 -64.834 -13.5 -90.501s-24.167 -47 -45.5 -64s-49.5 -29.667 -84.5 -38s-78.5 -12.5 -130.5 -12.5zM448.999 208.002
c0 34 -9 58.834 -27 74.501s-51 23.5 -99 23.5h-106v-197c10 -0.666992 20.667 -1.33398 32 -2.00098c9.33301 -0.666992 20.166 -1 32.499 -1h38.5c24.667 0 45.334 1.83301 62.001 5.5s30 9.66699 40 18s17 19 21 32s6 28.5 6 46.5zM426.999 502.003
c0 33.333 -8.00195 57 -24.002 71s-46.333 21 -91 21c-13.333 0 -25.666 -0.166992 -36.999 -0.5s-21.333 -0.833008 -30 -1.5c-10 -0.666992 -19.333 -1 -28 -1v-184h96c42.667 0 72.334 7.5 89.001 22.5s25 39.167 25 72.5z" />
    <glyph glyph-name="afii10020" unicode="&#x413;" horiz-adv-x="535" 
d="M89 700h416v-114h-288v-586h-128v700z" />
    <glyph glyph-name="afii10021" unicode="&#x414;" horiz-adv-x="695" 
d="M20 114l65.001 0.00195312c11.333 24.667 21.5 54.667 30.5 90s16.5 73.666 22.5 114.999s10.667 85.166 14 131.499s5.66602 93.5 6.99902 141.5l2 108h425v-586h74v-244h-115v130h-410v-130h-115v244zM459.001 114.002l0.000976562 472h-184
c0 -42 -1.5 -84.667 -4.5 -128s-7.16699 -85.833 -12.5 -127.5s-12.333 -81 -21 -118s-18.334 -69.833 -29.001 -98.5h251z" />
    <glyph glyph-name="afii10022" unicode="&#x415;" horiz-adv-x="575" 
d="M89 700h436v-114h-308v-176h268v-107h-268v-189h308v-114h-436v700z" />
    <glyph glyph-name="afii10024" unicode="&#x416;" horiz-adv-x="900" 
d="M218 354l-174 346h146l136 -286h60v286h127v-286h59l144 286h140l-176 -336l196 -364h-148l-156 299h-59v-299h-127v299h-60l-157 -299h-145z" />
    <glyph glyph-name="afii10025" unicode="&#x417;" horiz-adv-x="545" 
d="M248 -13c-39.333 0 -76.5 3.83301 -111.5 11.5s-65.5 17.167 -91.5 28.5v139c20.667 -18 48 -33.167 82 -45.5s71.333 -18.5 112 -18.5c47.333 0 80.333 8.5 99 25.5s28 44.5 28 82.5c0 32.667 -9.16699 56.834 -27.5 72.501s-51.166 23.5 -98.499 23.5h-93v101h86
c42 0 71.5 7.66699 88.5 23s25.5 40 25.5 74c0 33.333 -8.16699 57.333 -24.5 72s-45.5 22 -87.5 22c-34 0 -65.5 -5 -94.5 -15s-57.167 -23.333 -84.5 -40v135c24.667 9.33301 53.5 17.5 86.5 24.5s70.167 10.5 111.5 10.5c43.333 0 79.5 -4.16699 108.5 -12.5
s52.333 -20.333 70 -36s30.167 -34.834 37.5 -57.501s11 -48.334 11 -77.001c0 -44 -10.5 -79.667 -31.5 -107s-50.833 -46.666 -89.5 -57.999c45.333 -5.33301 80.166 -22.5 104.499 -51.5s36.5 -68.167 36.5 -117.5c0 -33.333 -4.33301 -62.833 -13 -88.5
s-22.834 -47.5 -42.501 -65.5s-45.667 -31.667 -78 -41s-72.166 -14 -119.499 -14z" />
    <glyph glyph-name="afii10026" unicode="&#x418;" horiz-adv-x="740" 
d="M89 700h128v-404c0 -14.667 -0.166992 -28.667 -0.5 -42s-0.833008 -25.333 -1.5 -36c-0.666992 -12 -1 -24 -1 -36h2c5.33301 12 11 24 17 36l18 36l22 42l235 404h143v-700h-128v404v43c0 13.333 0.333008 25.333 1 36l2 35h-2c-4.66699 -11.333 -10 -23 -16 -35
l-18.5 -36l-22.5 -43l-235 -404h-143v700z" />
    <glyph glyph-name="afii10027" unicode="&#x419;" horiz-adv-x="740" 
d="M89 700h128v-404c0 -14.667 -0.166992 -28.667 -0.5 -42s-0.833008 -25.333 -1.5 -36c-0.666992 -12 -1 -24 -1 -36h2c5.33301 12 11 24 17 36l18 36l22 42l235 404h143v-700h-128v404v43c0 13.333 0.333008 25.333 1 36l2 35h-2c-4.66699 -11.333 -10 -23 -16 -35
l-18.5 -36l-22.5 -43l-235 -404h-143v700zM363 765c-25.333 0 -48.666 2.5 -69.999 7.5s-39.833 13.333 -55.5 25s-28.167 27.167 -37.5 46.5s-14 43 -14 71h98c0.666992 -30 7.33398 -50.333 20.001 -61s32.334 -16 59.001 -16s46.667 5.33301 60 16s20.666 31 21.999 61
h95c-0.666992 -28 -5.5 -51.667 -14.5 -71s-21.333 -34.833 -37 -46.5s-34.334 -20 -56.001 -25s-44.834 -7.5 -69.501 -7.5z" />
    <glyph glyph-name="afii10028" unicode="&#x41a;" horiz-adv-x="655" 
d="M279 299h-62v-299h-128v700h128v-286h62l187 286h149l-230 -341l250 -359h-154z" />
    <glyph glyph-name="afii10029" unicode="&#x41b;" horiz-adv-x="695" 
d="M72 -13c-16 0 -30 2.33301 -42 7v121c6.66699 -2 14.334 -3 23.001 -3c15.333 0 28.666 5.66699 39.999 17s20.833 32.833 28.5 64.5s14 76 19 133s9.16699 131.5 12.5 223.5l6 150h447v-700h-128v586h-204l-4 -67c-6 -113.333 -13.667 -204.833 -23 -274.5
s-21.5 -123.5 -36.5 -161.5s-33.667 -63.5 -56 -76.5s-49.833 -19.5 -82.5 -19.5z" />
    <glyph glyph-name="afii10030" unicode="&#x41c;" horiz-adv-x="850" 
d="M89 700h162l177 -405l176 405h157v-700h-123v421v29c0 8.66699 0.166992 17 0.5 25l1 24.5c0.333008 8.33301 1.16602 17.833 2.49902 28.5h-3l-10.5 -28.5l-9 -24.5c-3 -8 -6.33301 -16.167 -10 -24.5l-12.5 -29.5l-119 -270h-106l-119 270l-12.5 29.5
c-3.66699 8.33301 -7 16.5 -10 24.5l-9 24.5l-10.5 28.5h-3c0.666992 -10.667 1.33398 -20.167 2.00098 -28.5s1.16699 -16.5 1.5 -24.5s0.5 -16.333 0.5 -25v-29v-421h-123v700z" />
    <glyph glyph-name="afii10031" unicode="&#x41d;" horiz-adv-x="720" 
d="M89 700h128v-285h286v285h128v-700h-128v301h-286v-301h-128v700z" />
    <glyph glyph-name="afii10032" unicode="&#x41e;" horiz-adv-x="710" 
d="M355 -13c-102 0 -179.168 28.5 -231.501 85.5s-78.5 149.5 -78.5 277.5c0 126.667 26.5 218.834 79.5 276.501s129.833 86.5 230.5 86.5c52 0 97.5 -6.66699 136.5 -20s71.333 -34.5 97 -63.5s44.834 -66.5 57.501 -112.5s19 -101.667 19 -167
c0 -126.667 -26.5 -218.834 -79.5 -276.501s-129.833 -86.5 -230.5 -86.5zM354.999 102c29.333 0 55 4.16797 77 12.501s40.5 22.166 55.5 41.499s26.333 44.833 34 76.5s11.5 70.834 11.5 117.501s-3.83301 85.834 -11.5 117.501s-19 57.167 -34 76.5
s-33.5 33.166 -55.5 41.499s-47.667 12.5 -77 12.5s-55 -4.16699 -77 -12.5s-40.5 -22.166 -55.5 -41.499s-26.333 -44.833 -34 -76.5s-11.5 -70.834 -11.5 -117.501c0 -46 3.83301 -84.833 11.5 -116.5s19 -57.334 34 -77.001s33.667 -33.667 56 -42
s47.833 -12.5 76.5 -12.5z" />
    <glyph glyph-name="afii10033" unicode="&#x41f;" horiz-adv-x="700" 
d="M89 700h522v-700h-128v586h-266v-586h-128v700z" />
    <glyph glyph-name="afii10034" unicode="&#x420;" horiz-adv-x="620" 
d="M89 695c22 1.33301 44.666 3 67.999 5c20 1.33301 42.333 2.66602 67 3.99902s49.334 2 74.001 2c50.667 0 93.667 -4.66699 129 -14s64 -24 86 -44s37.833 -45.333 47.5 -76s14.5 -67 14.5 -109c0 -85.333 -22 -149 -66 -191s-114.333 -63 -211 -63h-31.5
c-9.66699 0 -18.167 0.333008 -25.5 1c-8.66699 0.666992 -16.667 1.33398 -24 2.00098v-212h-128v695zM442.999 463c0 22 -2.33398 40.835 -7.00098 56.502s-12.667 28.5 -24 38.5s-26.333 17.333 -45 22s-41.667 7 -69 7c-11.333 0 -21.833 -0.166992 -31.5 -0.5
s-18.167 -0.833008 -25.5 -1.5c-8.66699 -0.666992 -16.667 -1.33398 -24 -2.00098v-252c7.33301 -0.666992 15.333 -1.33398 24 -2.00098c7.33301 -0.666992 15.833 -1 25.5 -1h31.5c26.667 0 49.334 2.5 68.001 7.5s33.667 12.833 45 23.5s19.5 24.5 24.5 41.5
s7.5 37.833 7.5 62.5z" />
    <glyph glyph-name="afii10035" unicode="&#x421;" horiz-adv-x="575" 
d="M362 -13c-54 0 -100.835 6.66797 -140.502 20.001s-72.667 34.666 -99 63.999s-45.833 67.333 -58.5 114s-19 103.334 -19 170.001c0 126 26.333 217.167 79 273.5s131.334 84.5 236.001 84.5c24 0 46.5 -1.66699 67.5 -5s39.167 -7 54.5 -11
c18 -4.66699 34.667 -10 50 -16v-129c-19.333 11.333 -42.5 21.166 -69.5 29.499s-59.833 12.5 -98.5 12.5c-31.333 0 -58.666 -4.16699 -81.999 -12.5s-42.833 -22 -58.5 -41s-27.334 -43.667 -35.001 -74s-11.5 -67.5 -11.5 -111.5c0 -46 4 -85 12 -117
s19.833 -57.667 35.5 -77s35.167 -33.333 58.5 -42s50.666 -13 81.999 -13c39.333 0 73.5 5.33301 102.5 16s51.5 21.667 67.5 33v-129c-14.667 -7.33301 -30.667 -14 -48 -20c-15.333 -5.33301 -33.666 -9.83301 -54.999 -13.5s-44.666 -5.5 -69.999 -5.5z" />
    <glyph glyph-name="afii10036" unicode="&#x422;" horiz-adv-x="580" 
d="M226 586h-196v114h520v-114h-196v-586h-128v586z" />
    <glyph glyph-name="afii10037" unicode="&#x423;" horiz-adv-x="630" 
d="M223 -13c-14.667 0 -29 1.16895 -43 3.50195s-26.667 6.16602 -38 11.499v126c7.33301 -6.66699 15.5 -12 24.5 -16s20.167 -6 33.5 -6c15.333 0 28.5 5.16699 39.5 15.5s21.167 27.5 30.5 51.5l-255 527h146l174 -384l139 384h141l-215 -550
c-12 -30 -23.833 -55.5 -35.5 -76.5s-24.5 -37.833 -38.5 -50.5s-29.333 -21.834 -46 -27.501s-35.667 -8.5 -57 -8.5z" />
    <glyph glyph-name="afii10038" unicode="&#x424;" horiz-adv-x="830" 
d="M351 60h-18c-101.333 0 -175.5 23.5 -222.5 70.5s-70.5 121.833 -70.5 224.5s23.333 177.5 70 224.5s121 70.5 223 70.5h18v70h128v-70h18c52 0 96.5 -5.5 133.5 -16.5s67.333 -28.333 91 -52s41 -54.167 52 -91.5s16.5 -82.333 16.5 -135
c0 -102.667 -23.5 -177.5 -70.5 -224.5s-121.167 -70.5 -222.5 -70.5h-18v-80h-128v80zM172 355c0 -36 2.83301 -66 8.5 -90s15 -43.333 28 -58s30 -25 51 -31s46.833 -9 77.5 -9h18v376h-18c-30.667 0 -56.5 -3 -77.5 -9s-38 -16.167 -51 -30.5s-22.333 -33.5 -28 -57.5
s-8.5 -54.333 -8.5 -91zM658 355c0 36.667 -2.83301 67 -8.5 91s-15 43.167 -28 57.5s-30 24.5 -51 30.5s-46.833 9 -77.5 9h-18v-376h18c30.667 0 56.5 3 77.5 9s38 16.333 51 31s22.333 34 28 58s8.5 54 8.5 90z" />
    <glyph glyph-name="afii10039" unicode="&#x425;" horiz-adv-x="630" 
d="M231 358l-200 342h148l138 -240l137 240h145l-200 -339l211 -361h-151l-146 258l-147 -258h-146z" />
    <glyph glyph-name="afii10040" unicode="&#x426;" horiz-adv-x="730" 
d="M580 0h-491v700h128v-586h271v586h127v-586h80v-244h-115v130z" />
    <glyph glyph-name="afii10041" unicode="&#x427;" horiz-adv-x="650" 
d="M433 273c-11.333 -6.66699 -24.6689 -12.333 -40.002 -17c-13.333 -4.66699 -29.5 -8.66699 -48.5 -12s-40.833 -5 -65.5 -5c-37.333 0 -69.5 4.16699 -96.5 12.5s-49.167 21.5 -66.5 39.5s-30.166 41 -38.499 69s-12.5 62 -12.5 102v238h127v-232
c0 -40 9.16699 -69 27.5 -87s47.5 -27 87.5 -27c21.333 0 39.833 1.5 55.5 4.5s28.834 6.16699 39.501 9.5c12 4 22.333 9 31 15v317h128v-700h-128v273z" />
    <glyph glyph-name="afii10042" unicode="&#x428;" horiz-adv-x="930" 
d="M89 700h128v-586h184v586h128v-586h184v586h128v-700h-752v700z" />
    <glyph glyph-name="afii10043" unicode="&#x429;" horiz-adv-x="950" 
d="M89 700h128v-586h184v586h128v-586h184v586h128v-586h74v-244h-115v130h-711v700z" />
    <glyph glyph-name="afii10044" unicode="&#x42a;" horiz-adv-x="690" 
d="M363 -6c-20 0 -41.332 0.664062 -63.999 1.99707s-43.667 2.66602 -63 3.99902l-67 6v580h-139v114h266v-230c9.33301 0.666992 19.666 1.33398 30.999 2.00098c9.33301 0.666992 19.833 1.33398 31.5 2.00098s23.5 1 35.5 1c88.667 0 152.667 -19 192 -57
s59 -96.333 59 -175c0 -44 -4.83301 -81.667 -14.5 -113s-25.667 -57.166 -48 -77.499s-51.5 -35.166 -87.5 -44.499s-80 -14 -132 -14zM513.001 235.997c0 22 -2.16699 40.6699 -6.5 56.0029s-12 27.666 -23 36.999s-25.667 16.166 -44 20.499s-41.5 6.5 -69.5 6.5
c-10 0 -19.333 -0.166992 -28 -0.5s-16.667 -0.833008 -24 -1.5c-8 -0.666992 -15.333 -1.33398 -22 -2.00098v-234c6.66699 -1.33301 14 -2.33301 22 -3c7.33301 -0.666992 15.333 -1.16699 24 -1.5s18 -0.5 28 -0.5c54 0 91.333 9.5 112 28.5s31 50.5 31 94.5z" />
    <glyph glyph-name="afii10045" unicode="&#x42b;" horiz-adv-x="850" 
d="M283 -6c-20 0 -41.3311 0.664062 -63.998 1.99707s-43.667 2.66602 -63 3.99902l-67 6v694h127v-230c9.33301 0.666992 19.666 1.33398 30.999 2.00098c9.33301 0.666992 19.833 1.33398 31.5 2.00098s23.5 1 35.5 1c85.333 0 147.333 -18.833 186 -56.5
s58 -96.167 58 -175.5c0 -44 -4.83301 -81.667 -14.5 -113s-25.334 -57.166 -47.001 -77.499s-50 -35.166 -85 -44.499s-77.833 -14 -128.5 -14zM427.002 235.997c0 44 -9.83301 75.001 -29.5 93.001s-55.5 27 -107.5 27c-10 0 -19.333 -0.166992 -28 -0.5
s-16.667 -0.833008 -24 -1.5c-8 -0.666992 -15.333 -1.33398 -22 -2.00098v-234c6.66699 -1.33301 14 -2.33301 22 -3c7.33301 -0.666992 15.333 -1.16699 24 -1.5s18 -0.5 28 -0.5c50.667 0 86.167 9.5 106.5 28.5s30.5 50.5 30.5 94.5zM633.002 699.998h128v-700h-128v700
z" />
    <glyph glyph-name="afii10046" unicode="&#x42c;" horiz-adv-x="610" 
d="M283 -6c-20 0 -41.332 0.665039 -63.999 1.99805s-43.667 2.66602 -63 3.99902l-67 6v694h128v-230l31 2c9.33301 0.666992 19.666 1.33398 30.999 2.00098s23 1 35 1c88.667 0 152.667 -19 192 -57s59 -96.333 59 -175c0 -44 -4.83301 -81.667 -14.5 -113
s-25.667 -57.166 -48 -77.499s-51.5 -35.166 -87.5 -44.499s-80 -14 -132 -14zM433.001 235.998c0 22 -2.16602 40.6689 -6.49902 56.002s-12 27.666 -23 36.999s-25.667 16.166 -44 20.499s-41.5 6.5 -69.5 6.5c-10 0 -19.333 -0.166992 -28 -0.5
s-16.334 -0.833008 -23.001 -1.5l-22 -2v-234c7.33301 -1.33301 14.666 -2.33301 21.999 -3c6.66699 -0.666992 14.334 -1.16699 23.001 -1.5s18 -0.5 28 -0.5c54 0 91.333 9.5 112 28.5s31 50.5 31 94.5z" />
    <glyph glyph-name="afii10047" unicode="&#x42d;" horiz-adv-x="590" 
d="M140 410l270.001 -0.000976562c-6 67.333 -24.167 114.833 -54.5 142.5s-73.166 41.5 -128.499 41.5c-44 0 -79.833 -4.33301 -107.5 -13s-51.5 -19.667 -71.5 -33v129c15.333 6.66699 32.666 12.667 51.999 18c16.667 4.66699 36 8.83398 58 12.501s46 5.5 72 5.5
c52.667 0 98.667 -6.83301 138 -20.5s72.166 -35 98.499 -64s46 -66 59 -111s19.5 -99.167 19.5 -162.5c0 -66 -6.5 -122.333 -19.5 -169s-32.833 -84.667 -59.5 -114s-60 -50.833 -100 -64.5s-87 -20.5 -141 -20.5c-26.667 0 -50.834 2 -72.501 6s-40.5 8.66699 -56.5 14
c-18.667 6 -35.667 13 -51 21v130c19.333 -12 43 -23.667 71 -35s63.333 -17 106 -17c56.667 0 100.834 14.833 132.501 44.5s50.5 80.167 56.5 151.5h-271v108z" />
    <glyph glyph-name="afii10048" unicode="&#x42e;" horiz-adv-x="960" 
d="M615 -13c-44.667 0 -84.501 5.66699 -119.501 17s-64.667 29.5 -89 54.5s-43.5 57.167 -57.5 96.5s-22.667 87 -26 143h-106v-298h-128v700h128v-288h107c8 106 37.167 182.667 87.5 230s118.166 71 203.499 71c50.667 0 94.667 -6.5 132 -19.5s68.5 -34 93.5 -63
s43.667 -66.5 56 -112.5s18.5 -102 18.5 -168c0 -64.667 -6.33301 -120 -19 -166s-31.667 -83.5 -57 -112.5s-56.666 -50.333 -93.999 -64s-80.666 -20.5 -129.999 -20.5zM614.999 106c26.667 0 50.334 4 71.001 12s38 21.5 52 40.5s24.667 44 32 75s11 69.833 11 116.5
s-3.66699 85.5 -11 116.5s-18 56 -32 75s-31.333 32.5 -52 40.5s-44.334 12 -71.001 12s-50.334 -4 -71.001 -12s-38 -21.5 -52 -40.5s-24.667 -44 -32 -75s-11 -69.833 -11 -116.5s3.66699 -85.5 11 -116.5s18 -56 32 -75s31.333 -32.5 52 -40.5s44.334 -12 71.001 -12z
" />
    <glyph glyph-name="afii10049" unicode="&#x42f;" horiz-adv-x="640" 
d="M189 260c-41.333 16.667 -70.834 42.498 -88.501 77.498s-26.5 81.167 -26.5 138.5c0 38.667 5 72.334 15 101.001s25.833 52.5 47.5 71.5s49.667 33.333 84 43s75.833 14.5 124.5 14.5c24.667 0 49.334 -0.666992 74.001 -2s46.667 -2.66602 66 -3.99902
c22.667 -2 44.667 -3.66699 66 -5v-695h-128v237h-85h-26l-131 -237h-142zM205.999 468.998c0 -41.333 9.99902 -71.333 29.999 -90s54 -28 102 -28h88v233c-8.66699 0 -17.667 0.333008 -27 1c-8 0.666992 -17.333 1.16699 -28 1.5s-21.667 0.5 -33 0.5
c-49.333 0 -83.666 -9 -102.999 -27s-29 -48.333 -29 -91z" />
    <glyph glyph-name="afii10065" unicode="&#x430;" horiz-adv-x="535" 
d="M198 -13c-52 0 -91.5039 13.666 -118.504 40.999s-40.5 67.333 -40.5 120c0 28 3.66699 52.333 11 73s19.333 37.834 36 51.501s38.334 24 65.001 31s59.334 10.5 98.001 10.5h100v36c0 31.333 -7.66699 53.5 -23 66.5s-43.666 19.5 -84.999 19.5
c-31.333 0 -61.166 -4 -89.499 -12s-51.166 -17.667 -68.499 -29v120c20 8.66699 45.667 16 77 22s65 9 101 9c38.667 0 71.5 -3.33301 98.5 -10s48.667 -17.667 65 -33s28.166 -35.333 35.499 -60s11 -55 11 -91v-352h-110l-5 85c-10 -26.667 -28 -49.667 -54 -69
s-60.667 -29 -104 -29zM241.996 90.999c33.333 0 59.5 9.83301 78.5 29.5s28.5 48.5 28.5 86.5v29h-86c-37.333 0 -63 -6.16699 -77 -18.5s-21 -31.833 -21 -58.5c0 -22.667 6 -39.667 18 -51s31.667 -17 59 -17z" />
    <glyph glyph-name="afii10066" unicode="&#x431;" horiz-adv-x="590" 
d="M303 -13c-39.333 0 -74.6689 5.33789 -106.002 16.0049s-58 29 -80 55s-38.833 60.667 -50.5 104s-17.5 97.666 -17.5 162.999c0 84 6.16699 152 18.5 204s30.5 93.167 54.5 123.5s53.5 52.166 88.5 65.499s74.833 22.666 119.5 27.999
c42.667 5.33301 77.667 10.166 105 14.499s50.333 10.5 69 18.5v-123c-12 -6 -29.167 -11 -51.5 -15s-53.833 -8.33301 -94.5 -13c-33.333 -4 -63 -9.16699 -89 -15.5s-48.167 -17 -66.5 -32s-32.666 -35.833 -42.999 -62.5s-15.833 -62 -16.5 -106h3
c20.667 34 46.334 61 77.001 81s70.334 30 119.001 30c37.333 0 69.166 -5 95.499 -15s48 -25.5 65 -46.5s29.333 -48.333 37 -82s11.5 -73.834 11.5 -120.501c0 -48 -5.66699 -89.167 -17 -123.5s-27.666 -62.5 -48.999 -84.5s-47.333 -38.167 -78 -48.5
s-65.334 -15.5 -104.001 -15.5zM302.997 97.0049c41.333 0 72 13.001 92 39.001s30 66.667 30 122c0 57.333 -9.33301 97.5 -28 120.5s-48.667 34.5 -90 34.5c-44 0 -76.5 -12.833 -97.5 -38.5s-31.5 -63.834 -31.5 -114.501c0 -55.333 10 -96.333 30 -123
s51.667 -40 95 -40z" />
    </font>
</defs>
</svg>
