<?xml version="1.0" standalone="no"?>
<!DOCTYPE svg PUBLIC "-//W3C//DTD SVG 1.1//EN" "http://www.w3.org/Graphics/SVG/1.1/DTD/svg11.dtd" >
<svg>
<metadata>
Created by FontForge 20090914 at Wed Feb 12 22:01:23 2020
 By www-data
Copyright (c) 2018 ParaType Inc., ParaType Ltd. All rights reserved.
</metadata>
<defs>
<font id="SBSansInterface-Regular" horiz-adv-x="450" >
  <font-face 
    font-family="SB Sans Interface"
    font-weight="400"
    font-stretch="normal"
    units-per-em="1000"
    panose-1="2 11 5 3 4 5 4 2 2 4"
    ascent="815"
    descent="-185"
    x-height="526"
    cap-height="700"
    bbox="-322 -221.001 1244 939.004"
    underline-thickness="50"
    underline-position="-63"
    unicode-range="U+000D-U+FEFF"
  />
<missing-glyph horiz-adv-x="500" 
d="M442 8v496h-384v-496h384zM50 512h400v-512h-400v512z" />
    <glyph glyph-name="f_f" unicode="ff" horiz-adv-x="730" 
d="M459 447l-242 0.00195312v-447h-88v447h-94v79h94v73c0 56.667 12.167 97.5 36.5 122.5s63.5 37.5 117.5 37.5c31.333 0 56.333 -3.33301 75 -10v-88c-7.33301 4.66699 -16.833 8.5 -28.5 11.5s-24.5 4.5 -38.5 4.5c-27.333 0 -46.5 -6.33301 -57.5 -19
s-16.5 -36.334 -16.5 -71.001v-61h242v73c0 56.667 12.167 97.5 36.5 122.5s63.5 37.5 117.5 37.5c17.333 0 33 -1 47 -3s25.667 -4.66699 35 -8v-88c-8 4.66699 -18.333 8.66699 -31 12s-27 5 -43 5c-27.333 0 -46.5 -6.33301 -57.5 -19s-16.5 -36.334 -16.5 -71.001v-61
h148v-79h-148v-447h-88v447z" />
    <glyph glyph-name="fi" unicode="fi" horiz-adv-x="635" 
d="M466 447l-249 0.000976562v-447h-88v447h-94v79h94v73c0 56.667 12.167 97.5 36.5 122.5s63.5 37.5 117.5 37.5c31.333 0 56.333 -3.33301 75 -10v-88c-7.33301 4.66699 -16.833 8.5 -28.5 11.5s-24.5 4.5 -38.5 4.5c-27.333 0 -46.5 -6.33301 -57.5 -19
s-16.5 -36.334 -16.5 -71.001v-61h337v-526h-88v447zM510 632.001c-37.333 0 -56 18 -56 54s18.667 54 56 54c38 0 57 -18 57 -54s-19 -54 -57 -54z" />
    <glyph glyph-name="fl" unicode="fl" horiz-adv-x="685" 
d="M575 -6c-44.667 0 -77.333 10.6699 -98 32.0029s-31 54.666 -31 99.999v546l-74 3.5c-22 1 -44.667 1.5 -68 1.5c-32 0 -54.5 -6.5 -67.5 -19.5s-19.5 -36.167 -19.5 -69.5v-62h114v-79h-114v-447h-88v447h-94v79h94v73c0 54 13 94.167 39 120.5s68.667 39.5 128 39.5
c14.667 0 28.834 -0.166992 42.501 -0.5s28.167 -0.833008 43.5 -1.5s31.666 -1.33398 48.999 -2.00098s37 -1.33398 59 -2.00098h44v-610c0 -26 4.33301 -43.5 13 -52.5s23.334 -13.5 44.001 -13.5c11.333 0 22.666 1.66699 33.999 5s19.666 6.33301 24.999 9v-82
c-5.33301 -2 -14.666 -5 -27.999 -9s-29 -6 -47 -6z" />
    <glyph glyph-name="f_f_i" unicode="ffi" horiz-adv-x="955" 
d="M456 447l-239 0.00195312v-447h-88v447h-94v79h94v73c0 56.667 12.167 97.5 36.5 122.5s63.5 37.5 117.5 37.5c31.333 0 56.333 -3.33301 75 -10v-88c-7.33301 4.66699 -16.833 8.5 -28.5 11.5s-24.5 4.5 -38.5 4.5c-27.333 0 -46.5 -6.33301 -57.5 -19
s-16.5 -36.334 -16.5 -71.001v-61h239v73c0 56.667 12 97.5 36 122.5s63.333 37.5 118 37.5c31.333 0 56.333 -3.33301 75 -10v-88c-7.33301 4.66699 -17 8.5 -29 11.5s-25 4.5 -39 4.5c-26.667 0 -45.5 -6.33301 -56.5 -19s-16.5 -36.334 -16.5 -71.001v-61h330v-526h-88
v447h-242v-447h-88v447zM830 632.002c-37.333 0 -56 18 -56 54s18.667 54 56 54c38 0 57 -18 57 -54s-19 -54 -57 -54z" />
    <glyph glyph-name="f_f_l" unicode="ffl" horiz-adv-x="1015" 
d="M456 447l-239 0.00390625v-447h-88v447h-94v79h94v73c0 56.667 12.167 97.5 36.5 122.5s63.5 37.5 117.5 37.5c31.333 0 56.333 -3.33301 75 -10v-88c-7.33301 4.66699 -16.833 8.5 -28.5 11.5s-24.5 4.5 -38.5 4.5c-27.333 0 -46.5 -6.33301 -57.5 -19
s-16.5 -36.334 -16.5 -71.001v-61h239v73c0 54 13 94.167 39 120.5s68.667 39.5 128 39.5c14 0 28.167 -0.166992 42.5 -0.5s29.333 -0.833008 45 -1.5s32.334 -1.33398 50.001 -2.00098s37.5 -1.33398 59.5 -2.00098h44v-610c0 -26 4.33301 -43.5 13 -52.5
s23.334 -13.5 44.001 -13.5c11.333 0 22.666 1.66699 33.999 5s19.666 6.33301 24.999 9v-82c-5.33301 -2 -14.666 -5 -27.999 -9s-29 -6 -47 -6c-44.667 0 -77.334 10.667 -98.001 32s-31 54.666 -31 99.999v546l-76 3.5c-22.667 1 -46 1.5 -70 1.5
c-32 0 -54.333 -6.5 -67 -19.5s-19 -36.167 -19 -69.5v-62h117v-79h-117v-447h-88v447z" />
    <glyph glyph-name=".notdef" horiz-adv-x="500" 
d="M442 8v496h-384v-496h384zM50 512h400v-512h-400v512z" />
    <glyph glyph-name=".null" horiz-adv-x="0" 
 />
    <glyph glyph-name=".null" horiz-adv-x="0" 
 />
    <glyph glyph-name="uni000D" unicode="&#xd;" horiz-adv-x="250" 
 />
    <glyph glyph-name="space" unicode=" " horiz-adv-x="250" 
 />
    <glyph glyph-name="exclam" unicode="!" horiz-adv-x="330" 
d="M165 -6c-42.667 0 -64 21.333 -64 64s21.333 64 64 64s64 -21.333 64 -64s-21.333 -64 -64 -64zM118 700h94l-5 -471h-84z" />
    <glyph glyph-name="quotedbl" unicode="&#x22;" horiz-adv-x="470" 
d="M93 700h78v-280h-78v280zM299 700h78v-280h-78v280z" />
    <glyph glyph-name="numbersign" unicode="#" horiz-adv-x="600" 
d="M339 195h-133l-34 -195h-80l34 195h-101l14 74h100l29 162h-101l13 74h101l34 195h80l-34 -195h133l34 195h80l-34 -195h101l-13 -74h-101l-29 -162h101l-13 -74h-101l-34 -195h-80zM219 269h133l29 162h-133z" />
    <glyph glyph-name="dollar" unicode="$" horiz-adv-x="600" 
d="M268 -10c-38 2 -72.5029 7.83984 -103.503 17.5068s-56.167 21.167 -75.5 34.5v106c10 -8.66699 21.833 -17.334 35.5 -26.001s29 -16.5 46 -23.5s35.333 -12.667 55 -17s40.5 -6.5 62.5 -6.5c50.667 0 86.834 9.5 108.501 28.5s32.5 46.167 32.5 81.5
c0 29.333 -8.33301 52.5 -25 69.5s-37.667 31 -63 42s-52.666 21.167 -81.999 30.5s-56.666 21.666 -81.999 36.999s-46.333 35.166 -63 59.499s-25 57.166 -25 98.499c0 54 14.167 96.833 42.5 128.5s73.833 50.834 136.5 57.501v92h74v-90c32 -1.33301 61 -5 87 -11
s47.667 -13.667 65 -23v-106c-19.333 16.667 -44.666 30 -75.999 40s-63.333 15 -96 15c-26 0 -47.833 -2 -65.5 -6s-31.834 -10.167 -42.501 -18.5s-18.167 -18.833 -22.5 -31.5s-6.5 -27.334 -6.5 -44.001c0 -28.667 8.33301 -50.834 25 -66.501s37.667 -28.667 63 -39
s52.5 -20 81.5 -29s56.167 -21.167 81.5 -36.5s46.333 -36 63 -62s25 -60.667 25 -104c0 -56.667 -14.667 -101.834 -44 -135.501s-75.333 -53.834 -138 -60.501v-112h-74v110z" />
    <glyph glyph-name="percent" unicode="%" horiz-adv-x="860" 
d="M625 700h75l-465 -700h-75zM233 374c-52 0 -92.167 14.333 -120.5 43s-42.5 69.667 -42.5 123c0 52.667 14.333 93.5 43 122.5s68.667 43.5 120 43.5c52 0 92.333 -14.333 121 -43s43 -69.667 43 -123c0 -52.667 -14.333 -93.5 -43 -122.5s-69 -43.5 -121 -43.5zM233 438
c30.667 0 54 8.16699 70 24.5s24 42.166 24 77.499s-8 61.166 -24 77.499s-39.333 24.5 -70 24.5s-53.834 -8.16699 -69.501 -24.5s-23.5 -42.166 -23.5 -77.499s7.83301 -61.166 23.5 -77.499s38.834 -24.5 69.501 -24.5zM627 -6c-52 0 -92.333 14.333 -121 43
s-43 69.667 -43 123c0 52.667 14.333 93.5 43 122.5s69 43.5 121 43.5s92.167 -14.333 120.5 -43s42.5 -69.667 42.5 -123c0 -52.667 -14.333 -93.5 -43 -122.5s-68.667 -43.5 -120 -43.5zM627 58c30 0 53 8.16699 69 24.5s24 42.166 24 77.499s-8 61.166 -24 77.499
s-39 24.5 -69 24.5c-31.333 0 -54.833 -8.16699 -70.5 -24.5s-23.5 -42.166 -23.5 -77.499s7.83301 -61.166 23.5 -77.499s39.167 -24.5 70.5 -24.5z" />
    <glyph glyph-name="ampersand" unicode="&#x26;" horiz-adv-x="800" 
d="M304 -11c-75.333 0 -132.835 17.666 -172.502 52.999s-59.5 86.666 -59.5 153.999c0 48.667 12.833 90.5 38.5 125.5s63.5 64.5 113.5 88.5c-15.333 28 -27 55 -35 81s-12 50 -12 72c0 46.667 13.5 83 40.5 109s68.5 39 124.5 39c51.333 0 90.333 -12 117 -36
s40 -58 40 -102c0 -24.667 -4.33301 -46.5 -13 -65.5s-20.667 -36 -36 -51s-33.666 -28.333 -54.999 -40s-44.666 -22.5 -69.999 -32.5c24.667 -38.667 53.5 -76 86.5 -112s69.167 -69 108.5 -99c30.667 39.333 54.5 86 71.5 140s26.833 110.667 29.5 170h83
c-3.33301 -62.667 -15 -124.667 -35 -186s-48.333 -115.666 -85 -162.999c47.333 -28.667 92 -47 134 -55v-90c-32 5.33301 -64.167 15.333 -96.5 30s-63.833 33.334 -94.5 56.001c-31.333 -28 -65.833 -49.333 -103.5 -64s-77.5 -22 -119.5 -22zM311.998 67.999
c28 0 54.667 4.5 80 13.5s49 22.833 71 41.5c-41.333 33.333 -79.333 69.5 -114 108.5s-64.667 79.167 -90 120.5c-32 -15.333 -57 -34.5 -75 -57.5s-27 -52.167 -27 -87.5c0 -43.333 12.167 -77.333 36.5 -102s63.833 -37 118.5 -37zM336.998 638.999
c-25.333 0 -45.5 -6.33301 -60.5 -19s-22.5 -33.667 -22.5 -63c0 -16.667 3.33301 -35 10 -55s16 -40.667 28 -62c20 8 37.833 16 53.5 24s29 16.833 40 26.5s19.5 20.334 25.5 32.001s9 25.5 9 41.5c0 23.333 -6.33301 41.666 -19 54.999s-34 20 -64 20z" />
    <glyph glyph-name="quotesingle" unicode="'" horiz-adv-x="270" 
d="M93 700h84v-280h-84v280z" />
    <glyph glyph-name="parenleft" unicode="(" horiz-adv-x="380" 
d="M88 287c0 54.667 5.33301 105.001 16 151.001s25 88.5 43 127.5s39 74.833 63 107.5s49.333 63 76 91l53 -43c-20.667 -26.667 -40.667 -54.667 -60 -84s-36.5 -61.5 -51.5 -96.5s-27 -73.5 -36 -115.5s-13.5 -88.333 -13.5 -139s4.5 -96.834 13.5 -138.501
s21 -80 36 -115s32.167 -67.167 51.5 -96.5s39.333 -57.333 60 -84l-53 -43c-26.667 28 -52 58.333 -76 91s-45 68.5 -63 107.5s-32.333 81.667 -43 128s-16 96.833 -16 151.5z" />
    <glyph glyph-name="parenright" unicode=")" horiz-adv-x="380" 
d="M292 287c0 -54.667 -5.33301 -105.168 -16 -151.501s-25 -89 -43 -128s-39 -74.833 -63 -107.5s-49.333 -63 -76 -91l-53 43c20.667 26.667 40.667 54.667 60 84s36.5 61.5 51.5 96.5s27 73.333 36 115s13.5 88.167 13.5 139.5c0 50.667 -4.5 96.834 -13.5 138.501
s-21 80 -36 115s-32.167 67.167 -51.5 96.5s-39.333 57.333 -60 84l53 43c26.667 -28 52 -58.333 76 -91s45 -68.5 63 -107.5s32.333 -81.5 43 -127.5s16 -96.333 16 -151z" />
    <glyph glyph-name="asterisk" unicode="*" horiz-adv-x="500" 
d="M110 380l97 116l-140 37l22 77l135 -62l-13 152h78l-13 -152l134 62l23 -77l-140 -38l97 -115l-64 -45l-77 128l-76 -128z" />
    <glyph glyph-name="plus" unicode="+" horiz-adv-x="600" 
d="M95 399h165v164h80v-164h165v-81h-165v-164h-80v164h-165v81z" />
    <glyph glyph-name="comma" unicode="," horiz-adv-x="320" 
d="M66 -110c29.333 10 52.1689 24.833 68.502 44.5s25.5 39.5 27.5 59.5c-44 0 -66 21.333 -66 64s21.333 64 64 64c24.667 0 42.5 -7.33301 53.5 -22s16.5 -37 16.5 -67c0 -23.333 -3.33301 -45.333 -10 -66s-15.834 -39.5 -27.501 -56.5s-25.334 -31.833 -41.001 -44.5
s-32.5 -22.667 -50.5 -30z" />
    <glyph glyph-name="hyphen" unicode="-" horiz-adv-x="400" 
d="M45 315h310v-80h-310v80z" />
    <glyph glyph-name="period" unicode="." horiz-adv-x="320" 
d="M160 -6c-42.667 0 -64 21.333 -64 64s21.333 64 64 64s64 -21.333 64 -64s-21.333 -64 -64 -64z" />
    <glyph glyph-name="slash" unicode="/" horiz-adv-x="400" 
d="M306 753h84l-296 -933h-84z" />
    <glyph glyph-name="zero" unicode="0" horiz-adv-x="600" 
d="M300 -11c-37.333 0 -70.501 6 -99.501 18s-53.5 32 -73.5 60s-35.333 65 -46 111s-16 103.333 -16 172s5.33301 126.167 16 172.5s26 83.5 46 111.5s44.5 47.833 73.5 59.5s62.167 17.5 99.5 17.5c38.667 0 72.834 -5.5 102.501 -16.5s54.167 -30.333 73.5 -58
s34 -64.667 44 -111s15 -104.833 15 -175.5c0 -70 -5.16699 -128.167 -15.5 -174.5s-25.333 -83.333 -45 -111s-44.167 -47.167 -73.5 -58.5s-63 -17 -101 -17zM299.999 75c23.333 0 43.665 3.66895 60.998 11.002s31.833 21 43.5 41s20.334 47.833 26.001 83.5
s8.5 82.167 8.5 139.5s-2.83301 103.833 -8.5 139.5s-14.334 63.5 -26.001 83.5s-26.167 33.667 -43.5 41s-37.666 11 -60.999 11s-43.666 -3.66699 -60.999 -11s-31.666 -21.166 -42.999 -41.499s-20 -48.333 -26 -84s-9 -81.834 -9 -138.501
c0 -55.333 3.16699 -100.833 9.5 -136.5s15.5 -63.834 27.5 -84.501s26.667 -34.834 44 -42.501s36.666 -11.5 57.999 -11.5z" />
    <glyph glyph-name="one" unicode="1" horiz-adv-x="600" 
d="M116 80h191v514l-191 -123v89l218 140h65v-620h135v-80h-418v80z" />
    <glyph glyph-name="two" unicode="2" horiz-adv-x="600" 
d="M68 64l156.998 143.501c44 39 80.5 73.667 109.5 104s50.5 59 64.5 86s21 57.167 21 90.5c0 47.333 -12.167 82 -36.5 104s-62.166 33 -113.499 33c-36 0 -69.667 -6.5 -101 -19.5s-59.333 -29.167 -84 -48.5v108c27.333 14 58.333 25.167 93 33.5s70.667 12.5 108 12.5
c80.667 0 138.834 -17.667 174.501 -53s53.5 -86 53.5 -152c0 -38.667 -6.16699 -73.334 -18.5 -104.001s-31.333 -61.667 -57 -93s-58.167 -64.833 -97.5 -100.5l-140 -125.5h321v-83h-454v64z" />
    <glyph glyph-name="three" unicode="3" horiz-adv-x="600" 
d="M186 397l72.999 0.00195312c52.667 0 91.334 10.5 116.001 31.5s37 50.833 37 89.5c0 37.333 -10.5 64.666 -31.5 81.999s-57.833 26 -110.5 26c-42 0 -79.167 -6.16699 -111.5 -18.5s-58.833 -25.166 -79.5 -38.499v98c24.667 12 56 22.167 94 30.5
s77.333 12.5 118 12.5c40 0 73.833 -3.83301 101.5 -11.5s49.834 -18.834 66.501 -33.501s28.667 -33 36 -55s11 -47 11 -75c0 -48 -11.5 -85.333 -34.5 -112s-56.833 -45.667 -101.5 -57c106.667 -10.667 160 -67.667 160 -171c0 -68 -20 -119.333 -60 -154
s-102 -52 -186 -52c-42 0 -82.333 4.16699 -121 12.5s-69.667 18.833 -93 31.5v108c22 -16.667 50.333 -31.667 85 -45s74 -20 118 -20c32.667 0 59.5 3 80.5 9s37.5 14.5 49.5 25.5s20.333 24.5 25 40.5s7 33.667 7 53c0 37.333 -12.833 65.666 -38.5 84.999
s-69.834 29 -132.501 29h-78v79z" />
    <glyph glyph-name="four" unicode="4" horiz-adv-x="600" 
d="M363 181h-326v58l307 461h112v-436h92v-83h-92v-181h-93v181zM363 264v333l-220 -333h220z" />
    <glyph glyph-name="five" unicode="5" horiz-adv-x="600" 
d="M119 700h381.003v-83h-310l-15 -188c12 2 29 3.5 51 4.5s45.667 1.5 71 1.5c81.333 0 139.666 -17.667 174.999 -53s53 -87 53 -155c0 -36.667 -4.5 -69.667 -13.5 -99s-23.5 -54.333 -43.5 -75s-46.5 -36.5 -79.5 -47.5s-73.5 -16.5 -121.5 -16.5c-32 0 -64.333 3 -97 9
s-61 14 -85 24v100c22 -15.333 49 -27.333 81 -36s63.667 -13 95 -13c61.333 0 105.166 12.333 131.499 37s39.5 62 39.5 112c0 24 -2.83301 44.5 -8.5 61.5s-15.334 30.833 -29.001 41.5s-31.5 18.5 -53.5 23.5s-49 7.5 -81 7.5s-62.833 -1.33301 -92.5 -4
s-54.167 -5.66699 -73.5 -9z" />
    <glyph glyph-name="six" unicode="6" horiz-adv-x="600" 
d="M313 -11c-90 0 -154.333 27.832 -193 83.499s-58 138.834 -58 249.501c0 136 25.333 234.833 76 296.5s124.667 92.5 222 92.5c26.667 0 51.5 -2 74.5 -6s43.5 -9.66699 61.5 -17v-99c-15.333 10 -34 18.667 -56 26s-51 11 -87 11c-30 0 -57.833 -4.83301 -83.5 -14.5
s-47.667 -25.334 -66 -47.001s-32.833 -49.5 -43.5 -83.5s-16 -75 -16 -123c0 -3.33301 0.166992 -7.5 0.5 -12.5s0.5 -10.5 0.5 -16.5c17.333 39.333 42 69.5 74 90.5s73 31.5 123 31.5c68 0 118.833 -19.167 152.5 -57.5s50.5 -91.166 50.5 -158.499
c0 -42.667 -5.83301 -79.5 -17.5 -110.5s-28 -56.5 -49 -76.5s-45.667 -34.833 -74 -44.5s-58.833 -14.5 -91.5 -14.5zM314 70.999c40.667 0 74.001 12.332 100.001 36.999s39 63.667 39 117c0 54 -11.333 92.5 -34 115.5s-57 34.5 -103 34.5c-25.333 0 -47 -3.5 -65 -10.5
s-33.333 -16.333 -46 -28s-22.667 -24.667 -30 -39s-12.333 -28.833 -15 -43.5c0.666992 -57.333 13.667 -102.166 39 -134.499s63.666 -48.5 114.999 -48.5z" />
    <glyph glyph-name="seven" unicode="7" horiz-adv-x="600" 
d="M425 617h-365v83h470v-60l-274 -640h-99z" />
    <glyph glyph-name="eight" unicode="8" horiz-adv-x="600" 
d="M302 -11c-84 0 -145.168 17.832 -183.501 53.499s-57.5 85.5 -57.5 149.5c0 21.333 2 41.5 6 60.5s11 36.167 21 51.5s23.833 28.833 41.5 40.5s40.167 20.5 67.5 26.5c-45.333 10 -76.666 28.167 -93.999 54.5s-26 61.5 -26 105.5c0 55.333 17.833 99.166 53.5 131.499
s92.5 48.5 170.5 48.5c77.333 0 133 -14.5 167 -43.5s51 -69.833 51 -122.5c0 -22 -1.66699 -42.167 -5 -60.5s-9.33301 -34.666 -18 -48.999s-20.5 -26.833 -35.5 -37.5s-34.5 -19 -58.5 -25c26.667 -5.33301 48.834 -13 66.501 -23s31.667 -22.5 42 -37.5
s17.666 -32.333 21.999 -52s6.5 -41.5 6.5 -65.5c0 -30 -4.5 -57.667 -13.5 -83s-23.167 -47.166 -42.5 -65.499s-43.833 -32.5 -73.5 -42.5s-65.5 -15 -107.5 -15zM302.999 69.999c48 0 83.5 11.333 106.5 34s34.5 55.667 34.5 99c0 89.333 -47.333 133 -142 131
c-27.333 -0.666992 -50.333 -4.16699 -69 -10.5s-33.667 -15.166 -45 -26.499s-19.5 -24.833 -24.5 -40.5s-7.5 -32.834 -7.5 -51.501c0 -90 49 -135 147 -135zM302.999 398.999c24.667 0.666992 45 4.00195 61 10.002s28.667 14.333 38 25s15.833 23.167 19.5 37.5
s5.5 30.166 5.5 47.499c0 39.333 -9.66699 67.666 -29 84.999s-52 26 -98 26c-48 0 -81.667 -10.167 -101 -30.5s-29 -48.5 -29 -84.5s10.333 -64.667 31 -86s54.667 -31.333 102 -30z" />
    <glyph glyph-name="nine" unicode="9" horiz-adv-x="600" 
d="M243 -11c-27.333 0 -52.332 2.33301 -74.999 7s-43 10.667 -61 18v99c15.333 -10.667 34 -19.834 56 -27.501s51 -11.5 87 -11.5c30 0 57.833 4.83301 83.5 14.5s47.667 25.334 66 47.001s32.833 49.5 43.5 83.5s16 75 16 123v15.5c0 5 -0.333008 9.83301 -1 14.5
c-16.667 -38.667 -40.834 -68.667 -72.501 -90s-72.5 -32 -122.5 -32c-68.667 0 -119.834 19.167 -153.501 57.5s-50.5 90.833 -50.5 157.5c0 42.667 5.83301 79.5 17.5 110.5s27.834 56.5 48.501 76.5s45 34.833 73 44.5s58.667 14.5 92 14.5c46 0 84.833 -7 116.5 -21
s57.5 -35 77.5 -63s34.5 -63 43.5 -105s13.5 -91.333 13.5 -148c0 -133.333 -25.5 -230.833 -76.5 -292.5s-124.833 -92.5 -221.5 -92.5zM288.001 326c25.333 0 47.3311 3.5 65.998 10.5s34.334 16.333 47.001 28s22.5 25.167 29.5 40.5s11.5 31.333 13.5 48
c-1.33301 55.333 -14.166 98.5 -38.499 129.5s-63.166 46.5 -116.499 46.5c-40.667 0 -74 -12.333 -100 -37s-39 -63.667 -39 -117c0 -52.667 11.667 -90.667 35 -114s57.666 -35 102.999 -35z" />
    <glyph glyph-name="colon" unicode=":" horiz-adv-x="330" 
d="M165 -6c-42.667 0 -64 21.333 -64 64s21.333 64 64 64s64 -21.333 64 -64s-21.333 -64 -64 -64zM165 384c-42.667 0 -64 21.333 -64 64s21.333 64 64 64s64 -21.333 64 -64s-21.333 -64 -64 -64z" />
    <glyph glyph-name="semicolon" unicode=";" horiz-adv-x="330" 
d="M71 -110c29.333 10 52.1689 24.833 68.502 44.5s25.5 39.5 27.5 59.5c-44 0 -66 21.333 -66 64s21.333 64 64 64c24.667 0 42.5 -7.33301 53.5 -22s16.5 -37 16.5 -67c0 -23.333 -3.33301 -45.333 -10 -66s-15.834 -39.5 -27.501 -56.5s-25.334 -31.833 -41.001 -44.5
s-32.5 -22.667 -50.5 -30zM165.003 384c-42.667 0 -64 21.333 -64 64s21.333 64 64 64s64 -21.333 64 -64s-21.333 -64 -64 -64z" />
    <glyph glyph-name="less" unicode="&#x3c;" horiz-adv-x="600" 
d="M95 318v78l410 199v-91l-310 -145l310 -145v-96z" />
    <glyph glyph-name="equal" unicode="=" horiz-adv-x="600" 
d="M95 294h410v-80h-410v80zM95 500h410v-80h-410v80z" />
    <glyph glyph-name="greater" unicode="&#x3e;" horiz-adv-x="600" 
d="M505 396v-78l-410 -200v92l310 145l-310 145v95z" />
    <glyph glyph-name="question" unicode="?" horiz-adv-x="480" 
d="M195 -6c-42.667 0 -64 21.333 -64 64s21.333 64 64 64s64 -21.333 64 -64s-21.333 -64 -64 -64zM152 219c0 30.667 4.49902 55.999 13.499 75.999s20.5 37.333 34.5 52s28.833 27.5 44.5 38.5s30.5 22.667 44.5 35s25.5 26.5 34.5 42.5s13.5 36 13.5 60
c0 32.667 -10.167 58.167 -30.5 76.5s-53.5 27.5 -99.5 27.5c-33.333 0 -62.666 -4.5 -87.999 -13.5s-48.333 -20.167 -69 -33.5v98c24 11.333 50 19.666 78 24.999s56.667 8 86 8c76 0 131 -15.333 165 -46s51 -75.334 51 -134.001
c0 -32.667 -4.83301 -59.834 -14.5 -81.501s-21.5 -40.167 -35.5 -55.5s-29.5 -28.666 -46.5 -39.999s-32.5 -23.166 -46.5 -35.499s-25.833 -26.166 -35.5 -41.499s-14.5 -34.666 -14.5 -57.999h-85z" />
    <glyph glyph-name="at" unicode="@" horiz-adv-x="900" 
d="M466 -131c-66 0 -123.834 9.99414 -173.501 29.9941s-91.167 48.167 -124.5 84.5s-58.333 80 -75 131s-25 107.5 -25 169.5c0 60.667 8.5 116.834 25.5 168.501s42 96.167 75 133.5s74 66.5 123 87.5s105.5 31.5 169.5 31.5c58 0 109.833 -8.5 155.5 -25.5
s84.5 -41.667 116.5 -74s56.5 -71.666 73.5 -117.999s25.5 -98.5 25.5 -156.5c0 -46 -4.5 -85.833 -13.5 -119.5s-21.167 -61.5 -36.5 -83.5s-33.666 -38.333 -54.999 -49s-44.333 -16 -69 -16c-34 0 -59.167 7.5 -75.5 22.5s-26.5 40.5 -30.5 76.5
c-8 -32 -23 -56.5 -45 -73.5s-52 -25.5 -90 -25.5c-57.333 0 -98.166 18.333 -122.499 55s-36.5 93.334 -36.5 170.001c0 78.667 15.333 136 46 172s71.667 54 123 54c19.333 0 35.833 -2.16699 49.5 -6.5s25.167 -10.166 34.5 -17.499s16.833 -15.833 22.5 -25.5
s10.167 -20.167 13.5 -31.5l8 72h63v-309c0 -24 3.5 -41.667 10.5 -53s19.5 -17 37.5 -17c13.333 0 26.333 3.5 39 10.5s24 18.333 34 34s18 36.334 24 62.001s9 57.5 9 95.5c0 100 -26.333 178 -79 234s-130.667 84 -234 84c-54.667 0 -102.5 -8.33301 -143.5 -25
s-75.333 -40.667 -103 -72s-48.334 -69.333 -62.001 -114s-20.5 -95.334 -20.5 -152.001c0 -53.333 6.66699 -101.666 20 -144.999s33.833 -80.666 61.5 -111.999s62.5 -55.5 104.5 -72.5s91.667 -25.5 149 -25.5c32 0 63.667 3.83301 95 11.5s57 18.167 77 31.5v-68
c-21.333 -9.33301 -47 -17.333 -77 -24s-61.333 -10 -94 -10zM435.999 127.994c36 0 62.333 11.665 79 34.998s25 58.333 25 105v52c0 46 -8.33301 79 -25 99s-41 30 -73 30c-35.333 0 -62 -11.667 -80 -35s-27 -64.666 -27 -123.999
c0 -55.333 6.83301 -96.166 20.5 -122.499s40.5 -39.5 80.5 -39.5z" />
    <glyph glyph-name="A" unicode="A" horiz-adv-x="640" 
d="M270 700h100l250 -700h-99l-63 185h-281l-63 -185h-94zM205 265h225l-112 331z" />
    <glyph glyph-name="B" unicode="B" horiz-adv-x="625" 
d="M308 -6c-23.333 0 -47.3379 0.5 -72.0049 1.5s-47 2.16699 -67 3.5l-68 6v690c22 1.33301 44.667 3 68 5c20 1.33301 42 2.66602 66 3.99902s47.333 2 70 2c46.667 0 85.334 -3.66699 116.001 -11s55.334 -18.5 74.001 -33.5s31.834 -34 39.501 -57
s11.5 -50.5 11.5 -82.5c0 -84 -38.667 -136.667 -116 -158c92.667 -12 139 -67 139 -165c0 -34 -4.66699 -63.667 -14 -89s-24.166 -46.666 -44.499 -63.999s-47.166 -30.333 -80.499 -39s-74 -13 -122 -13zM473.995 202c0 40 -11.167 69.668 -33.5 89.001
s-61.833 29 -118.5 29h-129v-238c10.667 -0.666992 22.334 -1.33398 35.001 -2.00098c11.333 -0.666992 24.333 -1.16699 39 -1.5s30.667 -0.5 48 -0.5c30.667 0 56.167 2.33301 76.5 7s36.666 12 48.999 22s21 22.833 26 38.5s7.5 34.5 7.5 56.5zM449.995 513.001
c0 20 -2.16797 36.832 -6.50098 50.499s-11.833 24.834 -22.5 33.501s-25.167 15 -43.5 19s-41.5 6 -69.5 6c-16 0 -31 -0.166992 -45 -0.5s-26.333 -0.833008 -37 -1.5c-12 -0.666992 -23 -1 -33 -1v-222h119c50.667 0 86.334 9.5 107.001 28.5s31 48.167 31 87.5z" />
    <glyph glyph-name="C" unicode="C" horiz-adv-x="575" 
d="M358 -11c-51.333 0 -96.1689 6.66602 -134.502 19.999s-70.333 34.666 -96 63.999s-45 67.166 -58 113.499s-19.5 102.5 -19.5 168.5c0 62 6.66699 115.5 20 160.5s32.833 82 58.5 111s57.5 50.333 95.5 64s81.667 20.5 131 20.5c24.667 0 47 -1.5 67 -4.5
s37.667 -6.16699 53 -9.5c17.333 -4 33 -8.66699 47 -14v-96c-19.333 11.333 -42.666 20.5 -69.999 27.5s-59.333 10.5 -96 10.5c-34 0 -64.167 -4.83301 -90.5 -14.5s-48.333 -25.167 -66 -46.5s-31 -49.166 -40 -83.499s-13.5 -76.166 -13.5 -125.499
c0 -51.333 4.66699 -94.666 14 -129.999s23 -64.166 41 -86.499s40.333 -38.5 67 -48.5s57.334 -15 92.001 -15c38 0 71.5 5.33301 100.5 16s52.167 21 69.5 31v-97c-14.667 -6.66699 -31 -12.667 -49 -18c-15.333 -4.66699 -33.5 -8.83398 -54.5 -12.501
s-43.833 -5.5 -68.5 -5.5z" />
    <glyph glyph-name="D" unicode="D" horiz-adv-x="680" 
d="M290 -6c-22.667 0 -45.167 0.501953 -67.5 1.50195s-42.5 2.16699 -60.5 3.5c-21.333 2 -41.666 4 -60.999 6v690c19.333 1.33301 39.666 3 60.999 5c18 1.33301 38.5 2.66602 61.5 3.99902s46.167 2 69.5 2c60 0 111.333 -6.33301 154 -19s77.5 -32.834 104.5 -60.501
s46.833 -63.667 59.5 -108s19 -97.833 19 -160.5c0 -126.667 -28 -219 -84 -277s-141.333 -87 -256 -87zM534 358.002c0 50 -4.16699 91.6689 -12.5 125.002s-21.833 60 -40.5 80s-43.334 34.333 -74.001 43s-68 13 -112 13c-14.667 0 -28.167 -0.333008 -40.5 -1
s-23.166 -1.33398 -32.499 -2.00098c-10.667 -0.666992 -20.334 -1.33398 -29.001 -2.00098v-528c8 -1.33301 17.333 -2.33301 28 -3c9.33301 -0.666992 19.833 -1.16699 31.5 -1.5s24.834 -0.5 39.501 -0.5c42 0 78.167 4.83301 108.5 14.5s55.5 25.5 75.5 47.5
s34.667 50.667 44 86s14 78.333 14 129z" />
    <glyph glyph-name="E" unicode="E" horiz-adv-x="575" 
d="M101 700h419v-83h-327v-218h287v-81h-287v-235h327v-83h-419v700z" />
    <glyph glyph-name="F" unicode="F" horiz-adv-x="545" 
d="M101 701h399v-84h-307v-238h277v-84h-277v-295h-92v701z" />
    <glyph glyph-name="G" unicode="G" horiz-adv-x="650" 
d="M377 -11c-55.333 0 -103.499 6.83594 -144.499 20.5029s-75 35.167 -102 64.5s-47.167 67.166 -60.5 113.499s-20 102.166 -20 167.499c0 122.667 27.667 212.667 83 270s136.666 86 243.999 86c25.333 0 48 -1.5 68 -4.5s37 -6.16699 51 -9.5
c16.667 -4 31.334 -8.66699 44.001 -14v-96c-18.667 9.33301 -42 18 -70 26s-59 12 -93 12c-77.333 0 -135.166 -20.833 -173.499 -62.5s-57.5 -110.834 -57.5 -207.501c0 -51.333 4.66699 -94.833 14 -130.5s23.5 -64.5 42.5 -86.5s43 -38 72 -48s63.167 -15 102.5 -15
c21.333 0 41.666 1.5 60.999 4.5s36.666 7.16699 51.999 12.5v188h-133v80h223v-327c-18.667 -9.33301 -45.667 -19 -81 -29s-76 -15 -122 -15z" />
    <glyph glyph-name="H" unicode="H" horiz-adv-x="720" 
d="M101 700h92v-299h334v299h92v-700h-92v317h-334v-317h-92v700z" />
    <glyph glyph-name="I" unicode="I" horiz-adv-x="330" 
d="M119 700h92v-700h-92v700z" />
    <glyph glyph-name="J" unicode="J" horiz-adv-x="420" 
d="M140 -11c-16 0 -30.332 0.833008 -42.999 2.5s-23.667 3.83398 -33 6.50098c-10.667 2.66699 -20.334 5.66699 -29.001 9v97c7.33301 -6 15.666 -11 24.999 -15c8 -3.33301 18 -6.5 30 -9.5s25.667 -4.5 41 -4.5c30.667 0 53.334 8.16699 68.001 24.5
s22 44.166 22 83.499v517h93v-517c0 -70 -14 -119.833 -42 -149.5s-72 -44.5 -132 -44.5z" />
    <glyph glyph-name="K" unicode="K" horiz-adv-x="655" 
d="M266 317h-73v-317h-92v700h92v-300h73l231 300h113l-266 -340l286 -360h-116z" />
    <glyph glyph-name="L" unicode="L" horiz-adv-x="530" 
d="M101 700h92v-617h307v-83h-399v700z" />
    <glyph glyph-name="M" unicode="M" horiz-adv-x="850" 
d="M101 700l115.001 0.000976562l211 -430l211 430h111v-700h-90v459v31c0 8.66699 0.166992 17.334 0.5 26.001l1 26c0.333008 8.66699 1.16602 19 2.49902 31h-3c-4 -12 -7.83301 -22.333 -11.5 -31l-11 -25.5c-3.66699 -8.33301 -7.83398 -17 -12.501 -26l-16 -31.5
l-145 -295h-78l-145 295l-15.5 31.5l-12 26l-11 25.5l-12.5 31h-3c0.666992 -12 1.33398 -22.333 2.00098 -31s1.16699 -17.334 1.5 -26.001s0.5 -17.334 0.5 -26.001v-31v-459h-90v700z" />
    <glyph glyph-name="N" unicode="N" horiz-adv-x="740" 
d="M101 700h103.001l286 -454l22.5 -39l18.5 -34l17 -33h2c-0.666992 10 -1.33398 21 -2.00098 33c-0.666992 10 -1 21.333 -1 34v39v454h92v-700h-103l-286 454c-9.33301 15.333 -17.5 29.333 -24.5 42l-18.5 33c-6 11.333 -11 21.666 -15 30.999h-2
c0 -9.33301 0.333008 -19.666 1 -30.999c0.666992 -9.33301 1.16699 -20.333 1.5 -33s0.5 -26.667 0.5 -42v-454h-92v700z" />
    <glyph glyph-name="O" unicode="O" horiz-adv-x="710" 
d="M355 -11c-49.333 0 -92.834 7.00293 -130.501 21.0029s-69.5 35.667 -95.5 65s-45.667 66.666 -59 111.999s-20 99.666 -20 162.999s6.66699 117.666 20 162.999s33 82.666 59 111.999s57.833 51 95.5 65s81.167 21 130.5 21c50.667 0 95 -6.66699 133 -20
s69.833 -34.5 95.5 -63.5s44.834 -66.333 57.501 -112s19 -100.834 19 -165.501c0 -63.333 -6.66699 -117.666 -20 -162.999s-33 -82.666 -59 -111.999s-58 -51 -96 -65s-81.333 -21 -130 -21zM354.999 73.0029c34 0 64 4.83301 90 14.5s47.833 25.5 65.5 47.5
s31 50.667 40 86s13.5 78.333 13.5 129s-4.5 93.667 -13.5 129s-22.333 64 -40 86s-39.5 37.833 -65.5 47.5s-56 14.5 -90 14.5c-33.333 0 -63 -5 -89 -15s-47.833 -26 -65.5 -48s-31.167 -50.5 -40.5 -85.5s-14 -77.833 -14 -128.5c0 -50 4.66699 -92.5 14 -127.5
s22.833 -63.667 40.5 -86s39.5 -38.5 65.5 -48.5s55.667 -15 89 -15z" />
    <glyph glyph-name="P" unicode="P" horiz-adv-x="620" 
d="M101 695c19.333 1.33301 40 3.00195 62 5.00195c18.667 1.33301 39.5 2.66602 62.5 3.99902s46.833 2 71.5 2c50 0 92.333 -4.66699 127 -14s62.834 -23.833 84.501 -43.5s37.334 -44.334 47.001 -74.001s14.5 -64.834 14.5 -105.501
c0 -81.333 -21.833 -142.666 -65.5 -183.999s-112.834 -62 -207.501 -62c-15.333 0 -29.333 0.166992 -42 0.5s-23.667 0.833008 -33 1.5c-10.667 0.666992 -20.334 1.66699 -29.001 3v-228h-92v695zM474 469.002c0 26.667 -2.83203 49.502 -8.49902 68.502
s-15.334 34.5 -29.001 46.5s-31.834 20.833 -54.501 26.5s-51 8.5 -85 8.5c-15.333 0 -29.333 -0.333008 -42 -1s-23.667 -1.33398 -33 -2.00098c-10.667 -0.666992 -20.334 -1.33398 -29.001 -2.00098v-299c8.66699 -1.33301 18.334 -2.33301 29.001 -3
c9.33301 -0.666992 20.333 -1.16699 33 -1.5s26.667 -0.5 42 -0.5c64.667 0 110.334 12.5 137.001 37.5s40 65.5 40 121.5z" />
    <glyph glyph-name="Q" unicode="Q" horiz-adv-x="710" 
d="M353 -11c-48.667 0 -91.832 7.00488 -129.499 21.0049s-69.334 35.667 -95.001 65s-45.167 66.666 -58.5 111.999s-20 99.666 -20 162.999s6.66699 117.666 20 162.999s33 82.666 59 111.999s57.833 51 95.5 65s81.167 21 130.5 21c50.667 0 95 -6.66699 133 -20
s69.833 -34.5 95.5 -63.5s44.834 -66.333 57.501 -112s19 -100.834 19 -165.501c0 -103.333 -17.333 -183 -52 -239s-85.334 -92.667 -152.001 -110l133 -161h-113zM355.002 73.0049c34 0 64 4.83301 90 14.5s47.833 25.5 65.5 47.5s31 50.667 40 86s13.5 78.333 13.5 129
s-4.5 93.667 -13.5 129s-22.333 64 -40 86s-39.5 37.833 -65.5 47.5s-56 14.5 -90 14.5c-33.333 0 -63 -5 -89 -15s-47.833 -26 -65.5 -48s-31.167 -50.5 -40.5 -85.5s-14 -77.833 -14 -128.5c0 -50 4.66699 -92.5 14 -127.5s22.833 -63.667 40.5 -86s39.5 -38.5 65.5 -48.5
s55.667 -15 89 -15z" />
    <glyph glyph-name="R" unicode="R" horiz-adv-x="640" 
d="M333 269c-6.66699 -0.666992 -13.168 -0.999023 -19.501 -0.999023h-20.5h-100v-268h-92v695c18 1.33301 37.333 3 58 5c17.333 1.33301 37.333 2.66602 60 3.99902s46.334 2 71.001 2c46.667 0 86.334 -4.33301 119.001 -13s59.167 -22 79.5 -40s35 -40.667 44 -68
s13.5 -59.333 13.5 -96c0 -52 -9.83301 -94.833 -29.5 -128.5s-50.834 -58.167 -93.501 -73.5l166 -287h-104zM449.999 486.001c0 24 -2.66797 44.332 -8.00098 60.999s-14 30.334 -26 41.001s-28 18.5 -48 23.5s-45 7.5 -75 7.5c-13.333 0 -26 -0.166992 -38 -0.5
s-22.667 -0.833008 -32 -1.5c-11.333 -0.666992 -21.666 -1 -30.999 -1v-264h101c56 0 96.167 11.167 120.5 33.5s36.5 55.833 36.5 100.5z" />
    <glyph glyph-name="S" unicode="S" horiz-adv-x="580" 
d="M282 -11c-42.667 0 -81.8369 5.17188 -117.504 15.5049s-64.167 22.833 -85.5 37.5v106c10 -8.66699 21.833 -17.334 35.5 -26.001s29 -16.5 46 -23.5s35.333 -12.667 55 -17s40.5 -6.5 62.5 -6.5c50.667 0 86.834 9.5 108.501 28.5s32.5 46.167 32.5 81.5
c0 29.333 -8.33301 52.5 -25 69.5s-37.667 31 -63 42s-52.666 21.167 -81.999 30.5s-56.666 21.666 -81.999 36.999s-46.333 35.166 -63 59.499s-25 57.166 -25 98.499c0 60.667 18 107.334 54 140.001s94.333 49 175 49c36.667 0 70.334 -3.33301 101.001 -10
s55.667 -15 75 -25v-106c-19.333 16.667 -44.666 30 -75.999 40s-63.333 15 -96 15c-26 0 -47.833 -2 -65.5 -6s-31.834 -10.167 -42.501 -18.5s-18.167 -18.833 -22.5 -31.5s-6.5 -27.334 -6.5 -44.001c0 -28.667 8.33301 -50.834 25 -66.501s37.667 -28.667 63 -39
s52.5 -20 81.5 -29s56.167 -21.167 81.5 -36.5s46.333 -36 63 -62s25 -60.667 25 -104c0 -63.333 -18.667 -112.333 -56 -147s-96 -52 -176 -52z" />
    <glyph glyph-name="T" unicode="T" horiz-adv-x="580" 
d="M244 617h-209v83h510v-83h-209v-617h-92v617z" />
    <glyph glyph-name="U" unicode="U" horiz-adv-x="670" 
d="M335 -11c-44 0 -81.999 5.16992 -113.999 15.5029s-58.5 26.666 -79.5 48.999s-36.5 51.333 -46.5 87s-15 78.834 -15 129.501v430h93v-426c0 -38 3 -69.667 9 -95s15.5 -45.833 28.5 -61.5s29.667 -26.667 50 -33s45.166 -9.5 74.499 -9.5s54.333 3.16699 75 9.5
s37.5 17.166 50.5 32.499s22.333 35.666 28 60.999s8.5 57.333 8.5 96v426h93v-430c0 -50 -5.16699 -92.833 -15.5 -128.5s-26 -64.834 -47 -87.501s-47.5 -39.167 -79.5 -49.5s-69.667 -15.5 -113 -15.5z" />
    <glyph glyph-name="V" unicode="V" horiz-adv-x="620" 
d="M20 700h101l196 -589l187 589h96l-230 -700h-110z" />
    <glyph glyph-name="W" unicode="W" horiz-adv-x="900" 
d="M30 700l97.9971 -0.000976562l102 -456c2.66699 -12 4.83398 -22.5 6.50098 -31.5s3.16699 -17.667 4.5 -26s2.83301 -16.833 4.5 -25.5s3.5 -19 5.5 -31h3c2 12 4 22.333 6 31s3.83301 17.167 5.5 25.5s3.5 17 5.5 26s4.66699 19.5 8 31.5l119 456h104l122 -456
c3.33301 -12 6 -22.5 8 -31.5l6 -26c2 -8.33301 3.83301 -16.833 5.5 -25.5s3.83398 -19 6.50098 -31h2l5 31c1.33301 8.66699 2.83301 17.334 4.5 26.001l5 26c1.66699 8.66699 3.83398 19 6.50098 31l102 456h95l-158 -700h-110l-125 469c-4 14 -7.66699 27.833 -11 41.5
l-9 36.5c-2.66699 12 -5 24 -7 36h-3c-2 -12 -4.33301 -24 -7 -36l-9 -36.5l-10 -41.5l-123 -469h-110z" />
    <glyph glyph-name="X" unicode="X" horiz-adv-x="630" 
d="M257 359l-218 341h107l170 -266l170 266h105l-218 -339l232 -361h-109l-182 285l-183 -285h-106z" />
    <glyph glyph-name="Y" unicode="Y" horiz-adv-x="610" 
d="M264 271l-244 429h106l185 -332l178 332h101l-234 -429v-271h-92v271z" />
    <glyph glyph-name="Z" unicode="Z" horiz-adv-x="590" 
d="M50 61l361 556h-351v83h470v-61l-361 -556h371v-83h-490v61z" />
    <glyph glyph-name="bracketleft" unicode="[" horiz-adv-x="380" 
d="M108 753h231v-77h-147v-779h147v-77h-231v933z" />
    <glyph glyph-name="backslash" unicode="\" horiz-adv-x="400" 
d="M10 753h88l292 -933h-88z" />
    <glyph glyph-name="bracketright" unicode="]" horiz-adv-x="380" 
d="M41 -103h147v779h-147v77h231v-933h-231v77z" />
    <glyph glyph-name="asciicircum" unicode="^" horiz-adv-x="600" 
d="M259 700h82l184 -343h-82l-144 274l-144 -274h-80z" />
    <glyph glyph-name="underscore" unicode="_" horiz-adv-x="420" 
d="M0 -112h420v-68h-420v68z" />
    <glyph glyph-name="grave" unicode="`" horiz-adv-x="300" 
d="M51 756h118l80 -139h-75z" />
    <glyph glyph-name="a" unicode="a" horiz-adv-x="535" 
d="M215 -11c-54 0 -94.835 13.666 -122.502 40.999s-41.5 66.333 -41.5 117c0 26.667 3.5 49.834 10.5 69.501s18.833 36.167 35.5 49.5s38.334 23.333 65.001 30s59.667 10 99 10h110v47c0 37.333 -8.66699 63.833 -26 79.5s-49.333 23.5 -96 23.5
c-31.333 0 -60.666 -4.33301 -87.999 -13s-50.333 -19.334 -69 -32.001v92c19.333 9.33301 44 17.333 74 24s61.667 10 95 10c36 0 66.667 -3.5 92 -10.5s45.833 -18 61.5 -33s27 -34.167 34 -57.5s10.5 -51.666 10.5 -84.999v-351h-79l-5 90c-12 -28 -31 -51.833 -57 -71.5
s-60.333 -29.5 -103 -29.5zM237.998 66.999c41.333 0 73.833 12.168 97.5 36.501s35.5 59.166 35.5 104.499v36h-104c-48 0 -81 -7.5 -99 -22.5s-27 -38.5 -27 -70.5c0 -28 7.66699 -49 23 -63s40 -21 74 -21z" />
    <glyph glyph-name="b" unicode="b" horiz-adv-x="590" 
d="M331 -11c-23.333 0 -43.832 2.66504 -61.499 7.99805s-33 12.5 -46 21.5s-23.833 19.5 -32.5 31.5s-16 24.333 -22 37l-6 -87h-82v753h88v-312c7.33301 13.333 16 25.833 26 37.5s21.833 21.834 35.5 30.501s29.667 15.5 48 20.5s39.5 7.5 63.5 7.5
c32.667 0 61.334 -4.83301 86.001 -14.5s45.167 -25.167 61.5 -46.5s28.666 -49 36.999 -83s12.5 -75.667 12.5 -125c0 -50.667 -4.33301 -93.667 -13 -129s-21.834 -64.166 -39.501 -86.499s-39.5 -38.5 -65.5 -48.5s-56 -15 -90 -15zM309.001 69.998
c23.333 0 43.832 3.16895 61.499 9.50195s32.334 17.166 44.001 32.499s20.334 35.666 26.001 60.999s8.5 57 8.5 95c0 35.333 -2.83301 65 -8.5 89s-14.167 43.333 -25.5 58s-25.5 25.167 -42.5 31.5s-36.833 9.5 -59.5 9.5c-46.667 0 -82.334 -13.167 -107.001 -39.5
s-37 -66.5 -37 -120.5v-66c0 -52 12.667 -91.667 38 -119s59.333 -41 102 -41z" />
    <glyph glyph-name="c" unicode="c" horiz-adv-x="475" 
d="M300 -11c-42 0 -78.667 5.16895 -110 15.502s-57.166 26.833 -77.499 49.5s-35.666 51.667 -45.999 87s-15.5 77.666 -15.5 126.999c0 92.667 20.667 160.667 62 204s101.333 65 180 65c36 0 65.667 -3.16699 89 -9.5s39.666 -11.5 48.999 -15.5v-95
c-15.333 10.667 -34 19.834 -56 27.501s-47 11.5 -75 11.5c-52 0 -91.5 -14.667 -118.5 -44s-40.5 -77.333 -40.5 -144c0 -70.667 14 -121.334 42 -152.001s70.333 -46 127 -46c24.667 0 49 4.16699 73 12.5s43 18.166 57 29.499v-91
c-9.33301 -5.33301 -25.833 -12 -49.5 -20s-53.834 -12 -90.501 -12z" />
    <glyph glyph-name="d" unicode="d" horiz-adv-x="590" 
d="M421 89c-6 -13.333 -13.501 -25.999 -22.501 -37.999s-20.167 -22.5 -33.5 -31.5s-29 -16.333 -47 -22s-38.667 -8.5 -62 -8.5c-34 0 -63.833 5 -89.5 15s-47 26 -64 48s-29.833 50.667 -38.5 86s-13 78.666 -13 129.999c0 94 17.333 162.333 52 205
s84.334 64 149.001 64c44 0 80.333 -8.83301 109 -26.5s48.667 -41.5 60 -71.5v314h88v-753h-82zM140.999 268.001c0 -37.333 3.00098 -68.667 9.00098 -94s14.833 -45.666 26.5 -60.999s26.167 -26.333 43.5 -33s37.666 -10 60.999 -10c42.667 0 76.667 13.667 102 41
s38 67.666 38 120.999v67c0 48 -11.5 86.167 -34.5 114.5s-59.5 42.5 -109.5 42.5c-45.333 0 -79.333 -14 -102 -42s-34 -76.667 -34 -146z" />
    <glyph glyph-name="e" unicode="e" horiz-adv-x="550" 
d="M297 -11c-84.667 0 -146.831 22.167 -186.498 66.5s-59.5 114.5 -59.5 210.5c0 92.667 20.333 161 61 205s96.667 66 168 66c76 0 131.5 -20.333 166.5 -61s52.5 -105.667 52.5 -195v-41h-360c1.33301 -59.333 15 -103 41 -131s67 -42 123 -42
c33.333 0 64.333 5.5 93 16.5s52 24.167 70 39.5v-88c-16.667 -11.333 -38.834 -21.833 -66.501 -31.5s-61.834 -14.5 -102.501 -14.5zM280.003 462c-45.333 0 -79.833 -12.335 -103.5 -37.002s-36.167 -65 -37.5 -121h272c0 24.667 -2.16699 46.834 -6.5 66.501
s-11.5 36.334 -21.5 50.001s-23.333 24 -40 31s-37.667 10.5 -63 10.5z" />
    <glyph glyph-name="f" unicode="f" horiz-adv-x="400" 
d="M129 447l-94 0.000976562v79h94v73c0 56.667 12.167 97.5 36.5 122.5s63.5 37.5 117.5 37.5c17.333 0 33 -1 47 -3s25.667 -4.66699 35 -8v-88c-8 4.66699 -18.333 8.66699 -31 12s-27 5 -43 5c-27.333 0 -46.5 -6.33301 -57.5 -19s-16.5 -36.334 -16.5 -71.001v-61h148
v-79h-148v-447h-88v447z" />
    <glyph glyph-name="g" unicode="g" horiz-adv-x="590" 
d="M272 -191c-40 0 -75.501 3.66895 -106.501 11.002s-55.5 15.666 -73.5 24.999v102c6.66699 -6 15.834 -12.5 27.501 -19.5s25.167 -13.167 40.5 -18.5s32.166 -9.83301 50.499 -13.5s38.166 -5.5 59.499 -5.5c54 0 92.667 11.333 116 34s35 57.667 35 105v76
c-6 -13.333 -13.5 -26 -22.5 -38s-20.167 -22.5 -33.5 -31.5s-29 -16.333 -47 -22s-38.667 -8.5 -62 -8.5c-68 0 -119.167 20.667 -153.5 62s-51.5 109.666 -51.5 204.999c0 92 17.333 159.167 52 201.5s84.334 63.5 149.001 63.5c44 0 80.333 -8.83301 109 -26.5
s48.667 -41.5 60 -71.5l6 87h82v-491c0 -78.667 -19.167 -136 -57.5 -172s-98.166 -54 -179.499 -54zM280.999 86.002c42.667 0 76.668 13.998 102.001 41.998s38 67.667 38 119v57c0 22.667 -2.83301 43.334 -8.5 62.001s-14.5 34.667 -26.5 48s-27 23.666 -45 30.999
s-39.333 11 -64 11c-45.333 0 -79.333 -13.667 -102 -41s-34 -73.666 -34 -138.999c0 -35.333 3 -65.166 9 -89.499s14.833 -44 26.5 -59s26.167 -25.667 43.5 -32s37.666 -9.5 60.999 -9.5z" />
    <glyph glyph-name="h" unicode="h" horiz-adv-x="585" 
d="M81 753h88.001v-316c14.667 32 35 56.667 61 74s60 26 102 26c59.333 0 103.666 -15.333 132.999 -46s44 -81.334 44 -152.001v-339h-88v308c0 28 -2.16699 51.5 -6.5 70.5s-11.333 34.333 -21 46s-22 19.834 -37 24.501s-33.167 7 -54.5 7
c-42 0 -74.667 -12.333 -98 -37s-35 -61.667 -35 -111v-308h-88v753z" />
    <glyph glyph-name="i" unicode="i" horiz-adv-x="290" 
d="M101 526h88v-526h-88v526zM145 632c-37.333 0 -56 18 -56 54s18.667 54 56 54s56 -18 56 -54s-18.667 -54 -56 -54z" />
    <glyph glyph-name="j" unicode="j" horiz-adv-x="290" 
d="M53 -186c-17.333 0 -32.8311 1.33203 -46.498 3.99902s-22.834 5.33398 -27.501 8.00098v88c7.33301 -5.33301 16.166 -9.66602 26.499 -12.999s21.833 -5 34.5 -5c21.333 0 36.833 5.66699 46.5 17s14.5 32.333 14.5 63v550h88v-553
c0 -56.667 -11.333 -97.334 -34 -122.001s-56.667 -37 -102 -37zM145.002 631.999c-37.333 0 -56 18 -56 54s18.667 54 56 54s56 -18 56 -54s-18.667 -54 -56 -54z" />
    <glyph glyph-name="k" unicode="k" horiz-adv-x="555" 
d="M81 753h88v-440h60l167 213h103l-199 -251l219 -275h-106l-184 234h-60v-234h-88v753z" />
    <glyph glyph-name="l" unicode="l" horiz-adv-x="315" 
d="M205 -6c-44.667 0 -77.333 10.668 -98 32.001s-31 54.666 -31 99.999v627h88v-610c0 -26 4.33301 -43.5 13 -52.5s23.334 -13.5 44.001 -13.5c11.333 0 22.666 1.66699 33.999 5s19.666 6.33301 24.999 9v-82c-5.33301 -2 -14.666 -5 -27.999 -9s-29 -6 -47 -6z" />
    <glyph glyph-name="m" unicode="m" horiz-adv-x="835" 
d="M81 526l81.998 -0.000976562l6 -87c13.333 32.667 31.833 57.167 55.5 73.5s53.834 24.5 90.501 24.5c40 0 71.333 -9.5 94 -28.5s37.334 -45.5 44.001 -79.5c14.667 40.667 34.834 68.834 60.501 84.501s57.5 23.5 95.5 23.5c46 0 82.5 -15 109.5 -45
s40.5 -77.333 40.5 -142v-350h-88v323c0 48.667 -8.5 83 -25.5 103s-41.5 30 -73.5 30c-32.667 0 -58.834 -10.833 -78.501 -32.5s-29.5 -55.167 -29.5 -100.5v-323h-88v323c0 48.667 -8.33301 83 -25 103s-40.667 30 -72 30c-34 0 -60.833 -10.833 -80.5 -32.5
s-29.5 -55.167 -29.5 -100.5v-323h-88v526z" />
    <glyph glyph-name="n" unicode="n" horiz-adv-x="585" 
d="M81 526l82.001 0.000976562l6 -89c14.667 32 35 56.667 61 74s60 26 102 26c59.333 0 103.666 -15.333 132.999 -46s44 -81.334 44 -152.001v-339h-88v310c0 28 -2.16699 51.333 -6.5 70s-11.333 33.667 -21 45s-22 19.333 -37 24s-33.167 7 -54.5 7
c-42 0 -74.667 -12.333 -98 -37s-35 -61 -35 -109v-310h-88v526z" />
    <glyph glyph-name="o" unicode="o" horiz-adv-x="570" 
d="M285 -11c-76.667 0 -134.833 21.667 -174.5 65s-59.5 113 -59.5 209c0 93.333 20.667 162.333 62 207s98.666 67 171.999 67c78 0 136.5 -21.167 175.5 -63.5s58.5 -112.5 58.5 -210.5c0 -96 -20.167 -165.667 -60.5 -209s-98.166 -65 -173.499 -65zM285.001 70
c24 0 45 3.33301 63 10s33 17.5 45 32.5s21 34.833 27 59.5s9 55 9 91s-3 66.333 -9 91s-15 44.5 -27 59.5s-27 25.833 -45 32.5s-39 10 -63 10c-46 0 -81.5 -14.5 -106.5 -43.5s-37.5 -78.833 -37.5 -149.5c0 -36 3 -66.333 9 -91s15 -44.5 27 -59.5s27 -25.833 45 -32.5
s39 -10 63 -10z" />
    <glyph glyph-name="p" unicode="p" horiz-adv-x="590" 
d="M81 526l82.001 -0.00195312l6 -85c7.33301 13.333 16 25.833 26 37.5s21.833 21.834 35.5 30.501s29.667 15.5 48 20.5s39.5 7.5 63.5 7.5c32.667 0 61.334 -4.83301 86.001 -14.5s45.167 -25.167 61.5 -46.5s28.666 -49 36.999 -83s12.5 -75.667 12.5 -125
c0 -50.667 -4.33301 -93.667 -13 -129s-21.834 -64.166 -39.501 -86.499s-39.5 -38.5 -65.5 -48.5s-56 -15 -90 -15c-23.333 0 -43.833 2.66699 -61.5 8s-33 12.5 -46 21.5s-23.833 19.5 -32.5 31.5s-16 24.333 -22 37v-267h-88v706zM449.001 267.998
c0 35.333 -2.83105 65.002 -8.49805 89.002s-14.167 43.333 -25.5 58s-25.5 25.167 -42.5 31.5s-36.833 9.5 -59.5 9.5c-46.667 0 -82.334 -13.167 -107.001 -39.5s-37 -66.5 -37 -120.5v-66c0 -52 12.667 -91.667 38 -119s59.666 -41 102.999 -41
c23.333 0 43.666 3.16699 60.999 9.5s31.833 17.166 43.5 32.499s20.334 35.666 26.001 60.999s8.5 57 8.5 95z" />
    <glyph glyph-name="q" unicode="q" horiz-adv-x="590" 
d="M421 89c-6 -13.333 -13.501 -25.999 -22.501 -37.999s-20.167 -22.5 -33.5 -31.5s-29 -16.333 -47 -22s-38.667 -8.5 -62 -8.5c-34 0 -63.833 5 -89.5 15s-47 26 -64 48s-29.833 50.667 -38.5 86s-13 78.666 -13 129.999c0 94 17.333 162.333 52 205
s84.334 64 149.001 64c44 0 80.333 -8.83301 109 -26.5s48.667 -41.5 60 -71.5l6 87h82v-706h-88v269zM140.999 268.001c0 -37.333 3.00098 -68.667 9.00098 -94s14.833 -45.666 26.5 -60.999s26.167 -26.333 43.5 -33s37.666 -10 60.999 -10c42.667 0 76.667 13.667 102 41
s38 67.666 38 120.999v67c0 48 -11.5 86.167 -34.5 114.5s-59.5 42.5 -109.5 42.5c-45.333 0 -79.333 -14 -102 -42s-34 -76.667 -34 -146z" />
    <glyph glyph-name="r" unicode="r" horiz-adv-x="410" 
d="M81 526h77l6 -90c12.667 36 31.167 61.833 55.5 77.5s53.5 23.5 87.5 23.5c11.333 0 21.833 -0.833008 31.5 -2.5s16.5 -3.16699 20.5 -4.5v-95c-8.66699 6 -19 11 -31 15s-26.667 6 -44 6c-36 0 -64.167 -11.833 -84.5 -35.5s-30.5 -62.5 -30.5 -116.5v-304h-88v526z
" />
    <glyph glyph-name="s" unicode="s" horiz-adv-x="475" 
d="M227 -11c-57.333 0 -109.335 10.332 -156.002 30.999v98c19.333 -16.667 42.166 -29.334 68.499 -38.001s54.833 -13 85.5 -13c36 0 61.5 6.66699 76.5 20s22.5 32.666 22.5 57.999c0 21.333 -6.33301 37.5 -19 48.5s-28.667 19.833 -48 26.5s-40 12.834 -62 18.501
s-42.667 13.834 -62 24.501s-35.333 25.167 -48 43.5s-19 43.833 -19 76.5c0 50.667 14.333 89 43 115s76.334 39 143.001 39c26.667 0 52.334 -2.5 77.001 -7.5s44.667 -10.5 60 -16.5v-95c-19.333 13.333 -40.166 23.5 -62.499 30.5s-46.833 10.5 -73.5 10.5
c-36 0 -61.167 -6 -75.5 -18s-21.5 -29 -21.5 -51c0 -20 6.33301 -35.167 19 -45.5s28.667 -18.666 48 -24.999s40 -12.333 62 -18s42.667 -14 62 -25s35.333 -26.167 48 -45.5s19 -46 19 -80c0 -54 -14.667 -94.5 -44 -121.5s-77 -40.5 -143 -40.5z" />
    <glyph glyph-name="t" unicode="t" horiz-adv-x="435" 
d="M277 -6c-52 0 -89.667 12.668 -113 38.001s-35 66.666 -35 123.999v291h-94v79h94v105l88 30v-135h168v-79h-168v-284c0 -32 5.66699 -54.5 17 -67.5s30 -19.5 56 -19.5c20.667 0 38.667 3 54 9s29 13.333 41 22v-88c-9.33301 -6.66699 -23.833 -12.5 -43.5 -17.5
s-41.167 -7.5 -64.5 -7.5z" />
    <glyph glyph-name="u" unicode="u" horiz-adv-x="580" 
d="M249 -11c-56.667 0 -99.6641 15.332 -128.997 45.999s-44 81.334 -44 152.001v339h88v-310c0 -28 2.16699 -51.333 6.5 -70s11.166 -33.667 20.499 -45s21.333 -19.333 36 -24s32 -7 52 -7c41.333 0 73.666 12.333 96.999 37s35 61 35 109v310h88v-526h-82l-6 89
c-14.667 -30 -34.834 -54.167 -60.501 -72.5s-59.5 -27.5 -101.5 -27.5z" />
    <glyph glyph-name="v" unicode="v" horiz-adv-x="520" 
d="M20 526h96l146 -422l146 422h92l-191 -526h-98z" />
    <glyph glyph-name="w" unicode="w" horiz-adv-x="760" 
d="M36 526h91.0029l79 -335l11 -55l5 -25h2l5 25c1.33301 7.33301 3.16602 15.833 5.49902 25.5s4.83301 19.5 7.5 29.5l94 335h92l95 -335c2.66699 -10 5.16699 -19.833 7.5 -29.5s4.16602 -18.167 5.49902 -25.5l5 -25h2l4 25
c1.33301 7.33301 2.66602 15.833 3.99902 25.5s3.33301 19.5 6 29.5l79 335h88l-124 -526h-104l-96 339c-6 20 -10.667 38.333 -14 55l-5 25h-2c-1.33301 -8 -3.33301 -16.333 -6 -25c-2 -7.33301 -4.16699 -15.833 -6.5 -25.5s-4.83301 -19.5 -7.5 -29.5l-95 -339h-104z
" />
    <glyph glyph-name="x" unicode="x" horiz-adv-x="540" 
d="M214 272l-165 254h100l122 -188l123 188h97l-165 -252l178 -274h-100l-135 210l-136 -210h-97z" />
    <glyph glyph-name="y" unicode="y" horiz-adv-x="520" 
d="M161 -191c-13.333 0 -25.667 1.33301 -37 4s-18.666 5 -21.999 7v86c6 -4.66699 13 -8.5 21 -11.5s17.667 -4.5 29 -4.5c8 0 15.333 1.16699 22 3.5s13.167 7.5 19.5 15.5s12.666 19.167 18.999 33.5s13.166 33.5 20.499 57.5l-213 526h96l159 -409l133 409h92l-180 -529
c-14 -41.333 -27 -74.333 -39 -99s-24.167 -43.5 -36.5 -56.5s-25.166 -21.667 -38.499 -26s-28.333 -6.5 -45 -6.5z" />
    <glyph glyph-name="z" unicode="z" horiz-adv-x="490" 
d="M45 55l279 392h-269v79h383v-55l-278 -392h285v-79h-400v55z" />
    <glyph glyph-name="braceleft" unicode="{" horiz-adv-x="380" 
d="M275 -180c-29.333 0 -54 4.16895 -74 12.502s-36 19.666 -48 33.999s-20.5 31.166 -25.5 50.499s-7.5 40 -7.5 62v171c0 32 -6.5 56.667 -19.5 74s-32.167 26.666 -57.5 27.999v69c25.333 1.33301 44.5 11 57.5 29s19.5 42.667 19.5 74v174c0 22 2.5 42.333 7.5 61
s13.5 35 25.5 49s28 25 48 33s44.667 12 74 12h64v-77h-52c-32 0 -53.667 -8.33301 -65 -25s-17 -39 -17 -67v-161c0 -18 -1 -34.333 -3 -49s-6 -27.667 -12 -39s-14.5 -21 -25.5 -29s-25.167 -14.333 -42.5 -19c17.333 -4 31.5 -10.167 42.5 -18.5s19.5 -18.5 25.5 -30.5
s10 -25.667 12 -41s3 -31.666 3 -48.999v-155c0 -28 5.66699 -51 17 -69s33 -27 65 -27h52v-77h-64z" />
    <glyph glyph-name="bar" unicode="|" horiz-adv-x="300" 
d="M108 753h84v-933h-84v933z" />
    <glyph glyph-name="braceright" unicode="}" horiz-adv-x="380" 
d="M41 -103l52 -0.000976562c32 0 53.667 8.33301 65 25s17 39 17 67v161c0 18 1 34.333 3 49s6 27.667 12 39s14.5 21 25.5 29s25.167 14.667 42.5 20c-17.333 4 -31.5 10 -42.5 18s-19.5 18 -25.5 30s-10 25.667 -12 41s-3 32 -3 50v158c0 28 -5.66699 50.333 -17 67
s-33 25 -65 25h-52v77h64c29.333 0 54 -4 74 -12s36 -19 48 -33s20.5 -30.333 25.5 -49s7.5 -39 7.5 -61v-175c0 -32 6.5 -56.667 19.5 -74s32.167 -26.666 57.5 -27.999v-69c-25.333 -1.33301 -44.5 -11 -57.5 -29s-19.5 -42.667 -19.5 -74v-174
c0 -22 -2.5 -42.333 -7.5 -61s-13.5 -35 -25.5 -49s-28 -25 -48 -33s-44.667 -12 -74 -12h-64v77z" />
    <glyph glyph-name="asciitilde" unicode="~" horiz-adv-x="600" 
d="M95 389c12.667 14.667 27.167 26.5 43.5 35.5s36.166 13.5 59.499 13.5c22 0 42 -4 60 -12s34.833 -16.667 50.5 -26s31 -18 46 -26s30.833 -12 47.5 -12c22.667 0 42.5 6 59.5 18s31.5 24.667 43.5 38v-87c-12.667 -14.667 -27.167 -26.5 -43.5 -35.5
s-36.166 -13.5 -59.499 -13.5c-22 0 -42 4 -60 12s-34.833 16.667 -50.5 26s-31 18 -46 26s-30.833 12 -47.5 12c-22.667 0 -42.5 -6 -59.5 -18s-31.5 -24.667 -43.5 -38v87z" />
    <glyph glyph-name="uni00A0" unicode="&#xa0;" horiz-adv-x="250" 
 />
    <glyph glyph-name="exclamdown" unicode="&#xa1;" horiz-adv-x="330" 
d="M165 532c42.667 0 64 -21.333 64 -64s-21.333 -64 -64 -64s-64 21.333 -64 64s21.333 64 64 64zM212 -180h-94l5 476h84z" />
    <glyph glyph-name="cent" unicode="&#xa2;" horiz-adv-x="600" 
d="M304 -6c-66 9.33301 -114.667 35.835 -146 79.502s-47 108.5 -47 194.5c0 80.667 16 142.667 48 186s80.333 69.666 145 78.999v93h79v-90c36.667 -1.33301 65 -5.33301 85 -12s34.333 -12 43 -16v-94c-15.333 10.667 -34 20.334 -56 29.001s-50.333 13 -85 13
c-57.333 0 -99.833 -14.667 -127.5 -44s-41.5 -77.333 -41.5 -144c0 -70.667 14.5 -121.334 43.5 -152.001s74.167 -46 135.5 -46c31.333 0 59 4.83301 83 14.5s43 20.167 57 31.5v-92l-18 -10c-7.33301 -4 -16.5 -7.66699 -27.5 -11s-24 -6.33301 -39 -9
s-32.5 -4.33398 -52.5 -5.00098v-109h-79v114z" />
    <glyph glyph-name="sterling" unicode="&#xa3;" horiz-adv-x="600" 
d="M47 81h109.998v242h-110v71h110v84c0 23.333 3 48.5 9 75.5s17.167 52.167 33.5 75.5s39.5 42.833 69.5 58.5s69 23.5 117 23.5c32 0 60.333 -2.83301 85 -8.5s45.334 -11.167 62.001 -16.5v-85c-19.333 7.33301 -39.666 14 -60.999 20s-47.333 9 -78 9
c-26 0 -48 -4 -66 -12s-32.833 -19 -44.5 -33s-20.167 -30.667 -25.5 -50s-8 -40.333 -8 -63v-78h183v-71h-183v-242h283v-81h-486v81z" />
    <glyph glyph-name="currency" unicode="&#xa4;" horiz-adv-x="600" 
d="M423 181c-17.333 -12.667 -36.498 -22.498 -57.498 -29.498s-43.167 -10.5 -66.5 -10.5c-48 0 -89.333 13.333 -124 40l-65 -65l-44 45l64 64c-12.667 17.333 -22.5 36.666 -29.5 57.999s-10.5 43.666 -10.5 66.999s3.5 45.5 10.5 66.5s16.833 40.167 29.5 57.5l-64 65
l45 45l64 -65c17.333 13.333 36.5 23.5 57.5 30.5s43.167 10.5 66.5 10.5s45.666 -3.5 66.999 -10.5s40.666 -17.167 57.999 -30.5l66 66l44 -44l-66 -67c12.667 -17.333 22.667 -36.5 30 -57.5s11 -43.167 11 -66.5s-3.5 -45.5 -10.5 -66.5s-17.167 -40.167 -30.5 -57.5
l66 -65l-45 -45zM299.002 214.002c18.667 0 36.334 3.5 53.001 10.5s31.167 16.667 43.5 29s22 26.833 29 43.5s10.5 34.334 10.5 53.001s-3.5 36.334 -10.5 53.001s-16.667 31.167 -29 43.5s-26.833 22 -43.5 29s-34.334 10.5 -53.001 10.5s-36.167 -3.5 -52.5 -10.5
s-30.666 -16.667 -42.999 -29s-22 -26.833 -29 -43.5s-10.5 -34.334 -10.5 -53.001s3.5 -36.334 10.5 -53.001s16.667 -31.167 29 -43.5s26.666 -22 42.999 -29s33.833 -10.5 52.5 -10.5z" />
    <glyph glyph-name="yen" unicode="&#xa5;" horiz-adv-x="600" 
d="M86 337h133l-199 363h106l180 -338l173 338h101l-191 -363h135v-72h-173v-66h173v-72h-173v-127h-92v127h-173v72h173v66h-173v72z" />
    <glyph glyph-name="brokenbar" unicode="&#xa6;" horiz-adv-x="300" 
d="M108 212h84v-392h-84v392zM108 753h84v-391h-84v391z" />
    <glyph glyph-name="section" unicode="&#xa7;" horiz-adv-x="530" 
d="M240 -111c-26 0 -53.168 2.3291 -81.501 6.99609s-54.166 11.667 -77.499 21v83c27.333 -13.333 52.833 -22.666 76.5 -27.999s48.167 -8 73.5 -8c23.333 0 42.666 1.66699 57.999 5s27.5 8 36.5 14s15.333 13.167 19 21.5s5.5 17.833 5.5 28.5
c0 22 -10.5 40.667 -31.5 56s-50.167 31.333 -87.5 48c-24.667 10.667 -47.5 21.334 -68.5 32.001s-39 22.5 -54 35.5s-26.667 28 -35 45s-12.5 37.167 -12.5 60.5c0 28 8.33301 53.5 25 76.5s39.334 44.167 68.001 63.5c-22.667 14 -39.667 30 -51 48s-17 39.333 -17 64
c0 47.333 17.5 84 52.5 110s84.5 39 148.5 39c32 0 60.5 -2.83301 85.5 -8.5s45.167 -11.167 60.5 -16.5v-81c-28 11.333 -53 19.333 -75 24s-44.667 7 -68 7c-32.667 0 -59 -5.16699 -79 -15.5s-30 -28.5 -30 -54.5c0 -10 1.66699 -19 5 -27s9 -15.667 17 -23
s18.5 -14.666 31.5 -21.999s29.167 -15.666 48.5 -24.999l63 -29c22 -10 42 -21.667 60 -35s33 -28.833 45 -46.5s18 -38.834 18 -63.501c0 -26 -8.16699 -51.5 -24.5 -76.5s-37.833 -47.833 -64.5 -68.5c20 -14.667 35.833 -30.667 47.5 -48s17.5 -38.666 17.5 -63.999
c0 -52 -18.667 -89.833 -56 -113.5s-87 -35.5 -149 -35.5zM320.999 180.996c14.667 13.333 28.167 28.168 40.5 44.501s18.5 35.166 18.5 56.499c0 22 -7.16699 40.667 -21.5 56s-36.833 30.666 -67.5 45.999c-2.66699 0.666992 -7.5 2.66699 -14.5 6l-22 10
c-7.66699 3.33301 -15.167 6.83301 -22.5 10.5l-17 8.5c-20 -14 -35.833 -28.833 -47.5 -44.5s-17.5 -32.5 -17.5 -50.5c0 -24 6.83301 -43.5 20.5 -58.5s37.834 -30.833 72.501 -47.5c3.33301 -2 8.66602 -4.66699 15.999 -8l23.5 -11l23 -11
c7 -3.33301 12.167 -5.66602 15.5 -6.99902z" />
    <glyph glyph-name="dieresis" unicode="&#xa8;" horiz-adv-x="410" 
d="M110 634c-36.667 0 -55 17.333 -55 52c0 35.333 18.333 53 55 53s55 -17.667 55 -53c0 -34.667 -18.333 -52 -55 -52zM300 634c-36.667 0 -55 17.333 -55 52c0 35.333 18.333 53 55 53s55 -17.667 55 -53c0 -34.667 -18.333 -52 -55 -52z" />
    <glyph glyph-name="copyright" unicode="&#xa9;" horiz-adv-x="830" 
d="M429 153c-66 0 -114 17.833 -144 53.5s-45 83.834 -45 144.501c0 66 16.167 115.5 48.5 148.5s79.5 49.5 141.5 49.5c18 0 34.167 -1.16699 48.5 -3.5s26.833 -5.16602 37.5 -8.49902v-57c-12 4.66699 -25 7.83398 -39 9.50098s-27 2.5 -39 2.5
c-86.667 0 -130 -46.667 -130 -140c0 -50.667 11.333 -86.834 34 -108.501s55 -32.5 97 -32.5c12 0 24.667 1.16699 38 3.5s26.333 6.16602 39 11.499v-58c-11.333 -4.66699 -24 -8.33398 -38 -11.001s-30.333 -4 -49 -4zM415 -11c-51.333 0 -98.833 9.16602 -142.5 27.499
s-81.834 43.833 -114.501 76.5s-58.167 70.834 -76.5 114.501s-27.5 91.167 -27.5 142.5c0 50.667 9.16699 98 27.5 142s43.833 82.333 76.5 115s70.834 58.167 114.501 76.5s91.167 27.5 142.5 27.5c50.667 0 98 -9.16699 142 -27.5s82.333 -43.833 115 -76.5
s58.167 -71 76.5 -115s27.5 -91.333 27.5 -142s-9.16699 -98 -27.5 -142s-43.833 -82.167 -76.5 -114.5s-71 -57.833 -115 -76.5s-91.333 -28 -142 -28zM415 48.999c42 0 81.333 7.66699 118 23s68.334 36.5 95.001 63.5s47.667 58.833 63 95.5s23 76.334 23 119.001
s-7.66699 82.334 -23 119.001s-36.333 68.5 -63 95.5s-58.334 48.167 -95.001 63.5s-76 23 -118 23s-81.333 -7.66699 -118 -23s-68.334 -36.5 -95.001 -63.5s-47.667 -58.833 -63 -95.5s-23 -76.334 -23 -119.001s7.66699 -82.334 23 -119.001s36.333 -68.5 63 -95.5
s58.334 -48.167 95.001 -63.5s76 -23 118 -23z" />
    <glyph glyph-name="ordfeminine" unicode="&#xaa;" horiz-adv-x="370" 
d="M150 374c-38 0 -65.834 8.16602 -83.501 24.499s-26.5 40.5 -26.5 72.5c0 32.667 10.333 57.834 31 75.501s56.334 26.5 107.001 26.5h73v16c0 20 -5.33301 34.833 -16 44.5s-31 14.5 -61 14.5c-18 0 -36.5 -2.5 -55.5 -7.5s-35.167 -10.833 -48.5 -17.5v64
c14 5.33301 30.667 9.83301 50 13.5s40.333 5.5 63 5.5c50.667 0 86.167 -9.83301 106.5 -29.5s30.5 -50.5 30.5 -92.5v-204h-60l-7 53c-8 -14 -20 -27.333 -36 -40s-38.333 -19 -67 -19zM172.999 429.999c23.333 0 42.167 7.16797 56.5 21.501s21.5 32.166 21.5 53.499v21
h-64c-29.333 0 -49.333 -4 -60 -12s-16 -20.667 -16 -38c0 -15.333 4.83301 -26.833 14.5 -34.5s25.5 -11.5 47.5 -11.5z" />
    <glyph glyph-name="guillemotleft" unicode="&#xab;" horiz-adv-x="550" 
d="M183 484h86l-131 -207l131 -209h-89l-129 207zM393 484h86l-131 -207l131 -209h-89l-129 207z" />
    <glyph glyph-name="logicalnot" unicode="&#xac;" horiz-adv-x="600" 
d="M95 399h410v-211h-81v130h-329v81z" />
    <glyph glyph-name="uni00AD" unicode="&#xad;" horiz-adv-x="400" 
d="M45 315h310v-80h-310v80z" />
    <glyph glyph-name="registered" unicode="&#xae;" horiz-adv-x="600" 
d="M50 517c0 36.667 6 70.167 18 100.5s29 56.333 51 78s48.333 38.5 79 50.5s64.667 18 102 18s71.333 -6 102 -18s57 -28.833 79 -50.5s39 -47.667 51 -78s18 -63.833 18 -100.5s-6 -70 -18 -100s-29 -55.833 -51 -77.5s-48.333 -38.5 -79 -50.5s-64.667 -18 -102 -18
s-71.333 6 -102 18s-57 28.833 -79 50.5s-39 47.5 -51 77.5s-18 63.333 -18 100zM96 518c0 -30 5 -57.5 15 -82.5s24 -46.333 42 -64s39.5 -31.5 64.5 -41.5s52.5 -15 82.5 -15s57.5 5 82.5 15s46.5 23.833 64.5 41.5s32 39 42 64s15 52.5 15 82.5s-5 57.5 -15 82.5
s-24 46.5 -42 64.5s-39.5 31.833 -64.5 41.5s-52.5 14.5 -82.5 14.5s-57.5 -4.83301 -82.5 -14.5s-46.5 -23.5 -64.5 -41.5s-32 -39.5 -42 -64.5s-15 -52.5 -15 -82.5zM203 659h105c10 0 20.5 -0.833008 31.5 -2.5s21.167 -5.5 30.5 -11.5s17 -14.5 23 -25.5
s9 -25.833 9 -44.5c0 -20 -4.83301 -36.667 -14.5 -50s-21.167 -22 -34.5 -26l68 -109h-59l-60 100h-46v-100h-53v269zM303 534c11.333 0 21.667 2.66602 31 7.99902s14 16 14 32c0 16.667 -4.33301 27.334 -13 32.001s-19.667 7 -33 7h-47v-79h48z" />
    <glyph glyph-name="macron" unicode="&#xaf;" horiz-adv-x="320" 
d="M31 709h258v-66h-258v66z" />
    <glyph glyph-name="degree" unicode="&#xb0;" horiz-adv-x="400" 
d="M201 389c-22.667 0 -43.834 4.16699 -63.501 12.5s-36.834 19.833 -51.501 34.5s-26.167 31.834 -34.5 51.501s-12.5 40.5 -12.5 62.5s4.16699 42.833 12.5 62.5s19.833 36.834 34.5 51.501s31.834 26.167 51.501 34.5s40.834 12.5 63.501 12.5
c22 0 42.667 -4.16699 62 -12.5s36.333 -19.833 51 -34.5s26.167 -31.834 34.5 -51.501s12.5 -40.5 12.5 -62.5s-4.16699 -42.833 -12.5 -62.5s-19.833 -36.834 -34.5 -51.501s-31.667 -26.167 -51 -34.5s-40 -12.5 -62 -12.5zM201 459c25.333 0 46.666 8.83301 63.999 26.5
s26 39.167 26 64.5s-8.66699 46.833 -26 64.5s-38.666 26.5 -63.999 26.5s-46.833 -8.83301 -64.5 -26.5s-26.5 -39.167 -26.5 -64.5s8.83301 -46.833 26.5 -64.5s39.167 -26.5 64.5 -26.5z" />
    <glyph glyph-name="plusminus" unicode="&#xb1;" horiz-adv-x="600" 
d="M95 475h165v165h80v-165h165v-80h-165v-148h-80v148h-165v80zM95 161h410v-81h-410v81z" />
    <glyph glyph-name="twosuperior" unicode="&#xb2;" 
d="M55 448l123 83.999c21.333 14.667 39.666 28 54.999 40s28 23.5 38 34.5s17.5 21.833 22.5 32.5s7.5 21.667 7.5 33c0 23.333 -8.33301 40.666 -25 51.999s-41 17 -73 17c-23.333 0 -46.333 -2.16699 -69 -6.5s-42.667 -11.166 -60 -20.499v68
c22.667 8.66699 45.334 14.834 68.001 18.501s46.667 5.5 72 5.5c52 0 92.667 -10 122 -30s44 -50 44 -90c0 -17.333 -3.16699 -33.833 -9.5 -49.5s-16 -31.167 -29 -46.5s-29.667 -30.833 -50 -46.5s-44.833 -32.5 -73.5 -50.5l-70 -47v-1h237v-65h-330v68z" />
    <glyph glyph-name="threesuperior" unicode="&#xb3;" 
d="M124 624l74.001 -0.00195312c32 0 56.5 4.66699 73.5 14s25.5 24.333 25.5 45c0 21.333 -8.33301 36.5 -25 45.5s-43 13.5 -79 13.5c-23.333 0 -46.833 -1.5 -70.5 -4.5s-43.834 -8.16699 -60.501 -15.5v64c21.333 8 45.833 13.333 73.5 16s54.167 4 79.5 4
c56 0 96.5 -10.167 121.5 -30.5s37.5 -46.166 37.5 -77.499c0 -28 -9.33301 -49.333 -28 -64s-44 -26 -76 -34v-2c22.667 -3.33301 41.334 -8.16602 56.001 -14.499s26.334 -14 35.001 -23s14.834 -18.667 18.501 -29s5.5 -20.833 5.5 -31.5
c0 -22 -4.83301 -40.833 -14.5 -56.5s-22.834 -28.667 -39.501 -39s-36.334 -18 -59.001 -23s-46.667 -7.5 -72 -7.5c-22 0 -45.833 1.16699 -71.5 3.5s-50.167 7.83301 -73.5 16.5v66c20.667 -8.66699 42.667 -14.5 66 -17.5s46.666 -4.5 69.999 -4.5
c42 0 71.667 6.16699 89 18.5s26 27.833 26 46.5c0 24 -8.5 41 -25.5 51s-42.5 15 -76.5 15h-80v55z" />
    <glyph glyph-name="acute" unicode="&#xb4;" horiz-adv-x="300" 
d="M133 756h116l-125 -139h-73z" />
    <glyph glyph-name="mu" unicode="&#xb5;" horiz-adv-x="585" 
d="M81 526h88.0029v-310c0 -28 2.16699 -51.333 6.5 -70s11.166 -33.667 20.499 -45s21.333 -19.333 36 -24s32 -7 52 -7c41.333 0 73.666 12.333 96.999 37s35 61 35 109v310h88v-526h-82l-6 89c-14.667 -30 -34.834 -54.167 -60.501 -72.5s-59.5 -27.5 -101.5 -27.5
c-34.667 0 -63 6 -85 18v-187h-88v706z" />
    <glyph glyph-name="mu" unicode="&#x3bc;" horiz-adv-x="585" 
d="M81 526h88.0029v-310c0 -28 2.16699 -51.333 6.5 -70s11.166 -33.667 20.499 -45s21.333 -19.333 36 -24s32 -7 52 -7c41.333 0 73.666 12.333 96.999 37s35 61 35 109v310h88v-526h-82l-6 89c-14.667 -30 -34.834 -54.167 -60.501 -72.5s-59.5 -27.5 -101.5 -27.5
c-34.667 0 -63 6 -85 18v-187h-88v706z" />
    <glyph glyph-name="paragraph" unicode="&#xb6;" horiz-adv-x="570" 
d="M219 367c-28 0 -52.5 4.16797 -73.5 12.501s-38.5 19.666 -52.5 33.999s-24.5 31.5 -31.5 51.5s-10.5 41.667 -10.5 65c0 36.667 6.83301 66.167 20.5 88.5s30.667 39.5 51 51.5s41.833 20 64.5 24s43 6 61 6h227v-880h-75v812h-106v-812h-75v547z" />
    <glyph glyph-name="periodcentered" unicode="&#xb7;" horiz-adv-x="320" 
d="M160 289c-42.667 0 -64 21.333 -64 64s21.333 64 64 64s64 -21.333 64 -64s-21.333 -64 -64 -64z" />
    <glyph glyph-name="cedilla" unicode="&#xb8;" horiz-adv-x="250" 
d="M107 -217c-17.333 0 -31.834 1.33203 -43.501 3.99902s-22.5 6.33398 -32.5 11.001l7 49c10 -4 19.5 -7 28.5 -9s19.5 -3 31.5 -3c33.333 0 50 13.333 50 40c0 13.333 -4.16699 23.5 -12.5 30.5s-22.166 10.5 -41.499 10.5c-5.33301 0 -11 -0.166992 -17 -0.5
s-11 -0.833008 -15 -1.5l18 93h53l-11 -51c64.667 0 97 -27 97 -81c0 -28 -9.5 -50.333 -28.5 -67s-46.833 -25 -83.5 -25z" />
    <glyph glyph-name="onesuperior" unicode="&#xb9;" 
d="M225 717l-121 -64l-30 58l167 89h61v-420h-77v337z" />
    <glyph glyph-name="ordmasculine" unicode="&#xba;" horiz-adv-x="370" 
d="M185 374c-54.667 0 -94.167 14.333 -118.5 43s-36.5 69.667 -36.5 123c0 52.667 12.333 93.5 37 122.5s64 43.5 118 43.5c54.667 0 94.167 -14.333 118.5 -43s36.5 -69.667 36.5 -123c0 -52.667 -12.333 -93.5 -37 -122.5s-64 -43.5 -118 -43.5zM185 432
c28 0 49.333 8 64 24s22 44 22 84s-7.33301 68 -22 84s-36 24 -64 24s-49.333 -8 -64 -24s-22 -44 -22 -84s7.33301 -68 22 -84s36 -24 64 -24z" />
    <glyph glyph-name="guillemotright" unicode="&#xbb;" horiz-adv-x="550" 
d="M202 275l-131 209h89l129 -207l-132 -209h-86zM412 275l-131 209h89l129 -207l-132 -209h-86z" />
    <glyph glyph-name="onequarter" unicode="&#xbc;" horiz-adv-x="950" 
d="M665 700h75l-465 -700h-75zM204 618l-121 -64l-30 58l167 89h61v-420h-77v337zM492 153l249 267h89v-264h57v-62h-57v-94h-72v94h-266v59zM758 353h-1l-185 -197h186v197z" />
    <glyph glyph-name="onehalf" unicode="&#xbd;" horiz-adv-x="950" 
d="M638 700h75l-465 -700h-75zM199 618l-121 -64l-30 58l167 89h61v-420h-77v337zM560 68l123 83.999c21.333 14.667 39.666 28 54.999 40s28 23.5 38 34.5s17.5 21.833 22.5 32.5s7.5 21.667 7.5 33c0 23.333 -8.33301 40.666 -25 51.999s-41 17 -73 17
c-23.333 0 -46.333 -2.16699 -69 -6.5s-42.667 -11.166 -60 -20.499v68c22.667 8.66699 45.334 14.834 68.001 18.501s46.667 5.5 72 5.5c52 0 92.667 -10 122 -30s44 -50 44 -90c0 -17.333 -3.16699 -33.833 -9.5 -49.5s-16 -31.167 -29 -46.5s-29.667 -30.833 -50 -46.5
s-44.833 -32.5 -73.5 -50.5l-70 -47v-1h237v-65h-330v68z" />
    <glyph glyph-name="threequarters" unicode="&#xbe;" horiz-adv-x="950" 
d="M692 700h75l-465 -700h-75zM502 153l249 267h89v-264h57v-62h-57v-94h-72v94h-266v59zM768 353h-1l-185 -197h186v197zM119 525l74.001 -0.00195312c32 0 56.5 4.66699 73.5 14s25.5 24.333 25.5 45c0 21.333 -8.33301 36.5 -25 45.5s-43 13.5 -79 13.5
c-23.333 0 -46.833 -1.5 -70.5 -4.5s-43.834 -8.16699 -60.501 -15.5v64c21.333 8 45.833 13.333 73.5 16s54.167 4 79.5 4c56 0 96.5 -10.167 121.5 -30.5s37.5 -46.166 37.5 -77.499c0 -28 -9.33301 -49.333 -28 -64s-44 -26 -76 -34v-2
c22.667 -3.33301 41.334 -8.16602 56.001 -14.499s26.334 -14 35.001 -23s14.834 -18.667 18.501 -29s5.5 -20.833 5.5 -31.5c0 -22 -4.83301 -40.833 -14.5 -56.5s-22.834 -28.667 -39.501 -39s-36.334 -18 -59.001 -23s-46.667 -7.5 -72 -7.5
c-22 0 -45.833 1.16699 -71.5 3.5s-50.167 7.83301 -73.5 16.5v66c20.667 -8.66699 42.667 -14.5 66 -17.5s46.666 -4.5 69.999 -4.5c42 0 71.667 6.16699 89 18.5s26 27.833 26 46.5c0 24 -8.5 41 -25.5 51s-42.5 15 -76.5 15h-80v55z" />
    <glyph glyph-name="questiondown" unicode="&#xbf;" horiz-adv-x="480" 
d="M285 532c42.667 0 64 -21.333 64 -64s-21.333 -64 -64 -64s-64 21.333 -64 64s21.333 64 64 64zM328 307c0 -30 -4.49902 -55.1689 -13.499 -75.502s-20.5 -37.666 -34.5 -51.999s-28.833 -27.166 -44.5 -38.499s-30.5 -23.333 -44.5 -36s-25.5 -27.167 -34.5 -43.5
s-13.5 -36.833 -13.5 -61.5c0 -34 10.167 -60.333 30.5 -79s53.5 -28 99.5 -28c33.333 0 62.666 4.5 87.999 13.5s48.333 20.167 69 33.5v-98c-24 -11.333 -50 -19.666 -78 -24.999s-56.667 -8 -86 -8c-76 0 -131 15.5 -165 46.5s-51 76.5 -51 136.5
c0 32.667 4.83301 60 14.5 82s21.5 40.833 35.5 56.5s29.5 29.334 46.5 41.001s32.5 23.667 46.5 36s25.833 26.166 35.5 41.499s14.5 34.666 14.5 57.999h85z" />
    <glyph glyph-name="Agrave" unicode="&#xc0;" horiz-adv-x="640" 
d="M270 700h100l250 -700h-99l-63 185h-281l-63 -185h-94zM205 265h225l-112 331zM152 910h120l88 -140h-77z" />
    <glyph glyph-name="Aacute" unicode="&#xc1;" horiz-adv-x="640" 
d="M270 700h100l250 -700h-99l-63 185h-281l-63 -185h-94zM205 265h225l-112 331zM365 910h118l-133 -140h-75z" />
    <glyph glyph-name="Acircumflex" unicode="&#xc2;" horiz-adv-x="640" 
d="M270 700h100l250 -700h-99l-63 185h-281l-63 -185h-94zM205 265h225l-112 331zM270 910h100l115 -140h-78l-87 87l-89 -87h-76z" />
    <glyph glyph-name="Atilde" unicode="&#xc3;" horiz-adv-x="640" 
d="M270 700h100l250 -700h-99l-63 185h-281l-63 -185h-94zM205 265h225l-112 331zM158 788c2 30 11.666 53.502 28.999 70.502s38.333 25.5 63 25.5c12.667 0 24.834 -1.83301 36.501 -5.5s24.834 -8.83398 39.501 -15.501l35 -15c9.33301 -4 18.333 -6 27 -6
c9.33301 0 17.666 2.83301 24.999 8.5s12.666 16.5 15.999 32.5l53 -12c-3.33301 -30.667 -13.666 -54.167 -30.999 -70.5s-37 -24.5 -59 -24.5c-12 0 -23.333 1 -34 3s-25.667 7.66699 -45 17c-12.667 6 -23.334 11.333 -32.001 16s-17.667 7 -27 7
c-8.66699 0 -17.167 -2.83301 -25.5 -8.5s-14.166 -16.834 -17.499 -33.501z" />
    <glyph glyph-name="Adieresis" unicode="&#xc4;" horiz-adv-x="640" 
d="M270 700h100l250 -700h-99l-63 185h-281l-63 -185h-94zM205 265h225l-112 331zM218 785c-38 0 -57 18.333 -57 55s19 55 57 55s57 -18.333 57 -55s-19 -55 -57 -55zM421 785c-38 0 -57 18.333 -57 55s19 55 57 55s57 -18.333 57 -55s-19 -55 -57 -55z" />
    <glyph glyph-name="Aring" unicode="&#xc5;" horiz-adv-x="640" 
d="M270 700h100l250 -700h-99l-63 185h-281l-63 -185h-94zM205 265h225l-112 331zM220 840c0 28.667 9.33301 52.334 28 71.001s42.667 28 72 28s53.333 -9.33301 72 -28s28 -42.334 28 -71.001s-9.33301 -52.334 -28 -71.001s-42.667 -28 -72 -28s-53.333 9.33301 -72 28
s-28 42.334 -28 71.001zM270 840c0 -15.333 4.5 -27.5 13.5 -36.5s21.167 -13.5 36.5 -13.5s27.5 4.5 36.5 13.5s13.5 21.167 13.5 36.5s-4.5 27.5 -13.5 36.5s-21.167 13.5 -36.5 13.5s-27.5 -4.5 -36.5 -13.5s-13.5 -21.167 -13.5 -36.5z" />
    <glyph glyph-name="AE" unicode="&#xc6;" horiz-adv-x="935" 
d="M461 185h-242l-102 -185h-97l391 700h469v-83h-327v-218h287v-81h-287v-235h327v-83h-419v185zM461 265v357l-198 -357h198z" />
    <glyph glyph-name="Ccedilla" unicode="&#xc7;" horiz-adv-x="575" 
d="M335 -217c-16.667 0 -31.6709 1.32812 -45.0039 3.99512s-25 6.33398 -35 11.001l8 50c10 -4 20 -7 30 -9s21 -3 33 -3c19.333 0 32.833 3.33301 40.5 10s11.5 16.334 11.5 29.001c0 13.333 -4 23.333 -12 30s-22.667 10 -44 10
c-7.33301 0 -13.666 -0.166992 -18.999 -0.5s-9.66602 -0.833008 -12.999 -1.5l14 79c-42 4 -78.833 14 -110.5 30s-58.167 38.667 -79.5 68s-37.333 65.833 -48 109.5s-16 95.5 -16 155.5c0 62 6.66699 115.5 20 160.5s32.833 82 58.5 111s57.5 50.333 95.5 64
s81.667 20.5 131 20.5c24.667 0 47 -1.5 67 -4.5s37.667 -6.16699 53 -9.5c17.333 -4 33 -8.66699 47 -14v-96c-19.333 11.333 -42.666 20.5 -69.999 27.5s-59.333 10.5 -96 10.5c-34 0 -64.167 -4.83301 -90.5 -14.5s-48.333 -25.167 -66 -46.5s-31 -49.166 -40 -83.499
s-13.5 -76.166 -13.5 -125.499c0 -51.333 4.66699 -94.666 14 -129.999s23 -64.166 41 -86.499s40.333 -38.5 67 -48.5s57.334 -15 92.001 -15c38 0 71.5 5.33301 100.5 16s52.167 21 69.5 31v-97c-14.667 -6.66699 -31 -12.667 -49 -18
c-15.333 -4.66699 -33.5 -8.83398 -54.5 -12.501s-43.833 -5.5 -68.5 -5.5l-7 -33c66.667 0 100 -27 100 -81c0 -28 -9.66699 -50.333 -29 -67s-48.333 -25 -87 -25z" />
    <glyph glyph-name="Egrave" unicode="&#xc8;" horiz-adv-x="575" 
d="M101 700h419v-83h-327v-218h287v-81h-287v-235h327v-83h-419v700zM147 910h120l88 -140h-77z" />
    <glyph glyph-name="Eacute" unicode="&#xc9;" horiz-adv-x="575" 
d="M101 700h419v-83h-327v-218h287v-81h-287v-235h327v-83h-419v700zM355 910h118l-133 -140h-75z" />
    <glyph glyph-name="Ecircumflex" unicode="&#xca;" horiz-adv-x="575" 
d="M101 700h419v-83h-327v-218h287v-81h-287v-235h327v-83h-419v700zM260 910h100l115 -140h-78l-87 87l-89 -87h-76z" />
    <glyph glyph-name="Edieresis" unicode="&#xcb;" horiz-adv-x="575" 
d="M101 700h419v-83h-327v-218h287v-81h-287v-235h327v-83h-419v700zM208 785c-38 0 -57 18.333 -57 55s19 55 57 55s57 -18.333 57 -55s-19 -55 -57 -55zM411 785c-38 0 -57 18.333 -57 55s19 55 57 55s57 -18.333 57 -55s-19 -55 -57 -55z" />
    <glyph glyph-name="Igrave" unicode="&#xcc;" horiz-adv-x="330" 
d="M119 700h92v-700h-92v700zM-3 910h120l88 -140h-77z" />
    <glyph glyph-name="Iacute" unicode="&#xcd;" horiz-adv-x="330" 
d="M119 700h92v-700h-92v700zM217 910h118l-133 -140h-75z" />
    <glyph glyph-name="Icircumflex" unicode="&#xce;" horiz-adv-x="330" 
d="M119 700h92v-700h-92v700zM116 910h100l115 -140h-78l-87 87l-89 -87h-76z" />
    <glyph glyph-name="Idieresis" unicode="&#xcf;" horiz-adv-x="330" 
d="M119 700h92v-700h-92v700zM64 785c-38 0 -57 18.333 -57 55s19 55 57 55s57 -18.333 57 -55s-19 -55 -57 -55zM267 785c-38 0 -57 18.333 -57 55s19 55 57 55s57 -18.333 57 -55s-19 -55 -57 -55z" />
    <glyph glyph-name="Eth" unicode="&#xd0;" horiz-adv-x="690" 
d="M17 391l94 0.00195312v304c19.333 1.33301 39.666 3 60.999 5c18 1.33301 38.5 2.66602 61.5 3.99902s46.167 2 69.5 2c60 0 111.333 -6.33301 154 -19s77.5 -32.834 104.5 -60.501s46.833 -63.667 59.5 -108s19 -97.833 19 -160.5c0 -126.667 -28 -219 -84 -277
s-141.333 -87 -256 -87c-22.667 0 -45.167 0.5 -67.5 1.5s-42.5 2.16699 -60.5 3.5c-21.333 2 -41.666 4 -60.999 6v314h-94v72zM544 358.002c0 50 -4.16699 91.6689 -12.5 125.002s-21.833 60 -40.5 80s-43.334 34.333 -74.001 43s-68 13 -112 13
c-14.667 0 -28.167 -0.333008 -40.5 -1s-23.166 -1.33398 -32.499 -2.00098c-10.667 -0.666992 -20.334 -1.33398 -29.001 -2.00098v-223h166v-72h-166v-233c8 -1.33301 17.333 -2.33301 28 -3c9.33301 -0.666992 19.833 -1.16699 31.5 -1.5s24.834 -0.5 39.501 -0.5
c42 0 78.167 4.83301 108.5 14.5s55.5 25.5 75.5 47.5s34.667 50.667 44 86s14 78.333 14 129z" />
    <glyph glyph-name="Ntilde" unicode="&#xd1;" horiz-adv-x="740" 
d="M101 700h103.001l286 -454l22.5 -39l18.5 -34l17 -33h2c-0.666992 10 -1.33398 21 -2.00098 33c-0.666992 10 -1 21.333 -1 34v39v454h92v-700h-103l-286 454c-9.33301 15.333 -17.5 29.333 -24.5 42l-18.5 33c-6 11.333 -11 21.666 -15 30.999h-2
c0 -9.33301 0.333008 -19.666 1 -30.999c0.666992 -9.33301 1.16699 -20.333 1.5 -33s0.5 -26.667 0.5 -42v-454h-92v700zM208.001 788c2 30 11.666 53.502 28.999 70.502s38.333 25.5 63 25.5c12.667 0 24.834 -1.83301 36.501 -5.5s24.834 -8.83398 39.501 -15.501l35 -15
c9.33301 -4 18.333 -6 27 -6c9.33301 0 17.666 2.83301 24.999 8.5s12.666 16.5 15.999 32.5l53 -12c-3.33301 -30.667 -13.666 -54.167 -30.999 -70.5s-37 -24.5 -59 -24.5c-12 0 -23.333 1 -34 3s-25.667 7.66699 -45 17c-12.667 6 -23.334 11.333 -32.001 16
s-17.667 7 -27 7c-8.66699 0 -17.167 -2.83301 -25.5 -8.5s-14.166 -16.834 -17.499 -33.501z" />
    <glyph glyph-name="Ograve" unicode="&#xd2;" horiz-adv-x="710" 
d="M355 -11c-49.333 0 -92.834 7.00293 -130.501 21.0029s-69.5 35.667 -95.5 65s-45.667 66.666 -59 111.999s-20 99.666 -20 162.999s6.66699 117.666 20 162.999s33 82.666 59 111.999s57.833 51 95.5 65s81.167 21 130.5 21c50.667 0 95 -6.66699 133 -20
s69.833 -34.5 95.5 -63.5s44.834 -66.333 57.501 -112s19 -100.834 19 -165.501c0 -63.333 -6.66699 -117.666 -20 -162.999s-33 -82.666 -59 -111.999s-58 -51 -96 -65s-81.333 -21 -130 -21zM354.999 73.0029c34 0 64 4.83301 90 14.5s47.833 25.5 65.5 47.5
s31 50.667 40 86s13.5 78.333 13.5 129s-4.5 93.667 -13.5 129s-22.333 64 -40 86s-39.5 37.833 -65.5 47.5s-56 14.5 -90 14.5c-33.333 0 -63 -5 -89 -15s-47.833 -26 -65.5 -48s-31.167 -50.5 -40.5 -85.5s-14 -77.833 -14 -128.5c0 -50 4.66699 -92.5 14 -127.5
s22.833 -63.667 40.5 -86s39.5 -38.5 65.5 -48.5s55.667 -15 89 -15zM192.999 910.003h120l88 -140h-77z" />
    <glyph glyph-name="Oacute" unicode="&#xd3;" horiz-adv-x="710" 
d="M355 -11c-49.333 0 -92.834 7.00293 -130.501 21.0029s-69.5 35.667 -95.5 65s-45.667 66.666 -59 111.999s-20 99.666 -20 162.999s6.66699 117.666 20 162.999s33 82.666 59 111.999s57.833 51 95.5 65s81.167 21 130.5 21c50.667 0 95 -6.66699 133 -20
s69.833 -34.5 95.5 -63.5s44.834 -66.333 57.501 -112s19 -100.834 19 -165.501c0 -63.333 -6.66699 -117.666 -20 -162.999s-33 -82.666 -59 -111.999s-58 -51 -96 -65s-81.333 -21 -130 -21zM354.999 73.0029c34 0 64 4.83301 90 14.5s47.833 25.5 65.5 47.5
s31 50.667 40 86s13.5 78.333 13.5 129s-4.5 93.667 -13.5 129s-22.333 64 -40 86s-39.5 37.833 -65.5 47.5s-56 14.5 -90 14.5c-33.333 0 -63 -5 -89 -15s-47.833 -26 -65.5 -48s-31.167 -50.5 -40.5 -85.5s-14 -77.833 -14 -128.5c0 -50 4.66699 -92.5 14 -127.5
s22.833 -63.667 40.5 -86s39.5 -38.5 65.5 -48.5s55.667 -15 89 -15zM399.999 910.003h118l-133 -140h-75z" />
    <glyph glyph-name="Ocircumflex" unicode="&#xd4;" horiz-adv-x="710" 
d="M355 -11c-49.333 0 -92.834 7.00293 -130.501 21.0029s-69.5 35.667 -95.5 65s-45.667 66.666 -59 111.999s-20 99.666 -20 162.999s6.66699 117.666 20 162.999s33 82.666 59 111.999s57.833 51 95.5 65s81.167 21 130.5 21c50.667 0 95 -6.66699 133 -20
s69.833 -34.5 95.5 -63.5s44.834 -66.333 57.501 -112s19 -100.834 19 -165.501c0 -63.333 -6.66699 -117.666 -20 -162.999s-33 -82.666 -59 -111.999s-58 -51 -96 -65s-81.333 -21 -130 -21zM354.999 73.0029c34 0 64 4.83301 90 14.5s47.833 25.5 65.5 47.5
s31 50.667 40 86s13.5 78.333 13.5 129s-4.5 93.667 -13.5 129s-22.333 64 -40 86s-39.5 37.833 -65.5 47.5s-56 14.5 -90 14.5c-33.333 0 -63 -5 -89 -15s-47.833 -26 -65.5 -48s-31.167 -50.5 -40.5 -85.5s-14 -77.833 -14 -128.5c0 -50 4.66699 -92.5 14 -127.5
s22.833 -63.667 40.5 -86s39.5 -38.5 65.5 -48.5s55.667 -15 89 -15zM304.999 910.003h100l115 -140h-78l-87 87l-89 -87h-76z" />
    <glyph glyph-name="Otilde" unicode="&#xd5;" horiz-adv-x="710" 
d="M355 -11c-49.333 0 -92.834 7.00293 -130.501 21.0029s-69.5 35.667 -95.5 65s-45.667 66.666 -59 111.999s-20 99.666 -20 162.999s6.66699 117.666 20 162.999s33 82.666 59 111.999s57.833 51 95.5 65s81.167 21 130.5 21c50.667 0 95 -6.66699 133 -20
s69.833 -34.5 95.5 -63.5s44.834 -66.333 57.501 -112s19 -100.834 19 -165.501c0 -63.333 -6.66699 -117.666 -20 -162.999s-33 -82.666 -59 -111.999s-58 -51 -96 -65s-81.333 -21 -130 -21zM354.999 73.0029c34 0 64 4.83301 90 14.5s47.833 25.5 65.5 47.5
s31 50.667 40 86s13.5 78.333 13.5 129s-4.5 93.667 -13.5 129s-22.333 64 -40 86s-39.5 37.833 -65.5 47.5s-56 14.5 -90 14.5c-33.333 0 -63 -5 -89 -15s-47.833 -26 -65.5 -48s-31.167 -50.5 -40.5 -85.5s-14 -77.833 -14 -128.5c0 -50 4.66699 -92.5 14 -127.5
s22.833 -63.667 40.5 -86s39.5 -38.5 65.5 -48.5s55.667 -15 89 -15zM192.999 788.003c2 30 11.666 53.502 28.999 70.502s38.333 25.5 63 25.5c12.667 0 24.834 -1.83301 36.501 -5.5s24.834 -8.83398 39.501 -15.501l35 -15c9.33301 -4 18.333 -6 27 -6
c9.33301 0 17.666 2.83301 24.999 8.5s12.666 16.5 15.999 32.5l53 -12c-3.33301 -30.667 -13.666 -54.167 -30.999 -70.5s-37 -24.5 -59 -24.5c-12 0 -23.333 1 -34 3s-25.667 7.66699 -45 17c-12.667 6 -23.334 11.333 -32.001 16s-17.667 7 -27 7
c-8.66699 0 -17.167 -2.83301 -25.5 -8.5s-14.166 -16.834 -17.499 -33.501z" />
    <glyph glyph-name="Odieresis" unicode="&#xd6;" horiz-adv-x="710" 
d="M355 -11c-49.333 0 -92.834 7.00293 -130.501 21.0029s-69.5 35.667 -95.5 65s-45.667 66.666 -59 111.999s-20 99.666 -20 162.999s6.66699 117.666 20 162.999s33 82.666 59 111.999s57.833 51 95.5 65s81.167 21 130.5 21c50.667 0 95 -6.66699 133 -20
s69.833 -34.5 95.5 -63.5s44.834 -66.333 57.501 -112s19 -100.834 19 -165.501c0 -63.333 -6.66699 -117.666 -20 -162.999s-33 -82.666 -59 -111.999s-58 -51 -96 -65s-81.333 -21 -130 -21zM354.999 73.0029c34 0 64 4.83301 90 14.5s47.833 25.5 65.5 47.5
s31 50.667 40 86s13.5 78.333 13.5 129s-4.5 93.667 -13.5 129s-22.333 64 -40 86s-39.5 37.833 -65.5 47.5s-56 14.5 -90 14.5c-33.333 0 -63 -5 -89 -15s-47.833 -26 -65.5 -48s-31.167 -50.5 -40.5 -85.5s-14 -77.833 -14 -128.5c0 -50 4.66699 -92.5 14 -127.5
s22.833 -63.667 40.5 -86s39.5 -38.5 65.5 -48.5s55.667 -15 89 -15zM252.999 785.003c-38 0 -57 18.333 -57 55s19 55 57 55s57 -18.333 57 -55s-19 -55 -57 -55zM455.999 785.003c-38 0 -57 18.333 -57 55s19 55 57 55s57 -18.333 57 -55s-19 -55 -57 -55z" />
    <glyph glyph-name="multiply" unicode="&#xd7;" horiz-adv-x="600" 
d="M114 228l132 132l-132 132l54 54l132 -132l132 132l54 -54l-132 -132l132 -132l-54 -54l-132 132l-132 -132z" />
    <glyph glyph-name="Oslash" unicode="&#xd8;" horiz-adv-x="710" 
d="M355 -11c-37.333 0 -71.332 3.83203 -101.999 11.499s-58 19.834 -82 36.501l-51 -73l-50 36l55 78c-24.667 30 -43.334 67.167 -56.001 111.5s-19 97.833 -19 160.5c0 63.333 6.66699 117.666 20 162.999s33 82.666 59 111.999s57.833 51 95.5 65s81.167 21 130.5 21
c38 0 72.333 -3.66699 103 -11s58 -19 82 -35l50 71l50 -36l-54 -76c24.667 -29.333 43.167 -66.333 55.5 -111s18.5 -99 18.5 -163c0 -63.333 -6.66699 -117.666 -20 -162.999s-33 -82.666 -59 -111.999s-58 -51 -96 -65s-81.333 -21 -130 -21zM355.001 72.999
c34 0 64 4.83301 90 14.5s47.833 25.5 65.5 47.5s31 50.667 40 86s13.5 78.333 13.5 129c0 42 -3.16699 78.667 -9.5 110s-15.5 58 -27.5 80l-302 -428c32 -26 75.333 -39 130 -39zM146.001 349.999c0 -81.333 12.667 -144.333 38 -189l302 428
c-33.333 25.333 -77 38 -131 38c-33.333 0 -63 -5 -89 -15s-47.833 -26 -65.5 -48s-31.167 -50.5 -40.5 -85.5s-14 -77.833 -14 -128.5z" />
    <glyph glyph-name="Ugrave" unicode="&#xd9;" horiz-adv-x="670" 
d="M335 -11c-44 0 -81.999 5.16992 -113.999 15.5029s-58.5 26.666 -79.5 48.999s-36.5 51.333 -46.5 87s-15 78.834 -15 129.501v430h93v-426c0 -38 3 -69.667 9 -95s15.5 -45.833 28.5 -61.5s29.667 -26.667 50 -33s45.166 -9.5 74.499 -9.5s54.333 3.16699 75 9.5
s37.5 17.166 50.5 32.499s22.333 35.666 28 60.999s8.5 57.333 8.5 96v426h93v-430c0 -50 -5.16699 -92.833 -15.5 -128.5s-26 -64.834 -47 -87.501s-47.5 -39.167 -79.5 -49.5s-69.667 -15.5 -113 -15.5zM173.001 910.003h120l88 -140h-77z" />
    <glyph glyph-name="Uacute" unicode="&#xda;" horiz-adv-x="670" 
d="M335 -11c-44 0 -81.999 5.16992 -113.999 15.5029s-58.5 26.666 -79.5 48.999s-36.5 51.333 -46.5 87s-15 78.834 -15 129.501v430h93v-426c0 -38 3 -69.667 9 -95s15.5 -45.833 28.5 -61.5s29.667 -26.667 50 -33s45.166 -9.5 74.499 -9.5s54.333 3.16699 75 9.5
s37.5 17.166 50.5 32.499s22.333 35.666 28 60.999s8.5 57.333 8.5 96v426h93v-430c0 -50 -5.16699 -92.833 -15.5 -128.5s-26 -64.834 -47 -87.501s-47.5 -39.167 -79.5 -49.5s-69.667 -15.5 -113 -15.5zM380.001 910.003h118l-133 -140h-75z" />
    <glyph glyph-name="Ucircumflex" unicode="&#xdb;" horiz-adv-x="670" 
d="M335 -11c-44 0 -81.999 5.16992 -113.999 15.5029s-58.5 26.666 -79.5 48.999s-36.5 51.333 -46.5 87s-15 78.834 -15 129.501v430h93v-426c0 -38 3 -69.667 9 -95s15.5 -45.833 28.5 -61.5s29.667 -26.667 50 -33s45.166 -9.5 74.499 -9.5s54.333 3.16699 75 9.5
s37.5 17.166 50.5 32.499s22.333 35.666 28 60.999s8.5 57.333 8.5 96v426h93v-430c0 -50 -5.16699 -92.833 -15.5 -128.5s-26 -64.834 -47 -87.501s-47.5 -39.167 -79.5 -49.5s-69.667 -15.5 -113 -15.5zM285.001 910.003h100l115 -140h-78l-87 87l-89 -87h-76z" />
    <glyph glyph-name="Udieresis" unicode="&#xdc;" horiz-adv-x="670" 
d="M335 -11c-44 0 -81.999 5.16992 -113.999 15.5029s-58.5 26.666 -79.5 48.999s-36.5 51.333 -46.5 87s-15 78.834 -15 129.501v430h93v-426c0 -38 3 -69.667 9 -95s15.5 -45.833 28.5 -61.5s29.667 -26.667 50 -33s45.166 -9.5 74.499 -9.5s54.333 3.16699 75 9.5
s37.5 17.166 50.5 32.499s22.333 35.666 28 60.999s8.5 57.333 8.5 96v426h93v-430c0 -50 -5.16699 -92.833 -15.5 -128.5s-26 -64.834 -47 -87.501s-47.5 -39.167 -79.5 -49.5s-69.667 -15.5 -113 -15.5zM233.001 785.003c-38 0 -57 18.333 -57 55s19 55 57 55
s57 -18.333 57 -55s-19 -55 -57 -55zM436.001 785.003c-38 0 -57 18.333 -57 55s19 55 57 55s57 -18.333 57 -55s-19 -55 -57 -55z" />
    <glyph glyph-name="Yacute" unicode="&#xdd;" horiz-adv-x="610" 
d="M264 271l-244 429h106l185 -332l178 332h101l-234 -429v-271h-92v271zM350 910h118l-133 -140h-75z" />
    <glyph glyph-name="Thorn" unicode="&#xde;" horiz-adv-x="620" 
d="M101 700l91.998 -0.000976562v-105c30.667 2 65.334 3 104.001 3c50 0 92.333 -4.66699 127 -14s62.834 -23.666 84.501 -42.999s37.334 -43.833 47.001 -73.5s14.5 -64.834 14.5 -105.501c0 -81.333 -21.833 -142.666 -65.5 -183.999s-112.834 -62 -207.501 -62
c-30 0 -54 0.666992 -72 2s-28.667 2.33301 -32 3v-121h-92v700zM473.998 361.999c0 26.667 -2.83203 49.5 -8.49902 68.5s-15.334 34.5 -29.001 46.5s-31.834 20.833 -54.501 26.5s-51 8.5 -85 8.5c-30 0 -54 -0.666992 -72 -2s-28.667 -2.33301 -32 -3v-300
c3.33301 0 14 -0.666992 32 -2s42 -2 72 -2c64.667 0 110.334 12.5 137.001 37.5s40 65.5 40 121.5z" />
    <glyph glyph-name="germandbls" unicode="&#xdf;" horiz-adv-x="615" 
d="M81 515c0 82 19.332 143.999 57.999 185.999s96.334 63 173.001 63c70 0 122.833 -17 158.5 -51s53.5 -81 53.5 -141c0 -40.667 -8.66699 -75 -26 -103s-43 -48.667 -77 -62v-3c47.333 -6 82.166 -25.667 104.499 -59s33.5 -77 33.5 -131c0 -78 -17.833 -135 -53.5 -171
s-91.167 -54 -166.5 -54c-21.333 0 -40.166 1.33301 -56.499 4s-30.5 5.66699 -42.5 9v81c10.667 -3.33301 23.334 -6.16602 38.001 -8.49902s32.667 -3.5 54 -3.5c46 0 79.833 11.5 101.5 34.5s32.5 60.5 32.5 112.5c0 50 -10.833 86.333 -32.5 109s-54.834 34 -99.501 34
h-64v75h54c32.667 0 58.667 10.667 78 32s29 53 29 95c0 38.667 -10.333 68.167 -31 88.5s-51.334 30.5 -92.001 30.5c-47.333 0 -82.166 -13.167 -104.499 -39.5s-33.5 -68.833 -33.5 -127.5v-515h-89v515z" />
    <glyph glyph-name="agrave" unicode="&#xe0;" horiz-adv-x="535" 
d="M215 -11c-54 0 -94.835 13.666 -122.502 40.999s-41.5 66.333 -41.5 117c0 26.667 3.5 49.834 10.5 69.501s18.833 36.167 35.5 49.5s38.334 23.333 65.001 30s59.667 10 99 10h110v47c0 37.333 -8.66699 63.833 -26 79.5s-49.333 23.5 -96 23.5
c-31.333 0 -60.666 -4.33301 -87.999 -13s-50.333 -19.334 -69 -32.001v92c19.333 9.33301 44 17.333 74 24s61.667 10 95 10c36 0 66.667 -3.5 92 -10.5s45.833 -18 61.5 -33s27 -34.167 34 -57.5s10.5 -51.666 10.5 -84.999v-351h-79l-5 90c-12 -28 -31 -51.833 -57 -71.5
s-60.333 -29.5 -103 -29.5zM237.998 66.999c41.333 0 73.833 12.168 97.5 36.501s35.5 59.166 35.5 104.499v36h-104c-48 0 -81 -7.5 -99 -22.5s-27 -38.5 -27 -70.5c0 -28 7.66699 -49 23 -63s40 -21 74 -21zM119.998 756h118l80 -139h-75z" />
    <glyph glyph-name="aacute" unicode="&#xe1;" horiz-adv-x="535" 
d="M215 -11c-54 0 -94.835 13.666 -122.502 40.999s-41.5 66.333 -41.5 117c0 26.667 3.5 49.834 10.5 69.501s18.833 36.167 35.5 49.5s38.334 23.333 65.001 30s59.667 10 99 10h110v47c0 37.333 -8.66699 63.833 -26 79.5s-49.333 23.5 -96 23.5
c-31.333 0 -60.666 -4.33301 -87.999 -13s-50.333 -19.334 -69 -32.001v92c19.333 9.33301 44 17.333 74 24s61.667 10 95 10c36 0 66.667 -3.5 92 -10.5s45.833 -18 61.5 -33s27 -34.167 34 -57.5s10.5 -51.666 10.5 -84.999v-351h-79l-5 90c-12 -28 -31 -51.833 -57 -71.5
s-60.333 -29.5 -103 -29.5zM237.998 66.999c41.333 0 73.833 12.168 97.5 36.501s35.5 59.166 35.5 104.499v36h-104c-48 0 -81 -7.5 -99 -22.5s-27 -38.5 -27 -70.5c0 -28 7.66699 -49 23 -63s40 -21 74 -21zM311.998 756h116l-125 -139h-73z" />
    <glyph glyph-name="acircumflex" unicode="&#xe2;" horiz-adv-x="535" 
d="M215 -11c-54 0 -94.835 13.666 -122.502 40.999s-41.5 66.333 -41.5 117c0 26.667 3.5 49.834 10.5 69.501s18.833 36.167 35.5 49.5s38.334 23.333 65.001 30s59.667 10 99 10h110v47c0 37.333 -8.66699 63.833 -26 79.5s-49.333 23.5 -96 23.5
c-31.333 0 -60.666 -4.33301 -87.999 -13s-50.333 -19.334 -69 -32.001v92c19.333 9.33301 44 17.333 74 24s61.667 10 95 10c36 0 66.667 -3.5 92 -10.5s45.833 -18 61.5 -33s27 -34.167 34 -57.5s10.5 -51.666 10.5 -84.999v-351h-79l-5 90c-12 -28 -31 -51.833 -57 -71.5
s-60.333 -29.5 -103 -29.5zM237.998 66.999c41.333 0 73.833 12.168 97.5 36.501s35.5 59.166 35.5 104.499v36h-104c-48 0 -81 -7.5 -99 -22.5s-27 -38.5 -27 -70.5c0 -28 7.66699 -49 23 -63s40 -21 74 -21zM224.998 756h96l111 -139h-76l-83 88l-85 -88h-74z" />
    <glyph glyph-name="atilde" unicode="&#xe3;" horiz-adv-x="535" 
d="M215 -11c-54 0 -94.835 13.666 -122.502 40.999s-41.5 66.333 -41.5 117c0 26.667 3.5 49.834 10.5 69.501s18.833 36.167 35.5 49.5s38.334 23.333 65.001 30s59.667 10 99 10h110v47c0 37.333 -8.66699 63.833 -26 79.5s-49.333 23.5 -96 23.5
c-31.333 0 -60.666 -4.33301 -87.999 -13s-50.333 -19.334 -69 -32.001v92c19.333 9.33301 44 17.333 74 24s61.667 10 95 10c36 0 66.667 -3.5 92 -10.5s45.833 -18 61.5 -33s27 -34.167 34 -57.5s10.5 -51.666 10.5 -84.999v-351h-79l-5 90c-12 -28 -31 -51.833 -57 -71.5
s-60.333 -29.5 -103 -29.5zM237.998 66.999c41.333 0 73.833 12.168 97.5 36.501s35.5 59.166 35.5 104.499v36h-104c-48 0 -81 -7.5 -99 -22.5s-27 -38.5 -27 -70.5c0 -28 7.66699 -49 23 -63s40 -21 74 -21zM112.998 634c2 30.667 10.668 54.3359 26.001 71.0029
s35.333 25 60 25c13.333 0 25.5 -1.83301 36.5 -5.5s23.833 -8.83398 38.5 -15.501c14 -6 25.333 -11.167 34 -15.5s17.667 -6.5 27 -6.5s16.833 3 22.5 9s10.167 17 13.5 33l52 -12c-3.33301 -30.667 -12.833 -54.167 -28.5 -70.5s-34.5 -24.5 -56.5 -24.5
c-12 0 -23 1.16699 -33 3.5s-24.667 8.16602 -44 17.499c-12.667 6 -23 11.167 -31 15.5s-16.667 6.5 -26 6.5c-8.66699 0 -16.334 -2.83301 -23.001 -8.5s-11.667 -16.834 -15 -33.501z" />
    <glyph glyph-name="adieresis" unicode="&#xe4;" horiz-adv-x="535" 
d="M215 -11c-54 0 -94.835 13.666 -122.502 40.999s-41.5 66.333 -41.5 117c0 26.667 3.5 49.834 10.5 69.501s18.833 36.167 35.5 49.5s38.334 23.333 65.001 30s59.667 10 99 10h110v47c0 37.333 -8.66699 63.833 -26 79.5s-49.333 23.5 -96 23.5
c-31.333 0 -60.666 -4.33301 -87.999 -13s-50.333 -19.334 -69 -32.001v92c19.333 9.33301 44 17.333 74 24s61.667 10 95 10c36 0 66.667 -3.5 92 -10.5s45.833 -18 61.5 -33s27 -34.167 34 -57.5s10.5 -51.666 10.5 -84.999v-351h-79l-5 90c-12 -28 -31 -51.833 -57 -71.5
s-60.333 -29.5 -103 -29.5zM237.998 66.999c41.333 0 73.833 12.168 97.5 36.501s35.5 59.166 35.5 104.499v36h-104c-48 0 -81 -7.5 -99 -22.5s-27 -38.5 -27 -70.5c0 -28 7.66699 -49 23 -63s40 -21 74 -21zM177.998 634c-36.667 0 -55 17.333 -55 52
c0 35.333 18.333 53 55 53s55 -17.667 55 -53c0 -34.667 -18.333 -52 -55 -52zM367.998 634c-36.667 0 -55 17.333 -55 52c0 35.333 18.333 53 55 53s55 -17.667 55 -53c0 -34.667 -18.333 -52 -55 -52z" />
    <glyph glyph-name="aring" unicode="&#xe5;" horiz-adv-x="535" 
d="M215 -11c-54 0 -94.835 13.666 -122.502 40.999s-41.5 66.333 -41.5 117c0 26.667 3.5 49.834 10.5 69.501s18.833 36.167 35.5 49.5s38.334 23.333 65.001 30s59.667 10 99 10h110v47c0 37.333 -8.66699 63.833 -26 79.5s-49.333 23.5 -96 23.5
c-31.333 0 -60.666 -4.33301 -87.999 -13s-50.333 -19.334 -69 -32.001v92c19.333 9.33301 44 17.333 74 24s61.667 10 95 10c36 0 66.667 -3.5 92 -10.5s45.833 -18 61.5 -33s27 -34.167 34 -57.5s10.5 -51.666 10.5 -84.999v-351h-79l-5 90c-12 -28 -31 -51.833 -57 -71.5
s-60.333 -29.5 -103 -29.5zM237.998 66.999c41.333 0 73.833 12.168 97.5 36.501s35.5 59.166 35.5 104.499v36h-104c-48 0 -81 -7.5 -99 -22.5s-27 -38.5 -27 -70.5c0 -28 7.66699 -49 23 -63s40 -21 74 -21zM176.998 686c0 29.333 8.83301 52.833 26.5 70.5
s41.5 26.5 71.5 26.5s53.833 -8.83301 71.5 -26.5s26.5 -41.167 26.5 -70.5c0 -28.667 -8.83301 -52 -26.5 -70s-41.5 -27 -71.5 -27s-53.833 9 -71.5 27s-26.5 41.333 -26.5 70zM226.998 686c0 -15.333 4.16895 -27.168 12.502 -35.501s20.166 -12.5 35.499 -12.5
c14.667 0 26.334 4.33301 35.001 13s13 20.334 13 35.001s-4.33301 26.334 -13 35.001s-20.334 13 -35.001 13s-26.334 -4.33301 -35.001 -13s-13 -20.334 -13 -35.001z" />
    <glyph glyph-name="ae" unicode="&#xe6;" horiz-adv-x="860" 
d="M614 -11c-96 0 -162 33.334 -198 100.001c-20 -34 -46.333 -59.167 -79 -75.5s-70.667 -24.5 -114 -24.5c-58.667 0 -102 13.667 -130 41s-42 66.333 -42 117c0 26.667 3.5 49.834 10.5 69.501s18.833 36.167 35.5 49.5s38.5 23.333 65.5 30s60.167 10 99.5 10h113v47
c0 37.333 -8.83301 63.833 -26.5 79.5s-50.5 23.5 -98.5 23.5c-32 0 -61.667 -4.33301 -89 -13s-50.333 -19.334 -69 -32.001v92c19.333 9.33301 44 17.333 74 24s62 10 96 10c45.333 0 82 -5.83301 110 -17.5s48.667 -30.167 62 -55.5c38 48.667 92.333 73 163 73
c72.667 0 126.167 -20.167 160.5 -60.5s51.5 -105.5 51.5 -195.5v-41h-347c1.33301 -59.333 15 -103 41 -131s65 -42 117 -42c32 0 61.5 4.33301 88.5 13s49.5 20.667 67.5 36v-88c-15.333 -10.667 -36.333 -19.834 -63 -27.501s-59.667 -11.5 -99 -11.5zM240 67.001
c42 0 75.001 12.168 99.001 36.501s36 59.166 36 104.499v36h-107c-48.667 0 -82 -7.5 -100 -22.5s-27 -38.5 -27 -70.5c0 -28 7.66699 -49 23 -63s40.666 -21 75.999 -21zM597.001 462.002c-42 0 -74.5 -12.333 -97.5 -37s-35.5 -65 -37.5 -121h259
c0 50 -9 88.833 -27 116.5s-50.333 41.5 -97 41.5z" />
    <glyph glyph-name="ccedilla" unicode="&#xe7;" horiz-adv-x="475" 
d="M275 -217c-17.333 0 -31.832 1.33301 -43.499 4s-22.5 6.33398 -32.5 11.001l7 49c10 -4 19.5 -7 28.5 -9s19.5 -3 31.5 -3c33.333 0 50 13.333 50 40c0 13.333 -4.16699 23.5 -12.5 30.5s-22.166 10.5 -41.499 10.5c-5.33301 0 -11 -0.166992 -17 -0.5
s-11 -0.833008 -15 -1.5l15 79c-66 8 -114.833 33.833 -146.5 77.5s-47.5 109.5 -47.5 197.5c0 92.667 20.667 160.667 62 204s101.333 65 180 65c36 0 65.667 -3.16699 89 -9.5s39.666 -11.5 48.999 -15.5v-95c-15.333 10.667 -34 19.834 -56 27.501s-47 11.5 -75 11.5
c-52 0 -91.5 -14.667 -118.5 -44s-40.5 -77.333 -40.5 -144c0 -70.667 14 -121.334 42 -152.001s70.333 -46 127 -46c24.667 0 49 4.16699 73 12.5s43 18.166 57 29.499v-91c-9.33301 -5.33301 -25.833 -12 -49.5 -20s-53.834 -12 -90.501 -12h-3l-7 -33
c64.667 0 97 -27 97 -81c0 -28 -9.5 -50.333 -28.5 -67s-46.833 -25 -83.5 -25z" />
    <glyph glyph-name="egrave" unicode="&#xe8;" horiz-adv-x="550" 
d="M297 -11c-84.667 0 -146.831 22.167 -186.498 66.5s-59.5 114.5 -59.5 210.5c0 92.667 20.333 161 61 205s96.667 66 168 66c76 0 131.5 -20.333 166.5 -61s52.5 -105.667 52.5 -195v-41h-360c1.33301 -59.333 15 -103 41 -131s67 -42 123 -42
c33.333 0 64.333 5.5 93 16.5s52 24.167 70 39.5v-88c-16.667 -11.333 -38.834 -21.833 -66.501 -31.5s-61.834 -14.5 -102.501 -14.5zM280.003 462c-45.333 0 -79.833 -12.335 -103.5 -37.002s-36.167 -65 -37.5 -121h272c0 24.667 -2.16699 46.834 -6.5 66.501
s-11.5 36.334 -21.5 50.001s-23.333 24 -40 31s-37.667 10.5 -63 10.5zM125.003 755.998h118l80 -139h-75z" />
    <glyph glyph-name="eacute" unicode="&#xe9;" horiz-adv-x="550" 
d="M297 -11c-84.667 0 -146.831 22.167 -186.498 66.5s-59.5 114.5 -59.5 210.5c0 92.667 20.333 161 61 205s96.667 66 168 66c76 0 131.5 -20.333 166.5 -61s52.5 -105.667 52.5 -195v-41h-360c1.33301 -59.333 15 -103 41 -131s67 -42 123 -42
c33.333 0 64.333 5.5 93 16.5s52 24.167 70 39.5v-88c-16.667 -11.333 -38.834 -21.833 -66.501 -31.5s-61.834 -14.5 -102.501 -14.5zM280.003 462c-45.333 0 -79.833 -12.335 -103.5 -37.002s-36.167 -65 -37.5 -121h272c0 24.667 -2.16699 46.834 -6.5 66.501
s-11.5 36.334 -21.5 50.001s-23.333 24 -40 31s-37.667 10.5 -63 10.5zM317.003 755.998h116l-125 -139h-73z" />
    <glyph glyph-name="ecircumflex" unicode="&#xea;" horiz-adv-x="550" 
d="M297 -11c-84.667 0 -146.831 22.167 -186.498 66.5s-59.5 114.5 -59.5 210.5c0 92.667 20.333 161 61 205s96.667 66 168 66c76 0 131.5 -20.333 166.5 -61s52.5 -105.667 52.5 -195v-41h-360c1.33301 -59.333 15 -103 41 -131s67 -42 123 -42
c33.333 0 64.333 5.5 93 16.5s52 24.167 70 39.5v-88c-16.667 -11.333 -38.834 -21.833 -66.501 -31.5s-61.834 -14.5 -102.501 -14.5zM280.003 462c-45.333 0 -79.833 -12.335 -103.5 -37.002s-36.167 -65 -37.5 -121h272c0 24.667 -2.16699 46.834 -6.5 66.501
s-11.5 36.334 -21.5 50.001s-23.333 24 -40 31s-37.667 10.5 -63 10.5zM230.003 755.998h96l111 -139h-76l-83 88l-85 -88h-74z" />
    <glyph glyph-name="edieresis" unicode="&#xeb;" horiz-adv-x="550" 
d="M297 -11c-84.667 0 -146.831 22.167 -186.498 66.5s-59.5 114.5 -59.5 210.5c0 92.667 20.333 161 61 205s96.667 66 168 66c76 0 131.5 -20.333 166.5 -61s52.5 -105.667 52.5 -195v-41h-360c1.33301 -59.333 15 -103 41 -131s67 -42 123 -42
c33.333 0 64.333 5.5 93 16.5s52 24.167 70 39.5v-88c-16.667 -11.333 -38.834 -21.833 -66.501 -31.5s-61.834 -14.5 -102.501 -14.5zM280.003 462c-45.333 0 -79.833 -12.335 -103.5 -37.002s-36.167 -65 -37.5 -121h272c0 24.667 -2.16699 46.834 -6.5 66.501
s-11.5 36.334 -21.5 50.001s-23.333 24 -40 31s-37.667 10.5 -63 10.5zM183.003 633.998c-36.667 0 -55 17.333 -55 52c0 35.333 18.333 53 55 53s55 -17.667 55 -53c0 -34.667 -18.333 -52 -55 -52zM373.003 633.998c-36.667 0 -55 17.333 -55 52c0 35.333 18.333 53 55 53
s55 -17.667 55 -53c0 -34.667 -18.333 -52 -55 -52z" />
    <glyph glyph-name="igrave" unicode="&#xec;" horiz-adv-x="290" 
d="M101 526h88v-526h-88v526zM-14 756h118l80 -139h-75z" />
    <glyph glyph-name="iacute" unicode="&#xed;" horiz-adv-x="290" 
d="M101 526h88v-526h-88v526zM190 756h116l-125 -139h-73z" />
    <glyph glyph-name="icircumflex" unicode="&#xee;" horiz-adv-x="290" 
d="M101 526h88v-526h-88v526zM98 756h96l111 -139h-76l-83 88l-85 -88h-74z" />
    <glyph glyph-name="idieresis" unicode="&#xef;" horiz-adv-x="290" 
d="M101 526h88v-526h-88v526zM51 634c-36.667 0 -55 17.333 -55 52c0 35.333 18.333 53 55 53s55 -17.667 55 -53c0 -34.667 -18.333 -52 -55 -52zM241 634c-36.667 0 -55 17.333 -55 52c0 35.333 18.333 53 55 53s55 -17.667 55 -53c0 -34.667 -18.333 -52 -55 -52z" />
    <glyph glyph-name="eth" unicode="&#xf0;" horiz-adv-x="585" 
d="M156 615l89.998 48.002c-40 22 -82.667 38 -128 48l31 58c64 -16 120 -38.667 168 -68l130 70l22 -45l-106 -57c59.333 -46.667 101.833 -103.834 127.5 -171.501s38.5 -143.167 38.5 -226.5c0 -48.667 -6 -90.667 -18 -126s-28.667 -64.5 -50 -87.5
s-46.833 -40.167 -76.5 -51.5s-62.167 -17 -97.5 -17c-79.333 0 -138.5 23.333 -177.5 70s-58.5 112 -58.5 196c0 84.667 19 149 57 193s92.333 66 163 66c11.333 0 23.5 -0.833008 36.5 -2.5s26 -4.83398 39 -9.50098s25.833 -11.667 38.5 -21s24.334 -21.333 35.001 -36
l3 2c-10 38 -26.167 72.5 -48.5 103.5s-49.166 58.167 -80.499 81.5l-115 -62zM289.998 69.002c23.333 0 44.1689 3.33496 62.502 10.002s34 17.5 47 32.5s22.833 34.333 29.5 58s10 52.167 10 85.5c0 64 -11.833 109.833 -35.5 137.5s-61.5 41.5 -113.5 41.5
c-23.333 0 -44.333 -3 -63 -9s-34.334 -16 -47.001 -30s-22.334 -32.5 -29.001 -55.5s-10 -51.167 -10 -84.5c0 -34 3.5 -62.833 10.5 -86.5s17 -42.834 30 -57.501s28.667 -25.334 47 -32.001s38.833 -10 61.5 -10z" />
    <glyph glyph-name="ntilde" unicode="&#xf1;" horiz-adv-x="585" 
d="M81 526l82.001 0.000976562l6 -89c14.667 32 35 56.667 61 74s60 26 102 26c59.333 0 103.666 -15.333 132.999 -46s44 -81.334 44 -152.001v-339h-88v310c0 28 -2.16699 51.333 -6.5 70s-11.333 33.667 -21 45s-22 19.333 -37 24s-33.167 7 -54.5 7
c-42 0 -74.667 -12.333 -98 -37s-35 -61 -35 -109v-310h-88v526zM138.001 634.001c2 30.667 10.668 54.3359 26.001 71.0029s35.333 25 60 25c13.333 0 25.5 -1.83301 36.5 -5.5s23.833 -8.83398 38.5 -15.501c14 -6 25.333 -11.167 34 -15.5s17.667 -6.5 27 -6.5
s16.833 3 22.5 9s10.167 17 13.5 33l52 -12c-3.33301 -30.667 -12.833 -54.167 -28.5 -70.5s-34.5 -24.5 -56.5 -24.5c-12 0 -23 1.16699 -33 3.5s-24.667 8.16602 -44 17.499c-12.667 6 -23 11.167 -31 15.5s-16.667 6.5 -26 6.5c-8.66699 0 -16.334 -2.83301 -23.001 -8.5
s-11.667 -16.834 -15 -33.501z" />
    <glyph glyph-name="ograve" unicode="&#xf2;" horiz-adv-x="570" 
d="M285 -11c-76.667 0 -134.833 21.667 -174.5 65s-59.5 113 -59.5 209c0 93.333 20.667 162.333 62 207s98.666 67 171.999 67c78 0 136.5 -21.167 175.5 -63.5s58.5 -112.5 58.5 -210.5c0 -96 -20.167 -165.667 -60.5 -209s-98.166 -65 -173.499 -65zM285.001 70
c24 0 45 3.33301 63 10s33 17.5 45 32.5s21 34.833 27 59.5s9 55 9 91s-3 66.333 -9 91s-15 44.5 -27 59.5s-27 25.833 -45 32.5s-39 10 -63 10c-46 0 -81.5 -14.5 -106.5 -43.5s-37.5 -78.833 -37.5 -149.5c0 -36 3 -66.333 9 -91s15 -44.5 27 -59.5s27 -25.833 45 -32.5
s39 -10 63 -10zM132.001 756h118l80 -139h-75z" />
    <glyph glyph-name="oacute" unicode="&#xf3;" horiz-adv-x="570" 
d="M285 -11c-76.667 0 -134.833 21.667 -174.5 65s-59.5 113 -59.5 209c0 93.333 20.667 162.333 62 207s98.666 67 171.999 67c78 0 136.5 -21.167 175.5 -63.5s58.5 -112.5 58.5 -210.5c0 -96 -20.167 -165.667 -60.5 -209s-98.166 -65 -173.499 -65zM285.001 70
c24 0 45 3.33301 63 10s33 17.5 45 32.5s21 34.833 27 59.5s9 55 9 91s-3 66.333 -9 91s-15 44.5 -27 59.5s-27 25.833 -45 32.5s-39 10 -63 10c-46 0 -81.5 -14.5 -106.5 -43.5s-37.5 -78.833 -37.5 -149.5c0 -36 3 -66.333 9 -91s15 -44.5 27 -59.5s27 -25.833 45 -32.5
s39 -10 63 -10zM323.001 756h116l-125 -139h-73z" />
    <glyph glyph-name="ocircumflex" unicode="&#xf4;" horiz-adv-x="570" 
d="M285 -11c-76.667 0 -134.833 21.667 -174.5 65s-59.5 113 -59.5 209c0 93.333 20.667 162.333 62 207s98.666 67 171.999 67c78 0 136.5 -21.167 175.5 -63.5s58.5 -112.5 58.5 -210.5c0 -96 -20.167 -165.667 -60.5 -209s-98.166 -65 -173.499 -65zM285.001 70
c24 0 45 3.33301 63 10s33 17.5 45 32.5s21 34.833 27 59.5s9 55 9 91s-3 66.333 -9 91s-15 44.5 -27 59.5s-27 25.833 -45 32.5s-39 10 -63 10c-46 0 -81.5 -14.5 -106.5 -43.5s-37.5 -78.833 -37.5 -149.5c0 -36 3 -66.333 9 -91s15 -44.5 27 -59.5s27 -25.833 45 -32.5
s39 -10 63 -10zM237.001 756h96l111 -139h-76l-83 88l-85 -88h-74z" />
    <glyph glyph-name="otilde" unicode="&#xf5;" horiz-adv-x="570" 
d="M285 -11c-76.667 0 -134.833 21.667 -174.5 65s-59.5 113 -59.5 209c0 93.333 20.667 162.333 62 207s98.666 67 171.999 67c78 0 136.5 -21.167 175.5 -63.5s58.5 -112.5 58.5 -210.5c0 -96 -20.167 -165.667 -60.5 -209s-98.166 -65 -173.499 -65zM285.001 70
c24 0 45 3.33301 63 10s33 17.5 45 32.5s21 34.833 27 59.5s9 55 9 91s-3 66.333 -9 91s-15 44.5 -27 59.5s-27 25.833 -45 32.5s-39 10 -63 10c-46 0 -81.5 -14.5 -106.5 -43.5s-37.5 -78.833 -37.5 -149.5c0 -36 3 -66.333 9 -91s15 -44.5 27 -59.5s27 -25.833 45 -32.5
s39 -10 63 -10zM130.001 634c2 30.667 10.668 54.3359 26.001 71.0029s35.333 25 60 25c13.333 0 25.5 -1.83301 36.5 -5.5s23.833 -8.83398 38.5 -15.501c14 -6 25.333 -11.167 34 -15.5s17.667 -6.5 27 -6.5s16.833 3 22.5 9s10.167 17 13.5 33l52 -12
c-3.33301 -30.667 -12.833 -54.167 -28.5 -70.5s-34.5 -24.5 -56.5 -24.5c-12 0 -23 1.16699 -33 3.5s-24.667 8.16602 -44 17.499c-12.667 6 -23 11.167 -31 15.5s-16.667 6.5 -26 6.5c-8.66699 0 -16.334 -2.83301 -23.001 -8.5s-11.667 -16.834 -15 -33.501z" />
    <glyph glyph-name="odieresis" unicode="&#xf6;" horiz-adv-x="570" 
d="M285 -11c-76.667 0 -134.833 21.667 -174.5 65s-59.5 113 -59.5 209c0 93.333 20.667 162.333 62 207s98.666 67 171.999 67c78 0 136.5 -21.167 175.5 -63.5s58.5 -112.5 58.5 -210.5c0 -96 -20.167 -165.667 -60.5 -209s-98.166 -65 -173.499 -65zM285.001 70
c24 0 45 3.33301 63 10s33 17.5 45 32.5s21 34.833 27 59.5s9 55 9 91s-3 66.333 -9 91s-15 44.5 -27 59.5s-27 25.833 -45 32.5s-39 10 -63 10c-46 0 -81.5 -14.5 -106.5 -43.5s-37.5 -78.833 -37.5 -149.5c0 -36 3 -66.333 9 -91s15 -44.5 27 -59.5s27 -25.833 45 -32.5
s39 -10 63 -10zM190.001 634c-36.667 0 -55 17.333 -55 52c0 35.333 18.333 53 55 53s55 -17.667 55 -53c0 -34.667 -18.333 -52 -55 -52zM380.001 634c-36.667 0 -55 17.333 -55 52c0 35.333 18.333 53 55 53s55 -17.667 55 -53c0 -34.667 -18.333 -52 -55 -52z" />
    <glyph glyph-name="divide" unicode="&#xf7;" horiz-adv-x="600" 
d="M95 399h410v-81h-410v81zM300 115c-42.667 0 -64 21.333 -64 64s21.333 64 64 64s64 -21.333 64 -64s-21.333 -64 -64 -64zM300 474c-42.667 0 -64 21.333 -64 64s21.333 64 64 64s64 -21.333 64 -64s-21.333 -64 -64 -64z" />
    <glyph glyph-name="oslash" unicode="&#xf8;" horiz-adv-x="570" 
d="M285 -11c-54.667 0 -99.667 10.667 -135 32l-37 -53l-46 32l40 58c-18.667 22 -32.667 49.833 -42 83.5s-14 74.167 -14 121.5c0 93.333 20.667 162.333 62 207s98.666 67 171.999 67c55.333 0 100.333 -10.333 135 -31l37 52l46 -32l-40 -57
c18.667 -22 32.667 -49.833 42 -83.5s14 -74.5 14 -122.5c0 -96 -20.167 -165.667 -60.5 -209s-98.166 -65 -173.499 -65zM285 70c24 0 44.999 3.33301 62.999 10s33 17.5 45 32.5s21 34.833 27 59.5s9 55 9 91c0 54.667 -7 97 -21 127l-209 -299
c20.667 -14 49.334 -21 86.001 -21zM140.999 263c0 -54.667 6.99902 -97 20.999 -127l208 298c-21.333 14.667 -49.666 22 -84.999 22c-46 0 -81.5 -14.5 -106.5 -43.5s-37.5 -78.833 -37.5 -149.5z" />
    <glyph glyph-name="ugrave" unicode="&#xf9;" horiz-adv-x="580" 
d="M249 -11c-56.667 0 -99.6641 15.332 -128.997 45.999s-44 81.334 -44 152.001v339h88v-310c0 -28 2.16699 -51.333 6.5 -70s11.166 -33.667 20.499 -45s21.333 -19.333 36 -24s32 -7 52 -7c41.333 0 73.666 12.333 96.999 37s35 61 35 109v310h88v-526h-82l-6 89
c-14.667 -30 -34.834 -54.167 -60.501 -72.5s-59.5 -27.5 -101.5 -27.5zM134.003 755.999h118l80 -139h-75z" />
    <glyph glyph-name="uacute" unicode="&#xfa;" horiz-adv-x="580" 
d="M249 -11c-56.667 0 -99.6641 15.332 -128.997 45.999s-44 81.334 -44 152.001v339h88v-310c0 -28 2.16699 -51.333 6.5 -70s11.166 -33.667 20.499 -45s21.333 -19.333 36 -24s32 -7 52 -7c41.333 0 73.666 12.333 96.999 37s35 61 35 109v310h88v-526h-82l-6 89
c-14.667 -30 -34.834 -54.167 -60.501 -72.5s-59.5 -27.5 -101.5 -27.5zM325.003 755.999h116l-125 -139h-73z" />
    <glyph glyph-name="ucircumflex" unicode="&#xfb;" horiz-adv-x="580" 
d="M249 -11c-56.667 0 -99.6641 15.332 -128.997 45.999s-44 81.334 -44 152.001v339h88v-310c0 -28 2.16699 -51.333 6.5 -70s11.166 -33.667 20.499 -45s21.333 -19.333 36 -24s32 -7 52 -7c41.333 0 73.666 12.333 96.999 37s35 61 35 109v310h88v-526h-82l-6 89
c-14.667 -30 -34.834 -54.167 -60.501 -72.5s-59.5 -27.5 -101.5 -27.5zM239.003 755.999h96l111 -139h-76l-83 88l-85 -88h-74z" />
    <glyph glyph-name="udieresis" unicode="&#xfc;" horiz-adv-x="580" 
d="M249 -11c-56.667 0 -99.6641 15.332 -128.997 45.999s-44 81.334 -44 152.001v339h88v-310c0 -28 2.16699 -51.333 6.5 -70s11.166 -33.667 20.499 -45s21.333 -19.333 36 -24s32 -7 52 -7c41.333 0 73.666 12.333 96.999 37s35 61 35 109v310h88v-526h-82l-6 89
c-14.667 -30 -34.834 -54.167 -60.501 -72.5s-59.5 -27.5 -101.5 -27.5zM192.003 633.999c-36.667 0 -55 17.333 -55 52c0 35.333 18.333 53 55 53s55 -17.667 55 -53c0 -34.667 -18.333 -52 -55 -52zM382.003 633.999c-36.667 0 -55 17.333 -55 52
c0 35.333 18.333 53 55 53s55 -17.667 55 -53c0 -34.667 -18.333 -52 -55 -52z" />
    <glyph glyph-name="yacute" unicode="&#xfd;" horiz-adv-x="520" 
d="M161 -191c-13.333 0 -25.667 1.33301 -37 4s-18.666 5 -21.999 7v86c6 -4.66699 13 -8.5 21 -11.5s17.667 -4.5 29 -4.5c8 0 15.333 1.16699 22 3.5s13.167 7.5 19.5 15.5s12.666 19.167 18.999 33.5s13.166 33.5 20.499 57.5l-213 526h96l159 -409l133 409h92l-180 -529
c-14 -41.333 -27 -74.333 -39 -99s-24.167 -43.5 -36.5 -56.5s-25.166 -21.667 -38.499 -26s-28.333 -6.5 -45 -6.5zM297.999 756h116l-125 -139h-73z" />
    <glyph glyph-name="thorn" unicode="&#xfe;" horiz-adv-x="590" 
d="M81 753l88.001 -0.00195312v-312c7.33301 13.333 16 25.833 26 37.5s21.833 21.834 35.5 30.501s29.667 15.5 48 20.5s39.5 7.5 63.5 7.5c32.667 0 61.334 -4.83301 86.001 -14.5s45.167 -25.167 61.5 -46.5s28.666 -49 36.999 -83s12.5 -75.667 12.5 -125
c0 -50.667 -4.33301 -93.667 -13 -129s-21.834 -64.166 -39.501 -86.499s-39.5 -38.5 -65.5 -48.5s-56 -15 -90 -15c-23.333 0 -43.833 2.66699 -61.5 8s-33 12.5 -46 21.5s-23.833 19.5 -32.5 31.5s-16 24.333 -22 37v-267h-88v933zM449.001 267.998
c0 35.333 -2.83105 65.002 -8.49805 89.002s-14.167 43.333 -25.5 58s-25.5 25.167 -42.5 31.5s-36.833 9.5 -59.5 9.5c-46.667 0 -82.334 -13.167 -107.001 -39.5s-37 -66.5 -37 -120.5v-66c0 -52 12.667 -91.667 38 -119s59.666 -41 102.999 -41
c23.333 0 43.666 3.16699 60.999 9.5s31.833 17.166 43.5 32.499s20.334 35.666 26.001 60.999s8.5 57 8.5 95z" />
    <glyph glyph-name="ydieresis" unicode="&#xff;" horiz-adv-x="520" 
d="M161 -191c-13.333 0 -25.667 1.33301 -37 4s-18.666 5 -21.999 7v86c6 -4.66699 13 -8.5 21 -11.5s17.667 -4.5 29 -4.5c8 0 15.333 1.16699 22 3.5s13.167 7.5 19.5 15.5s12.666 19.167 18.999 33.5s13.166 33.5 20.499 57.5l-213 526h96l159 -409l133 409h92l-180 -529
c-14 -41.333 -27 -74.333 -39 -99s-24.167 -43.5 -36.5 -56.5s-25.166 -21.667 -38.499 -26s-28.333 -6.5 -45 -6.5zM164.999 634c-36.667 0 -55 17.333 -55 52c0 35.333 18.333 53 55 53s55 -17.667 55 -53c0 -34.667 -18.333 -52 -55 -52zM354.999 634
c-36.667 0 -55 17.333 -55 52c0 35.333 18.333 53 55 53s55 -17.667 55 -53c0 -34.667 -18.333 -52 -55 -52z" />
    <glyph glyph-name="Amacron" unicode="&#x100;" horiz-adv-x="640" 
d="M270 700h100l250 -700h-99l-63 185h-281l-63 -185h-94zM205 265h225l-112 331zM178 865h284v-70h-284v70z" />
    <glyph glyph-name="amacron" unicode="&#x101;" horiz-adv-x="535" 
d="M215 -11c-54 0 -94.835 13.666 -122.502 40.999s-41.5 66.333 -41.5 117c0 26.667 3.5 49.834 10.5 69.501s18.833 36.167 35.5 49.5s38.334 23.333 65.001 30s59.667 10 99 10h110v47c0 37.333 -8.66699 63.833 -26 79.5s-49.333 23.5 -96 23.5
c-31.333 0 -60.666 -4.33301 -87.999 -13s-50.333 -19.334 -69 -32.001v92c19.333 9.33301 44 17.333 74 24s61.667 10 95 10c36 0 66.667 -3.5 92 -10.5s45.833 -18 61.5 -33s27 -34.167 34 -57.5s10.5 -51.666 10.5 -84.999v-351h-79l-5 90c-12 -28 -31 -51.833 -57 -71.5
s-60.333 -29.5 -103 -29.5zM237.998 66.999c41.333 0 73.833 12.168 97.5 36.501s35.5 59.166 35.5 104.499v36h-104c-48 0 -81 -7.5 -99 -22.5s-27 -38.5 -27 -70.5c0 -28 7.66699 -49 23 -63s40 -21 74 -21zM145.998 709h258v-66h-258v66z" />
    <glyph glyph-name="Abreve" unicode="&#x102;" horiz-adv-x="640" 
d="M270 700h100l250 -700h-99l-63 185h-281l-63 -185h-94zM205 265h225l-112 331zM320 769c-42 0 -76.668 10.5 -104.001 31.5s-45.666 52.167 -54.999 93.5l62 17c7.33301 -25.333 18.333 -44.166 33 -56.499s36 -18.5 64 -18.5s49.667 6.16699 65 18.5
s26.333 31.166 33 56.499l61 -17c-9.33301 -41.333 -27.5 -72.5 -54.5 -93.5s-61.833 -31.5 -104.5 -31.5z" />
    <glyph glyph-name="abreve" unicode="&#x103;" horiz-adv-x="535" 
d="M215 -11c-54 0 -94.835 13.666 -122.502 40.999s-41.5 66.333 -41.5 117c0 26.667 3.5 49.834 10.5 69.501s18.833 36.167 35.5 49.5s38.334 23.333 65.001 30s59.667 10 99 10h110v47c0 37.333 -8.66699 63.833 -26 79.5s-49.333 23.5 -96 23.5
c-31.333 0 -60.666 -4.33301 -87.999 -13s-50.333 -19.334 -69 -32.001v92c19.333 9.33301 44 17.333 74 24s61.667 10 95 10c36 0 66.667 -3.5 92 -10.5s45.833 -18 61.5 -33s27 -34.167 34 -57.5s10.5 -51.666 10.5 -84.999v-351h-79l-5 90c-12 -28 -31 -51.833 -57 -71.5
s-60.333 -29.5 -103 -29.5zM237.998 66.999c41.333 0 73.833 12.168 97.5 36.501s35.5 59.166 35.5 104.499v36h-104c-48 0 -81 -7.5 -99 -22.5s-27 -38.5 -27 -70.5c0 -28 7.66699 -49 23 -63s40 -21 74 -21zM272.998 615c-40 0 -73.667 10.668 -101 32.001
s-45 52.666 -53 93.999l60 16c12 -51.333 43.333 -77 94 -77c52 0 84 25.667 96 77l58 -16c-8 -42 -25.5 -73.5 -52.5 -94.5s-60.833 -31.5 -101.5 -31.5z" />
    <glyph glyph-name="Aogonek" unicode="&#x104;" horiz-adv-x="640" 
d="M542 -196c-33.333 0 -57.332 6.66699 -71.999 20s-22 32.333 -22 57c0 43.333 29.333 83 88 119h-15l-63 185h-281l-63 -185h-94l250 700h100l250 -700c-34 -17.333 -58.333 -35.333 -73 -54s-22 -35.667 -22 -51c0 -22 12.667 -33 38 -33c19.333 0 38.333 5.33301 57 16
v-57c-10 -5.33301 -21.333 -9.5 -34 -12.5s-27.334 -4.5 -44.001 -4.5zM205.001 265h225l-112 331z" />
    <glyph glyph-name="aogonek" unicode="&#x105;" horiz-adv-x="535" 
d="M381 -196c-33.333 0 -57.332 6.66602 -71.999 19.999s-22 32.333 -22 57c0 43.333 31 84 93 122l-5 87c-12 -28 -31 -51.833 -57 -71.5s-60.333 -29.5 -103 -29.5c-54 0 -94.833 13.667 -122.5 41s-41.5 66.333 -41.5 117c0 26.667 3.5 49.834 10.5 69.501
s18.833 36.167 35.5 49.5s38.334 23.333 65.001 30s59.667 10 99 10h110v47c0 37.333 -8.66699 63.833 -26 79.5s-49.333 23.5 -96 23.5c-31.333 0 -60.666 -4.33301 -87.999 -13s-50.333 -19.334 -69 -32.001v92c19.333 9.33301 44 17.333 74 24s61.667 10 95 10
c36 0 66.667 -3.5 92 -10.5s45.833 -18 61.5 -33s27 -34.167 34 -57.5s10.5 -51.666 10.5 -84.999v-351c-34 -17.333 -58.5 -35.333 -73.5 -54s-22.5 -35.667 -22.5 -51c0 -10.667 3.16699 -19.167 9.5 -25.5s16.166 -9.5 29.499 -9.5c10 0 19.667 1.33301 29 4
s18.666 6.66699 27.999 12v-55c-10 -5.33301 -21.333 -9.5 -34 -12.5s-27.334 -4.5 -44.001 -4.5zM238.001 66.999c41.333 0 73.833 12.168 97.5 36.501s35.5 59.166 35.5 104.499v36h-104c-48 0 -81 -7.5 -99 -22.5s-27 -38.5 -27 -70.5c0 -28 7.66699 -49 23 -63
s40 -21 74 -21z" />
    <glyph glyph-name="Cacute" unicode="&#x106;" horiz-adv-x="575" 
d="M358 -11c-51.333 0 -96.1689 6.66602 -134.502 19.999s-70.333 34.666 -96 63.999s-45 67.166 -58 113.499s-19.5 102.5 -19.5 168.5c0 62 6.66699 115.5 20 160.5s32.833 82 58.5 111s57.5 50.333 95.5 64s81.667 20.5 131 20.5c24.667 0 47 -1.5 67 -4.5
s37.667 -6.16699 53 -9.5c17.333 -4 33 -8.66699 47 -14v-96c-19.333 11.333 -42.666 20.5 -69.999 27.5s-59.333 10.5 -96 10.5c-34 0 -64.167 -4.83301 -90.5 -14.5s-48.333 -25.167 -66 -46.5s-31 -49.166 -40 -83.499s-13.5 -76.166 -13.5 -125.499
c0 -51.333 4.66699 -94.666 14 -129.999s23 -64.166 41 -86.499s40.333 -38.5 67 -48.5s57.334 -15 92.001 -15c38 0 71.5 5.33301 100.5 16s52.167 21 69.5 31v-97c-14.667 -6.66699 -31 -12.667 -49 -18c-15.333 -4.66699 -33.5 -8.83398 -54.5 -12.501
s-43.833 -5.5 -68.5 -5.5zM378.997 909.999h118l-133 -140h-75z" />
    <glyph glyph-name="cacute" unicode="&#x107;" horiz-adv-x="475" 
d="M300 -11c-42 0 -78.667 5.16895 -110 15.502s-57.166 26.833 -77.499 49.5s-35.666 51.667 -45.999 87s-15.5 77.666 -15.5 126.999c0 92.667 20.667 160.667 62 204s101.333 65 180 65c36 0 65.667 -3.16699 89 -9.5s39.666 -11.5 48.999 -15.5v-95
c-15.333 10.667 -34 19.834 -56 27.501s-47 11.5 -75 11.5c-52 0 -91.5 -14.667 -118.5 -44s-40.5 -77.333 -40.5 -144c0 -70.667 14 -121.334 42 -152.001s70.333 -46 127 -46c24.667 0 49 4.16699 73 12.5s43 18.166 57 29.499v-91
c-9.33301 -5.33301 -25.833 -12 -49.5 -20s-53.834 -12 -90.501 -12zM312 756.002h116l-125 -139h-73z" />
    <glyph glyph-name="Ccircumflex" unicode="&#x108;" horiz-adv-x="575" 
d="M358 -11c-51.333 0 -96.1689 6.66602 -134.502 19.999s-70.333 34.666 -96 63.999s-45 67.166 -58 113.499s-19.5 102.5 -19.5 168.5c0 62 6.66699 115.5 20 160.5s32.833 82 58.5 111s57.5 50.333 95.5 64s81.667 20.5 131 20.5c24.667 0 47 -1.5 67 -4.5
s37.667 -6.16699 53 -9.5c17.333 -4 33 -8.66699 47 -14v-96c-19.333 11.333 -42.666 20.5 -69.999 27.5s-59.333 10.5 -96 10.5c-34 0 -64.167 -4.83301 -90.5 -14.5s-48.333 -25.167 -66 -46.5s-31 -49.166 -40 -83.499s-13.5 -76.166 -13.5 -125.499
c0 -51.333 4.66699 -94.666 14 -129.999s23 -64.166 41 -86.499s40.333 -38.5 67 -48.5s57.334 -15 92.001 -15c38 0 71.5 5.33301 100.5 16s52.167 21 69.5 31v-97c-14.667 -6.66699 -31 -12.667 -49 -18c-15.333 -4.66699 -33.5 -8.83398 -54.5 -12.501
s-43.833 -5.5 -68.5 -5.5zM282.997 909.999h100l115 -140h-78l-87 87l-89 -87h-76z" />
    <glyph glyph-name="ccircumflex" unicode="&#x109;" horiz-adv-x="475" 
d="M300 -11c-42 0 -78.667 5.16895 -110 15.502s-57.166 26.833 -77.499 49.5s-35.666 51.667 -45.999 87s-15.5 77.666 -15.5 126.999c0 92.667 20.667 160.667 62 204s101.333 65 180 65c36 0 65.667 -3.16699 89 -9.5s39.666 -11.5 48.999 -15.5v-95
c-15.333 10.667 -34 19.834 -56 27.501s-47 11.5 -75 11.5c-52 0 -91.5 -14.667 -118.5 -44s-40.5 -77.333 -40.5 -144c0 -70.667 14 -121.334 42 -152.001s70.333 -46 127 -46c24.667 0 49 4.16699 73 12.5s43 18.166 57 29.499v-91
c-9.33301 -5.33301 -25.833 -12 -49.5 -20s-53.834 -12 -90.501 -12zM225 756.002h96l111 -139h-76l-83 88l-85 -88h-74z" />
    <glyph glyph-name="Cdotaccent" unicode="&#x10a;" horiz-adv-x="575" 
d="M358 -11c-51.333 0 -96.1689 6.66602 -134.502 19.999s-70.333 34.666 -96 63.999s-45 67.166 -58 113.499s-19.5 102.5 -19.5 168.5c0 62 6.66699 115.5 20 160.5s32.833 82 58.5 111s57.5 50.333 95.5 64s81.667 20.5 131 20.5c24.667 0 47 -1.5 67 -4.5
s37.667 -6.16699 53 -9.5c17.333 -4 33 -8.66699 47 -14v-96c-19.333 11.333 -42.666 20.5 -69.999 27.5s-59.333 10.5 -96 10.5c-34 0 -64.167 -4.83301 -90.5 -14.5s-48.333 -25.167 -66 -46.5s-31 -49.166 -40 -83.499s-13.5 -76.166 -13.5 -125.499
c0 -51.333 4.66699 -94.666 14 -129.999s23 -64.166 41 -86.499s40.333 -38.5 67 -48.5s57.334 -15 92.001 -15c38 0 71.5 5.33301 100.5 16s52.167 21 69.5 31v-97c-14.667 -6.66699 -31 -12.667 -49 -18c-15.333 -4.66699 -33.5 -8.83398 -54.5 -12.501
s-43.833 -5.5 -68.5 -5.5zM332.997 783.999c-38.667 0 -58 18.667 -58 56s19.333 56 58 56s58 -18.667 58 -56s-19.333 -56 -58 -56z" />
    <glyph glyph-name="cdotaccent" unicode="&#x10b;" horiz-adv-x="475" 
d="M300 -11c-42 0 -78.667 5.16895 -110 15.502s-57.166 26.833 -77.499 49.5s-35.666 51.667 -45.999 87s-15.5 77.666 -15.5 126.999c0 92.667 20.667 160.667 62 204s101.333 65 180 65c36 0 65.667 -3.16699 89 -9.5s39.666 -11.5 48.999 -15.5v-95
c-15.333 10.667 -34 19.834 -56 27.501s-47 11.5 -75 11.5c-52 0 -91.5 -14.667 -118.5 -44s-40.5 -77.333 -40.5 -144c0 -70.667 14 -121.334 42 -152.001s70.333 -46 127 -46c24.667 0 49 4.16699 73 12.5s43 18.166 57 29.499v-91
c-9.33301 -5.33301 -25.833 -12 -49.5 -20s-53.834 -12 -90.501 -12zM273 632.002c-37.333 0 -56 18 -56 54s18.667 54 56 54s56 -18 56 -54s-18.667 -54 -56 -54z" />
    <glyph glyph-name="Ccaron" unicode="&#x10c;" horiz-adv-x="575" 
d="M358 -11c-51.333 0 -96.1689 6.66602 -134.502 19.999s-70.333 34.666 -96 63.999s-45 67.166 -58 113.499s-19.5 102.5 -19.5 168.5c0 62 6.66699 115.5 20 160.5s32.833 82 58.5 111s57.5 50.333 95.5 64s81.667 20.5 131 20.5c24.667 0 47 -1.5 67 -4.5
s37.667 -6.16699 53 -9.5c17.333 -4 33 -8.66699 47 -14v-96c-19.333 11.333 -42.666 20.5 -69.999 27.5s-59.333 10.5 -96 10.5c-34 0 -64.167 -4.83301 -90.5 -14.5s-48.333 -25.167 -66 -46.5s-31 -49.166 -40 -83.499s-13.5 -76.166 -13.5 -125.499
c0 -51.333 4.66699 -94.666 14 -129.999s23 -64.166 41 -86.499s40.333 -38.5 67 -48.5s57.334 -15 92.001 -15c38 0 71.5 5.33301 100.5 16s52.167 21 69.5 31v-97c-14.667 -6.66699 -31 -12.667 -49 -18c-15.333 -4.66699 -33.5 -8.83398 -54.5 -12.501
s-43.833 -5.5 -68.5 -5.5zM167.997 909.999h78l88 -87l88 87h76l-115 -140h-100z" />
    <glyph glyph-name="ccaron" unicode="&#x10d;" horiz-adv-x="475" 
d="M300 -11c-42 0 -78.667 5.16895 -110 15.502s-57.166 26.833 -77.499 49.5s-35.666 51.667 -45.999 87s-15.5 77.666 -15.5 126.999c0 92.667 20.667 160.667 62 204s101.333 65 180 65c36 0 65.667 -3.16699 89 -9.5s39.666 -11.5 48.999 -15.5v-95
c-15.333 10.667 -34 19.834 -56 27.501s-47 11.5 -75 11.5c-52 0 -91.5 -14.667 -118.5 -44s-40.5 -77.333 -40.5 -144c0 -70.667 14 -121.334 42 -152.001s70.333 -46 127 -46c24.667 0 49 4.16699 73 12.5s43 18.166 57 29.499v-91
c-9.33301 -5.33301 -25.833 -12 -49.5 -20s-53.834 -12 -90.501 -12zM114 756.002h76l83 -89l85 89h74l-111 -139h-96z" />
    <glyph glyph-name="Dcaron" unicode="&#x10e;" horiz-adv-x="680" 
d="M290 -6c-22.667 0 -45.167 0.501953 -67.5 1.50195s-42.5 2.16699 -60.5 3.5c-21.333 2 -41.666 4 -60.999 6v690c19.333 1.33301 39.666 3 60.999 5c18 1.33301 38.5 2.66602 61.5 3.99902s46.167 2 69.5 2c60 0 111.333 -6.33301 154 -19s77.5 -32.834 104.5 -60.501
s46.833 -63.667 59.5 -108s19 -97.833 19 -160.5c0 -126.667 -28 -219 -84 -277s-141.333 -87 -256 -87zM534 358.002c0 50 -4.16699 91.6689 -12.5 125.002s-21.833 60 -40.5 80s-43.334 34.333 -74.001 43s-68 13 -112 13c-14.667 0 -28.167 -0.333008 -40.5 -1
s-23.166 -1.33398 -32.499 -2.00098c-10.667 -0.666992 -20.334 -1.33398 -29.001 -2.00098v-528c8 -1.33301 17.333 -2.33301 28 -3c9.33301 -0.666992 19.833 -1.16699 31.5 -1.5s24.834 -0.5 39.501 -0.5c42 0 78.167 4.83301 108.5 14.5s55.5 25.5 75.5 47.5
s34.667 50.667 44 86s14 78.333 14 129zM159 910.004h78l88 -87l88 87h76l-115 -140h-100z" />
    <glyph glyph-name="dcaron" unicode="&#x10f;" horiz-adv-x="660" 
d="M631 753h84l-56 -179h-58zM421 89c-6 -13.333 -13.501 -25.999 -22.501 -37.999s-20.167 -22.5 -33.5 -31.5s-29 -16.333 -47 -22s-38.667 -8.5 -62 -8.5c-34 0 -63.833 5 -89.5 15s-47 26 -64 48s-29.833 50.667 -38.5 86s-13 78.666 -13 129.999
c0 94 17.333 162.333 52 205s84.334 64 149.001 64c44 0 80.333 -8.83301 109 -26.5s48.667 -41.5 60 -71.5v314h88v-753h-82zM140.999 268.001c0 -37.333 3.00098 -68.667 9.00098 -94s14.833 -45.666 26.5 -60.999s26.167 -26.333 43.5 -33s37.666 -10 60.999 -10
c42.667 0 76.667 13.667 102 41s38 67.666 38 120.999v67c0 48 -11.5 86.167 -34.5 114.5s-59.5 42.5 -109.5 42.5c-45.333 0 -79.333 -14 -102 -42s-34 -76.667 -34 -146z" />
    <glyph glyph-name="Dcroat" unicode="&#x110;" horiz-adv-x="690" 
d="M17 391l94 0.00195312v304c19.333 1.33301 39.666 3 60.999 5c18 1.33301 38.5 2.66602 61.5 3.99902s46.167 2 69.5 2c60 0 111.333 -6.33301 154 -19s77.5 -32.834 104.5 -60.501s46.833 -63.667 59.5 -108s19 -97.833 19 -160.5c0 -126.667 -28 -219 -84 -277
s-141.333 -87 -256 -87c-22.667 0 -45.167 0.5 -67.5 1.5s-42.5 2.16699 -60.5 3.5c-21.333 2 -41.666 4 -60.999 6v314h-94v72zM544 358.002c0 50 -4.16699 91.6689 -12.5 125.002s-21.833 60 -40.5 80s-43.334 34.333 -74.001 43s-68 13 -112 13
c-14.667 0 -28.167 -0.333008 -40.5 -1s-23.166 -1.33398 -32.499 -2.00098c-10.667 -0.666992 -20.334 -1.33398 -29.001 -2.00098v-223h166v-72h-166v-233c8 -1.33301 17.333 -2.33301 28 -3c9.33301 -0.666992 19.833 -1.16699 31.5 -1.5s24.834 -0.5 39.501 -0.5
c42 0 78.167 4.83301 108.5 14.5s55.5 25.5 75.5 47.5s34.667 50.667 44 86s14 78.333 14 129z" />
    <glyph glyph-name="dcroat" unicode="&#x111;" horiz-adv-x="590" 
d="M228 665l192.999 0.000976562v88h88v-88h94v-64h-94v-601h-82l-6 89c-6 -13.333 -13.5 -26 -22.5 -38s-20.167 -22.5 -33.5 -31.5s-29 -16.333 -47 -22s-38.667 -8.5 -62 -8.5c-34 0 -63.833 5 -89.5 15s-47 26 -64 48s-29.833 50.667 -38.5 86s-13 78.666 -13 129.999
c0 94 17.333 162.333 52 205s84.334 64 149.001 64c44 0 80.333 -8.83301 109 -26.5s48.667 -41.5 60 -71.5v162h-193v64zM140.999 268.001c0 -37.333 3.00098 -68.667 9.00098 -94s14.833 -45.666 26.5 -60.999s26.167 -26.333 43.5 -33s37.666 -10 60.999 -10
c42.667 0 76.667 13.667 102 41s38 67.666 38 120.999v67c0 48 -11.5 86.167 -34.5 114.5s-59.5 42.5 -109.5 42.5c-45.333 0 -79.333 -14 -102 -42s-34 -76.667 -34 -146z" />
    <glyph glyph-name="Emacron" unicode="&#x112;" horiz-adv-x="575" 
d="M101 700h419v-83h-327v-218h287v-81h-287v-235h327v-83h-419v700zM168 865h284v-70h-284v70z" />
    <glyph glyph-name="emacron" unicode="&#x113;" horiz-adv-x="550" 
d="M297 -11c-84.667 0 -146.831 22.167 -186.498 66.5s-59.5 114.5 -59.5 210.5c0 92.667 20.333 161 61 205s96.667 66 168 66c76 0 131.5 -20.333 166.5 -61s52.5 -105.667 52.5 -195v-41h-360c1.33301 -59.333 15 -103 41 -131s67 -42 123 -42
c33.333 0 64.333 5.5 93 16.5s52 24.167 70 39.5v-88c-16.667 -11.333 -38.834 -21.833 -66.501 -31.5s-61.834 -14.5 -102.501 -14.5zM280.003 462c-45.333 0 -79.833 -12.335 -103.5 -37.002s-36.167 -65 -37.5 -121h272c0 24.667 -2.16699 46.834 -6.5 66.501
s-11.5 36.334 -21.5 50.001s-23.333 24 -40 31s-37.667 10.5 -63 10.5zM151.003 708.998h258v-66h-258v66z" />
    <glyph glyph-name="Edotaccent" unicode="&#x116;" horiz-adv-x="575" 
d="M101 700h419v-83h-327v-218h287v-81h-287v-235h327v-83h-419v700zM310 784c-38.667 0 -58 18.667 -58 56s19.333 56 58 56s58 -18.667 58 -56s-19.333 -56 -58 -56z" />
    <glyph glyph-name="edotaccent" unicode="&#x117;" horiz-adv-x="550" 
d="M297 -11c-84.667 0 -146.831 22.167 -186.498 66.5s-59.5 114.5 -59.5 210.5c0 92.667 20.333 161 61 205s96.667 66 168 66c76 0 131.5 -20.333 166.5 -61s52.5 -105.667 52.5 -195v-41h-360c1.33301 -59.333 15 -103 41 -131s67 -42 123 -42
c33.333 0 64.333 5.5 93 16.5s52 24.167 70 39.5v-88c-16.667 -11.333 -38.834 -21.833 -66.501 -31.5s-61.834 -14.5 -102.501 -14.5zM280.003 462c-45.333 0 -79.833 -12.335 -103.5 -37.002s-36.167 -65 -37.5 -121h272c0 24.667 -2.16699 46.834 -6.5 66.501
s-11.5 36.334 -21.5 50.001s-23.333 24 -40 31s-37.667 10.5 -63 10.5zM278.003 631.998c-37.333 0 -56 18 -56 54s18.667 54 56 54s56 -18 56 -54s-18.667 -54 -56 -54z" />
    <glyph glyph-name="Eogonek" unicode="&#x118;" horiz-adv-x="575" 
d="M101 700h419.001v-83h-327v-218h287v-81h-287v-235h327v-83c-34 -17.333 -58.333 -35.333 -73 -54s-22 -35.667 -22 -51c0 -22 12.667 -33 38 -33c19.333 0 38.333 5.33301 57 16v-57c-10 -5.33301 -21.333 -9.5 -34 -12.5s-27.334 -4.5 -44.001 -4.5
c-33.333 0 -57.333 6.66699 -72 20s-22 32.333 -22 57c0 43.333 29.333 83 88 119h-335v700z" />
    <glyph glyph-name="eogonek" unicode="&#x119;" horiz-adv-x="550" 
d="M297 -11c-84.667 0 -146.833 22.1699 -186.5 66.5029s-59.5 114.5 -59.5 210.5c0 92.667 20.333 161 61 205s96.667 66 168 66c76 0 131.5 -20.333 166.5 -61s52.5 -105.667 52.5 -195v-41h-360c1.33301 -59.333 15 -103 41 -131s67 -42 123 -42
c33.333 0 64.333 5.5 93 16.5s52 24.167 70 39.5v-88l-5 -4c-22.667 -15.333 -41.5 -29.333 -56.5 -42s-27 -24.334 -36 -35.001s-15.5 -20.667 -19.5 -30s-6 -19 -6 -29c0 -10.667 3.33301 -19.167 10 -25.5s16.667 -9.5 30 -9.5c10 0 19.5 1.33301 28.5 4
s18.167 6.66699 27.5 12v-55c-10 -5.33301 -21.167 -9.5 -33.5 -12.5s-26.833 -4.5 -43.5 -4.5c-33.333 0 -57.333 6.66699 -72 20s-22 32.333 -22 57c0 21.333 6 41.166 18 59.499s28.333 35.166 49 50.499c-6 -0.666992 -12.167 -1.16699 -18.5 -1.5
s-12.833 -0.5 -19.5 -0.5zM280.001 462.003c-45.333 0 -79.833 -12.335 -103.5 -37.002s-36.167 -65 -37.5 -121h272c0 24.667 -2.16699 46.834 -6.5 66.501s-11.5 36.334 -21.5 50.001s-23.333 24 -40 31s-37.667 10.5 -63 10.5z" />
    <glyph glyph-name="Ecaron" unicode="&#x11a;" horiz-adv-x="575" 
d="M101 700h419v-83h-327v-218h287v-81h-287v-235h327v-83h-419v700zM145 910h78l88 -87l88 87h76l-115 -140h-100z" />
    <glyph glyph-name="ecaron" unicode="&#x11b;" horiz-adv-x="550" 
d="M297 -11c-84.667 0 -146.831 22.167 -186.498 66.5s-59.5 114.5 -59.5 210.5c0 92.667 20.333 161 61 205s96.667 66 168 66c76 0 131.5 -20.333 166.5 -61s52.5 -105.667 52.5 -195v-41h-360c1.33301 -59.333 15 -103 41 -131s67 -42 123 -42
c33.333 0 64.333 5.5 93 16.5s52 24.167 70 39.5v-88c-16.667 -11.333 -38.834 -21.833 -66.501 -31.5s-61.834 -14.5 -102.501 -14.5zM280.003 462c-45.333 0 -79.833 -12.335 -103.5 -37.002s-36.167 -65 -37.5 -121h272c0 24.667 -2.16699 46.834 -6.5 66.501
s-11.5 36.334 -21.5 50.001s-23.333 24 -40 31s-37.667 10.5 -63 10.5zM119.003 755.998h76l83 -89l85 89h74l-111 -139h-96z" />
    <glyph glyph-name="Gcircumflex" unicode="&#x11c;" horiz-adv-x="650" 
d="M377 -11c-55.333 0 -103.499 6.83594 -144.499 20.5029s-75 35.167 -102 64.5s-47.167 67.166 -60.5 113.499s-20 102.166 -20 167.499c0 122.667 27.667 212.667 83 270s136.666 86 243.999 86c25.333 0 48 -1.5 68 -4.5s37 -6.16699 51 -9.5
c16.667 -4 31.334 -8.66699 44.001 -14v-96c-18.667 9.33301 -42 18 -70 26s-59 12 -93 12c-77.333 0 -135.166 -20.833 -173.499 -62.5s-57.5 -110.834 -57.5 -207.501c0 -51.333 4.66699 -94.833 14 -130.5s23.5 -64.5 42.5 -86.5s43 -38 72 -48s63.167 -15 102.5 -15
c21.333 0 41.666 1.5 60.999 4.5s36.666 7.16699 51.999 12.5v188h-133v80h223v-327c-18.667 -9.33301 -45.667 -19 -81 -29s-76 -15 -122 -15zM307.001 910.003h100l115 -140h-78l-87 87l-89 -87h-76z" />
    <glyph glyph-name="gcircumflex" unicode="&#x11d;" horiz-adv-x="590" 
d="M272 -191c-40 0 -75.501 3.66895 -106.501 11.002s-55.5 15.666 -73.5 24.999v102c6.66699 -6 15.834 -12.5 27.501 -19.5s25.167 -13.167 40.5 -18.5s32.166 -9.83301 50.499 -13.5s38.166 -5.5 59.499 -5.5c54 0 92.667 11.333 116 34s35 57.667 35 105v76
c-6 -13.333 -13.5 -26 -22.5 -38s-20.167 -22.5 -33.5 -31.5s-29 -16.333 -47 -22s-38.667 -8.5 -62 -8.5c-68 0 -119.167 20.667 -153.5 62s-51.5 109.666 -51.5 204.999c0 92 17.333 159.167 52 201.5s84.334 63.5 149.001 63.5c44 0 80.333 -8.83301 109 -26.5
s48.667 -41.5 60 -71.5l6 87h82v-491c0 -78.667 -19.167 -136 -57.5 -172s-98.166 -54 -179.499 -54zM280.999 86.002c42.667 0 76.668 13.998 102.001 41.998s38 67.667 38 119v57c0 22.667 -2.83301 43.334 -8.5 62.001s-14.5 34.667 -26.5 48s-27 23.666 -45 30.999
s-39.333 11 -64 11c-45.333 0 -79.333 -13.667 -102 -41s-34 -73.666 -34 -138.999c0 -35.333 3 -65.166 9 -89.499s14.833 -44 26.5 -59s26.167 -25.667 43.5 -32s37.666 -9.5 60.999 -9.5zM232 756h96l111 -139h-76l-83 88l-85 -88h-74z" />
    <glyph glyph-name="Gbreve" unicode="&#x11e;" horiz-adv-x="650" 
d="M377 -11c-55.333 0 -103.499 6.83594 -144.499 20.5029s-75 35.167 -102 64.5s-47.167 67.166 -60.5 113.499s-20 102.166 -20 167.499c0 122.667 27.667 212.667 83 270s136.666 86 243.999 86c25.333 0 48 -1.5 68 -4.5s37 -6.16699 51 -9.5
c16.667 -4 31.334 -8.66699 44.001 -14v-96c-18.667 9.33301 -42 18 -70 26s-59 12 -93 12c-77.333 0 -135.166 -20.833 -173.499 -62.5s-57.5 -110.834 -57.5 -207.501c0 -51.333 4.66699 -94.833 14 -130.5s23.5 -64.5 42.5 -86.5s43 -38 72 -48s63.167 -15 102.5 -15
c21.333 0 41.666 1.5 60.999 4.5s36.666 7.16699 51.999 12.5v188h-133v80h223v-327c-18.667 -9.33301 -45.667 -19 -81 -29s-76 -15 -122 -15zM357.001 769.003c-42 0 -76.668 10.5 -104.001 31.5s-45.666 52.167 -54.999 93.5l62 17
c7.33301 -25.333 18.333 -44.166 33 -56.499s36 -18.5 64 -18.5s49.667 6.16699 65 18.5s26.333 31.166 33 56.499l61 -17c-9.33301 -41.333 -27.5 -72.5 -54.5 -93.5s-61.833 -31.5 -104.5 -31.5z" />
    <glyph glyph-name="gbreve" unicode="&#x11f;" horiz-adv-x="590" 
d="M272 -191c-40 0 -75.501 3.66895 -106.501 11.002s-55.5 15.666 -73.5 24.999v102c6.66699 -6 15.834 -12.5 27.501 -19.5s25.167 -13.167 40.5 -18.5s32.166 -9.83301 50.499 -13.5s38.166 -5.5 59.499 -5.5c54 0 92.667 11.333 116 34s35 57.667 35 105v76
c-6 -13.333 -13.5 -26 -22.5 -38s-20.167 -22.5 -33.5 -31.5s-29 -16.333 -47 -22s-38.667 -8.5 -62 -8.5c-68 0 -119.167 20.667 -153.5 62s-51.5 109.666 -51.5 204.999c0 92 17.333 159.167 52 201.5s84.334 63.5 149.001 63.5c44 0 80.333 -8.83301 109 -26.5
s48.667 -41.5 60 -71.5l6 87h82v-491c0 -78.667 -19.167 -136 -57.5 -172s-98.166 -54 -179.499 -54zM280.999 86.002c42.667 0 76.668 13.998 102.001 41.998s38 67.667 38 119v57c0 22.667 -2.83301 43.334 -8.5 62.001s-14.5 34.667 -26.5 48s-27 23.666 -45 30.999
s-39.333 11 -64 11c-45.333 0 -79.333 -13.667 -102 -41s-34 -73.666 -34 -138.999c0 -35.333 3 -65.166 9 -89.499s14.833 -44 26.5 -59s26.167 -25.667 43.5 -32s37.666 -9.5 60.999 -9.5zM280 615c-40 0 -73.667 10.668 -101 32.001s-45 52.666 -53 93.999l60 16
c12 -51.333 43.333 -77 94 -77c52 0 84 25.667 96 77l58 -16c-8 -42 -25.5 -73.5 -52.5 -94.5s-60.833 -31.5 -101.5 -31.5z" />
    <glyph glyph-name="Gdotaccent" unicode="&#x120;" horiz-adv-x="650" 
d="M377 -11c-55.333 0 -103.499 6.83594 -144.499 20.5029s-75 35.167 -102 64.5s-47.167 67.166 -60.5 113.499s-20 102.166 -20 167.499c0 122.667 27.667 212.667 83 270s136.666 86 243.999 86c25.333 0 48 -1.5 68 -4.5s37 -6.16699 51 -9.5
c16.667 -4 31.334 -8.66699 44.001 -14v-96c-18.667 9.33301 -42 18 -70 26s-59 12 -93 12c-77.333 0 -135.166 -20.833 -173.499 -62.5s-57.5 -110.834 -57.5 -207.501c0 -51.333 4.66699 -94.833 14 -130.5s23.5 -64.5 42.5 -86.5s43 -38 72 -48s63.167 -15 102.5 -15
c21.333 0 41.666 1.5 60.999 4.5s36.666 7.16699 51.999 12.5v188h-133v80h223v-327c-18.667 -9.33301 -45.667 -19 -81 -29s-76 -15 -122 -15zM357.001 784.003c-38.667 0 -58 18.667 -58 56s19.333 56 58 56s58 -18.667 58 -56s-19.333 -56 -58 -56z" />
    <glyph glyph-name="gdotaccent" unicode="&#x121;" horiz-adv-x="590" 
d="M272 -191c-40 0 -75.501 3.66895 -106.501 11.002s-55.5 15.666 -73.5 24.999v102c6.66699 -6 15.834 -12.5 27.501 -19.5s25.167 -13.167 40.5 -18.5s32.166 -9.83301 50.499 -13.5s38.166 -5.5 59.499 -5.5c54 0 92.667 11.333 116 34s35 57.667 35 105v76
c-6 -13.333 -13.5 -26 -22.5 -38s-20.167 -22.5 -33.5 -31.5s-29 -16.333 -47 -22s-38.667 -8.5 -62 -8.5c-68 0 -119.167 20.667 -153.5 62s-51.5 109.666 -51.5 204.999c0 92 17.333 159.167 52 201.5s84.334 63.5 149.001 63.5c44 0 80.333 -8.83301 109 -26.5
s48.667 -41.5 60 -71.5l6 87h82v-491c0 -78.667 -19.167 -136 -57.5 -172s-98.166 -54 -179.499 -54zM280.999 86.002c42.667 0 76.668 13.998 102.001 41.998s38 67.667 38 119v57c0 22.667 -2.83301 43.334 -8.5 62.001s-14.5 34.667 -26.5 48s-27 23.666 -45 30.999
s-39.333 11 -64 11c-45.333 0 -79.333 -13.667 -102 -41s-34 -73.666 -34 -138.999c0 -35.333 3 -65.166 9 -89.499s14.833 -44 26.5 -59s26.167 -25.667 43.5 -32s37.666 -9.5 60.999 -9.5zM280 632c-37.333 0 -56 18 -56 54s18.667 54 56 54s56 -18 56 -54
s-18.667 -54 -56 -54z" />
    <glyph glyph-name="Gcommaaccent" unicode="&#x122;" horiz-adv-x="650" 
d="M377 -11c-55.333 0 -103.499 6.83594 -144.499 20.5029s-75 35.167 -102 64.5s-47.167 67.166 -60.5 113.499s-20 102.166 -20 167.499c0 122.667 27.667 212.667 83 270s136.666 86 243.999 86c25.333 0 48 -1.5 68 -4.5s37 -6.16699 51 -9.5
c16.667 -4 31.334 -8.66699 44.001 -14v-96c-18.667 9.33301 -42 18 -70 26s-59 12 -93 12c-77.333 0 -135.166 -20.833 -173.499 -62.5s-57.5 -110.834 -57.5 -207.501c0 -51.333 4.66699 -94.833 14 -130.5s23.5 -64.5 42.5 -86.5s43 -38 72 -48s63.167 -15 102.5 -15
c21.333 0 41.666 1.5 60.999 4.5s36.666 7.16699 51.999 12.5v188h-133v80h223v-327c-18.667 -9.33301 -45.667 -19 -81 -29s-76 -15 -122 -15zM294.001 -172.997c16 1.33301 30.6689 4.5 44.002 9.5s21.333 14.167 24 27.5c-30 0 -49.833 3.83301 -59.5 11.5
s-14.5 18.167 -14.5 31.5c0 12.667 5.16699 23.167 15.5 31.5s28.166 12.5 53.499 12.5c23.333 0 40.666 -5.16699 51.999 -15.5s17 -24.5 17 -42.5c0 -28.667 -10.5 -54 -31.5 -76s-52.167 -34.667 -93.5 -38z" />
    <glyph glyph-name="gcommaaccent" unicode="&#x123;" horiz-adv-x="590" 
d="M272 -191c-40 0 -75.501 3.66895 -106.501 11.002s-55.5 15.666 -73.5 24.999v102c6.66699 -6 15.834 -12.5 27.501 -19.5s25.167 -13.167 40.5 -18.5s32.166 -9.83301 50.499 -13.5s38.166 -5.5 59.499 -5.5c54 0 92.667 11.333 116 34s35 57.667 35 105v76
c-6 -13.333 -13.5 -26 -22.5 -38s-20.167 -22.5 -33.5 -31.5s-29 -16.333 -47 -22s-38.667 -8.5 -62 -8.5c-68 0 -119.167 20.667 -153.5 62s-51.5 109.666 -51.5 204.999c0 92 17.333 159.167 52 201.5s84.334 63.5 149.001 63.5c44 0 80.333 -8.83301 109 -26.5
s48.667 -41.5 60 -71.5l6 87h82v-491c0 -78.667 -19.167 -136 -57.5 -172s-98.166 -54 -179.499 -54zM280.999 86.002c42.667 0 76.668 13.998 102.001 41.998s38 67.667 38 119v57c0 22.667 -2.83301 43.334 -8.5 62.001s-14.5 34.667 -26.5 48s-27 23.666 -45 30.999
s-39.333 11 -64 11c-45.333 0 -79.333 -13.667 -102 -41s-34 -73.666 -34 -138.999c0 -35.333 3 -65.166 9 -89.499s14.833 -44 26.5 -59s26.167 -25.667 43.5 -32s37.666 -9.5 60.999 -9.5zM340.005 742.979c-19.3311 -1.33301 -34.8291 -4.83008 -46.4941 -10.4961
s-18.498 -14.832 -20.498 -27.4971c28.6631 0 47.9941 -3.66602 57.9932 -10.999c9.99902 -7.33203 14.998 -17.6641 14.998 -30.9961c0 -12.665 -5.16602 -23.1641 -15.498 -31.4971c-10.332 -8.33203 -27.1631 -12.498 -50.4941 -12.498
c-43.9941 0 -65.9912 20.6641 -65.9912 61.9922c0 11.999 2.33301 24.1641 6.99902 36.4961c4.66602 12.3311 11.832 23.6631 21.4971 33.9951s21.9971 18.998 36.9961 25.9971c14.998 6.99902 32.8291 11.498 53.4932 13.4971z" />
    <glyph glyph-name="Hcircumflex" unicode="&#x124;" horiz-adv-x="720" 
d="M101 700h92v-299h334v299h92v-700h-92v317h-334v-317h-92v700zM310 910h100l115 -140h-78l-87 87l-89 -87h-76z" />
    <glyph glyph-name="hcircumflex" unicode="&#x125;" horiz-adv-x="585" 
d="M81 753h88.001v-316c14.667 32 35 56.667 61 74s60 26 102 26c59.333 0 103.666 -15.333 132.999 -46s44 -81.334 44 -152.001v-339h-88v308c0 28 -2.16699 51.5 -6.5 70.5s-11.333 34.333 -21 46s-22 19.834 -37 24.501s-33.167 7 -54.5 7
c-42 0 -74.667 -12.333 -98 -37s-35 -61.667 -35 -111v-308h-88v753zM78.001 935h96l111 -139h-76l-83 88l-85 -88h-74z" />
    <glyph glyph-name="Hbar" unicode="&#x126;" horiz-adv-x="740" 
d="M17 586h94v114h92v-114h334v114h92v-114h94v-72h-94v-514h-92v317h-334v-317h-92v514h-94v72zM537 401v113h-334v-113h334z" />
    <glyph glyph-name="hbar" unicode="&#x127;" horiz-adv-x="605" 
d="M7 667h94.001v86h88v-86h200v-68h-200v-162c14.667 32 35 56.667 61 74s60 26 102 26c59.333 0 103.666 -15.333 132.999 -46s44 -81.334 44 -152.001v-339h-88v308c0 28 -2.16699 51.5 -6.5 70.5s-11.333 34.333 -21 46s-22 19.834 -37 24.501s-33.167 7 -54.5 7
c-42 0 -74.667 -12.333 -98 -37s-35 -61.667 -35 -111v-308h-88v599h-94v68z" />
    <glyph glyph-name="Imacron" unicode="&#x12a;" horiz-adv-x="330" 
d="M119 700h92v-700h-92v700zM24 865h284v-70h-284v70z" />
    <glyph glyph-name="imacron" unicode="&#x12b;" horiz-adv-x="290" 
d="M101 526h88v-526h-88v526zM19 709h258v-66h-258v66z" />
    <glyph glyph-name="Iogonek" unicode="&#x12e;" horiz-adv-x="330" 
d="M119 700h92.0029v-699l3 -1c-34 -17.333 -58.5 -35.333 -73.5 -54s-22.5 -35.667 -22.5 -51c0 -10.667 3.16699 -19.167 9.5 -25.5s16.166 -9.5 29.499 -9.5c10 0 19.667 1.33301 29 4s18.666 6.66699 27.999 12v-55c-10 -5.33301 -21.333 -9.5 -34 -12.5
s-27.334 -4.5 -44.001 -4.5c-33.333 0 -57.333 6.66699 -72 20s-22 32.333 -22 57c0 42 29 81.667 87 119h-10v700z" />
    <glyph glyph-name="iogonek" unicode="&#x12f;" horiz-adv-x="290" 
d="M101 526h88.0029v-524l5 -2c-34 -17.333 -58.5 -35.333 -73.5 -54s-22.5 -35.667 -22.5 -51c0 -10.667 3.16699 -19.167 9.5 -25.5s16.166 -9.5 29.499 -9.5c10 0 19.667 1.33301 29 4s18.666 6.66699 27.999 12v-55c-10 -5.33301 -21.333 -9.5 -34 -12.5
s-27.334 -4.5 -44.001 -4.5c-33.333 0 -57.333 6.66699 -72 20s-22 32.333 -22 57c0 42 29 81.667 87 119h-8v526zM145.003 632c-37.333 0 -56 18 -56 54s18.667 54 56 54s56 -18 56 -54s-18.667 -54 -56 -54z" />
    <glyph glyph-name="Idotaccent" unicode="&#x130;" horiz-adv-x="330" 
d="M119 700h92v-700h-92v700zM165 784c-38.667 0 -58 18.667 -58 56s19.333 56 58 56s58 -18.667 58 -56s-19.333 -56 -58 -56z" />
    <glyph glyph-name="dotlessi" unicode="&#x131;" horiz-adv-x="290" 
d="M101 526h88v-526h-88v526z" />
    <glyph glyph-name="Jcircumflex" unicode="&#x134;" horiz-adv-x="420" 
d="M140 -11c-16 0 -30.332 0.833008 -42.999 2.5s-23.667 3.83398 -33 6.50098c-10.667 2.66699 -20.334 5.66699 -29.001 9v97c7.33301 -6 15.666 -11 24.999 -15c8 -3.33301 18 -6.5 30 -9.5s25.667 -4.5 41 -4.5c30.667 0 53.334 8.16699 68.001 24.5
s22 44.166 22 83.499v517h93v-517c0 -70 -14 -119.833 -42 -149.5s-72 -44.5 -132 -44.5zM218.001 910h100l115 -140h-78l-87 87l-89 -87h-76z" />
    <glyph glyph-name="jcircumflex" unicode="&#x135;" horiz-adv-x="290" 
d="M53 -186c-17.333 0 -32.8311 1.33203 -46.498 3.99902s-22.834 5.33398 -27.501 8.00098v88c7.33301 -5.33301 16.166 -9.66602 26.499 -12.999s21.833 -5 34.5 -5c21.333 0 36.833 5.66699 46.5 17s14.5 32.333 14.5 63v550h88v-553
c0 -56.667 -11.333 -97.334 -34 -122.001s-56.667 -37 -102 -37zM98.002 755.999h96l111 -139h-76l-83 88l-85 -88h-74z" />
    <glyph glyph-name="Kcommaaccent" unicode="&#x136;" horiz-adv-x="655" 
d="M266 317h-73v-317h-92v700h92v-300h73l231 300h113l-266 -340l286 -360h-116zM302 -173c16 1.33301 30.6689 4.5 44.002 9.5s21.333 14.167 24 27.5c-30 0 -49.833 3.83301 -59.5 11.5s-14.5 18.167 -14.5 31.5c0 12.667 5.16699 23.167 15.5 31.5
s28.166 12.5 53.499 12.5c23.333 0 40.666 -5.16699 51.999 -15.5s17 -24.5 17 -42.5c0 -28.667 -10.5 -54 -31.5 -76s-52.167 -34.667 -93.5 -38z" />
    <glyph glyph-name="kcommaaccent" unicode="&#x137;" horiz-adv-x="555" 
d="M81 753h88v-440h60l167 213h103l-199 -251l219 -275h-106l-184 234h-60v-234h-88v753zM240 -173c19.333 1.33301 34.835 4.83203 46.502 10.499s18.5 14.834 20.5 27.501c-28.667 0 -48 3.66699 -58 11s-15 17.666 -15 30.999c0 12.667 5.16699 23.167 15.5 31.5
s27.166 12.5 50.499 12.5c44 0 66 -20.667 66 -62c0 -12 -2.33301 -24.167 -7 -36.5s-11.834 -23.666 -21.501 -33.999s-22 -19 -37 -26s-32.833 -11.5 -53.5 -13.5z" />
    <glyph glyph-name="Lacute" unicode="&#x139;" horiz-adv-x="530" 
d="M101 700h92v-617h307v-83h-399v700zM196 910h118l-133 -140h-75z" />
    <glyph glyph-name="lacute" unicode="&#x13a;" horiz-adv-x="315" 
d="M205 -6c-44.667 0 -77.333 10.668 -98 32.001s-31 54.666 -31 99.999v627h88v-610c0 -26 4.33301 -43.5 13 -52.5s23.334 -13.5 44.001 -13.5c11.333 0 22.666 1.66699 33.999 5s19.666 6.33301 24.999 9v-82c-5.33301 -2 -14.666 -5 -27.999 -9s-29 -6 -47 -6z
M161.001 903.001h109l-117 -121h-69z" />
    <glyph glyph-name="Lcommaaccent" unicode="&#x13b;" horiz-adv-x="530" 
d="M101 700h92v-617h307v-83h-399v700zM237 -173c16 1.33301 30.6689 4.5 44.002 9.5s21.333 14.167 24 27.5c-30 0 -49.833 3.83301 -59.5 11.5s-14.5 18.167 -14.5 31.5c0 12.667 5.16699 23.167 15.5 31.5s28.166 12.5 53.499 12.5
c23.333 0 40.666 -5.16699 51.999 -15.5s17 -24.5 17 -42.5c0 -28.667 -10.5 -54 -31.5 -76s-52.167 -34.667 -93.5 -38z" />
    <glyph glyph-name="lcommaaccent" unicode="&#x13c;" horiz-adv-x="315" 
d="M205 -6c-44.667 0 -77.333 10.668 -98 32.001s-31 54.666 -31 99.999v627h88v-610c0 -26 4.33301 -43.5 13 -52.5s23.334 -13.5 44.001 -13.5c11.333 0 22.666 1.66699 33.999 5s19.666 6.33301 24.999 9v-82c-5.33301 -2 -14.666 -5 -27.999 -9s-29 -6 -47 -6z
M123.001 -172.999c19.333 1.33301 34.835 4.83203 46.502 10.499s18.5 14.834 20.5 27.501c-28.667 0 -48 3.66699 -58 11s-15 17.666 -15 30.999c0 12.667 5.16699 23.167 15.5 31.5s27.166 12.5 50.499 12.5c44 0 66 -20.667 66 -62c0 -12 -2.33301 -24.167 -7 -36.5
s-11.834 -23.666 -21.501 -33.999s-22 -19 -37 -26s-32.833 -11.5 -53.5 -13.5z" />
    <glyph glyph-name="Lcaron" unicode="&#x13d;" horiz-adv-x="530" 
d="M365 700h89l-62 -186h-63zM101 700h92v-617h307v-83h-399v700z" />
    <glyph glyph-name="lcaron" unicode="&#x13e;" horiz-adv-x="375" 
d="M292 753h85l-63 -179h-59zM205 -6c-44.667 0 -77.333 10.668 -98 32.001s-31 54.666 -31 99.999v627h88v-610c0 -26 4.33301 -43.5 13 -52.5s23.334 -13.5 44.001 -13.5c11.333 0 22.666 1.66699 33.999 5s19.666 6.33301 24.999 9v-82
c-5.33301 -2 -14.666 -5 -27.999 -9s-29 -6 -47 -6z" />
    <glyph glyph-name="Ldot" unicode="&#x13f;" horiz-adv-x="530" 
d="M101 700h92v-617h307v-83h-399v700zM412 316c-42.667 0 -64 21.333 -64 64s21.333 64 64 64s64 -21.333 64 -64s-21.333 -64 -64 -64z" />
    <glyph glyph-name="ldot" unicode="&#x140;" horiz-adv-x="415" 
d="M205 -6c-44.667 0 -77.333 10.668 -98 32.001s-31 54.666 -31 99.999v627h88v-610c0 -26 4.33301 -43.5 13 -52.5s23.334 -13.5 44.001 -13.5c11.333 0 22.666 1.66699 33.999 5s19.666 6.33301 24.999 9v-82c-5.33301 -2 -14.666 -5 -27.999 -9s-29 -6 -47 -6z
M325.001 316.001c-42.667 0 -64 21.333 -64 64s21.333 64 64 64s64 -21.333 64 -64s-21.333 -64 -64 -64z" />
    <glyph glyph-name="Lslash" unicode="&#x141;" horiz-adv-x="540" 
d="M17 341l94 54v305h92v-252l153 89v-81l-153 -89v-284h307v-83h-399v314l-94 -54v81z" />
    <glyph glyph-name="lslash" unicode="&#x142;" horiz-adv-x="370" 
d="M17 367l100.002 57.001v329h88v-278l107 62v-78l-107 -62v-254c0 -26 4.5 -43.5 13.5 -52.5s23.5 -13.5 43.5 -13.5c11.333 0 22.666 1.66699 33.999 5s19.666 6.33301 24.999 9v-82c-5.33301 -2 -14.666 -5 -27.999 -9s-29 -6 -47 -6
c-44.667 0 -77.334 10.667 -98.001 32s-31 54.666 -31 99.999v220l-100 -57v78z" />
    <glyph glyph-name="Nacute" unicode="&#x143;" horiz-adv-x="740" 
d="M101 700h103.001l286 -454l22.5 -39l18.5 -34l17 -33h2c-0.666992 10 -1.33398 21 -2.00098 33c-0.666992 10 -1 21.333 -1 34v39v454h92v-700h-103l-286 454c-9.33301 15.333 -17.5 29.333 -24.5 42l-18.5 33c-6 11.333 -11 21.666 -15 30.999h-2
c0 -9.33301 0.333008 -19.666 1 -30.999c0.666992 -9.33301 1.16699 -20.333 1.5 -33s0.5 -26.667 0.5 -42v-454h-92v700zM415.001 910h118l-133 -140h-75z" />
    <glyph glyph-name="nacute" unicode="&#x144;" horiz-adv-x="585" 
d="M81 526l82.001 0.000976562l6 -89c14.667 32 35 56.667 61 74s60 26 102 26c59.333 0 103.666 -15.333 132.999 -46s44 -81.334 44 -152.001v-339h-88v310c0 28 -2.16699 51.333 -6.5 70s-11.333 33.667 -21 45s-22 19.333 -37 24s-33.167 7 -54.5 7
c-42 0 -74.667 -12.333 -98 -37s-35 -61 -35 -109v-310h-88v526zM333.001 756.001h116l-125 -139h-73z" />
    <glyph glyph-name="Ncommaaccent" unicode="&#x145;" horiz-adv-x="740" 
d="M101 700h103.001l286 -454l22.5 -39l18.5 -34l17 -33h2c-0.666992 10 -1.33398 21 -2.00098 33c-0.666992 10 -1 21.333 -1 34v39v454h92v-700h-103l-286 454c-9.33301 15.333 -17.5 29.333 -24.5 42l-18.5 33c-6 11.333 -11 21.666 -15 30.999h-2
c0 -9.33301 0.333008 -19.666 1 -30.999c0.666992 -9.33301 1.16699 -20.333 1.5 -33s0.5 -26.667 0.5 -42v-454h-92v700zM307.001 -173c16 1.33301 30.6689 4.5 44.002 9.5s21.333 14.167 24 27.5c-30 0 -49.833 3.83301 -59.5 11.5s-14.5 18.167 -14.5 31.5
c0 12.667 5.16699 23.167 15.5 31.5s28.166 12.5 53.499 12.5c23.333 0 40.666 -5.16699 51.999 -15.5s17 -24.5 17 -42.5c0 -28.667 -10.5 -54 -31.5 -76s-52.167 -34.667 -93.5 -38z" />
    <glyph glyph-name="ncommaaccent" unicode="&#x146;" horiz-adv-x="585" 
d="M81 526l82.001 0.000976562l6 -89c14.667 32 35 56.667 61 74s60 26 102 26c59.333 0 103.666 -15.333 132.999 -46s44 -81.334 44 -152.001v-339h-88v310c0 28 -2.16699 51.333 -6.5 70s-11.333 33.667 -21 45s-22 19.333 -37 24s-33.167 7 -54.5 7
c-42 0 -74.667 -12.333 -98 -37s-35 -61 -35 -109v-310h-88v526zM235.001 -172.999c19.333 1.33301 34.835 4.83203 46.502 10.499s18.5 14.834 20.5 27.501c-28.667 0 -48 3.66699 -58 11s-15 17.666 -15 30.999c0 12.667 5.16699 23.167 15.5 31.5
s27.166 12.5 50.499 12.5c44 0 66 -20.667 66 -62c0 -12 -2.33301 -24.167 -7 -36.5s-11.834 -23.666 -21.501 -33.999s-22 -19 -37 -26s-32.833 -11.5 -53.5 -13.5z" />
    <glyph glyph-name="Ncaron" unicode="&#x147;" horiz-adv-x="740" 
d="M101 700h103.001l286 -454l22.5 -39l18.5 -34l17 -33h2c-0.666992 10 -1.33398 21 -2.00098 33c-0.666992 10 -1 21.333 -1 34v39v454h92v-700h-103l-286 454c-9.33301 15.333 -17.5 29.333 -24.5 42l-18.5 33c-6 11.333 -11 21.666 -15 30.999h-2
c0 -9.33301 0.333008 -19.666 1 -30.999c0.666992 -9.33301 1.16699 -20.333 1.5 -33s0.5 -26.667 0.5 -42v-454h-92v700zM205.001 910h78l88 -87l88 87h76l-115 -140h-100z" />
    <glyph glyph-name="ncaron" unicode="&#x148;" horiz-adv-x="585" 
d="M81 526l82.001 0.000976562l6 -89c14.667 32 35 56.667 61 74s60 26 102 26c59.333 0 103.666 -15.333 132.999 -46s44 -81.334 44 -152.001v-339h-88v310c0 28 -2.16699 51.333 -6.5 70s-11.333 33.667 -21 45s-22 19.333 -37 24s-33.167 7 -54.5 7
c-42 0 -74.667 -12.333 -98 -37s-35 -61 -35 -109v-310h-88v526zM136.001 756.001h76l83 -89l85 89h74l-111 -139h-96z" />
    <glyph glyph-name="Omacron" unicode="&#x14c;" horiz-adv-x="710" 
d="M355 -11c-49.333 0 -92.834 7.00293 -130.501 21.0029s-69.5 35.667 -95.5 65s-45.667 66.666 -59 111.999s-20 99.666 -20 162.999s6.66699 117.666 20 162.999s33 82.666 59 111.999s57.833 51 95.5 65s81.167 21 130.5 21c50.667 0 95 -6.66699 133 -20
s69.833 -34.5 95.5 -63.5s44.834 -66.333 57.501 -112s19 -100.834 19 -165.501c0 -63.333 -6.66699 -117.666 -20 -162.999s-33 -82.666 -59 -111.999s-58 -51 -96 -65s-81.333 -21 -130 -21zM354.999 73.0029c34 0 64 4.83301 90 14.5s47.833 25.5 65.5 47.5
s31 50.667 40 86s13.5 78.333 13.5 129s-4.5 93.667 -13.5 129s-22.333 64 -40 86s-39.5 37.833 -65.5 47.5s-56 14.5 -90 14.5c-33.333 0 -63 -5 -89 -15s-47.833 -26 -65.5 -48s-31.167 -50.5 -40.5 -85.5s-14 -77.833 -14 -128.5c0 -50 4.66699 -92.5 14 -127.5
s22.833 -63.667 40.5 -86s39.5 -38.5 65.5 -48.5s55.667 -15 89 -15zM212.999 865.003h284v-70h-284v70z" />
    <glyph glyph-name="omacron" unicode="&#x14d;" horiz-adv-x="570" 
d="M285 -11c-76.667 0 -134.833 21.667 -174.5 65s-59.5 113 -59.5 209c0 93.333 20.667 162.333 62 207s98.666 67 171.999 67c78 0 136.5 -21.167 175.5 -63.5s58.5 -112.5 58.5 -210.5c0 -96 -20.167 -165.667 -60.5 -209s-98.166 -65 -173.499 -65zM285.001 70
c24 0 45 3.33301 63 10s33 17.5 45 32.5s21 34.833 27 59.5s9 55 9 91s-3 66.333 -9 91s-15 44.5 -27 59.5s-27 25.833 -45 32.5s-39 10 -63 10c-46 0 -81.5 -14.5 -106.5 -43.5s-37.5 -78.833 -37.5 -149.5c0 -36 3 -66.333 9 -91s15 -44.5 27 -59.5s27 -25.833 45 -32.5
s39 -10 63 -10zM158.001 709h258v-66h-258v66z" />
    <glyph glyph-name="Ohungarumlaut" unicode="&#x150;" horiz-adv-x="710" 
d="M355 -11c-49.333 0 -92.834 7.00293 -130.501 21.0029s-69.5 35.667 -95.5 65s-45.667 66.666 -59 111.999s-20 99.666 -20 162.999s6.66699 117.666 20 162.999s33 82.666 59 111.999s57.833 51 95.5 65s81.167 21 130.5 21c50.667 0 95 -6.66699 133 -20
s69.833 -34.5 95.5 -63.5s44.834 -66.333 57.501 -112s19 -100.834 19 -165.501c0 -63.333 -6.66699 -117.666 -20 -162.999s-33 -82.666 -59 -111.999s-58 -51 -96 -65s-81.333 -21 -130 -21zM354.999 73.0029c34 0 64 4.83301 90 14.5s47.833 25.5 65.5 47.5
s31 50.667 40 86s13.5 78.333 13.5 129s-4.5 93.667 -13.5 129s-22.333 64 -40 86s-39.5 37.833 -65.5 47.5s-56 14.5 -90 14.5c-33.333 0 -63 -5 -89 -15s-47.833 -26 -65.5 -48s-31.167 -50.5 -40.5 -85.5s-14 -77.833 -14 -128.5c0 -50 4.66699 -92.5 14 -127.5
s22.833 -63.667 40.5 -86s39.5 -38.5 65.5 -48.5s55.667 -15 89 -15zM296.999 910.003h100l-93 -140h-66zM486.999 910.003h115l-144 -140h-74z" />
    <glyph glyph-name="ohungarumlaut" unicode="&#x151;" horiz-adv-x="570" 
d="M285 -11c-76.667 0 -134.833 21.667 -174.5 65s-59.5 113 -59.5 209c0 93.333 20.667 162.333 62 207s98.666 67 171.999 67c78 0 136.5 -21.167 175.5 -63.5s58.5 -112.5 58.5 -210.5c0 -96 -20.167 -165.667 -60.5 -209s-98.166 -65 -173.499 -65zM285.001 70
c24 0 45 3.33301 63 10s33 17.5 45 32.5s21 34.833 27 59.5s9 55 9 91s-3 66.333 -9 91s-15 44.5 -27 59.5s-27 25.833 -45 32.5s-39 10 -63 10c-46 0 -81.5 -14.5 -106.5 -43.5s-37.5 -78.833 -37.5 -149.5c0 -36 3 -66.333 9 -91s15 -44.5 27 -59.5s27 -25.833 45 -32.5
s39 -10 63 -10zM222.001 756h100l-83 -139h-66zM403.001 756h114l-134 -139h-73z" />
    <glyph glyph-name="OE" unicode="&#x152;" horiz-adv-x="935" 
d="M355 -11c-50 0 -94.167 6.66895 -132.5 20.002s-70.166 34.666 -95.499 63.999s-44.5 67.166 -57.5 113.499s-19.5 102.5 -19.5 168.5c0 62 6.66699 115.5 20 160.5s32.833 82 58.5 111s57.5 50.333 95.5 64s81.667 20.5 131 20.5c25.333 0 48.666 -1.16699 69.999 -3.5
s39 -4.83301 53 -7.5h402v-83h-324v-218h284v-81h-284v-235h324v-83h-395c-15.333 -2.66699 -34 -5.16699 -56 -7.5s-46.667 -3.5 -74 -3.5zM357 75.002c20 0 39.167 0.662109 57.5 1.99512s34.833 3 49.5 5v534c-14 2.66699 -30 4.83398 -48 6.50098s-37.667 2.5 -59 2.5
c-34.667 0 -65.167 -4.83301 -91.5 -14.5s-48.333 -25.167 -66 -46.5s-31 -49.166 -40 -83.499s-13.5 -76.166 -13.5 -125.499c0 -51.333 4.66699 -94.666 14 -129.999s22.833 -64.166 40.5 -86.499s39.667 -38.5 66 -48.5s56.5 -15 90.5 -15z" />
    <glyph glyph-name="oe" unicode="&#x153;" horiz-adv-x="920" 
d="M670 -11c-48.667 0 -89.668 8.16699 -123.001 24.5s-59 42.166 -77 77.499c-18.667 -35.333 -43.834 -61.166 -75.501 -77.499s-69.167 -24.5 -112.5 -24.5c-75.333 0 -132.666 21.667 -171.999 65s-59 113 -59 209c0 93.333 20.5 162.333 61.5 207s97.5 67 169.5 67
c45.333 0 83.833 -8 115.5 -24s56.167 -41.667 73.5 -77c18.667 34 43.5 59.333 74.5 76s66.833 25 107.5 25c74.667 0 129.334 -20.167 164.001 -60.5s52 -105.5 52 -195.5v-41h-355c1.33301 -59.333 15 -103 41 -131s66.333 -42 121 -42c32 0 62.167 5.5 90.5 16.5
s51.5 24.167 69.5 39.5v-88c-16 -11.333 -37.833 -21.833 -65.5 -31.5s-61.167 -14.5 -100.5 -14.5zM281.999 70c23.333 0 43.832 3.33105 61.499 9.99805s32.334 17.5 44.001 32.5s20.5 34.833 26.5 59.5s9 55 9 91s-3 66.333 -9 91s-14.833 44.5 -26.5 59.5
s-26.334 25.833 -44.001 32.5s-38.167 10 -61.5 10c-22 0 -41.833 -3.5 -59.5 -10.5s-32.5 -18.167 -44.5 -33.5s-21.167 -35.166 -27.5 -59.499s-9.5 -54.166 -9.5 -89.499c0 -36 3 -66.333 9 -91s14.833 -44.5 26.5 -59.5s26.334 -25.833 44.001 -32.5
s38.167 -10 61.5 -10zM652.998 461.998c-44 0 -77.667 -12.333 -101 -37s-36 -65 -38 -121h267c0 50.667 -9.16699 89.667 -27.5 117s-51.833 41 -100.5 41z" />
    <glyph glyph-name="Racute" unicode="&#x154;" horiz-adv-x="640" 
d="M333 269c-6.66699 -0.666992 -13.168 -0.999023 -19.501 -0.999023h-20.5h-100v-268h-92v695c18 1.33301 37.333 3 58 5c17.333 1.33301 37.333 2.66602 60 3.99902s46.334 2 71.001 2c46.667 0 86.334 -4.33301 119.001 -13s59.167 -22 79.5 -40s35 -40.667 44 -68
s13.5 -59.333 13.5 -96c0 -52 -9.83301 -94.833 -29.5 -128.5s-50.834 -58.167 -93.501 -73.5l166 -287h-104zM449.999 486.001c0 24 -2.66797 44.332 -8.00098 60.999s-14 30.334 -26 41.001s-28 18.5 -48 23.5s-45 7.5 -75 7.5c-13.333 0 -26 -0.166992 -38 -0.5
s-22.667 -0.833008 -32 -1.5c-11.333 -0.666992 -21.666 -1 -30.999 -1v-264h101c56 0 96.167 11.167 120.5 33.5s36.5 55.833 36.5 100.5zM348.998 910h118l-133 -140h-75z" />
    <glyph glyph-name="racute" unicode="&#x155;" horiz-adv-x="410" 
d="M81 526h77l6 -90c12.667 36 31.167 61.833 55.5 77.5s53.5 23.5 87.5 23.5c11.333 0 21.833 -0.833008 31.5 -2.5s16.5 -3.16699 20.5 -4.5v-95c-8.66699 6 -19 11 -31 15s-26.667 6 -44 6c-36 0 -64.167 -11.833 -84.5 -35.5s-30.5 -62.5 -30.5 -116.5v-304h-88v526z
M258 756h116l-125 -139h-73z" />
    <glyph glyph-name="Rcommaaccent" unicode="&#x156;" horiz-adv-x="640" 
d="M333 269c-6.66699 -0.666992 -13.168 -0.999023 -19.501 -0.999023h-20.5h-100v-268h-92v695c18 1.33301 37.333 3 58 5c17.333 1.33301 37.333 2.66602 60 3.99902s46.334 2 71.001 2c46.667 0 86.334 -4.33301 119.001 -13s59.167 -22 79.5 -40s35 -40.667 44 -68
s13.5 -59.333 13.5 -96c0 -52 -9.83301 -94.833 -29.5 -128.5s-50.834 -58.167 -93.501 -73.5l166 -287h-104zM449.999 486.001c0 24 -2.66797 44.332 -8.00098 60.999s-14 30.334 -26 41.001s-28 18.5 -48 23.5s-45 7.5 -75 7.5c-13.333 0 -26 -0.166992 -38 -0.5
s-22.667 -0.833008 -32 -1.5c-11.333 -0.666992 -21.666 -1 -30.999 -1v-264h101c56 0 96.167 11.167 120.5 33.5s36.5 55.833 36.5 100.5zM281.998 -173c16 1.33301 30.6689 4.5 44.002 9.5s21.333 14.167 24 27.5c-30 0 -49.833 3.83301 -59.5 11.5
s-14.5 18.167 -14.5 31.5c0 12.667 5.16699 23.167 15.5 31.5s28.166 12.5 53.499 12.5c23.333 0 40.666 -5.16699 51.999 -15.5s17 -24.5 17 -42.5c0 -28.667 -10.5 -54 -31.5 -76s-52.167 -34.667 -93.5 -38z" />
    <glyph glyph-name="rcommaaccent" unicode="&#x157;" horiz-adv-x="410" 
d="M81 526h77l6 -90c12.667 36 31.167 61.833 55.5 77.5s53.5 23.5 87.5 23.5c11.333 0 21.833 -0.833008 31.5 -2.5s16.5 -3.16699 20.5 -4.5v-95c-8.66699 6 -19 11 -31 15s-26.667 6 -44 6c-36 0 -64.167 -11.833 -84.5 -35.5s-30.5 -62.5 -30.5 -116.5v-304h-88v526z
M65 -173c19.333 1.33301 34.835 4.83203 46.502 10.499s18.5 14.834 20.5 27.501c-28.667 0 -48 3.66699 -58 11s-15 17.666 -15 30.999c0 12.667 5.16699 23.167 15.5 31.5s27.166 12.5 50.499 12.5c44 0 66 -20.667 66 -62c0 -12 -2.33301 -24.167 -7 -36.5
s-11.834 -23.666 -21.501 -33.999s-22 -19 -37 -26s-32.833 -11.5 -53.5 -13.5z" />
    <glyph glyph-name="Rcaron" unicode="&#x158;" horiz-adv-x="640" 
d="M333 269c-6.66699 -0.666992 -13.168 -0.999023 -19.501 -0.999023h-20.5h-100v-268h-92v695c18 1.33301 37.333 3 58 5c17.333 1.33301 37.333 2.66602 60 3.99902s46.334 2 71.001 2c46.667 0 86.334 -4.33301 119.001 -13s59.167 -22 79.5 -40s35 -40.667 44 -68
s13.5 -59.333 13.5 -96c0 -52 -9.83301 -94.833 -29.5 -128.5s-50.834 -58.167 -93.501 -73.5l166 -287h-104zM449.999 486.001c0 24 -2.66797 44.332 -8.00098 60.999s-14 30.334 -26 41.001s-28 18.5 -48 23.5s-45 7.5 -75 7.5c-13.333 0 -26 -0.166992 -38 -0.5
s-22.667 -0.833008 -32 -1.5c-11.333 -0.666992 -21.666 -1 -30.999 -1v-264h101c56 0 96.167 11.167 120.5 33.5s36.5 55.833 36.5 100.5zM137.998 910h78l88 -87l88 87h76l-115 -140h-100z" />
    <glyph glyph-name="rcaron" unicode="&#x159;" horiz-adv-x="410" 
d="M81 526h77l6 -90c12.667 36 31.167 61.833 55.5 77.5s53.5 23.5 87.5 23.5c11.333 0 21.833 -0.833008 31.5 -2.5s16.5 -3.16699 20.5 -4.5v-95c-8.66699 6 -19 11 -31 15s-26.667 6 -44 6c-36 0 -64.167 -11.833 -84.5 -35.5s-30.5 -62.5 -30.5 -116.5v-304h-88v526z
M61 756h76l83 -89l85 89h74l-111 -139h-96z" />
    <glyph glyph-name="Sacute" unicode="&#x15a;" horiz-adv-x="580" 
d="M282 -11c-42.667 0 -81.8369 5.17188 -117.504 15.5049s-64.167 22.833 -85.5 37.5v106c10 -8.66699 21.833 -17.334 35.5 -26.001s29 -16.5 46 -23.5s35.333 -12.667 55 -17s40.5 -6.5 62.5 -6.5c50.667 0 86.834 9.5 108.501 28.5s32.5 46.167 32.5 81.5
c0 29.333 -8.33301 52.5 -25 69.5s-37.667 31 -63 42s-52.666 21.167 -81.999 30.5s-56.666 21.666 -81.999 36.999s-46.333 35.166 -63 59.499s-25 57.166 -25 98.499c0 60.667 18 107.334 54 140.001s94.333 49 175 49c36.667 0 70.334 -3.33301 101.001 -10
s55.667 -15 75 -25v-106c-19.333 16.667 -44.666 30 -75.999 40s-63.333 15 -96 15c-26 0 -47.833 -2 -65.5 -6s-31.834 -10.167 -42.501 -18.5s-18.167 -18.833 -22.5 -31.5s-6.5 -27.334 -6.5 -44.001c0 -28.667 8.33301 -50.834 25 -66.501s37.667 -28.667 63 -39
s52.5 -20 81.5 -29s56.167 -21.167 81.5 -36.5s46.333 -36 63 -62s25 -60.667 25 -104c0 -63.333 -18.667 -112.333 -56 -147s-96 -52 -176 -52zM339.997 910.005h118l-133 -140h-75z" />
    <glyph glyph-name="sacute" unicode="&#x15b;" horiz-adv-x="475" 
d="M227 -11c-57.333 0 -109.335 10.332 -156.002 30.999v98c19.333 -16.667 42.166 -29.334 68.499 -38.001s54.833 -13 85.5 -13c36 0 61.5 6.66699 76.5 20s22.5 32.666 22.5 57.999c0 21.333 -6.33301 37.5 -19 48.5s-28.667 19.833 -48 26.5s-40 12.834 -62 18.501
s-42.667 13.834 -62 24.501s-35.333 25.167 -48 43.5s-19 43.833 -19 76.5c0 50.667 14.333 89 43 115s76.334 39 143.001 39c26.667 0 52.334 -2.5 77.001 -7.5s44.667 -10.5 60 -16.5v-95c-19.333 13.333 -40.166 23.5 -62.499 30.5s-46.833 10.5 -73.5 10.5
c-36 0 -61.167 -6 -75.5 -18s-21.5 -29 -21.5 -51c0 -20 6.33301 -35.167 19 -45.5s28.667 -18.666 48 -24.999s40 -12.333 62 -18s42.667 -14 62 -25s35.333 -26.167 48 -45.5s19 -46 19 -80c0 -54 -14.667 -94.5 -44 -121.5s-77 -40.5 -143 -40.5zM277.998 755.999h116
l-125 -139h-73z" />
    <glyph glyph-name="Scircumflex" unicode="&#x15c;" horiz-adv-x="580" 
d="M282 -11c-42.667 0 -81.8369 5.17188 -117.504 15.5049s-64.167 22.833 -85.5 37.5v106c10 -8.66699 21.833 -17.334 35.5 -26.001s29 -16.5 46 -23.5s35.333 -12.667 55 -17s40.5 -6.5 62.5 -6.5c50.667 0 86.834 9.5 108.501 28.5s32.5 46.167 32.5 81.5
c0 29.333 -8.33301 52.5 -25 69.5s-37.667 31 -63 42s-52.666 21.167 -81.999 30.5s-56.666 21.666 -81.999 36.999s-46.333 35.166 -63 59.499s-25 57.166 -25 98.499c0 60.667 18 107.334 54 140.001s94.333 49 175 49c36.667 0 70.334 -3.33301 101.001 -10
s55.667 -15 75 -25v-106c-19.333 16.667 -44.666 30 -75.999 40s-63.333 15 -96 15c-26 0 -47.833 -2 -65.5 -6s-31.834 -10.167 -42.501 -18.5s-18.167 -18.833 -22.5 -31.5s-6.5 -27.334 -6.5 -44.001c0 -28.667 8.33301 -50.834 25 -66.501s37.667 -28.667 63 -39
s52.5 -20 81.5 -29s56.167 -21.167 81.5 -36.5s46.333 -36 63 -62s25 -60.667 25 -104c0 -63.333 -18.667 -112.333 -56 -147s-96 -52 -176 -52zM244.997 910.005h100l115 -140h-78l-87 87l-89 -87h-76z" />
    <glyph glyph-name="scircumflex" unicode="&#x15d;" horiz-adv-x="475" 
d="M227 -11c-57.333 0 -109.335 10.332 -156.002 30.999v98c19.333 -16.667 42.166 -29.334 68.499 -38.001s54.833 -13 85.5 -13c36 0 61.5 6.66699 76.5 20s22.5 32.666 22.5 57.999c0 21.333 -6.33301 37.5 -19 48.5s-28.667 19.833 -48 26.5s-40 12.834 -62 18.501
s-42.667 13.834 -62 24.501s-35.333 25.167 -48 43.5s-19 43.833 -19 76.5c0 50.667 14.333 89 43 115s76.334 39 143.001 39c26.667 0 52.334 -2.5 77.001 -7.5s44.667 -10.5 60 -16.5v-95c-19.333 13.333 -40.166 23.5 -62.499 30.5s-46.833 10.5 -73.5 10.5
c-36 0 -61.167 -6 -75.5 -18s-21.5 -29 -21.5 -51c0 -20 6.33301 -35.167 19 -45.5s28.667 -18.666 48 -24.999s40 -12.333 62 -18s42.667 -14 62 -25s35.333 -26.167 48 -45.5s19 -46 19 -80c0 -54 -14.667 -94.5 -44 -121.5s-77 -40.5 -143 -40.5zM191.998 755.999h96
l111 -139h-76l-83 88l-85 -88h-74z" />
    <glyph glyph-name="Scedilla" unicode="&#x15e;" horiz-adv-x="580" 
d="M291 -217c-17.333 0 -31.8389 1.33789 -43.5059 4.00488s-22.5 6.33398 -32.5 11.001l7 49c10 -4 19.5 -7 28.5 -9s19.5 -3 31.5 -3c33.333 0 50 13.333 50 40c0 13.333 -4.16699 23.5 -12.5 30.5s-22.166 10.5 -41.499 10.5c-5.33301 0 -11 -0.166992 -17 -0.5
s-11 -0.833008 -15 -1.5l14 76c-38 1.33301 -72.833 7 -104.5 17s-57.167 21.667 -76.5 35v106c10 -8.66699 21.833 -17.334 35.5 -26.001s29 -16.5 46 -23.5s35.333 -12.667 55 -17s40.5 -6.5 62.5 -6.5c50.667 0 86.834 9.5 108.501 28.5s32.5 46.167 32.5 81.5
c0 29.333 -8.33301 52.5 -25 69.5s-37.667 31 -63 42s-52.666 21.167 -81.999 30.5s-56.666 21.666 -81.999 36.999s-46.333 35.166 -63 59.499s-25 57.166 -25 98.499c0 60.667 18 107.334 54 140.001s94.333 49 175 49c36.667 0 70.334 -3.33301 101.001 -10
s55.667 -15 75 -25v-106c-19.333 16.667 -44.666 30 -75.999 40s-63.333 15 -96 15c-26 0 -47.833 -2 -65.5 -6s-31.834 -10.167 -42.501 -18.5s-18.167 -18.833 -22.5 -31.5s-6.5 -27.334 -6.5 -44.001c0 -28.667 8.33301 -50.834 25 -66.501s37.667 -28.667 63 -39
s52.5 -20 81.5 -29s56.167 -21.167 81.5 -36.5s46.333 -36 63 -62s25 -60.667 25 -104c0 -60 -16.167 -106.833 -48.5 -140.5s-83.166 -52.834 -152.499 -57.501l-7 -34c64.667 0 97 -27 97 -81c0 -28 -9.5 -50.333 -28.5 -67s-46.833 -25 -83.5 -25z" />
    <glyph glyph-name="scedilla" unicode="&#x15f;" horiz-adv-x="475" 
d="M236 -217c-17.333 0 -31.8359 1.33105 -43.5029 3.99805s-22.5 6.33398 -32.5 11.001l7 49c10 -4 19.5 -7 28.5 -9s19.5 -3 31.5 -3c33.333 0 50 13.333 50 40c0 13.333 -4.16699 23.5 -12.5 30.5s-22.166 10.5 -41.499 10.5c-5.33301 0 -11 -0.166992 -17 -0.5
s-11 -0.833008 -15 -1.5l14 76c-50.667 2 -95.334 12 -134.001 30v98c19.333 -16.667 42.166 -29.334 68.499 -38.001s54.833 -13 85.5 -13c36 0 61.5 6.66699 76.5 20s22.5 32.666 22.5 57.999c0 21.333 -6.33301 37.5 -19 48.5s-28.667 19.833 -48 26.5
s-40 12.834 -62 18.501s-42.667 13.834 -62 24.501s-35.333 25.167 -48 43.5s-19 43.833 -19 76.5c0 50.667 14.333 89 43 115s76.334 39 143.001 39c26.667 0 52.334 -2.5 77.001 -7.5s44.667 -10.5 60 -16.5v-95c-19.333 13.333 -40.166 23.5 -62.499 30.5
s-46.833 10.5 -73.5 10.5c-36 0 -61.167 -6 -75.5 -18s-21.5 -29 -21.5 -51c0 -20 6.33301 -35.167 19 -45.5s28.667 -18.666 48 -24.999s40 -12.333 62 -18s42.667 -14 62 -25s35.333 -26.167 48 -45.5s19 -46 19 -80c0 -50 -12.167 -88.333 -36.5 -115
s-64.166 -42 -119.499 -46l-7 -34c64.667 0 97 -27 97 -81c0 -28 -9.5 -50.333 -28.5 -67s-46.833 -25 -83.5 -25z" />
    <glyph glyph-name="Scaron" unicode="&#x160;" horiz-adv-x="580" 
d="M282 -11c-42.667 0 -81.8369 5.17188 -117.504 15.5049s-64.167 22.833 -85.5 37.5v106c10 -8.66699 21.833 -17.334 35.5 -26.001s29 -16.5 46 -23.5s35.333 -12.667 55 -17s40.5 -6.5 62.5 -6.5c50.667 0 86.834 9.5 108.501 28.5s32.5 46.167 32.5 81.5
c0 29.333 -8.33301 52.5 -25 69.5s-37.667 31 -63 42s-52.666 21.167 -81.999 30.5s-56.666 21.666 -81.999 36.999s-46.333 35.166 -63 59.499s-25 57.166 -25 98.499c0 60.667 18 107.334 54 140.001s94.333 49 175 49c36.667 0 70.334 -3.33301 101.001 -10
s55.667 -15 75 -25v-106c-19.333 16.667 -44.666 30 -75.999 40s-63.333 15 -96 15c-26 0 -47.833 -2 -65.5 -6s-31.834 -10.167 -42.501 -18.5s-18.167 -18.833 -22.5 -31.5s-6.5 -27.334 -6.5 -44.001c0 -28.667 8.33301 -50.834 25 -66.501s37.667 -28.667 63 -39
s52.5 -20 81.5 -29s56.167 -21.167 81.5 -36.5s46.333 -36 63 -62s25 -60.667 25 -104c0 -63.333 -18.667 -112.333 -56 -147s-96 -52 -176 -52zM129.997 910.005h78l88 -87l88 87h76l-115 -140h-100z" />
    <glyph glyph-name="scaron" unicode="&#x161;" horiz-adv-x="475" 
d="M227 -11c-57.333 0 -109.335 10.332 -156.002 30.999v98c19.333 -16.667 42.166 -29.334 68.499 -38.001s54.833 -13 85.5 -13c36 0 61.5 6.66699 76.5 20s22.5 32.666 22.5 57.999c0 21.333 -6.33301 37.5 -19 48.5s-28.667 19.833 -48 26.5s-40 12.834 -62 18.501
s-42.667 13.834 -62 24.501s-35.333 25.167 -48 43.5s-19 43.833 -19 76.5c0 50.667 14.333 89 43 115s76.334 39 143.001 39c26.667 0 52.334 -2.5 77.001 -7.5s44.667 -10.5 60 -16.5v-95c-19.333 13.333 -40.166 23.5 -62.499 30.5s-46.833 10.5 -73.5 10.5
c-36 0 -61.167 -6 -75.5 -18s-21.5 -29 -21.5 -51c0 -20 6.33301 -35.167 19 -45.5s28.667 -18.666 48 -24.999s40 -12.333 62 -18s42.667 -14 62 -25s35.333 -26.167 48 -45.5s19 -46 19 -80c0 -54 -14.667 -94.5 -44 -121.5s-77 -40.5 -143 -40.5zM80.998 755.999h76
l83 -89l85 89h74l-111 -139h-96z" />
    <glyph glyph-name="Tcedilla" unicode="&#x162;" horiz-adv-x="580" 
d="M244 617l-209 -0.00195312v83h510v-83h-209v-617h-18l-8 -44c66.667 0 100 -27 100 -81c0 -28 -9.66699 -50.333 -29 -67s-49 -25 -89 -25c-16 0 -30.833 1.33301 -44.5 4s-25.5 6.33398 -35.5 11.001l8 51c20 -8 41 -12 63 -12c20 0 34 3.33301 42 10s12 16 12 28
c0 12.667 -4.16699 22.334 -12.5 29.001s-23.166 10 -44.499 10c-6.66699 0 -12.834 -0.166992 -18.501 -0.5s-10.5 -0.833008 -14.5 -1.5l16 88h-19v617z" />
    <glyph glyph-name="tcedilla" unicode="&#x163;" horiz-adv-x="435" 
d="M255 -217c-17.333 0 -31.8359 1.33203 -43.5029 3.99902s-22.5 6.33398 -32.5 11.001l7 49c10 -4 19.5 -7 28.5 -9s19.5 -3 31.5 -3c33.333 0 50 13.333 50 40c0 13.333 -4.16699 23.5 -12.5 30.5s-22.166 10.5 -41.499 10.5c-5.33301 0 -11 -0.166992 -17 -0.5
s-11 -0.833008 -15 -1.5l16 85c-34 7.33301 -58.667 23.5 -74 48.5s-23 61.167 -23 108.5v291h-94v79h94v105l88 30v-135h168v-79h-168v-284c0 -32 5.66699 -54.5 17 -67.5s30 -19.5 56 -19.5c20.667 0 38.667 3 54 9s29 13.333 41 22v-88
c-9.33301 -6.66699 -23.666 -12.5 -42.999 -17.5s-40.666 -7.5 -63.999 -7.5l-8 -38c64.667 0 97 -27 97 -81c0 -28 -9.5 -50.333 -28.5 -67s-46.833 -25 -83.5 -25z" />
    <glyph glyph-name="Tcaron" unicode="&#x164;" horiz-adv-x="580" 
d="M244 617h-209v83h510v-83h-209v-617h-92v617zM125 910h78l88 -87l88 87h76l-115 -140h-100z" />
    <glyph glyph-name="tcaron" unicode="&#x165;" horiz-adv-x="435" 
d="M332 786h85l-63 -179h-58zM277 -6c-52 0 -89.667 12.668 -113 38.001s-35 66.666 -35 123.999v291h-94v79h94v105l88 30v-135h168v-79h-168v-284c0 -32 5.66699 -54.5 17 -67.5s30 -19.5 56 -19.5c20.667 0 38.667 3 54 9s29 13.333 41 22v-88
c-9.33301 -6.66699 -23.833 -12.5 -43.5 -17.5s-41.167 -7.5 -64.5 -7.5z" />
    <glyph glyph-name="Umacron" unicode="&#x16a;" horiz-adv-x="670" 
d="M335 -11c-44 0 -81.999 5.16992 -113.999 15.5029s-58.5 26.666 -79.5 48.999s-36.5 51.333 -46.5 87s-15 78.834 -15 129.501v430h93v-426c0 -38 3 -69.667 9 -95s15.5 -45.833 28.5 -61.5s29.667 -26.667 50 -33s45.166 -9.5 74.499 -9.5s54.333 3.16699 75 9.5
s37.5 17.166 50.5 32.499s22.333 35.666 28 60.999s8.5 57.333 8.5 96v426h93v-430c0 -50 -5.16699 -92.833 -15.5 -128.5s-26 -64.834 -47 -87.501s-47.5 -39.167 -79.5 -49.5s-69.667 -15.5 -113 -15.5zM193.001 865.003h284v-70h-284v70z" />
    <glyph glyph-name="umacron" unicode="&#x16b;" horiz-adv-x="580" 
d="M249 -11c-56.667 0 -99.6641 15.332 -128.997 45.999s-44 81.334 -44 152.001v339h88v-310c0 -28 2.16699 -51.333 6.5 -70s11.166 -33.667 20.499 -45s21.333 -19.333 36 -24s32 -7 52 -7c41.333 0 73.666 12.333 96.999 37s35 61 35 109v310h88v-526h-82l-6 89
c-14.667 -30 -34.834 -54.167 -60.501 -72.5s-59.5 -27.5 -101.5 -27.5zM160.003 708.999h258v-66h-258v66z" />
    <glyph glyph-name="Ubreve" unicode="&#x16c;" horiz-adv-x="670" 
d="M335 -11c-44 0 -81.999 5.16992 -113.999 15.5029s-58.5 26.666 -79.5 48.999s-36.5 51.333 -46.5 87s-15 78.834 -15 129.501v430h93v-426c0 -38 3 -69.667 9 -95s15.5 -45.833 28.5 -61.5s29.667 -26.667 50 -33s45.166 -9.5 74.499 -9.5s54.333 3.16699 75 9.5
s37.5 17.166 50.5 32.499s22.333 35.666 28 60.999s8.5 57.333 8.5 96v426h93v-430c0 -50 -5.16699 -92.833 -15.5 -128.5s-26 -64.834 -47 -87.501s-47.5 -39.167 -79.5 -49.5s-69.667 -15.5 -113 -15.5zM335.001 769.003c-42 0 -76.668 10.5 -104.001 31.5
s-45.666 52.167 -54.999 93.5l62 17c7.33301 -25.333 18.333 -44.166 33 -56.499s36 -18.5 64 -18.5s49.667 6.16699 65 18.5s26.333 31.166 33 56.499l61 -17c-9.33301 -41.333 -27.5 -72.5 -54.5 -93.5s-61.833 -31.5 -104.5 -31.5z" />
    <glyph glyph-name="ubreve" unicode="&#x16d;" horiz-adv-x="580" 
d="M249 -11c-56.667 0 -99.6641 15.332 -128.997 45.999s-44 81.334 -44 152.001v339h88v-310c0 -28 2.16699 -51.333 6.5 -70s11.166 -33.667 20.499 -45s21.333 -19.333 36 -24s32 -7 52 -7c41.333 0 73.666 12.333 96.999 37s35 61 35 109v310h88v-526h-82l-6 89
c-14.667 -30 -34.834 -54.167 -60.501 -72.5s-59.5 -27.5 -101.5 -27.5zM287.003 614.999c-40 0 -73.667 10.668 -101 32.001s-45 52.666 -53 93.999l60 16c12 -51.333 43.333 -77 94 -77c52 0 84 25.667 96 77l58 -16c-8 -42 -25.5 -73.5 -52.5 -94.5
s-60.833 -31.5 -101.5 -31.5z" />
    <glyph glyph-name="Uring" unicode="&#x16e;" horiz-adv-x="670" 
d="M335 -11c-44 0 -81.999 5.16992 -113.999 15.5029s-58.5 26.666 -79.5 48.999s-36.5 51.333 -46.5 87s-15 78.834 -15 129.501v430h93v-426c0 -38 3 -69.667 9 -95s15.5 -45.833 28.5 -61.5s29.667 -26.667 50 -33s45.166 -9.5 74.499 -9.5s54.333 3.16699 75 9.5
s37.5 17.166 50.5 32.499s22.333 35.666 28 60.999s8.5 57.333 8.5 96v426h93v-430c0 -50 -5.16699 -92.833 -15.5 -128.5s-26 -64.834 -47 -87.501s-47.5 -39.167 -79.5 -49.5s-69.667 -15.5 -113 -15.5zM235.001 840.003c0 28.667 9.33301 52.334 28 71.001
s42.667 28 72 28s53.333 -9.33301 72 -28s28 -42.334 28 -71.001s-9.33301 -52.334 -28 -71.001s-42.667 -28 -72 -28s-53.333 9.33301 -72 28s-28 42.334 -28 71.001zM285.001 840.003c0 -15.333 4.5 -27.5 13.5 -36.5s21.167 -13.5 36.5 -13.5s27.5 4.5 36.5 13.5
s13.5 21.167 13.5 36.5s-4.5 27.5 -13.5 36.5s-21.167 13.5 -36.5 13.5s-27.5 -4.5 -36.5 -13.5s-13.5 -21.167 -13.5 -36.5z" />
    <glyph glyph-name="uring" unicode="&#x16f;" horiz-adv-x="580" 
d="M249 -11c-56.667 0 -99.6641 15.332 -128.997 45.999s-44 81.334 -44 152.001v339h88v-310c0 -28 2.16699 -51.333 6.5 -70s11.166 -33.667 20.499 -45s21.333 -19.333 36 -24s32 -7 52 -7c41.333 0 73.666 12.333 96.999 37s35 61 35 109v310h88v-526h-82l-6 89
c-14.667 -30 -34.834 -54.167 -60.501 -72.5s-59.5 -27.5 -101.5 -27.5zM190.003 685.999c0 29.333 8.83301 52.833 26.5 70.5s41.5 26.5 71.5 26.5s53.833 -8.83301 71.5 -26.5s26.5 -41.167 26.5 -70.5c0 -28.667 -8.83301 -52 -26.5 -70s-41.5 -27 -71.5 -27
s-53.833 9 -71.5 27s-26.5 41.333 -26.5 70zM240.003 685.999c0 -15.333 4.16895 -27.168 12.502 -35.501s20.166 -12.5 35.499 -12.5c14.667 0 26.334 4.33301 35.001 13s13 20.334 13 35.001s-4.33301 26.334 -13 35.001s-20.334 13 -35.001 13
s-26.334 -4.33301 -35.001 -13s-13 -20.334 -13 -35.001z" />
    <glyph glyph-name="Uhungarumlaut" unicode="&#x170;" horiz-adv-x="670" 
d="M335 -11c-44 0 -81.999 5.16992 -113.999 15.5029s-58.5 26.666 -79.5 48.999s-36.5 51.333 -46.5 87s-15 78.834 -15 129.501v430h93v-426c0 -38 3 -69.667 9 -95s15.5 -45.833 28.5 -61.5s29.667 -26.667 50 -33s45.166 -9.5 74.499 -9.5s54.333 3.16699 75 9.5
s37.5 17.166 50.5 32.499s22.333 35.666 28 60.999s8.5 57.333 8.5 96v426h93v-430c0 -50 -5.16699 -92.833 -15.5 -128.5s-26 -64.834 -47 -87.501s-47.5 -39.167 -79.5 -49.5s-69.667 -15.5 -113 -15.5zM277.001 910.003h100l-93 -140h-66zM467.001 910.003h115l-144 -140
h-74z" />
    <glyph glyph-name="uhungarumlaut" unicode="&#x171;" horiz-adv-x="580" 
d="M249 -11c-56.667 0 -99.6641 15.332 -128.997 45.999s-44 81.334 -44 152.001v339h88v-310c0 -28 2.16699 -51.333 6.5 -70s11.166 -33.667 20.499 -45s21.333 -19.333 36 -24s32 -7 52 -7c41.333 0 73.666 12.333 96.999 37s35 61 35 109v310h88v-526h-82l-6 89
c-14.667 -30 -34.834 -54.167 -60.501 -72.5s-59.5 -27.5 -101.5 -27.5zM224.003 755.999h100l-83 -139h-66zM405.003 755.999h114l-134 -139h-73z" />
    <glyph glyph-name="Uogonek" unicode="&#x172;" horiz-adv-x="670" 
d="M335 -11c-44 0 -81.999 5.16895 -113.999 15.502s-58.5 26.666 -79.5 48.999s-36.5 51.333 -46.5 87s-15 78.834 -15 129.501v430h93v-426c0 -38 3 -69.667 9 -95s15.5 -45.833 28.5 -61.5s29.667 -26.667 50 -33s45.166 -9.5 74.499 -9.5s54.333 3.16699 75 9.5
s37.5 17.166 50.5 32.499s22.333 35.666 28 60.999s8.5 57.333 8.5 96v426h93v-430c0 -64 -8.16699 -115.833 -24.5 -155.5s-41.5 -69.834 -75.5 -90.501h1c-35.333 -21.333 -63.5 -42.333 -84.5 -63s-31.5 -42.667 -31.5 -66c0 -22 13 -33 39 -33
c18.667 0 38 5.33301 58 16v-57c-10 -5.33301 -21.5 -9.5 -34.5 -12.5s-27.833 -4.5 -44.5 -4.5c-34 0 -58.5 6.66699 -73.5 20s-22.5 32.333 -22.5 57c0 21.333 6 40.833 18 58.5s30 34.834 54 51.501c-5.33301 -0.666992 -10.833 -1.16699 -16.5 -1.5
s-11.5 -0.5 -17.5 -0.5z" />
    <glyph glyph-name="uogonek" unicode="&#x173;" horiz-adv-x="580" 
d="M421 -196c-33.333 0 -57.3271 6.66602 -71.9941 19.999s-22 32.333 -22 57c0 42.667 30 83 90 121l-6 87c-14.667 -30 -34.834 -54.167 -60.501 -72.5s-59.5 -27.5 -101.5 -27.5c-56.667 0 -99.667 15.333 -129 46s-44 81.334 -44 152.001v339h88v-310
c0 -28 2.16699 -51.333 6.5 -70s11.166 -33.667 20.499 -45s21.333 -19.333 36 -24s32 -7 52 -7c41.333 0 73.666 12.333 96.999 37s35 61 35 109v310h88v-526c-34 -17.333 -58.5 -35.333 -73.5 -54s-22.5 -35.667 -22.5 -51c0 -10.667 3.16699 -19.167 9.5 -25.5
s16.166 -9.5 29.499 -9.5c10 0 19.667 1.33301 29 4s18.666 6.66699 27.999 12v-55c-10 -5.33301 -21.333 -9.5 -34 -12.5s-27.334 -4.5 -44.001 -4.5z" />
    <glyph glyph-name="Ydieresis" unicode="&#x178;" horiz-adv-x="610" 
d="M264 271l-244 429h106l185 -332l178 332h101l-234 -429v-271h-92v271zM203 785c-38 0 -57 18.333 -57 55s19 55 57 55s57 -18.333 57 -55s-19 -55 -57 -55zM406 785c-38 0 -57 18.333 -57 55s19 55 57 55s57 -18.333 57 -55s-19 -55 -57 -55z" />
    <glyph glyph-name="Zacute" unicode="&#x179;" horiz-adv-x="590" 
d="M50 61l361 556h-351v83h470v-61l-361 -556h371v-83h-490v61zM340 910h118l-133 -140h-75z" />
    <glyph glyph-name="zacute" unicode="&#x17a;" horiz-adv-x="490" 
d="M45 55l279 392h-269v79h383v-55l-278 -392h285v-79h-400v55zM285 756h116l-125 -139h-73z" />
    <glyph glyph-name="Zdotaccent" unicode="&#x17b;" horiz-adv-x="590" 
d="M50 61l361 556h-351v83h470v-61l-361 -556h371v-83h-490v61zM295 784c-38.667 0 -58 18.667 -58 56s19.333 56 58 56s58 -18.667 58 -56s-19.333 -56 -58 -56z" />
    <glyph glyph-name="zdotaccent" unicode="&#x17c;" horiz-adv-x="490" 
d="M45 55l279 392h-269v79h383v-55l-278 -392h285v-79h-400v55zM247 632c-37.333 0 -56 18 -56 54s18.667 54 56 54s56 -18 56 -54s-18.667 -54 -56 -54z" />
    <glyph glyph-name="Zcaron" unicode="&#x17d;" horiz-adv-x="590" 
d="M50 61l361 556h-351v83h470v-61l-361 -556h371v-83h-490v61zM130 910h78l88 -87l88 87h76l-115 -140h-100z" />
    <glyph glyph-name="zcaron" unicode="&#x17e;" horiz-adv-x="490" 
d="M45 55l279 392h-269v79h383v-55l-278 -392h285v-79h-400v55zM88 756h76l83 -89l85 89h74l-111 -139h-96z" />
    <glyph glyph-name="uni018F" unicode="&#x18f;" horiz-adv-x="690" 
d="M342 -11c-46 0 -87.165 6.83398 -123.498 20.501s-67 34.667 -92 63s-44 64.166 -57 107.499s-19.5 94.666 -19.5 153.999v46h490c-0.666992 30 -4 59.833 -10 89.5s-17.333 56.334 -34 80.001s-40.334 42.667 -71.001 57s-70.667 21.5 -120 21.5
c-34.667 0 -68 -2.66699 -100 -8s-60.667 -13.333 -86 -24v87c29.333 8.66699 60.166 15.5 92.499 20.5s67.5 7.5 105.5 7.5c60.667 0 111.667 -8.5 153 -25.5s74.666 -41.167 99.999 -72.5s43.333 -69 54 -113s16 -92.667 16 -146c0 -48 -5.16699 -94 -15.5 -138
s-27.166 -82.833 -50.499 -116.5s-54 -60.5 -92 -80.5s-84.667 -30 -140 -30zM342.002 72.001c26.667 0 51.8311 4.33301 75.498 13s44.334 22.334 62.001 41.001s31.834 42.667 42.501 72s16.667 64.666 18 105.999h-394c0 -78.667 15.5 -137 46.5 -175
s80.833 -57 149.5 -57z" />
    <glyph glyph-name="florin" unicode="&#x192;" horiz-adv-x="600" 
d="M162 526l111.003 -0.000976562l10 51c12.667 62.667 34.667 108.667 66 138s74.666 44 129.999 44c11.333 0 22.166 -0.666992 32.499 -2s21.833 -3 34.5 -5l-17 -80c-4.66699 1.33301 -10.667 2.83301 -18 4.5s-16.666 2.5 -27.999 2.5c-16.667 0 -31 -1.83301 -43 -5.5
s-22.333 -10 -31 -19s-15.834 -20.667 -21.501 -35s-10.5 -31.833 -14.5 -52.5l-8 -41h136l-16 -79h-136l-87 -436c-6 -30.667 -13.667 -58.167 -23 -82.5s-21.333 -45 -36 -62s-33 -30 -55 -39s-48.333 -13.5 -79 -13.5c-17.333 0 -33.333 1.66699 -48 5l16 79
c8.66699 -2.66699 19.334 -4 32.001 -4c12 0 23.167 1.83301 33.5 5.5s19.666 10 27.999 19s15.666 20.833 21.999 35.5s11.833 33.334 16.5 56.001l88 437h-111z" />
    <glyph glyph-name="uni01DD" unicode="&#x1dd;" horiz-adv-x="550" 
d="M270 -11c-76 0 -131.5 20.333 -166.5 61s-52.5 105.667 -52.5 195v41h360c-1.33301 60 -15 103.833 -41 131.5s-67 41.5 -123 41.5c-33.333 0 -64.333 -5.5 -93 -16.5s-52 -24.167 -70 -39.5v88c13.333 10.667 34.666 21 63.999 31s64.333 15 105 15
c84.667 0 146.834 -22.167 186.501 -66.5s59.5 -114.5 59.5 -210.5c0 -92.667 -20.333 -161 -61 -205s-96.667 -66 -168 -66zM270 64c45.333 0 79.833 12.332 103.5 36.999s36.167 65 37.5 121h-272c0 -26 2.16699 -48.667 6.5 -68s11.5 -35.666 21.5 -48.999
s23.333 -23.5 40 -30.5s37.667 -10.5 63 -10.5z" />
    <glyph glyph-name="Gcaron" unicode="&#x1e6;" horiz-adv-x="650" 
d="M377 -11c-55.333 0 -103.499 6.83594 -144.499 20.5029s-75 35.167 -102 64.5s-47.167 67.166 -60.5 113.499s-20 102.166 -20 167.499c0 122.667 27.667 212.667 83 270s136.666 86 243.999 86c25.333 0 48 -1.5 68 -4.5s37 -6.16699 51 -9.5
c16.667 -4 31.334 -8.66699 44.001 -14v-96c-18.667 9.33301 -42 18 -70 26s-59 12 -93 12c-77.333 0 -135.166 -20.833 -173.499 -62.5s-57.5 -110.834 -57.5 -207.501c0 -51.333 4.66699 -94.833 14 -130.5s23.5 -64.5 42.5 -86.5s43 -38 72 -48s63.167 -15 102.5 -15
c21.333 0 41.666 1.5 60.999 4.5s36.666 7.16699 51.999 12.5v188h-133v80h223v-327c-18.667 -9.33301 -45.667 -19 -81 -29s-76 -15 -122 -15zM192.001 910.003h78l88 -87l88 87h76l-115 -140h-100z" />
    <glyph glyph-name="gcaron" unicode="&#x1e7;" horiz-adv-x="590" 
d="M272 -191c-40 0 -75.501 3.66895 -106.501 11.002s-55.5 15.666 -73.5 24.999v102c6.66699 -6 15.834 -12.5 27.501 -19.5s25.167 -13.167 40.5 -18.5s32.166 -9.83301 50.499 -13.5s38.166 -5.5 59.499 -5.5c54 0 92.667 11.333 116 34s35 57.667 35 105v76
c-6 -13.333 -13.5 -26 -22.5 -38s-20.167 -22.5 -33.5 -31.5s-29 -16.333 -47 -22s-38.667 -8.5 -62 -8.5c-68 0 -119.167 20.667 -153.5 62s-51.5 109.666 -51.5 204.999c0 92 17.333 159.167 52 201.5s84.334 63.5 149.001 63.5c44 0 80.333 -8.83301 109 -26.5
s48.667 -41.5 60 -71.5l6 87h82v-491c0 -78.667 -19.167 -136 -57.5 -172s-98.166 -54 -179.499 -54zM280.999 86.002c42.667 0 76.668 13.998 102.001 41.998s38 67.667 38 119v57c0 22.667 -2.83301 43.334 -8.5 62.001s-14.5 34.667 -26.5 48s-27 23.666 -45 30.999
s-39.333 11 -64 11c-45.333 0 -79.333 -13.667 -102 -41s-34 -73.666 -34 -138.999c0 -35.333 3 -65.166 9 -89.499s14.833 -44 26.5 -59s26.167 -25.667 43.5 -32s37.666 -9.5 60.999 -9.5zM101 756h76l83 -89l85 89h74l-111 -139h-96z" />
    <glyph glyph-name="Scommaaccent" unicode="&#x218;" horiz-adv-x="580" 
d="M282 -11c-42.667 0 -81.8369 5.17188 -117.504 15.5049s-64.167 22.833 -85.5 37.5v106c10 -8.66699 21.833 -17.334 35.5 -26.001s29 -16.5 46 -23.5s35.333 -12.667 55 -17s40.5 -6.5 62.5 -6.5c50.667 0 86.834 9.5 108.501 28.5s32.5 46.167 32.5 81.5
c0 29.333 -8.33301 52.5 -25 69.5s-37.667 31 -63 42s-52.666 21.167 -81.999 30.5s-56.666 21.666 -81.999 36.999s-46.333 35.166 -63 59.499s-25 57.166 -25 98.499c0 60.667 18 107.334 54 140.001s94.333 49 175 49c36.667 0 70.334 -3.33301 101.001 -10
s55.667 -15 75 -25v-106c-19.333 16.667 -44.666 30 -75.999 40s-63.333 15 -96 15c-26 0 -47.833 -2 -65.5 -6s-31.834 -10.167 -42.501 -18.5s-18.167 -18.833 -22.5 -31.5s-6.5 -27.334 -6.5 -44.001c0 -28.667 8.33301 -50.834 25 -66.501s37.667 -28.667 63 -39
s52.5 -20 81.5 -29s56.167 -21.167 81.5 -36.5s46.333 -36 63 -62s25 -60.667 25 -104c0 -63.333 -18.667 -112.333 -56 -147s-96 -52 -176 -52zM231.997 -172.995c16 1.33301 30.6689 4.5 44.002 9.5s21.333 14.167 24 27.5c-30 0 -49.833 3.83301 -59.5 11.5
s-14.5 18.167 -14.5 31.5c0 12.667 5.16699 23.167 15.5 31.5s28.166 12.5 53.499 12.5c23.333 0 40.666 -5.16699 51.999 -15.5s17 -24.5 17 -42.5c0 -28.667 -10.5 -54 -31.5 -76s-52.167 -34.667 -93.5 -38z" />
    <glyph glyph-name="scommaaccent" unicode="&#x219;" horiz-adv-x="475" 
d="M227 -11c-57.333 0 -109.335 10.332 -156.002 30.999v98c19.333 -16.667 42.166 -29.334 68.499 -38.001s54.833 -13 85.5 -13c36 0 61.5 6.66699 76.5 20s22.5 32.666 22.5 57.999c0 21.333 -6.33301 37.5 -19 48.5s-28.667 19.833 -48 26.5s-40 12.834 -62 18.501
s-42.667 13.834 -62 24.501s-35.333 25.167 -48 43.5s-19 43.833 -19 76.5c0 50.667 14.333 89 43 115s76.334 39 143.001 39c26.667 0 52.334 -2.5 77.001 -7.5s44.667 -10.5 60 -16.5v-95c-19.333 13.333 -40.166 23.5 -62.499 30.5s-46.833 10.5 -73.5 10.5
c-36 0 -61.167 -6 -75.5 -18s-21.5 -29 -21.5 -51c0 -20 6.33301 -35.167 19 -45.5s28.667 -18.666 48 -24.999s40 -12.333 62 -18s42.667 -14 62 -25s35.333 -26.167 48 -45.5s19 -46 19 -80c0 -54 -14.667 -94.5 -44 -121.5s-77 -40.5 -143 -40.5zM179.998 -173.001
c19.333 1.33301 34.835 4.83203 46.502 10.499s18.5 14.834 20.5 27.501c-28.667 0 -48 3.66699 -58 11s-15 17.666 -15 30.999c0 12.667 5.16699 23.167 15.5 31.5s27.166 12.5 50.499 12.5c44 0 66 -20.667 66 -62c0 -12 -2.33301 -24.167 -7 -36.5
s-11.834 -23.666 -21.501 -33.999s-22 -19 -37 -26s-32.833 -11.5 -53.5 -13.5z" />
    <glyph glyph-name="Tcommaaccent" unicode="&#x21a;" horiz-adv-x="580" 
d="M244 617h-209v83h510v-83h-209v-617h-92v617zM227 -173c16 1.33301 30.6689 4.5 44.002 9.5s21.333 14.167 24 27.5c-30 0 -49.833 3.83301 -59.5 11.5s-14.5 18.167 -14.5 31.5c0 12.667 5.16699 23.167 15.5 31.5s28.166 12.5 53.499 12.5
c23.333 0 40.666 -5.16699 51.999 -15.5s17 -24.5 17 -42.5c0 -28.667 -10.5 -54 -31.5 -76s-52.167 -34.667 -93.5 -38z" />
    <glyph glyph-name="tcommaaccent" unicode="&#x21b;" horiz-adv-x="435" 
d="M277 -6c-52 0 -89.667 12.668 -113 38.001s-35 66.666 -35 123.999v291h-94v79h94v105l88 30v-135h168v-79h-168v-284c0 -32 5.66699 -54.5 17 -67.5s30 -19.5 56 -19.5c20.667 0 38.667 3 54 9s29 13.333 41 22v-88c-9.33301 -6.66699 -23.833 -12.5 -43.5 -17.5
s-41.167 -7.5 -64.5 -7.5zM193 -172.999c19.333 1.33301 34.835 4.83203 46.502 10.499s18.5 14.834 20.5 27.501c-28.667 0 -48 3.66699 -58 11s-15 17.666 -15 30.999c0 12.667 5.16699 23.167 15.5 31.5s27.166 12.5 50.499 12.5c44 0 66 -20.667 66 -62
c0 -12 -2.33301 -24.167 -7 -36.5s-11.834 -23.666 -21.501 -33.999s-22 -19 -37 -26s-32.833 -11.5 -53.5 -13.5z" />
    <glyph glyph-name="uni0237" unicode="&#x237;" horiz-adv-x="290" 
d="M53 -186c-17.333 0 -32.8311 1.33203 -46.498 3.99902s-22.834 5.33398 -27.501 8.00098v88c7.33301 -5.33301 16.166 -9.66602 26.499 -12.999s21.833 -5 34.5 -5c21.333 0 36.833 5.66699 46.5 17s14.5 32.333 14.5 63v550h88v-553
c0 -56.667 -11.333 -97.334 -34 -122.001s-56.667 -37 -102 -37z" />
    <glyph glyph-name="uni0259" unicode="&#x259;" horiz-adv-x="550" 
d="M270 -11c-76 0 -131.5 20.333 -166.5 61s-52.5 105.667 -52.5 195v41h360c-1.33301 60 -15 103.833 -41 131.5s-67 41.5 -123 41.5c-33.333 0 -64.333 -5.5 -93 -16.5s-52 -24.167 -70 -39.5v88c13.333 10.667 34.666 21 63.999 31s64.333 15 105 15
c84.667 0 146.834 -22.167 186.501 -66.5s59.5 -114.5 59.5 -210.5c0 -92.667 -20.333 -161 -61 -205s-96.667 -66 -168 -66zM270 64c45.333 0 79.833 12.332 103.5 36.999s36.167 65 37.5 121h-272c0 -26 2.16699 -48.667 6.5 -68s11.5 -35.666 21.5 -48.999
s23.333 -23.5 40 -30.5s37.667 -10.5 63 -10.5z" />
    <glyph glyph-name="afii57929" unicode="&#x2bc;" horiz-adv-x="240" 
d="M109 700h93l-78 -206h-66z" />
    <glyph glyph-name="circumflex" unicode="&#x2c6;" horiz-adv-x="400" 
d="M152 756h96l111 -139h-76l-83 88l-85 -88h-74z" />
    <glyph glyph-name="caron" unicode="&#x2c7;" horiz-adv-x="400" 
d="M41 756h76l83 -89l85 89h74l-111 -139h-96z" />
    <glyph glyph-name="breve" unicode="&#x2d8;" horiz-adv-x="370" 
d="M185 615c-40 0 -73.667 10.668 -101 32.001s-45 52.666 -53 93.999l60 16c12 -51.333 43.333 -77 94 -77c52 0 84 25.667 96 77l58 -16c-8 -42 -25.5 -73.5 -52.5 -94.5s-60.833 -31.5 -101.5 -31.5z" />
    <glyph glyph-name="dotaccent" unicode="&#x2d9;" horiz-adv-x="210" 
d="M105 632c-37.333 0 -56 18 -56 54s18.667 54 56 54s56 -18 56 -54s-18.667 -54 -56 -54z" />
    <glyph glyph-name="ring" unicode="&#x2da;" horiz-adv-x="260" 
d="M32 686c0 29.333 8.83301 52.833 26.5 70.5s41.5 26.5 71.5 26.5s53.833 -8.83301 71.5 -26.5s26.5 -41.167 26.5 -70.5c0 -28.667 -8.83301 -52 -26.5 -70s-41.5 -27 -71.5 -27s-53.833 9 -71.5 27s-26.5 41.333 -26.5 70zM82 686
c0 -15.333 4.16895 -27.168 12.502 -35.501s20.166 -12.5 35.499 -12.5c14.667 0 26.334 4.33301 35.001 13s13 20.334 13 35.001s-4.33301 26.334 -13 35.001s-20.334 13 -35.001 13s-26.334 -4.33301 -35.001 -13s-13 -20.334 -13 -35.001z" />
    <glyph glyph-name="ogonek" unicode="&#x2db;" horiz-adv-x="240" 
d="M128 -196c-33.333 0 -57.3301 6.66699 -71.9971 20s-22 32.333 -22 57c0 26 10.5 50.5 31.5 73.5s52.5 45.833 94.5 68.5l46 -23c-34 -17.333 -58.5 -35.333 -73.5 -54s-22.5 -35.667 -22.5 -51c0 -10.667 3.16699 -19.167 9.5 -25.5s16.166 -9.5 29.499 -9.5
c10 0 19.667 1.33301 29 4s18.666 6.66699 27.999 12v-55c-10 -5.33301 -21.333 -9.5 -34 -12.5s-27.334 -4.5 -44.001 -4.5z" />
    <glyph glyph-name="tilde" unicode="&#x2dc;" horiz-adv-x="400" 
d="M45 634c2 30.667 10.668 54.3359 26.001 71.0029s35.333 25 60 25c13.333 0 25.5 -1.83301 36.5 -5.5s23.833 -8.83398 38.5 -15.501c14 -6 25.333 -11.167 34 -15.5s17.667 -6.5 27 -6.5s16.833 3 22.5 9s10.167 17 13.5 33l52 -12
c-3.33301 -30.667 -12.833 -54.167 -28.5 -70.5s-34.5 -24.5 -56.5 -24.5c-12 0 -23 1.16699 -33 3.5s-24.667 8.16602 -44 17.499c-12.667 6 -23 11.167 -31 15.5s-16.667 6.5 -26 6.5c-8.66699 0 -16.334 -2.83301 -23.001 -8.5s-11.667 -16.834 -15 -33.501z" />
    <glyph glyph-name="hungarumlaut" unicode="&#x2dd;" horiz-adv-x="460" 
d="M107 756h100l-83 -139h-66zM288 756h114l-134 -139h-73z" />
    <glyph glyph-name="acutecomb" unicode="&#x301;" horiz-adv-x="0" 
d="M-240 756h116l-125 -139h-73z" />
    <glyph glyph-name="uni0394" unicode="&#x394;" horiz-adv-x="640" 
d="M270 700h100l250 -700h-600zM494 85l-175 507h-2l-175 -507h352z" />
    <glyph glyph-name="uni0394" unicode="&#x2206;" horiz-adv-x="640" 
d="M270 700h100l250 -700h-600zM494 85l-175 507h-2l-175 -507h352z" />
    <glyph glyph-name="uni03A9" unicode="&#x3a9;" horiz-adv-x="740" 
d="M62 81l175.003 -0.00292969v60c-25.333 8.66699 -49.166 20.334 -71.499 35.001s-42.166 32.834 -59.499 54.501s-31 47.334 -41 77.001s-15 63.834 -15 102.501c0 45.333 7.5 86.5 22.5 123.5s36.333 68.667 64 95s61.167 46.666 100.5 60.999s83.666 21.5 132.999 21.5
s93.666 -7.16699 132.999 -21.5s72.833 -34.666 100.5 -60.999s49 -58 64 -95s22.5 -78.167 22.5 -123.5c0 -38.667 -5.16699 -72.667 -15.5 -102s-24.166 -55 -41.499 -77s-37.166 -40.333 -59.499 -55s-45.5 -26.334 -69.5 -35.001v-60h174v-81h-260v195
c30.667 5.33301 57 14.833 79 28.5s40.167 30 54.5 49s25 39.833 32 62.5s10.5 45.667 10.5 69c0 33.333 -5.33301 63.833 -16 91.5s-25.834 51.334 -45.501 71.001s-43.334 34.834 -71.001 45.501s-58.167 16 -91.5 16s-63.833 -5.33301 -91.5 -16
s-51.334 -25.834 -71.001 -45.501s-34.834 -43.334 -45.501 -71.001s-16 -58.167 -16 -91.5c0 -23.333 3.5 -46.333 10.5 -69s17.667 -43.5 32 -62.5s32.666 -35.333 54.999 -49s48.833 -23.167 79.5 -28.5v-195h-261v81z" />
    <glyph glyph-name="uni03A9" unicode="&#x2126;" horiz-adv-x="740" 
d="M62 81l175.003 -0.00292969v60c-25.333 8.66699 -49.166 20.334 -71.499 35.001s-42.166 32.834 -59.499 54.501s-31 47.334 -41 77.001s-15 63.834 -15 102.501c0 45.333 7.5 86.5 22.5 123.5s36.333 68.667 64 95s61.167 46.666 100.5 60.999s83.666 21.5 132.999 21.5
s93.666 -7.16699 132.999 -21.5s72.833 -34.666 100.5 -60.999s49 -58 64 -95s22.5 -78.167 22.5 -123.5c0 -38.667 -5.16699 -72.667 -15.5 -102s-24.166 -55 -41.499 -77s-37.166 -40.333 -59.499 -55s-45.5 -26.334 -69.5 -35.001v-60h174v-81h-260v195
c30.667 5.33301 57 14.833 79 28.5s40.167 30 54.5 49s25 39.833 32 62.5s10.5 45.667 10.5 69c0 33.333 -5.33301 63.833 -16 91.5s-25.834 51.334 -45.501 71.001s-43.334 34.834 -71.001 45.501s-58.167 16 -91.5 16s-63.833 -5.33301 -91.5 -16
s-51.334 -25.834 -71.001 -45.501s-34.834 -43.334 -45.501 -71.001s-16 -58.167 -16 -91.5c0 -23.333 3.5 -46.333 10.5 -69s17.667 -43.5 32 -62.5s32.666 -35.333 54.999 -49s48.833 -23.167 79.5 -28.5v-195h-261v81z" />
    <glyph glyph-name="pi" unicode="&#x3c0;" horiz-adv-x="710" 
d="M583 -6c-73.333 0 -109.999 40.665 -109.999 121.998v330h-231v-446h-88v445c-16.667 0 -33.334 -3 -50.001 -9s-30.667 -13.667 -42 -23l-31 74c10 6.66699 20.333 12.334 31 17.001s22.5 8.66699 35.5 12s27.5 5.83301 43.5 7.5s34.333 2.5 55 2.5h453v-80h-88v-310
c0 -23.333 3.5 -39 10.5 -47s18.167 -12 33.5 -12c11.333 0 20.833 0.833008 28.5 2.5s12.834 2.83398 15.501 3.50098v-81c-4.66699 -1.33301 -12.834 -3 -24.501 -5s-25.5 -3 -41.5 -3z" />
    <glyph glyph-name="afii10023" unicode="&#x401;" horiz-adv-x="575" 
d="M101 700h419v-83h-327v-218h287v-81h-287v-235h327v-83h-419v700zM208 785c-38 0 -57 18.333 -57 55s19 55 57 55s57 -18.333 57 -55s-19 -55 -57 -55zM411 785c-38 0 -57 18.333 -57 55s19 55 57 55s57 -18.333 57 -55s-19 -55 -57 -55z" />
    <glyph glyph-name="afii10051" unicode="&#x402;" horiz-adv-x="770" 
d="M244 617l-209 0.00195312v83h510v-83h-209v-212c20 9.33301 43.333 17.666 70 24.999s56.667 11 90 11c77.333 0 134 -17.333 170 -52s54 -86.334 54 -155.001v-37c0 -69.333 -16.833 -121.333 -50.5 -156s-82.5 -52 -146.5 -52c-14 0 -28.333 0.833008 -43 2.5
s-26.667 4.16699 -36 7.5v88c15.333 -9.33301 37 -14 65 -14c36.667 0 65.167 10.667 85.5 32s30.5 52 30.5 92v36c0 40 -11.667 70.5 -35 91.5s-62 31.5 -116 31.5c-26.667 0 -51.5 -3.16699 -74.5 -9.5s-44.167 -14.5 -63.5 -24.5v-322h-92v617z" />
    <glyph glyph-name="afii10052" unicode="&#x403;" horiz-adv-x="535" 
d="M101 700h399v-83h-307v-617h-92v700zM345 910h118l-133 -140h-75z" />
    <glyph glyph-name="afii10053" unicode="&#x404;" horiz-adv-x="590" 
d="M365 -11c-51.333 0 -96.667 7.00098 -136 21.001s-72.333 35.833 -99 65.5s-46.667 67.667 -60 114s-20 101.5 -20 165.5c0 125.333 26.167 216 78.5 272s131.166 84 236.499 84c25.333 0 48.333 -1.66699 69 -5s38.334 -6.66602 53.001 -9.99902
c17.333 -4 32.666 -8.66699 45.999 -14v-97c-19.333 12.667 -42.833 22.5 -70.5 29.5s-59.5 10.5 -95.5 10.5c-34.667 0 -65.167 -4.16699 -91.5 -12.5s-48.666 -21.5 -66.999 -39.5s-32.5 -41.333 -42.5 -70s-16.333 -63.667 -19 -105h298v-80h-298
c4.66699 -86.667 25.834 -148.834 63.501 -186.501s89.834 -56.5 156.501 -56.5c39.333 0 73.166 5.33301 101.499 16s52.166 21.667 71.499 33v-101c-14 -6.66699 -30 -12.334 -48 -17.001c-15.333 -4.66699 -33.833 -8.66699 -55.5 -12s-45.5 -5 -71.5 -5z" />
    <glyph glyph-name="afii10054" unicode="&#x405;" horiz-adv-x="580" 
d="M282 -11c-42.667 0 -81.8369 5.17188 -117.504 15.5049s-64.167 22.833 -85.5 37.5v106c10 -8.66699 21.833 -17.334 35.5 -26.001s29 -16.5 46 -23.5s35.333 -12.667 55 -17s40.5 -6.5 62.5 -6.5c50.667 0 86.834 9.5 108.501 28.5s32.5 46.167 32.5 81.5
c0 29.333 -8.33301 52.5 -25 69.5s-37.667 31 -63 42s-52.666 21.167 -81.999 30.5s-56.666 21.666 -81.999 36.999s-46.333 35.166 -63 59.499s-25 57.166 -25 98.499c0 60.667 18 107.334 54 140.001s94.333 49 175 49c36.667 0 70.334 -3.33301 101.001 -10
s55.667 -15 75 -25v-106c-19.333 16.667 -44.666 30 -75.999 40s-63.333 15 -96 15c-26 0 -47.833 -2 -65.5 -6s-31.834 -10.167 -42.501 -18.5s-18.167 -18.833 -22.5 -31.5s-6.5 -27.334 -6.5 -44.001c0 -28.667 8.33301 -50.834 25 -66.501s37.667 -28.667 63 -39
s52.5 -20 81.5 -29s56.167 -21.167 81.5 -36.5s46.333 -36 63 -62s25 -60.667 25 -104c0 -63.333 -18.667 -112.333 -56 -147s-96 -52 -176 -52z" />
    <glyph glyph-name="afii10055" unicode="&#x406;" horiz-adv-x="330" 
d="M119 700h92v-700h-92v700z" />
    <glyph glyph-name="afii10056" unicode="&#x407;" horiz-adv-x="330" 
d="M119 700h92v-700h-92v700zM64 785c-38 0 -57 18.333 -57 55s19 55 57 55s57 -18.333 57 -55s-19 -55 -57 -55zM267 785c-38 0 -57 18.333 -57 55s19 55 57 55s57 -18.333 57 -55s-19 -55 -57 -55z" />
    <glyph glyph-name="afii10057" unicode="&#x408;" horiz-adv-x="420" 
d="M140 -11c-16 0 -30.332 0.833008 -42.999 2.5s-23.667 3.83398 -33 6.50098c-10.667 2.66699 -20.334 5.66699 -29.001 9v97c7.33301 -6 15.666 -11 24.999 -15c8 -3.33301 18 -6.5 30 -9.5s25.667 -4.5 41 -4.5c30.667 0 53.334 8.16699 68.001 24.5
s22 44.166 22 83.499v517h93v-517c0 -70 -14 -119.833 -42 -149.5s-72 -44.5 -132 -44.5z" />
    <glyph glyph-name="afii10058" unicode="&#x409;" horiz-adv-x="985" 
d="M667 -6c-19.333 0 -39.5029 0.666016 -60.5029 1.99902s-40.5 2.66602 -58.5 3.99902l-62 6v611h-224l-3 -64c-4 -82 -8.83301 -152.833 -14.5 -212.5s-12.167 -110.5 -19.5 -152.5s-16 -75.833 -26 -101.5s-21.167 -45.834 -33.5 -60.501s-26.166 -24.5 -41.499 -29.5
s-32.333 -7.5 -51 -7.5c-12 0 -24.667 1.66699 -38 5v88c4.66699 -1.33301 9 -2.33301 13 -3s8.66699 -1 14 -1c15.333 0 29 6.16699 41 18.5s22.333 36 31 71s16 83.833 22 146.5s11 144.334 15 245.001l5 141h403v-252c11.333 0.666992 23.333 1.33398 36 2.00098
c10.667 0.666992 22.834 1.33398 36.501 2.00098s27.167 1 40.5 1c86.667 0 148.834 -18 186.501 -54s56.5 -92.333 56.5 -169c0 -40.667 -4.83301 -75.834 -14.5 -105.501s-25.167 -54.167 -46.5 -73.5s-49 -33.666 -83 -42.999s-75.333 -14 -124 -14zM838.997 226.999
c0 26 -2.50098 47.833 -7.50098 65.5s-13.833 32 -26.5 43s-29.5 18.833 -50.5 23.5s-47.5 7 -79.5 7c-12.667 0 -24.667 -0.166992 -36 -0.5s-21.666 -0.833008 -30.999 -1.5c-10.667 -0.666992 -20.334 -1.33398 -29.001 -2.00098v-274
c8.66699 -1.33301 18.334 -2.66602 29.001 -3.99902c18 -2 40.333 -3 67 -3c60 0 102.333 11.5 127 34.5s37 60.167 37 111.5z" />
    <glyph glyph-name="afii10059" unicode="&#x40a;" horiz-adv-x="1010" 
d="M692 -6c-19.333 0 -39.502 0.666016 -60.502 1.99902s-40.5 2.66602 -58.5 3.99902l-62 6v311h-318v-317h-92v700h92v-299h318v299h93v-252c11.333 0.666992 23.333 1.33398 36 2.00098c10.667 0.666992 22.834 1.33398 36.501 2.00098s27.167 1 40.5 1
c86.667 0 148.834 -18 186.501 -54s56.5 -92.333 56.5 -169c0 -40.667 -4.83301 -75.834 -14.5 -105.501s-25.167 -54.167 -46.5 -73.5s-49 -33.666 -83 -42.999s-75.333 -14 -124 -14zM863.998 226.999c0 26 -2.50098 47.833 -7.50098 65.5s-13.833 32 -26.5 43
s-29.5 18.833 -50.5 23.5s-47.5 7 -79.5 7c-12.667 0 -24.667 -0.166992 -36 -0.5s-21.666 -0.833008 -30.999 -1.5c-10.667 -0.666992 -20.334 -1.33398 -29.001 -2.00098v-274c8.66699 -1.33301 18.334 -2.66602 29.001 -3.99902c18 -2 40.333 -3 67 -3
c60 0 102.333 11.5 127 34.5s37 60.167 37 111.5z" />
    <glyph glyph-name="afii10060" unicode="&#x40b;" horiz-adv-x="795" 
d="M244 617l-208.999 0.000976562v83h510v-83h-209v-212c18 9.33301 40.5 18.166 67.5 26.499s58.5 12.5 94.5 12.5c80.667 0 138.667 -17 174 -51s53 -87.667 53 -161v-232h-93v229c0 44 -11.333 76.833 -34 98.5s-60.334 32.5 -113.001 32.5
c-32 0 -60.5 -3.83301 -85.5 -11.5s-46.167 -16.167 -63.5 -25.5v-323h-92v617z" />
    <glyph glyph-name="afii10061" unicode="&#x40c;" horiz-adv-x="655" 
d="M266 317h-73v-317h-92v700h92v-300h73l231 300h113l-266 -340l286 -360h-116zM400 910h118l-133 -140h-75z" />
    <glyph glyph-name="afii10062" unicode="&#x40e;" horiz-adv-x="630" 
d="M216 -11c-13.333 0 -26.165 0.833008 -38.498 2.5s-23.833 5.16699 -34.5 10.5v95c7.33301 -6 16.166 -11.167 26.499 -15.5s22.166 -6.5 35.499 -6.5c19.333 0 35 6.33301 47 19s23.667 34 35 64l-267 542h107l208 -437l172 437h103l-231 -562
c-11.333 -28 -22.833 -51.5 -34.5 -70.5s-24 -34.333 -37 -46s-27 -20 -42 -25s-31.5 -7.5 -49.5 -7.5zM315.001 770c-24 0 -45.667 2.5 -65 7.5s-36 13 -50 24s-25.167 25.333 -33.5 43s-12.833 39.5 -13.5 65.5h76c2 -30 9.83301 -50.833 23.5 -62.5
s34.5 -17.5 62.5 -17.5s49.167 5.83301 63.5 17.5s22.5 32.5 24.5 62.5h74c-2.66699 -51.333 -18.5 -87.5 -47.5 -108.5s-67.167 -31.5 -114.5 -31.5z" />
    <glyph glyph-name="afii10145" unicode="&#x40f;" horiz-adv-x="690" 
d="M101 700h92v-617h304v617h92v-700h-202v-130h-84v130h-202v700z" />
    <glyph glyph-name="afii10017" unicode="&#x410;" horiz-adv-x="640" 
d="M270 700h100l250 -700h-99l-63 185h-281l-63 -185h-94zM205 265h225l-112 331z" />
    <glyph glyph-name="afii10018" unicode="&#x411;" horiz-adv-x="630" 
d="M300 -6c-22 0 -44.6699 0.666992 -68.0029 2s-44.666 2.66602 -63.999 3.99902l-67 6v694h425v-83h-333v-193c10.667 0.666992 22.334 1.33398 35.001 2.00098c10.667 0.666992 23.167 1.33398 37.5 2.00098s29.5 1 45.5 1c48.667 0 89.5 -4.16699 122.5 -12.5
s59.667 -21.166 80 -38.499s34.833 -39.333 43.5 -66s13 -58.667 13 -96c0 -36.667 -5 -68.834 -15 -96.501s-25.667 -50.834 -47 -69.501s-49.166 -32.667 -83.499 -42s-75.833 -14 -124.5 -14zM473.997 217c0 22.667 -2.66602 42.333 -7.99902 59s-14.5 30.167 -27.5 40.5
s-30.667 18 -53 23s-50.5 7.5 -84.5 7.5c-15.333 0 -29.666 -0.333008 -42.999 -1s-24.666 -1.33398 -33.999 -2.00098c-12 -0.666992 -22.333 -1.33398 -31 -2.00098v-254c8.66699 -1.33301 19 -2.66602 31 -3.99902c9.33301 -1.33301 20.666 -2.16602 33.999 -2.49902
s27.666 -0.5 42.999 -0.5c32 0 59.167 2.83301 81.5 8.5s40.166 14 53.499 25s23 25 29 42s9 37.167 9 60.5z" />
    <glyph glyph-name="afii10019" unicode="&#x412;" horiz-adv-x="625" 
d="M308 -6c-23.333 0 -47.3379 0.5 -72.0049 1.5s-47 2.16699 -67 3.5l-68 6v690c22 1.33301 44.667 3 68 5c20 1.33301 42 2.66602 66 3.99902s47.333 2 70 2c46.667 0 85.334 -3.66699 116.001 -11s55.334 -18.5 74.001 -33.5s31.834 -34 39.501 -57
s11.5 -50.5 11.5 -82.5c0 -84 -38.667 -136.667 -116 -158c92.667 -12 139 -67 139 -165c0 -34 -4.66699 -63.667 -14 -89s-24.166 -46.666 -44.499 -63.999s-47.166 -30.333 -80.499 -39s-74 -13 -122 -13zM473.995 202c0 40 -11.167 69.668 -33.5 89.001
s-61.833 29 -118.5 29h-129v-238c10.667 -0.666992 22.334 -1.33398 35.001 -2.00098c11.333 -0.666992 24.333 -1.16699 39 -1.5s30.667 -0.5 48 -0.5c30.667 0 56.167 2.33301 76.5 7s36.666 12 48.999 22s21 22.833 26 38.5s7.5 34.5 7.5 56.5zM449.995 513.001
c0 20 -2.16797 36.832 -6.50098 50.499s-11.833 24.834 -22.5 33.501s-25.167 15 -43.5 19s-41.5 6 -69.5 6c-16 0 -31 -0.166992 -45 -0.5s-26.333 -0.833008 -37 -1.5c-12 -0.666992 -23 -1 -33 -1v-222h119c50.667 0 86.334 9.5 107.001 28.5s31 48.167 31 87.5z" />
    <glyph glyph-name="afii10020" unicode="&#x413;" horiz-adv-x="535" 
d="M101 700h399v-83h-307v-617h-92v700z" />
    <glyph glyph-name="afii10021" unicode="&#x414;" horiz-adv-x="695" 
d="M25 83l65.999 0.000976562c13.333 28 25 60.833 35 98.5s18.333 78.5 25 122.5s11.834 90.667 15.501 140s6.16699 99.666 7.5 150.999l2 106h398v-618h81v-213h-85v130h-460v-130h-85v213zM482.999 83.001v534.001h-222c0 -46.667 -1.5 -94.834 -4.5 -144.501
s-7.66699 -98.167 -14 -145.5s-14.5 -92 -24.5 -134s-21.667 -78.667 -35 -110h300z" />
    <glyph glyph-name="afii10022" unicode="&#x415;" horiz-adv-x="575" 
d="M101 700h419v-83h-327v-218h287v-81h-287v-235h327v-83h-419v700z" />
    <glyph glyph-name="afii10024" unicode="&#x416;" horiz-adv-x="900" 
d="M254 357l-198 343h107l170 -300h70v300h93v-300h71l174 300h103l-199 -337l219 -363h-109l-188 317h-71v-317h-93v317h-70l-190 -317h-107z" />
    <glyph glyph-name="afii10025" unicode="&#x417;" horiz-adv-x="545" 
d="M244 -11c-42 0 -79 3.83398 -111 11.501s-59.667 16.834 -83 27.501v107c20 -18 46.5 -32.833 79.5 -44.5s69.833 -17.5 110.5 -17.5c55.333 0 94.5 10.5 117.5 31.5s34.5 53.5 34.5 97.5c0 38.667 -11.333 68 -34 88s-62 30 -118 30h-92v77h89
c46 0 79.333 9.83301 100 29.5s31 49.167 31 88.5c0 38 -9.83301 66.167 -29.5 84.5s-53.167 27.5 -100.5 27.5c-32 0 -62.667 -4.83301 -92 -14.5s-56.666 -23.167 -81.999 -40.5v104c23.333 10 50 18.333 80 25s64 10 102 10c79.333 0 135.666 -15.667 168.999 -47
s50 -76 50 -134c0 -43.333 -10.333 -79 -31 -107s-50.667 -47.667 -90 -59c48 -4.66699 84.167 -21.834 108.5 -51.501s36.5 -69.5 36.5 -119.5c0 -64.667 -19 -114.834 -57 -150.501s-100.667 -53.5 -188 -53.5z" />
    <glyph glyph-name="afii10026" unicode="&#x418;" horiz-adv-x="740" 
d="M101 700h92v-457c0 -13.333 -0.166992 -26.333 -0.5 -39s-0.833008 -24 -1.5 -34c-0.666992 -12 -1 -23 -1 -33h2l18 33c5.33301 10 11.833 21.333 19.5 34l23.5 39l287 457h99v-700h-92v457v42c0 12.667 0.333008 23.667 1 33
c0.666992 11.333 1.33398 21.666 2.00098 30.999h-2c-4.66699 -9.33301 -10.334 -19.666 -17.001 -30.999l-19 -33l-25 -42l-287 -457h-99v700z" />
    <glyph glyph-name="afii10027" unicode="&#x419;" horiz-adv-x="740" 
d="M101 700h92v-457c0 -13.333 -0.166992 -26.333 -0.5 -39s-0.833008 -24 -1.5 -34c-0.666992 -12 -1 -23 -1 -33h2l18 33c5.33301 10 11.833 21.333 19.5 34l23.5 39l287 457h99v-700h-92v457v42c0 12.667 0.333008 23.667 1 33
c0.666992 11.333 1.33398 21.666 2.00098 30.999h-2c-4.66699 -9.33301 -10.334 -19.666 -17.001 -30.999l-19 -33l-25 -42l-287 -457h-99v700zM367 770c-24 0 -45.667 2.5 -65 7.5s-36 13 -50 24s-25.167 25.333 -33.5 43s-12.833 39.5 -13.5 65.5h76
c2 -30 9.83301 -50.833 23.5 -62.5s34.5 -17.5 62.5 -17.5s49.167 5.83301 63.5 17.5s22.5 32.5 24.5 62.5h74c-2.66699 -51.333 -18.5 -87.5 -47.5 -108.5s-67.167 -31.5 -114.5 -31.5z" />
    <glyph glyph-name="afii10028" unicode="&#x41a;" horiz-adv-x="655" 
d="M266 317h-73v-317h-92v700h92v-300h73l231 300h113l-266 -340l286 -360h-116z" />
    <glyph glyph-name="afii10029" unicode="&#x41b;" horiz-adv-x="695" 
d="M73 -11c-12 0 -24.668 1.66699 -38.001 5v88c4.66699 -1.33301 9 -2.33301 13 -3s8.66699 -1 14 -1c15.333 0 29 6.16699 41 18.5s22.333 36 31 71s16 83.833 22 146.5s11 144.334 15 245.001l5 141h418v-700h-92v617h-240l-3 -64c-4 -82 -8.83301 -152.833 -14.5 -212.5
s-12.167 -110.5 -19.5 -152.5s-16 -75.833 -26 -101.5s-21.167 -45.834 -33.5 -60.501s-26.166 -24.5 -41.499 -29.5s-32.333 -7.5 -51 -7.5z" />
    <glyph glyph-name="afii10030" unicode="&#x41c;" horiz-adv-x="850" 
d="M101 700l115.001 0.000976562l211 -430l211 430h111v-700h-90v459v31c0 8.66699 0.166992 17.334 0.5 26.001l1 26c0.333008 8.66699 1.16602 19 2.49902 31h-3c-4 -12 -7.83301 -22.333 -11.5 -31l-11 -25.5c-3.66699 -8.33301 -7.83398 -17 -12.501 -26l-16 -31.5
l-145 -295h-78l-145 295l-15.5 31.5l-12 26l-11 25.5l-12.5 31h-3c0.666992 -12 1.33398 -22.333 2.00098 -31s1.16699 -17.334 1.5 -26.001s0.5 -17.334 0.5 -26.001v-31v-459h-90v700z" />
    <glyph glyph-name="afii10031" unicode="&#x41d;" horiz-adv-x="720" 
d="M101 700h92v-299h334v299h92v-700h-92v317h-334v-317h-92v700z" />
    <glyph glyph-name="afii10032" unicode="&#x41e;" horiz-adv-x="710" 
d="M355 -11c-49.333 0 -92.834 7.00293 -130.501 21.0029s-69.5 35.667 -95.5 65s-45.667 66.666 -59 111.999s-20 99.666 -20 162.999s6.66699 117.666 20 162.999s33 82.666 59 111.999s57.833 51 95.5 65s81.167 21 130.5 21c50.667 0 95 -6.66699 133 -20
s69.833 -34.5 95.5 -63.5s44.834 -66.333 57.501 -112s19 -100.834 19 -165.501c0 -63.333 -6.66699 -117.666 -20 -162.999s-33 -82.666 -59 -111.999s-58 -51 -96 -65s-81.333 -21 -130 -21zM354.999 73.0029c34 0 64 4.83301 90 14.5s47.833 25.5 65.5 47.5
s31 50.667 40 86s13.5 78.333 13.5 129s-4.5 93.667 -13.5 129s-22.333 64 -40 86s-39.5 37.833 -65.5 47.5s-56 14.5 -90 14.5c-33.333 0 -63 -5 -89 -15s-47.833 -26 -65.5 -48s-31.167 -50.5 -40.5 -85.5s-14 -77.833 -14 -128.5c0 -50 4.66699 -92.5 14 -127.5
s22.833 -63.667 40.5 -86s39.5 -38.5 65.5 -48.5s55.667 -15 89 -15z" />
    <glyph glyph-name="afii10033" unicode="&#x41f;" horiz-adv-x="700" 
d="M101 700h498v-700h-92v617h-314v-617h-92v700z" />
    <glyph glyph-name="afii10034" unicode="&#x420;" horiz-adv-x="620" 
d="M101 695c19.333 1.33301 40 3.00195 62 5.00195c18.667 1.33301 39.5 2.66602 62.5 3.99902s46.833 2 71.5 2c50 0 92.333 -4.66699 127 -14s62.834 -23.833 84.501 -43.5s37.334 -44.334 47.001 -74.001s14.5 -64.834 14.5 -105.501
c0 -81.333 -21.833 -142.666 -65.5 -183.999s-112.834 -62 -207.501 -62c-15.333 0 -29.333 0.166992 -42 0.5s-23.667 0.833008 -33 1.5c-10.667 0.666992 -20.334 1.66699 -29.001 3v-228h-92v695zM474 469.002c0 26.667 -2.83203 49.502 -8.49902 68.502
s-15.334 34.5 -29.001 46.5s-31.834 20.833 -54.501 26.5s-51 8.5 -85 8.5c-15.333 0 -29.333 -0.333008 -42 -1s-23.667 -1.33398 -33 -2.00098c-10.667 -0.666992 -20.334 -1.33398 -29.001 -2.00098v-299c8.66699 -1.33301 18.334 -2.33301 29.001 -3
c9.33301 -0.666992 20.333 -1.16699 33 -1.5s26.667 -0.5 42 -0.5c64.667 0 110.334 12.5 137.001 37.5s40 65.5 40 121.5z" />
    <glyph glyph-name="afii10035" unicode="&#x421;" horiz-adv-x="575" 
d="M358 -11c-51.333 0 -96.1689 6.66602 -134.502 19.999s-70.333 34.666 -96 63.999s-45 67.166 -58 113.499s-19.5 102.5 -19.5 168.5c0 62 6.66699 115.5 20 160.5s32.833 82 58.5 111s57.5 50.333 95.5 64s81.667 20.5 131 20.5c24.667 0 47 -1.5 67 -4.5
s37.667 -6.16699 53 -9.5c17.333 -4 33 -8.66699 47 -14v-96c-19.333 11.333 -42.666 20.5 -69.999 27.5s-59.333 10.5 -96 10.5c-34 0 -64.167 -4.83301 -90.5 -14.5s-48.333 -25.167 -66 -46.5s-31 -49.166 -40 -83.499s-13.5 -76.166 -13.5 -125.499
c0 -51.333 4.66699 -94.666 14 -129.999s23 -64.166 41 -86.499s40.333 -38.5 67 -48.5s57.334 -15 92.001 -15c38 0 71.5 5.33301 100.5 16s52.167 21 69.5 31v-97c-14.667 -6.66699 -31 -12.667 -49 -18c-15.333 -4.66699 -33.5 -8.83398 -54.5 -12.501
s-43.833 -5.5 -68.5 -5.5z" />
    <glyph glyph-name="afii10036" unicode="&#x422;" horiz-adv-x="580" 
d="M244 617h-209v83h510v-83h-209v-617h-92v617z" />
    <glyph glyph-name="afii10037" unicode="&#x423;" horiz-adv-x="630" 
d="M216 -11c-13.333 0 -26.165 0.833008 -38.498 2.5s-23.833 5.16699 -34.5 10.5v95c7.33301 -6 16.166 -11.167 26.499 -15.5s22.166 -6.5 35.499 -6.5c19.333 0 35 6.33301 47 19s23.667 34 35 64l-267 542h107l208 -437l172 437h103l-231 -562
c-11.333 -28 -22.833 -51.5 -34.5 -70.5s-24 -34.333 -37 -46s-27 -20 -42 -25s-31.5 -7.5 -49.5 -7.5z" />
    <glyph glyph-name="afii10038" unicode="&#x424;" horiz-adv-x="830" 
d="M369 60h-22c-104 0 -180.333 24 -229 72s-73 122.333 -73 223c0 101.333 24.167 175.833 72.5 223.5s124.833 71.5 229.5 71.5h22v70h92v-70h22c105.333 0 182 -23.667 230 -71s72 -122 72 -224c0 -100.667 -24.333 -175 -73 -223s-125 -72 -229 -72h-22v-80h-92v80z
M141 355c0 -39.333 3.83496 -72.667 11.502 -100s19.667 -49.5 36 -66.5s37.666 -29.333 63.999 -37s58.166 -11.5 95.499 -11.5h22v430h-22c-38 0 -70 -3.66699 -96 -11s-47.333 -19.5 -64 -36.5s-28.667 -39.167 -36 -66.5s-11 -61 -11 -101zM689.002 354.999
c0 40 -3.66699 73.667 -11 101s-19.166 49.5 -35.499 66.5s-37.666 29.167 -63.999 36.5s-58.5 11 -96.5 11h-22v-430h22c37.333 0 69.166 3.83301 95.499 11.5s47.666 20.167 63.999 37.5s28.333 39.5 36 66.5s11.5 60.167 11.5 99.5z" />
    <glyph glyph-name="afii10039" unicode="&#x425;" horiz-adv-x="630" 
d="M257 359l-218 341h107l170 -266l170 266h105l-218 -339l232 -361h-109l-182 285l-183 -285h-106z" />
    <glyph glyph-name="afii10040" unicode="&#x426;" horiz-adv-x="730" 
d="M605 0h-504v700h92v-617h324v617h93v-617h80v-213h-85v130z" />
    <glyph glyph-name="afii10041" unicode="&#x427;" horiz-adv-x="650" 
d="M457 290c-12 -7.33301 -26.333 -13.999 -43 -19.999c-14 -5.33301 -31.333 -9.83301 -52 -13.5s-44.334 -5.5 -71.001 -5.5c-78 0 -134.333 17 -169 51s-52 87.667 -52 161v237h93v-233c0 -44.667 11 -77.834 33 -99.501s57.667 -32.5 107 -32.5
c26 0 48.667 1.83301 68 5.5s35.333 7.83398 48 12.501c14.667 5.33301 27.334 11.666 38.001 18.999v328h92v-700h-92v290z" />
    <glyph glyph-name="afii10042" unicode="&#x428;" horiz-adv-x="930" 
d="M101 700h92v-617h226v617h92v-617h226v617h92v-700h-728v700z" />
    <glyph glyph-name="afii10043" unicode="&#x429;" horiz-adv-x="950" 
d="M101 700h92v-617h226v617h92v-617h226v617h92v-617h81v-213h-85v130h-724v700z" />
    <glyph glyph-name="afii10044" unicode="&#x42a;" horiz-adv-x="690" 
d="M362 -6c-19.333 0 -39.499 0.666992 -60.499 2s-40.5 2.66602 -58.5 3.99902l-62 6v611h-146v83h237v-252l37 2c11.333 0.666992 23.666 1.33398 36.999 2.00098s26.666 1 39.999 1c46 0 85.167 -4.5 117.5 -13.5s58.5 -22.667 78.5 -41s34.667 -41.5 44 -69.5
s14 -61 14 -99c0 -40.667 -4.83301 -75.834 -14.5 -105.501s-25.5 -54.167 -47.5 -73.5s-50.667 -33.666 -86 -42.999s-78.666 -14 -129.999 -14zM544.001 227c0 26 -2.66895 47.832 -8.00195 65.499s-14.5 32 -27.5 43s-30.667 18.833 -53 23.5s-50.833 7 -85.5 7
c-13.333 0 -25.666 -0.166992 -36.999 -0.5s-21.666 -0.833008 -30.999 -1.5c-10.667 -0.666992 -20.667 -1.33398 -30 -2.00098v-274c9.33301 -1.33301 19.333 -2.66602 30 -3.99902c18 -2 40.667 -3 68 -3c32.667 0 60 2.83301 82 8.5s39.833 14.334 53.5 26.001
s23.5 26.667 29.5 45s9 40.5 9 66.5z" />
    <glyph glyph-name="afii10045" unicode="&#x42b;" horiz-adv-x="850" 
d="M282 -6c-19.333 0 -39.4971 0.666992 -60.4971 2s-40.5 2.66602 -58.5 3.99902l-62 6v694h91v-252l37 2c11.333 0.666992 23.666 1.33398 36.999 2.00098s26.666 1 39.999 1c45.333 0 83.833 -4.5 115.5 -13.5s57.5 -22.667 77.5 -41s34.667 -41.5 44 -69.5
s14 -61 14 -99c0 -40.667 -4.83301 -75.834 -14.5 -105.501s-25.334 -54.167 -47.001 -73.5s-50 -33.666 -85 -42.999s-77.833 -14 -128.5 -14zM461.003 227c0 26 -2.50098 47.833 -7.50098 65.5s-14 32 -27 43s-30.5 18.833 -52.5 23.5s-50 7 -84 7
c-13.333 0 -25.666 -0.166992 -36.999 -0.5s-21.666 -0.833008 -30.999 -1.5c-10.667 -0.666992 -20.667 -1.33398 -30 -2.00098v-274c9.33301 -1.33301 19.333 -2.66602 30 -3.99902c18 -2 40.667 -3 68 -3c63.333 0 107.666 11.5 132.999 34.5s38 60.167 38 111.5z
M657.002 700h92v-700h-92v700z" />
    <glyph glyph-name="afii10046" unicode="&#x42c;" horiz-adv-x="610" 
d="M282 -6c-19.333 0 -39.502 0.666016 -60.502 1.99902s-40.5 2.66602 -58.5 3.99902l-62 6v694h92v-252c11.333 0.666992 23.333 1.33398 36 2.00098c10.667 0.666992 22.834 1.33398 36.501 2.00098s27.167 1 40.5 1c46 0 85.167 -4.5 117.5 -13.5s58.5 -22.667 78.5 -41
s34.667 -41.5 44 -69.5s14 -61 14 -99c0 -40.667 -4.83301 -75.834 -14.5 -105.501s-25.5 -54.167 -47.5 -73.5s-50.667 -33.666 -86 -42.999s-78.666 -14 -129.999 -14zM463.998 226.999c0 26 -2.66895 47.832 -8.00195 65.499s-14.5 32 -27.5 43s-30.667 18.833 -53 23.5
s-50.833 7 -85.5 7c-13.333 0 -25.666 -0.166992 -36.999 -0.5s-21.666 -0.833008 -30.999 -1.5c-10.667 -0.666992 -20.334 -1.33398 -29.001 -2.00098v-274c8.66699 -1.33301 18.334 -2.66602 29.001 -3.99902c18 -2 40.667 -3 68 -3c32.667 0 60 2.83301 82 8.5
s39.833 14.334 53.5 26.001s23.5 26.667 29.5 45s9 40.5 9 66.5z" />
    <glyph glyph-name="afii10047" unicode="&#x42d;" horiz-adv-x="590" 
d="M145 398l297.999 -0.000976562c-2.66699 41.333 -9.16699 76.333 -19.5 105s-24.5 52 -42.5 70s-40.167 31.167 -66.5 39.5s-56.833 12.5 -91.5 12.5c-36 0 -67.833 -3.5 -95.5 -10.5s-51.167 -16.833 -70.5 -29.5v97c13.333 5.33301 28.666 10 45.999 14
c14.667 3.33301 32.334 6.66602 53.001 9.99902s43.667 5 69 5c104.667 0 183.334 -28 236.001 -84s79 -146.667 79 -272c0 -64 -6.83301 -119.167 -20.5 -165.5s-33.667 -84.333 -60 -114s-59.166 -51.5 -98.499 -65.5s-84.666 -21 -135.999 -21
c-26.667 0 -50.667 1.66699 -72 5s-39.666 7.33301 -54.999 12c-18 4.66699 -34 10.334 -48 17.001v101c19.333 -11.333 43.166 -22.333 71.499 -33s62.166 -16 101.499 -16c66.667 0 118.667 18.833 156 56.5s58.666 99.834 63.999 186.501h-298v80z" />
    <glyph glyph-name="afii10048" unicode="&#x42e;" horiz-adv-x="960" 
d="M615 -11c-45.333 0 -85.4971 6 -120.497 18s-64.833 31 -89.5 57s-43.834 59.5 -57.501 100.5s-21.834 90.5 -24.501 148.5h-130v-313h-92v700h92v-303h131c3.33301 55.333 12.166 102.833 26.499 142.5s33.833 72.167 58.5 97.5s54.167 44 88.5 56s73.5 18 117.5 18
c48.667 0 91.5 -6.5 128.5 -19.5s67.833 -34 92.5 -63s43.167 -66.333 55.5 -112s18.5 -101.167 18.5 -166.5c0 -64 -6.5 -118.833 -19.5 -164.5s-32 -83 -57 -112s-55.833 -50.333 -92.5 -64s-78.667 -20.5 -126 -20.5zM615.003 74c32 0 60.167 4.83301 84.5 14.5
s45 25.334 62 47.001s29.833 50 38.5 85s13 78.167 13 129.5s-4.33301 94.5 -13 129.5s-21.5 63.333 -38.5 85s-37.667 37.334 -62 47.001s-52.5 14.5 -84.5 14.5s-60.167 -4.83301 -84.5 -14.5s-45 -25.334 -62 -47.001s-29.833 -50 -38.5 -85s-13 -78.167 -13 -129.5
s4.33301 -94.5 13 -129.5s21.5 -63.333 38.5 -85s37.667 -37.334 62 -47.001s52.5 -14.5 84.5 -14.5z" />
    <glyph glyph-name="afii10049" unicode="&#x42f;" horiz-adv-x="640" 
d="M219 276c-44.667 15.333 -77.167 40.332 -97.5 74.999s-30.5 79 -30.5 133c0 37.333 4.66699 70 14 98s24.333 51.167 45 69.5s47.5 32 80.5 41s72.833 13.5 119.5 13.5c24 0 47.5 -0.666992 70.5 -2s43.167 -2.66602 60.5 -3.99902c20.667 -2 40 -3.66699 58 -5v-695
h-92v258h-100h-20.5c-6.33301 0 -12.5 0.333008 -18.5 1l-153 -259h-104zM187 480.999c0 -47.333 12.1631 -82.332 36.4961 -104.999s65.5 -34 123.5 -34h101v274c-9.33301 0 -19.666 0.333008 -30.999 1c-9.33301 0.666992 -20.166 1.16699 -32.499 1.5
s-24.833 0.5 -37.5 0.5c-30.667 0 -56.167 -2.5 -76.5 -7.5s-36.666 -13 -48.999 -24s-21.166 -25.333 -26.499 -43s-8 -38.834 -8 -63.501z" />
    </font>
</defs>
</svg>
